<?xml version="1.0" encoding="UTF-8"?>
<svg id="logo-aoj" data-name="logo-aoj" xmlns="http://www.w3.org/2000/svg" width="464.45282" height="132.02016" viewBox="0 0 464.45282 132.02016">
  <g id="logo-g" data-name="logo-g">
    <g>
      <rect y="91.27016" width="464.45282" height="40.75" fill="#fff" opacity=".98"/>
      <g>
        <path d="M38.99676,114.48061c0-1.68018-.74316-2.06396-1.87207-2.06396-.38379,0-.81641,.04785-1.22461,.09619l.67285,1.2959c-1.10449,.6958-1.24902,1.43994-1.24902,3.24023v1.896h1.99219v2.85645h-3.64746c-1.3916,0-1.72852-.38379-1.72852-1.68018v-3.43213c0-2.04053,.14355-2.54443,1.2002-3.4082l-1.58398-3.04834c2.16016-.45605,3.91211-.67236,5.35254-.67236,4.15234,0,5.47168,1.6084,5.47168,4.82471v7.4165h-3.38379v-7.3208Z" fill="#44c38b"/>
        <path d="M38.90008,106.19985h5.1123l-1.10449,2.42432h-6.76758v-2.04004h-1.44043v-2.42432h2.76074c1.24805,0,1.43945,.21631,1.43945,1.27197v.76807Z" fill="#44c38b"/>
        <path d="M51.14129,121.80141h-3.38379v-7.82471c0-1.2002-.48047-1.56006-1.34473-1.56006-.60059,0-1.2002,.14404-1.82422,.43213l-.67188-2.78418c1.03223-.31201,2.08789-.50439,3.07227-.50439,2.47168,0,4.15234,1.05615,4.15234,4.22461v8.0166Z" fill="#44c38b"/>
        <path d="M57.11688,109.80043v6.26465c0,2.04004,.95996,3.12012,2.04004,3.12012,.95996,0,1.63184-.52783,1.63184-1.94434v-7.44043h3.38477v7.87256c0,3.07227-1.77637,4.36865-3.79297,4.36865-1.43945,0-2.47168-.52832-3.26367-1.48828-.04883,.4082-.12012,.83984-.24023,1.24805h-3.38477c.16797-1.08008,.24023-1.96826,.24023-3.67236v-8.32861h3.38477Z" fill="#44c38b"/>
        <path d="M55.02704,108.62416l1.24805-2.71191h4.82422v-1.44043h3.07227v4.15234h-9.14453Z" fill="#44c38b"/>
        <path d="M66.76336,109.80043h3.38477v9.14453h1.24805v2.85645h-2.9043c-1.3916,0-1.72852-.38379-1.72852-1.7041v-10.29688Z" fill="#44c38b"/>
        <path d="M75.81219,117.50502c.33594,1.05615,.79199,1.68018,1.75195,1.68018,1.75195,0,2.30469-1.39209,2.30469-3.45654,0-2.11182-.67188-3.31201-2.20898-3.31201-1.15234,0-1.60742,.67188-2.08789,1.77588l-3.12012-.98389c1.03223-2.56836,2.76074-3.64844,5.20801-3.64844,3.69727,0,5.59277,2.18457,5.59277,6.16846,0,3.67236-1.48828,6.31299-5.68848,6.31299-3.04883,0-4.15234-1.75244-4.75195-3.14453l3-1.39209Z" fill="#44c38b"/>
        <path d="M95.42059,121.80141h-3.38379v-4.39258c-.69629-.11963-1.29688-.19189-1.77637-.19189-1.63184,0-2.18457,.47998-2.18457,1.104,0,.64844,.43164,.86426,1.03223,.86426,.45605,0,1.05566-.14404,1.6084-.31201l.55176,2.61621c-.79199,.35986-1.7041,.55225-2.59277,.55225-2.01562,0-3.98438-1.2002-3.98438-3.64844,0-2.42432,1.58496-4.03223,5.37695-4.03223,.55273,0,1.22461,.07178,1.96875,.14355v-.47998c0-.98389-.67188-1.60791-1.80078-1.60791-1.05566,0-1.72852,.50391-2.01562,1.46387l-3.19238-1.03174c.79199-2.16016,2.68848-3.28857,5.44824-3.28857,2.80859,0,4.94434,1.46436,4.94434,4.48877v7.75244Z" fill="#44c38b"/>
        <path d="M104.18036,121.80141h-3.38379v-7.82471c0-1.2002-.48047-1.56006-1.34473-1.56006-.60059,0-1.2002,.14404-1.82422,.43213l-.67188-2.78418c1.03223-.31201,2.08789-.50439,3.07227-.50439,2.47168,0,4.15234,1.05615,4.15234,4.22461v8.0166Z" fill="#44c38b"/>
        <path d="M110.15594,109.80043v3.48047h.93555l2.30469-3.48047h3.81641l-2.47266,3.72021c1.91992,.50391,2.5918,1.80029,2.5918,4.34424v3.93652h-3.38379v-3.52832c0-1.51221-.38379-2.13623-1.84863-2.13623h-1.94336v5.66455h-3.38477v-12.00098h3.38477Z" fill="#44c38b"/>
        <path d="M123.21063,109.80043v7.10449c0,1.6084,.5293,2.28027,1.41699,2.28027,1.3916,0,2.25586-1.12793,2.25586-3.67236v-5.7124h3.38379v8.32861c0,1.7041,.07227,2.59229,.24023,3.67236h-3.48047c-.07129-.47998-.11914-.91211-.14355-1.34424-.93652,.93604-1.94434,1.58447-3.4082,1.58447-2.20801,0-3.64844-1.4165-3.64844-4.77686v-7.46436h3.38379Z" fill="#44c38b"/>
        <path d="M121.12274,108.62416l1.24805-2.71191h3.8877c.24023-.93652,1.00879-1.44043,2.04004-1.44043,1.29688,0,2.1123,.74414,2.1123,2.08838,0,1.2959-.81543,2.06396-2.1123,2.06396h-7.17578Zm6.50391-2.06396c0,.40771,.26367,.64795,.67188,.64795s.67188-.24023,.67188-.64795c0-.4082-.26367-.67236-.67188-.67236s-.67188,.26416-.67188,.67236Z" fill="#44c38b"/>
        <path d="M127.43524,100.29555h2.5918v3.74414h-2.5918v-3.74414Z" fill="#44c38b"/>
        <path d="M135.6911,121.80141c-.86328,0-1.10352-.14404-1.36719-.76807l-2.59277-6.02441h3.55176l1.65625,3.93604c1.10449,0,1.70508-1.36816,1.70508-3.45605,0-1.96826-.79297-2.83252-3.12109-2.83252h-.31152v-2.85596h.76855c4.3916,0,6.04785,2.04004,6.04785,5.68848,0,4.03223-2.0166,6.3125-5.76074,6.3125h-.57617Z" fill="#44c38b"/>
        <path d="M146.94696,117.50502c.33594,1.05615,.79297,1.68018,1.75195,1.68018,1.75195,0,2.30469-1.39209,2.30469-3.45654,0-2.11182-.67188-3.31201-2.20801-3.31201-1.15234,0-1.6084,.67188-2.08887,1.77588l-3.11914-.98389c1.03125-2.56836,2.75977-3.64844,5.20801-3.64844,3.69629,0,5.59277,2.18457,5.59277,6.16846,0,3.67236-1.48828,6.31299-5.68945,6.31299-3.04785,0-4.15234-1.75244-4.75195-3.14453l3-1.39209Z" fill="#44c38b"/>
        <path d="M150.11395,105.91225h5.56836l-.9834,2.71191h-6.07227c-1.22461,0-1.58496-.26416-1.58496-1.63184v-2.59229h3.07227v1.51221Z" fill="#44c38b"/>
        <path d="M159.97821,109.80043v7.10449c0,1.6084,.5293,2.28027,1.41699,2.28027,1.3916,0,2.25586-1.12793,2.25586-3.67236v-5.7124h3.38379v8.32861c0,1.7041,.07227,2.59229,.24023,3.67236h-3.48047c-.07129-.47998-.11914-.91211-.14355-1.34424-.93652,.93604-1.94434,1.58447-3.4082,1.58447-2.20801,0-3.64844-1.4165-3.64844-4.77686v-7.46436h3.38379Z" fill="#44c38b"/>
        <path d="M179.58758,121.80141h-3.38477v-4.39258c-.69531-.11963-1.29492-.19189-1.77539-.19189-1.63281,0-2.18457,.47998-2.18457,1.104,0,.64844,.43262,.86426,1.03223,.86426,.45605,0,1.05664-.14404,1.6084-.31201l.55176,2.61621c-.79199,.35986-1.7041,.55225-2.5918,.55225-2.0166,0-3.98438-1.2002-3.98438-3.64844,0-2.42432,1.58398-4.03223,5.37598-4.03223,.55176,0,1.22363,.07178,1.96777,.14355v-.47998c0-.98389-.67188-1.60791-1.79883-1.60791-1.05664,0-1.72852,.50391-2.01758,1.46387l-3.19141-1.03174c.79199-2.16016,2.6875-3.28857,5.44824-3.28857,2.80762,0,4.94434,1.46436,4.94434,4.48877v7.75244Z" fill="#44c38b"/>
        <path d="M176.51434,104.15981h3.07227v4.46436h-3.07227v-4.46436Z" fill="#44c38b"/>
        <path d="M185.29852,111.33657h2.9043v2.85596h-4.46387c-1.2959,0-1.82422-.43164-1.82422-1.67969v-2.44824h3.38379v1.27197Zm0,6.74463h2.9043v2.85596h-4.46387c-1.2959,0-1.82422-.40771-1.82422-1.68018v-2.42383h3.38379v1.24805Z" fill="#44c38b"/>
        <path d="M197.51532,114.48061c0-1.68018-.74414-2.06396-1.87305-2.06396-.38281,0-.81543,.04785-1.22363,.09619l.67285,1.2959c-1.10547,.6958-1.24902,1.43994-1.24902,3.24023v4.75244h-3.38379v-5.1123c0-2.04053,.14355-2.54443,1.19922-3.4082l-1.58398-3.04834c2.16016-.45605,3.91211-.67236,5.35352-.67236,4.15234,0,5.47168,1.6084,5.47168,4.82471v7.4165h-3.38379v-7.3208Z" fill="#44c38b"/>
        <path d="M195.47332,106.05629c0,.23975,.19238,.33594,.57617,.33594h3.19238v.35986c0,1.22412-.57617,1.82422-1.84766,1.82422-1.00879,0-1.60938-.4082-2.16016-1.2002l-.38477,.93604h-2.13672v-1.75195c0-2.2085,.69727-2.95215,3.07227-2.95215h4.77734l-.96094,2.11182h-3.55176c-.38379,0-.57617,.07227-.57617,.33643Z" fill="#44c38b"/>
        <path d="M212.51532,114.81704c1.87109,0,2.2793,.40771,2.2793,2.06396v.31201c0,1.43994,.64844,1.99219,1.44043,1.99219,1.34473,0,2.18457-1.03223,2.18457-2.97607v-1.63232c0-1.51221-.83984-2.16016-2.11328-2.16016-1.24805,0-2.11133,.52783-2.61523,1.896l-3.16797-1.104c.93555-2.47217,2.9043-3.64844,5.6875-3.64844,3.38477,0,5.59277,1.63232,5.59277,5.0166v3.55225c0,1.7041,.07227,2.59229,.24023,3.67236h-3.33691c-.14355-.4082-.23926-.81592-.28711-1.24805-.93652,.98389-2.0166,1.48828-3.33691,1.48828-2.0166,0-3.67188-1.36816-3.67188-4.08057v-.28809h-1.03223v-2.85596h2.13672Z" fill="#44c38b"/>
        <path d="M217.91375,105.91225h5.56836l-.98438,2.71191h-6.07227c-1.22461,0-1.58398-.26416-1.58398-1.63184v-2.59229h3.07227v1.51221Z" fill="#44c38b"/>
        <path d="M227.77801,109.80043v7.10449c0,1.6084,.52832,2.28027,1.41699,2.28027,1.3916,0,2.25586-1.12793,2.25586-3.67236v-5.7124h3.38379v8.32861c0,1.7041,.07227,2.59229,.24023,3.67236h-3.48047c-.07129-.47998-.12012-.91211-.14355-1.34424-.93652,.93604-1.94434,1.58447-3.4082,1.58447-2.20898,0-3.64844-1.4165-3.64844-4.77686v-7.46436h3.38379Z" fill="#44c38b"/>
        <path d="M240.6911,121.80141c-1.0332,0-1.20117-.31201-1.41699-.95996l-.83984-2.7124h-1.6084v-2.85596h4.08008l1.17676,3.67188h.14355c1.48828,0,2.40039-1.39209,2.40039-3.6001,0-2.28027-.81641-2.92822-2.25586-2.92822-1.12891,0-1.99219,.55176-2.32812,1.80029l-3.16797-1.10449c.83984-2.20801,2.66406-3.55225,5.49609-3.55225,3.69629,0,5.64062,1.7041,5.64062,5.78467,0,3.67236-1.87305,6.45654-6.00098,6.45654h-1.31934Z" fill="#44c38b"/>
        <path d="M253.36297,111.33657h2.9043v2.85596h-4.46484c-1.29688,0-1.82422-.43164-1.82422-1.67969v-2.44824h3.38477v1.27197Zm0,6.74463h2.9043v2.85596h-4.46484c-1.29688,0-1.82422-.40771-1.82422-1.68018v-2.42383h3.38477v1.24805Z" fill="#44c38b"/>
        <path d="M258.76141,108.16811c0-2.08789,.16797-2.95215,.64844-3.91211h-3.60059l1.27246-2.85645h6.35938v2.01611c-1.12695,1.56006-1.29492,2.92822-1.29492,5.32861v10.20068h1.24805v2.85645h-2.92871c-1.36816,0-1.7041-.38379-1.7041-1.7041v-11.9292Z" fill="#44c38b"/>
        <path d="M268.48211,109.80043v7.70459c0,1.17627,.91211,1.68018,1.82422,1.68018,.93555,0,1.84766-.50391,1.84766-1.68018v-12.50488h3.38477v12.93701c0,2.85596-2.56836,4.10449-5.23242,4.10449-2.61719,0-5.20898-1.24854-5.20898-4.10449v-8.13672h3.38477Z" fill="#44c38b"/>
        <path d="M278.1286,113.4728c0-1.7041-.07129-2.59229-.23926-3.67236h3.4082c.12012,.4082,.19238,.88818,.21582,1.24805,.76758-.83984,1.65625-1.48828,3-1.48828,1.89648,0,3.9375,1.03223,3.9375,4.39258v7.84863h-3.38477v-7.63281c0-1.24805-.50391-1.75195-1.58398-1.75195-1.32031,0-1.96875,1.08008-1.96875,3.14404v6.24072h-3.38477v-8.32861Z" fill="#44c38b"/>
        <path d="M279.30438,108.62416l1.24805-2.71191h4.82422v-1.44043h3.07227v4.15234h-9.14453Z" fill="#44c38b"/>
        <path d="M285.61688,100.29555h2.5918v3.74414h-2.5918v-3.74414Z" fill="#44c38b"/>
        <path d="M294.42547,109.80043v7.10449c0,1.6084,.52734,2.28027,1.41602,2.28027,1.39258,0,2.25586-1.12793,2.25586-3.67236v-5.7124h3.38477v8.32861c0,1.7041,.07227,2.59229,.24023,3.67236h-3.48047c-.07227-.47998-.12012-.91211-.14453-1.34424-.93555,.93604-1.94336,1.58447-3.4082,1.58447-2.20801,0-3.64844-1.4165-3.64844-4.77686v-7.46436h3.38477Z" fill="#44c38b"/>
        <path d="M292.33563,108.62416l1.24805-2.71191h4.8252v-1.44043h3.07227v4.15234h-9.14551Z" fill="#44c38b"/>
        <path d="M298.64813,100.29555h2.59277v3.74414h-2.59277v-3.74414Z" fill="#44c38b"/>
        <path d="M307.33758,116.73696h-3.38477v-11.73682h3.38477v11.73682Zm-3.38477,1.72803h3.38477v3.33643h-3.38477v-3.33643Z" fill="#44c38b"/>
        <path d="M320.08172,104.75991l2.92773,1.43994c-1.84766,1.68018-2.56836,4.05664-2.56836,8.28076,0,4.22461,.7207,6.60059,2.56836,8.28076l-2.92773,1.44043c-2.08887-1.94434-3.02539-4.87256-3.02539-9.72119,0-4.84814,.93652-7.77637,3.02539-9.7207Z" fill="#44c38b"/>
        <path d="M325.98504,114.81704c1.87207,0,2.28027,.40771,2.28027,2.06396v.31201c0,1.43994,.64844,1.99219,1.43945,1.99219,1.34473,0,2.18457-1.03223,2.18457-2.97607v-1.63232c0-1.51221-.83984-2.16016-2.1123-2.16016-1.24805,0-2.11133,.52783-2.61621,1.896l-3.16797-1.104c.93652-2.47217,2.9043-3.64844,5.68848-3.64844,3.38477,0,5.5918,1.63232,5.5918,5.0166v3.55225c0,1.7041,.07227,2.59229,.24023,3.67236h-3.33594c-.14453-.4082-.24023-.81592-.28809-1.24805-.93652,.98389-2.0166,1.48828-3.33691,1.48828-2.01562,0-3.67188-1.36816-3.67188-4.08057v-.28809h-1.03125v-2.85596h2.13574Z" fill="#44c38b"/>
        <path d="M341.24872,109.80043v7.70459c0,1.17627,.91211,1.68018,1.82422,1.68018,.93652,0,1.84863-.50391,1.84863-1.68018v-7.70459h3.38379v8.13672c0,2.85596-2.56738,4.10449-5.23242,4.10449-2.61621,0-5.20801-1.24854-5.20801-4.10449v-8.13672h3.38379Z" fill="#44c38b"/>
        <path d="M344.41571,105.91225h5.56836l-.98438,2.71191h-6.07227c-1.22363,0-1.58398-.26416-1.58398-1.63184v-2.59229h3.07227v1.51221Z" fill="#44c38b"/>
        <path d="M354.28094,109.80043v7.70459c0,1.17627,.91211,1.68018,1.82422,1.68018,.93555,0,1.84766-.50391,1.84766-1.68018v-7.70459h3.38477v8.13672c0,2.85596-2.56836,4.10449-5.23242,4.10449-2.61719,0-5.20898-1.24854-5.20898-4.10449v-8.13672h3.38477Z" fill="#44c38b"/>
        <path d="M364.16864,108.04799c0-2.61621-.21582-3.52783-1.68066-4.82422v-1.82422h8.40137l-1.24805,2.85645h-2.64062c.50488,.95996,.55176,1.7041,.55176,3.79199v10.89697h1.24805v2.85645h-2.92773c-1.36816,0-1.7041-.38379-1.7041-1.7041v-12.04932Z" fill="#44c38b"/>
        <path d="M376.93719,121.60952c-.69629,.28809-1.36914,.43213-2.08789,.43213-3.12109,0-4.99316-2.2085-4.99316-5.83252,0-4.68066,1.55957-6.64893,4.34473-6.64893,1.82422,0,2.73633,.76807,3.55273,2.32812h.16797l.64746-2.08789h2.63965v12.00098h-3.38379v-7.05664h-.52832c-.98438,0-1.27148-.43213-1.63184-1.15186-.38379-.76807-.71973-1.17627-1.22363-1.17627-.86523,0-1.20117,1.2959-1.20117,3.4082,0,1.63232,.3125,3.36035,1.96875,3.36035,.35938,0,.69629-.07227,1.05664-.16797l.67188,2.59229Z" fill="#44c38b"/>
        <path d="M383.7995,109.80043h3.38379v9.14453h1.24902v2.85645h-2.9043c-1.3916,0-1.72852-.38379-1.72852-1.7041v-10.29688Z" fill="#44c38b"/>
        <path d="M397.26434,114.48061c0-1.68018-.74316-2.06396-1.87207-2.06396-.38379,0-.81641,.04785-1.22461,.09619l.67285,1.2959c-1.10449,.6958-1.24902,1.43994-1.24902,3.24023v4.75244h-3.38379v-5.1123c0-2.04053,.14355-2.54443,1.2002-3.4082l-1.58398-3.04834c2.16016-.45605,3.91211-.67236,5.35254-.67236,4.15234,0,5.47168,1.6084,5.47168,4.82471v7.4165h-3.38379v-7.3208Z" fill="#44c38b"/>
        <path d="M391.50262,108.62416l1.24805-2.71191h4.8252v-1.44043h3.07227v4.15234h-9.14551Z" fill="#44c38b"/>
        <path d="M403.07196,111.48061c0-1.27197,.31152-1.68018,1.7998-1.68018h3.62402v2.85596h-2.04004c0,.72021,.24023,1.08057,1.22363,1.08057h1.41699v2.85596h-1.32031c-1.15234,0-1.68066,.28809-1.68066,1.15234,0,1.17578,.98438,1.43994,1.89648,1.43994,1.34375,0,2.16016-.62402,2.16016-2.23242v-7.15234h3.4082v7.96875c0,2.97607-2.37598,4.27246-5.37598,4.27246-2.87988,0-5.47266-.96045-5.47266-4.08057,0-1.32031,.64746-2.25635,1.77637-2.88037-.81641-.55176-1.41602-1.43994-1.41602-2.95215v-.64795Z" fill="#44c38b"/>
        <path d="M418.76727,117.50502c.33594,1.05615,.79297,1.68018,1.75195,1.68018,1.75195,0,2.30469-1.39209,2.30469-3.45654,0-2.11182-.67188-3.31201-2.20801-3.31201-1.15234,0-1.6084,.67188-2.08887,1.77588l-3.11914-.98389c1.03125-2.56836,2.75977-3.64844,5.20801-3.64844,3.69629,0,5.59277,2.18457,5.59277,6.16846,0,3.67236-1.48828,6.31299-5.68945,6.31299-3.04785,0-4.15234-1.75244-4.75195-3.14453l3-1.39209Z" fill="#44c38b"/>
        <path d="M430.14422,124.2018l-2.92871-1.44043c1.84863-1.68018,2.56738-4.05615,2.56738-8.28076,0-4.22412-.71875-6.60059-2.56738-8.28076l2.92871-1.43994c2.08789,1.94434,3.02344,4.87256,3.02344,9.7207,0,4.84863-.93555,7.77686-3.02344,9.72119Z" fill="#44c38b"/>
      </g>
      <rect width="427.11677" height="75.82553" fill="#fff" opacity=".98"/>
      <g>
        <g>
          <path d="M84.22849,53.37384l.52514-1.51893,.52405-1.519,.52898-1.51632,.52913-1.51707,.53713-1.51704,.52143-1.52218,.53111-1.51731,.5292-1.51915,.52028-1.52419,.53159-1.51837,.53037-1.52078,.52753-1.52082,.53871-1.51854,.51513-1.52192,.53679-1.51443,.53227-1.52163,.5225-1.52221,.52936-1.52212,.53539-1.52194,.52755-1.52223,.52393-1.52749,.52935-1.52836,.53976-1.52201,1.85454-.01046,1.85978,.00695,1.86314-.00528,.52427,1.52562,.52382,1.51908,.5345,1.5144,.52714,1.51776,.52475,1.52134,.52859,1.51969,.53095,1.51737,.52354,1.52112,.52967,1.52093,.53664,1.51661,.52359,1.52314,.5265,1.52117,.53407,1.52015,.52583,1.5182,.52948,1.51698,.5315,1.5219,.52996,1.51962,.53234,1.52108,.52646,1.52505,.52447,1.52331,.53505,1.52362,.53482,1.52646,.52769,1.53135-1.55725,.00363-1.55851-.00705-1.56102,.00248-1.55772-.0053-.48532-1.44196-.47326-1.4472-.46657-1.45315-.47746-1.45216-.4829-1.45081-1.57696,.00688-1.57394-.00184-1.57606-.00991-1.57783,.00402-1.57559,.00159-1.57927,.00046-1.58182,.00264-1.58334-.00542-.46991,1.45224-.48544,1.44319-.46863,1.45247-.48611,1.44932-.47419,1.4498-1.56432,.00786-1.57116-.00977-1.5737,.00617-1.57149-.00131Zm10.28644-12.31568l1.55423-.00289,1.55374-.00406,1.55153,.00148,1.55516,.00137,1.55767,.00894,1.55661-.00701-.51345-1.56564-.5173-1.57117-.52601-1.56542-.51475-1.57147-.51717-1.57263-.519-1.56955-.50947-1.57676-.53251-1.57198-.5131-1.58088-.52141,1.56659-.51177,1.57299-.5171,1.56836-.52325,1.56867-.51672,1.57278-.51109,1.57216-.51689,1.57432-.5299,1.57284-.51803,1.57896Z" fill="#44c38b"/>
          <path d="M133.19552,34.36375l-.9685-1.06524-1.25831-.69032-1.42273-.21533-1.62583,.27069-1.40385,.85478-.97786,1.3264-.50875,1.57114-.14863,1.64984-.0031,1.69483,.00576,1.70044,.00109,1.69763-.00772,1.69991,.00094,1.70183-.00021,1.6994,.00062,1.70338,.00493,1.70612-.00439,1.7028-1.80302,.00436-1.80908,.00181-1.80569-.00647-.00015-1.68524-.00429-1.68699-.00052-1.68896,.00437-1.68802-.00359-1.68962,.0041-1.68485-.00787-1.68489,.00357-1.69046,.00328-1.68767-.0044-1.68994,.00206-1.69184-.0035-1.68943,.00178-1.69339-.00212-1.69612,.00134-1.69877,1.77494,.00043,1.77525,.00107,1.77232,.00343,.00167,2.2792,1.08246-1.2344,1.38632-.87722,1.56836-.48742,1.64189-.13391,1.67002,.12233,1.61697,.42712,1.48277,.77032,1.2624,1.09553,1.01503,1.33192-1.43814,1.00852-1.43529,1.01699-1.43673,1.01431Z" fill="#44c38b"/>
          <path d="M160.27069,49.51972l-1.02219,1.44512-1.31119,1.17752-1.54394,.84477-1.68694,.51819-1.7459,.25907-1.76826,.07177-1.6418-.0898-1.61937-.27212-1.5651-.49699-1.46933-.73028-1.32265-.97159-1.12574-1.19349-.8955-1.3736-.67434-1.49432-.44861-1.57767-.2641-1.62026-.07499-1.64134,.00115-1.72362-.004-1.72362,.06673-1.59083,.19377-1.57885,.36008-1.54824,.55355-1.48949,.77839-1.38584,1.02981-1.20799,1.23534-.99545,1.40658-.73432,1.51392-.47917,1.56605-.26669,1.58906-.0774,1.61415,.07832,1.58945,.27592,1.53262,.50098,1.41783,.76547,1.23543,1.03227,1.00249,1.26067,.75333,1.42431,.52574,1.52278,.33383,1.57853,.18365,1.60381,.04751,1.61544,.00483,1.39409,.00259,1.39793-1.68119-.00107-1.68355-.00738-1.68077,.00745-1.68303,.002-1.68492-.00811-1.68252,.00324-1.68646,.00057-1.68918,.0031-1.68933-.00613-.00372,.1039,.10603,1.6938,.35638,1.65509,.71657,1.53105,1.15158,1.23089,1.52113,.723,1.67789,.21234,1.52096-.09143,1.47227-.3866,1.27387-.82297,.95401-1.18144,1.35311,.94068,1.34764,.95389,1.35931,.94017Zm-14.75441-11.66155l1.60926,.00225,1.61285,.00455,1.61055-.00236,1.61432-.00255,1.61692-.00225,1.61531,.00084-.20314-1.65532-.52154-1.58159-.98748-1.329-1.45399-.78491-1.6482-.21644-1.64121,.23276-1.44395,.80239-.9943,1.32369-.55348,1.56469-.23194,1.64324Z" fill="#44c38b"/>
          <path d="M175.27186,38.41701l1.82302-.00077,1.82596,.00217,1.82316-.00024-.00081-2.12671-.12324-1.51749-.61413-1.37679-1.26286-.81482-1.49037-.28699-1.52447-.06223-1.53717,.05473-1.50943,.27732-1.31593,.76222-.95942,1.18596-1.30139-.90685-1.30146-.91354-1.29743-.9164,.918-1.27291,1.15599-1.06402,1.34792-.80419,1.47273-.53795,1.54112-.31804,1.56461-.16291,1.57669-.04156,1.7142,.05108,1.70818,.18957,1.66877,.39832,1.56631,.68947,1.34296,1.0541,.99147,1.38923,.60556,1.59913,.30828,1.6832,.08145,1.71299,.00446,1.70143-.00659,1.69729,.00034,1.7029,.00623,1.70009-.00864,1.70237,.00613,1.70429,.00174,1.70186-.0021,1.70585-.00226,1.7086,.00379,1.71225-1.77592,.00151-1.77525-.01007-1.77122,.00184-.00905-2.32795-1.06529,1.33592-1.43792,.9194-1.65676,.42422-1.71553,.10794-1.69894-.09209-1.66932-.32081-1.5956-.58475-1.44553-.88894-1.17876-1.21945-.83342-1.47642-.46628-1.63197-.13941-1.69405,.1565-1.70668,.50655-1.63294,.91811-1.43925,1.28342-1.12527,1.51868-.78085,1.64108-.48629,1.6945-.25407,1.71397-.08098Zm5.47287,4.16338l-1.68591,.00144-1.6907-.00217-1.6907,.00153-1.60417,.1179-1.52419,.49781-1.08132,1.15678-.3052,1.56966,.31081,1.49936,1.02706,1.12522,1.43785,.53298,1.53636,.14072,1.75945-.13515,1.65614-.58285,1.18635-1.278,.53876-1.66906,.1367-1.76247-.00728-1.21371Z" fill="#44c38b"/>
          <path d="M227.53744,42.27329l-.06543,1.63283-.2264,1.61676-.39969,1.58431-.61045,1.51271-.8379,1.39888-1.07291,1.22719-1.28944,.99657-1.44843,.74524-1.55644,.48781-1.60849,.27149-1.6322,.08568-1.63164-.0918-1.60854-.27334-1.5532-.50189-1.44815-.75093-1.28718-1.00049-1.08766-1.21456-.84854-1.39227-.62502-1.50587-.41309-1.57878-.22462-1.61718-.07158-1.63235,.005-1.59683-.00742-1.59683,.0732-1.63382,.21327-1.61999,.40372-1.58308,.61555-1.51201,.85468-1.39053,1.08683-1.21549,1.2986-.98566,1.45548-.73414,1.55866-.4814,1.60936-.27134,1.63228-.08008,1.63017,.0771,1.60678,.2741,1.55593,.48467,1.4513,.73921,1.29231,.98862,1.08721,1.21156,.83917,1.39501,.60727,1.50978,.39681,1.58055,.21761,1.61582,.066,1.63111-.00864,1.59683,.00586,1.59683Zm-5.37478-.15204l-.00275-1.47011,.0061-1.47011-.095-1.65774-.33433-1.62499-.68712-1.50504-1.12871-1.20121-1.48957-.7025-1.64161-.19985-1.65115,.19701-1.49998,.70125-1.13466,1.20276-.70232,1.50304-.33864,1.62449-.09587,1.66279-.0012,1.47011-.00327,1.47011,.09794,1.68952,.32443,1.65618,.68054,1.54078,1.13406,1.2364,1.51539,.71899,1.67473,.20336,1.65472-.21763,1.48202-.75792,1.1112-1.2387,.67573-1.52547,.34643-1.63429,.10288-1.67124Z" fill="#44c38b"/>
          <path d="M234.73627,28.02952l-.00539-1.57278,.0723-1.69234,.26134-1.67097,.56462-1.59219,.99551-1.35678,1.4031-.92952,1.60359-.52632,1.67504-.22329,1.69172-.07573,1.57146,.0068-.00602,1.62036,.00312,1.62309,.00086,1.62154-1.1638,.00314-1.56375,.19866-1.23189,.92275-.42679,1.50509-.07577,1.5795,.00279,.55842,1.48572-.00452,1.48783-.00054,1.48773,.00439-.00489,1.5529,.00404,1.55549-.00344,1.5513-1.48105,.00353-1.48783,.00638-1.49104-.00873,.00019,1.59295-.00186,1.58906,.00153,1.59056-.00185,1.58607,.00434,1.58611,.00218,1.59136-.00374,1.58873-.0022,1.59086-.00076,1.59266,.00052,1.59039,.00227,1.59411-.00399,1.59668,.011,1.60164-1.7937,.0005-1.79217-.00753-1.79337,.00343,.00599-1.59131-.00195-1.58906-.00939-1.59056,.0063-1.58607,.00495-1.58611-.00232-1.59136,.00461-1.58873-.00693-1.59086,.00373-1.59266,.00099-1.59039-.0006-1.59411,.00147-1.59668-.00798-1.59432-1.61989-.0018-1.62064-.00221,.0044-1.55135-.00874-1.55549,.00551-1.55264,1.61947,.00336,1.62351-.00489Z" fill="#44c38b"/>
          <path d="M265.50444,46.17239l1.00548,1.0943,1.24175,.80655,1.399,.48516,1.47514,.15507,1.58254-.13936,1.50548-.49514,1.24771-.97176,.85771-1.3323,.51224-1.5035,.2921-1.56184,.14025-1.58134,.0442-1.59235,.00181-1.62503-.00361-1.62412-.0006-1.62566,.01079-1.62107-.00432-1.62111-.00469-1.62647,.00328-1.62379,.00192-1.62597-.00401-1.6278-.00167-1.62548,.00788-1.62929v-1.63191s-.00201-1.62981-.00201-1.62981l1.46404,.00013,1.46982-.00412,1.47219-.00509,1.46956,.00935,.00492,1.62265,.00057,1.62412,.00227,1.62566-.00226,1.62107-.00995,1.62111,.00891,1.62647-.00153,1.62379-.00189,1.62597-.00476,1.6278,.00844,1.62548-.00589,1.62929,.00733,1.63191-.00213,1.63191-.0457,1.63872-.12329,1.63129-.23469,1.62133-.37555,1.59384-.52983,1.54763-.72994,1.46414-.9472,1.33188-1.15802,1.15058-1.3509,.91642-1.49228,.66064-1.57451,.43227-1.61648,.24086-1.6348,.06513-1.69381-.08761-1.67856-.24897-1.62882-.47077-1.55278-.67946-1.42463-.91793-1.26191-1.13094-1.04758-1.32727,1.63461-.93087,1.64233-.92579,1.63634-.9386Z" fill="#44c38b"/>
          <path d="M298.86167,38.41568l1.82302,.00281,1.82596,.00134,1.82678,.00143-.00457-2.12981-.1244-1.51723-.6137-1.37632-1.26429-.80872-1.48828-.29158-1.52426-.05784-1.53713,.04853-1.50801,.28126-1.31651,.75882-.96245,1.19328-1.30064-.91313-1.30213-.91258-1.2992-.91653,.92561-1.27246,1.15157-1.0682,1.34573-.80943,1.47481-.53464,1.54099-.32142,1.56558-.15587,1.57664-.04343,1.71443,.0486,1.70681,.19995,1.66832,.39639,1.56965,.68155,1.34121,1.05709,.98839,1.39084,.60922,1.59738,.30253,1.6839,.0894,1.71244-.00002,1.70143-.00078,1.69729-.00082,1.7029-.0059,1.70009,.00632,1.70237,.00099,1.70429-.0004,1.70186-.00328,1.70585,.00479,1.7086-.00313,1.70962-1.77339-.00616-1.77525,.00804-1.77597-.00237-.00108-2.33214-1.0681,1.33694-1.43813,.91943-1.65648,.42722-1.71601,.09902-1.69822-.09276-1.67168-.30855-1.59778-.5829-1.43727-.90247-1.18286-1.21415-.82777-1.47863-.46646-1.63053-.13894-1.69304,.14226-1.70816,.51414-1.63164,.91238-1.44435,1.28499-1.12681,1.52228-.77645,1.64076-.48978,1.69536-.25258,1.71438-.0779Zm5.4721,4.16578l-1.68513-.00189-1.6907-.00134-1.6907-.00181-1.60415,.12281-1.52355,.49883-1.08095,1.1561-.29903,1.56918,.30563,1.49839,1.02853,1.12056,1.43443,.5382,1.53627,.13653,1.75923-.13183,1.65186-.58886,1.1887-1.27188,.53735-1.66849,.1355-1.76186-.00327-1.21264Z" fill="#44c38b"/>
          <path d="M339.2576,42.37469l-.06613,1.72045-.25069,1.70374-.45454,1.66012-.67649,1.58262-.94249,1.4375-1.18373,1.24531-1.42483,.95881-1.58397,.66545-1.67913,.37162-1.71799,.1073-1.6657-.08865-1.6394-.31145-1.53406-.6384-1.29594-1.0363,.0008,1.60389,.00571,1.6057-.009,1.60751,.00117,1.60522-.00144,1.60898-.00149,1.61157,.00544,1.61168-1.80626,.00646-1.80908-.0121-1.80482,.00089-.0084-1.65641,.01032-1.66184-.00172-1.66452-.00681-1.66421,.00391-1.66275-.00055-1.66389-.00532-1.66579,.00328-1.66394,.00048-1.66588,.00046-1.66495-.00145-1.66653,.0014-1.66182,.00367-1.66186,.00103-1.66736-.00227-1.66461-.00769-1.66684,.01206-1.66873-.00138-1.66635-.00832-1.67025,.00949-1.67294-.01124-1.67809,1.81093,.00231,1.80908,.00733,1.80889-.00433-.00055,2.02784,1.25892-1.17143,1.53254-.7836,1.67276-.40898,1.72116-.11874,1.70487,.10874,1.66454,.38102,1.57769,.65065,1.40914,.96049,1.19811,1.21374,.93867,1.42494,.67469,1.56653,.44103,1.64937,.25213,1.68943,.07846,1.70908,.00318,1.72364-.01315,1.72361Zm-5.36015-.25345l-.0115-1.47011,.00117-1.47011-.08933-1.65766-.34096-1.62282-.67689-1.50919-1.1348-1.19498-1.48595-.70854-1.64206-.20055-1.59601,.19291-1.46208,.65275-1.12876,1.13486-.70645,1.4407-.36058,1.56272-.12079,1.60558,.00085,1.62222,.00571,1.62222,.0787,1.68598,.31887,1.65346,.66247,1.54534,1.12276,1.24488,1.51502,.71316,1.67029,.19715,1.65523-.21061,1.48763-.75175,1.09988-1.24985,.69153-1.51893,.34369-1.63659,.10235-1.67224Z" fill="#44c38b"/>
          <path d="M354.47233,38.42147l1.82307-.00612,1.82601,.0081,1.82225-.00612,.00193-2.12588-.1295-1.51661-.60901-1.37829-1.26474-.81083-1.48915-.29153-1.5246-.05566-1.53754,.04481-1.50939,.28079-1.31893,.75953-.95707,1.19346-1.30265-.90737-1.30071-.91454-1.30131-.91459,.92354-1.27693,1.15273-1.06831,1.34844-.80561,1.47464-.5349,1.54118-.31982,1.56531-.15743,1.57661-.04052,1.71444,.04541,1.70691,.19942,1.66993,.39168,1.56496,.69195,1.34587,1.05036,.98706,1.39225,.60941,1.59741,.30711,1.6835,.08605,1.71298-.0039,1.70143-.00394,1.69729-.00029,1.7029,.00183,1.70009,.00404,1.70237-.00455,1.70429,.00223,1.70186,.0048,1.70585-.00096,1.7086-.0011,1.71173-1.77541-.00737-1.77525-.00006-1.77231,.00207-.00364-2.32955-1.07051,1.33574-1.43641,.92188-1.65728,.42359-1.71567,.1113-1.69882-.09734-1.66965-.319-1.59592-.58443-1.44225-.8935-1.17862-1.21817-.83573-1.4745-.45987-1.63295-.14636-1.69283,.15154-1.70759,.50757-1.63379,.91756-1.44131,1.28774-1.12161,1.5176-.7837,1.64179-.4854,1.69495-.25181,1.71395-.07666Zm5.47562,4.15529l-1.68854,.00594-1.69073-.0081-1.69073,.00785-1.60447,.11487-1.52164,.50352-1.08441,1.15244-.3008,1.57005,.30619,1.49987,1.03096,1.12011,1.43411,.54202,1.53724,.13739,1.76033-.1313,1.65324-.59111,1.18493-1.27657,.53955-1.66763,.13258-1.76202,.00219-1.21734Z" fill="#44c38b"/>
          <path d="M373.32842,28.02658l1.77393,.00274,1.77525-.0046,1.77439,.00413-.0022,2.28119,1.23816-1.28014,1.55126-.86596,1.71849-.4608,1.78121-.12775,1.71851,.09731,1.6847,.35067,1.59291,.64618,1.41273,.97669,1.13423,1.28984,.81273,1.51009,.51583,1.64151,.27633,1.69738,.08101,1.72298-.00483,1.58145-.00108,1.58149,.00593,1.58672-.00646,1.58411,.00359,1.58623,.0037,1.58802-.00836,1.58576,.00221,1.58947,.00615,1.59203-.00076,1.595-1.79194-.00298-1.79219-.00237-1.79295,.00319,.00073-1.69003-.00052-1.69481-.00441-1.69202,.00237-1.69429,.00127-1.6962,.00459-1.69378-.00757-1.69774,.00652-1.70048-.00539-1.70048-.11322-1.71878-.47011-1.65446-1.00802-1.37622-1.51642-.77943-1.70493-.20433-1.72426,.23779-1.55174,.77876-1.13646,1.31047-.62643,1.62145-.17853,1.73413-.00302,1.69483-.00143,1.70044,.00043,1.69763,.00167,1.69991-.00192,1.70183-.00084,1.6994-.00388,1.70338,.00106,1.70612,.00605,1.70845-1.80836,.00257-1.80908-.00094-1.8103-.00265,.00577-1.69018-.0088-1.68699,.00342-1.68896-.00051-1.68802,.00476-1.68962,.00121-1.68485-.00429-1.68489-.00544-1.69046,.00877-1.68767-.0018-1.68994,.00107-1.69184-.00176-1.68943,.00397-1.69339-.00238-1.69612-.00429-1.69772Z" fill="#44c38b"/>
        </g>
        <path d="M48.05309,51.2342l1.85812-1.50261,.89382-1.35536,.88275-1.36135,.85023-1.38584,.8394-1.38593,.80713-1.409,.8013-1.41527,.75897-1.43941,.72159-1.46013,.69715-1.47376,.63407-1.50323,.57809-1.52303,.49368-1.55228,.36216-1.5864,.13692-1.61464-.0953-1.60016-.31113-1.57248-.51567-1.51761-.70995-1.43717-.90011-1.32522-1.05511-1.20462-1.19948-1.06173-1.33154-.89124-1.43611-.71077-1.51669-.5169-1.57336-.30417-1.59892-.11269-1.60055,.10366-1.57129,.31715-1.51529,.5202-1.43669,.70865-1.3307,.89143-1.20433,1.05597-1.05758,1.20304-.88719,1.3334-.70927,1.43565-.52683,1.51284-.30245,1.57383-.11168,1.59893,.15624,1.61304,.35267,1.58468,.49415,1.5479,.57368,1.52115,.63728,1.4953,.68641,1.47501,.7235,1.46002,.77083,1.43625,.78659,1.42703,.82109,1.40385,.83045,1.40194,.86537,1.37782,.86726,1.37236,.90923,1.34449,1.84978,1.50186-1.64727,.00211-1.6459,.00693-1.6481,.00373-1.64996-.00918-1.64761,.00686-1.65147,.00199-1.65413-.00325-1.6536-.00324,.00233,2.03669-.00579,2.03951,1.66147-.00664,1.65968,.01057,1.66157-.00653,1.65972,.00675,1.66166-.00247,1.66073-.00888,1.6623,.00718,1.65761-.00733,1.65765,.00975,1.66314,.0022,1.66039-.00316,1.66262-.00073,1.6645-.00174,1.66213,.00468,1.66602-.00818,1.6687,.00399,1.66616-.00391,.00704-2.03504-.00651-2.03549-1.64659-.00414-1.64588,.00244-1.64809-.00449-1.64995,.00641-1.6476-.00241-1.65145,.00372-1.65411-.00575-1.65412,.0026Zm-6.88029-21.96824l.20366-1.54137,.58801-1.43907,.95333-1.22787,1.22748-.95359,1.43876-.58935,1.54108-.20847,1.54039,.2147,1.43568,.59189,1.23775,.94027,.94083,1.23719,.60206,1.43312,.19885,1.54256-.20806,1.54105-.59872,1.4325-.93718,1.23901-1.23712,.94003-1.43448,.59456-1.54,.2018-1.54097-.20172-1.4399-.58579-1.2323-.94922-.94135-1.23663-.59492-1.43499-.2029-1.54062Z" fill="#44c38b"/>
      </g>
    </g>
  </g>
</svg>
