<?xml version="1.0" encoding="UTF-8"?>
<svg id="logo-aoj" data-name="logo-aoj" xmlns="http://www.w3.org/2000/svg" width="529.45282" height="132.02016" viewBox="0 0 529.45282 132.02016">
  <g id="logo-g" data-name="logo-g">
    <g>
      <rect y="91.27016" width="529.45282" height="40.75" fill="#fff" opacity=".98"/>
      <g>
        <path d="M48.67254,113.51332c-.87402-.09473-1.74756-.13281-2.8877-.13281h-11.24609c-1.06396,0-2.05176,.05664-2.90674,.13281v-2.50781c.81689,.09521,1.67188,.1333,2.90674,.1333h11.24609c1.27295,0,2.14697-.03809,2.8877-.1333v2.50781Z" fill="#44c38b"/>
        <path d="M54.12811,106.6935c0-.74121-.03809-1.40576-.09521-2.03271,.60791,.07568,1.23486,.09473,2.10889,.09473h9.19434c.89307,0,1.48193-.01904,2.05176-.09473-.07568,.72168-.09473,1.27246-.09473,1.9375v12.27246c0,.98779,.0376,1.61475,.11377,2.29834h-2.29883v-1.13965h-8.8335v1.13965h-2.26074c.07617-.646,.11426-1.40576,.11426-2.29834v-12.17725Zm2.14648,4.4834h8.8335v-4.40771h-8.8335v4.40771Zm0,6.85791h8.8335v-4.86328h-8.8335v4.86328Z" fill="#44c38b"/>
        <path d="M73.31805,106.76918c0-.85449-.01855-1.34863-.07568-1.91846,.41797,.03809,.77881,.05713,1.67188,.05713h2.29834c.85498,0,1.19678-.01904,1.65283-.05713-.05713,.43701-.05713,.77881-.05713,1.88037v10.8667c0,1.00684,.01904,1.4248,.05713,1.8999h-1.9375v-.9502h-1.729v1.5957h-1.99463c.07617-.58887,.11377-1.25391,.11377-2.26074v-11.11328Zm1.8999,3.91357h1.70996v-3.97021h-1.70996v3.97021Zm0,6.02197h1.70996v-4.27441h-1.70996v4.27441Zm6.53516-8.98535q-1.57666,.0376-2.03271,.09473v-2.01367c.53174,.07617,1.13965,.11426,1.97559,.11426h1.67188v-.51318c0-.53174-.03809-.94971-.11426-1.4248h2.18506c-.05713,.43701-.09521,.83594-.09521,1.4248v.51318h2.0708c.81689,0,1.44385-.03809,1.97559-.11426v2.01367c-.53174-.07568-1.10156-.09473-1.95654-.09473h-2.08984v1.80469h2.62158c.91211,0,1.5957-.03809,2.0708-.11426v2.01367c-.5127-.07568-1.02588-.09473-1.86182-.09473h-.32275v1.61475h.24707c.91162,0,1.4248-.01904,1.88037-.09521v2.0708c-.55078-.09473-1.02588-.11377-1.88037-.11377h-.24707v4.29297c0,1.10205-.18994,1.55811-.75977,1.82373-.4751,.20898-1.14014,.3042-2.08984,.3042q-.1709,0-1.48193-.01904c-.03809-.81689-.1709-1.38672-.45605-1.99463,.4751,.07617,1.46289,.15186,2.12793,.15186,.58887,0,.70264-.09473,.70264-.5127v-4.04639h-4.54004c-.70312,0-1.4248,.0376-2.03271,.11377v-2.0708c.49365,.07617,1.08301,.09521,2.0708,.09521h4.50195v-1.61475h-4.50195c-.79785,0-1.50098,.03809-2.08984,.09473v-2.01367c.4751,.07617,1.19678,.11426,2.10889,.11426h1.95654v-1.80469h-1.61475Zm.74072,11.49316c-.75977-1.27295-1.48145-2.18457-2.43164-3.11572l1.61475-1.06348c.93115,.83545,1.69092,1.70947,2.48877,2.90625l-1.67188,1.27295Z" fill="#44c38b"/>
        <path d="M96.612,118.96547c0,1.13965,.0376,1.82373,.11377,2.33691h-2.22266c.07617-.57031,.11377-1.17822,.11377-2.35596v-12.40527c0-.98779-.01855-1.51953-.07568-2.12744,.53174,.05713,1.02588,.07617,1.95654,.07617h3.36279c.98779,0,1.42432-.01904,1.9375-.07617-.03809,.60791-.05713,1.02588-.05713,1.7666v2.90674c0,.87402,.01904,1.31055,.05713,1.72852-.49414-.0376-1.08301-.05664-1.74756-.05664h-3.43848v8.20654Zm0-11.9873h3.26709v-.94971h-3.26709v.94971Zm0,2.31787h3.26709v-.96875h-3.26709v.96875Zm9.74512,8.16895c0,.72168,.01904,1.15869,.05713,1.65234,.41797,.03809,1.10205,.09521,1.44385,.09521,.53174,0,.70312-.13281,.70312-.51318v-7.94043h-3.74268c-.66504,0-1.27295,.01904-1.74756,.05664,.03809-.55078,.05664-.91162,.05664-1.72852v-2.90674c0-.646-.01855-1.17773-.05664-1.7666,.5127,.05713,.96875,.07617,1.9375,.07617h3.64746c.94971,0,1.4248-.01904,1.95654-.07617-.05664,.68408-.07568,1.15869-.07568,2.10889v12.44287c0,1.13965-.22803,1.63379-.91211,1.91895-.39893,.1709-.96875,.22803-2.14648,.22803-.26611,0-.3418,0-1.31104-.05713-.11377-.85498-.20898-1.19678-.49365-1.95703-.55078-.01855-.91211-.01855-1.06396-.01855h-4.02734v1.06348h-2.01367c.07617-.45557,.13281-1.21582,.13281-1.89941v-4.63525c0-.66504-.01904-1.19727-.05664-1.70996,.55078,.05713,.98779,.07617,1.7666,.07617h4.23633c.79785,0,1.21582-.01904,1.7666-.07617-.03809,.49414-.05713,.96875-.05713,1.70996v3.85645Zm-5.7749-2.75488h3.87549v-1.13965h-3.87549v1.13965Zm0,2.77344h3.87549v-1.23438h-3.87549v1.23438Zm4.42627-10.50537h3.55273v-.94971h-3.55273v.94971Zm0,2.31787h3.55273v-.96875h-3.55273v.96875Z" fill="#44c38b"/>
        <path d="M122.05243,105.42055c-.09521,.55078-.22803,1.32959-.41797,2.35547q-.05713,.32324-.11377,.57031c.56982-.01904,.83545-.03809,1.17773-.03809,1.25391,0,2.18457,.3418,2.81152,1.00684,.646,.72168,.89258,1.63379,.89258,3.3623,0,3.26758-.55078,5.87012-1.4624,6.91504-.53223,.62695-1.10205,.85498-2.10889,.85498-.87402,0-1.65283-.15186-2.92529-.56982,.01855-.36133,.0376-.646,.0376-.83594,0-.49414-.0376-.87402-.18994-1.61475,1.02588,.45557,2.10889,.75977,2.77393,.75977,.55078,0,.85449-.36084,1.13965-1.29199,.30371-.98779,.49365-2.71631,.49365-4.33105,0-1.74805-.43652-2.26074-1.89941-2.26074-.39893,0-.70312,.01904-1.13965,.05713-.93115,3.89404-1.78613,6.19287-3.87549,10.33447l-2.20361-1.21582c1.4624-1.99512,2.92529-5.41455,3.81836-8.94775q-.28516,.03809-.89307,.15186l-1.72852,.28516c-.3042,.05664-.51318,.11377-.7793,.18994l-.22754-2.2417c.85449-.01904,1.84229-.11426,4.04639-.39893,.36084-2.10889,.49365-3.19189,.49365-3.8374v-.34229l2.46973,.24707c-.05713,.15186-.11377,.39893-.15186,.58887l-.03809,.24707Zm5.7749-.77881c.83594,.89258,1.34912,1.61475,1.99512,2.79248l-1.33008,.70312c-.62695-1.15918-1.15869-1.91895-1.99463-2.83057l1.32959-.66504Zm1.76709,3.76123c1.31055,1.80469,2.29834,3.85645,2.84961,6.04102l-2.16602,1.08301c-.37988-1.99463-1.55762-4.78711-2.60254-6.17383l1.91895-.9502Zm1.17773-1.46289c-.56982-1.04443-1.19678-1.9375-1.93799-2.75439l1.27295-.66504c.85498,.87402,1.38672,1.5957,1.97559,2.67871l-1.31055,.74072Z" fill="#44c38b"/>
        <path d="M136.01825,106.54116c.41797,.01904,.62695,.01904,.72168,.01904q.34229,0,3.13477-.18994c1.38672-.07568,4.63525-.24658,9.70752-.49365,1.55762-.07617,1.65283-.07617,1.95654-.15234l.1333,2.41309q-.20898-.01904-.39893-.01904c-1.14014,0-2.5459,.37988-3.76172,1.02588-2.4126,1.25342-3.8374,3.15332-3.8374,5.07227,0,1.48145,.93115,2.62158,2.52686,3.09619,.93066,.28516,2.14648,.49414,2.83057,.49414,.01904,0,.18994,0,.37988-.01904l-.3418,2.5835c-.24707-.05713-.28516-.05713-.646-.11377-2.08984-.26611-3.28662-.60791-4.44531-1.25391-1.74805-.98779-2.7168-2.60254-2.7168-4.57812,0-1.61523,.646-3.21094,1.80469-4.46436,.72217-.7793,1.40576-1.29199,2.64062-1.91895-1.53857,.22803-2.71631,.3418-6.40186,.60791-1.69092,.13281-2.56494,.24707-3.15381,.37988l-.13281-2.48877Zm13.08887,3.64746c.83594,.89307,1.34912,1.61475,1.99512,2.79297l-1.33008,.70264c-.62695-1.15869-1.15869-1.91846-1.99463-2.83057l1.32959-.66504Zm2.94482,2.29883c-.56982-1.04492-1.19678-1.9375-1.93799-2.75439l1.27295-.66504c.85498,.87402,1.38672,1.5957,1.97559,2.67871l-1.31055,.74072Z" fill="#44c38b"/>
        <path d="M157.31707,106.84536c.55127,.05713,.98828,.07617,1.82373,.07617,1.44385,0,2.46973-.05713,3.91357-.20898q-.05713-.15234-.20898-.49414c-.47461-1.10205-.74072-1.69092-.75977-1.72852l2.37451-.32324c.07617,.4751,.26611,1.04492,.77881,2.29883,1.61475-.20898,3.81836-.70312,5.12939-1.14014l.18994,2.01416q-.18994,.0376-.646,.13281c-1.27246,.30371-3.38135,.72168-3.97021,.79785,.30371,.70264,.41797,.94971,.74072,1.55762,1.63379-.3418,2.50781-.53174,2.62158-.55078,1.08301-.26611,1.31104-.3418,1.80469-.55078l.18994,2.07031c-.36084,.05713-.75977,.1333-1.19678,.24707-.77881,.18994-1.40576,.32324-1.86133,.41797q-.4751,.09521-.70312,.15186c.98779,1.63379,1.29199,2.03271,2.54541,3.47656l-1.67139,1.19678c-1.36816-.56982-2.50781-.77881-4.36963-.77881-1.44385,0-2.54541,.18994-3.19141,.53223-.53174,.30371-.81689,.70264-.81689,1.15869s.32275,.89258,.81689,1.10156c.60791,.26611,1.61475,.41797,2.7168,.41797,1.97559,0,4.6543-.56982,5.85107-1.23486l.3418,2.33691q-.36084,.05713-1.23486,.28467c-1.61475,.43701-3.19141,.646-4.86328,.646-2.18457,0-3.57129-.28467-4.63525-.93066-.91211-.56982-1.46289-1.53857-1.46289-2.60254,0-1.02588,.56982-1.97607,1.5957-2.64062,.98779-.62695,2.50781-.9502,4.42676-.9502,1.15869,0,2.26025,.1333,3.28613,.39893-.30371-.28467-.66455-.81641-1.46289-2.12744-2.01367,.3042-3.22949,.37988-7.35156,.5127-.32324,.01904-.45605,.01904-.77881,.05713l-.07617-2.0708c.55078,.07617,.66504,.07617,1.95654,.07617,1.99512,0,3.57178-.11377,5.37646-.36084-.11426-.22803-.18994-.3418-.34229-.70312-.18994-.39893-.24658-.5127-.39893-.85449-1.51953,.1709-2.88721,.24658-5.09082,.26562-.79785,0-.89307,.01904-1.29199,.03809l-.09521-2.01367Z" fill="#44c38b"/>
        <path d="M176.29852,107.18715c.68408,.11426,1.44385,.1709,2.5459,.1709,.22754,0,.43652,0,.87354-.01855,.1709-.91211,.36084-2.375,.36084-2.90674,0-.07617,0-.18994-.01855-.3418l2.50732,.22754q-.13281,.43701-.36084,1.82373c-.09521,.53223-.11426,.646-.18994,1.08301,1.40576-.13281,2.29883-.28516,3.24854-.56982l.09473,2.18457q-.15186,.01904-.60791,.09521c-.96875,.18994-2.48828,.37988-3.11523,.39893-.20898,1.17773-.68408,3.19141-1.17773,4.91992-.55127,1.97607-.87402,2.92578-2.12793,6.28809l-2.39355-.93066c1.31055-2.4126,2.77344-6.83887,3.40039-10.2207-.13281,.01904-.20898,.01904-.24707,.01904h-1.10156c-.09521,0-.28516,0-.60791-.01904-.34229-.01904-.60791-.01904-.75977-.01904-.09521,0-.19043,0-.36133,.01904l.03809-2.20361Zm9.42285,7.37109c-.76025,.94971-.98828,1.4248-.98828,2.08984,0,.96875,.9502,1.4624,2.84961,1.4624,1.38721,0,3.21094-.30371,4.3125-.70264l.1709,2.33643c-.3418,.03809-.49365,.05713-.93066,.1333-1.57666,.22754-2.4126,.30371-3.53369,.30371-1.69043,0-2.90625-.24707-3.81836-.75977-.81689-.4751-1.34863-1.38672-1.34863-2.33691,0-1.00684,.36084-1.86133,1.40576-3.28613l1.88086,.75977Zm5.64209-2.48877c-.91211-.09473-1.44385-.13281-2.39355-.13281-1.88086,0-3.13477,.13281-5.01562,.55078l-.1709-2.08984c2.69775-.5127,3.60938-.60791,5.66113-.60791,.51318,0,.68408,0,1.88086,.01904l.03809,2.26074Z" fill="#44c38b"/>
        <path d="M201.96698,104.18569c.07568,1.27295,.646,4.0083,1.25391,5.94629q1.23486-.45605,4.91992-1.67188c.34229-.11377,.43701-.15186,.72217-.28516l.81689,2.39404c-1.65283,.32275-4.1416,1.04443-6.26904,1.82373-2.77393,1.02588-4.16064,2.2417-4.16064,3.60938,0,1.38672,1.29199,1.97559,4.35059,1.97559,2.37451,0,4.71143-.28516,6.13623-.77881l.20898,2.60254c-.41797,0-.51318,.01904-1.53906,.13281-2.05176,.20898-3.11572,.28516-4.44531,.28516-2.64062,0-4.29346-.32275-5.50928-1.04492-1.04492-.62695-1.65283-1.80469-1.65283-3.17236,0-1.27295,.60791-2.48877,1.69092-3.40039,.74072-.62695,1.34863-1.00732,2.5835-1.63379-.47461-1.53906-.79785-2.81201-1.27246-5.14844-.19043-.91162-.20898-.94971-.3042-1.23486l2.46973-.39893Z" fill="#44c38b"/>
        <path d="M215.7995,106.84536c.55127,.05713,.98828,.07617,1.82373,.07617,1.44385,0,2.46973-.05713,3.91357-.20898q-.05713-.15234-.20898-.49414c-.47461-1.10205-.74072-1.69092-.75977-1.72852l2.37451-.32324c.07617,.4751,.26611,1.04492,.77881,2.29883,1.61475-.20898,3.81836-.70312,5.12939-1.14014l.18994,2.01416q-.18994,.0376-.646,.13281c-1.27246,.30371-3.38135,.72168-3.97021,.79785,.30371,.70264,.41797,.94971,.74072,1.55762,1.63379-.3418,2.50781-.53174,2.62158-.55078,1.08301-.26611,1.31104-.3418,1.80469-.55078l.18994,2.07031c-.36084,.05713-.75977,.1333-1.19678,.24707-.77881,.18994-1.40576,.32324-1.86133,.41797q-.4751,.09521-.70312,.15186c.98779,1.63379,1.29199,2.03271,2.54541,3.47656l-1.67139,1.19678c-1.36816-.56982-2.50781-.77881-4.36963-.77881-1.44385,0-2.54541,.18994-3.19141,.53223-.53174,.30371-.81689,.70264-.81689,1.15869s.32275,.89258,.81689,1.10156c.60791,.26611,1.61475,.41797,2.7168,.41797,1.97559,0,4.6543-.56982,5.85107-1.23486l.3418,2.33691q-.36084,.05713-1.23486,.28467c-1.61475,.43701-3.19141,.646-4.86328,.646-2.18457,0-3.57129-.28467-4.63525-.93066-.91211-.56982-1.46289-1.53857-1.46289-2.60254,0-1.02588,.56982-1.97607,1.5957-2.64062,.98779-.62695,2.50781-.9502,4.42676-.9502,1.15869,0,2.26025,.1333,3.28613,.39893-.30371-.28467-.66455-.81641-1.46289-2.12744-2.01367,.3042-3.22949,.37988-7.35156,.5127-.32324,.01904-.45605,.01904-.77881,.05713l-.07617-2.0708c.55078,.07617,.66504,.07617,1.95654,.07617,1.99512,0,3.57178-.11377,5.37646-.36084-.11426-.22803-.18994-.3418-.34229-.70312-.18994-.39893-.24658-.5127-.39893-.85449-1.51953,.1709-2.88721,.24658-5.09082,.26562-.79785,0-.89307,.01904-1.29199,.03809l-.09521-2.01367Z" fill="#44c38b"/>
        <path d="M235.80682,115.45082c1.74756,1.33008,2.81152,2.375,4.27441,4.17969l-1.76709,1.65283c-1.38672-1.88086-2.46924-3.02051-4.12207-4.33154l1.61475-1.50098Z" fill="#44c38b"/>
        <path d="M249.46698,107.05434c-.91162,.1709-1.32959,.24707-2.5835,.43701-.09473-.55127-.30371-1.10205-.70264-1.82373,2.5835-.28516,4.19824-.646,6.02197-1.29199,.5127-.18994,.75977-.30371,1.08301-.53174l1.23486,1.74756-.81689,.28516c-1.06396,.37988-1.44385,.49365-2.2041,.70264v2.43164h1.21582c.79785,0,1.21582-.01904,1.67188-.11377v2.0708c-.49365-.07617-.98779-.09521-1.69043-.09521h-1.00684c.58887,.87402,1.38672,1.74756,2.62158,2.83057-.34229,.51318-.66504,1.19678-.91211,1.93799-.68408-.66504-1.38672-1.59619-1.99463-2.64062,.01904,.22754,.01904,.39893,.03809,.5127q.05664,.646,.05664,1.80469v3.64746c0,1.29199,.01904,1.78564,.11426,2.4126h-2.29883c.09521-.74072,.1333-1.32959,.1333-2.4126v-3.05859c0-.26562,.0376-1.08252,.15186-2.45068-.72217,1.84277-1.69092,3.45752-2.8877,4.7876-.32275-.85498-.58887-1.38672-1.04492-1.97607,.83594-.89258,1.17773-1.31055,1.78564-2.2417,.76025-1.19678,.96924-1.55762,1.55811-2.90625,.01904-.05713,.05664-.13281,.11377-.24707h-1.25391c-.66455,0-1.13965,.01904-1.67139,.09521v-2.0708c.53174,.09473,1.00684,.11377,1.7666,.11377h1.50049v-1.95654Zm10.0498-2.37451q-.11426,.28467-.79785,3.38135c-.75977,3.41943-1.8999,7.56104-2.83057,10.18262,1.55762-.15234,3.8374-.49414,5.03418-.74121-.646-1.95654-1.48193-3.97021-2.31787-5.50879l1.82373-.66504c1.48193,2.5835,2.64062,5.49023,3.60986,8.9668l-2.12793,.70264c-.18994-.81689-.24707-1.08301-.41797-1.67188-2.43164,.49414-4.36914,.79785-7.73193,1.23486-.45557,.05713-.74072,.09521-1.00684,.15234l-.39893-2.2417c.1333,.01855,.18994,.01855,.37988,.01855q.20898,0,.9502-.0376c1.06348-3.13477,1.86133-6.0415,2.56445-9.32764,.58887-2.64062,.81689-4.04639,.81689-4.86328l2.45068,.41797Z" fill="#44c38b"/>
        <path d="M268.86639,120.50454c-.01855-.19043-.01855-.3042-.09473-.74121-.36084-2.22266-.51318-4.04639-.51318-6.04102,0-1.70996,.11426-3.38135,.36133-5.03418q.09473-.56982,.5127-2.7168c.13281-.66455,.20898-1.21582,.20898-1.40576v-.07568l2.56445,.26562c-.77881,1.65283-1.50049,6.23145-1.51953,9.53662q-.01904,.68408-.01904,.98779v.3042c0,.15186,0,.18994-.01904,.39893h.01904q.09521-.20898,.22803-.55078c.03809-.1333,.13281-.34229,.22803-.646q.1709-.39893,.36084-.85498c.03809-.05713,.05713-.11377,.22803-.58887l1.57666,.70264c-1.12061,2.2041-1.88086,4.55957-1.88086,5.81348,0,.13281,0,.15186,.03809,.5127l-2.27979,.1333Zm4.29346-12.44336c.89307,.22803,1.88086,.30371,3.43848,.30371,.66504,0,1.08301,0,1.74805-.0376,0-1.12109-.01904-2.0708-.01904-2.84961,0-.41797-.01904-.70312-.05713-.91211l2.37451-.05713c-.09473,.53223-.13281,1.44385-.13281,2.79297v.87354c.98779-.11377,1.82373-.26562,2.56445-.45557q.11426-.03809,.41797-.15234l.15186-.0376,.07617,2.14648c-.18994,.01904-.20898,.01904-.55078,.09521-.646,.13281-1.63379,.30371-2.64062,.41748v.41797c0,1.06396,0,1.10205,.18994,4.29346,1.36768,.646,1.84277,.91211,2.98242,1.729,.24707,.1709,.34229,.22803,.53223,.32275l-.91211,2.29883c-.32275-.37988-.89307-.87402-1.4248-1.21582-.646-.41797-1.08301-.70312-1.19678-.77881v.26562c0,.41797-.05713,.79785-.15186,1.06396-.43701,1.12061-1.76709,1.78564-3.60938,1.78564-2.48877,0-4.00879-1.17773-4.00879-3.11523,0-1.84277,1.61475-3.13477,3.91357-3.13477,.70312,0,1.17773,.07617,1.69092,.26611-.05713-.4751-.07617-1.40576-.15234-4.04639-.75977,.01904-1.21582,.0376-1.70947,.0376-.70312,0-1.46289-.01855-2.35547-.09473-.26611,0-.4751-.01904-.57031-.01904-.1709-.01904-.28467-.01904-.32275-.01904-.09521-.01904-.15186-.01904-.18994-.01904-.01904,0-.05713,0-.11426,.01904l.03809-2.18457Zm3.85645,7.95996c-1.21582,0-1.97559,.47461-1.97559,1.25342,0,.70312,.68408,1.17822,1.74756,1.17822,.70312,0,1.25391-.20898,1.53906-.58887,.1709-.22803,.24707-.51318,.24707-1.02588v-.51318c-.62695-.22803-.98828-.30371-1.55811-.30371Z" fill="#44c38b"/>
        <path d="M293.16717,113.2853c-1.19678,.98779-1.729,1.78564-1.729,2.60254,0,1.23486,1.38721,1.76709,4.59766,1.76709,2.26074,0,4.74902-.34229,5.96484-.79785l.20898,2.60254c-.32275,.01904-.43701,.01904-.83594,.07568-2.2793,.32324-3.49512,.41797-5.12891,.41797-2.0708,0-3.74268-.20898-4.74951-.62695-1.63379-.62695-2.43164-1.69043-2.43164-3.17236,0-1.44385,.74121-2.69775,2.45068-4.12256l1.65283,1.25391Zm-2.8877-7.80762c1.46289,.3418,3.15381,.47461,5.69922,.47461,2.4126,0,3.76123-.09473,5.01514-.36084l.07617,2.12793c-1.13965,.5127-3.19141,1.78564-5.07227,3.15332l-1.65283-1.31055c.98779-.62695,1.91895-1.19727,2.79248-1.69092-.83594,.11377-1.65234,.15186-2.84961,.15186-.96875,0-2.54541-.09473-3.47607-.22803-.38037-.03809-.43701-.05664-.70312-.05664l.1709-2.26074Z" fill="#44c38b"/>
        <path d="M311.92059,113.2853c-1.19678,.98779-1.729,1.78564-1.729,2.60254,0,1.23486,1.38721,1.76709,4.59766,1.76709,2.26074,0,4.74902-.34229,5.96484-.79785l.20898,2.60254c-.32275,.01904-.43701,.01904-.83594,.07568-2.2793,.32324-3.49512,.41797-5.12891,.41797-2.0708,0-3.74268-.20898-4.74951-.62695-1.63379-.62695-2.43164-1.69043-2.43164-3.17236,0-1.44385,.74121-2.69775,2.45068-4.12256l1.65283,1.25391Zm-2.8877-7.80762c1.46289,.3418,3.15381,.47461,5.69922,.47461,2.4126,0,3.76172-.09473,5.01514-.36084l.07617,2.12793c-1.13965,.5127-3.19141,1.78564-5.07227,3.15332l-1.65283-1.31055c.98779-.62695,1.91895-1.19727,2.79248-1.69092-.83594,.11377-1.65283,.15186-2.84961,.15186-.96875,0-2.54541-.09473-3.47607-.22803-.38037-.03809-.43701-.05664-.70312-.05664l.1709-2.26074Z" fill="#44c38b"/>
        <path d="M327.10223,120.39028c-.01904-.3418-.03809-.45605-.09521-.89258-.36084-2.29883-.49365-3.76172-.49365-5.68018,0-2.45068,.22754-4.6167,.77881-7.42822,.20898-1.06396,.24658-1.25391,.28467-1.7666l2.50781,.26611c-.45605,1.12061-.89307,3.24854-1.19678,5.68018-.18994,1.4248-.26611,2.54541-.28516,4.19824,0,.41797-.01904,.56982-.03809,1.04492,.20898-.66504,.24707-.79785,.98779-2.50781l1.52002,.68408c-1.04492,2.20361-1.69092,4.40723-1.69092,5.75586,0,.11426,0,.26611,.01904,.51318l-2.29834,.13281Zm8.09277-7.50391c-.9502,1.10205-1.34912,1.91895-1.34912,2.73584,0,1.08252,1.04492,1.65234,3.02051,1.65234,1.67188,0,3.32471-.26562,4.52148-.72168l.18994,2.4126c-.26611,.01904-.3418,.03809-.77881,.11426-1.52002,.24658-2.67871,.36084-3.93262,.36084-2.35547,0-3.875-.53223-4.71094-1.65283-.36133-.4751-.57031-1.17773-.57031-1.86182,0-1.23486,.57031-2.50732,1.74805-3.91357l1.86182,.87402Zm-3.13477-6.28809c.85498,.22803,1.86182,.3042,3.51465,.3042,2.1084,0,3.91309-.17139,5.16699-.51318l.11426,2.29883c-.15234,.01904-.43701,.05713-1.34912,.1709-1.21582,.15186-2.65967,.22803-4.06543,.22803-1.38672,0-1.40576,0-3.41943-.20898l.03809-2.27979Z" fill="#44c38b"/>
        <path d="M348.40106,115.60317c0-.79785,0-.91211,.03809-2.20361-.49414,.58887-1.06396,1.13965-1.729,1.61475-.28467-.85498-.53174-1.34912-.94971-2.03271,1.99463-1.29199,3.95166-3.38184,4.67334-5.01562l1.78564,1.17822c-.18994,.20898-.36084,.43652-.62695,.83545-.43652,.62695-.60791,.87402-1.10156,1.48193v7.48486c0,1.00684,.03809,1.76709,.13281,2.39355h-2.35547c.09473-.58887,.13281-1.4248,.13281-2.4126v-3.32422Zm3.53369-10.61963q-.20898,.22803-.56982,.646c-1.23486,1.48193-2.58398,2.65967-4.36963,3.79932-.37988-.74072-.70264-1.19678-1.19678-1.78564,1.50098-.81689,2.46973-1.57666,3.40039-2.60254,.41797-.49414,.66504-.85498,.91211-1.33008l1.82373,1.27295Zm2.56445,6.53516c-.87402,0-1.74756,.03809-2.33643,.11377v-2.12744c.56982,.07568,1.4248,.11377,2.33643,.11377h6.45898c1.06396,0,1.82373-.03809,2.31787-.11377v2.12744c-.62695-.07568-1.4248-.11377-2.26074-.11377h-.81689v7.56104c0,1.63379-.55078,2.03271-2.84961,2.03271-.646,0-1.21582-.01904-2.10889-.05713-.11377-.83594-.22754-1.33008-.55078-2.12793,1.00684,.1333,1.99463,.20898,2.5835,.20898,.76025,0,.85498-.03809,.85498-.45557v-7.16211h-3.62842Zm-1.57666-6.83887c.53174,.07568,1.23486,.11377,2.22266,.11377h5.12939c.94971,0,1.5957-.03809,2.16553-.11377v2.1084c-.66504-.07568-1.36768-.11377-2.12793-.11377h-5.16699c-.79785,0-1.5957,.03809-2.22266,.11377v-2.1084Z" fill="#44c38b"/>
        <path d="M378.43915,105.70571c-.32324,.22754-.68408,.55078-2.33691,2.08936-.96875,.89307-2.29883,1.95703-4.52148,3.64746-.58887,.43701-.72168,.58887-.72168,.79785,0,.28516,.03809,.32324,1.70996,1.57715,2.96338,2.24121,3.51416,2.71631,5.98389,4.95801,.18994,.18994,.3042,.28516,.55078,.4751l-1.95654,1.97559c-.49414-.68408-1.17773-1.40576-2.46973-2.60254-1.34863-1.25391-1.97559-1.7666-4.90137-4.04639-1.25391-.96875-1.5957-1.48193-1.5957-2.35596,0-.56982,.20898-1.08252,.62695-1.53857,.24707-.26611,.26611-.28516,1.67188-1.36768,2.05176-1.55811,3.11523-2.46973,4.38818-3.70459,.85498-.85498,1.06396-1.10205,1.38672-1.57666l2.18506,1.67188Z" fill="#44c38b"/>
        <path d="M388.64325,115.98305c.01855-.39893,.0376-.58887,.0376-.81689q0-.20898-.05664-1.34863l-.26611-6.45947c-.03809-.83545-.09521-1.78564-.1709-2.31738h3.11523c-.05664,.5127-.13281,1.50049-.1709,2.31738l-.26562,6.45947q-.03809,1.10156-.03809,1.36768c0,.22803,0,.41797,.03809,.79785h-2.22266Zm-.26611,4.16016v-2.60254h2.75439v2.60254h-2.75439Z" fill="#44c38b"/>
        <path d="M398.94207,112.62026c.70312-.85449,1.04492-1.15869,1.88086-1.69043,1.15869-.72217,2.01367-.98779,3.11523-.98779,.87402,0,1.63379,.1709,2.45068,.56982q.49414,.24707,1.729,1.04492c1.44385,.93066,2.45068,1.32959,3.3623,1.32959,.39893,0,.9502-.15186,1.40576-.36084,.81689-.41797,1.31104-.83594,1.97607-1.729l1.51953,1.52002c-.77881,.98779-1.17773,1.38672-1.80469,1.84277-.96875,.72168-2.05176,1.08252-3.28662,1.08252-.56982,0-1.15869-.09473-1.67188-.26562-.74072-.24707-1.12061-.43701-2.60254-1.40576-1.67139-1.06396-2.26074-1.29199-3.26758-1.29199-1.23438,0-2.1084,.45605-3.30518,1.74756l-1.50098-1.40576Z" fill="#44c38b"/>
        <path d="M422.67254,107.37709c-.96875,0-1.5957,.01904-2.29883,.11426v-2.08984c.66504,.09521,1.36816,.13281,2.43164,.13281h5.01562c-.01904-.77881-.03809-1.10156-.1333-1.70947h2.31787c-.09521,.58887-.11426,.98779-.11426,1.70947h5.18652c1.17773,0,1.89941-.0376,2.48877-.13281v2.08984c-.62695-.07617-1.4248-.11426-2.35596-.11426h-5.31934v1.06396h3.9707c1.15869,0,1.51953-.01904,2.1084-.07617-.05664,.57031-.07568,1.19727-.07568,1.91895v3.51465q0,1.06348,.07568,1.9375c-.55078-.07617-1.08252-.09473-2.12744-.09473h-2.27979c1.69092,1.5957,3.70459,2.5835,6.59229,3.24805-.49414,.76025-.66504,1.10205-1.08301,2.01416-1.53857-.51318-2.67871-1.02588-3.89453-1.729-1.40576-.83594-2.29834-1.55762-3.32422-2.73535,.01904,.62695,.0376,.98779,.0376,1.31055v1.36768c0,.96924,.01904,1.52002,.1333,2.16602h-2.33691c.09521-.74121,.1333-1.29199,.1333-2.16602v-1.36768c0-.22803,.01904-.93066,.0376-1.29199-.96875,1.19727-2.12744,2.14697-3.62842,3.00195-.91162,.53174-2.1084,1.06348-3.24854,1.4624-.41797-.94971-.58887-1.27246-1.06348-1.91846,1.4248-.39893,2.4126-.77881,3.57129-1.40576s2.0708-1.29199,2.7168-1.95654h-2.05176c-1.17773,0-1.55811,.01855-2.14697,.09473q0-.18994,.05713-.55078,0-.07617,.01904-1.38672v-3.49561c0-.98779-.01904-1.29199-.07617-1.95654,.51318,.07568,.96924,.09473,2.0708,.09473h3.74268v-1.06396h-5.14844Zm1.4248,2.69775v1.15869h3.72363v-1.15869h-3.72363Zm0,2.73535v1.19727h3.72363v-1.19727h-3.72363Zm5.79395-1.57666h3.98975v-1.15869h-3.98975v1.15869Zm0,2.77393h3.98975v-1.19727h-3.98975v1.19727Z" fill="#44c38b"/>
        <path d="M447.35272,115.81215c-1.44385,2.2793-2.39355,3.26758-4.57812,4.90137-.43701-.72217-.74072-1.10205-1.34863-1.65283,1.23438-.76025,1.7666-1.17822,2.48828-1.91895,.70312-.72168,1.06396-1.23486,1.67188-2.33643l1.7666,1.00684Zm1.65283-10.58154c0-.51318-.03809-.94971-.11377-1.38672h2.35547c-.07617,.37988-.11377,.79785-.11377,1.36768v.56982h5.43311c.98779,0,1.63379-.03809,2.22266-.13281v2.14648c-.53223-.09473-1.04492-.11377-2.08984-.11377h-12.89893c-1.02588,0-1.50098,.01904-2.05176,.11377v-2.14648c.55078,.09473,1.25391,.13281,2.27979,.13281h4.97705v-.55078Zm-3.41943,9.25146c-.83594,0-1.19678,.01904-1.70996,.05713,.05713-.4751,.07617-.83594,.07617-1.50098v-2.71631c0-.646-.01904-.98779-.01904-1.02588,0-.01904-.01904-.11426-.03809-.26611,0-.05713,0-.13281-.01904-.24707q.15234,.01904,.45605,.03809c.1709,.01904,.77881,.03809,1.25391,.03809h9.1377q1.31055-.01904,1.72852-.07617c-.05664,.45605-.07568,.85498-.07568,1.53906v2.71631c0,.66504,.01904,.98779,.05664,1.50098-.43652-.03809-.98779-.05713-1.72852-.05713h-3.32471v4.74951c0,1.46289-.62646,1.88086-2.86816,1.88086-.3042,0-.49414,0-1.53906-.01904-.09473-.83594-.22803-1.33008-.55078-2.03271,.79785,.11377,1.40576,.1709,2.0708,.1709,.64551,0,.77881-.07617,.77881-.39893v-4.35059h-3.68555Zm.37988-1.88037h8.39697v-1.95703h-8.39697v1.95703Zm8.58691,2.22266c.72168,1.10156,1.12061,1.57666,1.88037,2.26025,.7793,.72217,1.36816,1.12109,2.62207,1.80469-.58936,.6084-.93115,1.08301-1.34912,1.82422-1.31055-.89307-1.86182-1.36816-2.83057-2.35596-.77881-.83594-1.17773-1.32959-1.97559-2.46973l1.65283-1.06348Z" fill="#44c38b"/>
        <path d="M464.90985,114.7101c-.1333,2.83057-.28516,4.06543-.70312,5.69922l-1.61475-.77881c.43701-1.52002,.646-3.02051,.72217-5.18652l1.5957,.26611Zm3.64746-.646c-.07617-.37988-.09521-.49365-.1709-.79785q-.76025,.07617-1.27295,.1333v5.68018c0,1.23438,.01904,1.74756,.11377,2.31738h-1.89941c.09473-.60791,.11377-1.13965,.11377-2.31738v-5.54736c-.70264,.05713-1.00684,.09473-1.34863,.11377-.646,.03809-.89307,.05713-1.25391,.1333l-.1709-1.93799c.3418,.03809,.49365,.03809,.89258,.03809h.39893q.24707-.36084,.32324-.4751c.18994-.26562,.37988-.53174,.56982-.79785-.62695-.94971-1.23486-1.72852-2.18457-2.79248l.91162-1.61475c.18994,.20898,.37988,.43701,.56982,.646,.60791-.94971,1.25391-2.45068,1.38721-3.13477l1.84229,.74121c-.13281,.18994-.2085,.3418-.39893,.70264-.60791,1.21582-1.12061,2.12793-1.72852,3.05859,.3418,.43701,.39893,.53223,.62695,.85498,.79785-1.21582,1.57666-2.67871,1.74756-3.24854l1.78564,.91162c-.15186,.20898-.24658,.36133-.62646,.98828-.58936,.98779-2.03271,3.09619-2.83057,4.10303,.93066-.05664,1.2915-.07568,1.97559-.15186-.1709-.55078-.26611-.77881-.55127-1.46289l1.31104-.49365c.45605,1.00684,.77881,1.9375,1.10205,3.21045,.07568-1.36768,.11377-2.5459,.11377-4.08447,0-.93066-.01904-1.32959-.07617-1.80469,.4751,.03809,.85498,.05713,1.74805,.05713h6.23096c.91162,0,1.34863-.01904,1.74756-.05713-.0376,.43701-.05664,.83594-.05664,1.5957v1.21582c0,.77881,.01904,1.19678,.05664,1.61475-.24658-.03809-.96875-.05713-1.55762-.05713h-6.26904c0,.09521-.01904,.39893-.03809,.89307,.36084,.01904,.60791,.01904,1.23486,.01904h5.22412c.85498,0,1.40576-.01904,1.80469-.07617-.0376,.51318-.05664,.91211-.05664,1.8999v5.39502c0,1.25391-.43701,1.65283-1.82373,1.65283-.05713,0-.15234,0-.24707-.01904-.03809-.83594-.09521-1.13965-.3418-1.70947,.13281,.03809,.20898,.03809,.37988,.03809,.36084,0,.41797-.05713,.41797-.38037v-1.74756h-.89307v1.7666c0,1.04492,.01904,1.40576,.05713,1.84277h-1.53906c.03809-.47461,.05713-.83594,.05713-1.84277v-1.7666h-.89307v1.7666c0,1.08301,.01904,1.38672,.05713,1.84277h-1.53857c.03809-.47461,.05713-.83594,.05713-1.84277v-1.7666h-.85498v2.35547c0,.72217,.01904,1.23486,.05664,1.65283h-1.69043c.03809-.53174,.05713-.93066,.05713-1.67188v-4.88184c-.36133,3.17236-.60791,4.14111-1.59619,6.40186-.45557-.66504-.79785-.98779-1.51953-1.48193,.3418-.56982,.5127-.93066,.81689-1.69043l-.91211,.24658c-.11377-1.69043-.22803-2.5835-.49365-3.64746l1.2915-.26562c.28516,1.21582,.34229,1.63379,.43701,2.5835,.26611-1.10205,.43701-2.26074,.51318-3.38135l-1.19678,.47461Zm.64551-9.66943c.51318,.07617,1.14014,.11377,2.05176,.11377h6.82031c.93066,0,1.55762-.0376,2.05176-.11377v1.97559c-.45605-.07568-.96924-.09473-1.86182-.09473h-7.54199c-.77881,0-1.10205,.01904-1.52002,.07568v-1.95654Zm2.58398,4.69238v.68408h5.83203v-1.04492h-5.83203v.36084Zm1.86182,4.93896h-.85498v1.67188h.85498v-1.67188Zm2.31738,1.67188v-1.67188h-.89307v1.67188h.89307Zm2.31787,0v-1.67188h-.89307v1.67188h.89307Z" fill="#44c38b"/>
        <path d="M484.0617,112.62026c.70312-.85449,1.04492-1.15869,1.88086-1.69043,1.15869-.72217,2.01367-.98779,3.11572-.98779,.87354,0,1.6333,.1709,2.4502,.56982q.49414,.24707,1.729,1.04492c1.44385,.93066,2.45068,1.32959,3.3623,1.32959,.39893,0,.9502-.15186,1.40576-.36084,.81689-.41797,1.31104-.83594,1.97607-1.729l1.51953,1.52002c-.77881,.98779-1.17773,1.38672-1.80469,1.84277-.96875,.72168-2.05176,1.08252-3.28662,1.08252-.56982,0-1.15869-.09473-1.67188-.26562-.74072-.24707-1.12061-.43701-2.60254-1.40576-1.67139-1.06396-2.26074-1.29199-3.26758-1.29199-1.23438,0-2.1084,.45605-3.30518,1.74756l-1.50098-1.40576Z" fill="#44c38b"/>
      </g>
      <rect width="427.11677" height="75.82553" fill="#fff" opacity=".98"/>
      <g>
        <g>
          <path d="M84.22849,53.37384l.52514-1.51893,.52405-1.519,.52898-1.51632,.52913-1.51707,.53713-1.51704,.52143-1.52218,.53111-1.51731,.5292-1.51915,.52028-1.52419,.53159-1.51837,.53037-1.52078,.52753-1.52082,.53871-1.51854,.51513-1.52192,.53679-1.51443,.53227-1.52163,.5225-1.52221,.52936-1.52212,.53539-1.52194,.52755-1.52223,.52393-1.52749,.52935-1.52836,.53976-1.52201,1.85454-.01046,1.85978,.00695,1.86314-.00528,.52427,1.52562,.52382,1.51908,.5345,1.5144,.52714,1.51776,.52475,1.52134,.52859,1.51969,.53095,1.51737,.52354,1.52112,.52967,1.52093,.53664,1.51661,.52359,1.52314,.5265,1.52117,.53407,1.52015,.52583,1.5182,.52948,1.51698,.5315,1.5219,.52996,1.51962,.53234,1.52108,.52646,1.52505,.52447,1.52331,.53505,1.52362,.53482,1.52646,.52769,1.53135-1.55725,.00363-1.55851-.00705-1.56102,.00248-1.55772-.0053-.48532-1.44196-.47326-1.4472-.46657-1.45315-.47746-1.45216-.4829-1.45081-1.57696,.00688-1.57394-.00184-1.57606-.00991-1.57783,.00402-1.57559,.00159-1.57927,.00046-1.58182,.00264-1.58334-.00542-.46991,1.45224-.48544,1.44319-.46863,1.45247-.48611,1.44932-.47419,1.4498-1.56432,.00786-1.57116-.00977-1.5737,.00617-1.57149-.00131Zm10.28644-12.31568l1.55423-.00289,1.55374-.00406,1.55153,.00148,1.55516,.00137,1.55767,.00894,1.55661-.00701-.51345-1.56564-.5173-1.57117-.52601-1.56542-.51475-1.57147-.51717-1.57263-.519-1.56955-.50947-1.57676-.53251-1.57198-.5131-1.58088-.52141,1.56659-.51177,1.57299-.5171,1.56836-.52325,1.56867-.51672,1.57278-.51109,1.57216-.51689,1.57432-.5299,1.57284-.51803,1.57896Z" fill="#44c38b"/>
          <path d="M133.19552,34.36375l-.9685-1.06524-1.25831-.69032-1.42273-.21533-1.62583,.27069-1.40385,.85478-.97786,1.3264-.50875,1.57114-.14863,1.64984-.0031,1.69483,.00576,1.70044,.00109,1.69763-.00772,1.69991,.00094,1.70183-.00021,1.6994,.00062,1.70338,.00493,1.70612-.00439,1.7028-1.80302,.00436-1.80908,.00181-1.80569-.00647-.00015-1.68524-.00429-1.68699-.00052-1.68896,.00437-1.68802-.00359-1.68962,.0041-1.68485-.00787-1.68489,.00357-1.69046,.00328-1.68767-.0044-1.68994,.00206-1.69184-.0035-1.68943,.00178-1.69339-.00212-1.69612,.00134-1.69877,1.77494,.00043,1.77525,.00107,1.77232,.00343,.00167,2.2792,1.08246-1.2344,1.38632-.87722,1.56836-.48742,1.64189-.13391,1.67002,.12233,1.61697,.42712,1.48277,.77032,1.2624,1.09553,1.01503,1.33192-1.43814,1.00852-1.43529,1.01699-1.43673,1.01431Z" fill="#44c38b"/>
          <path d="M160.27069,49.51972l-1.02219,1.44512-1.31119,1.17752-1.54394,.84477-1.68694,.51819-1.7459,.25907-1.76826,.07177-1.6418-.0898-1.61937-.27212-1.5651-.49699-1.46933-.73028-1.32265-.97159-1.12574-1.19349-.8955-1.3736-.67434-1.49432-.44861-1.57767-.2641-1.62026-.07499-1.64134,.00115-1.72362-.004-1.72362,.06673-1.59083,.19377-1.57885,.36008-1.54824,.55355-1.48949,.77839-1.38584,1.02981-1.20799,1.23534-.99545,1.40658-.73432,1.51392-.47917,1.56605-.26669,1.58906-.0774,1.61415,.07832,1.58945,.27592,1.53262,.50098,1.41783,.76547,1.23543,1.03227,1.00249,1.26067,.75333,1.42431,.52574,1.52278,.33383,1.57853,.18365,1.60381,.04751,1.61544,.00483,1.39409,.00259,1.39793-1.68119-.00107-1.68355-.00738-1.68077,.00745-1.68303,.002-1.68492-.00811-1.68252,.00324-1.68646,.00057-1.68918,.0031-1.68933-.00613-.00372,.1039,.10603,1.6938,.35638,1.65509,.71657,1.53105,1.15158,1.23089,1.52113,.723,1.67789,.21234,1.52096-.09143,1.47227-.3866,1.27387-.82297,.95401-1.18144,1.35311,.94068,1.34764,.95389,1.35931,.94017Zm-14.75441-11.66155l1.60926,.00225,1.61285,.00455,1.61055-.00236,1.61432-.00255,1.61692-.00225,1.61531,.00084-.20314-1.65532-.52154-1.58159-.98748-1.329-1.45399-.78491-1.6482-.21644-1.64121,.23276-1.44395,.80239-.9943,1.32369-.55348,1.56469-.23194,1.64324Z" fill="#44c38b"/>
          <path d="M175.27186,38.41701l1.82302-.00077,1.82596,.00217,1.82316-.00024-.00081-2.12671-.12324-1.51749-.61413-1.37679-1.26286-.81482-1.49037-.28699-1.52447-.06223-1.53717,.05473-1.50943,.27732-1.31593,.76222-.95942,1.18596-1.30139-.90685-1.30146-.91354-1.29743-.9164,.918-1.27291,1.15599-1.06402,1.34792-.80419,1.47273-.53795,1.54112-.31804,1.56461-.16291,1.57669-.04156,1.7142,.05108,1.70818,.18957,1.66877,.39832,1.56631,.68947,1.34296,1.0541,.99147,1.38923,.60556,1.59913,.30828,1.6832,.08145,1.71299,.00446,1.70143-.00659,1.69729,.00034,1.7029,.00623,1.70009-.00864,1.70237,.00613,1.70429,.00174,1.70186-.0021,1.70585-.00226,1.7086,.00379,1.71225-1.77592,.00151-1.77525-.01007-1.77122,.00184-.00905-2.32795-1.06529,1.33592-1.43792,.9194-1.65676,.42422-1.71553,.10794-1.69894-.09209-1.66932-.32081-1.5956-.58475-1.44553-.88894-1.17876-1.21945-.83342-1.47642-.46628-1.63197-.13941-1.69405,.1565-1.70668,.50655-1.63294,.91811-1.43925,1.28342-1.12527,1.51868-.78085,1.64108-.48629,1.6945-.25407,1.71397-.08098Zm5.47287,4.16338l-1.68591,.00144-1.6907-.00217-1.6907,.00153-1.60417,.1179-1.52419,.49781-1.08132,1.15678-.3052,1.56966,.31081,1.49936,1.02706,1.12522,1.43785,.53298,1.53636,.14072,1.75945-.13515,1.65614-.58285,1.18635-1.278,.53876-1.66906,.1367-1.76247-.00728-1.21371Z" fill="#44c38b"/>
          <path d="M227.53744,42.27329l-.06543,1.63283-.2264,1.61676-.39969,1.58431-.61045,1.51271-.8379,1.39888-1.07291,1.22719-1.28944,.99657-1.44843,.74524-1.55644,.48781-1.60849,.27149-1.6322,.08568-1.63164-.0918-1.60854-.27334-1.5532-.50189-1.44815-.75093-1.28718-1.00049-1.08766-1.21456-.84854-1.39227-.62502-1.50587-.41309-1.57878-.22462-1.61718-.07158-1.63235,.005-1.59683-.00742-1.59683,.0732-1.63382,.21327-1.61999,.40372-1.58308,.61555-1.51201,.85468-1.39053,1.08683-1.21549,1.2986-.98566,1.45548-.73414,1.55866-.4814,1.60936-.27134,1.63228-.08008,1.63017,.0771,1.60678,.2741,1.55593,.48467,1.4513,.73921,1.29231,.98862,1.08721,1.21156,.83917,1.39501,.60727,1.50978,.39681,1.58055,.21761,1.61582,.066,1.63111-.00864,1.59683,.00586,1.59683Zm-5.37478-.15204l-.00275-1.47011,.0061-1.47011-.095-1.65774-.33433-1.62499-.68712-1.50504-1.12871-1.20121-1.48957-.7025-1.64161-.19985-1.65115,.19701-1.49998,.70125-1.13466,1.20276-.70232,1.50304-.33864,1.62449-.09587,1.66279-.0012,1.47011-.00327,1.47011,.09794,1.68952,.32443,1.65618,.68054,1.54078,1.13406,1.2364,1.51539,.71899,1.67473,.20336,1.65472-.21763,1.48202-.75792,1.1112-1.2387,.67573-1.52547,.34643-1.63429,.10288-1.67124Z" fill="#44c38b"/>
          <path d="M234.73627,28.02952l-.00539-1.57278,.0723-1.69234,.26134-1.67097,.56462-1.59219,.99551-1.35678,1.4031-.92952,1.60359-.52632,1.67504-.22329,1.69172-.07573,1.57146,.0068-.00602,1.62036,.00312,1.62309,.00086,1.62154-1.1638,.00314-1.56375,.19866-1.23189,.92275-.42679,1.50509-.07577,1.5795,.00279,.55842,1.48572-.00452,1.48783-.00054,1.48773,.00439-.00489,1.5529,.00404,1.55549-.00344,1.5513-1.48105,.00353-1.48783,.00638-1.49104-.00873,.00019,1.59295-.00186,1.58906,.00153,1.59056-.00185,1.58607,.00434,1.58611,.00218,1.59136-.00374,1.58873-.0022,1.59086-.00076,1.59266,.00052,1.59039,.00227,1.59411-.00399,1.59668,.011,1.60164-1.7937,.0005-1.79217-.00753-1.79337,.00343,.00599-1.59131-.00195-1.58906-.00939-1.59056,.0063-1.58607,.00495-1.58611-.00232-1.59136,.00461-1.58873-.00693-1.59086,.00373-1.59266,.00099-1.59039-.0006-1.59411,.00147-1.59668-.00798-1.59432-1.61989-.0018-1.62064-.00221,.0044-1.55135-.00874-1.55549,.00551-1.55264,1.61947,.00336,1.62351-.00489Z" fill="#44c38b"/>
          <path d="M265.50444,46.17239l1.00548,1.0943,1.24175,.80655,1.399,.48516,1.47514,.15507,1.58254-.13936,1.50548-.49514,1.24771-.97176,.85771-1.3323,.51224-1.5035,.2921-1.56184,.14025-1.58134,.0442-1.59235,.00181-1.62503-.00361-1.62412-.0006-1.62566,.01079-1.62107-.00432-1.62111-.00469-1.62647,.00328-1.62379,.00192-1.62597-.00401-1.6278-.00167-1.62548,.00788-1.62929v-1.63191s-.00201-1.62981-.00201-1.62981l1.46404,.00013,1.46982-.00412,1.47219-.00509,1.46956,.00935,.00492,1.62265,.00057,1.62412,.00227,1.62566-.00226,1.62107-.00995,1.62111,.00891,1.62647-.00153,1.62379-.00189,1.62597-.00476,1.6278,.00844,1.62548-.00589,1.62929,.00733,1.63191-.00213,1.63191-.0457,1.63872-.12329,1.63129-.23469,1.62133-.37555,1.59384-.52983,1.54763-.72994,1.46414-.9472,1.33188-1.15802,1.15058-1.3509,.91642-1.49228,.66064-1.57451,.43227-1.61648,.24086-1.6348,.06513-1.69381-.08761-1.67856-.24897-1.62882-.47077-1.55278-.67946-1.42463-.91793-1.26191-1.13094-1.04758-1.32727,1.63461-.93087,1.64233-.92579,1.63634-.9386Z" fill="#44c38b"/>
          <path d="M298.86167,38.41568l1.82302,.00281,1.82596,.00134,1.82678,.00143-.00457-2.12981-.1244-1.51723-.6137-1.37632-1.26429-.80872-1.48828-.29158-1.52426-.05784-1.53713,.04853-1.50801,.28126-1.31651,.75882-.96245,1.19328-1.30064-.91313-1.30213-.91258-1.2992-.91653,.92561-1.27246,1.15157-1.0682,1.34573-.80943,1.47481-.53464,1.54099-.32142,1.56558-.15587,1.57664-.04343,1.71443,.0486,1.70681,.19995,1.66832,.39639,1.56965,.68155,1.34121,1.05709,.98839,1.39084,.60922,1.59738,.30253,1.6839,.0894,1.71244-.00002,1.70143-.00078,1.69729-.00082,1.7029-.0059,1.70009,.00632,1.70237,.00099,1.70429-.0004,1.70186-.00328,1.70585,.00479,1.7086-.00313,1.70962-1.77339-.00616-1.77525,.00804-1.77597-.00237-.00108-2.33214-1.0681,1.33694-1.43813,.91943-1.65648,.42722-1.71601,.09902-1.69822-.09276-1.67168-.30855-1.59778-.5829-1.43727-.90247-1.18286-1.21415-.82777-1.47863-.46646-1.63053-.13894-1.69304,.14226-1.70816,.51414-1.63164,.91238-1.44435,1.28499-1.12681,1.52228-.77645,1.64076-.48978,1.69536-.25258,1.71438-.0779Zm5.4721,4.16578l-1.68513-.00189-1.6907-.00134-1.6907-.00181-1.60415,.12281-1.52355,.49883-1.08095,1.1561-.29903,1.56918,.30563,1.49839,1.02853,1.12056,1.43443,.5382,1.53627,.13653,1.75923-.13183,1.65186-.58886,1.1887-1.27188,.53735-1.66849,.1355-1.76186-.00327-1.21264Z" fill="#44c38b"/>
          <path d="M339.2576,42.37469l-.06613,1.72045-.25069,1.70374-.45454,1.66012-.67649,1.58262-.94249,1.4375-1.18373,1.24531-1.42483,.95881-1.58397,.66545-1.67913,.37162-1.71799,.1073-1.6657-.08865-1.6394-.31145-1.53406-.6384-1.29594-1.0363,.0008,1.60389,.00571,1.6057-.009,1.60751,.00117,1.60522-.00144,1.60898-.00149,1.61157,.00544,1.61168-1.80626,.00646-1.80908-.0121-1.80482,.00089-.0084-1.65641,.01032-1.66184-.00172-1.66452-.00681-1.66421,.00391-1.66275-.00055-1.66389-.00532-1.66579,.00328-1.66394,.00048-1.66588,.00046-1.66495-.00145-1.66653,.0014-1.66182,.00367-1.66186,.00103-1.66736-.00227-1.66461-.00769-1.66684,.01206-1.66873-.00138-1.66635-.00832-1.67025,.00949-1.67294-.01124-1.67809,1.81093,.00231,1.80908,.00733,1.80889-.00433-.00055,2.02784,1.25892-1.17143,1.53254-.7836,1.67276-.40898,1.72116-.11874,1.70487,.10874,1.66454,.38102,1.57769,.65065,1.40914,.96049,1.19811,1.21374,.93867,1.42494,.67469,1.56653,.44103,1.64937,.25213,1.68943,.07846,1.70908,.00318,1.72364-.01315,1.72361Zm-5.36015-.25345l-.0115-1.47011,.00117-1.47011-.08933-1.65766-.34096-1.62282-.67689-1.50919-1.1348-1.19498-1.48595-.70854-1.64206-.20055-1.59601,.19291-1.46208,.65275-1.12876,1.13486-.70645,1.4407-.36058,1.56272-.12079,1.60558,.00085,1.62222,.00571,1.62222,.0787,1.68598,.31887,1.65346,.66247,1.54534,1.12276,1.24488,1.51502,.71316,1.67029,.19715,1.65523-.21061,1.48763-.75175,1.09988-1.24985,.69153-1.51893,.34369-1.63659,.10235-1.67224Z" fill="#44c38b"/>
          <path d="M354.47233,38.42147l1.82307-.00612,1.82601,.0081,1.82225-.00612,.00193-2.12588-.1295-1.51661-.60901-1.37829-1.26474-.81083-1.48915-.29153-1.5246-.05566-1.53754,.04481-1.50939,.28079-1.31893,.75953-.95707,1.19346-1.30265-.90737-1.30071-.91454-1.30131-.91459,.92354-1.27693,1.15273-1.06831,1.34844-.80561,1.47464-.5349,1.54118-.31982,1.56531-.15743,1.57661-.04052,1.71444,.04541,1.70691,.19942,1.66993,.39168,1.56496,.69195,1.34587,1.05036,.98706,1.39225,.60941,1.59741,.30711,1.6835,.08605,1.71298-.0039,1.70143-.00394,1.69729-.00029,1.7029,.00183,1.70009,.00404,1.70237-.00455,1.70429,.00223,1.70186,.0048,1.70585-.00096,1.7086-.0011,1.71173-1.77541-.00737-1.77525-.00006-1.77231,.00207-.00364-2.32955-1.07051,1.33574-1.43641,.92188-1.65728,.42359-1.71567,.1113-1.69882-.09734-1.66965-.319-1.59592-.58443-1.44225-.8935-1.17862-1.21817-.83573-1.4745-.45987-1.63295-.14636-1.69283,.15154-1.70759,.50757-1.63379,.91756-1.44131,1.28774-1.12161,1.5176-.7837,1.64179-.4854,1.69495-.25181,1.71395-.07666Zm5.47562,4.15529l-1.68854,.00594-1.69073-.0081-1.69073,.00785-1.60447,.11487-1.52164,.50352-1.08441,1.15244-.3008,1.57005,.30619,1.49987,1.03096,1.12011,1.43411,.54202,1.53724,.13739,1.76033-.1313,1.65324-.59111,1.18493-1.27657,.53955-1.66763,.13258-1.76202,.00219-1.21734Z" fill="#44c38b"/>
          <path d="M373.32842,28.02658l1.77393,.00274,1.77525-.0046,1.77439,.00413-.0022,2.28119,1.23816-1.28014,1.55126-.86596,1.71849-.4608,1.78121-.12775,1.71851,.09731,1.6847,.35067,1.59291,.64618,1.41273,.97669,1.13423,1.28984,.81273,1.51009,.51583,1.64151,.27633,1.69738,.08101,1.72298-.00483,1.58145-.00108,1.58149,.00593,1.58672-.00646,1.58411,.00359,1.58623,.0037,1.58802-.00836,1.58576,.00221,1.58947,.00615,1.59203-.00076,1.595-1.79194-.00298-1.79219-.00237-1.79295,.00319,.00073-1.69003-.00052-1.69481-.00441-1.69202,.00237-1.69429,.00127-1.6962,.00459-1.69378-.00757-1.69774,.00652-1.70048-.00539-1.70048-.11322-1.71878-.47011-1.65446-1.00802-1.37622-1.51642-.77943-1.70493-.20433-1.72426,.23779-1.55174,.77876-1.13646,1.31047-.62643,1.62145-.17853,1.73413-.00302,1.69483-.00143,1.70044,.00043,1.69763,.00167,1.69991-.00192,1.70183-.00084,1.6994-.00388,1.70338,.00106,1.70612,.00605,1.70845-1.80836,.00257-1.80908-.00094-1.8103-.00265,.00577-1.69018-.0088-1.68699,.00342-1.68896-.00051-1.68802,.00476-1.68962,.00121-1.68485-.00429-1.68489-.00544-1.69046,.00877-1.68767-.0018-1.68994,.00107-1.69184-.00176-1.68943,.00397-1.69339-.00238-1.69612-.00429-1.69772Z" fill="#44c38b"/>
        </g>
        <path d="M48.05309,51.2342l1.85812-1.50261,.89382-1.35536,.88275-1.36135,.85023-1.38584,.8394-1.38593,.80713-1.409,.8013-1.41527,.75897-1.43941,.72159-1.46013,.69715-1.47376,.63407-1.50323,.57809-1.52303,.49368-1.55228,.36216-1.5864,.13692-1.61464-.0953-1.60016-.31113-1.57248-.51567-1.51761-.70995-1.43717-.90011-1.32522-1.05511-1.20462-1.19948-1.06173-1.33154-.89124-1.43611-.71077-1.51669-.5169-1.57336-.30417-1.59892-.11269-1.60055,.10366-1.57129,.31715-1.51529,.5202-1.43669,.70865-1.3307,.89143-1.20433,1.05597-1.05758,1.20304-.88719,1.3334-.70927,1.43565-.52683,1.51284-.30245,1.57383-.11168,1.59893,.15624,1.61304,.35267,1.58468,.49415,1.5479,.57368,1.52115,.63728,1.4953,.68641,1.47501,.7235,1.46002,.77083,1.43625,.78659,1.42703,.82109,1.40385,.83045,1.40194,.86537,1.37782,.86726,1.37236,.90923,1.34449,1.84978,1.50186-1.64727,.00211-1.6459,.00693-1.6481,.00373-1.64996-.00918-1.64761,.00686-1.65147,.00199-1.65413-.00325-1.6536-.00324,.00233,2.03669-.00579,2.03951,1.66147-.00664,1.65968,.01057,1.66157-.00653,1.65972,.00675,1.66166-.00247,1.66073-.00888,1.6623,.00718,1.65761-.00733,1.65765,.00975,1.66314,.0022,1.66039-.00316,1.66262-.00073,1.6645-.00174,1.66213,.00468,1.66602-.00818,1.6687,.00399,1.66616-.00391,.00704-2.03504-.00651-2.03549-1.64659-.00414-1.64588,.00244-1.64809-.00449-1.64995,.00641-1.6476-.00241-1.65145,.00372-1.65411-.00575-1.65412,.0026Zm-6.88029-21.96824l.20366-1.54137,.58801-1.43907,.95333-1.22787,1.22748-.95359,1.43876-.58935,1.54108-.20847,1.54039,.2147,1.43568,.59189,1.23775,.94027,.94083,1.23719,.60206,1.43312,.19885,1.54256-.20806,1.54105-.59872,1.4325-.93718,1.23901-1.23712,.94003-1.43448,.59456-1.54,.2018-1.54097-.20172-1.4399-.58579-1.2323-.94922-.94135-1.23663-.59492-1.43499-.2029-1.54062Z" fill="#44c38b"/>
      </g>
    </g>
  </g>
</svg>
