<?xml version="1.0" encoding="UTF-8"?>
<svg id="logo-aoj" data-name="logo-aoj" xmlns="http://www.w3.org/2000/svg" width="453.45282" height="132.02016" viewBox="0 0 453.45282 132.02016">
  <g id="logo-g" data-name="logo-g">
    <g>
      <rect y="91.27016" width="453.45282" height="40.75" fill="#fff" opacity=".98"/>
      <g>
        <path d="M48.09149,109.05141c1.05078,0,1.80664-.04199,2.49902-.12598v2.28857c-.73535-.08398-1.49121-.12598-2.49902-.12598h-8.14648c-.50391,.83984-.94434,1.46973-1.44824,2.09961h8.18848c1.00781,0,1.38574-.021,1.88965-.08398-.06348,.60889-.08398,1.15479-.08398,2.03662v4.15723c0,.88184,.02051,1.46973,.10449,2.1626h-2.43555v-1.0498h-8.04102v1.02881h-2.43555c.08398-.5459,.12598-1.17578,.12598-2.12061v-3.35938c-.9873,.83984-1.51172,1.21777-2.83496,2.01562-.41992-.77686-.71289-1.13379-1.51172-1.93164,2.79297-1.38574,4.49414-2.79248,5.94238-4.95508h-3.08691c-1.00781,0-1.82617,.04199-2.54004,.12598v-2.28857c.69238,.08398,1.49121,.12598,2.54004,.12598h4.2207c.39844-.94482,.56641-1.42773,.67188-2.01562l2.54102,.33594c-.21094,.44092-.25195,.5249-.39941,.88184-.12598,.31494-.18848,.41992-.35645,.79785h7.0957Zm-11.44238-5.50098c0-.44092-.02051-.81885-.10449-1.23877h2.37207c-.06348,.39893-.08398,.79785-.08398,1.23877v.50391h4.40918v-.50391c0-.41992-.04199-.81885-.10547-1.23877h2.39453c-.08398,.37793-.10547,.79785-.10547,1.23877v.50391h2.625c1.07031,0,1.76367-.04199,2.49805-.12598v2.26758c-.67188-.08398-1.38574-.10498-2.49805-.10498h-2.625v.62988c0,.46191,.02148,.73486,.0625,1.13379h-2.30859c.04102-.37793,.0625-.65088,.0625-1.0918v-.67188h-4.40918v.60889c0,.5249,.02051,.75586,.06348,1.15479h-2.33105c.06348-.35693,.08398-.67188,.08398-1.11279v-.65088h-2.49902c-1.13281,0-1.82617,.021-2.43555,.10498v-2.26758c.69336,.08398,1.36523,.12598,2.43555,.12598h2.49902v-.50391Zm1.46973,14.80225h8.04102v-3.12842h-8.04102v3.12842Z" fill="#44c38b"/>
        <path d="M59.95868,111.99086c-1.1123,1.13379-1.53223,1.49072-3.04395,2.64551-.44043-.92383-.75586-1.36475-1.42773-2.03662,1.40723-.90283,2.39355-1.72168,3.52734-2.87646,1.07129-1.0708,1.72168-1.93164,2.49902-3.29639h-2.96094c-1.0293,0-1.78516,.04199-2.49805,.12598v-2.33057c.73438,.08398,1.46875,.12598,2.51953,.12598h3.94727c.33594-.86084,.52441-1.57471,.6084-2.26758l2.62402,.29395c-.14648,.31494-.18848,.39893-.46094,1.17578-.08398,.25195-.12695,.35693-.29492,.79785h7.49609c1.0293,0,1.76367-.04199,2.45703-.12598v2.33057c-.69336-.08398-1.4707-.12598-2.45703-.12598h-8.44043c-.37793,.69287-.62988,1.11279-1.02832,1.76367h7.17969c1.05078,0,1.5752-.021,2.18359-.08398-.0625,.65088-.08398,1.32275-.08398,2.39355v8.75537c0,.81885-.25195,1.36475-.79688,1.70068-.39941,.23096-1.17578,.33594-2.45703,.33594-.48242,0-.88184-.021-1.93164-.06299-.10547-.94482-.20996-1.40674-.5459-2.20459,1.17578,.14697,1.78418,.18896,2.43555,.18896,.92383,0,1.0498-.08398,1.0498-.58789v-1.5957h-7.85254v1.78467c0,1.13379,.04199,1.86865,.10449,2.62451h-2.47656c.08398-.75586,.125-1.57471,.125-2.64551v-6.80273Zm10.09961-1.78467h-7.85254v1.53271h7.85254v-1.53271Zm-7.85254,3.40137v1.55371h7.85254v-1.55371h-7.85254Z" fill="#44c38b"/>
        <path d="M99.28973,112.8517c-.96582-.10498-1.93164-.14697-3.19141-.14697h-12.42969c-1.17578,0-2.26758,.06299-3.21191,.14697v-2.77148c.90234,.10498,1.84766,.14697,3.21191,.14697h12.42969c1.40723,0,2.37207-.04199,3.19141-.14697v2.77148Z" fill="#44c38b"/>
        <path d="M115.58758,111.31899c.90234,1.95264,1.5957,3.12842,2.58203,4.17822,1.0498,1.13379,2.39355,2.09961,3.8418,2.75049,.65137,.31494,1.07129,.44092,2.03711,.69287-.69336,.88184-.98633,1.34375-1.40625,2.33057-4.05273-1.5957-6.63477-4.05225-8.46191-7.97852-.67188,1.93164-1.5752,3.35938-3.02344,4.72412-1.46973,1.38574-2.91895,2.24658-5.33301,3.19141-.44141-.98682-.79785-1.55371-1.36523-2.1626,2.81445-.90283,4.47266-1.93164,5.87891-3.59033,1.0293-1.21777,1.61719-2.43555,2.01562-4.13623h-4.07227c-.94531,0-1.80664,.04199-2.64648,.12598v-2.30957c.73535,.08398,1.5752,.12598,2.625,.12598h4.40918q.12598-1.38574,.14746-3.67432h-5.20703c-1.0918,0-1.95312,.04199-2.70898,.12598v-2.39355c.69336,.10498,1.6582,.14697,2.70898,.14697h13.24805c1.0293,0,1.97363-.04199,2.72949-.14697v2.39355c-.79785-.08398-1.6377-.12598-2.70801-.12598h-5.69043c-.04199,2.22559-.04199,2.58252-.14746,3.67432h5.12305c1.0293,0,1.89062-.04199,2.6875-.12598v2.30957c-.86035-.08398-1.67969-.12598-2.66602-.12598h-4.59766Z" fill="#44c38b"/>
        <path d="M129.76336,105.39809c0-.94482-.02051-1.49072-.08398-2.12061,.46289,.04199,.86133,.06299,1.84766,.06299h2.54102c.94531,0,1.32227-.021,1.82617-.06299-.0625,.48291-.0625,.86084-.0625,2.07861v12.00977c0,1.11279,.02148,1.57471,.0625,2.09961h-2.14062v-1.0498h-1.91113v1.76367h-2.2041c.08398-.65088,.125-1.38574,.125-2.49854v-12.28271Zm2.09961,4.3252h1.89062v-4.38818h-1.89062v4.38818Zm0,6.65576h1.89062v-4.72412h-1.89062v4.72412Zm7.22266-9.93115q-1.74219,.04199-2.24609,.10498v-2.22559c.58789,.08398,1.25977,.12598,2.18359,.12598h1.84766v-.56689c0-.58789-.04199-1.0498-.12598-1.57471h2.41504c-.06348,.48291-.10547,.92383-.10547,1.57471v.56689h2.28906c.90234,0,1.5957-.04199,2.18359-.12598v2.22559c-.58789-.08398-1.21875-.10498-2.16309-.10498h-2.30957v1.99463h2.89746c1.00781,0,1.76367-.04199,2.28809-.12598v2.22559c-.56641-.08398-1.13281-.10498-2.05664-.10498h-.35742v1.78467h.27344c1.00781,0,1.57422-.021,2.07812-.10498v2.28857c-.60938-.10498-1.13379-.12598-2.07812-.12598h-.27344v4.74512c0,1.21777-.20996,1.72168-.83984,2.01562-.52539,.23096-1.25977,.33594-2.30957,.33594q-.18848,0-1.6377-.021c-.04199-.90283-.18945-1.53271-.50391-2.20459,.52539,.08398,1.61719,.16797,2.35156,.16797,.65039,0,.77734-.10498,.77734-.56689v-4.47217h-5.01855c-.77637,0-1.5752,.04199-2.24707,.12598v-2.28857c.54688,.08398,1.19727,.10498,2.28906,.10498h4.97656v-1.78467h-4.97656c-.88184,0-1.6582,.04199-2.30957,.10498v-2.22559c.52441,.08398,1.32324,.12598,2.33105,.12598h2.16211v-1.99463h-1.78516Zm.81934,12.70264c-.83984-1.40674-1.6377-2.41455-2.6875-3.44336l1.78418-1.17578c1.0293,.92383,1.86914,1.88965,2.75098,3.2124l-1.84766,1.40674Z" fill="#44c38b"/>
        <path d="M156.3493,118.87758c0,1.25977,.04199,2.01562,.12598,2.58252h-2.45605c.08398-.62988,.125-1.30176,.125-2.60352v-13.71045c0-1.0918-.02051-1.67969-.08398-2.35156,.58789,.06299,1.13477,.08398,2.16309,.08398h3.71582c1.0918,0,1.5752-.021,2.14258-.08398-.04297,.67188-.06348,1.13379-.06348,1.95264v3.2124c0,.96582,.02051,1.44873,.06348,1.91064-.54688-.04199-1.19727-.06299-1.93164-.06299h-3.80078v9.07031Zm0-13.24854h3.61133v-1.0498h-3.61133v1.0498Zm0,2.56152h3.61133v-1.0708h-3.61133v1.0708Zm10.77148,9.02832c0,.79785,.02051,1.28076,.0625,1.82666,.46191,.04199,1.21777,.10498,1.5957,.10498,.58789,0,.77734-.14697,.77734-.56689v-8.77637h-4.13672c-.73438,0-1.40625,.021-1.93164,.06299,.04199-.60889,.0625-1.00781,.0625-1.91064v-3.2124c0-.71387-.02051-1.30176-.0625-1.95264,.56641,.06299,1.07031,.08398,2.1416,.08398h4.03125c1.0498,0,1.5752-.021,2.16309-.08398-.06348,.75586-.08398,1.28076-.08398,2.33057v13.75244c0,1.25977-.25195,1.80566-1.00781,2.12061-.44141,.18896-1.07129,.25195-2.37305,.25195-.29395,0-.37793,0-1.44922-.06299-.125-.94482-.23047-1.32275-.54492-2.1626-.60938-.021-1.00781-.021-1.17578-.021h-4.45117v1.17578h-2.22656c.08398-.50391,.14746-1.34375,.14746-2.09961v-5.12305c0-.73486-.02051-1.32275-.06348-1.88965,.60938,.06299,1.0918,.08398,1.95312,.08398h4.68164c.88281,0,1.34375-.021,1.95312-.08398-.04199,.5459-.0625,1.0708-.0625,1.88965v4.26221Zm-6.38281-3.04443h4.2832v-1.25977h-4.2832v1.25977Zm0,3.06543h4.2832v-1.36475h-4.2832v1.36475Zm4.8916-11.61084h3.92676v-1.0498h-3.92676v1.0498Zm0,2.56152h3.92676v-1.0708h-3.92676v1.0708Z" fill="#44c38b"/>
        <path d="M180.68915,119.15053c0,1.80566-.52539,2.54053-2.16309,3.14893l-.75586-1.1123c1.23926-.33594,1.5957-.77686,1.5957-2.03662h-1.76367v-3.06543h3.08691v3.06543Z" fill="#44c38b"/>
        <path d="M209.53973,111.88588c-.25195,.33594-.41992,.60889-.71387,1.0918-.90234,1.40674-1.55371,2.28857-2.47754,3.29639,.69238,1.32275,1.51172,2.33057,1.91113,2.33057,.33594,0,.56641-.92383,.75586-2.93945,.88086,.81885,1.1123,.98682,1.91016,1.38574-.29395,1.74268-.50391,2.56152-.81836,3.2124-.35742,.69287-.86133,1.02881-1.55469,1.02881-1.25977,0-2.56055-1.17578-3.88379-3.44336-1.42773,1.21777-2.81348,2.09961-4.68262,2.96045-.41992-.81885-.73438-1.25977-1.44824-1.99463,2.2041-.83984,3.63184-1.65869,5.16504-2.98145-.67188-1.70068-1.00781-3.2124-1.28125-5.66895l-4.36719,.021v2.56152c1.19727-.27295,1.82715-.41992,3.31836-.83984l.0625,2.07861c-1.74219,.50391-2.37305,.65088-3.38086,.90283v4.17822c0,1.0708-.16797,1.53271-.69238,1.82666-.41992,.23096-1.07129,.33594-2.09961,.33594-.37793,0-1.36426-.04199-1.99512-.08398-.08398-.94482-.16797-1.38574-.54492-2.33057l.50391,.08398c.71289,.10498,1.23828,.14697,1.88867,.14697,.58789,0,.71484-.10498,.71484-.50391v-3.17041c-.88281,.16797-1.86914,.35693-2.45703,.46191-.73438,.12598-.96582,.16797-1.34375,.29395l-.41992-2.39355h.16797c.60938,0,2.01562-.18896,4.05273-.56689v-2.96045h-1.70117c-1.07031,.021-1.76367,.06299-2.43555,.14697v-2.33057c.60938,.06299,1.38574,.10498,2.43555,.10498l1.70117-.021v-2.43555c-1.00781,.20996-1.70117,.33594-3.19141,.5249-.21094-.83984-.41992-1.32275-.81934-2.01562,2.47754-.23096,4.57715-.62988,6.59277-1.28076,.81836-.27295,1.1543-.41992,1.67969-.73486l1.1543,2.05762c-.25195,.04199-.54492,.12598-1.1123,.31494-1.07129,.33594-1.38574,.44092-2.0791,.60889v2.96045l4.19922-.021c-.04102-.67188-.0625-1.13379-.10449-2.03662q-.10449-3.08643-.20996-3.63232h2.49805c-.125,.44092-.14648,.75586-.14648,1.97363,0,1.25977,.02148,2.20459,.12598,3.67432l3.98926-.021c.98633,0,1.57422-.04199,2.24609-.12598v2.33057c-.65039-.08398-1.53223-.10498-2.43555-.10498l-3.63184,.021c.14746,1.44873,.39941,2.7085,.79785,3.96826,1.07031-1.28076,1.80566-2.45654,2.1416-3.44336l2.01562,1.19678Zm-2.81348-9.21729c1.32227,1.21777,2.1416,2.18359,3.02344,3.50635l-1.67969,1.40674c-1.34375-1.99463-1.72168-2.47754-2.96094-3.7373l1.61719-1.17578Z" fill="#44c38b"/>
        <path d="M218.27899,109.91225c0-.50391-.02148-.81885-.04297-1.55371-.39844,.16797-.69238,.27295-1.57422,.60889-.33594-.94482-.5459-1.38574-1.07031-2.1416,2.05664-.60889,3.54785-1.23877,5.12305-2.1626,1.61621-.94482,2.6875-1.76367,3.48438-2.7085h2.54102c1.11328,1.0918,2.24609,1.88965,3.98926,2.79248,1.72168,.88184,3.14941,1.44873,4.93457,1.91064-.54688,.79785-.73535,1.21777-1.0293,2.22559-.86133-.33594-1.1543-.46191-1.67969-.67188q0,.14697-.02148,.5459v3.25439c0,.79785,0,1.32275,.06348,1.86865-.5459-.04199-1.17578-.06299-2.01562-.06299h-10.79199c-.86133,0-1.34375,.021-2.01562,.06299,.0625-.48291,.10547-1.11279,.10547-1.82666v-2.1416Zm.86035,6.78174c0-.86084-.04199-1.53271-.08398-2.1416,.96582,.04199,1.61621,.06299,2.43555,.06299h8.5459c.96484,0,1.61621-.021,2.05664-.08398-.08398,.50391-.08398,.92383-.08398,2.07861v2.62451c0,1.02881,.02148,1.74268,.12695,2.33057h-2.26758v-.77686h-8.58789v.73486h-2.26758c.08398-.65088,.12598-1.25977,.12598-2.24658v-2.58252Zm2.79199-10.26709c-1.40625,.83984-2.03613,1.19678-2.85547,1.57471,.41992,.021,.67188,.021,1.11328,.021h10.6875c.77637,0,.96484,0,1.61621-.021-1.17578-.5459-2.0791-.98682-3.08691-1.57471v.90283c-.44043-.06299-1.02832-.08398-1.57422-.08398h-4.2832c-.79785,0-1.1543,.021-1.61719,.08398v-.90283Zm-1.67969,3.17041v2.60352h2.01562c-.37695-.81885-.62891-1.25977-1.17578-2.03662l1.23926-.56689h-2.0791Zm1.0293,7.32764h8.58789v-.75586h-8.58789v.75586Zm0,2.28857h8.58789v-.81885h-8.58789v.81885Zm1.32227-9.61621c.52539,.73486,.81934,1.25977,1.15527,1.97363l-1.28027,.62988h2.12012v-2.60352h-1.99512Zm5.60645-3.88428c-1.28027-.81885-1.76367-1.19678-2.72949-2.09961-1.0293,1.02881-1.57422,1.51172-2.43555,2.09961h5.16504Zm-1.80566,3.88428v2.60352h1.88965l-1.07129-.5249c.56738-.71387,.88281-1.21777,1.30273-2.07861h-2.12109Zm4.55664,2.60352v-2.60352h-2.37305l1.44922,.65088c-.39941,.75586-.75586,1.30176-1.25977,1.95264h2.18359Z" fill="#44c38b"/>
        <path d="M248.53875,104.09633c0-.86084-.04199-1.36475-.12598-1.86865h2.6875c-.10449,.50391-.14746,1.02881-.14746,1.86865v1.17578h4.51465c1.0498,0,1.72168-.04199,2.33105-.12598v2.43555c-.71484-.08398-1.34375-.12598-2.33105-.12598h-4.51465v3.06543h5.8584c1.0498,0,1.86816-.04199,2.47754-.12598v2.45654c-.77734-.08398-1.5332-.12598-2.47754-.12598h-6.99121c-.9873,2.20459-1.95312,3.92627-3.10742,5.54297,2.79199-.23096,5.18555-.50391,7.30664-.86084-.79883-1.11279-1.23926-1.6377-2.31055-2.79248l2.01562-1.11279c2.05859,2.24658,3.38086,3.92627,5.03906,6.4248l-2.2041,1.51172c-.62988-1.0918-.81934-1.42773-1.19629-2.01562-4.47266,.79785-5.8584,.96582-11.80078,1.46973-.94434,.06299-1.0918,.08398-1.7002,.18896l-.52441-2.62451c.37695,.021,.54492,.021,.81836,.021,.35742,0,.58789,0,1.74219-.06299,1.28125-1.82666,2.28906-3.63232,3.21289-5.68994h-4.15723c-.96582,0-1.72168,.04199-2.49902,.12598v-2.45654c.58789,.08398,1.42773,.12598,2.49902,.12598h5.58496v-3.06543h-4.17773c-.9668,0-1.61719,.04199-2.33105,.12598v-2.43555c.6084,.08398,1.30176,.12598,2.33105,.12598h4.17773v-1.17578Z" fill="#44c38b"/>
        <path d="M264.73114,111.92788c.52441,.08398,.86035,.10498,1.67969,.10498h1.5752c.6084,0,1.07031-.021,1.5957-.08398-.06348,.60889-.08398,1.15479-.08398,2.22559v2.77148c.62891,1.0708,1.17578,1.44873,2.30859,1.74268,.77734,.18896,2.26758,.29395,4.32617,.29395,3.23242,0,5.91992-.14697,8.23047-.41992-.08398,.23096-.12695,.39893-.16797,.50391-.27344,.77686-.31543,.90283-.46289,1.93164-1.99414,.06299-4.45117,.10498-6.69727,.10498-3.48535,0-4.89258-.08398-5.98438-.39893-1.1123-.29395-1.86816-.83984-2.66602-1.88965-.90234,.81885-1.67969,1.44873-2.56152,2.05762-.04199,.04199-.39941,.31494-.52441,.41992l-1.0293-2.39355c1.00781-.41992,1.95312-1.00781,3.02344-1.82666v-3.02344h-1.1543c-.52539,0-.92383,.021-1.40723,.10498v-2.22559Zm1.34375-5.14404c1.44824,.81885,2.45605,1.49072,3.7793,2.49854l-1.32324,1.78467c-1.17578-1.0498-2.01562-1.6377-3.75781-2.64551l1.30176-1.6377Zm.33594-4.49316c1.49121,.83984,2.37207,1.38574,3.61133,2.33057l-1.30176,1.78467c-1.28125-1.0918-2.24609-1.78467-3.58984-2.49854l1.28027-1.6167Zm3.7793,3.02344c.5459,.08398,1.00781,.10498,2.18359,.10498h9.07031c1.1123,0,1.65918-.021,2.26758-.10498v2.09961c-.58789-.08398-1.23926-.10498-2.26758-.10498h-9.07031c-.96582,0-1.55371,.021-2.18359,.10498v-2.09961Zm1.19629,9.09131c0-.48291-.02051-.92383-.0625-1.32275,.50391,.04199,.94531,.06299,1.6377,.06299h7.83105c.71484,0,1.17578-.021,1.67969-.06299-.0625,.37793-.0625,.79785-.0625,1.32275v2.09961c0,.58789,0,.69287,.0625,1.42773-.52441-.06299-.83984-.06299-1.61621-.06299h-7.89453c-.73535,0-1.15527,.021-1.6377,.06299,.04199-.71387,.0625-.92383,.0625-1.38574v-2.1416Zm0-11.73682c.60938,.08398,1.23926,.10498,2.33105,.10498h6.34082c1.11328,0,1.80566-.04199,2.37305-.10498v2.05762c-.58789-.08398-1.19727-.10498-2.26758-.10498h-6.53027c-1.02832,0-1.61621,.021-2.24707,.10498v-2.05762Zm.04297,5.375c.54492,.06299,.83984,.08398,2.24609,.08398h6.32031c1.17578,0,1.76367-.021,2.28809-.08398v1.86865q-.52441-.06299-2.28809-.08398h-6.32031c-1.21777,0-1.61719,.021-2.24609,.08398v-1.86865Zm0,2.51953c.54492,.08398,.81836,.08398,2.24609,.08398h6.32031c1.23828,0,1.76367-.021,2.28809-.08398v1.84766q-.50391-.04199-2.28809-.08398h-6.32031c-1.21777,0-1.61719,.021-2.24609,.08398v-1.84766Zm2.14062,5.52197h6.65625v-1.17578h-6.65625v1.17578Z" fill="#44c38b"/>
        <path d="M293.66766,115.5812c.02148-.44092,.04199-.65088,.04199-.90283q0-.23096-.06348-1.49072l-.29297-7.13867c-.04297-.92383-.10547-1.97363-.18945-2.56152h3.44336c-.0625,.56689-.14648,1.65869-.18945,2.56152l-.29297,7.13867q-.04297,1.21777-.04297,1.51172c0,.25195,0,.46191,.04297,.88184h-2.45703Zm-.29395,4.59814v-2.87646h3.04395v2.87646h-3.04395Z" fill="#44c38b"/>
        <path d="M305.89129,111.86489c.77637-.94482,1.15527-1.28076,2.0791-1.86865,1.28027-.79785,2.22461-1.0918,3.44336-1.0918,.96484,0,1.80469,.18896,2.70801,.62988q.5459,.27295,1.91113,1.15479c1.5957,1.02881,2.70801,1.46973,3.71582,1.46973,.44043,0,1.0498-.16797,1.55371-.39893,.90234-.46191,1.44922-.92383,2.18359-1.91064l1.67969,1.67969c-.86133,1.0918-1.30176,1.53271-1.99414,2.03662-1.07129,.79785-2.26758,1.19678-3.63281,1.19678-.62988,0-1.28125-.10498-1.84766-.29395-.81836-.27295-1.23828-.48291-2.87695-1.55371-1.84766-1.17578-2.49805-1.42773-3.61133-1.42773-1.36426,0-2.33008,.50391-3.65234,1.93164l-1.65918-1.55371Z" fill="#44c38b"/>
        <path d="M332.95965,106.06997c-1.07129,0-1.76367,.021-2.54004,.12598v-2.30957c.73438,.10498,1.51172,.14697,2.6875,.14697h5.54297c-.02148-.86084-.04297-1.21777-.14746-1.88965h2.56152c-.10547,.65088-.12598,1.0918-.12598,1.88965h5.73145c1.30273,0,2.09961-.04199,2.75098-.14697v2.30957c-.69238-.08398-1.5752-.12598-2.60352-.12598h-5.87891v1.17578h4.3877c1.28125,0,1.67969-.021,2.33105-.08398-.06348,.62988-.08398,1.32275-.08398,2.12061v3.88428q0,1.17578,.08398,2.1416c-.6084-.08398-1.19629-.10498-2.35156-.10498h-2.51953c1.86816,1.76367,4.09473,2.85547,7.28613,3.59033-.54688,.83984-.73535,1.21777-1.19727,2.22559-1.70117-.56689-2.96094-1.13379-4.30469-1.91064-1.55273-.92383-2.54004-1.72168-3.67383-3.02344,.02148,.69287,.04199,1.0918,.04199,1.44873v1.51172c0,1.0708,.02051,1.67969,.14746,2.39355h-2.58301c.10449-.81885,.14746-1.42773,.14746-2.39355v-1.51172c0-.25195,.02051-1.02881,.04102-1.42773-1.07031,1.32275-2.35156,2.37256-4.00977,3.31738-1.00781,.58789-2.33008,1.17578-3.58984,1.6167-.46289-1.0498-.65137-1.40674-1.17578-2.12061,1.57422-.44092,2.66602-.86084,3.94727-1.55371,1.28027-.69287,2.28809-1.42773,3.00195-2.1626h-2.26758c-1.30176,0-1.72168,.021-2.37305,.10498q0-.20996,.06348-.60889,0-.08398,.02051-1.53271v-3.86328c0-1.0918-.02051-1.42773-.08398-2.1626,.56738,.08398,1.07129,.10498,2.28906,.10498h4.13672v-1.17578h-5.69043Zm1.5752,2.98145v1.28076h4.11523v-1.28076h-4.11523Zm0,3.02344v1.32275h4.11523v-1.32275h-4.11523Zm6.40332-1.74268h4.40918v-1.28076h-4.40918v1.28076Zm0,3.06543h4.40918v-1.32275h-4.40918v1.32275Z" fill="#44c38b"/>
        <path d="M361.07782,115.39223c-1.5957,2.51953-2.64453,3.61133-5.05957,5.41699-.4834-.79785-.81934-1.21777-1.49121-1.82666,1.36523-.83984,1.95312-1.30176,2.75098-2.12061,.77637-.79785,1.17578-1.36475,1.84766-2.58252l1.95215,1.11279Zm1.82715-11.69482c0-.56689-.04199-1.0498-.12598-1.53271h2.60352c-.08398,.41992-.12598,.88184-.12598,1.51172v.62988h6.00488c1.0918,0,1.80566-.04199,2.45703-.14697v2.37256c-.58789-.10498-1.15527-.12598-2.31055-.12598h-14.25586c-1.13379,0-1.6582,.021-2.26758,.12598v-2.37256c.60938,.10498,1.38574,.14697,2.51953,.14697h5.50098v-.60889Zm-3.7793,10.2251c-.92383,0-1.32324,.021-1.88965,.06299,.0625-.5249,.08398-.92383,.08398-1.65869v-3.00244c0-.71387-.02148-1.0918-.02148-1.13379,0-.021-.02051-.12598-.04102-.29395,0-.06299,0-.14697-.02148-.27295q.16797,.021,.50391,.04199c.18945,.021,.86133,.04199,1.38574,.04199h10.09863q1.44922-.021,1.91113-.08398c-.06348,.50391-.08398,.94482-.08398,1.70068v3.00244c0,.73486,.02051,1.0918,.06348,1.65869-.4834-.04199-1.0918-.06299-1.91113-.06299h-3.6748v5.24902c0,1.6167-.69238,2.07861-3.16992,2.07861-.33594,0-.5459,0-1.70117-.021-.10449-.92383-.25195-1.46973-.6084-2.24658,.88184,.12598,1.55371,.18896,2.28809,.18896,.71484,0,.86133-.08398,.86133-.44092v-4.80811h-4.07324Zm.41992-2.07861h9.28027v-2.1626h-9.28027v2.1626Zm9.49023,2.45654c.79785,1.21777,1.23926,1.74268,2.0791,2.49854,.86035,.79785,1.51172,1.23877,2.89648,1.99463-.65039,.67188-1.02832,1.19678-1.49023,2.01562-1.44922-.98682-2.05762-1.51172-3.12891-2.60352-.86035-.92383-1.30078-1.46973-2.18359-2.72949l1.82715-1.17578Z" fill="#44c38b"/>
        <path d="M392.87079,119.19252c0,1.02881,.02148,1.51172,.08398,2.01562h-2.18359c.0625-.56689,.08398-1.0498,.08398-2.01562v-.83984h-1.80566v.83984c0,1.00781,.02051,1.49072,.08398,2.01562h-2.18359c.06348-.5249,.08398-1.02881,.08398-2.01562v-.83984h-1.76367v1.25977c0,.90283,.02051,1.40674,.10449,1.97363h-2.33008c.08398-.56689,.10547-1.02881,.10547-1.99463v-3.50635c0-.62988-.02148-1.17578-.04297-1.67969-.39844,3.00244-1.02832,4.64014-2.51953,6.71875-.50391-.79785-.92383-1.21777-1.7207-1.74268,1.1543-1.38574,1.76367-2.72949,2.09961-4.66113,.23047-1.28076,.35645-3.29639,.35645-5.16504,0-.94482-.04199-1.86865-.10449-2.60352-.27344,.27295-.41992,.37793-.86133,.75586-.56641-.73486-.77734-.98682-1.49023-1.57471,1.04883-.81885,1.53223-1.28076,2.09961-2.07861,.54492-.75586,.90234-1.42773,1.13281-2.12061l2.24707,.37793c-.14746,.29395-.35645,.65088-.58789,1.11279h2.75098c1.02832,0,1.57422-.021,2.05664-.12598v1.82666c.79883-.92383,1.38672-2.01562,1.70117-3.10742l2.20508,.39893c-.23145,.5249-.29492,.67188-.46289,1.00781h3.84277c1.19629,0,1.67969-.021,2.28809-.10498v1.97363c-.65039-.06299-1.25977-.10498-2.2041-.10498h-1.65918c.10547,.14697,.16797,.27295,.21094,.33594,.25195,.37793,.27246,.41992,.39844,.67188,.23047-.04199,.31445-.06299,.56641-.14697l1.4707,1.78467q-.46289,.04199-1.5332,.18896c-2.72949,.33594-7.0127,.5249-11.96777,.5249v.71387h11.2334c.98633,0,1.38477-.021,1.78418-.06299-.04199,.41992-.06348,.83984-.06348,1.36475v1.32275c0,.58789,.02148,1.02881,.06348,1.44873-.52441-.04199-.92383-.06299-1.76367-.06299h-11.44238c-.02148,.31494-.04297,.39893-.08398,.71387,.41992,.04199,.96484,.06299,1.88867,.06299h9.97363c1.0918,0,1.49121-.021,2.0791-.08398-.08398,.65088-.10547,1.13379-.10547,2.07861v3.46436c0,1.51172-.41992,1.86865-2.22559,1.86865-.23145,0-.4834,0-1.0498-.04199-.04199-.62988-.12598-1.0498-.31445-1.78467,.46094,.06299,.83984,.10498,1.02832,.10498,.33594,0,.41992-.08398,.41992-.48291v-.81885h-1.97363v.83984Zm-6.94922-14.00439c.41992,.67188,.50391,.81885,.67188,1.17578l-1.93164,.58789c-.31543-.83984-.46289-1.17578-.77734-1.76367h-1.19727c-.52441,.73486-.92383,1.19678-1.44824,1.74268,.90332,.021,1.53223,.04199,2.24707,.04199,1.34375,0,4.00977-.08398,5.64746-.16797-.39941-.35693-.71387-.58789-1.30176-.96582,.29395-.25195,.37793-.35693,.60938-.58789-.37891-.04199-.86133-.06299-1.42773-.06299h-1.0918Zm8.29297,6.57178v-.98682h-10.8125c0,.35693,0,.39893-.04297,.98682h10.85547Zm-7.18066,3.96826h-1.76367v1.0708h1.76367v-1.0708Zm3.82129,1.0708v-1.0708h-1.80566v1.0708h1.80566Zm.18945-11.61084c-.44141,.69287-.73535,1.0708-1.21875,1.57471,.9668-.04199,1.72266-.10498,3.04492-.25195-.23047-.5249-.41992-.88184-.69336-1.32275h-1.13281Zm3.7998,11.61084v-1.0708h-1.97363v1.0708h1.97363Z" fill="#44c38b"/>
        <path d="M403.33172,111.86489c.77637-.94482,1.1543-1.28076,2.07812-1.86865,1.28125-.79785,2.22559-1.0918,3.44336-1.0918,.96582,0,1.80566,.18896,2.70898,.62988q.54492,.27295,1.91016,1.15479c1.5957,1.02881,2.70898,1.46973,3.7168,1.46973,.44043,0,1.04883-.16797,1.55273-.39893,.90332-.46191,1.44922-.92383,2.18359-1.91064l1.67969,1.67969c-.86035,1.0918-1.30078,1.53271-1.99414,2.03662-1.07031,.79785-2.26758,1.19678-3.63281,1.19678-.62891,0-1.28027-.10498-1.84766-.29395-.81836-.27295-1.23828-.48291-2.87598-1.55371-1.84766-1.17578-2.49902-1.42773-3.61133-1.42773-1.36426,0-2.33105,.50391-3.65332,1.93164l-1.6582-1.55371Z" fill="#44c38b"/>
      </g>
      <rect width="427.11677" height="75.82553" fill="#fff" opacity=".98"/>
      <g>
        <g>
          <path d="M84.22849,53.37384l.52514-1.51893,.52405-1.519,.52898-1.51632,.52913-1.51707,.53713-1.51704,.52143-1.52218,.53111-1.51731,.5292-1.51915,.52028-1.52419,.53159-1.51837,.53037-1.52078,.52753-1.52082,.53871-1.51854,.51513-1.52192,.53679-1.51443,.53227-1.52163,.5225-1.52221,.52936-1.52212,.53539-1.52194,.52755-1.52223,.52393-1.52749,.52935-1.52836,.53976-1.52201,1.85454-.01046,1.85978,.00695,1.86314-.00528,.52427,1.52562,.52382,1.51908,.5345,1.5144,.52714,1.51776,.52475,1.52134,.52859,1.51969,.53095,1.51737,.52354,1.52112,.52967,1.52093,.53664,1.51661,.52359,1.52314,.5265,1.52117,.53407,1.52015,.52583,1.5182,.52948,1.51698,.5315,1.5219,.52996,1.51962,.53234,1.52108,.52646,1.52505,.52447,1.52331,.53505,1.52362,.53482,1.52646,.52769,1.53135-1.55725,.00363-1.55851-.00705-1.56102,.00248-1.55772-.0053-.48532-1.44196-.47326-1.4472-.46657-1.45315-.47746-1.45216-.4829-1.45081-1.57696,.00688-1.57394-.00184-1.57606-.00991-1.57783,.00402-1.57559,.00159-1.57927,.00046-1.58182,.00264-1.58334-.00542-.46991,1.45224-.48544,1.44319-.46863,1.45247-.48611,1.44932-.47419,1.4498-1.56432,.00786-1.57116-.00977-1.5737,.00617-1.57149-.00131Zm10.28644-12.31568l1.55423-.00289,1.55374-.00406,1.55153,.00148,1.55516,.00137,1.55767,.00894,1.55661-.00701-.51345-1.56564-.5173-1.57117-.52601-1.56542-.51475-1.57147-.51717-1.57263-.519-1.56955-.50947-1.57676-.53251-1.57198-.5131-1.58088-.52141,1.56659-.51177,1.57299-.5171,1.56836-.52325,1.56867-.51672,1.57278-.51109,1.57216-.51689,1.57432-.5299,1.57284-.51803,1.57896Z" fill="#44c38b"/>
          <path d="M133.19552,34.36375l-.9685-1.06524-1.25831-.69032-1.42273-.21533-1.62583,.27069-1.40385,.85478-.97786,1.3264-.50875,1.57114-.14863,1.64984-.0031,1.69483,.00576,1.70044,.00109,1.69763-.00772,1.69991,.00094,1.70183-.00021,1.6994,.00062,1.70338,.00493,1.70612-.00439,1.7028-1.80302,.00436-1.80908,.00181-1.80569-.00647-.00015-1.68524-.00429-1.68699-.00052-1.68896,.00437-1.68802-.00359-1.68962,.0041-1.68485-.00787-1.68489,.00357-1.69046,.00328-1.68767-.0044-1.68994,.00206-1.69184-.0035-1.68943,.00178-1.69339-.00212-1.69612,.00134-1.69877,1.77494,.00043,1.77525,.00107,1.77232,.00343,.00167,2.2792,1.08246-1.2344,1.38632-.87722,1.56836-.48742,1.64189-.13391,1.67002,.12233,1.61697,.42712,1.48277,.77032,1.2624,1.09553,1.01503,1.33192-1.43814,1.00852-1.43529,1.01699-1.43673,1.01431Z" fill="#44c38b"/>
          <path d="M160.27069,49.51972l-1.02219,1.44512-1.31119,1.17752-1.54394,.84477-1.68694,.51819-1.7459,.25907-1.76826,.07177-1.6418-.0898-1.61937-.27212-1.5651-.49699-1.46933-.73028-1.32265-.97159-1.12574-1.19349-.8955-1.3736-.67434-1.49432-.44861-1.57767-.2641-1.62026-.07499-1.64134,.00115-1.72362-.004-1.72362,.06673-1.59083,.19377-1.57885,.36008-1.54824,.55355-1.48949,.77839-1.38584,1.02981-1.20799,1.23534-.99545,1.40658-.73432,1.51392-.47917,1.56605-.26669,1.58906-.0774,1.61415,.07832,1.58945,.27592,1.53262,.50098,1.41783,.76547,1.23543,1.03227,1.00249,1.26067,.75333,1.42431,.52574,1.52278,.33383,1.57853,.18365,1.60381,.04751,1.61544,.00483,1.39409,.00259,1.39793-1.68119-.00107-1.68355-.00738-1.68077,.00745-1.68303,.002-1.68492-.00811-1.68252,.00324-1.68646,.00057-1.68918,.0031-1.68933-.00613-.00372,.1039,.10603,1.6938,.35638,1.65509,.71657,1.53105,1.15158,1.23089,1.52113,.723,1.67789,.21234,1.52096-.09143,1.47227-.3866,1.27387-.82297,.95401-1.18144,1.35311,.94068,1.34764,.95389,1.35931,.94017Zm-14.75441-11.66155l1.60926,.00225,1.61285,.00455,1.61055-.00236,1.61432-.00255,1.61692-.00225,1.61531,.00084-.20314-1.65532-.52154-1.58159-.98748-1.329-1.45399-.78491-1.6482-.21644-1.64121,.23276-1.44395,.80239-.9943,1.32369-.55348,1.56469-.23194,1.64324Z" fill="#44c38b"/>
          <path d="M175.27186,38.41701l1.82302-.00077,1.82596,.00217,1.82316-.00024-.00081-2.12671-.12324-1.51749-.61413-1.37679-1.26286-.81482-1.49037-.28699-1.52447-.06223-1.53717,.05473-1.50943,.27732-1.31593,.76222-.95942,1.18596-1.30139-.90685-1.30146-.91354-1.29743-.9164,.918-1.27291,1.15599-1.06402,1.34792-.80419,1.47273-.53795,1.54112-.31804,1.56461-.16291,1.57669-.04156,1.7142,.05108,1.70818,.18957,1.66877,.39832,1.56631,.68947,1.34296,1.0541,.99147,1.38923,.60556,1.59913,.30828,1.6832,.08145,1.71299,.00446,1.70143-.00659,1.69729,.00034,1.7029,.00623,1.70009-.00864,1.70237,.00613,1.70429,.00174,1.70186-.0021,1.70585-.00226,1.7086,.00379,1.71225-1.77592,.00151-1.77525-.01007-1.77122,.00184-.00905-2.32795-1.06529,1.33592-1.43792,.9194-1.65676,.42422-1.71553,.10794-1.69894-.09209-1.66932-.32081-1.5956-.58475-1.44553-.88894-1.17876-1.21945-.83342-1.47642-.46628-1.63197-.13941-1.69405,.1565-1.70668,.50655-1.63294,.91811-1.43925,1.28342-1.12527,1.51868-.78085,1.64108-.48629,1.6945-.25407,1.71397-.08098Zm5.47287,4.16338l-1.68591,.00144-1.6907-.00217-1.6907,.00153-1.60417,.1179-1.52419,.49781-1.08132,1.15678-.3052,1.56966,.31081,1.49936,1.02706,1.12522,1.43785,.53298,1.53636,.14072,1.75945-.13515,1.65614-.58285,1.18635-1.278,.53876-1.66906,.1367-1.76247-.00728-1.21371Z" fill="#44c38b"/>
          <path d="M227.53744,42.27329l-.06543,1.63283-.2264,1.61676-.39969,1.58431-.61045,1.51271-.8379,1.39888-1.07291,1.22719-1.28944,.99657-1.44843,.74524-1.55644,.48781-1.60849,.27149-1.6322,.08568-1.63164-.0918-1.60854-.27334-1.5532-.50189-1.44815-.75093-1.28718-1.00049-1.08766-1.21456-.84854-1.39227-.62502-1.50587-.41309-1.57878-.22462-1.61718-.07158-1.63235,.005-1.59683-.00742-1.59683,.0732-1.63382,.21327-1.61999,.40372-1.58308,.61555-1.51201,.85468-1.39053,1.08683-1.21549,1.2986-.98566,1.45548-.73414,1.55866-.4814,1.60936-.27134,1.63228-.08008,1.63017,.0771,1.60678,.2741,1.55593,.48467,1.4513,.73921,1.29231,.98862,1.08721,1.21156,.83917,1.39501,.60727,1.50978,.39681,1.58055,.21761,1.61582,.066,1.63111-.00864,1.59683,.00586,1.59683Zm-5.37478-.15204l-.00275-1.47011,.0061-1.47011-.095-1.65774-.33433-1.62499-.68712-1.50504-1.12871-1.20121-1.48957-.7025-1.64161-.19985-1.65115,.19701-1.49998,.70125-1.13466,1.20276-.70232,1.50304-.33864,1.62449-.09587,1.66279-.0012,1.47011-.00327,1.47011,.09794,1.68952,.32443,1.65618,.68054,1.54078,1.13406,1.2364,1.51539,.71899,1.67473,.20336,1.65472-.21763,1.48202-.75792,1.1112-1.2387,.67573-1.52547,.34643-1.63429,.10288-1.67124Z" fill="#44c38b"/>
          <path d="M234.73627,28.02952l-.00539-1.57278,.0723-1.69234,.26134-1.67097,.56462-1.59219,.99551-1.35678,1.4031-.92952,1.60359-.52632,1.67504-.22329,1.69172-.07573,1.57146,.0068-.00602,1.62036,.00312,1.62309,.00086,1.62154-1.1638,.00314-1.56375,.19866-1.23189,.92275-.42679,1.50509-.07577,1.5795,.00279,.55842,1.48572-.00452,1.48783-.00054,1.48773,.00439-.00489,1.5529,.00404,1.55549-.00344,1.5513-1.48105,.00353-1.48783,.00638-1.49104-.00873,.00019,1.59295-.00186,1.58906,.00153,1.59056-.00185,1.58607,.00434,1.58611,.00218,1.59136-.00374,1.58873-.0022,1.59086-.00076,1.59266,.00052,1.59039,.00227,1.59411-.00399,1.59668,.011,1.60164-1.7937,.0005-1.79217-.00753-1.79337,.00343,.00599-1.59131-.00195-1.58906-.00939-1.59056,.0063-1.58607,.00495-1.58611-.00232-1.59136,.00461-1.58873-.00693-1.59086,.00373-1.59266,.00099-1.59039-.0006-1.59411,.00147-1.59668-.00798-1.59432-1.61989-.0018-1.62064-.00221,.0044-1.55135-.00874-1.55549,.00551-1.55264,1.61947,.00336,1.62351-.00489Z" fill="#44c38b"/>
          <path d="M265.50444,46.17239l1.00548,1.0943,1.24175,.80655,1.399,.48516,1.47514,.15507,1.58254-.13936,1.50548-.49514,1.24771-.97176,.85771-1.3323,.51224-1.5035,.2921-1.56184,.14025-1.58134,.0442-1.59235,.00181-1.62503-.00361-1.62412-.0006-1.62566,.01079-1.62107-.00432-1.62111-.00469-1.62647,.00328-1.62379,.00192-1.62597-.00401-1.6278-.00167-1.62548,.00788-1.62929v-1.63191s-.00201-1.62981-.00201-1.62981l1.46404,.00013,1.46982-.00412,1.47219-.00509,1.46956,.00935,.00492,1.62265,.00057,1.62412,.00227,1.62566-.00226,1.62107-.00995,1.62111,.00891,1.62647-.00153,1.62379-.00189,1.62597-.00476,1.6278,.00844,1.62548-.00589,1.62929,.00733,1.63191-.00213,1.63191-.0457,1.63872-.12329,1.63129-.23469,1.62133-.37555,1.59384-.52983,1.54763-.72994,1.46414-.9472,1.33188-1.15802,1.15058-1.3509,.91642-1.49228,.66064-1.57451,.43227-1.61648,.24086-1.6348,.06513-1.69381-.08761-1.67856-.24897-1.62882-.47077-1.55278-.67946-1.42463-.91793-1.26191-1.13094-1.04758-1.32727,1.63461-.93087,1.64233-.92579,1.63634-.9386Z" fill="#44c38b"/>
          <path d="M298.86167,38.41568l1.82302,.00281,1.82596,.00134,1.82678,.00143-.00457-2.12981-.1244-1.51723-.6137-1.37632-1.26429-.80872-1.48828-.29158-1.52426-.05784-1.53713,.04853-1.50801,.28126-1.31651,.75882-.96245,1.19328-1.30064-.91313-1.30213-.91258-1.2992-.91653,.92561-1.27246,1.15157-1.0682,1.34573-.80943,1.47481-.53464,1.54099-.32142,1.56558-.15587,1.57664-.04343,1.71443,.0486,1.70681,.19995,1.66832,.39639,1.56965,.68155,1.34121,1.05709,.98839,1.39084,.60922,1.59738,.30253,1.6839,.0894,1.71244-.00002,1.70143-.00078,1.69729-.00082,1.7029-.0059,1.70009,.00632,1.70237,.00099,1.70429-.0004,1.70186-.00328,1.70585,.00479,1.7086-.00313,1.70962-1.77339-.00616-1.77525,.00804-1.77597-.00237-.00108-2.33214-1.0681,1.33694-1.43813,.91943-1.65648,.42722-1.71601,.09902-1.69822-.09276-1.67168-.30855-1.59778-.5829-1.43727-.90247-1.18286-1.21415-.82777-1.47863-.46646-1.63053-.13894-1.69304,.14226-1.70816,.51414-1.63164,.91238-1.44435,1.28499-1.12681,1.52228-.77645,1.64076-.48978,1.69536-.25258,1.71438-.0779Zm5.4721,4.16578l-1.68513-.00189-1.6907-.00134-1.6907-.00181-1.60415,.12281-1.52355,.49883-1.08095,1.1561-.29903,1.56918,.30563,1.49839,1.02853,1.12056,1.43443,.5382,1.53627,.13653,1.75923-.13183,1.65186-.58886,1.1887-1.27188,.53735-1.66849,.1355-1.76186-.00327-1.21264Z" fill="#44c38b"/>
          <path d="M339.2576,42.37469l-.06613,1.72045-.25069,1.70374-.45454,1.66012-.67649,1.58262-.94249,1.4375-1.18373,1.24531-1.42483,.95881-1.58397,.66545-1.67913,.37162-1.71799,.1073-1.6657-.08865-1.6394-.31145-1.53406-.6384-1.29594-1.0363,.0008,1.60389,.00571,1.6057-.009,1.60751,.00117,1.60522-.00144,1.60898-.00149,1.61157,.00544,1.61168-1.80626,.00646-1.80908-.0121-1.80482,.00089-.0084-1.65641,.01032-1.66184-.00172-1.66452-.00681-1.66421,.00391-1.66275-.00055-1.66389-.00532-1.66579,.00328-1.66394,.00048-1.66588,.00046-1.66495-.00145-1.66653,.0014-1.66182,.00367-1.66186,.00103-1.66736-.00227-1.66461-.00769-1.66684,.01206-1.66873-.00138-1.66635-.00832-1.67025,.00949-1.67294-.01124-1.67809,1.81093,.00231,1.80908,.00733,1.80889-.00433-.00055,2.02784,1.25892-1.17143,1.53254-.7836,1.67276-.40898,1.72116-.11874,1.70487,.10874,1.66454,.38102,1.57769,.65065,1.40914,.96049,1.19811,1.21374,.93867,1.42494,.67469,1.56653,.44103,1.64937,.25213,1.68943,.07846,1.70908,.00318,1.72364-.01315,1.72361Zm-5.36015-.25345l-.0115-1.47011,.00117-1.47011-.08933-1.65766-.34096-1.62282-.67689-1.50919-1.1348-1.19498-1.48595-.70854-1.64206-.20055-1.59601,.19291-1.46208,.65275-1.12876,1.13486-.70645,1.4407-.36058,1.56272-.12079,1.60558,.00085,1.62222,.00571,1.62222,.0787,1.68598,.31887,1.65346,.66247,1.54534,1.12276,1.24488,1.51502,.71316,1.67029,.19715,1.65523-.21061,1.48763-.75175,1.09988-1.24985,.69153-1.51893,.34369-1.63659,.10235-1.67224Z" fill="#44c38b"/>
          <path d="M354.47233,38.42147l1.82307-.00612,1.82601,.0081,1.82225-.00612,.00193-2.12588-.1295-1.51661-.60901-1.37829-1.26474-.81083-1.48915-.29153-1.5246-.05566-1.53754,.04481-1.50939,.28079-1.31893,.75953-.95707,1.19346-1.30265-.90737-1.30071-.91454-1.30131-.91459,.92354-1.27693,1.15273-1.06831,1.34844-.80561,1.47464-.5349,1.54118-.31982,1.56531-.15743,1.57661-.04052,1.71444,.04541,1.70691,.19942,1.66993,.39168,1.56496,.69195,1.34587,1.05036,.98706,1.39225,.60941,1.59741,.30711,1.6835,.08605,1.71298-.0039,1.70143-.00394,1.69729-.00029,1.7029,.00183,1.70009,.00404,1.70237-.00455,1.70429,.00223,1.70186,.0048,1.70585-.00096,1.7086-.0011,1.71173-1.77541-.00737-1.77525-.00006-1.77231,.00207-.00364-2.32955-1.07051,1.33574-1.43641,.92188-1.65728,.42359-1.71567,.1113-1.69882-.09734-1.66965-.319-1.59592-.58443-1.44225-.8935-1.17862-1.21817-.83573-1.4745-.45987-1.63295-.14636-1.69283,.15154-1.70759,.50757-1.63379,.91756-1.44131,1.28774-1.12161,1.5176-.7837,1.64179-.4854,1.69495-.25181,1.71395-.07666Zm5.47562,4.15529l-1.68854,.00594-1.69073-.0081-1.69073,.00785-1.60447,.11487-1.52164,.50352-1.08441,1.15244-.3008,1.57005,.30619,1.49987,1.03096,1.12011,1.43411,.54202,1.53724,.13739,1.76033-.1313,1.65324-.59111,1.18493-1.27657,.53955-1.66763,.13258-1.76202,.00219-1.21734Z" fill="#44c38b"/>
          <path d="M373.32842,28.02658l1.77393,.00274,1.77525-.0046,1.77439,.00413-.0022,2.28119,1.23816-1.28014,1.55126-.86596,1.71849-.4608,1.78121-.12775,1.71851,.09731,1.6847,.35067,1.59291,.64618,1.41273,.97669,1.13423,1.28984,.81273,1.51009,.51583,1.64151,.27633,1.69738,.08101,1.72298-.00483,1.58145-.00108,1.58149,.00593,1.58672-.00646,1.58411,.00359,1.58623,.0037,1.58802-.00836,1.58576,.00221,1.58947,.00615,1.59203-.00076,1.595-1.79194-.00298-1.79219-.00237-1.79295,.00319,.00073-1.69003-.00052-1.69481-.00441-1.69202,.00237-1.69429,.00127-1.6962,.00459-1.69378-.00757-1.69774,.00652-1.70048-.00539-1.70048-.11322-1.71878-.47011-1.65446-1.00802-1.37622-1.51642-.77943-1.70493-.20433-1.72426,.23779-1.55174,.77876-1.13646,1.31047-.62643,1.62145-.17853,1.73413-.00302,1.69483-.00143,1.70044,.00043,1.69763,.00167,1.69991-.00192,1.70183-.00084,1.6994-.00388,1.70338,.00106,1.70612,.00605,1.70845-1.80836,.00257-1.80908-.00094-1.8103-.00265,.00577-1.69018-.0088-1.68699,.00342-1.68896-.00051-1.68802,.00476-1.68962,.00121-1.68485-.00429-1.68489-.00544-1.69046,.00877-1.68767-.0018-1.68994,.00107-1.69184-.00176-1.68943,.00397-1.69339-.00238-1.69612-.00429-1.69772Z" fill="#44c38b"/>
        </g>
        <path d="M48.05309,51.2342l1.85812-1.50261,.89382-1.35536,.88275-1.36135,.85023-1.38584,.8394-1.38593,.80713-1.409,.8013-1.41527,.75897-1.43941,.72159-1.46013,.69715-1.47376,.63407-1.50323,.57809-1.52303,.49368-1.55228,.36216-1.5864,.13692-1.61464-.0953-1.60016-.31113-1.57248-.51567-1.51761-.70995-1.43717-.90011-1.32522-1.05511-1.20462-1.19948-1.06173-1.33154-.89124-1.43611-.71077-1.51669-.5169-1.57336-.30417-1.59892-.11269-1.60055,.10366-1.57129,.31715-1.51529,.5202-1.43669,.70865-1.3307,.89143-1.20433,1.05597-1.05758,1.20304-.88719,1.3334-.70927,1.43565-.52683,1.51284-.30245,1.57383-.11168,1.59893,.15624,1.61304,.35267,1.58468,.49415,1.5479,.57368,1.52115,.63728,1.4953,.68641,1.47501,.7235,1.46002,.77083,1.43625,.78659,1.42703,.82109,1.40385,.83045,1.40194,.86537,1.37782,.86726,1.37236,.90923,1.34449,1.84978,1.50186-1.64727,.00211-1.6459,.00693-1.6481,.00373-1.64996-.00918-1.64761,.00686-1.65147,.00199-1.65413-.00325-1.6536-.00324,.00233,2.03669-.00579,2.03951,1.66147-.00664,1.65968,.01057,1.66157-.00653,1.65972,.00675,1.66166-.00247,1.66073-.00888,1.6623,.00718,1.65761-.00733,1.65765,.00975,1.66314,.0022,1.66039-.00316,1.66262-.00073,1.6645-.00174,1.66213,.00468,1.66602-.00818,1.6687,.00399,1.66616-.00391,.00704-2.03504-.00651-2.03549-1.64659-.00414-1.64588,.00244-1.64809-.00449-1.64995,.00641-1.6476-.00241-1.65145,.00372-1.65411-.00575-1.65412,.0026Zm-6.88029-21.96824l.20366-1.54137,.58801-1.43907,.95333-1.22787,1.22748-.95359,1.43876-.58935,1.54108-.20847,1.54039,.2147,1.43568,.59189,1.23775,.94027,.94083,1.23719,.60206,1.43312,.19885,1.54256-.20806,1.54105-.59872,1.4325-.93718,1.23901-1.23712,.94003-1.43448,.59456-1.54,.2018-1.54097-.20172-1.4399-.58579-1.2323-.94922-.94135-1.23663-.59492-1.43499-.2029-1.54062Z" fill="#44c38b"/>
      </g>
    </g>
  </g>
</svg>
