<?xml version="1.0" encoding="UTF-8"?>
<svg id="logo-aoj" data-name="logo-aoj" xmlns="http://www.w3.org/2000/svg" width="427.11677" height="132.02016" viewBox="0 0 427.11677 132.02016">
  <g id="logo-g" data-name="logo-g">
    <g>
      <rect y="91.27016" width="386.45282" height="40.75" fill="#fff" opacity=".98"/>
      <g>
        <path d="M32.34344,120.80141v-17.17969h5.19141l3.11719,11.71875,3.08203-11.71875h5.20312v17.17969h-3.22266v-13.52344l-3.41016,13.52344h-3.33984l-3.39844-13.52344v13.52344h-3.22266Z" fill="#44c38b"/>
        <path d="M52.07782,114.40297c0-1.09375,.26953-2.15234,.80859-3.17578s1.30273-1.80469,2.29102-2.34375,2.0918-.80859,3.31055-.80859c1.88281,0,3.42578,.61133,4.62891,1.83398s1.80469,2.76758,1.80469,4.63477c0,1.88281-.60742,3.44336-1.82227,4.68164s-2.74414,1.85742-4.58789,1.85742c-1.14062,0-2.22852-.25781-3.26367-.77344s-1.82227-1.27148-2.36133-2.26758-.80859-2.20898-.80859-3.63867Zm2.44922-7.61719l2.46094-3.45703h3.04688l2.42578,3.45703h-2.64844l-1.35938-1.74609-1.26562,1.74609h-2.66016Zm.92578,7.79297c0,1.23438,.29297,2.17969,.87891,2.83594s1.30859,.98438,2.16797,.98438,1.58008-.32812,2.16211-.98438,.87305-1.60938,.87305-2.85938c0-1.21875-.29102-2.15625-.87305-2.8125s-1.30273-.98438-2.16211-.98438-1.58203,.32812-2.16797,.98438-.87891,1.60156-.87891,2.83594Zm1.26562,10.92188v-3.29297h3.29297v3.29297h-3.29297Z" fill="#44c38b"/>
        <path d="M73.68622,108.3561v2.625h-2.25v5.01562c0,1.01562,.02148,1.60742,.06445,1.77539s.14062,.30664,.29297,.41602,.33789,.16406,.55664,.16406c.30469,0,.74609-.10547,1.32422-.31641l.28125,2.55469c-.76562,.32812-1.63281,.49219-2.60156,.49219-.59375,0-1.12891-.09961-1.60547-.29883s-.82617-.45703-1.04883-.77344-.37695-.74414-.46289-1.2832c-.07031-.38281-.10547-1.15625-.10547-2.32031v-5.42578h-1.51172v-2.625h1.51172v-2.47266l3.30469-1.92188v4.39453h2.25Z" fill="#44c38b"/>
        <path d="M94.91961,120.80141h-3.29297v-6.35156c0-1.34375-.07031-2.21289-.21094-2.60742s-.36914-.70117-.68555-.91992-.69727-.32812-1.14258-.32812c-.57031,0-1.08203,.15625-1.53516,.46875s-.76367,.72656-.93164,1.24219-.25195,1.46875-.25195,2.85938v5.63672h-3.29297v-12.44531h3.05859v1.82812c1.08594-1.40625,2.45312-2.10938,4.10156-2.10938,.72656,0,1.39062,.13086,1.99219,.39258s1.05664,.5957,1.36523,1.00195,.52344,.86719,.64453,1.38281,.18164,1.25391,.18164,2.21484v7.73438Z" fill="#44c38b"/>
        <path d="M98.43524,121.62172l3.76172,.45703c.0625,.4375,.20703,.73828,.43359,.90234,.3125,.23438,.80469,.35156,1.47656,.35156,.85938,0,1.50391-.12891,1.93359-.38672,.28906-.17188,.50781-.44922,.65625-.83203,.10156-.27344,.15234-.77734,.15234-1.51172v-1.81641c-.98438,1.34375-2.22656,2.01562-3.72656,2.01562-1.67188,0-2.99609-.70703-3.97266-2.12109-.76562-1.11719-1.14844-2.50781-1.14844-4.17188,0-2.08594,.50195-3.67969,1.50586-4.78125s2.25195-1.65234,3.74414-1.65234c1.53906,0,2.80859,.67578,3.80859,2.02734v-1.74609h3.08203v11.16797c0,1.46875-.12109,2.56641-.36328,3.29297s-.58203,1.29688-1.01953,1.71094-1.02148,.73828-1.75195,.97266-1.6543,.35156-2.77148,.35156c-2.10938,0-3.60547-.36133-4.48828-1.08398s-1.32422-1.63867-1.32422-2.74805c0-.10938,.00391-.24219,.01172-.39844Zm2.94141-7.30078c0,1.32031,.25586,2.28711,.76758,2.90039s1.14258,.91992,1.89258,.91992c.80469,0,1.48438-.31445,2.03906-.94336s.83203-1.56055,.83203-2.79492c0-1.28906-.26562-2.24609-.79688-2.87109s-1.20312-.9375-2.01562-.9375c-.78906,0-1.43945,.30664-1.95117,.91992s-.76758,1.54883-.76758,2.80664Z" fill="#44c38b"/>
        <path d="M116.34051,112.15297l-2.98828-.53906c.33594-1.20312,.91406-2.09375,1.73438-2.67188s2.03906-.86719,3.65625-.86719c1.46875,0,2.5625,.17383,3.28125,.52148s1.22461,.78906,1.51758,1.32422,.43945,1.51758,.43945,2.94727l-.03516,3.84375c0,1.09375,.05273,1.90039,.1582,2.41992s.30273,1.07617,.5918,1.66992h-3.25781c-.08594-.21875-.19141-.54297-.31641-.97266-.05469-.19531-.09375-.32422-.11719-.38672-.5625,.54688-1.16406,.95703-1.80469,1.23047s-1.32422,.41016-2.05078,.41016c-1.28125,0-2.29102-.34766-3.0293-1.04297s-1.10742-1.57422-1.10742-2.63672c0-.70312,.16797-1.33008,.50391-1.88086s.80664-.97266,1.41211-1.26562,1.47852-.54883,2.61914-.76758c1.53906-.28906,2.60547-.55859,3.19922-.80859v-.32812c0-.63281-.15625-1.08398-.46875-1.35352s-.90234-.4043-1.76953-.4043c-.58594,0-1.04297,.11523-1.37109,.3457s-.59375,.63477-.79688,1.21289Zm4.17188-5.32031h-2.07422l-3.23438-3.50391h3.69141l1.61719,3.50391Zm.23438,7.99219c-.42188,.14062-1.08984,.30859-2.00391,.50391s-1.51172,.38672-1.79297,.57422c-.42969,.30469-.64453,.69141-.64453,1.16016,0,.46094,.17188,.85938,.51562,1.19531s.78125,.50391,1.3125,.50391c.59375,0,1.16016-.19531,1.69922-.58594,.39844-.29688,.66016-.66016,.78516-1.08984,.08594-.28125,.12891-.81641,.12891-1.60547v-.65625Z" fill="#44c38b"/>
        <path d="M126.14813,108.3561h3.50391l2.97656,8.83594,2.90625-8.83594h3.41016l-4.39453,11.97656-.78516,2.16797c-.28906,.72656-.56445,1.28125-.82617,1.66406s-.5625,.69336-.90234,.93164-.75781,.42383-1.25391,.55664-1.05664,.19922-1.68164,.19922c-.63281,0-1.25391-.06641-1.86328-.19922l-.29297-2.57812c.51562,.10156,.98047,.15234,1.39453,.15234,.76562,0,1.33203-.22461,1.69922-.67383s.64844-1.02148,.84375-1.7168l-4.73438-12.48047Z" fill="#44c38b"/>
        <path d="M160.09735,120.80141h-3.05859v-1.82812c-.50781,.71094-1.10742,1.24023-1.79883,1.58789s-1.38867,.52148-2.0918,.52148c-1.42969,0-2.6543-.57617-3.67383-1.72852s-1.5293-2.75977-1.5293-4.82227c0-2.10938,.49609-3.71289,1.48828-4.81055s2.24609-1.64648,3.76172-1.64648c1.39062,0,2.59375,.57812,3.60938,1.73438v-6.1875h3.29297v17.17969Zm-8.78906-6.49219c0,1.32812,.18359,2.28906,.55078,2.88281,.53125,.85938,1.27344,1.28906,2.22656,1.28906,.75781,0,1.40234-.32227,1.93359-.9668s.79688-1.60742,.79688-2.88867c0-1.42969-.25781-2.45898-.77344-3.08789s-1.17578-.94336-1.98047-.94336c-.78125,0-1.43555,.31055-1.96289,.93164s-.79102,1.54883-.79102,2.7832Z" fill="#44c38b"/>
        <path d="M166.28387,112.15297l-2.98828-.53906c.33594-1.20312,.91406-2.09375,1.73438-2.67188s2.03906-.86719,3.65625-.86719c1.46875,0,2.5625,.17383,3.28125,.52148s1.22461,.78906,1.51758,1.32422,.43945,1.51758,.43945,2.94727l-.03516,3.84375c0,1.09375,.05273,1.90039,.1582,2.41992s.30273,1.07617,.5918,1.66992h-3.25781c-.08594-.21875-.19141-.54297-.31641-.97266-.05469-.19531-.09375-.32422-.11719-.38672-.5625,.54688-1.16406,.95703-1.80469,1.23047s-1.32422,.41016-2.05078,.41016c-1.28125,0-2.29102-.34766-3.0293-1.04297s-1.10742-1.57422-1.10742-2.63672c0-.70312,.16797-1.33008,.50391-1.88086s.80664-.97266,1.41211-1.26562,1.47852-.54883,2.61914-.76758c1.53906-.28906,2.60547-.55859,3.19922-.80859v-.32812c0-.63281-.15625-1.08398-.46875-1.35352s-.90234-.4043-1.76953-.4043c-.58594,0-1.04297,.11523-1.37109,.3457s-.59375,.63477-.79688,1.21289Zm4.40625,2.67188c-.42188,.14062-1.08984,.30859-2.00391,.50391s-1.51172,.38672-1.79297,.57422c-.42969,.30469-.64453,.69141-.64453,1.16016,0,.46094,.17188,.85938,.51562,1.19531s.78125,.50391,1.3125,.50391c.59375,0,1.16016-.19531,1.69922-.58594,.39844-.29688,.66016-.66016,.78516-1.08984,.08594-.28125,.12891-.81641,.12891-1.60547v-.65625Zm-4.04297,10.67578v-3.29297h3.29297v3.29297h-3.29297Z" fill="#44c38b"/>
        <path d="M176.88836,114.40297c0-1.09375,.26953-2.15234,.80859-3.17578s1.30273-1.80469,2.29102-2.34375,2.0918-.80859,3.31055-.80859c1.88281,0,3.42578,.61133,4.62891,1.83398s1.80469,2.76758,1.80469,4.63477c0,1.88281-.60742,3.44336-1.82227,4.68164s-2.74414,1.85742-4.58789,1.85742c-1.14062,0-2.22852-.25781-3.26367-.77344s-1.82227-1.27148-2.36133-2.26758-.80859-2.20898-.80859-3.63867Zm3.375,.17578c0,1.23438,.29297,2.17969,.87891,2.83594s1.30859,.98438,2.16797,.98438,1.58008-.32812,2.16211-.98438,.87305-1.60938,.87305-2.85938c0-1.21875-.29102-2.15625-.87305-2.8125s-1.30273-.98438-2.16211-.98438-1.58203,.32812-2.16797,.98438-.87891,1.60156-.87891,2.83594Z" fill="#44c38b"/>
        <path d="M210.79071,112.03579l-3.24609,.58594c-.10938-.64844-.35742-1.13672-.74414-1.46484s-.88867-.49219-1.50586-.49219c-.82031,0-1.47461,.2832-1.96289,.84961s-.73242,1.51367-.73242,2.8418c0,1.47656,.24805,2.51953,.74414,3.12891s1.16211,.91406,1.99805,.91406c.625,0,1.13672-.17773,1.53516-.5332s.67969-.9668,.84375-1.83398l3.23438,.55078c-.33594,1.48438-.98047,2.60547-1.93359,3.36328s-2.23047,1.13672-3.83203,1.13672c-1.82031,0-3.27148-.57422-4.35352-1.72266s-1.62305-2.73828-1.62305-4.76953c0-2.05469,.54297-3.6543,1.62891-4.79883s2.55469-1.7168,4.40625-1.7168c1.51562,0,2.7207,.32617,3.61523,.97852s1.53711,1.64648,1.92773,2.98242Z" fill="#44c38b"/>
        <path d="M217.04852,103.62172v6.31641c1.0625-1.24219,2.33203-1.86328,3.80859-1.86328,.75781,0,1.44141,.14062,2.05078,.42188s1.06836,.64062,1.37695,1.07812,.51953,.92188,.63281,1.45312,.16992,1.35547,.16992,2.47266v7.30078h-3.29297v-6.57422c0-1.30469-.0625-2.13281-.1875-2.48438s-.3457-.63086-.66211-.83789-.71289-.31055-1.18945-.31055c-.54688,0-1.03516,.13281-1.46484,.39844s-.74414,.66602-.94336,1.20117-.29883,1.32617-.29883,2.37305v6.23438h-3.29297v-17.17969h3.29297Z" fill="#44c38b"/>
        <path d="M240.95379,108.3561h3.29297v2.35547c0,.96875-.08398,1.72656-.25195,2.27344s-.47852,1.03516-.93164,1.46484c-.52344,.50781-1.23828,.90625-2.14453,1.19531-.19531,1.39844-.77734,2.58984-1.74609,3.57422-1.21875,1.24219-2.75,1.86328-4.59375,1.86328-1.17969,0-2.26562-.25781-3.25781-.77344-1.05469-.54688-1.84766-1.31055-2.37891-2.29102s-.79688-2.18555-.79688-3.61523c0-1.125,.26953-2.18359,.80859-3.17578,.5625-1.03906,1.33203-1.82422,2.30859-2.35547s2.07422-.79688,3.29297-.79688c1.88281,0,3.42578,.60938,4.62891,1.82812,1.08594,1.10938,1.68359,2.48047,1.79297,4.11328,1.01562-.41406,1.53906-1.20312,1.57031-2.36719h-1.59375v-3.29297Zm-9.43359,6.22266c0,1.19531,.29297,2.14062,.87891,2.83594,.55469,.65625,1.27734,.98438,2.16797,.98438s1.60938-.32812,2.15625-.98438c.58594-.69531,.87891-1.64844,.87891-2.85938,0-1.1875-.29297-2.125-.87891-2.8125-.54688-.65625-1.26562-.98438-2.15625-.98438s-1.61328,.32812-2.16797,.98438c-.58594,.69531-.87891,1.64062-.87891,2.83594Z" fill="#44c38b"/>
        <path d="M246.44891,106.6686v-3.04688h3.29297v3.04688h-3.29297Zm0,14.13281v-12.44531h3.29297v12.44531h-3.29297Z" fill="#44c38b"/>
        <path d="M272.79266,108.3561h3.29297v2.35547c0,.96875-.08398,1.72656-.25195,2.27344s-.47852,1.03516-.93164,1.46484c-.52344,.50781-1.23828,.90625-2.14453,1.19531-.19531,1.39844-.77734,2.58984-1.74609,3.57422-1.21875,1.24219-2.75,1.86328-4.59375,1.86328-1.17969,0-2.26562-.25781-3.25781-.77344-1.05469-.54688-1.84766-1.31055-2.37891-2.29102s-.79688-2.18555-.79688-3.61523c0-1.125,.26953-2.18359,.80859-3.17578,.5625-1.03906,1.33203-1.82422,2.30859-2.35547s2.07422-.79688,3.29297-.79688c1.88281,0,3.42578,.60938,4.62891,1.82812,1.08594,1.10938,1.68359,2.48047,1.79297,4.11328,1.01562-.41406,1.53906-1.20312,1.57031-2.36719h-1.59375v-3.29297Zm-9.43359,6.22266c0,1.19531,.29297,2.14062,.87891,2.83594,.55469,.65625,1.27734,.98438,2.16797,.98438s1.60938-.32812,2.15625-.98438c.58594-.69531,.87891-1.64844,.87891-2.85938,0-1.1875-.29297-2.125-.87891-2.8125-.54688-.65625-1.26562-.98438-2.15625-.98438s-1.61328,.32812-2.16797,.98438c-.58594,.69531-.87891,1.64062-.87891,2.83594Zm3.23438-9.16406c.41406-.10156,.625-.28125,.63281-.53906,.00781-.17969-.10156-.33203-.32812-.45703-.32812-.17969-.84766-.26953-1.55859-.26953-.24219,0-.60938,.01562-1.10156,.04688l-.12891-1.19531c.30469-.0625,.86719-.08984,1.6875-.08203,.96094,.00781,1.74609,.16406,2.35547,.46875,.67188,.32812,1.01562,.78516,1.03125,1.37109,.03125,.8125-.67969,1.30859-2.13281,1.48828v.58594h-1.3125v-1.28906c.44531-.04688,.73047-.08984,.85547-.12891Z" fill="#44c38b"/>
        <path d="M289.32586,120.80141v-14.27344h-5.09766v-2.90625h13.65234v2.90625h-5.08594v14.27344h-3.46875Z" fill="#44c38b"/>
        <path d="M298.0329,114.40297c0-1.09375,.26953-2.15234,.80859-3.17578s1.30273-1.80469,2.29102-2.34375,2.0918-.80859,3.31055-.80859c1.88281,0,3.42578,.61133,4.62891,1.83398s1.80469,2.76758,1.80469,4.63477c0,1.88281-.60742,3.44336-1.82227,4.68164s-2.74414,1.85742-4.58789,1.85742c-1.14062,0-2.22852-.25781-3.26367-.77344s-1.82227-1.27148-2.36133-2.26758-.80859-2.20898-.80859-3.63867Zm3.375,.17578c0,1.23438,.29297,2.17969,.87891,2.83594s1.30859,.98438,2.16797,.98438,1.58008-.32812,2.16211-.98438,.87305-1.60938,.87305-2.85938c0-1.21875-.29102-2.15625-.87305-2.8125s-1.30273-.98438-2.16211-.98438-1.58203,.32812-2.16797,.98438-.87891,1.60156-.87891,2.83594Z" fill="#44c38b"/>
        <path d="M313.81805,120.80141v-17.17969h3.29297v9.11719l3.85547-4.38281h4.05469l-4.25391,4.54688,4.55859,7.89844h-3.55078l-3.12891-5.58984-1.53516,1.60547v3.98438h-3.29297Z" fill="#44c38b"/>
        <path d="M326.20379,108.3561h3.50391l2.97656,8.83594,2.90625-8.83594h3.41016l-4.39453,11.97656-.78516,2.16797c-.28906,.72656-.56445,1.28125-.82617,1.66406s-.5625,.69336-.90234,.93164-.75781,.42383-1.25391,.55664-1.05664,.19922-1.68164,.19922c-.63281,0-1.25391-.06641-1.86328-.19922l-.29297-2.57812c.51562,.10156,.98047,.15234,1.39453,.15234,.76562,0,1.33203-.22461,1.69922-.67383s.64844-1.02148,.84375-1.7168l-4.73438-12.48047Z" fill="#44c38b"/>
        <path d="M340.82782,114.40297c0-1.09375,.26953-2.15234,.80859-3.17578s1.30273-1.80469,2.29102-2.34375,2.0918-.80859,3.31055-.80859c1.88281,0,3.42578,.61133,4.62891,1.83398s1.80469,2.76758,1.80469,4.63477c0,1.88281-.60742,3.44336-1.82227,4.68164s-2.74414,1.85742-4.58789,1.85742c-1.14062,0-2.22852-.25781-3.26367-.77344s-1.82227-1.27148-2.36133-2.26758-.80859-2.20898-.80859-3.63867Zm3.375,.17578c0,1.23438,.29297,2.17969,.87891,2.83594s1.30859,.98438,2.16797,.98438,1.58008-.32812,2.16211-.98438,.87305-1.60938,.87305-2.85938c0-1.21875-.29102-2.15625-.87305-2.8125s-1.30273-.98438-2.16211-.98438-1.58203,.32812-2.16797,.98438-.87891,1.60156-.87891,2.83594Z" fill="#44c38b"/>
      </g>
      <rect width="427.11677" height="75.82553" fill="#fff" opacity=".98"/>
      <g>
        <g>
          <path d="M84.22849,53.37384l.52514-1.51893,.52405-1.519,.52898-1.51632,.52913-1.51707,.53713-1.51704,.52143-1.52218,.53111-1.51731,.5292-1.51915,.52028-1.52419,.53159-1.51837,.53037-1.52078,.52753-1.52082,.53871-1.51854,.51513-1.52192,.53679-1.51443,.53227-1.52163,.5225-1.52221,.52936-1.52212,.53539-1.52194,.52755-1.52223,.52393-1.52749,.52935-1.52836,.53976-1.52201,1.85454-.01046,1.85978,.00695,1.86314-.00528,.52427,1.52562,.52382,1.51908,.5345,1.5144,.52714,1.51776,.52475,1.52134,.52859,1.51969,.53095,1.51737,.52354,1.52112,.52967,1.52093,.53664,1.51661,.52359,1.52314,.5265,1.52117,.53407,1.52015,.52583,1.5182,.52948,1.51698,.5315,1.5219,.52996,1.51962,.53234,1.52108,.52646,1.52505,.52447,1.52331,.53505,1.52362,.53482,1.52646,.52769,1.53135-1.55725,.00363-1.55851-.00705-1.56102,.00248-1.55772-.0053-.48532-1.44196-.47326-1.4472-.46657-1.45315-.47746-1.45216-.4829-1.45081-1.57696,.00688-1.57394-.00184-1.57606-.00991-1.57783,.00402-1.57559,.00159-1.57927,.00046-1.58182,.00264-1.58334-.00542-.46991,1.45224-.48544,1.44319-.46863,1.45247-.48611,1.44932-.47419,1.4498-1.56432,.00786-1.57116-.00977-1.5737,.00617-1.57149-.00131Zm10.28644-12.31568l1.55423-.00289,1.55374-.00406,1.55153,.00148,1.55516,.00137,1.55767,.00894,1.55661-.00701-.51345-1.56564-.5173-1.57117-.52601-1.56542-.51475-1.57147-.51717-1.57263-.519-1.56955-.50947-1.57676-.53251-1.57198-.5131-1.58088-.52141,1.56659-.51177,1.57299-.5171,1.56836-.52325,1.56867-.51672,1.57278-.51109,1.57216-.51689,1.57432-.5299,1.57284-.51803,1.57896Z" fill="#44c38b"/>
          <path d="M133.19552,34.36375l-.9685-1.06524-1.25831-.69032-1.42273-.21533-1.62583,.27069-1.40385,.85478-.97786,1.3264-.50875,1.57114-.14863,1.64984-.0031,1.69483,.00576,1.70044,.00109,1.69763-.00772,1.69991,.00094,1.70183-.00021,1.6994,.00062,1.70338,.00493,1.70612-.00439,1.7028-1.80302,.00436-1.80908,.00181-1.80569-.00647-.00015-1.68524-.00429-1.68699-.00052-1.68896,.00437-1.68802-.00359-1.68962,.0041-1.68485-.00787-1.68489,.00357-1.69046,.00328-1.68767-.0044-1.68994,.00206-1.69184-.0035-1.68943,.00178-1.69339-.00212-1.69612,.00134-1.69877,1.77494,.00043,1.77525,.00107,1.77232,.00343,.00167,2.2792,1.08246-1.2344,1.38632-.87722,1.56836-.48742,1.64189-.13391,1.67002,.12233,1.61697,.42712,1.48277,.77032,1.2624,1.09553,1.01503,1.33192-1.43814,1.00852-1.43529,1.01699-1.43673,1.01431Z" fill="#44c38b"/>
          <path d="M160.27069,49.51972l-1.02219,1.44512-1.31119,1.17752-1.54394,.84477-1.68694,.51819-1.7459,.25907-1.76826,.07177-1.6418-.0898-1.61937-.27212-1.5651-.49699-1.46933-.73028-1.32265-.97159-1.12574-1.19349-.8955-1.3736-.67434-1.49432-.44861-1.57767-.2641-1.62026-.07499-1.64134,.00115-1.72362-.004-1.72362,.06673-1.59083,.19377-1.57885,.36008-1.54824,.55355-1.48949,.77839-1.38584,1.02981-1.20799,1.23534-.99545,1.40658-.73432,1.51392-.47917,1.56605-.26669,1.58906-.0774,1.61415,.07832,1.58945,.27592,1.53262,.50098,1.41783,.76547,1.23543,1.03227,1.00249,1.26067,.75333,1.42431,.52574,1.52278,.33383,1.57853,.18365,1.60381,.04751,1.61544,.00483,1.39409,.00259,1.39793-1.68119-.00107-1.68355-.00738-1.68077,.00745-1.68303,.002-1.68492-.00811-1.68252,.00324-1.68646,.00057-1.68918,.0031-1.68933-.00613-.00372,.1039,.10603,1.6938,.35638,1.65509,.71657,1.53105,1.15158,1.23089,1.52113,.723,1.67789,.21234,1.52096-.09143,1.47227-.3866,1.27387-.82297,.95401-1.18144,1.35311,.94068,1.34764,.95389,1.35931,.94017Zm-14.75441-11.66155l1.60926,.00225,1.61285,.00455,1.61055-.00236,1.61432-.00255,1.61692-.00225,1.61531,.00084-.20314-1.65532-.52154-1.58159-.98748-1.329-1.45399-.78491-1.6482-.21644-1.64121,.23276-1.44395,.80239-.9943,1.32369-.55348,1.56469-.23194,1.64324Z" fill="#44c38b"/>
          <path d="M175.27186,38.41701l1.82302-.00077,1.82596,.00217,1.82316-.00024-.00081-2.12671-.12324-1.51749-.61413-1.37679-1.26286-.81482-1.49037-.28699-1.52447-.06223-1.53717,.05473-1.50943,.27732-1.31593,.76222-.95942,1.18596-1.30139-.90685-1.30146-.91354-1.29743-.9164,.918-1.27291,1.15599-1.06402,1.34792-.80419,1.47273-.53795,1.54112-.31804,1.56461-.16291,1.57669-.04156,1.7142,.05108,1.70818,.18957,1.66877,.39832,1.56631,.68947,1.34296,1.0541,.99147,1.38923,.60556,1.59913,.30828,1.6832,.08145,1.71299,.00446,1.70143-.00659,1.69729,.00034,1.7029,.00623,1.70009-.00864,1.70237,.00613,1.70429,.00174,1.70186-.0021,1.70585-.00226,1.7086,.00379,1.71225-1.77592,.00151-1.77525-.01007-1.77122,.00184-.00905-2.32795-1.06529,1.33592-1.43792,.9194-1.65676,.42422-1.71553,.10794-1.69894-.09209-1.66932-.32081-1.5956-.58475-1.44553-.88894-1.17876-1.21945-.83342-1.47642-.46628-1.63197-.13941-1.69405,.1565-1.70668,.50655-1.63294,.91811-1.43925,1.28342-1.12527,1.51868-.78085,1.64108-.48629,1.6945-.25407,1.71397-.08098Zm5.47287,4.16338l-1.68591,.00144-1.6907-.00217-1.6907,.00153-1.60417,.1179-1.52419,.49781-1.08132,1.15678-.3052,1.56966,.31081,1.49936,1.02706,1.12522,1.43785,.53298,1.53636,.14072,1.75945-.13515,1.65614-.58285,1.18635-1.278,.53876-1.66906,.1367-1.76247-.00728-1.21371Z" fill="#44c38b"/>
          <path d="M227.53744,42.27329l-.06543,1.63283-.2264,1.61676-.39969,1.58431-.61045,1.51271-.8379,1.39888-1.07291,1.22719-1.28944,.99657-1.44843,.74524-1.55644,.48781-1.60849,.27149-1.6322,.08568-1.63164-.0918-1.60854-.27334-1.5532-.50189-1.44815-.75093-1.28718-1.00049-1.08766-1.21456-.84854-1.39227-.62502-1.50587-.41309-1.57878-.22462-1.61718-.07158-1.63235,.005-1.59683-.00742-1.59683,.0732-1.63382,.21327-1.61999,.40372-1.58308,.61555-1.51201,.85468-1.39053,1.08683-1.21549,1.2986-.98566,1.45548-.73414,1.55866-.4814,1.60936-.27134,1.63228-.08008,1.63017,.0771,1.60678,.2741,1.55593,.48467,1.4513,.73921,1.29231,.98862,1.08721,1.21156,.83917,1.39501,.60727,1.50978,.39681,1.58055,.21761,1.61582,.066,1.63111-.00864,1.59683,.00586,1.59683Zm-5.37478-.15204l-.00275-1.47011,.0061-1.47011-.095-1.65774-.33433-1.62499-.68712-1.50504-1.12871-1.20121-1.48957-.7025-1.64161-.19985-1.65115,.19701-1.49998,.70125-1.13466,1.20276-.70232,1.50304-.33864,1.62449-.09587,1.66279-.0012,1.47011-.00327,1.47011,.09794,1.68952,.32443,1.65618,.68054,1.54078,1.13406,1.2364,1.51539,.71899,1.67473,.20336,1.65472-.21763,1.48202-.75792,1.1112-1.2387,.67573-1.52547,.34643-1.63429,.10288-1.67124Z" fill="#44c38b"/>
          <path d="M234.73627,28.02952l-.00539-1.57278,.0723-1.69234,.26134-1.67097,.56462-1.59219,.99551-1.35678,1.4031-.92952,1.60359-.52632,1.67504-.22329,1.69172-.07573,1.57146,.0068-.00602,1.62036,.00312,1.62309,.00086,1.62154-1.1638,.00314-1.56375,.19866-1.23189,.92275-.42679,1.50509-.07577,1.5795,.00279,.55842,1.48572-.00452,1.48783-.00054,1.48773,.00439-.00489,1.5529,.00404,1.55549-.00344,1.5513-1.48105,.00353-1.48783,.00638-1.49104-.00873,.00019,1.59295-.00186,1.58906,.00153,1.59056-.00185,1.58607,.00434,1.58611,.00218,1.59136-.00374,1.58873-.0022,1.59086-.00076,1.59266,.00052,1.59039,.00227,1.59411-.00399,1.59668,.011,1.60164-1.7937,.0005-1.79217-.00753-1.79337,.00343,.00599-1.59131-.00195-1.58906-.00939-1.59056,.0063-1.58607,.00495-1.58611-.00232-1.59136,.00461-1.58873-.00693-1.59086,.00373-1.59266,.00099-1.59039-.0006-1.59411,.00147-1.59668-.00798-1.59432-1.61989-.0018-1.62064-.00221,.0044-1.55135-.00874-1.55549,.00551-1.55264,1.61947,.00336,1.62351-.00489Z" fill="#44c38b"/>
          <path d="M265.50444,46.17239l1.00548,1.0943,1.24175,.80655,1.399,.48516,1.47514,.15507,1.58254-.13936,1.50548-.49514,1.24771-.97176,.85771-1.3323,.51224-1.5035,.2921-1.56184,.14025-1.58134,.0442-1.59235,.00181-1.62503-.00361-1.62412-.0006-1.62566,.01079-1.62107-.00432-1.62111-.00469-1.62647,.00328-1.62379,.00192-1.62597-.00401-1.6278-.00167-1.62548,.00788-1.62929v-1.63191s-.00201-1.62981-.00201-1.62981l1.46404,.00013,1.46982-.00412,1.47219-.00509,1.46956,.00935,.00492,1.62265,.00057,1.62412,.00227,1.62566-.00226,1.62107-.00995,1.62111,.00891,1.62647-.00153,1.62379-.00189,1.62597-.00476,1.6278,.00844,1.62548-.00589,1.62929,.00733,1.63191-.00213,1.63191-.0457,1.63872-.12329,1.63129-.23469,1.62133-.37555,1.59384-.52983,1.54763-.72994,1.46414-.9472,1.33188-1.15802,1.15058-1.3509,.91642-1.49228,.66064-1.57451,.43227-1.61648,.24086-1.6348,.06513-1.69381-.08761-1.67856-.24897-1.62882-.47077-1.55278-.67946-1.42463-.91793-1.26191-1.13094-1.04758-1.32727,1.63461-.93087,1.64233-.92579,1.63634-.9386Z" fill="#44c38b"/>
          <path d="M298.86167,38.41568l1.82302,.00281,1.82596,.00134,1.82678,.00143-.00457-2.12981-.1244-1.51723-.6137-1.37632-1.26429-.80872-1.48828-.29158-1.52426-.05784-1.53713,.04853-1.50801,.28126-1.31651,.75882-.96245,1.19328-1.30064-.91313-1.30213-.91258-1.2992-.91653,.92561-1.27246,1.15157-1.0682,1.34573-.80943,1.47481-.53464,1.54099-.32142,1.56558-.15587,1.57664-.04343,1.71443,.0486,1.70681,.19995,1.66832,.39639,1.56965,.68155,1.34121,1.05709,.98839,1.39084,.60922,1.59738,.30253,1.6839,.0894,1.71244-.00002,1.70143-.00078,1.69729-.00082,1.7029-.0059,1.70009,.00632,1.70237,.00099,1.70429-.0004,1.70186-.00328,1.70585,.00479,1.7086-.00313,1.70962-1.77339-.00616-1.77525,.00804-1.77597-.00237-.00108-2.33214-1.0681,1.33694-1.43813,.91943-1.65648,.42722-1.71601,.09902-1.69822-.09276-1.67168-.30855-1.59778-.5829-1.43727-.90247-1.18286-1.21415-.82777-1.47863-.46646-1.63053-.13894-1.69304,.14226-1.70816,.51414-1.63164,.91238-1.44435,1.28499-1.12681,1.52228-.77645,1.64076-.48978,1.69536-.25258,1.71438-.0779Zm5.4721,4.16578l-1.68513-.00189-1.6907-.00134-1.6907-.00181-1.60415,.12281-1.52355,.49883-1.08095,1.1561-.29903,1.56918,.30563,1.49839,1.02853,1.12056,1.43443,.5382,1.53627,.13653,1.75923-.13183,1.65186-.58886,1.1887-1.27188,.53735-1.66849,.1355-1.76186-.00327-1.21264Z" fill="#44c38b"/>
          <path d="M339.2576,42.37469l-.06613,1.72045-.25069,1.70374-.45454,1.66012-.67649,1.58262-.94249,1.4375-1.18373,1.24531-1.42483,.95881-1.58397,.66545-1.67913,.37162-1.71799,.1073-1.6657-.08865-1.6394-.31145-1.53406-.6384-1.29594-1.0363,.0008,1.60389,.00571,1.6057-.009,1.60751,.00117,1.60522-.00144,1.60898-.00149,1.61157,.00544,1.61168-1.80626,.00646-1.80908-.0121-1.80482,.00089-.0084-1.65641,.01032-1.66184-.00172-1.66452-.00681-1.66421,.00391-1.66275-.00055-1.66389-.00532-1.66579,.00328-1.66394,.00048-1.66588,.00046-1.66495-.00145-1.66653,.0014-1.66182,.00367-1.66186,.00103-1.66736-.00227-1.66461-.00769-1.66684,.01206-1.66873-.00138-1.66635-.00832-1.67025,.00949-1.67294-.01124-1.67809,1.81093,.00231,1.80908,.00733,1.80889-.00433-.00055,2.02784,1.25892-1.17143,1.53254-.7836,1.67276-.40898,1.72116-.11874,1.70487,.10874,1.66454,.38102,1.57769,.65065,1.40914,.96049,1.19811,1.21374,.93867,1.42494,.67469,1.56653,.44103,1.64937,.25213,1.68943,.07846,1.70908,.00318,1.72364-.01315,1.72361Zm-5.36015-.25345l-.0115-1.47011,.00117-1.47011-.08933-1.65766-.34096-1.62282-.67689-1.50919-1.1348-1.19498-1.48595-.70854-1.64206-.20055-1.59601,.19291-1.46208,.65275-1.12876,1.13486-.70645,1.4407-.36058,1.56272-.12079,1.60558,.00085,1.62222,.00571,1.62222,.0787,1.68598,.31887,1.65346,.66247,1.54534,1.12276,1.24488,1.51502,.71316,1.67029,.19715,1.65523-.21061,1.48763-.75175,1.09988-1.24985,.69153-1.51893,.34369-1.63659,.10235-1.67224Z" fill="#44c38b"/>
          <path d="M354.47233,38.42147l1.82307-.00612,1.82601,.0081,1.82225-.00612,.00193-2.12588-.1295-1.51661-.60901-1.37829-1.26474-.81083-1.48915-.29153-1.5246-.05566-1.53754,.04481-1.50939,.28079-1.31893,.75953-.95707,1.19346-1.30265-.90737-1.30071-.91454-1.30131-.91459,.92354-1.27693,1.15273-1.06831,1.34844-.80561,1.47464-.5349,1.54118-.31982,1.56531-.15743,1.57661-.04052,1.71444,.04541,1.70691,.19942,1.66993,.39168,1.56496,.69195,1.34587,1.05036,.98706,1.39225,.60941,1.59741,.30711,1.6835,.08605,1.71298-.0039,1.70143-.00394,1.69729-.00029,1.7029,.00183,1.70009,.00404,1.70237-.00455,1.70429,.00223,1.70186,.0048,1.70585-.00096,1.7086-.0011,1.71173-1.77541-.00737-1.77525-.00006-1.77231,.00207-.00364-2.32955-1.07051,1.33574-1.43641,.92188-1.65728,.42359-1.71567,.1113-1.69882-.09734-1.66965-.319-1.59592-.58443-1.44225-.8935-1.17862-1.21817-.83573-1.4745-.45987-1.63295-.14636-1.69283,.15154-1.70759,.50757-1.63379,.91756-1.44131,1.28774-1.12161,1.5176-.7837,1.64179-.4854,1.69495-.25181,1.71395-.07666Zm5.47562,4.15529l-1.68854,.00594-1.69073-.0081-1.69073,.00785-1.60447,.11487-1.52164,.50352-1.08441,1.15244-.3008,1.57005,.30619,1.49987,1.03096,1.12011,1.43411,.54202,1.53724,.13739,1.76033-.1313,1.65324-.59111,1.18493-1.27657,.53955-1.66763,.13258-1.76202,.00219-1.21734Z" fill="#44c38b"/>
          <path d="M373.32842,28.02658l1.77393,.00274,1.77525-.0046,1.77439,.00413-.0022,2.28119,1.23816-1.28014,1.55126-.86596,1.71849-.4608,1.78121-.12775,1.71851,.09731,1.6847,.35067,1.59291,.64618,1.41273,.97669,1.13423,1.28984,.81273,1.51009,.51583,1.64151,.27633,1.69738,.08101,1.72298-.00483,1.58145-.00108,1.58149,.00593,1.58672-.00646,1.58411,.00359,1.58623,.0037,1.58802-.00836,1.58576,.00221,1.58947,.00615,1.59203-.00076,1.595-1.79194-.00298-1.79219-.00237-1.79295,.00319,.00073-1.69003-.00052-1.69481-.00441-1.69202,.00237-1.69429,.00127-1.6962,.00459-1.69378-.00757-1.69774,.00652-1.70048-.00539-1.70048-.11322-1.71878-.47011-1.65446-1.00802-1.37622-1.51642-.77943-1.70493-.20433-1.72426,.23779-1.55174,.77876-1.13646,1.31047-.62643,1.62145-.17853,1.73413-.00302,1.69483-.00143,1.70044,.00043,1.69763,.00167,1.69991-.00192,1.70183-.00084,1.6994-.00388,1.70338,.00106,1.70612,.00605,1.70845-1.80836,.00257-1.80908-.00094-1.8103-.00265,.00577-1.69018-.0088-1.68699,.00342-1.68896-.00051-1.68802,.00476-1.68962,.00121-1.68485-.00429-1.68489-.00544-1.69046,.00877-1.68767-.0018-1.68994,.00107-1.69184-.00176-1.68943,.00397-1.69339-.00238-1.69612-.00429-1.69772Z" fill="#44c38b"/>
        </g>
        <path d="M48.05309,51.2342l1.85812-1.50261,.89382-1.35536,.88275-1.36135,.85023-1.38584,.8394-1.38593,.80713-1.409,.8013-1.41527,.75897-1.43941,.72159-1.46013,.69715-1.47376,.63407-1.50323,.57809-1.52303,.49368-1.55228,.36216-1.5864,.13692-1.61464-.0953-1.60016-.31113-1.57248-.51567-1.51761-.70995-1.43717-.90011-1.32522-1.05511-1.20462-1.19948-1.06173-1.33154-.89124-1.43611-.71077-1.51669-.5169-1.57336-.30417-1.59892-.11269-1.60055,.10366-1.57129,.31715-1.51529,.5202-1.43669,.70865-1.3307,.89143-1.20433,1.05597-1.05758,1.20304-.88719,1.3334-.70927,1.43565-.52683,1.51284-.30245,1.57383-.11168,1.59893,.15624,1.61304,.35267,1.58468,.49415,1.5479,.57368,1.52115,.63728,1.4953,.68641,1.47501,.7235,1.46002,.77083,1.43625,.78659,1.42703,.82109,1.40385,.83045,1.40194,.86537,1.37782,.86726,1.37236,.90923,1.34449,1.84978,1.50186-1.64727,.00211-1.6459,.00693-1.6481,.00373-1.64996-.00918-1.64761,.00686-1.65147,.00199-1.65413-.00325-1.6536-.00324,.00233,2.03669-.00579,2.03951,1.66147-.00664,1.65968,.01057,1.66157-.00653,1.65972,.00675,1.66166-.00247,1.66073-.00888,1.6623,.00718,1.65761-.00733,1.65765,.00975,1.66314,.0022,1.66039-.00316,1.66262-.00073,1.6645-.00174,1.66213,.00468,1.66602-.00818,1.6687,.00399,1.66616-.00391,.00704-2.03504-.00651-2.03549-1.64659-.00414-1.64588,.00244-1.64809-.00449-1.64995,.00641-1.6476-.00241-1.65145,.00372-1.65411-.00575-1.65412,.0026Zm-6.88029-21.96824l.20366-1.54137,.58801-1.43907,.95333-1.22787,1.22748-.95359,1.43876-.58935,1.54108-.20847,1.54039,.2147,1.43568,.59189,1.23775,.94027,.94083,1.23719,.60206,1.43312,.19885,1.54256-.20806,1.54105-.59872,1.4325-.93718,1.23901-1.23712,.94003-1.43448,.59456-1.54,.2018-1.54097-.20172-1.4399-.58579-1.2323-.94922-.94135-1.23663-.59492-1.43499-.2029-1.54062Z" fill="#44c38b"/>
      </g>
    </g>
  </g>
</svg>
