<svg id="icon-arrow-side2" xmlns="http://www.w3.org/2000/svg" width="72.32" height="72.321" viewBox="0 0 72.32 72.321">
  <g id="icons">
    <path d="M29.788,55.067a2.99967,2.99967,0,0,0,4.242.001L49.975,39.123a2.99966,2.99966,0,0,0,0-4.243L34.03,18.934a2.99955,2.99955,0,0,0-4.242,4.242L43.612,37,29.788,50.824A2.99966,2.99966,0,0,0,29.788,55.067Z" transform="translate(-0.84 -0.84001)" fill="#ebbf3f"/>
    <path d="M37,73.161A36.1605,36.1605,0,1,0,.84,37.001,36.2012,36.2012,0,0,0,37,73.161ZM37,6.84A30.1605,30.1605,0,1,1,6.84,37.001,30.19473,30.19473,0,0,1,37,6.84Z" transform="translate(-0.84 -0.84001)" fill="#ebbf3f"/>
  </g>
</svg>
