<svg id="icon-arrow-slide" xmlns="http://www.w3.org/2000/svg" width="87" height="18.90166" viewBox="0 0 87 18.90166">
  <path d="M87.39575,16.76193c.02539-.10633.03974-.21534.05518-.3252a3.46041,3.46041,0,0,0,.0379-.3761c.00122-.03766.01117-.07281.01117-.11072,0-.06768-.01617-.13092-.02-.19769a3.48621,3.48621,0,0,0-.03784-.37543c-.01831-.11041-.04431-.21667-.07269-.3233-.02924-.10986-.06086-.21759-.10059-.3241-.04016-.10736-.08636-.21-.13647-.312-.04926-.10089-.1012-.199-.16016-.2951-.05841-.09473-.1217-.18421-.18854-.27265-.06909-.09167-.14044-.18023-.21893-.26532-.07672-.08313-.15814-.15954-.24243-.23492-.08234-.07349-.16547-.14477-.25574-.211a3.47886,3.47886,0,0,0-.32056-.20508c-.05706-.033-.10547-.07537-.165-.10553L62.08105.92745A3.5,3.5,0,0,0,58.919,7.17257l10.42224,5.27734H4a3.5,3.5,0,1,0,0,6.99994H83.98871l.00836.001a3.48713,3.48713,0,0,0,.62756-.064c.05518-.00994.10907-.0213.16327-.03381a3.50586,3.50586,0,0,0,.51783-.16077c.02258-.00915.04656-.0147.0689-.02429a3.5053,3.5053,0,0,0,.52558-.28528c.04352-.02825.08465-.05859.12677-.08868a3.464,3.464,0,0,0,.38171-.31494c.02985-.02844.0614-.05426.09021-.08374a3.4663,3.4663,0,0,0,.38477-.46637c.0249-.03619.04413-.07581.06768-.113.05884-.09332.11988-.18469.17072-.28509.01678-.03314.02362-.0683.03931-.10175a3.46967,3.46967,0,0,0,.13879-.35949C87.335,16.96713,87.37085,16.86575,87.39575,16.76193Z" transform="translate(-0.5 -0.54917)" fill="#fc0"/>
</svg>
