<?xml version="1.0" encoding="UTF-8"?>
<svg id="b" data-name="レイヤー 2" xmlns="http://www.w3.org/2000/svg" width="463.39252" height="132.02016" viewBox="0 0 463.39252 132.02016">
  <g id="c" data-name="text">
    <g>
      <rect y="91.27016" width="463.39252" height="40.75" fill="#fff" opacity=".98"/>
      <g>
        <path d="M38.14032,113.71254c0,.88184,.02051,1.36426,.08398,1.80566,.65039-.5459,.90234-.83984,1.61621-1.67969v-5.64844h-5.77441c-1.00781,0-1.67969,.02148-2.33008,.10547v-2.20508c.62988,.08398,1.46973,.12695,2.33008,.12695h5.77441v-1.23926c-2.33105,.14746-3.86328,.20996-6.19434,.23145-.14648-.79883-.31445-1.23926-.75586-2.03711,.83984,.02148,1.13477,.02148,1.72266,.02148,3.44336,0,8.125-.31543,10.49805-.71484,1.17578-.20898,1.51172-.27246,2.39258-.56641l1.38672,1.97363q-.77734,.10449-1.32324,.18848c-1.74316,.29492-3.69531,.54688-5.41699,.71484v1.42773h6.00488c.92383,0,1.61621-.04297,2.28809-.12695v2.20508c-.65039-.08398-1.30078-.10547-2.28809-.10547h-6.00488v5.64844c1.40625,1.55371,2.54102,2.41406,4.49316,3.38086,1.34375,.67188,2.51953,1.1123,4.40918,1.63672-.60938,.75586-.90234,1.30273-1.1543,2.22656-3.40234-1.25977-5.73242-2.66699-7.79004-4.70312,.02051,.48242,.04199,.96484,.04199,1.30078v1.74316c0,1.00781,.04199,1.49121,.14648,2.2041h-2.60352c.10547-.73438,.14746-1.2168,.14746-2.2041v-1.76367c0-.20996,.02051-.52441,.04199-.9873v-.0625c0-.0625,0-.10547-.02148-.18945-1.02832,1.15527-1.84766,1.82715-3.16992,2.64648-1.25977,.75586-2.58203,1.40625-4.2207,2.03613-.35645-.96582-.65039-1.46973-1.23828-2.1416,2.75-.67188,5.01758-1.78516,6.94922-3.40137h-2.07812c.04199-.31543,.08398-.67188,.08398-1.15527-.83984,.25195-1.49023,.41992-3.14941,.79883-.29395,.08398-.5459,.14648-.88184,.25195l-.37793-2.01562c.88184,0,3.06543-.39941,4.40918-.81934v-.92383h-2.12109c-.75586,0-1.36426,.02051-1.82617,.10449v-1.97266c.48242,.08398,.92383,.10449,1.84766,.10449h2.09961c0-.41992-.04199-.83984-.08398-1.1123h2.12109c-.06348,.41992-.08398,.92383-.08398,1.80469v3.08691Zm7.64258-4.91309c-.06348,.29395-.10547,.73438-.10547,1.40625,1.49023-.29297,2.51953-.65039,3.27539-1.1543l1.34375,1.61719c-.29395,.08398-.56641,.18848-.90234,.29297-1.17578,.39941-2.26758,.65137-3.7168,.90332v1.07129c0,.48242,.23047,.6084,1.19727,.6084,.20898,0,.86035-.02051,.98633-.04199,.33594-.04199,.46191-.18945,.56641-.62988,.02148-.12598,.06348-.4834,.10547-1.0498,.67188,.39844,1.0498,.5459,1.84766,.71387-.35742,2.58301-.65039,2.81348-3.56934,2.81348-2.58301,0-3.10742-.29395-3.10742-1.67969v-3.06543c0-.83984-.02051-1.34375-.10449-1.80566h2.18359Z" fill="#44c38b"/>
        <path d="M64.0329,111.04555c-.41992,.52539-.69336,.9668-1.0918,1.70117-1.15527-1.0498-2.05859-2.1416-2.87695-3.50586-.69336,1.42773-1.42773,2.54004-2.60352,3.86328-.65039-.81934-.90234-1.07129-1.70117-1.67969,1.4707-1.55469,2.45703-3.19141,3.08691-5.10254,.31543-.92383,.52441-1.97363,.6084-2.98145l2.33105,.69336c-.10449,.33594-.14746,.48242-.23145,.83984-.33594,1.32227-.35645,1.38477-.54492,2.01562,.88086,1.53223,1.97266,2.77148,3.21191,3.65234v-6.13086c0-1.02832-.04199-1.55273-.12598-2.18359h2.60352c-.10547,.65137-.12598,1.23926-.12598,2.18359v6.9707c1.23926-1.34375,2.05762-2.75,2.70801-4.70312,.37891-1.13281,.65137-2.30859,.71484-3.2959l2.35156,.65137c-.12695,.33594-.21094,.62891-.35742,1.28027-.10547,.41992-.20996,.83984-.41992,1.46973,.62988,1.28125,2.24609,3.04492,3.7793,4.09375-.52539,.77734-.75586,1.23926-1.13379,2.22656-1.38574-1.13477-2.45605-2.35156-3.50684-3.99023-.73438,1.65918-1.38477,2.73047-2.37207,3.99023-.67188-.81934-.77637-.92383-1.76367-1.70117v2.33008h4.74512c1.0918,0,1.5332-.02051,2.12109-.10449v2.39355c-.69336-.08398-1.34375-.10547-2.28906-.10547h-4.57715v2.60352h5.79492c1.00781,0,1.88965-.04102,2.60352-.125v2.45605c-.75586-.10449-1.51172-.14746-2.58301-.14746h-13.70996c-1.07129,0-1.86816,.04297-2.62402,.14746v-2.45605c.58789,.08398,1.53223,.125,2.66602,.125h5.50098v-2.60352h-4.3252c-.96582,0-1.6377,.02148-2.30957,.10547v-2.39355c.58789,.08398,1.0918,.10449,2.12012,.10449h4.51465v-2.89648l-.18848,.20898Z" fill="#44c38b"/>
        <path d="M86.69207,115.39223c-1.5957,2.51953-2.64551,3.61133-5.05957,5.41699-.4834-.79785-.81934-1.21777-1.49121-1.82617,1.36426-.83984,1.95215-1.30273,2.75098-2.12109,.77637-.79785,1.17578-1.36523,1.84766-2.58203l1.95215,1.1123Zm1.82715-11.69434c0-.56738-.04297-1.05078-.12695-1.5332h2.60352c-.08398,.41992-.125,.88184-.125,1.51172v.62988h6.00391c1.0918,0,1.80664-.04199,2.45703-.14746v2.37305c-.58789-.10547-1.1543-.12598-2.30957-.12598h-14.25684c-1.13281,0-1.6582,.02051-2.26758,.12598v-2.37305c.60938,.10547,1.38672,.14746,2.51953,.14746h5.50195v-.6084Zm-3.7793,10.22461c-.92383,0-1.32324,.02148-1.89062,.0625,.06348-.52441,.08398-.92383,.08398-1.6582v-3.00195c0-.71484-.02051-1.0918-.02051-1.13477,0-.02051-.02051-.125-.04199-.29297,0-.06348,0-.14746-.02148-.27344q.16797,.02148,.50391,.04199c.18945,.02051,.86133,.04199,1.38672,.04199h10.09863q1.44824-.02148,1.91113-.08398c-.06348,.50391-.08398,.94531-.08398,1.70117v3.00195c0,.73438,.02051,1.0918,.0625,1.6582-.48242-.04102-1.0918-.0625-1.91016-.0625h-3.6748v5.24902c0,1.61621-.69238,2.0791-3.1709,2.0791-.33594,0-.54492,0-1.7002-.02148-.10449-.92383-.25195-1.46973-.6084-2.24609,.88086,.125,1.55273,.18848,2.28809,.18848,.71387,0,.86035-.08398,.86035-.44043v-4.80859h-4.07227Zm.41992-2.07812h9.2793v-2.16309h-9.2793v2.16309Zm9.49023,2.45605c.79688,1.21777,1.23828,1.74316,2.07812,2.49902,.86133,.79688,1.51172,1.23828,2.89746,1.99414-.65137,.67188-1.02832,1.19727-1.49121,2.01562-1.44824-.98633-2.05664-1.51172-3.12793-2.60352-.86035-.92383-1.30176-1.46973-2.18359-2.72949l1.82715-1.17578Z" fill="#44c38b"/>
        <path d="M108.46942,105.56606c-1.23926,0-2.05762,.04199-2.81348,.12598v-2.49805c.67188,.10449,1.46973,.14648,2.75,.14648h11.65332c1.25977,0,2.05762-.04199,2.79199-.14648v2.49805c-.81836-.08398-1.57422-.12598-2.79199-.12598h-4.72363v4.68262h3.75781c1.00781,0,1.76367-.04297,2.54102-.12695v2.43555c-.77734-.08398-1.51172-.10449-2.54102-.10449h-3.75781v5.62695h5.52148c1.34375,0,2.07812-.04199,2.77148-.12598v2.51953c-.77734-.10547-1.61719-.14648-2.72949-.14648h-13.24902c-1.07031,0-1.93164,.04102-2.79199,.14648v-2.51953c.73535,.10547,1.38574,.12598,2.79199,.12598h5.20703v-5.62695h-3.42188c-1.00781,0-1.78516,.02051-2.60352,.10449v-2.43555c.67188,.08398,1.36523,.12695,2.56152,.12695h3.46387v-4.68262h-4.3877Z" fill="#44c38b"/>
        <path d="M132.1579,108.06508c-1.34375,0-1.95312,.02051-2.60352,.125v-2.45605c.73438,.10449,1.46875,.14746,2.58203,.14746h1.86914v-1.40723c0-1.25977-.02148-1.72168-.12695-2.22559h2.64648c-.10547,.60938-.12695,1.13379-.12695,2.35156v1.28125h4.72461v-1.19727c0-1.19727-.02148-1.76367-.12598-2.41406h2.58301c-.10547,.67188-.14746,1.25977-.14746,2.41406v1.19727h1.72168c1.0918,0,1.78516-.04297,2.58203-.14746v2.45605c-.77637-.08398-1.42773-.125-2.58203-.125h-1.72168v4.57617h2.24707c1.17578,0,1.82617-.04102,2.58203-.125v2.45605c-.81836-.10449-1.46973-.14746-2.58203-.14746h-2.24707v3.99023c0,1.19629,.04199,1.93164,.14746,2.66602h-2.58301c.08398-.71387,.12598-1.42773,.12598-2.66602v-3.99023h-5.08105c-.25195,1.51172-.81934,2.85547-1.74316,4.09473-.75586,1.02832-1.51172,1.72168-2.91797,2.66699-.65039-.90332-1.0293-1.30273-1.80566-1.95312,2.45605-1.57422,3.44336-2.75,3.98926-4.80859h-2.03711c-1.23828,0-1.84766,.04297-2.54004,.14746v-2.45605c.69238,.08398,1.38574,.125,2.49902,.125h2.39258c.08398-.79688,.12695-1.80469,.12695-2.60352v-1.97266h-1.84766Zm4.24023,2.43555c0,.56641-.02051,1.07031-.10449,2.14062h4.8291v-4.57617h-4.72461v2.43555Z" fill="#44c38b"/>
        <path d="M161.43036,104.09633c0-.79785-.04199-1.23828-.12598-1.78516h2.64551c-.08398,.52539-.12598,1.0293-.12598,1.78516v1.61719h3.96875c.92383,0,1.44824-.02148,1.95215-.10547l1.30176,1.46973q-.14648,.18848-.88184,1.21777c-2.18359,3.04492-5.73145,6.32031-9.28027,8.52441,1.38574,1.1123,3.27539,1.5752,6.48828,1.5752,1.76367,0,4.03125-.16797,5.62695-.41992-.39941,1.02832-.41992,1.0918-.50391,1.34375-.04297,.10449-.12695,.37695-.23145,.81836-.02051,.12598-.08398,.29395-.14746,.5459-1.17578,.06348-2.8125,.12598-4.09375,.12598-2.98145,0-4.47266-.18945-5.85742-.71387-2.16309-.83984-3.29688-1.91113-4.1582-3.92676-.69238,2.14258-1.44824,3.59082-2.64453,5.08203l-1.91113-1.89062c.4834-.48242,.83984-.92383,1.34375-1.6582,.44043-.65039,1.00781-1.6582,1.34375-2.47754,.29395-.67188,.44043-1.1123,.67188-2.09961h2.1416c.23047,.9873,.33594,1.34375,.52539,1.82715,1.61621-.9873,2.8125-1.89062,4.3457-3.25488s2.39355-2.30957,3.44336-3.7373h-10.03613c-1.15527,0-1.80566,.04199-2.56152,.12598v-2.51953c.86133,.10449,1.51172,.14746,2.60352,.14746h4.15723v-1.61719Z" fill="#44c38b"/>
        <path d="M177.62274,118.64711c1.0293-.04297,2.54102-.27344,4.43066-.71484,.67188-1.61621,1.17578-3.19141,1.40723-4.49219l2.22461,.56641q-.18848,.48242-.50391,1.34375c-.27246,.79785-.50391,1.34375-.79688,1.99414,.73438-.23047,1.00781-.31445,1.95215-.62891v2.03613c-1.80566,.67188-4.51465,1.42773-6.9502,1.93164-.71289,.16797-.88086,.20996-1.23828,.31543l-.52539-2.35156Zm.23145-15.85254c.69238,.08398,1.32324,.12598,2.39355,.12598h3.50586c1.05078,0,1.65918-.04199,2.35156-.12598v2.24707c-.69238-.06348-1.23828-.08398-2.22461-.08398h-3.7793c-1.0918,0-1.49121,.02051-2.24707,.10449v-2.26758Zm.71387,5.79492c0-.94434-.02148-1.46973-.08398-2.1416,.60938,.0625,1.21777,.08398,2.20508,.08398h2.91797c1.19727,0,1.5332-.02148,2.16211-.08398-.0625,.62988-.08398,.96582-.08398,2.09961v2.37305c0,1.1543,.02148,1.51172,.08398,2.03613-.71289-.04199-1.32227-.06348-2.01562-.06348h-3.19141c-.79688,0-1.42773,.02148-2.07812,.08398,.0625-.71289,.08398-1.2168,.08398-2.16211v-2.22559Zm1.36523,9.19629c-.37891-1.51172-.71484-2.45703-1.32324-3.7168l1.97363-.75586c.62988,1.30273,.94531,2.12109,1.38574,3.69531l-2.03613,.77734Zm.73438-6.71875h2.93945v-2.72949h-2.93945v2.72949Zm8.02051,6.34082c-.65137,0-.94434,0-1.65918,.04199,.02148-.69336,.06348-1.61719,.06348-2.09961v-6.88672c0-.81836-.02051-1.38574-.06348-1.97363,.50391,.06348,.86133,.06348,1.78516,.06348h.96582c.29395-.63086,.46191-1.05078,.6084-1.55469h-1.38477c-1.05078,0-1.5957,.02148-2.22656,.10547v-2.26758c.58789,.08398,1.30273,.12598,2.49902,.12598h5.03906c1.15527,0,1.91113-.04199,2.45605-.12598v2.26758c-.65039-.08398-1.1543-.10547-2.24609-.10547h-1.86914c-.18848,.50391-.41992,1.07129-.62891,1.55469h1.91016c1.11328,0,1.5957-.02148,2.05762-.06348-.04199,.58789-.06348,1.0918-.06348,1.84766v7.03418c0,.73438,.02148,1.40625,.08398,2.09961-.56641-.04297-1.2168-.06348-1.82617-.06348h-.5459c1.13379,1.0918,2.1416,1.74316,3.84277,2.54004-.79883,.77734-.92383,.90332-1.67969,1.82715-1.78516-1.07129-2.64648-1.76367-4.07422-3.25488l1.5957-1.1123h-4.13574l1.5957,1.19629c-1.67969,1.61719-2.43555,2.16309-4.3877,3.12891q-.81934-.94531-1.65918-1.72168c1.44824-.5459,2.30957-1.02832,3.35938-1.82715,.29395-.23047,.46191-.37695,.83984-.77637h-.25195Zm.4834-7.85254h4.66016v-1.0918h-4.66016v1.0918Zm0,2.89746h4.66016v-1.1123h-4.66016v1.1123Zm0,3.00293h4.66016v-1.19727h-4.66016v1.19727Z" fill="#44c38b"/>
        <path d="M202.13055,111.02504c.37695,.04199,.54492,.06348,.98633,.06348h.65039c.52539-.67188,.69336-.90332,1.15527-1.5752-1.13379-1.42773-1.65918-2.01562-2.83496-3.08691l1.0918-1.80469,.77734,.81836c.86133-1.36523,1.44922-2.64551,1.6377-3.50586l2.03613,.75586c-.125,.18848-.23047,.39844-.46094,.88086-.52539,1.07129-1.19727,2.24707-1.91113,3.31836q.35645,.44043,.77637,.98633c.9668-1.49023,1.70117-2.79297,1.97461-3.54883l1.86816,1.00781c-.25195,.39941-.39941,.63086-.71387,1.13477-1.25977,1.97266-2.05762,3.12793-3.14941,4.53516,1.23926-.08398,1.72168-.12695,2.30957-.18945-.27344-.86133-.31445-.96582-.60938-1.67969l1.55469-.60938c.69238,1.65918,.90234,2.28906,1.32227,3.90625l-1.6377,.73438q-.06348-.27344-.12598-.60938-.88184,.10547-1.55371,.16797v6.63477c0,1.0918,.02051,1.55469,.12598,2.20508h-2.26758c.08398-.71387,.12598-1.28125,.12598-2.22559v-6.44629c-.12598,.02148-.39941,.02148-.83984,.04297q-1.5957,.10449-2.05762,.18848l-.23047-2.09961Zm2.60352,3.08691c-.23145,3.67383-.37891,4.74414-.86133,6.40332l-1.76367-.90332c.50391-1.55273,.65039-2.56055,.81836-5.71094l1.80664,.21094Zm4.47168-.37891c.41992,1.86914,.52441,2.58301,.69238,4.17871l-1.6582,.46191c-.10547-1.78516-.20996-2.6875-.52539-4.24121l1.49121-.39941Zm1.80566,1.11328c-.56641,0-.81836,.02148-1.21777,.08398v-2.09961c.37793,.0625,.58789,.08398,1.28027,.08398h1.42773c.4834,0,.73535-.02148,.9873-.0625l.75586,.98633c-.08398,.20996-.10449,.27344-.18848,.56641-.52539,1.63867-.94531,2.5625-1.72266,3.7168-.71289,1.0293-1.17578,1.57422-2.41406,2.70898-.31445-.60938-.73438-1.07129-1.42773-1.67969,1.67969-1.19727,2.72949-2.51953,3.44336-4.30469h-.92383Zm5.56445-3.35938c.23047,.98633,.48242,1.61719,1.02832,2.60352,.88184-.73438,1.49121-1.38574,2.24707-2.35156l1.49023,1.34375c-1.0498,1.13379-1.82617,1.84766-2.72949,2.58203,1.0498,1.38672,1.91113,2.20508,3.25488,3.08691-.56738,.6084-.88281,1.0918-1.34375,2.0791-1.00781-.81934-1.5332-1.34375-2.20508-2.24707-.90234-1.15527-1.38574-2.01562-2.09961-3.82129,.12598,1.28125,.18945,2.18359,.18945,2.83398l.02051,1.82715c.02051,1.34375-.67188,1.86816-2.51953,1.86816-.02051,0-.08398,0-.12598-.02051h-.5459c-.35645,0-.37793,0-.71387-.04199-.12598-.94531-.25195-1.44922-.56641-2.12109,.73438,.12695,1.2168,.18945,1.7207,.18945,.52539,0,.65137-.10547,.65137-.50391v-7.30664h-1.76367c-.73535,0-1.49121,.02148-2.0791,.08398,.06348-.5459,.08398-1.23828,.08398-2.03711v-3.7998c0-.77637-.02051-1.49121-.08398-2.05762,.54688,.0625,1.0293,.08398,2.03711,.08398h1.19727c.31445-.83984,.44043-1.25977,.56641-1.84766l2.35156,.33594c-.25195,.67188-.39844,1.00781-.62988,1.51172h2.33105c1.04883,0,1.51172-.02148,2.03613-.08398-.06348,.62988-.08398,1.0918-.08398,2.09961v3.7793c0,.94531,.02051,1.46973,.08398,2.01562-.58789-.0625-1.28027-.08398-1.99512-.08398h-1.80469Zm-3.88477-4.68164h5.45898v-1.32324h-5.45898v1.32324Zm0,2.95996h5.45898v-1.32324h-5.45898v1.32324Z" fill="#44c38b"/>
        <path d="M231.08758,115.58071c.02148-.44043,.04199-.65039,.04199-.90234q0-.23047-.06348-1.49023l-.29297-7.13867c-.04297-.92383-.10547-1.97461-.18945-2.5625h3.44336c-.0625,.56738-.14648,1.65918-.18945,2.5625l-.29297,7.13867q-.04297,1.2168-.04297,1.51172c0,.25195,0,.46094,.04297,.88086h-2.45703Zm-.29395,4.59863v-2.87598h3.04395v2.87598h-3.04395Z" fill="#44c38b"/>
        <path d="M243.35321,110.14321c.56641,.08398,.90234,.10547,1.70117,.10547h1.36426c.62988,0,1.1123-.02148,1.61621-.10547-.08398,.62988-.10449,1.17578-.10449,2.28906v4.53516c1.19629,1.7207,2.22559,2.05664,6.27832,2.05664,3.56836,0,6.19336-.125,8.90234-.41992-.39941,.9873-.50391,1.44922-.63086,2.49902-2.05664,.06348-5.375,.12598-8.16699,.12598-4.30371,0-5.96289-.5459-7.41113-2.39355-.4834,.46191-.94531,.88184-1.49121,1.32324-.29395,.25195-.41992,.33594-1.0498,.79688q-.23047,.16797-.39844,.29492l-1.0293-2.39453c.94531-.39844,1.82617-1.02832,2.75-1.97266v-4.57812h-.90234c-.56641,0-.90234,.02148-1.42773,.10547v-2.26758Zm8.29297,.10547c-.125,1.61621-.27246,2.60352-.6084,3.7998-.39941,1.53223-.71387,2.28809-1.5752,3.65332-.35645-.75586-.88086-1.42773-1.46875-1.91016,.96484-1.5332,1.30078-2.49902,1.55273-4.43066,.16797-1.34375,.21094-2.26758,.23145-4.91309-.5459,0-1.0498,.04199-1.42773,.08398l-1.44824,1.38574c-1.11328-1.6377-1.99512-2.66699-3.35938-3.92676l1.67969-1.55273c1.32227,1.23828,2.16211,2.14062,3.06445,3.31641v-1.42773c.56738,.08398,1.00781,.10547,2.0791,.10547h.46191v-.5459c0-.75586-.02148-1.17578-.12598-1.7002h2.41504c-.08398,.50391-.12695,.94434-.12695,1.67969v.56641h.25195c.94531,0,1.38672-.02148,1.91113-.08398v1.44922c.79785-1.44922,1.30176-2.85547,1.36426-3.7793l2.28906,.35645c-.35742,1.00781-.48242,1.34375-.71387,1.95215h2.77148c.75586,0,1.23926-.02051,1.74316-.10449v2.18359c-.4834-.04199-1.0293-.06348-1.74316-.06348h-3.65332c-.20996,.39941-.29395,.54688-.62988,1.13477,.41992,.04102,.94434,.0625,1.46973,.0625h2.28906c.69238,0,.98633-.02148,1.23828-.0625l.92383,1.0918c-.18945,.16797-.29395,.29297-.46191,.50391-.4834,.54492-1.38574,1.42773-2.12012,2.05664v.54688h1.32227c.56641,0,1.00781-.02148,1.44922-.10547v2.1416c-.39941-.06348-.81934-.08398-1.25977-.08398h-1.51172v2.6875c0,.90332-.29492,1.38574-.9668,1.5752-.50391,.14648-.73438,.16797-2.45605,.16797-.04199,0-.20996,0-.46191-.02148-.04199-.73438-.14648-1.28125-.41992-1.99414,.58789,.08398,1.1543,.125,1.80566,.125,.31543,0,.41992-.08398,.41992-.39844v-2.1416h-.81934c-.67188,0-1.2168,.02051-1.7207,.10449v-2.16211c.48242,.0625,.98633,.10547,1.7207,.10547h.81934c0-.54688-.02051-.79883-.08398-1.15527h.56738c.46094-.33594,.83984-.71387,1.2168-1.17578h-1.5957c-.6084,0-1.1123,.04199-1.5957,.10449v-1.5957l-.46094,.75586c-.52539-.50391-1.05078-.83984-1.84766-1.19629,.35645-.44043,.46094-.58789,.71289-.94434-.41992-.02148-.6084-.02148-.98633-.02148h-1.99414q-.02148,1.46973-.02148,1.80566h1.42773c.81836,0,1.25977-.02051,1.78516-.08398-.04297,.39941-.06348,.77637-.06348,1.34375-.04199,3.2959-.23145,5.73145-.52441,7.0127-.27344,1.07031-.83984,1.40625-2.41504,1.40625-.31543,0-.4834,0-.83984-.04102-.04199-.90332-.12598-1.38672-.33594-2.01562,.35645,.0625,.83984,.125,1.0918,.125,.46191,0,.58789-.125,.71387-.67188,.18945-.83984,.35742-2.98047,.39844-5.08008h-1.34375Z" fill="#44c38b"/>
        <path d="M272.62665,117.95375c-1.0918,0-1.65918,.02148-2.20508,.0625,.0625-.54492,.08398-1.1123,.08398-1.99414v-3.19141c0-1.19727-.02148-1.5332-.0625-2.18359,.62891,.04199,1.17578,.0625,2.12012,.0625h9.72168c1.04883,0,1.44824-.02051,2.03613-.08398-.04199,.39941-.04199,.77734-.04199,1.51172v3.6543c0,1.30078,.02148,1.80469,.08398,2.22461-.5459-.04102-1.11328-.0625-2.22559-.0625h-1.91113v.96582c0,.52441,.27344,.62988,1.67969,.62988,1.63867,0,2.33105-.08398,2.60352-.27344,.25195-.20898,.35742-.69238,.4834-2.03613,.73535,.46191,1.07129,.58789,1.99512,.81934-.25195,2.05664-.60938,2.72852-1.5957,3.04395-.56738,.16797-1.5332,.23145-3.82227,.23145-1.6582,0-2.49805-.10547-3.00195-.37891-.39844-.20898-.5459-.56641-.5459-1.28027v-1.72168h-1.95215c-1.00781,2.18359-3.33887,3.35938-7.22266,3.65332-.27344-.9873-.41992-1.30176-.9873-2.0791,3.19141,0,4.80762-.41992,5.94238-1.57422h-1.17578Zm1.63672-9.2168h.9668c.94434,0,1.34375-.02148,1.7207-.06348v1.5957c-.56641-.04199-.96484-.06348-1.7207-.06348h-5.06055c-.67188,0-1.0293,.02148-1.61719,.06348,.04297-.94434,.06348-1.42773,.06348-2.30957v-3.27539c0-1.1543-.02051-1.61719-.08398-2.18359,.56738,.0625,.9873,.08398,2.1416,.08398h4.2832c.96582,0,1.49023-.02148,2.03711-.10547v1.80664c-.41992-.04297-.92383-.06348-1.65918-.06348h-1.13379v.6084h.88184c.83984,0,1.0498,0,1.40723-.04102-.02148,.18848-.02148,.20898-.04297,.50391,.79883-.58789,1.19727-1.0293,1.72266-1.84766,.33594-.58789,.52441-.9873,.65039-1.55469l1.99414,.58789c-.04102,.04297-.125,.23145-.25195,.54688h4.41016c.77637,0,1.30078-.02148,1.86816-.10547v1.82617c-.56738-.08398-1.13379-.10449-1.86816-.10449h-5.27051c-.12598,.20996-.16797,.27246-.29395,.46191,.35742,.02148,.73438,.04199,1.23828,.04199h3.35938c.88281,0,1.30273-.02051,1.76367-.08398v1.55371c-.39844-.0625-.92383-.08398-1.74219-.08398h-3.04492c-.71289,0-1.38477,.02148-1.7002,.0625v-1.30078c-.4834,.62891-.69238,.88086-1.30176,1.44824-.52539-.65137-.92383-1.00781-1.5332-1.34375v1.76367c0,.50391,0,.71387,.04297,1.00781-.41992-.02051-.79883-.04199-1.4707-.04199h-.75586v.60938Zm-1.91016-3.90625v-.6084h-1.70117v.6084h1.70117Zm2.20508,1.95312v-.60938h-3.90625v.60938h3.90625Zm-3.90625,1.34375v.60938h1.67969v-.60938h-1.67969Zm1.97461,4.64062h9.51074v-.63086h-9.51074v.63086Zm0,1.82617h9.51074v-.60938h-9.51074v.60938Zm0,1.84766h9.51074v-.62988h-9.51074v.62988Zm12.19824-9.42773c.69238,0,1.0918-.02051,1.46973-.0625-.0625,.39844-.0625,.67188-.0625,1.19727v1.02832c0,.4834,0,.77637,.0625,1.15527-.46191-.06348-.75586-.06348-1.51172-.06348h-5.71094c-.62988,0-1.0498,.02051-1.51172,.06348,.04199-.35742,.0625-.71484,.0625-1.15527v-1.02832c0-.4834-.02051-.81934-.0625-1.19727,.44141,.04199,.88184,.0625,1.44922,.0625h5.81543Zm-4.74512,1.21875h-.81836v.75586h.81836v-.75586Zm2.18359,0h-.77734v.75586h.77734v-.75586Zm2.20508,.75586v-.75586h-.81934v.75586h.81934Z" fill="#44c38b"/>
        <path d="M293.16571,107.4977c1.57422,.88184,2.05664,1.21777,3.65234,2.47754l-1.32227,1.91016c-1.36523-1.28027-1.97363-1.7207-3.63281-2.6875l1.30273-1.7002Zm3.94727,7.26465c-1.07129,2.79297-1.91113,4.57715-3.12891,6.59277l-1.99414-1.80566c.29297-.27344,.46094-.48242,.77637-.94531,.9873-1.46875,1.5752-2.72852,2.45605-5.22754l1.89062,1.38574Zm-2.75098-12.4082c1.51172,.94434,2.26758,1.51172,3.7373,2.8125l-1.42773,1.82715c-1.49023-1.44824-2.26758-2.0791-3.7373-3.00293l1.42773-1.63672Zm13.47949,9.2168c.65039,0,1.07031-.02148,1.51172-.0625-1.84766-2.22656-3.27539-4.91406-4.51367-8.41992l2.2041-.88184c.35645,1.30176,.81934,2.49902,1.44824,3.71582,.94531,1.82715,1.91113,3.10742,3.21289,4.24219-.69336,.52441-1.1543,1.00781-1.84766,1.93164l-.29395-.33594c-.04199,.46094-.06348,.96484-.06348,1.74219v5.45898c0,1.1543,.02148,1.74219,.10547,2.43555h-2.39355v-1.07031h-6.38281v1.07031h-2.37207c.08398-.77734,.10449-1.42773,.10449-2.35156v-5.58496c0-.79785-.02051-1.25977-.06348-1.74316-.46094-.50391-1.00781-.90234-1.76367-1.30078,1.65918-1.49121,2.51953-2.79297,3.38086-5.06055,.41992-1.0918,.67188-2.05762,.83984-3.08594l2.24609,.79688c-.69238,2.6875-.96484,3.48633-1.7207,5.01855-.67188,1.36426-1.36523,2.39355-2.33105,3.46387,.41992,.02148,.65137,.02148,1.19629,.02148h7.49609Zm-7.0127,6.61328h6.38281v-4.51367h-6.38281v4.51367Z" fill="#44c38b"/>
        <path d="M316.49579,111.02504c.37891,.04199,.54688,.06348,.9873,.06348h.65137c.52441-.67188,.69238-.90332,1.1543-1.5752-1.13379-1.42773-1.6582-2.01562-2.83398-3.08691l1.0918-1.80469,.77637,.81836c.86035-1.36523,1.44824-2.64551,1.6377-3.50586l2.03711,.75586c-.12695,.18848-.23145,.39844-.46289,.88086-.52441,1.07129-1.19629,2.24707-1.91016,3.31836q.35742,.44043,.77734,.98633c.96484-1.49023,1.7002-2.79297,1.97266-3.54883l1.86914,1.00781c-.25195,.39941-.39844,.63086-.71387,1.13477-1.25977,1.97266-2.05762,3.12793-3.14941,4.53516,1.23828-.08398,1.72168-.12695,2.30957-.18945-.27246-.86133-.31543-.96582-.6084-1.67969l1.55273-.60938c.69336,1.65918,.90332,2.28906,1.32324,3.90625l-1.6377,.73438q-.0625-.27344-.12598-.60938-.88184,.10547-1.55371,.16797v6.63477c0,1.0918,.02148,1.55469,.12598,2.20508h-2.26758c.08398-.71387,.12598-1.28125,.12598-2.22559v-6.44629c-.12598,.02148-.39844,.02148-.83984,.04297q-1.5957,.10449-2.05762,.18848l-.23145-2.09961Zm2.60352,3.08691c-.23047,3.67383-.37695,4.74414-.86035,6.40332l-1.76367-.90332c.50391-1.55273,.65137-2.56055,.81934-5.71094l1.80469,.21094Zm4.47266-.37891c.41992,1.86914,.52539,2.58301,.69336,4.17871l-1.65918,.46191c-.10449-1.78516-.20996-2.6875-.52441-4.24121l1.49023-.39941Zm1.80566,1.11328c-.56738,0-.81934,.02148-1.21777,.08398v-2.09961c.37793,.0625,.58789,.08398,1.28125,.08398h1.42773c.48242,0,.73438-.02148,.98633-.0625l.75586,.98633c-.08398,.20996-.10547,.27344-.18945,.56641-.52441,1.63867-.94434,2.5625-1.7207,3.7168-.71484,1.0293-1.17578,1.57422-2.41504,2.70898-.31543-.60938-.73535-1.07129-1.42773-1.67969,1.67969-1.19727,2.72949-2.51953,3.44336-4.30469h-.92383Zm5.56348-3.35938c.23145,.98633,.4834,1.61719,1.0293,2.60352,.88184-.73438,1.49023-1.38574,2.24609-2.35156l1.49121,1.34375c-1.0498,1.13379-1.82715,1.84766-2.72949,2.58203,1.0498,1.38672,1.91016,2.20508,3.25391,3.08691-.56641,.6084-.88086,1.0918-1.34375,2.0791-1.00781-.81934-1.53223-1.34375-2.2041-2.24707-.90332-1.15527-1.38574-2.01562-2.09961-3.82129,.12598,1.28125,.18848,2.18359,.18848,2.83398l.02148,1.82715c.02148,1.34375-.67188,1.86816-2.51953,1.86816-.02148,0-.08398,0-.12598-.02051h-.5459c-.35742,0-.37793,0-.71387-.04199-.12598-.94531-.25195-1.44922-.56738-2.12109,.73535,.12695,1.21875,.18945,1.72266,.18945,.52441,0,.65039-.10547,.65039-.50391v-7.30664h-1.76367c-.73438,0-1.49023,.02148-2.07812,.08398,.0625-.5459,.08398-1.23828,.08398-2.03711v-3.7998c0-.77637-.02148-1.49121-.08398-2.05762,.54492,.0625,1.02832,.08398,2.03613,.08398h1.19629c.31543-.83984,.44141-1.25977,.56738-1.84766l2.35156,.33594c-.25195,.67188-.39941,1.00781-.62988,1.51172h2.33008c1.05078,0,1.51172-.02148,2.03711-.08398-.0625,.62988-.08398,1.0918-.08398,2.09961v3.7793c0,.94531,.02148,1.46973,.08398,2.01562-.58789-.0625-1.28125-.08398-1.99414-.08398h-1.80664Zm-3.88379-4.68164h5.45898v-1.32324h-5.45898v1.32324Zm0,2.95996h5.45898v-1.32324h-5.45898v1.32324Z" fill="#44c38b"/>
        <path d="M355.82586,118.60414h1.97461c1.0918,0,1.78418-.04102,2.24609-.10449v2.22559c-.62988-.0625-1.36523-.10547-2.33008-.10547h-7.07617v.9873h-2.30957c.08398-.6084,.12598-1.25977,.12598-2.2041v-8.35742c0-.37695,0-.48242,.02148-.77637-.27344,.31543-.41992,.4834-.81934,.90332q-.10449-.16797-.18848-.31543l.04102,2.03613q-.86035,.33594-1.76367,.67188v5.81641c0,1.0918-.29297,1.57422-1.0918,1.82617-.50391,.14746-1.2168,.23145-1.99414,.23145-.31445,0-.58789-.02051-1.17578-.04199-.0625-.86133-.16797-1.28125-.48242-2.16211,.90234,.08398,1.44824,.125,1.88867,.125,.52539,0,.65137-.10449,.65137-.58789v-4.45117q-.81934,.25195-1.49121,.46289c-.08398,.02051-.16797,.04102-.29297,.08398-.10547,.04102-.16797,.0625-.18945,.0625q-.20996,.0625-.33594,.12598l-.44141-2.33105c.65137-.0625,1.44922-.25195,2.75098-.6084v-3.98926h-1.0498c-.48242,0-.94531,.02148-1.5332,.08398v-2.24609c.52539,.08398,.9668,.125,1.55469,.125h1.02832v-1.74219c0-1.00781-.02051-1.46973-.12598-2.1416h2.45703c-.10547,.65137-.12695,1.13379-.12695,2.12012v1.76367h.71484c.52441,0,.79688-.02051,1.17578-.08398v1.91113c1.25977-1.6377,2.41406-4.13574,2.6875-5.83691l2.43555,.50391q-.10547,.27344-.31543,.75586c-.41992,1.0498-.65137,1.55371-1.13379,2.47754h2.58203c.63086-1.21777,1.13477-2.47754,1.36523-3.56934l2.35156,.44141c-.79785,1.91016-.90234,2.12012-1.44922,3.12793h1.5332c.83984,0,1.57422-.04199,2.12109-.12598v2.22559c-.56738-.08398-1.34375-.12598-2.12109-.12598h-1.86914v2.18359h1.76367c.81934,0,1.44922-.04199,1.86914-.08398v2.12109c-.48242-.06348-1.13379-.10547-1.86914-.10547h-1.76367v2.28906h1.78516c.90234,0,1.46973-.02148,1.84766-.10547v2.1416c-.41992-.08398-1.00781-.10449-1.84766-.10449h-1.78516v2.47656Zm-10.07812-7.17969c.67188-.25195,.94531-.33594,1.70117-.65137-.39844-.67188-.67188-1.0498-1.0498-1.53223,.52441-.50391,.69238-.67188,1.02832-1.07129-.33594-.04199-.56641-.04199-.96484-.04199h-.71484v3.29688Zm7.91602-1.44922v-2.18359h-3.02344v2.18359h3.02344Zm-3.02344,4.2207h3.02344v-2.28906h-3.02344v2.28906Zm0,4.4082h3.02344v-2.47656h-3.02344v2.47656Z" fill="#44c38b"/>
        <path d="M368.61786,112.64125c-.23145,4.19922-.79785,6.29883-2.33105,8.73438-.58789-.88086-1.00781-1.34375-1.63672-1.86816,1.49023-2.26758,1.88867-4.36719,1.88867-9.91016,0-1.7002-.02051-2.47754-.125-3.2959,.65039,.0625,1.1123,.08398,2.24609,.08398h4.87109c0-.41992-.02148-.52539-.0625-.90332h2.22461c-.0625,.29395-.08398,.50391-.08398,.90332h6.29883c.94531,0,1.51172-.02148,2.12109-.12695v1.82715c-.65039-.08398-1.30176-.10449-2.1416-.10449h-3.75879v.92383h3.46484c.58789,0,1.0498-.02148,1.57422-.06348-.04102,.35645-.0625,.62988-.0625,1.17578v1.40723c0,.48242,.02148,.83984,.0625,1.28027-.58789-.04199-1.07031-.06348-1.46875-.06348h-8.77734c-.0625,.29492-.08398,.39941-.14648,.71484h9.46875c.83984,0,1.32324-.02148,1.86914-.10547v1.67969c-.46191-.0625-1.07031-.08398-1.88965-.08398h-9.82617c-.08398,.29395-.10449,.39844-.20996,.71387h10.2041c.62988,0,1.1123-.02051,1.53223-.06348q-.02051,.18945-.08398,.77734c-.23047,2.09961-.39844,3.16992-.65039,3.80078-.41992,1.07031-.94531,1.34375-2.58203,1.34375-.77734,0-.94531-.02148-2.18359-.14746-.06348-.83984-.16797-1.34375-.39941-1.91113,.27246,.06348,.35645,.08398,.58789,.12695-.27246-.71484-.44043-1.07129-.86035-1.74316l1.53223-.46191c.5459,.71387,.69238,.96582,1.13379,1.88965l-1.07031,.41992c.48242,.04199,.90234,.06348,1.1543,.06348,.48242,0,.65039-.12695,.75586-.52539,.12598-.46191,.20996-1.0293,.29395-1.97363h-10.16211q-1.67969,.02051-2.12012,.02051c.71289-1.7002,1.1123-3.08594,1.36426-4.53516h-2.01562Zm1.5752-9.34277c0-.50391-.02148-.69238-.08398-1.13379h2.33008c-.0625,.39844-.08398,.60938-.08398,1.13379h4.59766c0-.46191-.02051-.75586-.0625-1.13379h2.33008c-.0625,.37793-.08398,.52539-.08398,1.13379h2.85547c.9668,0,1.63867-.04199,2.35156-.12598v1.91016c-.69238-.08398-1.32227-.10449-2.35156-.10449h-2.85547c0,.39941,.02148,.65137,.08398,.9873h-2.30859c.04102-.33594,.04102-.44141,.04102-.9873h-4.59766c.02148,.62988,.02148,.67188,.0625,.96582h-2.30859c.0625-.35742,.08398-.58789,.08398-.96582h-2.47852c-1.04883,0-1.63672,.02051-2.30859,.10449v-1.91016c.67188,.08398,1.34375,.12598,2.30859,.12598h2.47852Zm1.23828,14.67676c-.39844,1.40625-.83984,2.41406-1.57422,3.58984l-2.03711-.92383c.81836-1.11328,1.23828-1.97363,1.57422-3.27539l2.03711,.60938Zm-.12598-6.76172v-.90234h-2.62402q0,.67188-.02148,.90234h2.64551Zm0-2.30859v-.92383h-2.62402v.92383h2.62402Zm2.39355,8.88086c.31445,1.0498,.50391,1.93164,.69336,3.14941l-2.01562,.27246c-.08398-1.23828-.23145-2.05664-.54688-3.16992l1.86914-.25195Zm2.39355-8.88086v-.92383h-2.77148v.92383h2.77148Zm0,2.30859v-.90234h-2.77148v.90234h2.77148Zm.46191,6.4043c.46191,1.0293,.67188,1.5957,.98633,2.83398l-1.84766,.41992c-.29297-1.34375-.44043-1.84766-.88086-2.91797l1.74219-.33594Zm4.40918-6.4043v-.90234h-2.83496v.90234h2.83496Z" fill="#44c38b"/>
        <path d="M396.21063,117.7643c-1.46875,1.51172-3.06445,2.64648-5.12305,3.59082-.41992-.73535-.88086-1.30176-1.46875-1.78418,2.03613-.71484,3.48438-1.5957,4.74414-2.91895l1.84766,1.1123Zm-2.43555-8.58691c-.92383,0-1.49023,.02051-2.16211,.08398,.0625-.5459,.08398-1.07129,.08398-1.82715v-2.95996c0-.77637-.02148-1.28027-.08398-1.80566,.67188,.0625,1.1543,.08398,2.24609,.08398h10.51953c.98633,0,1.5332-.02148,2.22559-.08398-.06348,.52539-.08398,.96582-.08398,1.80566v2.95996c0,.83984,.02051,1.25977,.08398,1.80664-.58789-.04297-1.17578-.06348-1.93164-.06348h-4.59863v.86035h6.3418c.90234,0,1.57422-.04102,2.22461-.125v1.93164c-.67188-.06348-1.38477-.10547-2.22461-.10547h-14.5293c-.81934,0-1.51172,.04199-2.20508,.10547v-1.93164c.67188,.08398,1.36523,.125,2.20508,.125h5.94141v-.86035h-4.05273Zm.58789,7.47461c-.83984,0-1.53223,.02051-2.22461,.08398,.0625-.50391,.08398-.88184,.08398-1.5957v-1.13379c0-.65039-.02148-1.07031-.08398-1.5957,.65039,.0625,1.32227,.08398,2.22461,.08398h9.55371c.90332,0,1.5752-.02148,2.22559-.08398-.0625,.50391-.08398,.90234-.08398,1.5957v1.19727c0,.69238,.02148,1.07031,.08398,1.53223-.75586-.06348-1.34375-.08398-2.22559-.08398h-3.52734v2.91895c0,1.53223-.5459,1.88867-3.00293,1.88867-.27246,0-.90234-.02051-1.6582-.04102-.04199-.75586-.16797-1.30273-.46191-2.03711,.75586,.10547,1.42773,.14648,2.0791,.14648,.62891,0,.77637-.10449,.77637-.58789v-2.28809h-3.75879Zm-.50391-11.37988h10.49805v-.92383h-10.49805v.92383Zm0,2.37305h10.49805v-.94531h-10.49805v.94531Zm.52539,6.40332v1.00781h9.49023v-1.00781h-9.49023Zm9.32227,2.60352c1.57422,1.40723,2.70898,2.05762,4.93359,2.85547-.69238,.67188-1.07031,1.17578-1.44824,1.88965-2.2041-1.0293-3.42285-1.86914-5.12305-3.52734l1.6377-1.21777Z" fill="#44c38b"/>
        <path d="M413.5368,120.51528c.81934-1.15527,1.07129-1.78418,1.40723-3.35938l1.76367,.50391c-.41992,1.88965-.67188,2.62402-1.36426,3.92676l-1.80664-1.07129Zm2.66699-7.0752c-1.00781,0-1.28027,.02051-1.86816,.08398v-2.03711c.54492,.08398,.98633,.10547,1.88867,.10547h1.72266v-1.00781h-1.74316c-.79785,0-1.30176,.02051-1.86816,.08398,.0625-.56738,.08398-1.0918,.08398-1.91113v-4.2832c0-.79785-.02148-1.21777-.08398-1.82715,.65039,.08398,1.07031,.10547,1.82617,.10547h5.33301c.73535,0,1.25977-.02148,1.88965-.10547-.0625,.58789-.08398,1.05078-.08398,1.78516v4.42969c0,.88281,.02148,1.25977,.0625,1.78516-.50391-.04199-.96484-.0625-1.84766-.0625h-1.6582v1.00781h1.57422c.9668,0,1.40723-.02148,1.91113-.08398v1.99414c-.58789-.04199-1.17578-.0625-1.93164-.0625h-1.55371v1.1123q.73438-.06348,3.65332-.39941v1.80664q-4.74512,.65039-8.35645,.98633c-.31445,.02148-.69336,.08398-1.0918,.14648l-.29395-2.28809c.25195,.02051,.4834,.02051,.75586,.02051,1.00781,0,1.21777,0,3.42285-.14648v-1.23828h-1.74316Zm-.02051-8.86133v.88281l1.1123-.41992c.39941,1.02832,.56738,1.6582,.73535,2.70801v-3.1709h-1.84766Zm1.84766,3.33887l-1.15527,.46191c-.16797-1.23828-.25195-1.61719-.69238-2.75v3.14844h1.84766v-.86035Zm-.69336,13.4375c.02148-.62988,.02148-.94434,.02148-1.23926,0-.96484-.04297-1.57422-.21094-2.60352l1.70117-.23047c.25195,1.25977,.33594,2.05762,.37793,3.80078l-1.88965,.27246Zm2.64551-.67188c-.08398-1.38574-.23145-2.28809-.56738-3.40137l1.55469-.29395c.44043,1.36426,.54492,1.88965,.75586,3.25488l-1.74316,.44043Zm-.20996-12.84961c.50391-1.25977,.60938-1.74316,.75586-2.79199l1.0918,.39844v-.86133h-1.84766v3.25488Zm0,.94434h1.84766v-3.10742c-.20996,1.0918-.37793,1.67969-.79785,2.66699l-1.0498-.39941v.83984Zm2.75,11.04492c-.16797-.9668-.25195-1.23926-.83984-2.85547l1.42773-.33594c.41992,.88086,.71484,1.63672,.9668,2.62402l-1.55469,.56738Zm8.25195-8.52539c.69336,0,1.21777-.02051,1.76367-.08398-.0625,.69336-.08398,1.30273-.08398,2.18359v5.29102c0,1.19727,.04199,1.97461,.12598,2.70898h-2.28809v-1.0918h-4.01074v1.07031h-2.24707c.08398-.58789,.10547-1.2168,.10547-2.56055v-5.75391c0-.88086-.02148-1.36426-.0625-1.84766,.52441,.06348,.98633,.08398,1.82617,.08398h.75586v-6.67578c0-1.13477-.02148-1.67969-.12598-2.37305h2.51953c-.10449,.67188-.12598,1.19727-.12598,2.37305v1.13281h2.28906c.90234,0,1.36426-.02051,1.88867-.10449v2.43555c-.58789-.08398-1.02832-.10449-1.88867-.10449h-2.28906v3.31641h1.84766Zm-4.49316,6.78223h4.01074v-4.68262h-4.01074v4.68262Z" fill="#44c38b"/>
      </g>
      <rect width="427.11677" height="75.82553" fill="#fff" opacity=".98"/>
      <g>
        <g>
          <path d="M84.22849,53.37384l.52514-1.51893,.52405-1.519,.52898-1.51632,.52913-1.51707,.53713-1.51704,.52143-1.52218,.53111-1.51731,.5292-1.51915,.52028-1.52419,.53159-1.51837,.53037-1.52078,.52753-1.52082,.53871-1.51854,.51513-1.52192,.53679-1.51443,.53227-1.52163,.5225-1.52221,.52936-1.52212,.53539-1.52194,.52755-1.52223,.52393-1.52749,.52935-1.52836,.53976-1.52201,1.85454-.01046,1.85978,.00695,1.86314-.00528,.52427,1.52562,.52382,1.51908,.5345,1.5144,.52714,1.51776,.52475,1.52134,.52859,1.51969,.53095,1.51737,.52354,1.52112,.52967,1.52093,.53664,1.51661,.52359,1.52314,.5265,1.52117,.53407,1.52015,.52583,1.5182,.52948,1.51698,.5315,1.5219,.52996,1.51962,.53234,1.52108,.52646,1.52505,.52447,1.52331,.53505,1.52362,.53482,1.52646,.52769,1.53135-1.55725,.00363-1.55851-.00705-1.56102,.00248-1.55772-.0053-.48532-1.44196-.47326-1.4472-.46657-1.45315-.47746-1.45216-.4829-1.45081-1.57696,.00688-1.57394-.00184-1.57606-.00991-1.57783,.00402-1.57559,.00159-1.57927,.00046-1.58182,.00264-1.58334-.00542-.46991,1.45224-.48544,1.44319-.46863,1.45247-.48611,1.44932-.47419,1.4498-1.56432,.00786-1.57116-.00977-1.5737,.00617-1.57149-.00131Zm10.28644-12.31568l1.55423-.00289,1.55374-.00406,1.55153,.00148,1.55516,.00137,1.55767,.00894,1.55661-.00701-.51345-1.56564-.5173-1.57117-.52601-1.56542-.51475-1.57147-.51717-1.57263-.519-1.56955-.50947-1.57676-.53251-1.57198-.5131-1.58088-.52141,1.56659-.51177,1.57299-.5171,1.56836-.52325,1.56867-.51672,1.57278-.51109,1.57216-.51689,1.57432-.5299,1.57284-.51803,1.57896Z" fill="#44c38b"/>
          <path d="M133.19552,34.36375l-.9685-1.06524-1.25831-.69032-1.42273-.21533-1.62583,.27069-1.40385,.85478-.97786,1.3264-.50875,1.57114-.14863,1.64984-.0031,1.69483,.00576,1.70044,.00109,1.69763-.00772,1.69991,.00094,1.70183-.00021,1.6994,.00062,1.70338,.00493,1.70612-.00439,1.7028-1.80302,.00436-1.80908,.00181-1.80569-.00647-.00015-1.68524-.00429-1.68699-.00052-1.68896,.00437-1.68802-.00359-1.68962,.0041-1.68485-.00787-1.68489,.00357-1.69046,.00328-1.68767-.0044-1.68994,.00206-1.69184-.0035-1.68943,.00178-1.69339-.00212-1.69612,.00134-1.69877,1.77494,.00043,1.77525,.00107,1.77232,.00343,.00167,2.2792,1.08246-1.2344,1.38632-.87722,1.56836-.48742,1.64189-.13391,1.67002,.12233,1.61697,.42712,1.48277,.77032,1.2624,1.09553,1.01503,1.33192-1.43814,1.00852-1.43529,1.01699-1.43673,1.01431Z" fill="#44c38b"/>
          <path d="M160.27069,49.51972l-1.02219,1.44512-1.31119,1.17752-1.54394,.84477-1.68694,.51819-1.7459,.25907-1.76826,.07177-1.6418-.0898-1.61937-.27212-1.5651-.49699-1.46933-.73028-1.32265-.97159-1.12574-1.19349-.8955-1.3736-.67434-1.49432-.44861-1.57767-.2641-1.62026-.07499-1.64134,.00115-1.72362-.004-1.72362,.06673-1.59083,.19377-1.57885,.36008-1.54824,.55355-1.48949,.77839-1.38584,1.02981-1.20799,1.23534-.99545,1.40658-.73432,1.51392-.47917,1.56605-.26669,1.58906-.0774,1.61415,.07832,1.58945,.27592,1.53262,.50098,1.41783,.76547,1.23543,1.03227,1.00249,1.26067,.75333,1.42431,.52574,1.52278,.33383,1.57853,.18365,1.60381,.04751,1.61544,.00483,1.39409,.00259,1.39793-1.68119-.00107-1.68355-.00738-1.68077,.00745-1.68303,.002-1.68492-.00811-1.68252,.00324-1.68646,.00057-1.68918,.0031-1.68933-.00613-.00372,.1039,.10603,1.6938,.35638,1.65509,.71657,1.53105,1.15158,1.23089,1.52113,.723,1.67789,.21234,1.52096-.09143,1.47227-.3866,1.27387-.82297,.95401-1.18144,1.35311,.94068,1.34764,.95389,1.35931,.94017Zm-14.75441-11.66155l1.60926,.00225,1.61285,.00455,1.61055-.00236,1.61432-.00255,1.61692-.00225,1.61531,.00084-.20314-1.65532-.52154-1.58159-.98748-1.329-1.45399-.78491-1.6482-.21644-1.64121,.23276-1.44395,.80239-.9943,1.32369-.55348,1.56469-.23194,1.64324Z" fill="#44c38b"/>
          <path d="M175.27186,38.41701l1.82302-.00077,1.82596,.00217,1.82316-.00024-.00081-2.12671-.12324-1.51749-.61413-1.37679-1.26286-.81482-1.49037-.28699-1.52447-.06223-1.53717,.05473-1.50943,.27732-1.31593,.76222-.95942,1.18596-1.30139-.90685-1.30146-.91354-1.29743-.9164,.918-1.27291,1.15599-1.06402,1.34792-.80419,1.47273-.53795,1.54112-.31804,1.56461-.16291,1.57669-.04156,1.7142,.05108,1.70818,.18957,1.66877,.39832,1.56631,.68947,1.34296,1.0541,.99147,1.38923,.60556,1.59913,.30828,1.6832,.08145,1.71299,.00446,1.70143-.00659,1.69729,.00034,1.7029,.00623,1.70009-.00864,1.70237,.00613,1.70429,.00174,1.70186-.0021,1.70585-.00226,1.7086,.00379,1.71225-1.77592,.00151-1.77525-.01007-1.77122,.00184-.00905-2.32795-1.06529,1.33592-1.43792,.9194-1.65676,.42422-1.71553,.10794-1.69894-.09209-1.66932-.32081-1.5956-.58475-1.44553-.88894-1.17876-1.21945-.83342-1.47642-.46628-1.63197-.13941-1.69405,.1565-1.70668,.50655-1.63294,.91811-1.43925,1.28342-1.12527,1.51868-.78085,1.64108-.48629,1.6945-.25407,1.71397-.08098Zm5.47287,4.16338l-1.68591,.00144-1.6907-.00217-1.6907,.00153-1.60417,.1179-1.52419,.49781-1.08132,1.15678-.3052,1.56966,.31081,1.49936,1.02706,1.12522,1.43785,.53298,1.53636,.14072,1.75945-.13515,1.65614-.58285,1.18635-1.278,.53876-1.66906,.1367-1.76247-.00728-1.21371Z" fill="#44c38b"/>
          <path d="M227.53744,42.27329l-.06543,1.63283-.2264,1.61676-.39969,1.58431-.61045,1.51271-.8379,1.39888-1.07291,1.22719-1.28944,.99657-1.44843,.74524-1.55644,.48781-1.60849,.27149-1.6322,.08568-1.63164-.0918-1.60854-.27334-1.5532-.50189-1.44815-.75093-1.28718-1.00049-1.08766-1.21456-.84854-1.39227-.62502-1.50587-.41309-1.57878-.22462-1.61718-.07158-1.63235,.005-1.59683-.00742-1.59683,.0732-1.63382,.21327-1.61999,.40372-1.58308,.61555-1.51201,.85468-1.39053,1.08683-1.21549,1.2986-.98566,1.45548-.73414,1.55866-.4814,1.60936-.27134,1.63228-.08008,1.63017,.0771,1.60678,.2741,1.55593,.48467,1.4513,.73921,1.29231,.98862,1.08721,1.21156,.83917,1.39501,.60727,1.50978,.39681,1.58055,.21761,1.61582,.066,1.63111-.00864,1.59683,.00586,1.59683Zm-5.37478-.15204l-.00275-1.47011,.0061-1.47011-.095-1.65774-.33433-1.62499-.68712-1.50504-1.12871-1.20121-1.48957-.7025-1.64161-.19985-1.65115,.19701-1.49998,.70125-1.13466,1.20276-.70232,1.50304-.33864,1.62449-.09587,1.66279-.0012,1.47011-.00327,1.47011,.09794,1.68952,.32443,1.65618,.68054,1.54078,1.13406,1.2364,1.51539,.71899,1.67473,.20336,1.65472-.21763,1.48202-.75792,1.1112-1.2387,.67573-1.52547,.34643-1.63429,.10288-1.67124Z" fill="#44c38b"/>
          <path d="M234.73627,28.02952l-.00539-1.57278,.0723-1.69234,.26134-1.67097,.56462-1.59219,.99551-1.35678,1.4031-.92952,1.60359-.52632,1.67504-.22329,1.69172-.07573,1.57146,.0068-.00602,1.62036,.00312,1.62309,.00086,1.62154-1.1638,.00314-1.56375,.19866-1.23189,.92275-.42679,1.50509-.07577,1.5795,.00279,.55842,1.48572-.00452,1.48783-.00054,1.48773,.00439-.00489,1.5529,.00404,1.55549-.00344,1.5513-1.48105,.00353-1.48783,.00638-1.49104-.00873,.00019,1.59295-.00186,1.58906,.00153,1.59056-.00185,1.58607,.00434,1.58611,.00218,1.59136-.00374,1.58873-.0022,1.59086-.00076,1.59266,.00052,1.59039,.00227,1.59411-.00399,1.59668,.011,1.60164-1.7937,.0005-1.79217-.00753-1.79337,.00343,.00599-1.59131-.00195-1.58906-.00939-1.59056,.0063-1.58607,.00495-1.58611-.00232-1.59136,.00461-1.58873-.00693-1.59086,.00373-1.59266,.00099-1.59039-.0006-1.59411,.00147-1.59668-.00798-1.59432-1.61989-.0018-1.62064-.00221,.0044-1.55135-.00874-1.55549,.00551-1.55264,1.61947,.00336,1.62351-.00489Z" fill="#44c38b"/>
          <path d="M265.50444,46.17239l1.00548,1.0943,1.24175,.80655,1.399,.48516,1.47514,.15507,1.58254-.13936,1.50548-.49514,1.24771-.97176,.85771-1.3323,.51224-1.5035,.2921-1.56184,.14025-1.58134,.0442-1.59235,.00181-1.62503-.00361-1.62412-.0006-1.62566,.01079-1.62107-.00432-1.62111-.00469-1.62647,.00328-1.62379,.00192-1.62597-.00401-1.6278-.00167-1.62548,.00788-1.62929v-1.63191s-.00201-1.62981-.00201-1.62981l1.46404,.00013,1.46982-.00412,1.47219-.00509,1.46956,.00935,.00492,1.62265,.00057,1.62412,.00227,1.62566-.00226,1.62107-.00995,1.62111,.00891,1.62647-.00153,1.62379-.00189,1.62597-.00476,1.6278,.00844,1.62548-.00589,1.62929,.00733,1.63191-.00213,1.63191-.0457,1.63872-.12329,1.63129-.23469,1.62133-.37555,1.59384-.52983,1.54763-.72994,1.46414-.9472,1.33188-1.15802,1.15058-1.3509,.91642-1.49228,.66064-1.57451,.43227-1.61648,.24086-1.6348,.06513-1.69381-.08761-1.67856-.24897-1.62882-.47077-1.55278-.67946-1.42463-.91793-1.26191-1.13094-1.04758-1.32727,1.63461-.93087,1.64233-.92579,1.63634-.9386Z" fill="#44c38b"/>
          <path d="M298.86167,38.41568l1.82302,.00281,1.82596,.00134,1.82678,.00143-.00457-2.12981-.1244-1.51723-.6137-1.37632-1.26429-.80872-1.48828-.29158-1.52426-.05784-1.53713,.04853-1.50801,.28126-1.31651,.75882-.96245,1.19328-1.30064-.91313-1.30213-.91258-1.2992-.91653,.92561-1.27246,1.15157-1.0682,1.34573-.80943,1.47481-.53464,1.54099-.32142,1.56558-.15587,1.57664-.04343,1.71443,.0486,1.70681,.19995,1.66832,.39639,1.56965,.68155,1.34121,1.05709,.98839,1.39084,.60922,1.59738,.30253,1.6839,.0894,1.71244-.00002,1.70143-.00078,1.69729-.00082,1.7029-.0059,1.70009,.00632,1.70237,.00099,1.70429-.0004,1.70186-.00328,1.70585,.00479,1.7086-.00313,1.70962-1.77339-.00616-1.77525,.00804-1.77597-.00237-.00108-2.33214-1.0681,1.33694-1.43813,.91943-1.65648,.42722-1.71601,.09902-1.69822-.09276-1.67168-.30855-1.59778-.5829-1.43727-.90247-1.18286-1.21415-.82777-1.47863-.46646-1.63053-.13894-1.69304,.14226-1.70816,.51414-1.63164,.91238-1.44435,1.28499-1.12681,1.52228-.77645,1.64076-.48978,1.69536-.25258,1.71438-.0779Zm5.4721,4.16578l-1.68513-.00189-1.6907-.00134-1.6907-.00181-1.60415,.12281-1.52355,.49883-1.08095,1.1561-.29903,1.56918,.30563,1.49839,1.02853,1.12056,1.43443,.5382,1.53627,.13653,1.75923-.13183,1.65186-.58886,1.1887-1.27188,.53735-1.66849,.1355-1.76186-.00327-1.21264Z" fill="#44c38b"/>
          <path d="M339.2576,42.37469l-.06613,1.72045-.25069,1.70374-.45454,1.66012-.67649,1.58262-.94249,1.4375-1.18373,1.24531-1.42483,.95881-1.58397,.66545-1.67913,.37162-1.71799,.1073-1.6657-.08865-1.6394-.31145-1.53406-.6384-1.29594-1.0363,.0008,1.60389,.00571,1.6057-.009,1.60751,.00117,1.60522-.00144,1.60898-.00149,1.61157,.00544,1.61168-1.80626,.00646-1.80908-.0121-1.80482,.00089-.0084-1.65641,.01032-1.66184-.00172-1.66452-.00681-1.66421,.00391-1.66275-.00055-1.66389-.00532-1.66579,.00328-1.66394,.00048-1.66588,.00046-1.66495-.00145-1.66653,.0014-1.66182,.00367-1.66186,.00103-1.66736-.00227-1.66461-.00769-1.66684,.01206-1.66873-.00138-1.66635-.00832-1.67025,.00949-1.67294-.01124-1.67809,1.81093,.00231,1.80908,.00733,1.80889-.00433-.00055,2.02784,1.25892-1.17143,1.53254-.7836,1.67276-.40898,1.72116-.11874,1.70487,.10874,1.66454,.38102,1.57769,.65065,1.40914,.96049,1.19811,1.21374,.93867,1.42494,.67469,1.56653,.44103,1.64937,.25213,1.68943,.07846,1.70908,.00318,1.72364-.01315,1.72361Zm-5.36015-.25345l-.0115-1.47011,.00117-1.47011-.08933-1.65766-.34096-1.62282-.67689-1.50919-1.1348-1.19498-1.48595-.70854-1.64206-.20055-1.59601,.19291-1.46208,.65275-1.12876,1.13486-.70645,1.4407-.36058,1.56272-.12079,1.60558,.00085,1.62222,.00571,1.62222,.0787,1.68598,.31887,1.65346,.66247,1.54534,1.12276,1.24488,1.51502,.71316,1.67029,.19715,1.65523-.21061,1.48763-.75175,1.09988-1.24985,.69153-1.51893,.34369-1.63659,.10235-1.67224Z" fill="#44c38b"/>
          <path d="M354.47233,38.42147l1.82307-.00612,1.82601,.0081,1.82225-.00612,.00193-2.12588-.1295-1.51661-.60901-1.37829-1.26474-.81083-1.48915-.29153-1.5246-.05566-1.53754,.04481-1.50939,.28079-1.31893,.75953-.95707,1.19346-1.30265-.90737-1.30071-.91454-1.30131-.91459,.92354-1.27693,1.15273-1.06831,1.34844-.80561,1.47464-.5349,1.54118-.31982,1.56531-.15743,1.57661-.04052,1.71444,.04541,1.70691,.19942,1.66993,.39168,1.56496,.69195,1.34587,1.05036,.98706,1.39225,.60941,1.59741,.30711,1.6835,.08605,1.71298-.0039,1.70143-.00394,1.69729-.00029,1.7029,.00183,1.70009,.00404,1.70237-.00455,1.70429,.00223,1.70186,.0048,1.70585-.00096,1.7086-.0011,1.71173-1.77541-.00737-1.77525-.00006-1.77231,.00207-.00364-2.32955-1.07051,1.33574-1.43641,.92188-1.65728,.42359-1.71567,.1113-1.69882-.09734-1.66965-.319-1.59592-.58443-1.44225-.8935-1.17862-1.21817-.83573-1.4745-.45987-1.63295-.14636-1.69283,.15154-1.70759,.50757-1.63379,.91756-1.44131,1.28774-1.12161,1.5176-.7837,1.64179-.4854,1.69495-.25181,1.71395-.07666Zm5.47562,4.15529l-1.68854,.00594-1.69073-.0081-1.69073,.00785-1.60447,.11487-1.52164,.50352-1.08441,1.15244-.3008,1.57005,.30619,1.49987,1.03096,1.12011,1.43411,.54202,1.53724,.13739,1.76033-.1313,1.65324-.59111,1.18493-1.27657,.53955-1.66763,.13258-1.76202,.00219-1.21734Z" fill="#44c38b"/>
          <path d="M373.32842,28.02658l1.77393,.00274,1.77525-.0046,1.77439,.00413-.0022,2.28119,1.23816-1.28014,1.55126-.86596,1.71849-.4608,1.78121-.12775,1.71851,.09731,1.6847,.35067,1.59291,.64618,1.41273,.97669,1.13423,1.28984,.81273,1.51009,.51583,1.64151,.27633,1.69738,.08101,1.72298-.00483,1.58145-.00108,1.58149,.00593,1.58672-.00646,1.58411,.00359,1.58623,.0037,1.58802-.00836,1.58576,.00221,1.58947,.00615,1.59203-.00076,1.595-1.79194-.00298-1.79219-.00237-1.79295,.00319,.00073-1.69003-.00052-1.69481-.00441-1.69202,.00237-1.69429,.00127-1.6962,.00459-1.69378-.00757-1.69774,.00652-1.70048-.00539-1.70048-.11322-1.71878-.47011-1.65446-1.00802-1.37622-1.51642-.77943-1.70493-.20433-1.72426,.23779-1.55174,.77876-1.13646,1.31047-.62643,1.62145-.17853,1.73413-.00302,1.69483-.00143,1.70044,.00043,1.69763,.00167,1.69991-.00192,1.70183-.00084,1.6994-.00388,1.70338,.00106,1.70612,.00605,1.70845-1.80836,.00257-1.80908-.00094-1.8103-.00265,.00577-1.69018-.0088-1.68699,.00342-1.68896-.00051-1.68802,.00476-1.68962,.00121-1.68485-.00429-1.68489-.00544-1.69046,.00877-1.68767-.0018-1.68994,.00107-1.69184-.00176-1.68943,.00397-1.69339-.00238-1.69612-.00429-1.69772Z" fill="#44c38b"/>
        </g>
        <path d="M48.05309,51.2342l1.85812-1.50261,.89382-1.35536,.88275-1.36135,.85023-1.38584,.8394-1.38593,.80713-1.409,.8013-1.41527,.75897-1.43941,.72159-1.46013,.69715-1.47376,.63407-1.50323,.57809-1.52303,.49368-1.55228,.36216-1.5864,.13692-1.61464-.0953-1.60016-.31113-1.57248-.51567-1.51761-.70995-1.43717-.90011-1.32522-1.05511-1.20462-1.19948-1.06173-1.33154-.89124-1.43611-.71077-1.51669-.5169-1.57336-.30417-1.59892-.11269-1.60055,.10366-1.57129,.31715-1.51529,.5202-1.43669,.70865-1.3307,.89143-1.20433,1.05597-1.05758,1.20304-.88719,1.3334-.70927,1.43565-.52683,1.51284-.30245,1.57383-.11168,1.59893,.15624,1.61304,.35267,1.58468,.49415,1.5479,.57368,1.52115,.63728,1.4953,.68641,1.47501,.7235,1.46002,.77083,1.43625,.78659,1.42703,.82109,1.40385,.83045,1.40194,.86537,1.37782,.86726,1.37236,.90923,1.34449,1.84978,1.50186-1.64727,.00211-1.6459,.00693-1.6481,.00373-1.64996-.00918-1.64761,.00686-1.65147,.00199-1.65413-.00325-1.6536-.00324,.00233,2.03669-.00579,2.03951,1.66147-.00664,1.65968,.01057,1.66157-.00653,1.65972,.00675,1.66166-.00247,1.66073-.00888,1.6623,.00718,1.65761-.00733,1.65765,.00975,1.66314,.0022,1.66039-.00316,1.66262-.00073,1.6645-.00174,1.66213,.00468,1.66602-.00818,1.6687,.00399,1.66616-.00391,.00704-2.03504-.00651-2.03549-1.64659-.00414-1.64588,.00244-1.64809-.00449-1.64995,.00641-1.6476-.00241-1.65145,.00372-1.65411-.00575-1.65412,.0026Zm-6.88029-21.96824l.20366-1.54137,.58801-1.43907,.95333-1.22787,1.22748-.95359,1.43876-.58935,1.54108-.20847,1.54039,.2147,1.43568,.59189,1.23775,.94027,.94083,1.23719,.60206,1.43312,.19885,1.54256-.20806,1.54105-.59872,1.4325-.93718,1.23901-1.23712,.94003-1.43448,.59456-1.54,.2018-1.54097-.20172-1.4399-.58579-1.2323-.94922-.94135-1.23663-.59492-1.43499-.2029-1.54062Z" fill="#44c38b"/>
      </g>
    </g>
  </g>
</svg>