<?xml version="1.0" encoding="UTF-8"?>
<svg id="b" data-name="レイヤー 2" xmlns="http://www.w3.org/2000/svg" width="535.45282" height="132.02016" viewBox="0 0 535.45282 132.02016">
  <g id="c" data-name="text">
    <g>
      <rect y="91.27016" width="535.45282" height="40.75" fill="#fff" opacity=".98"/>
      <g>
        <path d="M37.27411,115.81215c-1.44385,2.2793-2.39355,3.26758-4.57812,4.90137-.43701-.72266-.74072-1.10156-1.34863-1.65234,1.23438-.76074,1.7666-1.17871,2.48828-1.91992,.70312-.7207,1.06396-1.23438,1.67188-2.33594l1.7666,1.00684Zm1.65283-10.58105c0-.51367-.03809-.9502-.11377-1.38672h2.35547c-.07617,.37891-.11377,.79688-.11377,1.36719v.57031h5.43311c.98779,0,1.63379-.03906,2.22266-.13281v2.14648c-.53223-.0957-1.04492-.11426-2.08984-.11426h-12.89893c-1.02588,0-1.50098,.01855-2.05176,.11426v-2.14648c.55078,.09375,1.25391,.13281,2.27979,.13281h4.97705v-.55078Zm-3.41943,9.25098c-.83594,0-1.19678,.01855-1.70996,.05762,.05713-.47559,.07617-.83594,.07617-1.50195v-2.71582c0-.64551-.01904-.9873-.01904-1.02637,0-.01855-.01904-.11328-.03809-.26562,0-.05664,0-.13281-.01904-.24707q.15234,.01855,.45605,.03809c.1709,.01953,.77881,.03809,1.25391,.03809h9.1377q1.31055-.01855,1.72852-.07617c-.05664,.45605-.07568,.85449-.07568,1.53906v2.71582c0,.66602,.01904,.98828,.05664,1.50195-.43652-.03906-.98779-.05762-1.72852-.05762h-3.32471v4.74902c0,1.46289-.62695,1.88086-2.86816,1.88086-.3042,0-.49414,0-1.53906-.01855-.09473-.83594-.22803-1.33008-.55078-2.03223,.79785,.11328,1.40576,.16992,2.0708,.16992,.64551,0,.77881-.07617,.77881-.39844v-4.35059h-3.68555Zm.37988-1.87988h8.39697v-1.95703h-8.39697v1.95703Zm8.58691,2.22266c.72168,1.10156,1.12061,1.57617,1.88037,2.25977,.7793,.72266,1.36816,1.12109,2.62207,1.80469-.58936,.6084-.93115,1.08301-1.34912,1.82422-1.31055-.89258-1.86182-1.36816-2.83057-2.35547-.77881-.83594-1.17773-1.33008-1.97559-2.4707l1.65283-1.0625Z" fill="#44c38b"/>
        <path d="M56.21747,106.92153c-1.12109,0-1.86182,.03809-2.5459,.11426v-2.26172c.60791,.0957,1.33008,.13379,2.48877,.13379h10.54346c1.13965,0,1.86182-.03809,2.52686-.13379v2.26172c-.74121-.07617-1.4248-.11426-2.52686-.11426h-4.27441v4.23633h3.40039c.91211,0,1.5957-.03809,2.29883-.11426v2.20312c-.70312-.0752-1.36768-.09375-2.29883-.09375h-3.40039v5.09082h4.99609c1.21582,0,1.88086-.03809,2.50781-.11426v2.2793c-.70264-.09473-1.46289-.13281-2.46973-.13281h-11.9873c-.96875,0-1.74756,.03809-2.52637,.13281v-2.2793c.66504,.0957,1.25391,.11426,2.52637,.11426h4.71143v-5.09082h-3.09619c-.91211,0-1.61523,.01855-2.35596,.09375v-2.20312c.60791,.07617,1.23486,.11426,2.31787,.11426h3.13428v-4.23633h-3.97021Z" fill="#44c38b"/>
        <path d="M76.88983,109.18227c-1.21582,0-1.7666,.01855-2.35596,.11328v-2.22266c.66504,.0957,1.33008,.13281,2.33691,.13281h1.69092v-1.27246c0-1.13965-.01904-1.55762-.11426-2.01367h2.39355c-.09473,.55176-.11377,1.02637-.11377,2.12793v1.1582h4.27441v-1.08203c0-1.08301-.01904-1.5957-.11426-2.18555h2.33691c-.09521,.6084-.1333,1.14062-.1333,2.18555v1.08203h1.55811c.98779,0,1.61475-.03711,2.33643-.13281v2.22266c-.70264-.07617-1.2915-.11328-2.33643-.11328h-1.55811v4.14062h2.03271c1.06396,0,1.65283-.03711,2.33691-.11328v2.22266c-.74072-.0957-1.33008-.13281-2.33691-.13281h-2.03271v3.60938c0,1.08203,.03809,1.74805,.1333,2.41211h-2.33691c.07617-.64551,.11426-1.29102,.11426-2.41211v-3.60938h-4.59766c-.22754,1.36719-.74072,2.58301-1.57666,3.7041-.68359,.93066-1.36768,1.55762-2.64062,2.41309-.58887-.81738-.93066-1.17773-1.63379-1.76758,2.22266-1.42383,3.11572-2.48828,3.60986-4.34961h-1.84277c-1.12109,0-1.67188,.03711-2.29883,.13281v-2.22266c.62695,.07617,1.25391,.11328,2.26074,.11328h2.16553c.07617-.7207,.11426-1.63281,.11426-2.35547v-1.78516h-1.67188Zm3.8374,2.20312c0,.51367-.01904,.96875-.09521,1.9375h4.36963v-4.14062h-4.27441v2.20312Z" fill="#44c38b"/>
        <path d="M103.12811,115.37563c-1.08301,2.4502-2.29883,3.57031-3.85645,3.57031-2.16602,0-3.72363-2.20312-3.72363-5.26172,0-2.08984,.74072-4.04688,2.08984-5.52832,1.5957-1.74707,3.8374-2.65918,6.53467-2.65918,4.55957,0,7.52295,2.77344,7.52295,7.04785,0,3.28613-1.70947,5.9082-4.61621,7.08594-.91162,.37988-1.65283,.56934-2.98242,.79785-.32324-1.00684-.55127-1.4248-1.15869-2.22266,1.74756-.22852,2.88721-.53223,3.78027-1.04492,1.65283-.91211,2.64062-2.7168,2.64062-4.75,0-1.82324-.81689-3.30469-2.33691-4.2168-.58887-.3418-1.08252-.49414-1.91846-.57031-.36084,2.98242-1.02588,5.60449-1.97559,7.75195Zm-2.79297-6.80176c-1.5957,1.13965-2.5835,3.09668-2.5835,5.12988,0,1.55664,.66504,2.79199,1.50098,2.79199,.62695,0,1.27246-.79785,1.95654-2.43164,.72168-1.70996,1.34863-4.27441,1.57666-6.4209-.98779,.11328-1.67188,.37988-2.45068,.93066Z" fill="#44c38b"/>
        <path d="M115.80243,118.75649c.93115-.03809,2.29883-.24707,4.00879-.64648,.60791-1.46191,1.06348-2.88672,1.27246-4.06445l2.01367,.5127q-.1709,.43652-.45557,1.21582c-.24707,.72168-.45605,1.21582-.72217,1.80469,.66504-.20898,.91211-.28516,1.7666-.57031v1.84375c-1.63379,.60742-4.08398,1.29102-6.28809,1.74707-.64551,.15137-.79785,.19043-1.12061,.28516l-.4751-2.12793Zm.20898-14.34277c.62695,.07617,1.19678,.11426,2.16602,.11426h3.17236c.94971,0,1.50098-.03809,2.12744-.11426v2.03223c-.62646-.05664-1.12061-.07617-2.01367-.07617h-3.41943c-.98779,0-1.34863,.01953-2.03271,.0957v-2.05176Zm.646,5.24316c0-.85547-.01904-1.33008-.07568-1.9375,.55078,.05664,1.10156,.07617,1.99463,.07617h2.64062c1.08252,0,1.38672-.01953,1.95654-.07617-.05713,.57031-.07617,.87305-.07617,1.89941v2.14746c0,1.04395,.01904,1.36719,.07617,1.8418-.646-.03711-1.19678-.05664-1.82373-.05664h-2.8877c-.72168,0-1.2915,.01953-1.88037,.07617,.05664-.64648,.07568-1.10156,.07568-1.95703v-2.01367Zm1.23486,8.32031c-.3418-1.36719-.646-2.22266-1.19678-3.36133l1.78564-.68457c.56982,1.17773,.85498,1.91895,1.25391,3.34277l-1.84277,.70312Zm.66504-6.07812h2.65967v-2.4707h-2.65967v2.4707Zm7.25684,5.73633c-.58887,0-.85498,0-1.50098,.03809,.01904-.62598,.05713-1.46191,.05713-1.89941v-6.23047c0-.74219-.01904-1.25391-.05713-1.78711,.45605,.05762,.7793,.05762,1.61475,.05762h.87402c.26611-.56934,.41797-.9502,.55078-1.40527h-1.25342c-.9502,0-1.44385,.01855-2.01416,.09473v-2.05176c.53223,.07617,1.17822,.11328,2.26074,.11328h4.55957c1.04492,0,1.72852-.03711,2.22266-.11328v2.05176c-.58887-.07617-1.04492-.09473-2.03271-.09473h-1.69092c-.1709,.45508-.37988,.96875-.56982,1.40527h1.72852c1.00732,0,1.44385-.01855,1.86182-.05762-.0376,.5332-.05664,.98828-.05664,1.67188v6.36523c0,.66406,.01904,1.27246,.07568,1.89844-.5127-.03711-1.10156-.05664-1.65283-.05664h-.49365c1.02588,.98828,1.9375,1.57715,3.47656,2.29883-.72217,.70312-.83594,.81641-1.52002,1.65234-1.61475-.96875-2.39355-1.5957-3.68555-2.94336l1.44385-1.00781h-3.74219l1.44385,1.08301c-1.52002,1.46289-2.2041,1.95703-3.9707,2.83105q-.74072-.85547-1.50049-1.55859c1.31055-.49316,2.08936-.92969,3.03955-1.65234,.26562-.20898,.41748-.3418,.75977-.70312h-.22803Zm.43701-7.10449h4.21729v-.9873h-4.21729v.9873Zm0,2.62207h4.21729v-1.00781h-4.21729v1.00781Zm0,2.71582h4.21729v-1.08301h-4.21729v1.08301Z" fill="#44c38b"/>
        <path d="M137.21551,111.86c.3418,.03906,.49365,.05762,.89258,.05762h.58887c.4751-.6084,.62695-.81738,1.04492-1.4248-1.02588-1.29199-1.50049-1.82422-2.56445-2.79297l.98779-1.63281,.70312,.74023c.77881-1.23438,1.31055-2.39355,1.48145-3.17188l1.84277,.68359c-.11377,.1709-.20898,.36133-.41797,.79688-.47461,.96973-1.08252,2.0332-1.72852,3.00195q.32275,.39941,.70264,.89258c.87402-1.34766,1.53906-2.52539,1.78564-3.20996l1.69092,.91211c-.22803,.36035-.36084,.56934-.646,1.02637-1.13965,1.78516-1.86182,2.83008-2.84961,4.10254,1.12109-.0752,1.55811-.11426,2.08984-.1709-.24707-.7793-.28516-.87402-.55078-1.51953l1.40576-.55078c.62695,1.5,.81689,2.07031,1.19678,3.5332l-1.48193,.66504q-.05664-.24707-.11377-.55176-.79785,.0957-1.40576,.15234v6.00391c0,.9873,.01904,1.40527,.11377,1.99414h-2.05176c.07617-.64648,.11426-1.1582,.11426-2.01367v-5.83203c-.11426,.01953-.36084,.01953-.76025,.03809q-1.44336,.09473-1.86133,.1709l-.20898-1.90039Zm2.35547,2.79297c-.20898,3.32422-.3418,4.29297-.77881,5.79492l-1.5957-.81738c.45605-1.40527,.58887-2.31738,.74072-5.16699l1.63379,.18945Zm4.04639-.3418c.37988,1.69141,.4751,2.33691,.62695,3.78027l-1.50098,.41797c-.09473-1.61426-.18994-2.43164-.47461-3.83691l1.34863-.36133Zm1.63379,1.00684c-.5127,0-.74072,.01855-1.10205,.07617v-1.89941c.34229,.05664,.53223,.07617,1.15918,.07617h1.2915c.43701,0,.66504-.01953,.89307-.05762l.68408,.89355c-.07617,.18945-.09521,.24609-.17139,.51172-.47461,1.48242-.85449,2.31836-1.55762,3.36328-.646,.93066-1.06396,1.42383-2.18457,2.4502-.28516-.55078-.66504-.96875-1.29199-1.51953,1.52002-1.08301,2.46973-2.28027,3.11572-3.89453h-.83594Zm5.03418-3.04004c.20898,.89355,.43701,1.46289,.93115,2.35645,.79785-.66504,1.34863-1.25391,2.03271-2.12793l1.34863,1.21582c-.94971,1.02637-1.65283,1.67188-2.46973,2.33691,.94971,1.25391,1.729,1.99414,2.94482,2.79297-.51318,.55078-.79785,.9873-1.21582,1.87988-.91211-.74121-1.38721-1.21582-1.99512-2.03223-.81689-1.04492-1.25342-1.82422-1.89941-3.45801,.11377,1.15918,.1709,1.97559,.1709,2.56543l.01904,1.65234c.01904,1.21582-.60791,1.69043-2.27979,1.69043-.01904,0-.07617,0-.11377-.01855h-.49414c-.32275,0-.3418,0-.646-.03809-.11377-.85449-.22803-1.31152-.5127-1.91895,.66504,.11426,1.10156,.1709,1.55762,.1709,.4751,0,.58887-.09473,.58887-.45605v-6.61133h-1.5957c-.66504,0-1.34863,.01953-1.88086,.07617,.05713-.49414,.07617-1.12109,.07617-1.8418v-3.43945c0-.70312-.01904-1.34863-.07617-1.86133,.49414,.05664,.93115,.07617,1.84277,.07617h1.08301c.28516-.75977,.39893-1.14062,.5127-1.67188l2.12793,.30371c-.22803,.6084-.36084,.91211-.56982,1.36816h2.1084c.9502,0,1.36816-.01953,1.84277-.07617-.05713,.57031-.07568,.98828-.07568,1.90039v3.41895c0,.85449,.01855,1.3291,.07568,1.82324-.53174-.05664-1.15869-.07617-1.80469-.07617h-1.63379Zm-3.51416-4.23633h4.93896v-1.19629h-4.93896v1.19629Zm0,2.67969h4.93896v-1.19727h-4.93896v1.19727Z" fill="#44c38b"/>
        <path d="M159.93915,120.39028c-.01904-.3418-.03809-.45605-.09521-.89258-.36084-2.29883-.49365-3.76172-.49365-5.68066,0-2.4502,.22754-4.61621,.77881-7.42773,.20898-1.06445,.24658-1.25391,.28467-1.7666l2.50781,.2666c-.45605,1.12012-.89307,3.24805-1.19678,5.67969-.18994,1.4248-.26611,2.54492-.28516,4.19824,0,.41797-.01904,.56934-.03809,1.04492,.20898-.66504,.24707-.79785,.98779-2.50781l1.52002,.68457c-1.04492,2.20312-1.69092,4.40625-1.69092,5.75586,0,.11328,0,.26562,.01904,.5127l-2.29834,.13281Zm8.09277-7.50391c-.9502,1.10254-1.34912,1.91895-1.34912,2.73535,0,1.08301,1.04492,1.65234,3.02051,1.65234,1.67188,0,3.32471-.26562,4.52148-.7207l.18994,2.41211c-.26611,.01953-.3418,.03809-.77881,.11426-1.52002,.24707-2.67871,.36035-3.93262,.36035-2.35547,0-3.875-.53125-4.71094-1.65234-.36133-.47461-.57031-1.17773-.57031-1.86133,0-1.23535,.57031-2.50781,1.74805-3.91406l1.86182,.87402Zm-3.13477-6.28809c.85498,.22852,1.86182,.30469,3.51465,.30469,2.1084,0,3.91309-.17188,5.16699-.51367l.11426,2.29883c-.15234,.01953-.43701,.05664-1.34912,.1709-1.21582,.15137-2.65967,.22754-4.06543,.22754-1.38672,0-1.40576,0-3.41943-.20898l.03809-2.2793Z" fill="#44c38b"/>
        <path d="M181.38983,109.23891c-.74072,0-1.2915,.01953-1.86133,.0957v-1.84375c.56982,.07617,1.31055,.11426,2.07031,.11426h4.54053v-1.31055q-3.78027,.20898-5.62305,.22754c-.18994-.70312-.36133-1.1582-.70312-1.7666h.60791c3.22949,0,6.91504-.20898,9.61279-.55078,1.57666-.19043,2.01367-.28516,3.03955-.6084l1.25391,1.82422c-.07617,0-1.04492,.13281-2.92578,.41797-.89307,.11328-1.97559,.22852-3.21045,.3418v1.4248h4.86328c.83594,0,1.48145-.03809,2.08984-.11426v1.84375c-.53223-.05762-1.21582-.0957-1.88086-.0957h-.62695v1.48242h1.10156c.85498,0,1.48193-.03906,2.08984-.11523v1.97656c-.58887-.05664-1.15869-.0957-2.08984-.0957h-1.10156v1.57715h.62695c.77881,0,1.2915-.01855,1.88086-.0752v1.8418c-.58936-.07617-1.27295-.11328-2.0708-.11328h-3.64746c1.06348,.89258,1.88037,1.42383,3.03955,1.99414,1.12061,.55078,2.35547,.9502,3.8374,1.23438-.45605,.68457-.75977,1.29297-1.10205,2.07129-1.38672-.43652-2.79248-1.04492-3.89453-1.65332-1.17773-.66406-2.14648-1.40527-3.17236-2.4502,.01904,.32324,.03809,.72168,.05713,1.21582v1.33008c0,.91211,.01904,1.38672,.13281,1.99414h-2.31738c.09473-.66406,.13281-1.10156,.13281-1.99414v-1.34961c0-.16992,.01904-.56934,.05713-1.19629-1.08301,1.08301-2.20361,1.93848-3.51465,2.65918-.94971,.55078-1.86182,.9502-3.28662,1.46289-.30371-.72168-.62695-1.27246-1.10156-1.86133,3.02051-.89258,4.6543-1.74805,6.61084-3.45703h-3.30566c-.72168,0-1.48145,.03711-2.07031,.11328v-1.8418c.56982,.05664,1.10156,.0752,1.86133,.0752h.45605v-1.57715h-.98779c-.93066,0-1.51953,.03906-2.0708,.0957v-1.97656c.56982,.07617,1.29199,.11523,2.0708,.11523h.98779v-1.48242h-.45605Zm2.43164,1.48242h2.31787v-1.48242h-2.31787v1.48242Zm0,3.34277h2.31787v-1.57715h-2.31787v1.57715Zm6.83936-4.8252h-2.46973v1.48242h2.46973v-1.48242Zm0,3.24805h-2.46973v1.57715h2.46973v-1.57715Z" fill="#44c38b"/>
        <path d="M200.69403,111.15786q.53223-.03809,1.97607-.36133c2.5835-.56934,4.29346-.79785,5.87012-.79785,2.16553,0,3.62842,.62695,4.4834,1.9375,.47461,.72266,.70264,1.51953,.70264,2.45117,0,2.52637-1.78564,4.57812-4.80615,5.52734-1.17773,.36133-1.65283,.4375-4.12256,.72266-.18994-.94922-.3418-1.31055-.81689-2.16602h.28516c.70264,0,1.7666-.11328,2.69775-.28516,1.48145-.28516,2.31738-.62695,3.17236-1.29102,.91162-.68359,1.34863-1.51953,1.34863-2.56445,0-1.48242-1.10156-2.28027-3.11523-2.28027-1.31104,0-2.77393,.20898-4.99658,.74121-1.21582,.28516-1.55762,.37988-2.20361,.64551l-.4751-2.2793Z" fill="#44c38b"/>
        <path d="M217.6242,106.59829c.41797,.01953,.62646,.01953,.72168,.01953q.3418,0,3.13477-.19043c1.06348-.05762,4.21729-.22754,9.47949-.47559,1.55762-.0752,1.84277-.09375,2.18457-.18945l.13281,2.43164q-.20898-.01953-.39893-.01953c-1.13965,0-2.54541,.38086-3.76123,1.02637-2.4126,1.25391-3.8374,3.15332-3.8374,5.07227,0,1.48145,.93066,2.62207,2.52637,3.09668,.93115,.28516,2.14697,.49414,2.83057,.49414,.01904,0,.18994,0,.38037-.01953l-.34229,2.58398c-.22803-.05664-.32275-.07617-.646-.11426-2.08936-.26562-3.28613-.6084-4.44531-1.25293-1.74756-.98828-2.71631-2.60352-2.71631-4.5791,0-1.61426,.646-3.20996,1.80469-4.4834,.72168-.7793,1.40576-1.27246,2.64062-1.89941-1.53906,.22754-2.27979,.28418-6.40234,.58887-1.27246,.09473-2.4126,.22852-3.15332,.37988l-.13281-2.46973Z" fill="#44c38b"/>
        <path d="M240.6325,105.83852c-.09473,.70312-.15186,1.63379-.15186,2.8877,0,1.65234,.15186,3.93262,.36084,5.09082,.32324,1.97656,.93066,3.19141,1.53906,3.19141,.28467,0,.55078-.28516,.77881-.81641,.45557-1.02539,.79785-2.16602,1.00684-3.43848,.66455,.75977,.96875,1.04492,1.89941,1.72852-.98779,3.7041-2.08936,5.24316-3.7041,5.24316-1.27295,0-2.29883-.93066-3.05859-2.75391-.77881-1.90039-1.12109-4.6543-1.19678-9.91699-.01904-.66504-.01904-.79785-.07617-1.21582h2.60254Zm8.98584,.85547c2.39355,2.86816,3.72314,6.04102,4.27441,10.21973l-2.35596,.89355c-.11377-1.78613-.55078-3.76172-1.21582-5.49023-.64551-1.72949-1.55762-3.26758-2.69727-4.67383l1.99463-.94922Z" fill="#44c38b"/>
        <path d="M269.05536,105.70571c-.32324,.22754-.68408,.55078-2.33691,2.08984-.96875,.89258-2.29883,1.95703-4.52148,3.64648-.58887,.4375-.72168,.58984-.72168,.79883,0,.28516,.03809,.32227,1.70996,1.57617,2.96338,2.24219,3.51416,2.7168,5.98389,4.95898,.18994,.18945,.3042,.28516,.55078,.47461l-1.95654,1.97559c-.49414-.68457-1.17773-1.40527-2.46973-2.60254-1.34863-1.25391-1.97559-1.7666-4.90137-4.04688-1.25391-.96875-1.5957-1.48145-1.5957-2.35547,0-.57031,.20898-1.08203,.62695-1.53906,.24707-.26562,.26611-.28516,1.67188-1.36719,2.05176-1.55859,3.11523-2.46973,4.38818-3.70508,.85498-.85449,1.06396-1.10156,1.38672-1.57617l2.18506,1.67188Z" fill="#44c38b"/>
        <path d="M279.25995,115.98305c.01855-.39844,.0376-.58887,.0376-.81641q0-.20898-.05664-1.34961l-.26611-6.45898c-.03809-.83594-.09521-1.78516-.1709-2.31738h3.11523c-.05664,.5127-.13281,1.50098-.1709,2.31738l-.26562,6.45898q-.03809,1.10156-.03809,1.36816c0,.22754,0,.41797,.03809,.79785h-2.22266Zm-.26611,4.16016v-2.60254h2.75439v2.60254h-2.75439Z" fill="#44c38b"/>
        <path d="M296.26483,117.7311c0,.77832-.03809,1.23438-.15186,1.61426-.1709,.66504-.85498,1.10254-1.74756,1.10254-1.19727,0-2.64062-.5332-3.59082-1.34961-.68359-.58887-1.04492-1.33008-1.04492-2.14648,0-.89258,.58936-1.90039,1.63379-2.81152,.68408-.58887,1.52002-1.08301,2.77393-1.61426l-.01904-2.92578q-.15186,0-.77881,.03711c-.28516,.01953-.55127,.01953-1.02588,.01953-.28516,0-.81689-.01953-1.04492-.01953-.24707-.01855-.41797-.01855-.4751-.01855-.07568,0-.22803,0-.39893,.01855l-.01904-2.12695c.53223,.11328,1.29199,.1709,2.29883,.1709,.18994,0,.39893,0,.66504-.01855,.45557-.01953,.55078-.01953,.75977-.01953v-1.25391c0-1.08203-.01904-1.57617-.11426-2.18457h2.375c-.09521,.6084-.11426,1.00684-.11426,2.07129v1.21484c1.4248-.16992,2.69775-.41797,3.6665-.72168l.07617,2.12793c-.34229,.05664-.70312,.11328-2.01367,.3418-.62695,.11426-1.00684,.1709-1.729,.24707v2.46973c1.29199-.37988,2.48877-.53223,3.87549-.53223,3.17236,0,5.43311,1.93848,5.43311,4.63574,0,2.46875-1.84277,4.33105-4.31201,4.33105-1.53906,0-2.62158-.74121-3.11572-2.1084-.24707-.64648-.32275-1.27344-.32275-2.43164,.96875-.26562,1.2915-.39941,2.1084-.83594-.03809,.36133-.03809,.53125-.03809,.83594,0,.79785,.07617,1.31055,.26611,1.67188,.20898,.39844,.66504,.64551,1.19678,.64551,1.12109,0,1.91895-.89355,1.91895-2.1084,0-1.63379-1.33008-2.69727-3.36279-2.69727-1.13965,0-2.29834,.20898-3.64746,.62695l.01904,3.74219Zm-2.14648-3.05859c-1.4248,.75977-2.26074,1.5957-2.26074,2.2793,0,.32227,.18994,.60742,.62695,.87402,.37988,.26562,.85498,.41797,1.21582,.41797,.32275,0,.41797-.1709,.41797-.79785v-2.77344Zm10.52441-3.83789c-.94971-1.5-2.33691-3.00195-3.79932-4.10352l1.78564-1.19727c1.65283,1.27344,2.75439,2.41309,3.76123,3.89453l-1.74756,1.40625Z" fill="#44c38b"/>
        <path d="M320.94549,111.32875c0,.07617,.01904,.22852,.01904,.45605,.41748,.87402,.60791,1.65234,.60791,2.67871,0,2.07031-.98828,3.85547-2.83057,5.12891-.79834,.55078-1.67188,.94922-3.43896,1.55762-.53174-1.17773-.72168-1.46191-1.34863-2.14648,1.55762-.30371,2.33691-.56934,3.22949-1.10254,1.29199-.74023,2.05176-1.70898,2.20361-2.77344-.55078,.875-1.53857,1.34961-2.79248,1.34961-.87402,0-1.55762-.20898-2.20361-.68359-.89307-.64648-1.31104-1.48242-1.31104-2.56543,0-2.01367,1.57715-3.45703,3.78076-3.45703,.81689,0,1.53857,.20801,1.97559,.56934q-.01904-.09473-.01904-.22754c-.01904-.03809-.01904-1.10254-.01904-1.61426-2.71631,.0752-4.50244,.13281-5.33789,.18945q-2.86865,.20898-3.38184,.28516l-.07568-2.26074c.41797,.03809,.58887,.03809,.93066,.03809,.4751,0,.77881,0,3.22949-.0957,1.23486-.03711,1.4248-.03711,2.98242-.07617q.62695-.01855,1.61475-.05664-.01855-1.80469-.11377-2.29883l2.39355-.01855c-.07568,.58887-.07568,.62695-.09473,2.26074,3.30518-.01953,4.78711-.05664,5.49023-.13281l.01855,2.18457c-.70264-.05762-1.61475-.09473-3.19141-.09473-.45605,0-.79785,0-2.29834,.03711v1.23535l-.01904,1.63379Zm-3.87549,.18945c-.96875,0-1.76709,.68457-1.76709,1.51953,0,.875,.66504,1.50195,1.61475,1.50195,1.08301,0,1.86182-.72266,1.86182-1.71094,0-.79688-.66455-1.31055-1.70947-1.31055Z" fill="#44c38b"/>
        <path d="M340.95282,111.32875c0,.07617,.01904,.22852,.01904,.45605,.41748,.87402,.60791,1.65234,.60791,2.67871,0,2.07031-.98828,3.85547-2.83105,5.12891-.79785,.55078-1.67139,.94922-3.43848,1.55762-.53174-1.17773-.72168-1.46191-1.34863-2.14648,1.55762-.30371,2.33691-.56934,3.22949-1.10254,1.29199-.74023,2.05176-1.70898,2.20361-2.77344-.55078,.875-1.53857,1.34961-2.79248,1.34961-.87402,0-1.55762-.20898-2.20361-.68359-.89307-.64648-1.31104-1.48242-1.31104-2.56543,0-2.01367,1.57715-3.45703,3.78076-3.45703,.81689,0,1.53857,.20801,1.97559,.56934q-.01904-.09473-.01904-.22754c-.01904-.03809-.01904-1.10254-.01904-1.61426-2.71631,.0752-4.50244,.13281-5.33789,.18945q-2.86865,.20898-3.38184,.28516l-.07568-2.26074c.41797,.03809,.58887,.03809,.93066,.03809,.4751,0,.77881,0,3.22949-.0957,1.23486-.03711,1.4248-.03711,2.98242-.07617q.62695-.01855,1.61475-.05664-.01904-1.80469-.11377-2.29883l2.39355-.01855c-.07568,.58887-.07568,.62695-.09473,2.26074,3.30518-.01953,4.78711-.05664,5.49023-.13281l.01855,2.18457c-.70264-.05762-1.61475-.09473-3.19141-.09473-.45605,0-.79785,0-2.29834,.03711v1.23535l-.01904,1.63379Zm-3.87549,.18945c-.96875,0-1.76709,.68457-1.76709,1.51953,0,.875,.66504,1.50195,1.61523,1.50195,1.08252,0,1.86133-.72266,1.86133-1.71094,0-.79688-.66455-1.31055-1.70947-1.31055Z" fill="#44c38b"/>
        <path d="M354.31073,104.86977c.01904,.72168,.22803,2.08984,.45557,3.05859,1.29199-.53223,2.41309-.75977,3.6665-.75977h.51318c.39893-1.61523,.53174-2.31836,.55078-2.94531l2.39355,.47559c-.11377,.22754-.15186,.36035-.18994,.53223-.26562,1.02539-.5127,1.95605-.58887,2.22266,1.12109,.28516,1.80469,.58789,2.5459,1.13867,1.51953,1.12109,2.31738,2.73633,2.31738,4.71191,0,2.79199-1.61475,5.05371-4.44531,6.25-.91162,.39941-1.63379,.6084-3.09668,.91211-.28467-.9502-.45557-1.27246-1.17773-2.22266,1.31104-.11426,2.05176-.28516,3.09668-.74121,1.29199-.55078,2.14648-1.21582,2.65967-2.0332,.41797-.70215,.646-1.5,.646-2.33594,0-1.25391-.43701-2.20312-1.38721-2.94531-.5127-.39844-.93066-.58789-1.70947-.81641-.75977,2.60352-2.0708,5.28125-3.45752,7.08594-.68408,.87402-1.50098,1.65234-2.26074,2.08984-.58887,.36133-1.12061,.51367-1.7666,.51367-1.95703,0-3.26758-1.71094-3.26758-4.27539,0-2.33594,1.06396-4.34961,3.03955-5.83203-.09521-.28516-.43701-1.9375-.646-3.00195-.03809-.24609-.07568-.36035-.18994-.64453l2.29883-.4375Zm-2.4126,9.85938c0,1.23438,.53174,2.08984,1.2915,2.08984,.53223,0,1.14014-.41797,1.78564-1.23438-.87354-1.91992-1.17773-2.79297-1.55762-4.37012-1.06396,1.12109-1.51953,2.18457-1.51953,3.51465Zm4.521-1.00684c.05713-.13281,.05713-.15137,.11426-.24707,.75977-1.29102,1.27295-2.48828,1.89941-4.38867-1.31055,0-2.26025,.20898-3.26709,.75977,.30371,1.31152,.55078,2.08984,1.13965,3.59082,.05713,.15234,.07617,.19043,.09473,.28516h.01904Z" fill="#44c38b"/>
        <path d="M377.90838,115.37563c-1.08301,2.4502-2.29883,3.57031-3.85645,3.57031-2.16602,0-3.72363-2.20312-3.72363-5.26172,0-2.08984,.74072-4.04688,2.08984-5.52832,1.5957-1.74707,3.8374-2.65918,6.53467-2.65918,4.55957,0,7.52295,2.77344,7.52295,7.04785,0,3.28613-1.70947,5.9082-4.61621,7.08594-.91162,.37988-1.65283,.56934-2.98242,.79785-.32324-1.00684-.55127-1.4248-1.15869-2.22266,1.74756-.22852,2.88721-.53223,3.78027-1.04492,1.65283-.91211,2.64062-2.7168,2.64062-4.75,0-1.82324-.81689-3.30469-2.33691-4.2168-.58887-.3418-1.08252-.49414-1.91846-.57031-.36084,2.98242-1.02588,5.60449-1.97559,7.75195Zm-2.79297-6.80176c-1.5957,1.13965-2.5835,3.09668-2.5835,5.12988,0,1.55664,.66504,2.79199,1.50098,2.79199,.62695,0,1.27246-.79785,1.95654-2.43164,.72168-1.70996,1.34863-4.27441,1.57666-6.4209-.98779,.11328-1.67188,.37988-2.45068,.93066Z" fill="#44c38b"/>
        <path d="M391.64618,108.6686c1.4248,.79883,1.86182,1.10254,3.30566,2.24219l-1.19678,1.72852c-1.23486-1.1582-1.78564-1.55762-3.28662-2.43164l1.17773-1.53906Zm3.57129,6.57324c-.96875,2.52637-1.72852,4.1416-2.83057,5.96582l-1.80469-1.63477c.26611-.24609,.41797-.43652,.70312-.85449,.89258-1.3291,1.4248-2.46973,2.22266-4.72949l1.70947,1.25293Zm-2.48828-11.22754c1.36768,.85547,2.05176,1.36816,3.38135,2.5459l-1.29199,1.65332c-1.34863-1.31055-2.05127-1.88086-3.38135-2.7168l1.29199-1.48242Zm12.19629,8.33984c.58887,0,.96875-.01855,1.36768-.05664-1.67188-2.01367-2.96387-4.44531-4.08447-7.61719l1.99463-.79883c.32324,1.17773,.74072,2.26074,1.31104,3.36328,.85449,1.65234,1.72852,2.81055,2.90625,3.83691-.62695,.47559-1.04492,.91211-1.67139,1.74707l-.26611-.30273c-.03809,.41797-.05713,.87305-.05713,1.57617v4.93945c0,1.04492,.01904,1.57617,.09521,2.20312h-2.16602v-.96875h-5.7749v.96875h-2.14697c.07617-.70312,.09521-1.29102,.09521-2.12695v-5.05371c0-.72168-.01904-1.13965-.05713-1.57715-.41797-.45508-.91162-.81641-1.5957-1.17773,1.50098-1.34766,2.27979-2.52637,3.05859-4.57812,.37988-.98828,.60791-1.86133,.75977-2.79297l2.03271,.72266c-.62695,2.43164-.87354,3.15332-1.55762,4.54004-.60791,1.23535-1.23486,2.16602-2.10889,3.13477,.37988,.01855,.58887,.01855,1.08301,.01855h6.78223Zm-6.34521,5.98438h5.7749v-4.08398h-5.7749v4.08398Z" fill="#44c38b"/>
        <path d="M411.99579,111.86c.3418,.03906,.49365,.05762,.89258,.05762h.58887c.4751-.6084,.62695-.81738,1.04492-1.4248-1.02588-1.29199-1.50049-1.82422-2.56445-2.79297l.98779-1.63281,.70312,.74023c.77881-1.23438,1.31055-2.39355,1.48145-3.17188l1.84277,.68359c-.11377,.1709-.20898,.36133-.41797,.79688-.47461,.96973-1.08252,2.0332-1.72852,3.00195q.32275,.39941,.70264,.89258c.87402-1.34766,1.53906-2.52539,1.78564-3.20996l1.69092,.91211c-.22803,.36035-.36084,.56934-.646,1.02637-1.13965,1.78516-1.86182,2.83008-2.84961,4.10254,1.12109-.0752,1.55811-.11426,2.08984-.1709-.24707-.7793-.28516-.87402-.55078-1.51953l1.40576-.55078c.62695,1.5,.81689,2.07031,1.19678,3.5332l-1.48193,.66504q-.05664-.24707-.11377-.55176-.79785,.0957-1.40576,.15234v6.00391c0,.9873,.01904,1.40527,.11377,1.99414h-2.05176c.07617-.64648,.11426-1.1582,.11426-2.01367v-5.83203c-.11426,.01953-.36084,.01953-.76025,.03809q-1.44336,.09473-1.86133,.1709l-.20898-1.90039Zm2.35547,2.79297c-.20898,3.32422-.3418,4.29297-.77881,5.79492l-1.5957-.81738c.45605-1.40527,.58887-2.31738,.74072-5.16699l1.63379,.18945Zm4.04639-.3418c.37988,1.69141,.4751,2.33691,.62695,3.78027l-1.50098,.41797c-.09473-1.61426-.18994-2.43164-.47461-3.83691l1.34863-.36133Zm1.63379,1.00684c-.5127,0-.74072,.01855-1.10205,.07617v-1.89941c.34229,.05664,.53223,.07617,1.15918,.07617h1.2915c.43701,0,.66504-.01953,.89307-.05762l.68408,.89355c-.07617,.18945-.09521,.24609-.17139,.51172-.47461,1.48242-.85449,2.31836-1.55762,3.36328-.646,.93066-1.06396,1.42383-2.18457,2.4502-.28516-.55078-.66504-.96875-1.29199-1.51953,1.52002-1.08301,2.46973-2.28027,3.11572-3.89453h-.83594Zm5.03418-3.04004c.20898,.89355,.43701,1.46289,.93115,2.35645,.79785-.66504,1.34863-1.25391,2.03271-2.12793l1.34863,1.21582c-.94971,1.02637-1.65283,1.67188-2.46973,2.33691,.94971,1.25391,1.729,1.99414,2.94482,2.79297-.51318,.55078-.79785,.9873-1.21582,1.87988-.91211-.74121-1.38721-1.21582-1.99512-2.03223-.81689-1.04492-1.25342-1.82422-1.89941-3.45801,.11377,1.15918,.1709,1.97559,.1709,2.56543l.01904,1.65234c.01904,1.21582-.60791,1.69043-2.27979,1.69043-.01904,0-.07617,0-.11377-.01855h-.49414c-.32275,0-.3418,0-.646-.03809-.11377-.85449-.22803-1.31152-.5127-1.91895,.66504,.11426,1.10156,.1709,1.55762,.1709,.4751,0,.58887-.09473,.58887-.45605v-6.61133h-1.5957c-.66504,0-1.34863,.01953-1.88086,.07617,.05713-.49414,.07617-1.12109,.07617-1.8418v-3.43945c0-.70312-.01904-1.34863-.07617-1.86133,.49414,.05664,.93115,.07617,1.84277,.07617h1.08301c.28516-.75977,.39893-1.14062,.5127-1.67188l2.12793,.30371c-.22803,.6084-.36084,.91211-.56982,1.36816h2.1084c.9502,0,1.36816-.01953,1.84277-.07617-.05713,.57031-.07568,.98828-.07568,1.90039v3.41895c0,.85449,.01855,1.3291,.07568,1.82324-.53174-.05664-1.15869-.07617-1.80469-.07617h-1.63379Zm-3.51416-4.23633h4.93896v-1.19629h-4.93896v1.19629Zm0,2.67969h4.93896v-1.19727h-4.93896v1.19727Z" fill="#44c38b"/>
        <path d="M447.67596,120.42836c-1.57715-1.9375-3.76172-4.06543-5.83252-5.64258-2.14648,2.39453-4.33105,4.06641-7.23779,5.49023-.53174-.9873-.75977-1.29102-1.53857-2.1084,1.4624-.56934,2.37451-1.08301,3.79932-2.08984,2.86865-2.01367,5.14795-4.76855,6.38281-7.73145l.20898-.49414q-.30371,.01953-6.28809,.11328c-.91162,.01953-1.4248,.05762-2.07031,.15234l-.07617-2.43164c.53174,.0957,.89307,.11426,1.67188,.11426h.45557l6.68701-.09473c1.06396-.01953,1.21582-.03809,1.69092-.20898l1.25391,1.29102c-.24707,.28516-.39893,.55176-.60791,1.02637-.87402,2.03223-1.80469,3.68555-2.96338,5.24316,1.19678,.79785,2.22266,1.5957,3.51416,2.75488q.4751,.41797,2.77393,2.64062l-1.82373,1.97559Z" fill="#44c38b"/>
        <path d="M458.45038,111.76625c-.03809,.11328-.05713,.22754-.07617,.26562,0,.03711-.03809,.15234-.07568,.32227-.60791,2.79297-1.80518,5.52832-3.19189,7.39062-.89258-.64648-1.2915-.87402-2.20361-1.23535,1.46289-1.57715,2.94482-4.97754,3.21045-7.31348l2.33691,.57031Zm8.64355-4.06641c.39893,0,.58887,0,1.04492-.01855-.93066-.30371-1.53857-1.12109-1.53857-2.08984,0-1.19629,.98779-2.18457,2.18457-2.18457,1.21582,0,2.20361,.98828,2.20361,2.18457,0,.93066-.56982,1.72949-1.44385,2.07129v2.24121c-.62695-.07617-.91162-.09473-2.4126-.09473h-4.38818v9.21289c0,1.04492,.01855,1.61523,.09473,2.12793h-2.5835c.07568-.5127,.11377-1.08301,.11377-2.14648v-9.19434h-4.21729c-1.48193,0-1.7666,.01855-2.39355,.09473v-2.33691c.66504,.11426,1.02588,.13281,2.43164,.13281h4.1792v-1.06348c0-1.08301-.03809-1.50098-.11377-1.95605h2.56445c-.05713,.51172-.07568,.79688-.07568,2.01367v1.00586h4.3501Zm-.20898,3.49609c.58887,2.46875,2.10889,5.75586,3.36279,7.23828-.96924,.47461-1.33008,.70215-2.18506,1.31055-1.36768-2.12793-2.22266-4.08496-3.11523-7.10547-.15234-.5127-.1709-.58887-.3042-.87305l2.2417-.57031Zm.66504-5.60449c0,.68457,.55078,1.25391,1.23486,1.25391,.70264,0,1.25391-.56934,1.25391-1.25391,0-.68359-.55127-1.23535-1.25391-1.23535-.68408,0-1.23486,.55176-1.23486,1.23535Z" fill="#44c38b"/>
        <path d="M476.7287,108.87758c.79785,1.46289,1.17773,2.375,1.86182,4.50293l-2.14697,.68359c-.49365-1.91895-.87354-2.9248-1.72852-4.59668l2.01367-.58984Zm10.9043,.13281c-.11377,.28516-.15186,.38086-.26562,.96875-.55127,2.58398-1.40576,4.67383-2.62158,6.32617-1.40625,1.91992-2.98291,3.1543-5.79443,4.5791-.49365-.83594-.72168-1.12109-1.51953-1.88086,1.32959-.5127,2.1084-.93066,3.22949-1.74707,2.22266-1.61523,3.49512-3.55273,4.31201-6.59277,.24707-.93066,.34229-1.5957,.34229-2.18457l2.31738,.53125Zm-6.85791-.91113c1.00684,1.87988,1.36768,2.71582,1.84277,4.36914l-2.10889,.66504c-.36084-1.44336-.93066-2.90625-1.72852-4.46484l1.99463-.56934Z" fill="#44c38b"/>
        <path d="M494.62665,120.65688c.09521-.6084,.11426-1.12109,.11426-2.12891v-12.17676c0-.93066-.03809-1.4248-.11426-1.9375h2.60254c-.07568,.56934-.07568,.81738-.07568,1.99512v3.5332c2.60254,.91211,5.58496,2.29883,8.62451,4.00781l-1.32959,2.24219c-1.57715-1.08301-3.55273-2.16602-6.7251-3.62891-.43701-.20898-.49414-.22754-.646-.32227,.05713,.53125,.07617,.75977,.07617,1.29102v5.01562c0,.98828,.01904,1.48242,.07568,2.10938h-2.60254Z" fill="#44c38b"/>
      </g>
      <rect width="427.11677" height="75.82553" fill="#fff" opacity=".98"/>
      <g>
        <g>
          <path d="M84.22849,53.37384l.52514-1.51893,.52405-1.519,.52898-1.51632,.52913-1.51707,.53713-1.51704,.52143-1.52218,.53111-1.51731,.5292-1.51915,.52028-1.52419,.53159-1.51837,.53037-1.52078,.52753-1.52082,.53871-1.51854,.51513-1.52192,.53679-1.51443,.53227-1.52163,.5225-1.52221,.52936-1.52212,.53539-1.52194,.52755-1.52223,.52393-1.52749,.52935-1.52836,.53976-1.52201,1.85454-.01046,1.85978,.00695,1.86314-.00528,.52427,1.52562,.52382,1.51908,.5345,1.5144,.52714,1.51776,.52475,1.52134,.52859,1.51969,.53095,1.51737,.52354,1.52112,.52967,1.52093,.53664,1.51661,.52359,1.52314,.5265,1.52117,.53407,1.52015,.52583,1.5182,.52948,1.51698,.5315,1.5219,.52996,1.51962,.53234,1.52108,.52646,1.52505,.52447,1.52331,.53505,1.52362,.53482,1.52646,.52769,1.53135-1.55725,.00363-1.55851-.00705-1.56102,.00248-1.55772-.0053-.48532-1.44196-.47326-1.4472-.46657-1.45315-.47746-1.45216-.4829-1.45081-1.57696,.00688-1.57394-.00184-1.57606-.00991-1.57783,.00402-1.57559,.00159-1.57927,.00046-1.58182,.00264-1.58334-.00542-.46991,1.45224-.48544,1.44319-.46863,1.45247-.48611,1.44932-.47419,1.4498-1.56432,.00786-1.57116-.00977-1.5737,.00617-1.57149-.00131Zm10.28644-12.31568l1.55423-.00289,1.55374-.00406,1.55153,.00148,1.55516,.00137,1.55767,.00894,1.55661-.00701-.51345-1.56564-.5173-1.57117-.52601-1.56542-.51475-1.57147-.51717-1.57263-.519-1.56955-.50947-1.57676-.53251-1.57198-.5131-1.58088-.52141,1.56659-.51177,1.57299-.5171,1.56836-.52325,1.56867-.51672,1.57278-.51109,1.57216-.51689,1.57432-.5299,1.57284-.51803,1.57896Z" fill="#44c38b"/>
          <path d="M133.19552,34.36375l-.9685-1.06524-1.25831-.69032-1.42273-.21533-1.62583,.27069-1.40385,.85478-.97786,1.3264-.50875,1.57114-.14863,1.64984-.0031,1.69483,.00576,1.70044,.00109,1.69763-.00772,1.69991,.00094,1.70183-.00021,1.6994,.00062,1.70338,.00493,1.70612-.00439,1.7028-1.80302,.00436-1.80908,.00181-1.80569-.00647-.00015-1.68524-.00429-1.68699-.00052-1.68896,.00437-1.68802-.00359-1.68962,.0041-1.68485-.00787-1.68489,.00357-1.69046,.00328-1.68767-.0044-1.68994,.00206-1.69184-.0035-1.68943,.00178-1.69339-.00212-1.69612,.00134-1.69877,1.77494,.00043,1.77525,.00107,1.77232,.00343,.00167,2.2792,1.08246-1.2344,1.38632-.87722,1.56836-.48742,1.64189-.13391,1.67002,.12233,1.61697,.42712,1.48277,.77032,1.2624,1.09553,1.01503,1.33192-1.43814,1.00852-1.43529,1.01699-1.43673,1.01431Z" fill="#44c38b"/>
          <path d="M160.27069,49.51972l-1.02219,1.44512-1.31119,1.17752-1.54394,.84477-1.68694,.51819-1.7459,.25907-1.76826,.07177-1.6418-.0898-1.61937-.27212-1.5651-.49699-1.46933-.73028-1.32265-.97159-1.12574-1.19349-.8955-1.3736-.67434-1.49432-.44861-1.57767-.2641-1.62026-.07499-1.64134,.00115-1.72362-.004-1.72362,.06673-1.59083,.19377-1.57885,.36008-1.54824,.55355-1.48949,.77839-1.38584,1.02981-1.20799,1.23534-.99545,1.40658-.73432,1.51392-.47917,1.56605-.26669,1.58906-.0774,1.61415,.07832,1.58945,.27592,1.53262,.50098,1.41783,.76547,1.23543,1.03227,1.00249,1.26067,.75333,1.42431,.52574,1.52278,.33383,1.57853,.18365,1.60381,.04751,1.61544,.00483,1.39409,.00259,1.39793-1.68119-.00107-1.68355-.00738-1.68077,.00745-1.68303,.002-1.68492-.00811-1.68252,.00324-1.68646,.00057-1.68918,.0031-1.68933-.00613-.00372,.1039,.10603,1.6938,.35638,1.65509,.71657,1.53105,1.15158,1.23089,1.52113,.723,1.67789,.21234,1.52096-.09143,1.47227-.3866,1.27387-.82297,.95401-1.18144,1.35311,.94068,1.34764,.95389,1.35931,.94017Zm-14.75441-11.66155l1.60926,.00225,1.61285,.00455,1.61055-.00236,1.61432-.00255,1.61692-.00225,1.61531,.00084-.20314-1.65532-.52154-1.58159-.98748-1.329-1.45399-.78491-1.6482-.21644-1.64121,.23276-1.44395,.80239-.9943,1.32369-.55348,1.56469-.23194,1.64324Z" fill="#44c38b"/>
          <path d="M175.27186,38.41701l1.82302-.00077,1.82596,.00217,1.82316-.00024-.00081-2.12671-.12324-1.51749-.61413-1.37679-1.26286-.81482-1.49037-.28699-1.52447-.06223-1.53717,.05473-1.50943,.27732-1.31593,.76222-.95942,1.18596-1.30139-.90685-1.30146-.91354-1.29743-.9164,.918-1.27291,1.15599-1.06402,1.34792-.80419,1.47273-.53795,1.54112-.31804,1.56461-.16291,1.57669-.04156,1.7142,.05108,1.70818,.18957,1.66877,.39832,1.56631,.68947,1.34296,1.0541,.99147,1.38923,.60556,1.59913,.30828,1.6832,.08145,1.71299,.00446,1.70143-.00659,1.69729,.00034,1.7029,.00623,1.70009-.00864,1.70237,.00613,1.70429,.00174,1.70186-.0021,1.70585-.00226,1.7086,.00379,1.71225-1.77592,.00151-1.77525-.01007-1.77122,.00184-.00905-2.32795-1.06529,1.33592-1.43792,.9194-1.65676,.42422-1.71553,.10794-1.69894-.09209-1.66932-.32081-1.5956-.58475-1.44553-.88894-1.17876-1.21945-.83342-1.47642-.46628-1.63197-.13941-1.69405,.1565-1.70668,.50655-1.63294,.91811-1.43925,1.28342-1.12527,1.51868-.78085,1.64108-.48629,1.6945-.25407,1.71397-.08098Zm5.47287,4.16338l-1.68591,.00144-1.6907-.00217-1.6907,.00153-1.60417,.1179-1.52419,.49781-1.08132,1.15678-.3052,1.56966,.31081,1.49936,1.02706,1.12522,1.43785,.53298,1.53636,.14072,1.75945-.13515,1.65614-.58285,1.18635-1.278,.53876-1.66906,.1367-1.76247-.00728-1.21371Z" fill="#44c38b"/>
          <path d="M227.53744,42.27329l-.06543,1.63283-.2264,1.61676-.39969,1.58431-.61045,1.51271-.8379,1.39888-1.07291,1.22719-1.28944,.99657-1.44843,.74524-1.55644,.48781-1.60849,.27149-1.6322,.08568-1.63164-.0918-1.60854-.27334-1.5532-.50189-1.44815-.75093-1.28718-1.00049-1.08766-1.21456-.84854-1.39227-.62502-1.50587-.41309-1.57878-.22462-1.61718-.07158-1.63235,.005-1.59683-.00742-1.59683,.0732-1.63382,.21327-1.61999,.40372-1.58308,.61555-1.51201,.85468-1.39053,1.08683-1.21549,1.2986-.98566,1.45548-.73414,1.55866-.4814,1.60936-.27134,1.63228-.08008,1.63017,.0771,1.60678,.2741,1.55593,.48467,1.4513,.73921,1.29231,.98862,1.08721,1.21156,.83917,1.39501,.60727,1.50978,.39681,1.58055,.21761,1.61582,.066,1.63111-.00864,1.59683,.00586,1.59683Zm-5.37478-.15204l-.00275-1.47011,.0061-1.47011-.095-1.65774-.33433-1.62499-.68712-1.50504-1.12871-1.20121-1.48957-.7025-1.64161-.19985-1.65115,.19701-1.49998,.70125-1.13466,1.20276-.70232,1.50304-.33864,1.62449-.09587,1.66279-.0012,1.47011-.00327,1.47011,.09794,1.68952,.32443,1.65618,.68054,1.54078,1.13406,1.2364,1.51539,.71899,1.67473,.20336,1.65472-.21763,1.48202-.75792,1.1112-1.2387,.67573-1.52547,.34643-1.63429,.10288-1.67124Z" fill="#44c38b"/>
          <path d="M234.73627,28.02952l-.00539-1.57278,.0723-1.69234,.26134-1.67097,.56462-1.59219,.99551-1.35678,1.4031-.92952,1.60359-.52632,1.67504-.22329,1.69172-.07573,1.57146,.0068-.00602,1.62036,.00312,1.62309,.00086,1.62154-1.1638,.00314-1.56375,.19866-1.23189,.92275-.42679,1.50509-.07577,1.5795,.00279,.55842,1.48572-.00452,1.48783-.00054,1.48773,.00439-.00489,1.5529,.00404,1.55549-.00344,1.5513-1.48105,.00353-1.48783,.00638-1.49104-.00873,.00019,1.59295-.00186,1.58906,.00153,1.59056-.00185,1.58607,.00434,1.58611,.00218,1.59136-.00374,1.58873-.0022,1.59086-.00076,1.59266,.00052,1.59039,.00227,1.59411-.00399,1.59668,.011,1.60164-1.7937,.0005-1.79217-.00753-1.79337,.00343,.00599-1.59131-.00195-1.58906-.00939-1.59056,.0063-1.58607,.00495-1.58611-.00232-1.59136,.00461-1.58873-.00693-1.59086,.00373-1.59266,.00099-1.59039-.0006-1.59411,.00147-1.59668-.00798-1.59432-1.61989-.0018-1.62064-.00221,.0044-1.55135-.00874-1.55549,.00551-1.55264,1.61947,.00336,1.62351-.00489Z" fill="#44c38b"/>
          <path d="M265.50444,46.17239l1.00548,1.0943,1.24175,.80655,1.399,.48516,1.47514,.15507,1.58254-.13936,1.50548-.49514,1.24771-.97176,.85771-1.3323,.51224-1.5035,.2921-1.56184,.14025-1.58134,.0442-1.59235,.00181-1.62503-.00361-1.62412-.0006-1.62566,.01079-1.62107-.00432-1.62111-.00469-1.62647,.00328-1.62379,.00192-1.62597-.00401-1.6278-.00167-1.62548,.00788-1.62929v-1.63191s-.00201-1.62981-.00201-1.62981l1.46404,.00013,1.46982-.00412,1.47219-.00509,1.46956,.00935,.00492,1.62265,.00057,1.62412,.00227,1.62566-.00226,1.62107-.00995,1.62111,.00891,1.62647-.00153,1.62379-.00189,1.62597-.00476,1.6278,.00844,1.62548-.00589,1.62929,.00733,1.63191-.00213,1.63191-.0457,1.63872-.12329,1.63129-.23469,1.62133-.37555,1.59384-.52983,1.54763-.72994,1.46414-.9472,1.33188-1.15802,1.15058-1.3509,.91642-1.49228,.66064-1.57451,.43227-1.61648,.24086-1.6348,.06513-1.69381-.08761-1.67856-.24897-1.62882-.47077-1.55278-.67946-1.42463-.91793-1.26191-1.13094-1.04758-1.32727,1.63461-.93087,1.64233-.92579,1.63634-.9386Z" fill="#44c38b"/>
          <path d="M298.86167,38.41568l1.82302,.00281,1.82596,.00134,1.82678,.00143-.00457-2.12981-.1244-1.51723-.6137-1.37632-1.26429-.80872-1.48828-.29158-1.52426-.05784-1.53713,.04853-1.50801,.28126-1.31651,.75882-.96245,1.19328-1.30064-.91313-1.30213-.91258-1.2992-.91653,.92561-1.27246,1.15157-1.0682,1.34573-.80943,1.47481-.53464,1.54099-.32142,1.56558-.15587,1.57664-.04343,1.71443,.0486,1.70681,.19995,1.66832,.39639,1.56965,.68155,1.34121,1.05709,.98839,1.39084,.60922,1.59738,.30253,1.6839,.0894,1.71244-.00002,1.70143-.00078,1.69729-.00082,1.7029-.0059,1.70009,.00632,1.70237,.00099,1.70429-.0004,1.70186-.00328,1.70585,.00479,1.7086-.00313,1.70962-1.77339-.00616-1.77525,.00804-1.77597-.00237-.00108-2.33214-1.0681,1.33694-1.43813,.91943-1.65648,.42722-1.71601,.09902-1.69822-.09276-1.67168-.30855-1.59778-.5829-1.43727-.90247-1.18286-1.21415-.82777-1.47863-.46646-1.63053-.13894-1.69304,.14226-1.70816,.51414-1.63164,.91238-1.44435,1.28499-1.12681,1.52228-.77645,1.64076-.48978,1.69536-.25258,1.71438-.0779Zm5.4721,4.16578l-1.68513-.00189-1.6907-.00134-1.6907-.00181-1.60415,.12281-1.52355,.49883-1.08095,1.1561-.29903,1.56918,.30563,1.49839,1.02853,1.12056,1.43443,.5382,1.53627,.13653,1.75923-.13183,1.65186-.58886,1.1887-1.27188,.53735-1.66849,.1355-1.76186-.00327-1.21264Z" fill="#44c38b"/>
          <path d="M339.2576,42.37469l-.06613,1.72045-.25069,1.70374-.45454,1.66012-.67649,1.58262-.94249,1.4375-1.18373,1.24531-1.42483,.95881-1.58397,.66545-1.67913,.37162-1.71799,.1073-1.6657-.08865-1.6394-.31145-1.53406-.6384-1.29594-1.0363,.0008,1.60389,.00571,1.6057-.009,1.60751,.00117,1.60522-.00144,1.60898-.00149,1.61157,.00544,1.61168-1.80626,.00646-1.80908-.0121-1.80482,.00089-.0084-1.65641,.01032-1.66184-.00172-1.66452-.00681-1.66421,.00391-1.66275-.00055-1.66389-.00532-1.66579,.00328-1.66394,.00048-1.66588,.00046-1.66495-.00145-1.66653,.0014-1.66182,.00367-1.66186,.00103-1.66736-.00227-1.66461-.00769-1.66684,.01206-1.66873-.00138-1.66635-.00832-1.67025,.00949-1.67294-.01124-1.67809,1.81093,.00231,1.80908,.00733,1.80889-.00433-.00055,2.02784,1.25892-1.17143,1.53254-.7836,1.67276-.40898,1.72116-.11874,1.70487,.10874,1.66454,.38102,1.57769,.65065,1.40914,.96049,1.19811,1.21374,.93867,1.42494,.67469,1.56653,.44103,1.64937,.25213,1.68943,.07846,1.70908,.00318,1.72364-.01315,1.72361Zm-5.36015-.25345l-.0115-1.47011,.00117-1.47011-.08933-1.65766-.34096-1.62282-.67689-1.50919-1.1348-1.19498-1.48595-.70854-1.64206-.20055-1.59601,.19291-1.46208,.65275-1.12876,1.13486-.70645,1.4407-.36058,1.56272-.12079,1.60558,.00085,1.62222,.00571,1.62222,.0787,1.68598,.31887,1.65346,.66247,1.54534,1.12276,1.24488,1.51502,.71316,1.67029,.19715,1.65523-.21061,1.48763-.75175,1.09988-1.24985,.69153-1.51893,.34369-1.63659,.10235-1.67224Z" fill="#44c38b"/>
          <path d="M354.47233,38.42147l1.82307-.00612,1.82601,.0081,1.82225-.00612,.00193-2.12588-.1295-1.51661-.60901-1.37829-1.26474-.81083-1.48915-.29153-1.5246-.05566-1.53754,.04481-1.50939,.28079-1.31893,.75953-.95707,1.19346-1.30265-.90737-1.30071-.91454-1.30131-.91459,.92354-1.27693,1.15273-1.06831,1.34844-.80561,1.47464-.5349,1.54118-.31982,1.56531-.15743,1.57661-.04052,1.71444,.04541,1.70691,.19942,1.66993,.39168,1.56496,.69195,1.34587,1.05036,.98706,1.39225,.60941,1.59741,.30711,1.6835,.08605,1.71298-.0039,1.70143-.00394,1.69729-.00029,1.7029,.00183,1.70009,.00404,1.70237-.00455,1.70429,.00223,1.70186,.0048,1.70585-.00096,1.7086-.0011,1.71173-1.77541-.00737-1.77525-.00006-1.77231,.00207-.00364-2.32955-1.07051,1.33574-1.43641,.92188-1.65728,.42359-1.71567,.1113-1.69882-.09734-1.66965-.319-1.59592-.58443-1.44225-.8935-1.17862-1.21817-.83573-1.4745-.45987-1.63295-.14636-1.69283,.15154-1.70759,.50757-1.63379,.91756-1.44131,1.28774-1.12161,1.5176-.7837,1.64179-.4854,1.69495-.25181,1.71395-.07666Zm5.47562,4.15529l-1.68854,.00594-1.69073-.0081-1.69073,.00785-1.60447,.11487-1.52164,.50352-1.08441,1.15244-.3008,1.57005,.30619,1.49987,1.03096,1.12011,1.43411,.54202,1.53724,.13739,1.76033-.1313,1.65324-.59111,1.18493-1.27657,.53955-1.66763,.13258-1.76202,.00219-1.21734Z" fill="#44c38b"/>
          <path d="M373.32842,28.02658l1.77393,.00274,1.77525-.0046,1.77439,.00413-.0022,2.28119,1.23816-1.28014,1.55126-.86596,1.71849-.4608,1.78121-.12775,1.71851,.09731,1.6847,.35067,1.59291,.64618,1.41273,.97669,1.13423,1.28984,.81273,1.51009,.51583,1.64151,.27633,1.69738,.08101,1.72298-.00483,1.58145-.00108,1.58149,.00593,1.58672-.00646,1.58411,.00359,1.58623,.0037,1.58802-.00836,1.58576,.00221,1.58947,.00615,1.59203-.00076,1.595-1.79194-.00298-1.79219-.00237-1.79295,.00319,.00073-1.69003-.00052-1.69481-.00441-1.69202,.00237-1.69429,.00127-1.6962,.00459-1.69378-.00757-1.69774,.00652-1.70048-.00539-1.70048-.11322-1.71878-.47011-1.65446-1.00802-1.37622-1.51642-.77943-1.70493-.20433-1.72426,.23779-1.55174,.77876-1.13646,1.31047-.62643,1.62145-.17853,1.73413-.00302,1.69483-.00143,1.70044,.00043,1.69763,.00167,1.69991-.00192,1.70183-.00084,1.6994-.00388,1.70338,.00106,1.70612,.00605,1.70845-1.80836,.00257-1.80908-.00094-1.8103-.00265,.00577-1.69018-.0088-1.68699,.00342-1.68896-.00051-1.68802,.00476-1.68962,.00121-1.68485-.00429-1.68489-.00544-1.69046,.00877-1.68767-.0018-1.68994,.00107-1.69184-.00176-1.68943,.00397-1.69339-.00238-1.69612-.00429-1.69772Z" fill="#44c38b"/>
        </g>
        <path d="M48.05309,51.2342l1.85812-1.50261,.89382-1.35536,.88275-1.36135,.85023-1.38584,.8394-1.38593,.80713-1.409,.8013-1.41527,.75897-1.43941,.72159-1.46013,.69715-1.47376,.63407-1.50323,.57809-1.52303,.49368-1.55228,.36216-1.5864,.13692-1.61464-.0953-1.60016-.31113-1.57248-.51567-1.51761-.70995-1.43717-.90011-1.32522-1.05511-1.20462-1.19948-1.06173-1.33154-.89124-1.43611-.71077-1.51669-.5169-1.57336-.30417-1.59892-.11269-1.60055,.10366-1.57129,.31715-1.51529,.5202-1.43669,.70865-1.3307,.89143-1.20433,1.05597-1.05758,1.20304-.88719,1.3334-.70927,1.43565-.52683,1.51284-.30245,1.57383-.11168,1.59893,.15624,1.61304,.35267,1.58468,.49415,1.5479,.57368,1.52115,.63728,1.4953,.68641,1.47501,.7235,1.46002,.77083,1.43625,.78659,1.42703,.82109,1.40385,.83045,1.40194,.86537,1.37782,.86726,1.37236,.90923,1.34449,1.84978,1.50186-1.64727,.00211-1.6459,.00693-1.6481,.00373-1.64996-.00918-1.64761,.00686-1.65147,.00199-1.65413-.00325-1.6536-.00324,.00233,2.03669-.00579,2.03951,1.66147-.00664,1.65968,.01057,1.66157-.00653,1.65972,.00675,1.66166-.00247,1.66073-.00888,1.6623,.00718,1.65761-.00733,1.65765,.00975,1.66314,.0022,1.66039-.00316,1.66262-.00073,1.6645-.00174,1.66213,.00468,1.66602-.00818,1.6687,.00399,1.66616-.00391,.00704-2.03504-.00651-2.03549-1.64659-.00414-1.64588,.00244-1.64809-.00449-1.64995,.00641-1.6476-.00241-1.65145,.00372-1.65411-.00575-1.65412,.0026Zm-6.88029-21.96824l.20366-1.54137,.58801-1.43907,.95333-1.22787,1.22748-.95359,1.43876-.58935,1.54108-.20847,1.54039,.2147,1.43568,.59189,1.23775,.94027,.94083,1.23719,.60206,1.43312,.19885,1.54256-.20806,1.54105-.59872,1.4325-.93718,1.23901-1.23712,.94003-1.43448,.59456-1.54,.2018-1.54097-.20172-1.4399-.58579-1.2323-.94922-.94135-1.23663-.59492-1.43499-.2029-1.54062Z" fill="#44c38b"/>
      </g>
    </g>
  </g>
</svg>