<?xml version="1.0" encoding="UTF-8"?>
<svg id="_レイヤー_2" data-name="レイヤー 2" xmlns="http://www.w3.org/2000/svg" width="484.77931" height="132.25493" viewBox="0 0 484.77931 132.25493">
  <g id="_レイヤー_2-2" data-name="レイヤー 2">
    <g>
      <rect x=".3265" width="484.45282" height="75.82553" fill="#fff" opacity=".98"/>
      <g>
        <g>
          <path d="M105.15687,28.87757l-.46808-1.6768-.744-1.56402-1.08153-1.34758-1.42771-.96924-1.64708-.52384-1.72717-.14328-1.62553,.13676-1.55656,.4826-1.35468,.90254-1.04187,1.24828-.72982,1.45867-.47073,1.55902-.27524,1.61137-.14931,1.62705-.05067,1.63712-.00038,1.49595,.00966,1.49836,.00067,1.49836,.03309,1.63432,.15245,1.62523,.29245,1.6059,.47255,1.56289,.72354,1.45944,1.05175,1.2398,1.3467,.9069,1.54885,.49528,1.62307,.1393,1.7371-.13812,1.65805-.51268,1.4428-.95774,1.07749-1.36046,.71998-1.5803,.46305-1.67138,1.88496-.00512,1.89001-.00122,1.88844,.00445-.3255,1.6948-.46699,1.66463-.64051,1.60533-.85041,1.50359-1.06499,1.35918-1.27345,1.16384-1.45403,.92755-1.58012,.69312-1.66961,.43965-1.7086,.25384-1.72767,.0688-1.67492-.06669-1.65639-.25281-1.61704-.43291-1.54001-.65631-1.42632-.87537-1.26372-1.09568-1.08776-1.27007-.88104-1.4227-.69302-1.52376-.52602-1.58729-.37671-1.631-.24383-1.65787-.14341-1.6705-.03464-1.67782-.00725-1.49595-.0019-1.49836,.00279-1.49836,.04826-1.67831,.13679-1.67067,.24209-1.65804,.36998-1.63559,.53697-1.58676,.68912-1.52611,.8937-1.41527,1.08235-1.27578,1.26661-1.09161,1.42096-.88182,1.54359-.64267,1.61192-.44507,1.65646-.23738,1.67241-.08388,1.72537,.08449,1.70585,.26187,1.66138,.46565,1.58213,.6886,1.44696,.93922,1.27509,1.16116,1.0714,1.35045,.87057,1.48803,.65885,1.5951,.48635,1.65639,.3284,1.68966-1.90181,.01256-1.90704-.00304-1.90794,.00018Z" fill="#1d868c"/>
          <path d="M137.57362,53.17338l-1.78225,.00126-1.78783-.00329-1.79021,.00671,.00271-2.29939-1.15864,1.37722-1.56084,.88559-1.75469,.39553-1.80582,.09977-1.73742-.10872-1.70438-.35225-1.60807-.6619-1.42333-.99473-1.15256-1.29889-.82107-1.53059-.53575-1.65422-.2769-1.71618-.08197-1.74121-.00623-1.58759,.00328-1.58763-.00173-1.59288,.00525-1.59025,.00062-1.59239,.00042-1.59419-.00134-1.59191-.00525-1.59564,.0024-1.59821-.00167-1.60142,1.82177,.0022,1.82189,.00305,1.82541-.00581-.00133,1.70498-.00088,1.70684,.00156,1.70402-.00493,1.70631-.00163,1.70823-.00043,1.7058,.00079,1.70979,.00554,1.71255-.00083,1.71255,.11606,1.74928,.47244,1.68597,1.02615,1.40237,1.54988,.78151,1.73529,.19789,1.74243-.22867,1.56289-.79445,1.12543-1.3418,.60789-1.64719,.16613-1.75392-.00061-1.70685-.00131-1.7125,.00332-1.70968,.00152-1.71197-.00433-1.7139,.00877-1.71146-.00602-1.71547,.00376-1.71823-.0016-1.71749,1.80125,.00337,1.80486-.00881,1.80834,.00101-.00211,1.70454-.00064,1.69896-.00477,1.70095,.00697,1.7-.00318,1.70161,.00366,1.70057-.00732,1.69643,.00143,1.70204,.00178,1.69923-.0037,1.70151,.00029,1.70343,.00648,1.701-.00552,1.70498,.00052,1.70773-.00006,1.70491Z" fill="#1d868c"/>
          <path d="M145.74136,17.94606l1.82165,.00411,1.82189-.00265,1.82176,.00156-.0019,1.61824,.00007,1.62023-.00124,1.61843,.00414,1.62032,.00142,1.61941-.00047,1.62095,.00076,1.61637-.0069,1.61641,.00089,1.62176,.00564,1.61908,.00298,1.62126-.00267,1.62308-.00007,1.62077-.00035,1.62457,.00312,1.62718-.00934,1.62718,.11358,1.73876,.61547,1.61028,1.42707,.9383,1.73283,.20343,.00214,1.60003-.011,1.60054,.00104,1.59949-1.59135-.04157-1.58444-.17137-1.55552-.34008-1.47434-.6005-1.27194-.94838-.94614-1.27195-.55876-1.48662-.27484-1.5625-.08729-1.59149,.00187-1.69803,.00592-1.69996-.00849-1.69808,.00422-1.70006-.00398-1.69911,.01156-1.70072-.00695-1.69969-.00165-1.69554-.00078-1.70115-.00317-1.69834,.01129-1.70062-.00401-1.70254,.00392-1.70012-.00079-1.7041-.00398-1.70684-.00292-1.70971Z" fill="#1d868c"/>
          <path d="M160.39632,27.64923l1.63367,.00516,1.63073-.00784,.00657-1.86734,.00217-1.87298-.00386-1.87117,1.80009,.00171,1.80488-.00539,1.8081-.00124-.00875,1.87307,.00441,1.87298,.00309,1.87108,1.79998,.00034,1.80486-.00013,1.80152,.00554,.00042,1.56011,.00439,1.56648,.00197,1.57044-1.80539-.00189-1.80486-.00371-1.80516,.00132,.00567,1.66619-.00924,1.6681-.00028,1.66998,.0053,1.66761,.00348,1.67151,.00125,1.6742-.01055,1.6742,.07605,1.59129,.43507,1.51929,1.23536,.93636,1.57671,.19171,2.0964-.00538-.00624,1.63614,.00883,1.6346-.00604,1.63444-1.25061-.0024-1.25083,.0081-1.7039-.07343-1.68745-.23103-1.62208-.52308-1.41008-.94352-1.0075-1.36347-.56798-1.60198-.25914-1.68224-.06877-1.70442,.00922-1.58773-.00783-1.58511-.0013-1.58724,.00047-1.58903,.00003-1.58677,.00984-1.59048-.00649-1.59304,.00126-1.59312-1.6338,.0032-1.63217-.00476-.00773-1.56234,.00888-1.56648-.00265-1.56642Z" fill="#1d868c"/>
          <path d="M201.23856,53.17599l-1.78476,.00175-1.78783-.00456-1.7839-.00004-.00322-2.29456-1.16379,1.37171-1.55553,.8927-1.75511,.39511-1.80595,.09689-1.73752-.10619-1.70463-.35182-1.60654-.66527-1.42627-.99056-1.14567-1.30441-.82849-1.52609-.53272-1.65535-.28117-1.71565-.07892-1.74156,.00218-1.58759-.00681-1.58763,.00725-1.59288-.00724-1.59025,.00412-1.59239-.00114-1.59419,.00106-1.59191-.00429-1.59564,.00148-1.59821-.00002-1.60104,1.82144-.00193,1.82189,.00384,1.82263,.00012-.00333,1.70201,.00425,1.70684,.00146,1.70402,.0014,1.70631-.00324,1.70823-.00542,1.7058,.00877,1.70979-.00483,1.71255-.00389,1.71255,.12222,1.74918,.4732,1.68543,1.02854,1.39849,1.54614,.78566,1.73519,.20488,1.74237-.23548,1.56436-.79246,1.12458-1.34327,.60214-1.64861,.17886-1.75282-.00734-1.70685,.00014-1.7125-.00205-1.70968,.00759-1.71197-.0067-1.7139-.00082-1.71146,.00849-1.71547-.00111-1.71823-.00608-1.72149,1.80506,.00325,1.80486,.00363,1.80416-.00288-.00098,1.70011,.00484,1.69896-.00757,1.70095,.00646,1.7,.00109,1.70161-.00752,1.70057,.00416,1.69643,.00143,1.70204-.00047,1.69923-.00035,1.70151,.0008,1.70343,.00351,1.701-.00786,1.70498,.00086,1.70773,.00209,1.70753Z" fill="#1d868c"/>
          <path d="M222.22175,34.03307l-.97318-1.08033-1.26831-.6981-1.43515-.21847-1.6375,.28089-1.41767,.85693-.98097,1.34-.51118,1.58257-.14729,1.66135-.00453,1.70685-.00219,1.7125,.00346,1.70968,.00022,1.71197,.00366,1.7139-.00126,1.71146,.00181,1.71547-.0014,1.71823-.00064,1.71984-1.82047-.00237-1.82189,.00396-1.8188-.00651-.00346-1.69754,.00396-1.69896-.00852-1.70095,.00418-1.7-.00169-1.70161,.00455-1.70057-.00058-1.69643-.00191-1.70204,.00259-1.69923-.00224-1.70151,.00288-1.70343,.00148-1.701-.00865-1.70498,.00485-1.70773,.00019-1.70698,1.78425,.00436,1.78785-.00344,1.78838-.00209-.00279,2.29823,1.08836-1.24654,1.39922-.87954,1.57927-.49113,1.65346-.14369,1.6818,.13205,1.63135,.42225,1.49084,.78269,1.26793,1.10667,1.02588,1.33901-1.4435,1.02295-1.44871,1.01961-1.44794,1.02176Z" fill="#1d868c"/>
          <path d="M249.48496,49.29522l-1.02626,1.45362-1.32111,1.18517-1.55348,.85389-1.70059,.51656-1.75813,.25896-1.78041,.07167-1.6537-.08304-1.62987-.27947-1.57618-.4993-1.48093-.73286-1.3311-.97975-1.13253-1.20271-.91178-1.3775-.66978-1.50981-.45469-1.58806-.26148-1.63241-.07887-1.65271-.00113-1.73585,.00231-1.73585,.05373-1.60289,.20245-1.58975,.35625-1.56145,.56611-1.49757,.78909-1.3922,1.03002-1.22226,1.2497-.99511,1.41457-.74154,1.52324-.48637,1.5779-.26261,1.5998-.08796,1.625,.08951,1.60289,.26561,1.5427,.5092,1.42799,.77144,1.24855,1.03581,1.00392,1.27498,.76248,1.43269,.52408,1.53557,.33511,1.58967,.18236,1.6151,.06125,1.6265-.00619,1.40398-.00055,1.39996-1.68657,.00716-1.6955-.00438-1.6927,.00467-1.69497-.00322-1.69688-.00439-1.69446,.00395-1.69843,.00258-1.70117,.00192-1.70106-.00245,.00503,.10029,.09651,1.70597,.35998,1.66673,.72303,1.54108,1.16145,1.23645,1.52818,.73517,1.69065,.20804,1.5309-.09538,1.48299-.38472,1.28326-.82767,.96039-1.18748,1.36146,.94797,1.36255,.953,1.36262,.95383Zm-14.85747-11.74304l1.62191-.00145,1.62429,.00552,1.62198-.00582,1.62578,.00302,1.6284-.00036,1.62861,.00111-.20861-1.67145-.52008-1.5947-.99603-1.3386-1.46592-.78817-1.65969-.21953-1.65354,.23312-1.44736,.81716-1.00868,1.32556-.55458,1.57677-.23646,1.65781Z" fill="#1d868c"/>
          <path d="M291.0392,41.99535l-.06473,1.64429-.22758,1.62816-.39883,1.5966-.61362,1.52446-.84712,1.4073-1.07843,1.23828-1.30244,.99888-1.45826,.75052-1.5648,.50111-1.62203,.26297-1.64351,.08622-1.64412-.08141-1.61906-.28353-1.56237-.50997-1.46096-.75072-1.30061-1.00335-1.08899-1.22954-.8579-1.40014-.62419-1.51864-.41308-1.59012-.23686-1.62703-.06377-1.64433-.00694-1.60816,.00672-1.60816,.0698-1.64522,.21328-1.63154,.41313-1.5921,.61579-1.52353,.85639-1.40286,1.09921-1.21946,1.30691-.99229,1.46298-.74415,1.5708-.48069,1.62054-.27131,1.6433-.08943,1.64173,.08115,1.61808,.27639,1.56838,.48442,1.45968,.74869,1.30548,.991,1.09142,1.22388,.84479,1.40505,.61373,1.51973,.39052,1.5937,.2229,1.62621,.07022,1.64238,.00083,1.60816-.00642,1.60816Zm-5.40754-.15312l-.00393-1.48061,.00574-1.48061-.09951-1.66915-.338-1.63559-.68851-1.51661-1.13844-1.20698-1.49729-.71282-1.65386-.20114-1.66077,.20834-1.51424,.6963-1.14343,1.21194-.69706,1.51768-.34896,1.63348-.10144,1.67456,.0049,1.48061,.00271,1.48061,.08961,1.70171,.33054,1.66712,.68032,1.55419,1.1413,1.24845,1.53106,.71469,1.68547,.21299,1.6642-.23082,1.49856-.75072,1.11721-1.25116,.67934-1.53725,.35576-1.64514,.09873-1.68406Z" fill="#1d868c"/>
          <path d="M298.28959,27.64831l-.00045-1.58173,.06847-1.70449,.26004-1.6838,.56532-1.60645,1.00641-1.36674,1.41608-.93424,1.61698-.52363,1.68579-.23259,1.70405-.07238,1.58257,.00677,.00572,1.63188-.00997,1.6346,.00913,1.63804-1.17909,.0036-1.57564,.19204-1.23443,.93506-.43109,1.51308-.07504,1.59022-.00268,.56276,1.4964-.00595,1.49839-.00166,1.49468,.01003,.0091,1.56042-.0022,1.56648-.00657,1.56326-1.4926,.00604-1.49839-.00477-1.49461,.00549-.00488,1.5977,.00645,1.60034-.00398,1.60186,.00067,1.59733-.00018,1.59737-.00744,1.60266,.01014,1.60001-.00629,1.60216,.00406,1.60397,.00116,1.60168-.00625,1.60543,.00362,1.60802,.00178,1.61097-1.80461-.00322-1.80488-.00254-1.80309,.00078-.00278-1.59921,.0033-1.60034-.0058-1.60186,.0015-1.59733-.00418-1.59737,.00774-1.60266-.00028-1.60001-.00537-1.60216,.00925-1.60397-.00468-1.60168-.00476-1.60543,.00905-1.60802-.0037-1.60912-1.63481,.00516-1.63555-.00216,.00704-1.56587-.00086-1.56648-.00875-1.57106,1.63812,.00664,1.63289-.00292Z" fill="#1d868c"/>
          <path d="M329.28036,45.92972l1.01752,1.08626,1.2453,.81697,1.40823,.48736,1.48458,.16011,1.59331-.14201,1.51461-.50003,1.25777-.97551,.85908-1.3436,.51991-1.51198,.3059-1.5712,.13627-1.59363,.0408-1.60394-.00319-1.63656,.00911-1.63564,.00088-1.63719-.00995-1.63257,.00446-1.63261,.00297-1.63801,.00356-1.63531-.00198-1.6375-.00874-1.63935,.00149-1.63701,.008-1.64085-.01024-1.64349,.00844-1.63995,1.47285-.00444,1.48025,.00773,1.48263-.01349,1.48518,.00435,.00386,1.63887-.00839,1.63564,.0069,1.63719-.00651,1.63257,.00569,1.63261-.00996,1.63801,.00748,1.63531-.00482,1.6375,.00656,1.63935,.00314,1.63701-.00837,1.64085-.00024,1.64349,.00634,1.64349-.0416,1.65071-.13896,1.64167-.23663,1.63221-.36571,1.60794-.545,1.5545-.72667,1.47831-.95581,1.34017-1.16596,1.15901-1.3644,.91587-1.49824,.67453-1.5852,.43935-1.62967,.23142-1.64596,.07469-1.70703-.08034-1.68684-.2741-1.64522-.45612-1.56107-.69162-1.43629-.92224-1.2697-1.14053-1.0583-1.33989,1.65023-.93315,1.65268-.93463,1.65066-.93658Z" fill="#1d868c"/>
          <path d="M362.87213,38.11791l1.83596,.00189,1.83892-.00331,1.83938-.00081,.00401-2.14461-.13128-1.52845-.61909-1.38665-1.2735-.81634-1.49945-.29467-1.53545-.06294-1.54774,.06108-1.51916,.27954-1.32903,.76069-.96546,1.20351-1.30633-.92348-1.31225-.91781-1.31297-.91751,.93114-1.28466,1.16061-1.07573,1.35545-.81606,1.48797-.53074,1.55087-.32672,1.57669-.15443,1.58757-.05073,1.72633,.05563,1.71743,.19074,1.68236,.39658,1.57741,.6967,1.35318,1.0618,1.00041,1.39876,.61167,1.61089,.29968,1.69724,.08736,1.72475-.00035,1.71351,.00366,1.70933,.00284,1.71498-.0047,1.71215-.00269,1.71445,.00119,1.71639,.00142,1.71394,.00279,1.71795-.0019,1.72072-.00118,1.72-1.78428-.0005-1.78785,.0052-1.78766-.00413-.00368-2.34769-1.07207,1.3482-1.44874,.92755-1.6704,.42187-1.72754,.10897-1.71037-.0971-1.68211-.31655-1.60998-.58304-1.45239-.90233-1.18535-1.22943-.83902-1.48643-.46712-1.64349-.14637-1.70527,.15774-1.71903,.505-1.64721,.92827-1.44893,1.29364-1.13334,1.52787-.79221,1.6563-.47987,1.70637-.25545,1.72595-.07735Zm5.51533,4.18168l-1.7015-.00238-1.7027,.00331-1.7027,.0006-1.61689,.11506-1.53414,.5085-1.08892,1.16563-.30278,1.58098,.30731,1.51073,1.03483,1.13411,1.44986,.53116,1.54647,.1412,1.77255-.12807,1.66375-.59624,1.20228-1.27922,.5404-1.68275,.1293-1.77528,.00286-1.22736Z" fill="#1d868c"/>
          <path d="M403.56112,42.09747l-.08292,1.73173-.24178,1.7169-.46347,1.67004-.67911,1.59408-.93991,1.45428-1.20208,1.24491-1.43114,.9721-1.59637,.66695-1.68982,.37984-1.73054,.1135-1.67736-.10089-1.64959-.31777-1.54447-.64093-1.31062-1.04112-.00127,1.61632,.00143,1.61709,.00066,1.61892-.00216,1.61661,.0002,1.6204,.01174,1.62301-.00408,1.62527-1.821-.00283-1.82191,.00637-1.81902-.00895,.00379-1.66968-.01339-1.67363,.01317-1.67634-.00547-1.67602,.00586-1.67455-.00438-1.6757-.00413-1.67761-.0029-1.67575,.0069-1.67771-.00855-1.67677,.01068-1.67835-.00373-1.67361,.00404-1.67366,.00137-1.67919-.00793-1.67642,.00524-1.67867-.00118-1.68057-.0087-1.67817,.01301-1.6821-.00765-1.68481,.00159-1.68422,1.81843-.00242,1.82191-.00035,1.82005,.00385,.00748,2.03929,1.26628-1.17138,1.53822-.79724,1.68483-.41222,1.73359-.12133,1.7162,.11824,1.67869,.37321,1.58816,.6587,1.41897,.96808,1.20564,1.2234,.94145,1.43705,.68664,1.57438,.44066,1.66221,.25882,1.70092,.07272,1.72161-.00185,1.73585,.00007,1.73585Zm-5.41089-.25524l.00478-1.48061-.00956-1.48061-.08399-1.67004-.34558-1.63461-.69166-1.51448-1.13276-1.21227-1.50025-.70702-1.65311-.20519-1.60615,.19993-1.46788,.66117-1.14375,1.13372-.71576,1.44989-.36174,1.5751-.1211,1.61755-.00106,1.63374,.00143,1.63373,.08898,1.69795,.31793,1.66613,.66896,1.55628,1.13907,1.24358,1.51967,.72465,1.68139,.20852,1.66377-.23019,1.50012-.74781,1.11815-1.25134,.67489-1.53929,.36044-1.64412,.09476-1.68435Z" fill="#1d868c"/>
          <path d="M418.87733,38.11788l1.83601-.00104,1.83896,.00051,1.84123-.00013,.00009-2.14616-.12765-1.52878-.61736-1.38913-1.27759-.81133-1.49882-.29594-1.53538-.06274-1.54801,.05669-1.51947,.28105-1.32348,.76799-.96848,1.19047-1.31082-.91231-1.31068-.91998-1.3089-.9212,.93351-1.27779,1.1579-1.07686,1.35537-.81404,1.48468-.53874,1.55149-.32451,1.5763-.16091,1.58796-.04319,1.72639,.05406,1.7179,.18841,1.67911,.40819,1.582,.68501,1.35255,1.0638,.9953,1.40193,.6183,1.60813,.30223,1.69739,.08506,1.72531-.0001,1.71351,.00203,1.70933-.00595,1.71498-.0023,1.71215,.00153,1.71445,.00593,1.71639,.00148,1.71394-.00129,1.71795-.00081,1.72072-.00179,1.72054-1.7848,.0031-1.78785-.00726-1.78689,.00361,.00084-2.34806-1.07929,1.34708-1.4487,.92511-1.6685,.4267-1.7276,.11234-1.71029-.10153-1.68279-.31361-1.60905-.58596-1.44827-.90721-1.18937-1.22417-.83868-1.48642-.47254-1.64236-.14053-1.70608,.15688-1.71896,.50678-1.6463,.92357-1.45212,1.29484-1.13317,1.52954-.78937,1.65444-.48785,1.70707-.25722,1.72676-.06845Zm5.51546,4.18173l-1.70151,.00055-1.70272-.00051-1.70272-.00091-1.61654,.11952-1.53527,.50506-1.09206,1.16517-.29652,1.58281,.30583,1.51032,1.03459,1.13356,1.44862,.53534,1.54711,.13986,1.77129-.13725,1.66911-.58234,1.19428-1.28794,.54255-1.68093,.1348-1.77498-.00084-1.22734Z" fill="#1d868c"/>
          <path d="M437.8697,27.65016l1.78403,.00392,1.78785-.00425,1.78671,.00023-.00041,2.29687,1.24593-1.28828,1.56036-.87631,1.73202-.46089,1.7939-.13402,1.72971,.11159,1.69762,.34538,1.60241,.6541,1.41777,.98784,1.14358,1.29515,.82619,1.51951,.51843,1.65256,.2795,1.70836,.07242,1.73439,.00517,1.59267-.00161,1.59271,.00567,1.59798-.00841,1.59535,.00451,1.59749-.00155,1.59929,.00329,1.59701,.00143,1.60075-.0035,1.60333-.00119,1.60288-1.8016-.00361-1.8049,.00604-1.80216-.00489-.00742-1.6983,.00834-1.70684,.00023-1.70402,.00028-1.70631-.00866-1.70823,.00145-1.7058,.00756-1.70979-.0016-1.71255-.00513-1.71255-.11632-1.73077-.47189-1.66651-1.01311-1.38858-1.53088-.77708-1.71564-.20099-1.73564,.23241-1.56082,.78498-1.14573,1.31709-.62913,1.63278-.18488,1.74569,.00213,1.70685-.00953,1.7125,.00801,1.70968-.00742,1.71197,.00382,1.7139,.0031,1.71146-.00354,1.71547-.00333,1.71823,.00484,1.71869-1.81941-.00342-1.82191,.00397-1.82086-.00214,.00362-1.69972-.00381-1.69896-.00456-1.70095-.0003-1.7,.00038-1.70161,.00812-1.70057,.00053-1.69643-.00035-1.70204-.00316-1.69923,.00083-1.70151-.00461-1.70343-.00161-1.701,.00016-1.70498,.00621-1.70773-.00155-1.70675Z" fill="#1d868c"/>
        </g>
        <path d="M60.42724,26.32593l.13372-.1491,.00814-1.20438,.14271-.14287,1.81759,.00787,1.81759-.00286,.15255-.1465,.23476-1.82213,.21393-1.82466,.15175-.19414,1.53779-.5297,1.53294-.54352,.15434-.21445,.61627-1.96067,.61565-1.96086-.09055-.07817-1.53903,.56663-1.58406,.43672-1.60191,.37243-1.61004,.31656-1.62376,.24862-1.63081,.20779-1.6353,.18771-1.63537,.14215-1.6425,.11311-1.64657,.08004-1.64394,.05437-1.65243,.03043-1.65357,.02546-1.64903-.01379-1.64909-.04168-1.649-.04705-1.6473-.078-1.64366-.11658-1.64021-.13145-1.63684-.15535-1.63499-.18831-1.62785-.23045-1.6262-.25482-1.61868-.30004-1.60277-.35351-1.59389-.39307-1.55823-.49314-.09034,.09147,.6133,1.9616,.59934,1.96594,.17408,.20097,1.51987,.45908,1.51703,.46819,.14847,.17698,.23651,1.91003,.23693,1.90998,.15827,.1331,1.84887,.01472,1.84887-.00303,.14568,.13887-.00287,1.20438,.14175,.13568,.96821,.0068,.13149,.14184-.03752,1.43363-.02813,1.4362-.04222,1.43582-.14773,.14287-1.49827-.0081-1.50178,.00899-1.5042-.00369-1.5042-.00355-.1453,.14795,.00797,1.66049v1.66049s.13733,.13904,.13733,.13904l1.47396-.00319,1.47741,.00874,1.47979,.00101,1.47979-.00282,.13695,.14169-.04353,1.69937-.04942,1.70082-.04904,1.6998-.04488,1.69576-.04205,1.70145-.04838,1.69847-.03859,1.70102-.04245,1.70283-.05146,1.70016-.05385,1.70408-.03356,1.70738-.05886,1.70669,.14387,.14466,1.40142-.00299,1.40368-.00325,1.40368,.00444,.14414-.14276,.04849-1.69924,.04081-1.70105,.04337-1.69995,.05188-1.69557,.04501-1.70137,.04603-1.69854,.05366-1.70061,.038-1.70295,.04532-1.70033,.04947-1.7042,.04627-1.70703,.03896-1.70723,.15296-.14025,1.64258,.00226,1.64802-.00745,1.6453,.00076,1.6475-.00307,1.64936,.012,1.64701-.00969,1.65087,.00351,1.65353-.00101,1.65353-.00651,.15319,.14944,.03246,1.69967,.05571,1.70065,.03725,1.70012,.06002,1.69535,.03731,1.70158,.04573,1.69854,.04799,1.70076,.03543,1.70302,.0562,1.70003,.03998,1.70446,.04536,1.70706,.05255,1.70686,.14521,.14723,1.40142-.00177,1.40368,.00258,1.40368-.00777,.13819-.14024-.03975-1.69947-.04538-1.70093-.05137-1.69973-.05574-1.69547-.04474-1.70138-.0461-1.69853-.03006-1.70125-.04868-1.70267-.05248-1.70013-.04326-1.70437-.05592-1.70677-.04244-1.70714,.14244-.13713,1.89923-.01264,1.90229,.00572,1.90229-.00414,.13989-.13642,.0056-1.66049,.00502-1.66049-.15052-.13409-1.44662-.00951-1.45001,.00661-1.45234-.01002-1.45234,.008-.15069-.14537-.03344-1.43374-.04689-1.43569-.03407-1.43604,.14101-.14542,.82361,.00995Zm-20.13531,.13559l.13931-.15098,.47599,.00814,.14169-.14185,.00787-1.20438,.135-.13787,1.51253-.0114,1.51497,.01275,1.51497-.00823,.14737,.14475-.01023,1.44486,.00442,1.44824,.00949,1.45058-.00634,1.45058-.14472,.13902-1.8071-.00054-1.81001,.00232-1.81001-.00639-.13642-.1343,.0285-1.43388,.04762-1.43567,.0451-1.43574Zm14.78951,4.30542l-.13162,.15061-1.87607-.00814-1.8791,.00016-1.8791-.00787-.13787-.135-.0114-1.44486,.01275-1.44824-.00823-1.45058-.00262-1.45058,.14737-.13714,1.53336-.00442,1.53583-.00949,1.53583,.00634,.13902,.14472-.00054,1.20438,.14608,.14376,.62057,.00639,.14411,.13441,.04903,1.43332,.03004,1.43615,.03255,1.43608Z" fill="#1d868c"/>
      </g>
      <rect y="91.50493" width="367.77931" height="40.75" fill="#fff" opacity=".98"/>
      <g>
        <path d="M31.58889,105.82192c.50391,.08398,.90332,.10498,1.67969,.10498h3.96875c.86035,0,1.21777-.021,1.67969-.08398v2.03662c-.46191-.04199-.75586-.06299-1.5957-.06299h-4.05273c-.73438,0-1.17578,.021-1.67969,.08398v-2.07861Zm.67188,15.83105c.06348-.65088,.10547-1.36475,.10547-2.05762v-3.06543c0-.71387-.02148-1.13379-.08398-1.65869,.48242,.06299,.88184,.08398,1.6377,.08398h3.27539c.75586,0,1.1123-.021,1.42773-.06299-.04199,.41992-.06348,.73486-.06348,1.53271v3.29639c0,.81885,.02148,1.17578,.08398,1.65869h-2.05762v-.71387h-2.2041v.98682h-2.12109Zm.02148-18.77051c.52441,.08398,.86035,.10498,1.7002,.10498h2.87695c.81836,0,1.1543-.021,1.7002-.10498v1.93164c-.56641-.06299-.94434-.08398-1.7002-.08398h-2.87695c-.73438,0-1.17578,.021-1.7002,.08398v-1.93164Zm.04199,6.13086c.39844,.04199,.67188,.06299,1.32227,.06299h3.54883c.67188,0,.92383-.021,1.28027-.06299v1.84766c-.39844-.04199-.67188-.06299-1.28027-.06299h-3.54883c-.65039,0-.92383,.021-1.32227,.06299v-1.84766Zm0,2.93945c.37793,.04199,.69238,.06299,1.32227,.06299h3.52734c.67188,0,.94531-.021,1.30176-.06299v1.84766c-.37793-.04199-.67188-.06299-1.32227-.06299h-3.52734c-.62988,0-.90332,.021-1.30176,.06299v-1.84766Zm2.05762,6.86572h2.2041v-2.03662h-2.2041v2.03662Zm7.11719-13.31152c-1.0498,0-1.42773,.021-1.99414,.08398v-1.86865c.6084,.10498,.98633,.12598,1.99414,.12598h2.1416c0-.71387-.02051-1.02881-.12598-1.55371h2.41504c-.10547,.5249-.12598,.79785-.12598,1.55371h2.66602c1.0498,0,1.42773-.021,2.03711-.12598v1.86865c-.5459-.06299-1.0498-.08398-2.03711-.08398h-2.66602v.88184h2.22559c.88184,0,1.23828-.021,1.74219-.08398v1.80566c-.56641-.06299-.90234-.08398-1.78418-.08398h-2.18359v.86084h3.02344c1.00781,0,1.46973-.021,2.07812-.12598v1.97363c-.62988-.10498-1.1123-.12598-2.07812-.12598h-7.60059c-1.00781,0-1.46973,.021-2.12109,.12598v-1.97363c.4834,.10498,1.0293,.12598,2.12109,.12598h2.41406v-.86084h-1.84766c-.81836,0-1.19629,.021-1.76367,.08398v-1.80566c.5459,.06299,.94531,.08398,1.78516,.08398h1.82617v-.88184h-2.1416Zm.56738,13.83643c0,1.00781,.04199,1.78467,.12598,2.39355h-2.37305c.10547-.62988,.12598-1.17578,.12598-2.39355v-6.19385c0-.77686-.02051-1.19678-.0625-1.78467,.5459,.04199,.90234,.06299,1.67969,.06299h6.25684c.96582,0,1.40625-.021,1.88965-.08398-.06348,.5459-.08398,1.15479-.08398,2.1626v6.04688c0,1.6377-.52539,2.03662-2.64551,2.03662-.65137,0-1.00781-.021-1.70117-.06299-.12598-.90283-.23047-1.32275-.50391-2.03662,.60938,.10498,1.5752,.18896,2.03711,.18896,.56641,0,.69238-.10498,.69238-.60889v-.71387h-5.4375v.98682Zm5.4375-5.22803v-.90283h-5.4375v.90283h5.4375Zm0,2.54053v-.86084h-5.4375v.86084h5.4375Z" fill="#1d868c"/>
        <path d="M75.11818,108.02651c-.41992-.06299-.77637-.08398-1.36426-.10498-.14746,2.03662-.27344,2.87646-.58789,4.09424-.35742,1.49072-.88184,2.79248-1.55371,3.94727,1.0918,1.44873,2.16211,2.41455,3.94727,3.50635-.71387,.73486-1.0498,1.23877-1.49121,2.1626-1.51172-1.11279-2.77148-2.35156-3.7793-3.7793-1.25977,1.46973-2.58203,2.51953-4.8916,3.84229-.41992-.79785-.94531-1.46973-1.5752-2.01562,2.49902-1.13379,3.88477-2.18359,5.20703-3.86328-.71387-1.36475-1.30176-2.93945-1.57422-4.26221-.41992,.60889-.62988,.90283-1.21777,1.57471-.35742-.81885-.58789-1.13379-1.25977-1.88965,.46191-.48291,.69238-.79785,1.1123-1.44873-.37793-.04199-.73438-.06299-1.21777-.06299h-1.5957c-.67188,.67188-1.0498,1.00781-1.7002,1.55371h1.61621c.77734,0,.96582,0,1.25977-.06299l.79785,1.0498c-.29395,.29395-.44043,.46191-.44043,.46191-.83984,.94482-1.32324,1.42773-2.12109,2.09961v.23096c1.13379-.14697,1.76367-.25195,3.42285-.5459l.02051,1.88965c-1.67969,.33594-2.30957,.44092-3.44336,.58789v2.64551c0,1.44873-.5459,1.78467-2.89746,1.78467-.35645,0-.62988,0-1.36426-.04199-.04199-.73486-.16797-1.32275-.46191-2.05762,.71387,.10498,1.34375,.14697,2.22559,.14697,.33594,0,.37793-.06299,.37793-.41992v-1.80566q-1.30176,.12598-3.10742,.29395c-.52539,.04199-.75586,.08398-1.11328,.14697l-.29395-2.12061h.58789c.69336,0,2.18359-.10498,3.92676-.25195,0-.71387-.02148-.90283-.08398-1.19678h.50391c.56641-.46191,.75586-.65088,1.19629-1.17578h-2.91797c-.81934,.5249-1.40723,.86084-2.24707,1.30176-.46191-.75586-.75586-1.0918-1.34375-1.57471,1.88965-.86084,3.04492-1.57471,4.8291-2.93945h-2.41406c-.77734,0-1.42773,.04199-1.93164,.10498v-2.01562c.52441,.08398,1.17578,.12598,1.97363,.12598h1.76367v-1.65869h-1.25977c-.79785,0-1.23926,.021-1.70117,.08398v-1.99463c.44141,.06299,1.00781,.10498,1.74316,.10498h1.21777v-.58789c0-.60889-.04199-1.0498-.10547-1.49072h2.33105c-.08398,.41992-.10547,.81885-.10547,1.51172v.56689h.73535c.56641,0,.90234-.021,1.25977-.08398v1.6167c.69238-1.0708,1.17578-1.97363,1.44824-2.83447l1.95312,.92383q-1.38574,2.43555-2.51953,3.84229c.79785,0,.96582-.021,1.25977-.06299v1.80566c1.21777-2.07861,2.22559-5.20703,2.37207-7.39062l2.24707,.46191q-.12598,.5249-.37793,1.55371c-.06348,.27295-.18945,.73486-.44141,1.6377h3.06543c.9873,0,1.5752-.04199,2.09961-.12598v2.20459Zm-12.68164-.08398c.58789-.62988,.88184-.96582,1.34375-1.6167-.20996-.021-.56641-.04199-.83984-.04199h-.92383v1.65869h.41992Zm6.84473,0c-.20996,.48291-.29395,.65088-.46191,1.02881,.39941,2.1416,.77734,3.38037,1.49121,4.8501,.33594-.67188,.56641-1.30176,.81836-2.24658,.31543-1.25977,.41992-1.93164,.52539-3.63232h-2.37305Z" fill="#1d868c"/>
        <path d="M92.92775,114.97622c-5.60547,.25195-7.62109,.33594-10.41406,.33594-.41992,0-1.07031,.021-1.36426,.06299l-.41992-2.1626c.77637,.10498,1.5957,.14697,3.94727,.14697,1.34375,0,1.49023,0,3.92578-.04199v-.94482h-4.51367c-.92383,0-1.28125,.021-1.86914,.06299,.04199-.5249,.06348-.81885,.06348-1.55371v-3.14941c0-.75586-.02148-1.02881-.06348-1.57471,.5459,.04199,.90332,.06299,1.86914,.06299h4.51367v-.71387h-5.9834c-1.00781,0-1.49121,.021-2.12109,.08398v-2.05762c.67188,.08398,1.36523,.12598,2.41504,.12598h5.68945c-.02051-.62988-.04199-.86084-.12598-1.25977h2.41504c-.08398,.35693-.10547,.65088-.12598,1.25977h6.13086c1.00781,0,1.67969-.04199,2.39355-.12598v2.05762c-.62988-.06299-1.13379-.08398-2.1416-.08398h-6.38281v.71387h4.8916c.9873,0,1.36523-.021,1.88965-.06299-.04199,.46191-.0625,.77686-.0625,1.57471v3.14941c0,.75586,.02051,1.0708,.0625,1.55371-.33594-.021-.41992-.04199-.73438-.04199,.90234,.73486,1.5957,1.38574,2.26758,2.1416l-1.42773,1.36475c-.41992-.56689-.56738-.75586-.96582-1.17578l-1.61719,.10498v1.30176h2.1416c.9873,0,1.49121-.021,2.09961-.12598v2.1416c-.6084-.08398-1.23828-.10498-2.05762-.10498h-2.18359v1.86865c0,1.38574-.65039,1.84766-2.54004,1.84766-.56738,0-.81934,0-1.86914-.06299-.12598-.83984-.27246-1.32275-.6084-2.07861,.98633,.14697,1.51172,.18896,2.18359,.18896,.52441,0,.69238-.10498,.69238-.50391v-1.25977h-7.13867c1.00781,.58789,1.5957,1.00781,2.60352,1.86865l-1.34375,1.55371c-1.00781-1.02881-1.5957-1.49072-3.08594-2.41455l.98633-1.00781h-2.49805c-.81934,0-1.36523,.021-1.99512,.10498v-2.1416c.60938,.10498,1.0498,.12598,2.05762,.12598h10.41406v-1.15479Zm-8.52441-7.22266v.77686h4.19922v-.77686h-4.19922Zm0,2.24658v.77686h4.19922v-.77686h-4.19922Zm6.3623-1.46973h4.51367v-.77686h-4.51367v.77686Zm0,2.24658h4.51367v-.77686h-4.51367v.77686Zm0,2.49854q2.70801-.08398,4.36719-.16797c-.18945-.16797-.27344-.23096-.50391-.44092l.46191-.29395h-4.3252v.90283Z" fill="#1d868c"/>
        <path d="M114.22267,109.20229c-.44141,.39893-.65137,.56689-1.13379,.92383,.83984,.92383,1.28027,1.55371,1.84766,2.6665,.96582,1.91064,1.44824,3.7373,1.44824,5.58496,0,1.38574-.31445,2.28857-.96582,2.79248-.46191,.35693-1.1543,.50391-2.39355,.50391-.56641,0-1.42773-.04199-2.30957-.10498-.12598-1.00781-.25195-1.44873-.6084-2.24658,1.0498,.18896,1.93164,.29395,2.66602,.29395,1.00781,0,1.36523-.39893,1.36523-1.53271,0-.41992-.04199-.79785-.08398-1.19678-2.30957,1.70068-4.53516,2.87646-8,4.17822-.48242-.86084-.77637-1.30176-1.32227-1.93164,3.2959-.88184,6.61328-2.45654,8.81836-4.22021-.16797-.48291-.27344-.71387-.4834-1.19678-1.82617,1.21777-4.42969,2.43555-7.0332,3.29639-.37793-.71387-.67188-1.17578-1.17578-1.78467,2.83398-.67188,5.375-1.70068,7.36914-2.93945-.31445-.46191-.48242-.67188-.83984-1.0918-1.42773,.77686-2.85547,1.36475-4.97559,1.99463-.35742-.69287-.5459-1.00781-1.11328-1.76367,1.86914-.39893,2.37305-.5249,3.44336-.92383,1.15527-.39893,1.93164-.77686,2.6875-1.30176h-1.46973c-.77637,0-1.40625,.04199-2.05762,.10498v-2.12061c.5459,.08398,.9873,.10498,2.05762,.10498h8.6084c1.19727,0,1.5752-.021,2.0791-.10498v2.12061c-.67188-.06299-1.30176-.10498-2.0791-.10498h-1.46973c.20996,1.0918,.52539,2.03662,1.0293,3.2124,1.13379-.83984,1.88965-1.57471,2.75-2.6665l1.99512,1.53271c-.4834,.37793-.65137,.50391-1.19727,.98682-1.1123,.96582-1.55371,1.30176-2.54004,1.99463,1.19629,1.78467,2.70801,3.12842,4.93359,4.38818-.5459,.5249-1.00781,1.0708-1.67969,2.03662-1.91016-1.42773-2.70801-2.1416-3.63184-3.25439-1.76367-2.1626-2.96094-4.8291-3.7168-8.23047h-.81836Zm-1.30176-5.62695c0-.48291-.04199-.83984-.12598-1.25977h2.56152c-.08398,.41992-.10547,.73486-.10547,1.23877v.46191h5.81641c1.00781,0,1.67969-.021,2.33008-.08398-.0625,.44092-.08398,.79785-.08398,1.46973v1.6377c0,.62988,.02148,1.02881,.08398,1.49072h-2.26758v-2.49854h-13.70996v2.49854h-2.28906c.06348-.46191,.10547-.83984,.10547-1.49072v-1.6377c0-.60889-.04199-1.02881-.08398-1.46973,.62988,.06299,1.28027,.08398,2.30957,.08398h5.45898v-.44092Z" fill="#1d868c"/>
        <path d="M133.64748,115.81606c.02148-.44092,.04199-.65088,.04199-.90283q0-.23096-.0625-1.49072l-.29395-7.13867c-.04199-.92383-.10547-1.97363-.18945-2.56152h3.44336c-.0625,.56689-.14648,1.65869-.18848,2.56152l-.29395,7.13867q-.04199,1.21777-.04199,1.51172c0,.25195,0,.46191,.04199,.88184h-2.45703Zm-.29395,4.59814v-2.87646h3.04492v2.87646h-3.04492Z" fill="#1d868c"/>
        <path d="M148.83205,106.34682c.37793-1.91064,.50391-3.02344,.50391-4.05225l2.49805,.20996c-.10449,.37793-.14648,.56689-.27246,1.32275-.14746,.83984-.25195,1.30176-.50391,2.51953h2.24609c.81934,0,1.30176-.021,1.80566-.08398q-.04199,.37793-.14648,1.78467c-.25195,3.27539-.86133,5.54297-2.12109,7.87354,1.0293,.81885,1.46973,1.19678,2.6875,2.30957l-1.46973,1.95264c-1.19629-1.21777-1.6377-1.6377-2.45605-2.35156-1.21777,1.57471-2.45703,2.6875-4.19922,3.82129-.50391-.88184-.81934-1.30176-1.5332-2.03662,1.82715-1.0918,2.83496-1.95264,3.92676-3.29639-1.32324-1.0498-1.86914-1.42773-3.42285-2.39355,.86133-1.80566,1.40723-3.29639,1.99512-5.54297h-.88184c-.5459,0-.9873,.021-1.51172,.10498v-2.26758c.56641,.10498,1.07031,.12598,1.84766,.12598h1.00781Zm1.74219,2.03662c-.56641,2.20459-.88184,3.17041-1.57422,4.78711,.96582,.62988,1.40625,.92383,1.99414,1.34375,.31543-.56689,.4834-.96582,.71387-1.5957,.5459-1.53271,.77734-2.60352,.96582-4.53516h-2.09961Zm7.91602,12.9126h-2.35156c.08398-.69287,.12598-1.36475,.12598-2.43555v-12.53467c0-.81885-.04199-1.49072-.10547-2.20459,.52539,.08398,.92383,.10498,1.80566,.10498h4.8291c.81934,0,1.34375-.021,1.80566-.10498-.08398,.67188-.10449,1.25977-.10449,2.20459v12.61865c0,.94482,.04199,1.67969,.10449,2.35156h-2.37207v-1.51172h-3.7373v1.51172Zm.04199-3.65332h3.69531v-11.25391h-3.69531v11.25391Z" fill="#1d868c"/>
        <path d="M174.87111,119.07045c0,1.13379,.04199,1.93164,.10547,2.7085h-2.45703c.08398-.83984,.12598-1.6167,.12598-2.7085v-5.85791c0-1.02881,.02148-1.49072,.06348-2.35156-.4834,.81885-.96582,1.49072-1.65918,2.33057-.39844-1.0498-.69238-1.6377-1.17578-2.35156,1.46973-1.57471,2.51953-3.19141,3.40137-5.16504,.56738-1.28076,.96582-2.58252,1.11328-3.54834l2.30957,.81885c-.81934,2.37256-.96582,2.7085-1.82715,4.66113v11.46387Zm4.34668-13.4585c-1.0498,0-1.84766,.04199-2.43555,.10498v-2.30957c.69238,.08398,1.44824,.12598,2.41406,.12598h7.93652c.86133,0,1.6377-.04199,2.37305-.12598v2.28857c-.56738-.06299-.83984-.06299-1.55371-.08398v13.56348c0,1.02881-.31543,1.6377-.94531,1.88965-.5459,.20996-1.40625,.29395-2.75,.29395-.14746,0-.4834,0-.92383-.021h-.77734c-.14648-1.19678-.23047-1.57471-.58789-2.35156,.9873,.12598,1.67969,.16797,2.58301,.16797,1.00781,0,1.17578-.08398,1.17578-.5459v-12.99658h-6.50879Zm4.59766,8.81836c0,.81885,.02148,1.15479,.06348,1.6377-.41992-.04199-.77734-.06299-1.61719-.06299h-3.14941v1.51172h-2.2041c.08398-.5249,.10449-1.0498,.10449-1.65869v-6.4248c0-.73486-.02051-1.17578-.08398-1.70068,.44141,.06299,.94531,.08398,1.67969,.08398h3.65332c.83984,0,1.19727-.021,1.61719-.06299-.04199,.48291-.06348,.81885-.06348,1.6377v5.03906Zm-4.70312-.41992h2.64551v-4.22021h-2.64551v4.22021Z" fill="#1d868c"/>
        <path d="M195.20021,114.09438c0-.75586-.02051-1.40674-.08398-2.01562,.62988,.06299,1.17578,.08398,2.03711,.08398h4.59766c.60938,0,1.07129-.021,1.5752-.06299-.06348,.44092-.06348,.75586-.06348,1.82666v5.60596c0,.86084,.02148,1.42773,.08398,1.88965h-2.26758v-.75586h-3.65332v1.0918h-2.33008c.08398-.60889,.10449-1.17578,.10449-2.26758v-5.396Zm2.20508,4.53516h3.67383v-4.43018h-3.67383v4.43018Zm.58789-13.79443c0-.75586-.02148-1.32275-.08398-1.86865,.62988,.08398,1.23828,.10498,2.37207,.10498h7.91602c1.17578,0,1.84766-.021,2.39355-.10498-.06348,.5249-.08398,1.0498-.08398,1.84766v3.88428c0,.86084,.02051,1.38574,.08398,1.95264-.65137-.06299-1.07129-.08398-2.18359-.08398h-8.31445c-1.0918,0-1.55371,.021-2.18359,.08398,.0625-.58789,.08398-1.15479,.08398-1.93164v-3.88428Zm2.24609,3.69531h8v-3.35938h-8v3.35938Zm11.25391,3.63232c.86133,0,1.34375-.021,1.86914-.08398-.06348,.58789-.08398,1.15479-.08398,2.01562v5.41699c0,1.13379,.02051,1.67969,.10449,2.24658h-2.35156v-1.0918h-3.98926v1.0918h-2.24609c.04199-.58789,.0625-1.00781,.0625-1.86865v-6.06787c0-.94482,0-1.28076-.04199-1.72168,.4834,.04199,.92383,.06299,1.55371,.06299h5.12305Zm-4.45117,6.4668h4.01074v-4.43018h-4.01074v4.43018Z" fill="#1d868c"/>
        <path d="M223.50783,117.89467v-1.00781h-1.88965v2.1416h-2.20508c.08398-.67188,.10547-1.40674,.10547-2.51953v-10.41406c0-.90283-.02148-1.57471-.08398-2.1626,.56641,.06299,.98633,.08398,1.86816,.08398h2.47754c.77734,0,1.25977-.021,1.82715-.08398-.04199,.37793-.06348,1.00781-.06348,2.07861v9.59521c0,.88184,.02148,1.57471,.06348,2.09961,1.80566-1.51172,3.2959-3.38037,4.2832-5.41699h-2.12109c-.75586,0-1.23828,.021-1.78418,.10498v-2.33057c.6084,.06299,.94434,.08398,1.80566,.08398h2.83398v-2.75049h-1.76367c-.96582,0-1.6377,.021-2.28809,.10498v-2.30957c.65039,.08398,1.32227,.12598,2.28809,.12598h1.76367v-1.23877c0-.75586-.02051-1.15479-.10449-1.65869h2.41406c-.08398,.50391-.10449,.90283-.10449,1.65869v1.23877h2.28809c1.07129,0,1.72168-.04199,2.33105-.12598v2.33057c-.69336-.08398-1.40723-.12598-2.37305-.12598h-2.24609v2.75049h2.87598c1.0918,0,1.84766-.04199,2.49902-.10498v2.37256c-.56738-.08398-1.46973-.12598-2.49902-.12598h-2.33008c1.0918,2.35156,2.85547,4.24121,5.45898,5.9209-.5459,.79785-.86133,1.40674-1.23926,2.28857-2.56152-1.97363-3.96777-3.7373-4.8291-5.94189,.04199,.86084,.06348,1.28076,.06348,2.09961v2.98145c0,.88184,.02051,1.46973,.10449,2.1416h-2.43555c.08398-.67188,.12598-1.28076,.12598-2.1416v-3.04443c0-.71387,.02148-1.23877,.06348-2.12061-.65137,1.42773-1.19727,2.26758-2.22559,3.48535-.9873,1.15479-1.82715,1.93164-3.00293,2.72949-.48242-.71387-.90234-1.17578-1.5957-1.78467,.75586-.48291,1.07129-.67188,1.49121-1.00781h-1.84766Zm-1.88965-3.04443h1.88965v-8.67139h-1.88965v8.67139Z" fill="#1d868c"/>
        <path d="M244.88576,105.54897c0-.81885-.04199-1.55371-.10449-2.24658,.67188,.08398,1.36426,.10498,2.33008,.10498h10.16211c.9873,0,1.6377-.021,2.26758-.10498-.08398,.79785-.10449,1.40674-.10449,2.1416v13.56348c0,1.0918,.04199,1.78467,.12598,2.54053h-2.54102v-1.25977h-9.7627v1.25977h-2.49902c.08398-.71387,.12598-1.55371,.12598-2.54053v-13.4585Zm2.37305,4.95508h9.7627v-4.87109h-9.7627v4.87109Zm0,7.57959h9.7627v-5.375h-9.7627v5.375Z" fill="#1d868c"/>
        <path d="M269.01467,108.13149c-.92383,0-1.6377,.04199-2.49805,.12598v-2.56152c.81836,.10498,1.51172,.14697,2.49805,.14697h5.39648v-1.49072c0-.81885-.04199-1.34375-.12598-1.95264h2.62402c-.10449,.58789-.14648,1.15479-.14648,1.93164v1.51172h5.68945c1.0498,0,1.82715-.04199,2.54102-.14697v2.56152c-.92383-.08398-1.55371-.12598-2.54102-.12598h-4.49316c.9873,1.78467,1.97363,3.17041,3.14941,4.40918,1.42773,1.49072,2.91895,2.64551,4.57715,3.52734-.65039,.77686-1.00781,1.34375-1.42773,2.28857-1.34375-.92383-2.24609-1.65869-3.52734-2.91846v2.39355c-.65039-.08398-1.23828-.12598-2.09961-.12598h-1.86816v1.42773c0,.98682,.04199,1.86865,.14648,2.60352h-2.64551c.10547-.77686,.14746-1.6167,.14746-2.60352v-1.42773h-1.65918c-.86035,0-1.46973,.04199-2.09961,.12598v-2.37256c-1.19629,1.25977-2.07812,2.01562-3.40137,2.93945-.41992-.94482-.73438-1.42773-1.42773-2.20459,3.14941-1.95264,5.69043-4.76611,7.30664-8.0625h-4.11523Zm5.39648,4.01025c0-.65088,.0625-1.49072,.16797-2.35156-1.11328,2.26758-2.12109,3.7373-3.82129,5.56396,.48242,.06299,.90234,.08398,1.86816,.08398h1.78516v-3.29639Zm4.3877,3.29639c.96582,0,1.34375-.021,1.84766-.08398-1.6377-1.6377-2.56152-2.91846-4.07324-5.56396,.12598,.86084,.18945,1.70068,.18945,2.33057v3.31738h2.03613Z" fill="#1d868c"/>
        <path d="M293.06056,112.85561c-.86133,0-1.5332,.04199-2.22559,.12598v-2.1626c.65039,.08398,1.32227,.12598,2.22559,.12598h5.79492v-1.34375h-4.51465c-.81836,0-1.28027,.021-1.86816,.10498v-2.03662c.56641,.08398,.98633,.10498,1.86816,.10498h4.51465v-1.30176h-5.03906c-.94531,0-1.6377,.04199-2.24707,.10498v-2.09961c.67188,.08398,1.32324,.12598,2.24707,.12598h2.45605c-.48242-.79785-.79785-1.19678-1.23828-1.67969l2.12012-.73486c.67188,.90283,1.13379,1.6377,1.55371,2.41455h2.66699c.5459-.71387,.96582-1.42773,1.36426-2.30957l2.28906,.58789c-.35742,.58789-.75586,1.13379-1.21777,1.72168h2.60352c.98633,0,1.61621-.04199,2.24609-.12598v2.09961c-.62988-.06299-1.30176-.10498-2.24609-.10498h-5.29102v1.30176h4.74512c.88184,0,1.30176-.021,1.88965-.10498v2.03662c-.58789-.08398-1.0498-.10498-1.88965-.10498h-4.74512v1.34375h6.02539c.9873,0,1.61719-.04199,2.24707-.12598v2.1626c-.62988-.10498-1.21777-.12598-2.24707-.12598h-6.06738q-.02148,.12598-.06348,.62988c0,.021-.04199,.29395-.12598,.81885h6.00488c1.00781,0,1.5752-.021,2.24707-.10498v2.1626c-.71387-.08398-1.46973-.12598-2.41504-.12598h-4.74512c.88184,1.00781,1.99512,1.78467,3.35938,2.33057,1.34375,.5249,2.45703,.75586,4.36719,.88184-.5459,.98682-.71387,1.42773-.94434,2.41455-2.41504-.41992-3.88477-.90283-5.39648-1.74268-1.44824-.83984-2.56152-1.84766-3.46387-3.14941-.62988,1.02881-1.46973,1.95264-2.58301,2.72949-1.40625,.98682-2.83398,1.51172-5.79492,2.12061-.20996-.88184-.39844-1.25977-1.00781-2.28857,3.38086-.33594,5.64844-1.36475,7.16016-3.29639h-4.17871c-.94434,0-1.7002,.04199-2.41406,.12598v-2.1626c.67188,.08398,1.32227,.10498,2.24609,.10498h5.22852c.08398-.35693,.10449-.46191,.10449-.58789,.02148-.27295,.04199-.46191,.06348-.5249,.02051-.021,.02051-.04199,.02051-.06299l-.04199-.25195s.02148,0,.02148-.021h-5.66895Z" fill="#1d868c"/>
        <path d="M317.46193,106.61977c-.73438,.75586-1.32227,1.23877-2.33008,1.93164-.14746-.83984-.37793-1.51172-.73535-2.09961,1.84766-1.11279,3.25488-2.62451,3.82129-4.09424h2.33105c.65039,1.17578,1.32227,1.93164,2.49805,2.85547v-.96582c0-.46191-.02051-.83984-.0625-1.30176,.50391,.06299,.88184,.08398,1.5957,.08398h1.84766c.71387,0,1.0918-.021,1.5957-.08398-.04199,.39893-.06348,.81885-.06348,1.30176v1.91064c0,.5459,.02148,.94482,.06348,1.38574-.46191-.04199-.81934-.06299-1.28125-.06299h-1.97363v1.25977c0,.39893,.12598,.46191,.9873,.46191,.96582,0,1.02832-.08398,1.0918-1.36475,.58789,.33594,.96582,.44092,1.5957,.5249-.23145,2.26758-.5459,2.54053-2.96094,2.54053-1.95215,0-2.43555-.31494-2.43555-1.53271v-3.67432c-.27246,.48291-.50391,.96582-.73438,1.6377-.41992-.37793-.5459-.50391-.83984-.77686v1.13379c-.31543-.04199-.69336-.06299-1.0293-.06299h-1.99414c-.29395,0-.58789,.021-.9873,.06299v-1.0708Zm.39941,11.50586h2.75c.79785,0,1.19727-.021,1.5752-.08398v1.86865c-.4834-.04199-1.07129-.08398-1.51172-.08398h-2.81348c0,.94482,.02051,1.42773,.08398,1.95264h-2.20508c.06348-.56689,.10547-1.23877,.10547-2.18359v-9.95215c0-.58789-.02148-.90283-.06348-1.30176,.37793,.04199,.67188,.06299,1.32324,.06299h3.58984c.86133,0,1.15527-.021,1.5752-.06299-.04199,.46191-.06348,1.00781-.06348,1.67969v3.04443c0,.62988,0,1.0498,.04199,1.5957-.39844-.04199-.79785-.06299-1.49023-.06299h-2.89746v.92383h2.6875c.81836,0,1.07031-.021,1.55371-.10498v1.80566c-.4834-.06299-.86133-.08398-1.55371-.08398h-2.6875v.98682Zm0-7.30664h2.45605v-.83984h-2.45605v.83984Zm0,2.26758h2.45605v-.86084h-2.45605v.86084Zm2.58203-7.05469c.18945,0,.29395,0,.52539-.021-.62988-.69287-.90332-1.0498-1.51172-1.97363-.52539,.86084-.77734,1.19678-1.44922,1.97363,.16797,.021,.27344,.021,.44141,.021h1.99414Zm4.17871,11.77881c-.90332,0-1.38574,.021-1.95312,.08398v-2.03662c.58789,.08398,1.0293,.10498,1.95312,.10498h.6084v-1.70068h-.29395c-.88184,0-1.21777,.021-1.74219,.08398v-1.95264c.50391,.06299,.98633,.08398,1.72168,.08398h.31445c-.02051-.56689-.04199-.79785-.08398-1.17578h2.12109c-.04199,.31494-.06348,.58789-.06348,1.17578h2.24707c-.02148-.56689-.04199-.83984-.08398-1.17578h2.1416c-.06348,.35693-.08398,.58789-.08398,1.17578h.56641c.73535,0,1.19727-.021,1.74316-.10498v1.97363c-.46191-.06299-.92383-.08398-1.76367-.08398h-.5459v1.70068h.92383c.92383,0,1.30176-.021,1.88965-.10498v2.05762c-.62988-.08398-1.0498-.10498-1.88965-.10498h-1.86914c1.19727,1.00781,1.93164,1.44873,3.7373,2.1416-.52441,.62988-.69238,.88184-1.13379,1.82666-1.72168-.79785-2.64551-1.42773-4.2832-2.93945l1.38574-1.02881h-3.98926l1.44922,1.02881c-1.36523,1.46973-2.35156,2.1626-4.13672,2.96045-.39844-.67188-.75586-1.13379-1.30176-1.70068,1.23926-.41992,1.97363-.77686,2.83496-1.44873,.33594-.25195,.52441-.41992,.92383-.83984h-1.34375Zm.14648-11.8418h1.5752v-1.32275h-1.5752v1.32275Zm2.43555,9.99414h2.24707v-1.70068h-2.24707v1.70068Zm3.27539-7.20166c0,.37793,.14746,.44092,1.07129,.44092,.94434,0,1.0498-.12598,1.1123-1.36475,.65137,.29395,1.0293,.41992,1.65918,.5459-.14746,1.17578-.23145,1.53271-.5459,1.93164-.33594,.44092-.90332,.58789-2.39355,.58789-1.34375,0-1.91113-.10498-2.24707-.41992-.27246-.25195-.37793-.56689-.37793-1.11279v-5.12305c0-.46191-.02051-.83984-.0625-1.30176,.50391,.06299,.88184,.08398,1.5957,.08398h1.95215c.73535,0,1.0918-.021,1.61719-.08398-.06348,.44092-.06348,.77686-.06348,1.30176v1.93164c0,.5249,.02148,.92383,.06348,1.36475-.46191-.04199-.81934-.06299-1.28125-.06299h-2.09961v1.28076Zm0-2.79248h1.6377v-1.32275h-1.6377v1.32275Z" fill="#1d868c"/>
      </g>
    </g>
  </g>
</svg>