<?xml version="1.0" encoding="UTF-8"?>
<svg id="_レイヤー_2" data-name="レイヤー 2" xmlns="http://www.w3.org/2000/svg" width="484.45282" height="132.02016" viewBox="0 0 484.45282 132.02016">
  <g id="_レイヤー_2-2" data-name="レイヤー 2">
    <g>
      <g>
        <rect y="91.27016" width="464.45282" height="40.75" fill="#fff" opacity=".98"/>
        <g>
          <path d="M33.7409,106.92153c-.85498,0-1.4248,.0376-2.01367,.11377v-1.9375c.56982,.07568,1.08252,.11377,2.05176,.11377h5.22412c0-.62695-.03809-.98779-.11426-1.44385h2.22266c-.07568,.45605-.11377,.87402-.11377,1.44385h5.58496c.9502,0,1.46289-.01904,2.03271-.11377v1.9375c-.58887-.07617-1.15869-.11377-1.99463-.11377h-5.62305v.89258h4.23633c.93066,0,1.29199-.01904,1.80469-.07568-.05713,.56982-.07617,.87354-.07617,1.51953v3.74268c0,.64551,.01904,.94971,.07617,1.51953-.56982-.05713-.91162-.07617-1.8999-.07617v.89307h1.46289c.9502,0,1.46289-.01904,2.03271-.11377v1.95654c-.62695-.07617-1.31055-.11377-1.99463-.11377h-1.50098v2.46924c0,.70312-.1709,1.06396-.58887,1.33008-.43652,.28467-1.10156,.37988-2.46924,.37988-.26611,0-.68408-.01904-1.31104-.03809-.1709-.89307-.30371-1.34863-.56982-1.9375,.83594,.11377,1.46289,.15186,2.12744,.15186,.70312,0,.81689-.05713,.81689-.43701v-1.91846h-9.40332c-.68408,0-1.40576,.0376-2.01367,.11377v-1.95654c.56982,.07568,1.08252,.11377,2.05176,.11377h9.36523v-.89307h-8.03564c-.87402,0-1.27295,.01904-1.80469,.07617,.05713-.58887,.07568-.91162,.07568-1.51953v-3.74268c0-.60791-.01855-.94971-.07568-1.51953,.5127,.05664,.87402,.07568,1.80469,.07568h3.89453v-.89258h-5.26221Zm4.02734,13.96289c-1.06396-1.27295-1.52002-1.70996-2.65967-2.50781l1.51953-1.21582c1.25391,.81689,1.95703,1.4248,2.73584,2.35547l-1.5957,1.36816Zm-2.4126-11.49365v.98779h3.64746v-.98779h-3.64746Zm0,2.43164v1.04492h3.64746v-1.04492h-3.64746Zm5.64209-1.44385h3.97021v-.98779h-3.97021v.98779Zm0,2.48877h3.97021v-1.04492h-3.97021v1.04492Z" fill="#1d868c"/>
          <path d="M55.57147,118.92739c0,1.14014,.03809,1.80469,.11377,2.33691h-2.24121c.07568-.60791,.11377-1.27295,.11377-2.35596v-12.44287c0-1.00684-.01904-1.53906-.07617-2.14697,.55127,.05713,.98779,.07617,1.93799,.07617h3.3623c.98779,0,1.4248-.01904,1.93799-.07617-.03809,.53223-.05713,1.02588-.05713,1.76709v3.72314c0,.89307,.01904,1.27295,.05713,1.69092-.45605-.01904-1.08301-.03809-1.74805-.03809h-3.40039v7.46582Zm0-11.66406h3.22949v-1.21582h-3.22949v1.21582Zm0,2.67871h3.22949v-1.19678h-3.22949v1.19678Zm13.75391,8.96631c0,1.82373-.5127,2.16602-3.24854,2.16602-.3418,0-.77881-.01904-1.55762-.03809-.11426-.91211-.24707-1.44385-.51318-2.0708,.9502,.11426,1.70996,.1709,2.56494,.1709,.58887,0,.72168-.07568,.72168-.47461v-7.18115h-3.57129c-.68408,0-1.34912,.01904-1.74805,.05713,.03809-.43701,.05713-.91211,.05713-1.729v-3.72314c0-.646-.01904-1.17773-.05713-1.76709,.55127,.05713,.9502,.07617,1.93799,.07617h3.5332c.96924,0,1.40576-.01904,1.97607-.07617-.07617,.66504-.09521,1.17822-.09521,2.12793v12.46191Zm-5.39502-11.64502h3.3623v-1.21582h-3.3623v1.21582Zm0,2.67871h3.3623v-1.19678h-3.3623v1.19678Z" fill="#1d868c"/>
          <path d="M82.70282,109.99868c-.39893,.36133-.58887,.51318-1.02588,.83594,.75977,.83594,1.15869,1.40576,1.67188,2.4126,.87402,1.729,1.31055,3.38184,1.31055,5.05322,0,1.25391-.28467,2.0708-.87354,2.52686-.41797,.32275-1.04492,.45605-2.16602,.45605-.5127,0-1.2915-.03809-2.08936-.09521-.11426-.91162-.22803-1.31055-.55127-2.03271,.9502,.1709,1.74805,.26611,2.41309,.26611,.91162,0,1.23438-.36084,1.23438-1.38672,0-.37988-.0376-.72217-.07568-1.08301-2.08984,1.53857-4.10352,2.60254-7.23779,3.78027-.43701-.77881-.70312-1.17773-1.19727-1.74756,2.98291-.79785,5.98438-2.22266,7.979-3.81836-.15186-.43701-.24707-.646-.43701-1.08301-1.65283,1.10205-4.0083,2.20361-6.36377,2.98291-.34229-.646-.60791-1.06396-1.06396-1.61523,2.56445-.60791,4.86328-1.53857,6.66797-2.65918-.28516-.41797-.43701-.60791-.75977-.98828-1.29199,.70312-2.5835,1.23486-4.50244,1.80518-.32275-.62695-.49414-.91211-1.00684-1.59619,1.69092-.36084,2.14648-.47461,3.11572-.83545,1.04443-.36133,1.74756-.70312,2.43164-1.17822h-1.33008c-.70264,0-1.27295,.03809-1.86182,.09521v-1.91895c.49414,.07617,.89307,.09521,1.86182,.09521h7.78906c1.08252,0,1.4248-.01904,1.88037-.09521v1.91895c-.60791-.05713-1.17773-.09521-1.88037-.09521h-1.33008c.18994,.98828,.4751,1.84277,.93115,2.90674,1.02588-.75977,1.70947-1.4248,2.48828-2.4126l1.80518,1.38672c-.43701,.3418-.58936,.45605-1.08301,.89307-1.00684,.87354-1.40576,1.17773-2.29883,1.80469,1.08301,1.61475,2.45068,2.83057,4.46436,3.97021-.49365,.4751-.91162,.96875-1.51953,1.84277-1.729-1.29199-2.45068-1.9375-3.28662-2.94434-1.5957-1.95703-2.67871-4.36963-3.36279-7.44727h-.74072Zm-1.17773-5.09082c0-.43701-.03809-.76025-.11426-1.14014h2.31787c-.07617,.37988-.09473,.66504-.09473,1.12109v.41797h5.26221c.91162,0,1.51953-.01904,2.1084-.07617-.05713,.39893-.07568,.72168-.07568,1.32959v1.48193c0,.56982,.01855,.93066,.07568,1.34863h-2.05176v-2.26025h-12.40527v2.26025h-2.07031c.05664-.41797,.09473-.75977,.09473-1.34863v-1.48193c0-.55078-.03809-.93066-.07568-1.32959,.56982,.05713,1.15869,.07617,2.08936,.07617h4.93945v-.39893Z" fill="#1d868c"/>
          <path d="M96.80194,120.39028c-.01904-.3418-.03809-.45605-.09521-.89258-.36084-2.29883-.49414-3.76172-.49414-5.68018,0-2.45068,.22803-4.6167,.7793-7.42822,.20898-1.06396,.24658-1.25391,.28467-1.7666l2.50781,.26611c-.45605,1.12061-.89307,3.24854-1.19678,5.68018-.18994,1.4248-.26611,2.54541-.28516,4.19824,0,.41797-.01904,.56982-.03809,1.04492,.20898-.66504,.24707-.79785,.98828-2.50781l1.51953,.68408c-1.04492,2.20361-1.69092,4.40723-1.69092,5.75586,0,.11426,0,.26611,.01904,.51318l-2.29834,.13281Zm8.09277-7.50391c-.9502,1.10205-1.34912,1.91895-1.34912,2.73584,0,1.08252,1.04492,1.65234,3.02051,1.65234,1.67188,0,3.32471-.26562,4.52148-.72168l.18994,2.4126c-.26611,.01904-.3418,.03809-.77881,.11426-1.51953,.24658-2.67871,.36084-3.93262,.36084-2.35547,0-3.875-.53223-4.71094-1.65283-.36133-.4751-.57031-1.17773-.57031-1.86182,0-1.23486,.57031-2.50732,1.74805-3.91357l1.86182,.87402Zm-3.13477-6.28809c.85498,.22803,1.86182,.3042,3.51465,.3042,2.1084,0,3.91309-.17139,5.16699-.51318l.11426,2.29883c-.15234,.01904-.43701,.05713-1.34912,.1709-1.21582,.15186-2.65918,.22803-4.06543,.22803-1.38672,0-1.40576,0-3.41943-.20898l.03809-2.27979Z" fill="#1d868c"/>
          <path d="M116.23895,106.44643c0-.98779-.01904-1.52002-.07568-2.12793,.53174,.05713,1.00684,.07617,1.9375,.07617h3.43848c.98779,0,1.4248-.01904,1.93799-.07617-.03809,.60791-.05713,1.02588-.05713,1.76709v2.5835c0,.87402,.01904,1.31055,.05713,1.72852-.45605-.0376-1.12109-.05664-1.74805-.05664h-3.49561v8.70068c0,1.13965,.03809,1.80469,.11426,2.31738h-2.22266c.07568-.56982,.11377-1.17773,.11377-2.35547v-12.55713Zm1.99463,.22803h3.32471v-.77881h-3.32471v.77881Zm0,2.12744h3.32471v-.81689h-3.32471v.81689Zm2.31787,3.98975c-.66504,.01855-.94971,.0376-1.34863,.09473v-1.80469c.55078,.07617,.94971,.09521,1.7666,.09521h6.51611c.85498,0,1.19678-.01904,1.7666-.09521v1.78564c-.4751-.05713-.77881-.07568-1.4248-.07568v6.30664c0,.87402,.01904,1.31104,.09521,1.74805h-1.95703c.07617-.49414,.09521-.91211,.09521-1.729v-.18994c-1.02588,.11426-1.44385,.1709-5.54736,.58887-.70264,.05713-.85498,.09521-1.13965,.15234l-.24707-1.88086q.28516,.01904,.37988,.01904c.22803,0,.77881-.01904,1.04492-.03809v-4.97705Zm1.74756,.70264h3.76172v-.70264h-3.76172v.70264Zm0,2.01367h3.76172v-.68359h-3.76172v.68359Zm0,2.14697c1.82373-.11426,1.86182-.11426,3.76172-.3042v-.5127h-3.76172v.81689Zm2.52686-11.56934c0-.72217-.01904-1.21582-.05713-1.76709,.53223,.05713,.96875,.07617,1.93799,.07617h3.60938c.93066,0,1.40576-.01904,1.95654-.07617-.07568,.62695-.09473,1.19678-.09473,2.12793v12.55713c0,1.84277-.37988,2.16553-2.46973,2.16553h-1.00684c-.07617-.81689-.20898-1.34863-.51318-2.03271,.72217,.07617,1.02588,.09521,1.34912,.09521,.55078,0,.646-.07617,.646-.4751v-8.41553h-3.6665c-.62695,0-1.29199,.01904-1.74805,.05664,.03809-.47461,.05713-.89258,.05713-1.72852v-2.5835Zm1.88086,.58887h3.47656v-.77881h-3.47656v.77881Zm0,2.12744h3.47656v-.81689h-3.47656v.81689Z" fill="#1d868c"/>
          <path d="M140.10272,105.83852c-.09473,.70264-.15186,1.63379-.15186,2.8877,0,1.65234,.15186,3.93213,.36084,5.09131,.32275,1.97559,.93115,3.19141,1.53857,3.19141,.28516,0,.55127-.28516,.7793-.81689,.45557-1.02588,.79785-2.16602,1.00684-3.43848,.66455,.75977,.96875,1.04492,1.89941,1.72852-.98779,3.70459-2.08936,5.24316-3.7041,5.24316-1.27295,0-2.29883-.93066-3.05859-2.75439-.77881-1.8999-1.12109-4.6543-1.19678-9.9165-.01904-.66504-.01904-.79785-.07617-1.21582h2.60254Zm8.98584,.85498c2.39355,2.86865,3.72314,6.04102,4.27441,10.22021l-2.35596,.89307c-.11377-1.78564-.55078-3.76172-1.21582-5.49023-.646-1.729-1.55762-3.26758-2.69727-4.67334l1.99463-.94971Z" fill="#1d868c"/>
          <path d="M157.60223,107.18715c.68408,.11426,1.44385,.1709,2.5459,.1709,.22754,0,.43652,0,.87354-.01855,.1709-.91211,.36084-2.375,.36084-2.90674,0-.07617,0-.18994-.01855-.3418l2.50732,.22754q-.13281,.43701-.36084,1.82373c-.09521,.53223-.11426,.646-.18994,1.08301,1.40576-.13281,2.29883-.28516,3.24854-.56982l.09473,2.18457q-.15186,.01904-.60791,.09521c-.96875,.18994-2.48828,.37988-3.11523,.39893-.20898,1.17773-.68408,3.19141-1.17773,4.91992-.55127,1.97607-.87402,2.92578-2.12793,6.28809l-2.39355-.93066c1.31055-2.4126,2.77344-6.83887,3.40039-10.2207-.13281,.01904-.20898,.01904-.24707,.01904h-1.10156c-.09521,0-.28516,0-.60791-.01904-.34229-.01904-.60791-.01904-.75977-.01904-.09521,0-.19043,0-.36133,.01904l.03809-2.20361Zm9.42285,7.37109c-.76025,.94971-.98828,1.4248-.98828,2.08984,0,.96875,.9502,1.4624,2.84961,1.4624,1.38721,0,3.21094-.30371,4.3125-.70264l.1709,2.33643c-.3418,.03809-.49365,.05713-.93066,.1333-1.57666,.22754-2.4126,.30371-3.53369,.30371-1.69043,0-2.90625-.24707-3.81836-.75977-.81689-.4751-1.34863-1.38672-1.34863-2.33691,0-1.00684,.36084-1.86133,1.40576-3.28613l1.88086,.75977Zm5.64209-2.48877c-.91211-.09473-1.44385-.13281-2.39355-.13281-1.88086,0-3.13477,.13281-5.01562,.55078l-.1709-2.08984c2.69775-.5127,3.60938-.60791,5.66113-.60791,.51318,0,.68408,0,1.88086,.01904l.03809,2.26074Z" fill="#1d868c"/>
          <path d="M181.61786,115.98305c.01855-.39893,.0376-.58887,.0376-.81689q0-.20898-.05664-1.34863l-.26611-6.45947c-.03809-.83545-.09521-1.78564-.1709-2.31738h3.11523c-.05664,.5127-.13281,1.50049-.1709,2.31738l-.26562,6.45947q-.03809,1.10156-.03809,1.36768c0,.22803,0,.41797,.03809,.79785h-2.22266Zm-.26611,4.16016v-2.60254h2.75439v2.60254h-2.75439Z" fill="#1d868c"/>
          <path d="M204.62518,109.25795q-.07617,.15186-.22803,.55078c-.18994,.53223-.20898,.55127-.26611,.72217,.77881,.18994,1.33008,.45605,1.97607,.93066,1.21582,.91211,1.80469,2.08984,1.80469,3.59033,0,2.0708-1.12109,3.68555-3.26758,4.74951-1.12109,.55078-2.20361,.83594-3.87549,1.00684-.20898-.81689-.37988-1.15869-1.00684-2.14648,1.53857-.01904,2.50732-.22803,3.62842-.76025,1.51953-.72168,2.22266-1.65234,2.22266-2.96338,0-1.19678-.77881-2.16553-2.12793-2.62158-1.04443,2.26074-1.9375,3.62842-3.30518,5.05322-1.70996,1.80469-3.40039,2.73535-4.97754,2.73535-1.7666,0-2.96338-1.34863-2.96338-3.32422,0-1.55762,.66504-3.05859,1.88086-4.25537,.75977-.74072,1.4624-1.21582,2.60254-1.70996,0-.60791,.03809-1.36768,.07568-2.2793-.20898,0-1.23438-.01904-3.07715-.07617h-.36133c-.05664,0-.22754,0-.43652,.01904v-2.12793c.85449,.18994,1.97559,.28516,3.55225,.28516h.41797q.01904-.37988,.07617-1.13965c.01855-.24707,.0376-.72217,.0376-1.08301,0-.07617,0-.15186-.0376-.3042l2.35547,.11426c-.15186,.5127-.22803,1.00684-.3418,2.33643,3.03955-.1709,5.73682-.55078,7.19971-1.00684l.09521,2.18506c-.26611,.01855-.34229,.01855-.74121,.07568-2.08936,.3418-5.16699,.62695-6.68701,.66504-.05664,.81689-.07568,1.4248-.09473,1.82373,1.02588-.20898,1.46289-.24707,2.62158-.24707,.22803,0,.37988,0,.72168,.03809,.20898-.60791,.32324-1.00684,.37988-1.44385l2.14697,.60791Zm-9.40381,5.03418c-.56982,.74121-.85498,1.52002-.85498,2.31787,0,.85498,.41797,1.38672,1.08301,1.38672,.53174,0,1.04492-.22803,1.65283-.72217-.24707-1.23438-.3418-2.4502-.3418-4.29297-.83594,.55078-1.15918,.83594-1.53906,1.31055Zm3.72363,1.57666q.07568-.11377,.20898-.26562c.89258-1.00684,1.65283-2.22266,2.35547-3.7998-.20898-.01855-.30371-.01855-.49365-.01855-.83594,0-1.52002,.09473-2.27979,.3418,.01904,1.74756,.01904,1.9375,.13281,3.26758q.01904,.11377,.01904,.24707c0,.09473,0,.11377,.01904,.20898l.03809,.01855Z" fill="#1d868c"/>
          <path d="M219.9787,115.37514c-1.08301,2.45068-2.29883,3.57129-3.85645,3.57129-2.16602,0-3.72363-2.20361-3.72363-5.26221,0-2.08984,.74072-4.04639,2.08984-5.52832,1.5957-1.74756,3.8374-2.65918,6.53467-2.65918,4.55957,0,7.52295,2.77344,7.52295,7.04785,0,3.28662-1.70947,5.9082-4.61621,7.08594-.91162,.37988-1.65283,.56982-2.98242,.79785-.32324-1.00684-.55127-1.4248-1.15869-2.22266,1.74756-.22803,2.88721-.53223,3.78027-1.04492,1.65283-.91162,2.64062-2.7168,2.64062-4.74951,0-1.82373-.81689-3.30518-2.33691-4.21729-.58887-.3418-1.08252-.49365-1.91846-.56982-.36084,2.98242-1.02588,5.604-1.97559,7.75098Zm-2.79297-6.80127c-1.5957,1.14014-2.5835,3.09668-2.5835,5.12939,0,1.55762,.66504,2.79248,1.50098,2.79248,.62695,0,1.27246-.79785,1.95654-2.43164,.72168-1.70947,1.34863-4.27441,1.57666-6.4209-.98779,.11377-1.67188,.37988-2.45068,.93066Z" fill="#1d868c"/>
          <path d="M234.1159,106.6935c0-.74121-.03809-1.40576-.09521-2.03271,.60791,.07568,1.23486,.09473,2.10889,.09473h9.19434c.89307,0,1.48193-.01904,2.05176-.09473-.07568,.72168-.09473,1.27246-.09473,1.9375v12.27246c0,.98779,.03809,1.61475,.11377,2.29834h-2.29883v-1.13965h-8.8335v1.13965h-2.26074c.07617-.646,.11426-1.40576,.11426-2.29834v-12.17725Zm2.14648,4.4834h8.8335v-4.40771h-8.8335v4.40771Zm0,6.85791h8.8335v-4.86328h-8.8335v4.86328Z" fill="#1d868c"/>
          <path d="M255.1867,109.02993c-.83594,0-1.48145,.03809-2.26074,.11426v-2.31787c.74121,.09521,1.36816,.13281,2.26074,.13281h4.88232v-1.34863c0-.74072-.03809-1.21582-.11377-1.7666h2.37451c-.09521,.53174-.13281,1.04492-.13281,1.74756v1.36768h5.14795c.9502,0,1.65283-.0376,2.29883-.13281v2.31787c-.83594-.07617-1.40576-.11426-2.29883-.11426h-4.06543c.89307,1.61475,1.78564,2.86865,2.84961,3.98926,1.29199,1.34912,2.64062,2.39404,4.1416,3.19189-.58887,.70264-.91211,1.21582-1.29199,2.0708-1.21582-.83594-2.03271-1.50098-3.19141-2.64062v2.16553c-.58887-.07617-1.12109-.11426-1.8999-.11426h-1.69043v1.29199c0,.89307,.0376,1.69092,.13281,2.35547h-2.39355c.09473-.70264,.13281-1.4624,.13281-2.35547v-1.29199h-1.50049c-.7793,0-1.33008,.03809-1.8999,.11426v-2.14697c-1.08301,1.14014-1.88086,1.82373-3.07764,2.65967-.37988-.85449-.66504-1.2915-1.29199-1.99463,2.84961-1.7666,5.14844-4.3125,6.61133-7.29492h-3.72363Zm4.88232,3.62842c0-.58887,.05713-1.34863,.15186-2.12744-1.00684,2.05176-1.91846,3.38135-3.45752,5.03418,.43701,.05713,.81689,.07617,1.69092,.07617h1.61475v-2.98291Zm3.9707,2.98291c.87354,0,1.21582-.01904,1.67139-.07617-1.48145-1.48193-2.31738-2.64062-3.68555-5.03418,.11426,.77881,.17139,1.53857,.17139,2.1084v3.00195h1.84277Z" fill="#1d868c"/>
          <path d="M288.66278,108.00405c-.1709,.24707-.26611,.4751-.4751,1.14014-1.12061,3.38135-2.03271,5.07227-3.81836,7.18066-1.69043,1.93799-4.02734,3.60938-6.7627,4.80615-.49414-.89258-.83594-1.31055-1.61475-1.99463,4.97705-1.89941,8.1875-5.30029,9.70752-10.23926l-5.71826,.07568c-1.06396,1.74805-2.86865,3.72363-4.44531,4.88232-.56982-.77881-.85498-1.02588-1.84277-1.63379,2.05176-1.36768,3.57129-3.07715,4.92041-5.50879,.56982-1.02588,.91162-1.91895,.96875-2.52686l2.60254,.53174c-.13281,.17139-.15186,.20898-.32275,.57031-.15234,.3418-.32324,.72168-.51318,1.10156-.09473,.1709-.09473,.18994-.13281,.26611l-.15186,.28467c.22754-.01855,.53174-.0376,.91162-.0376l4.16064-.05713c.5127,0,.83545-.01904,.98779-.03809-.43701-.94971-.7793-1.55762-1.38721-2.37451l1.40625-.4751c.74072,.98779,1.17773,1.74805,1.69043,3.00146l-.81689,.3042,.646,.74072Zm1.23486-1.36768c-.45605-1.12109-1.00684-2.08984-1.63379-2.94434l1.36768-.4751c.77881,1.00684,1.21582,1.7666,1.67188,2.8877l-1.40576,.53174Z" fill="#1d868c"/>
          <path d="M299.24725,105.07875q-.07568,.53174-.18994,4.25537c-.13281,3.7041-.55078,5.85107-1.53857,7.80762-.646,1.31104-1.36768,2.27979-2.62158,3.51465-.74072-.9502-1.02588-1.23486-1.91895-1.84277,.93115-.75977,1.38672-1.27295,1.95703-2.18457,1.36768-2.18506,1.80469-4.63525,1.80469-9.95459,0-1.04492,0-1.21582-.07617-1.729l2.5835,.1333Zm5.03467-.22803c-.09521,.55078-.11426,.87354-.1333,1.80469l-.09473,10.80957c1.32959-.62695,2.08936-1.19727,2.90625-2.16602,.87402-1.02588,1.4248-2.0708,1.86182-3.47656,.66504,.85498,.91211,1.10205,1.78564,1.78613-.77881,1.88037-1.7666,3.30518-3.02051,4.42627-1.08252,.93066-2.0708,1.50049-4.04639,2.2793-.41797,.15234-.56982,.22803-.81689,.34229l-1.21582-1.29199c.1333-.55078,.15186-.96875,.1709-2.01367l.09521-10.71436v-.56982c0-.4751-.01904-.89307-.07617-1.25391l2.58398,.03809Z" fill="#1d868c"/>
          <path d="M327.1203,105.47768c-.20898,.36084-.28467,.5127-.66504,1.36768-1.19678,2.83057-1.9375,4.27441-2.67822,5.37598,1.5957,1.34912,2.5835,2.27979,4.23633,4.02783l-1.82373,1.95654c-.98779-1.29199-2.12793-2.46973-3.85645-4.0083-.81689,1.08252-1.80469,2.14648-2.96387,3.17236-1.36768,1.19678-2.5835,2.05176-4.521,3.13477-.51318-.91211-.81689-1.25391-1.67188-1.97607,2.10889-1.04492,3.41943-1.91846,4.92041-3.28662,.91162-.81641,1.67139-1.6333,2.4126-2.5835-1.52002-1.25391-3.34375-2.48828-5.03418-3.41943l1.67139-1.67188c1.38721,.81689,2.20361,1.34912,3.13477,2.01367q1.4248,1.02588,1.57666,1.12109c1.21582-1.99463,2.43164-4.74951,2.67871-6.11719l2.5835,.89307Z" fill="#1d868c"/>
          <path d="M340.3454,115.37514c-1.08301,2.45068-2.29883,3.57129-3.85645,3.57129-2.16602,0-3.72363-2.20361-3.72363-5.26221,0-2.08984,.74072-4.04639,2.08984-5.52832,1.5957-1.74756,3.8374-2.65918,6.53467-2.65918,4.55957,0,7.52295,2.77344,7.52295,7.04785,0,3.28662-1.70947,5.9082-4.61621,7.08594-.91162,.37988-1.65283,.56982-2.98242,.79785-.32324-1.00684-.55078-1.4248-1.15918-2.22266,1.74805-.22803,2.8877-.53223,3.78076-1.04492,1.65283-.91162,2.64062-2.7168,2.64062-4.74951,0-1.82373-.81689-3.30518-2.33691-4.21729-.58887-.3418-1.08252-.49365-1.91846-.56982-.36084,2.98242-1.02588,5.604-1.97559,7.75098Zm-2.79297-6.80127c-1.5957,1.14014-2.5835,3.09668-2.5835,5.12939,0,1.55762,.66504,2.79248,1.50098,2.79248,.62695,0,1.27246-.79785,1.95654-2.43164,.72168-1.70947,1.34863-4.27441,1.57666-6.4209-.98779,.11377-1.67139,.37988-2.45068,.93066Z" fill="#1d868c"/>
          <path d="M359.64959,113.07631c-.57031,0-1.06396,.01904-1.46289,.05713,.03809-.43701,.05713-.89307,.05713-1.57666v-4.44531c0-.79785,0-.91211-.05713-1.53906,.4751,.05713,.68359,.05713,1.50049,.05713h.60791c.28516-.70312,.45605-1.21582,.60791-1.9375l2.10889,.24658c-.36084,.87402-.60791,1.44385-.72168,1.69092h1.5957c.77881,0,.96875,0,1.4624-.05713-.05664,.45605-.05664,.66504-.05664,1.53906v4.44531c0,.81689,.01904,1.21582,.05664,1.57666-.41748-.03809-.87354-.05713-1.42432-.05713h-1.17822v1.25391h5.12939c1.12061,0,1.78564-.03809,2.27979-.11377v2.05127c-.56982-.07568-1.25391-.11377-2.29883-.11377h-3.68555c1.12109,.87402,1.78613,1.29199,2.73584,1.72852,1.27295,.57031,2.14648,.87402,3.78027,1.23486-.49365,.66504-.79785,1.15918-1.17773,1.95703-1.80469-.56982-2.48877-.85498-3.60938-1.50098-1.33008-.77881-2.39355-1.61475-3.21045-2.54541q0,.22803,.01904,.5127c0,.05713,.01855,.68408,.01855,.74121v1.10156c0,.94971,.01904,1.33008,.1333,1.95654h-2.31787c.09521-.60791,.1333-1.12061,.1333-1.95654v-1.08301c0-.36084,.01855-.72168,.05664-1.25342-1.06348,1.12061-1.7666,1.70947-2.90625,2.37451-1.04492,.60791-2.29883,1.17773-3.64746,1.63379-.37988-.77881-.66504-1.21582-1.23486-1.86182,2.60254-.66504,4.74902-1.70996,6.21191-3.03955h-3.45752c-.98779,0-1.72852,.03809-2.26074,.11377v-2.05127c.53223,.07568,1.25391,.11377,2.26074,.11377h4.9585v-1.25391h-1.00684Zm-1.67188-1.99463c-1.10205,.74072-1.80469,1.13965-3.40039,1.91895-.36133,.1709-.37988,.18994-.77881,.39893l-.74121-1.91895c1.21582-.30371,2.65967-1.02588,4.44531-2.14648l.4751,1.74756Zm-3.07764-6.28809c1.04492,.83594,1.80469,1.55762,2.8877,2.75439l-1.38672,1.46289c-.96924-1.23486-1.82373-2.08936-2.8877-2.90625l1.38672-1.31104Zm5.22412,3.72363h3.28662v-1.23486h-3.28662v1.23486Zm0,2.90625h3.28662v-1.32959h-3.28662v1.32959Zm6.42139-2.01367c1.89941,.96875,2.90625,1.53906,4.04639,2.29883l-1.10205,1.63379c-1.38672-1.02588-2.56445-1.74805-4.0083-2.45068l1.06396-1.48193Zm3.62842-3.28613c-1.38672,1.4624-2.27979,2.2793-3.24854,3.03906l-1.29199-1.40576c1.4248-1.12061,2.03271-1.72852,3.00146-2.98242l1.53906,1.34912Z" fill="#1d868c"/>
          <path d="M378.9162,104.66079c-.11426,.55078-.15186,1.10156-.22803,2.56445-.07617,1.7666-.18994,5.62305-.18994,6.97217,0,1.80469,.11377,2.48828,.49365,3.05859,.43701,.62646,1.34912,.98779,2.5459,.98779,2.05176,0,3.70459-1.15918,4.59717-3.24854,.41797-.98779,.66504-1.88086,.87402-3.19189,1.02588,.83594,1.36768,1.04492,2.29834,1.46289-.75977,2.56494-1.32959,3.7998-2.26025,4.84424-1.4248,1.61475-3.30566,2.4126-5.69922,2.4126-1.31104,0-2.52686-.30371-3.32471-.83545-1.31055-.87402-1.86182-2.33691-1.86182-4.88232,0-.98779,.03809-2.8877,.15234-7.65625,.01904-.56982,.01904-.96875,.01904-1.23438,0-.53223-.01904-.79834-.07617-1.29199l2.65967,.03809Z" fill="#1d868c"/>
          <path d="M395.54168,105.04067c.43652,.07568,.91162,.09473,1.91846,.09473,1.14014,0,2.83057-.07568,3.53369-.1709,.37988-.03809,.5127-.07568,.75977-.22803l1.50098,1.29199c-.17139,.22803-.26611,.43701-.39941,.79785-.09473,.22803-1.25342,3.72363-1.42432,4.3125,1.48145,.20898,2.75439,.56982,4.19824,1.19678,.15186-.96875,.18994-1.74805,.18994-3.51465,0-.41797-.01904-.62695-.07617-1.00684l2.39355,.09521c-.07568,.39893-.09473,.55078-.11377,1.27246-.05713,1.67188-.15186,2.81201-.3418,4.02783,.60791,.30371,1.44385,.74072,2.03271,1.08252,.5127,.3042,.58887,.32324,.87354,.45605l-.85449,2.50781c-.55127-.4751-1.65283-1.21582-2.62158-1.76709-.53223,1.40576-1.10205,2.33691-2.0708,3.34375-.83594,.87354-1.78564,1.57666-2.86865,2.14648-.79785-.98779-.98779-1.17773-1.729-1.70947,1.4248-.68408,2.16602-1.17822,2.94482-1.99512,.75977-.81689,1.38672-1.84229,1.69092-2.81152-1.34912-.64551-2.46973-1.00684-4.27441-1.31055-.83594,2.50732-1.33008,3.72314-1.88086,4.67334-.70312,1.21582-1.55762,1.80469-2.60254,1.80469-1.74805,0-3.03955-1.53906-3.03955-3.60938,0-1.74805,.85498-3.22949,2.35547-4.16064,.98779-.60791,1.99463-.85498,3.59033-.91162,.49414-1.50098,.72217-2.22266,1.19678-3.9707-.96875,.07617-1.42432,.09521-3.28613,.1709-.77881,.03809-1.12109,.05713-1.50098,.11426l-.09473-2.22266Zm.56982,9.04248c-.4751,.51318-.72217,1.15869-.72217,1.82373,0,.77881,.41797,1.40576,.93115,1.40576,.36084,0,.646-.3418,1.08252-1.19678,.38037-.75977,.83594-1.9375,1.23486-3.17236-1.27246,.18994-1.9375,.49365-2.52637,1.13965Z" fill="#1d868c"/>
          <path d="M421.49432,105.45864c0-.62695-.03809-1.12109-.13281-1.57666h2.45068c-.07617,.39893-.11426,.89258-.11426,1.57666v1.15869h5.22461c1.06348,0,1.74756-.03809,2.39355-.13281v2.29834c-.58887-.07568-1.17773-.11377-2.31787-.11377h-6.95264c-.09521,1.4248-.09521,1.48193-.15234,2.05176h5.26221c.98779,0,1.52002-.01904,1.95703-.09521,0,.09521,0,.15234-.01904,.18994-.03809,.28516-.03809,.51318-.07617,1.33008-.07617,2.84961-.32275,5.30029-.646,6.66797-.43701,1.80469-1.06348,2.27979-2.96338,2.27979-.66504,0-1.10205-.01904-2.56445-.1333-.07617-.87354-.22803-1.50049-.55127-2.20361,1.10205,.1709,1.97607,.24707,2.84961,.24707,.83594,0,1.02588-.20898,1.27295-1.52002,.22803-1.13965,.3418-2.33643,.41797-4.76807h-5.24316c-.79785,3.81836-2.50781,6.25-6.09814,8.60547-.4751-.83545-.83594-1.25342-1.53906-1.80469,1.67188-1.04443,2.48877-1.70947,3.40088-2.81152,1.63379-1.95654,2.2793-4.16016,2.37451-8.03564h-3.11572c-.94971,0-1.72852,.03809-2.37451,.11377v-2.29834c.68408,.09473,1.40576,.13281,2.37451,.13281h4.88232v-1.15869Z" fill="#1d868c"/>
        </g>
        <rect width="484.45282" height="75.82553" fill="#fff" opacity=".98"/>
      </g>
      <g>
        <g>
          <path d="M104.83037,28.87757l-.46808-1.6768-.744-1.56402-1.08153-1.34758-1.42771-.96924-1.64708-.52384-1.72717-.14328-1.62553,.13676-1.55656,.4826-1.35468,.90254-1.04187,1.24828-.72982,1.45867-.47073,1.55902-.27524,1.61137-.14931,1.62705-.05067,1.63712-.00038,1.49595,.00966,1.49836,.00067,1.49836,.03309,1.63432,.15245,1.62523,.29245,1.6059,.47255,1.56289,.72354,1.45944,1.05175,1.2398,1.3467,.9069,1.54885,.49528,1.62307,.1393,1.7371-.13812,1.65805-.51268,1.4428-.95774,1.07749-1.36046,.71998-1.5803,.46305-1.67138,1.88496-.00512,1.89001-.00122,1.88844,.00445-.3255,1.6948-.46699,1.66463-.64051,1.60533-.85041,1.50359-1.06499,1.35918-1.27345,1.16384-1.45403,.92755-1.58012,.69312-1.66961,.43965-1.7086,.25384-1.72767,.0688-1.67492-.06669-1.65639-.25281-1.61704-.43291-1.54001-.65631-1.42632-.87537-1.26372-1.09568-1.08776-1.27007-.88104-1.4227-.69302-1.52376-.52602-1.58729-.37671-1.631-.24383-1.65787-.14341-1.6705-.03464-1.67782-.00725-1.49595-.0019-1.49836,.00279-1.49836,.04826-1.67831,.13679-1.67067,.24209-1.65804,.36998-1.63559,.53697-1.58676,.68912-1.52611,.8937-1.41527,1.08235-1.27578,1.26661-1.09161,1.42096-.88182,1.54359-.64267,1.61192-.44507,1.65646-.23738,1.67241-.08388,1.72537,.08449,1.70585,.26187,1.66138,.46565,1.58213,.6886,1.44696,.93922,1.27509,1.16116,1.0714,1.35045,.87057,1.48803,.65885,1.5951,.48635,1.65639,.3284,1.68966-1.90181,.01256-1.90704-.00304-1.90794,.00018Z" fill="#1d868c"/>
          <path d="M137.24712,53.17338l-1.78225,.00126-1.78783-.00329-1.79021,.00671,.00271-2.29939-1.15864,1.37722-1.56084,.88559-1.75469,.39553-1.80582,.09977-1.73742-.10872-1.70438-.35225-1.60807-.6619-1.42333-.99473-1.15256-1.29889-.82107-1.53059-.53575-1.65422-.2769-1.71618-.08197-1.74121-.00623-1.58759,.00328-1.58763-.00173-1.59288,.00525-1.59025,.00062-1.59239,.00042-1.59419-.00134-1.59191-.00525-1.59564,.0024-1.59821-.00167-1.60142,1.82177,.0022,1.82189,.00305,1.82541-.00581-.00133,1.70498-.00088,1.70684,.00156,1.70402-.00493,1.70631-.00163,1.70823-.00043,1.7058,.00079,1.70979,.00554,1.71255-.00083,1.71255,.11606,1.74928,.47244,1.68597,1.02615,1.40237,1.54988,.78151,1.73529,.19789,1.74243-.22867,1.56289-.79445,1.12543-1.3418,.60789-1.64719,.16613-1.75392-.00061-1.70685-.00131-1.7125,.00332-1.70968,.00152-1.71197-.00433-1.7139,.00877-1.71146-.00602-1.71547,.00376-1.71823-.0016-1.71749,1.80125,.00337,1.80486-.00881,1.80834,.00101-.00211,1.70454-.00064,1.69896-.00477,1.70095,.00697,1.7-.00318,1.70161,.00366,1.70057-.00732,1.69643,.00143,1.70204,.00178,1.69923-.0037,1.70151,.00029,1.70343,.00648,1.701-.00552,1.70498,.00052,1.70773-.00006,1.70491Z" fill="#1d868c"/>
          <path d="M145.41486,17.94606l1.82165,.00411,1.82189-.00265,1.82176,.00156-.0019,1.61824,.00007,1.62023-.00124,1.61843,.00414,1.62032,.00142,1.61941-.00047,1.62095,.00076,1.61637-.0069,1.61641,.00089,1.62176,.00564,1.61908,.00298,1.62126-.00267,1.62308-.00007,1.62077-.00035,1.62457,.00312,1.62718-.00934,1.62718,.11358,1.73876,.61547,1.61028,1.42707,.9383,1.73283,.20343,.00214,1.60003-.011,1.60054,.00104,1.59949-1.59135-.04157-1.58444-.17137-1.55552-.34008-1.47434-.6005-1.27194-.94838-.94614-1.27195-.55876-1.48662-.27484-1.5625-.08729-1.59149,.00187-1.69803,.00592-1.69996-.00849-1.69808,.00422-1.70006-.00398-1.69911,.01156-1.70072-.00695-1.69969-.00165-1.69554-.00078-1.70115-.00317-1.69834,.01129-1.70062-.00401-1.70254,.00392-1.70012-.00079-1.7041-.00398-1.70684-.00292-1.70971Z" fill="#1d868c"/>
          <path d="M160.06982,27.64923l1.63367,.00516,1.63073-.00784,.00657-1.86734,.00217-1.87298-.00386-1.87117,1.80009,.00171,1.80488-.00539,1.8081-.00124-.00875,1.87307,.00441,1.87298,.00309,1.87108,1.79998,.00034,1.80486-.00013,1.80152,.00554,.00042,1.56011,.00439,1.56648,.00197,1.57044-1.80539-.00189-1.80486-.00371-1.80516,.00132,.00567,1.66619-.00924,1.6681-.00028,1.66998,.0053,1.66761,.00348,1.67151,.00125,1.6742-.01055,1.6742,.07605,1.59129,.43507,1.51929,1.23536,.93636,1.57671,.19171,2.0964-.00538-.00624,1.63614,.00883,1.6346-.00604,1.63444-1.25061-.0024-1.25083,.0081-1.7039-.07343-1.68745-.23103-1.62208-.52308-1.41008-.94352-1.0075-1.36347-.56798-1.60198-.25914-1.68224-.06877-1.70442,.00922-1.58773-.00783-1.58511-.0013-1.58724,.00047-1.58903,.00003-1.58677,.00984-1.59048-.00649-1.59304,.00126-1.59312-1.6338,.0032-1.63217-.00476-.00773-1.56234,.00888-1.56648-.00265-1.56642Z" fill="#1d868c"/>
          <path d="M200.91207,53.17599l-1.78476,.00175-1.78783-.00456-1.7839-.00004-.00322-2.29456-1.16379,1.37171-1.55553,.8927-1.75511,.39511-1.80595,.09689-1.73752-.10619-1.70463-.35182-1.60654-.66527-1.42627-.99056-1.14567-1.30441-.82849-1.52609-.53272-1.65535-.28117-1.71565-.07892-1.74156,.00218-1.58759-.00681-1.58763,.00725-1.59288-.00724-1.59025,.00412-1.59239-.00114-1.59419,.00106-1.59191-.00429-1.59564,.00148-1.59821-.00002-1.60104,1.82144-.00193,1.82189,.00384,1.82263,.00012-.00333,1.70201,.00425,1.70684,.00146,1.70402,.0014,1.70631-.00324,1.70823-.00542,1.7058,.00877,1.70979-.00483,1.71255-.00389,1.71255,.12222,1.74918,.4732,1.68543,1.02854,1.39849,1.54614,.78566,1.73519,.20488,1.74237-.23548,1.56436-.79246,1.12458-1.34327,.60214-1.64861,.17886-1.75282-.00734-1.70685,.00014-1.7125-.00205-1.70968,.00759-1.71197-.0067-1.7139-.00082-1.71146,.00849-1.71547-.00111-1.71823-.00608-1.72149,1.80506,.00325,1.80486,.00363,1.80416-.00288-.00098,1.70011,.00484,1.69896-.00757,1.70095,.00646,1.7,.00109,1.70161-.00752,1.70057,.00416,1.69643,.00143,1.70204-.00047,1.69923-.00035,1.70151,.0008,1.70343,.00351,1.701-.00786,1.70498,.00086,1.70773,.00209,1.70753Z" fill="#1d868c"/>
          <path d="M221.89525,34.03307l-.97318-1.08033-1.26831-.6981-1.43515-.21847-1.6375,.28089-1.41767,.85693-.98097,1.34-.51118,1.58257-.14729,1.66135-.00453,1.70685-.00219,1.7125,.00346,1.70968,.00022,1.71197,.00366,1.7139-.00126,1.71146,.00181,1.71547-.0014,1.71823-.00064,1.71984-1.82047-.00237-1.82189,.00396-1.8188-.00651-.00346-1.69754,.00396-1.69896-.00852-1.70095,.00418-1.7-.00169-1.70161,.00455-1.70057-.00058-1.69643-.00191-1.70204,.00259-1.69923-.00224-1.70151,.00288-1.70343,.00148-1.701-.00865-1.70498,.00485-1.70773,.00019-1.70698,1.78425,.00436,1.78785-.00344,1.78838-.00209-.00279,2.29823,1.08836-1.24654,1.39922-.87954,1.57927-.49113,1.65346-.14369,1.6818,.13205,1.63135,.42225,1.49084,.78269,1.26793,1.10667,1.02588,1.33901-1.4435,1.02295-1.44871,1.01961-1.44794,1.02176Z" fill="#1d868c"/>
          <path d="M249.15847,49.29522l-1.02626,1.45362-1.32111,1.18517-1.55348,.85389-1.70059,.51656-1.75813,.25896-1.78041,.07167-1.6537-.08304-1.62987-.27947-1.57618-.4993-1.48093-.73286-1.3311-.97975-1.13253-1.20271-.91178-1.3775-.66978-1.50981-.45469-1.58806-.26148-1.63241-.07887-1.65271-.00113-1.73585,.00231-1.73585,.05373-1.60289,.20245-1.58975,.35625-1.56145,.56611-1.49757,.78909-1.3922,1.03002-1.22226,1.2497-.99511,1.41457-.74154,1.52324-.48637,1.5779-.26261,1.5998-.08796,1.625,.08951,1.60289,.26561,1.5427,.5092,1.42799,.77144,1.24855,1.03581,1.00392,1.27498,.76248,1.43269,.52408,1.53557,.33511,1.58967,.18236,1.6151,.06125,1.6265-.00619,1.40398-.00055,1.39996-1.68657,.00716-1.6955-.00438-1.6927,.00467-1.69497-.00322-1.69688-.00439-1.69446,.00395-1.69843,.00258-1.70117,.00192-1.70106-.00245,.00503,.10029,.09651,1.70597,.35998,1.66673,.72303,1.54108,1.16145,1.23645,1.52818,.73517,1.69065,.20804,1.5309-.09538,1.48299-.38472,1.28326-.82767,.96039-1.18748,1.36146,.94797,1.36255,.953,1.36262,.95383Zm-14.85747-11.74304l1.62191-.00145,1.62429,.00552,1.62198-.00582,1.62578,.00302,1.6284-.00036,1.62861,.00111-.20861-1.67145-.52008-1.5947-.99603-1.3386-1.46592-.78817-1.65969-.21953-1.65354,.23312-1.44736,.81716-1.00868,1.32556-.55458,1.57677-.23646,1.65781Z" fill="#1d868c"/>
          <path d="M290.7127,41.99535l-.06473,1.64429-.22758,1.62816-.39883,1.5966-.61362,1.52446-.84712,1.4073-1.07843,1.23828-1.30244,.99888-1.45826,.75052-1.5648,.50111-1.62203,.26297-1.64351,.08622-1.64412-.08141-1.61906-.28353-1.56237-.50997-1.46096-.75072-1.30061-1.00335-1.08899-1.22954-.8579-1.40014-.62419-1.51864-.41308-1.59012-.23686-1.62703-.06377-1.64433-.00694-1.60816,.00672-1.60816,.0698-1.64522,.21328-1.63154,.41313-1.5921,.61579-1.52353,.85639-1.40286,1.09921-1.21946,1.30691-.99229,1.46298-.74415,1.5708-.48069,1.62054-.27131,1.6433-.08943,1.64173,.08115,1.61808,.27639,1.56838,.48442,1.45968,.74869,1.30548,.991,1.09142,1.22388,.84479,1.40505,.61373,1.51973,.39052,1.5937,.2229,1.62621,.07022,1.64238,.00083,1.60816-.00642,1.60816Zm-5.40754-.15312l-.00393-1.48061,.00574-1.48061-.09951-1.66915-.338-1.63559-.68851-1.51661-1.13844-1.20698-1.49729-.71282-1.65386-.20114-1.66077,.20834-1.51424,.6963-1.14343,1.21194-.69706,1.51768-.34896,1.63348-.10144,1.67456,.0049,1.48061,.00271,1.48061,.08961,1.70171,.33054,1.66712,.68032,1.55419,1.1413,1.24845,1.53106,.71469,1.68547,.21299,1.6642-.23082,1.49856-.75072,1.11721-1.25116,.67934-1.53725,.35576-1.64514,.09873-1.68406Z" fill="#1d868c"/>
          <path d="M297.96309,27.64831l-.00045-1.58173,.06847-1.70449,.26004-1.6838,.56532-1.60645,1.00641-1.36674,1.41608-.93424,1.61698-.52363,1.68579-.23259,1.70405-.07238,1.58257,.00677,.00572,1.63188-.00997,1.6346,.00913,1.63804-1.17909,.0036-1.57564,.19204-1.23443,.93506-.43109,1.51308-.07504,1.59022-.00268,.56276,1.4964-.00595,1.49839-.00166,1.49468,.01003,.0091,1.56042-.0022,1.56648-.00657,1.56326-1.4926,.00604-1.49839-.00477-1.49461,.00549-.00488,1.5977,.00645,1.60034-.00398,1.60186,.00067,1.59733-.00018,1.59737-.00744,1.60266,.01014,1.60001-.00629,1.60216,.00406,1.60397,.00116,1.60168-.00625,1.60543,.00362,1.60802,.00178,1.61097-1.80461-.00322-1.80488-.00254-1.80309,.00078-.00278-1.59921,.0033-1.60034-.0058-1.60186,.0015-1.59733-.00418-1.59737,.00774-1.60266-.00028-1.60001-.00537-1.60216,.00925-1.60397-.00468-1.60168-.00476-1.60543,.00905-1.60802-.0037-1.60912-1.63481,.00516-1.63555-.00216,.00704-1.56587-.00086-1.56648-.00875-1.57106,1.63812,.00664,1.63289-.00292Z" fill="#1d868c"/>
          <path d="M328.95386,45.92972l1.01752,1.08626,1.2453,.81697,1.40823,.48736,1.48458,.16011,1.59331-.14201,1.51461-.50003,1.25777-.97551,.85908-1.3436,.51991-1.51198,.3059-1.5712,.13627-1.59363,.0408-1.60394-.00319-1.63656,.00911-1.63564,.00088-1.63719-.00995-1.63257,.00446-1.63261,.00297-1.63801,.00356-1.63531-.00198-1.6375-.00874-1.63935,.00149-1.63701,.008-1.64085-.01024-1.64349,.00844-1.63995,1.47285-.00444,1.48025,.00773,1.48263-.01349,1.48518,.00435,.00386,1.63887-.00839,1.63564,.0069,1.63719-.00651,1.63257,.00569,1.63261-.00996,1.63801,.00748,1.63531-.00482,1.6375,.00656,1.63935,.00314,1.63701-.00837,1.64085-.00024,1.64349,.00634,1.64349-.0416,1.65071-.13896,1.64167-.23663,1.63221-.36571,1.60794-.545,1.5545-.72667,1.47831-.95581,1.34017-1.16596,1.15901-1.3644,.91587-1.49824,.67453-1.5852,.43935-1.62967,.23142-1.64596,.07469-1.70703-.08034-1.68684-.2741-1.64522-.45612-1.56107-.69162-1.43629-.92224-1.2697-1.14053-1.0583-1.33989,1.65023-.93315,1.65268-.93463,1.65066-.93658Z" fill="#1d868c"/>
          <path d="M362.54563,38.11791l1.83596,.00189,1.83892-.00331,1.83938-.00081,.00401-2.14461-.13128-1.52845-.61909-1.38665-1.2735-.81634-1.49945-.29467-1.53545-.06294-1.54774,.06108-1.51916,.27954-1.32903,.76069-.96546,1.20351-1.30633-.92348-1.31225-.91781-1.31297-.91751,.93114-1.28466,1.16061-1.07573,1.35545-.81606,1.48797-.53074,1.55087-.32672,1.57669-.15443,1.58757-.05073,1.72633,.05563,1.71743,.19074,1.68236,.39658,1.57741,.6967,1.35318,1.0618,1.00041,1.39876,.61167,1.61089,.29968,1.69724,.08736,1.72475-.00035,1.71351,.00366,1.70933,.00284,1.71498-.0047,1.71215-.00269,1.71445,.00119,1.71639,.00142,1.71394,.00279,1.71795-.0019,1.72072-.00118,1.72-1.78428-.0005-1.78785,.0052-1.78766-.00413-.00368-2.34769-1.07207,1.3482-1.44874,.92755-1.6704,.42187-1.72754,.10897-1.71037-.0971-1.68211-.31655-1.60998-.58304-1.45239-.90233-1.18535-1.22943-.83902-1.48643-.46712-1.64349-.14637-1.70527,.15774-1.71903,.505-1.64721,.92827-1.44893,1.29364-1.13334,1.52787-.79221,1.6563-.47987,1.70637-.25545,1.72595-.07735Zm5.51533,4.18168l-1.7015-.00238-1.7027,.00331-1.7027,.0006-1.61689,.11506-1.53414,.5085-1.08892,1.16563-.30278,1.58098,.30731,1.51073,1.03483,1.13411,1.44986,.53116,1.54647,.1412,1.77255-.12807,1.66375-.59624,1.20228-1.27922,.5404-1.68275,.1293-1.77528,.00286-1.22736Z" fill="#1d868c"/>
          <path d="M403.23462,42.09747l-.08292,1.73173-.24178,1.7169-.46347,1.67004-.67911,1.59408-.93991,1.45428-1.20208,1.24491-1.43114,.9721-1.59637,.66695-1.68982,.37984-1.73054,.1135-1.67736-.10089-1.64959-.31777-1.54447-.64093-1.31062-1.04112-.00127,1.61632,.00143,1.61709,.00066,1.61892-.00216,1.61661,.0002,1.6204,.01174,1.62301-.00408,1.62527-1.821-.00283-1.82191,.00637-1.81902-.00895,.00379-1.66968-.01339-1.67363,.01317-1.67634-.00547-1.67602,.00586-1.67455-.00438-1.6757-.00413-1.67761-.0029-1.67575,.0069-1.67771-.00855-1.67677,.01068-1.67835-.00373-1.67361,.00404-1.67366,.00137-1.67919-.00793-1.67642,.00524-1.67867-.00118-1.68057-.0087-1.67817,.01301-1.6821-.00765-1.68481,.00159-1.68422,1.81843-.00242,1.82191-.00035,1.82005,.00385,.00748,2.03929,1.26628-1.17138,1.53822-.79724,1.68483-.41222,1.73359-.12133,1.7162,.11824,1.67869,.37321,1.58816,.6587,1.41897,.96808,1.20564,1.2234,.94145,1.43705,.68664,1.57438,.44066,1.66221,.25882,1.70092,.07272,1.72161-.00185,1.73585,.00007,1.73585Zm-5.41089-.25524l.00478-1.48061-.00956-1.48061-.08399-1.67004-.34558-1.63461-.69166-1.51448-1.13276-1.21227-1.50025-.70702-1.65311-.20519-1.60615,.19993-1.46788,.66117-1.14375,1.13372-.71576,1.44989-.36174,1.5751-.1211,1.61755-.00106,1.63374,.00143,1.63373,.08898,1.69795,.31793,1.66613,.66896,1.55628,1.13907,1.24358,1.51967,.72465,1.68139,.20852,1.66377-.23019,1.50012-.74781,1.11815-1.25134,.67489-1.53929,.36044-1.64412,.09476-1.68435Z" fill="#1d868c"/>
          <path d="M418.55083,38.11788l1.83601-.00104,1.83896,.00051,1.84123-.00013,.00009-2.14616-.12765-1.52878-.61736-1.38913-1.27759-.81133-1.49882-.29594-1.53538-.06274-1.54801,.05669-1.51947,.28105-1.32348,.76799-.96848,1.19047-1.31082-.91231-1.31068-.91998-1.3089-.9212,.93351-1.27779,1.1579-1.07686,1.35537-.81404,1.48468-.53874,1.55149-.32451,1.5763-.16091,1.58796-.04319,1.72639,.05406,1.7179,.18841,1.67911,.40819,1.582,.68501,1.35255,1.0638,.9953,1.40193,.6183,1.60813,.30223,1.69739,.08506,1.72531-.0001,1.71351,.00203,1.70933-.00595,1.71498-.0023,1.71215,.00153,1.71445,.00593,1.71639,.00148,1.71394-.00129,1.71795-.00081,1.72072-.00179,1.72054-1.7848,.0031-1.78785-.00726-1.78689,.00361,.00084-2.34806-1.07929,1.34708-1.4487,.92511-1.6685,.4267-1.7276,.11234-1.71029-.10153-1.68279-.31361-1.60905-.58596-1.44827-.90721-1.18937-1.22417-.83868-1.48642-.47254-1.64236-.14053-1.70608,.15688-1.71896,.50678-1.6463,.92357-1.45212,1.29484-1.13317,1.52954-.78937,1.65444-.48785,1.70707-.25722,1.72676-.06845Zm5.51546,4.18173l-1.70151,.00055-1.70272-.00051-1.70272-.00091-1.61654,.11952-1.53527,.50506-1.09206,1.16517-.29652,1.58281,.30583,1.51032,1.03459,1.13356,1.44862,.53534,1.54711,.13986,1.77129-.13725,1.66911-.58234,1.19428-1.28794,.54255-1.68093,.1348-1.77498-.00084-1.22734Z" fill="#1d868c"/>
          <path d="M437.5432,27.65016l1.78403,.00392,1.78785-.00425,1.78671,.00023-.00041,2.29687,1.24593-1.28828,1.56036-.87631,1.73202-.46089,1.7939-.13402,1.72971,.11159,1.69762,.34538,1.60241,.6541,1.41777,.98784,1.14358,1.29515,.82619,1.51951,.51843,1.65256,.2795,1.70836,.07242,1.73439,.00517,1.59267-.00161,1.59271,.00567,1.59798-.00841,1.59535,.00451,1.59749-.00155,1.59929,.00329,1.59701,.00143,1.60075-.0035,1.60333-.00119,1.60288-1.8016-.00361-1.8049,.00604-1.80216-.00489-.00742-1.6983,.00834-1.70684,.00023-1.70402,.00028-1.70631-.00866-1.70823,.00145-1.7058,.00756-1.70979-.0016-1.71255-.00513-1.71255-.11632-1.73077-.47189-1.66651-1.01311-1.38858-1.53088-.77708-1.71564-.20099-1.73564,.23241-1.56082,.78498-1.14573,1.31709-.62913,1.63278-.18488,1.74569,.00213,1.70685-.00953,1.7125,.00801,1.70968-.00742,1.71197,.00382,1.7139,.0031,1.71146-.00354,1.71547-.00333,1.71823,.00484,1.71869-1.81941-.00342-1.82191,.00397-1.82086-.00214,.00362-1.69972-.00381-1.69896-.00456-1.70095-.0003-1.7,.00038-1.70161,.00812-1.70057,.00053-1.69643-.00035-1.70204-.00316-1.69923,.00083-1.70151-.00461-1.70343-.00161-1.701,.00016-1.70498,.00621-1.70773-.00155-1.70675Z" fill="#1d868c"/>
        </g>
        <path d="M60.10074,26.32593l.13372-.1491,.00814-1.20438,.14271-.14287,1.81759,.00787,1.81759-.00286,.15255-.1465,.23476-1.82213,.21393-1.82466,.15175-.19414,1.53779-.5297,1.53294-.54352,.15434-.21445,.61627-1.96067,.61565-1.96086-.09055-.07817-1.53903,.56663-1.58406,.43672-1.60191,.37243-1.61004,.31656-1.62376,.24862-1.63081,.20779-1.6353,.18771-1.63537,.14215-1.6425,.11311-1.64657,.08004-1.64394,.05437-1.65243,.03043-1.65357,.02546-1.64903-.01379-1.64909-.04168-1.649-.04705-1.6473-.078-1.64366-.11658-1.64021-.13145-1.63684-.15535-1.63499-.18831-1.62785-.23045-1.6262-.25482-1.61868-.30004-1.60277-.35351-1.59389-.39307-1.55823-.49314-.09034,.09147,.6133,1.9616,.59934,1.96594,.17408,.20097,1.51987,.45908,1.51703,.46819,.14847,.17698,.23651,1.91003,.23693,1.90998,.15827,.1331,1.84887,.01472,1.84887-.00303,.14568,.13887-.00287,1.20438,.14175,.13568,.96821,.0068,.13149,.14184-.03752,1.43363-.02813,1.4362-.04222,1.43582-.14773,.14287-1.49827-.0081-1.50178,.00899-1.5042-.00369-1.5042-.00355-.1453,.14795,.00797,1.66049v1.66049s.13733,.13904,.13733,.13904l1.47396-.00319,1.47741,.00874,1.47979,.00101,1.47979-.00282,.13695,.14169-.04353,1.69937-.04942,1.70082-.04904,1.6998-.04488,1.69576-.04205,1.70145-.04838,1.69847-.03859,1.70102-.04245,1.70283-.05146,1.70016-.05385,1.70408-.03356,1.70738-.05886,1.70669,.14387,.14466,1.40142-.00299,1.40368-.00325,1.40368,.00444,.14414-.14276,.04849-1.69924,.04081-1.70105,.04337-1.69995,.05188-1.69557,.04501-1.70137,.04603-1.69854,.05366-1.70061,.038-1.70295,.04532-1.70033,.04947-1.7042,.04627-1.70703,.03896-1.70723,.15296-.14025,1.64258,.00226,1.64802-.00745,1.6453,.00076,1.6475-.00307,1.64936,.012,1.64701-.00969,1.65087,.00351,1.65353-.00101,1.65353-.00651,.15319,.14944,.03246,1.69967,.05571,1.70065,.03725,1.70012,.06002,1.69535,.03731,1.70158,.04573,1.69854,.04799,1.70076,.03543,1.70302,.0562,1.70003,.03998,1.70446,.04536,1.70706,.05255,1.70686,.14521,.14723,1.40142-.00177,1.40368,.00258,1.40368-.00777,.13819-.14024-.03975-1.69947-.04538-1.70093-.05137-1.69973-.05574-1.69547-.04474-1.70138-.0461-1.69853-.03006-1.70125-.04868-1.70267-.05248-1.70013-.04326-1.70437-.05592-1.70677-.04244-1.70714,.14244-.13713,1.89923-.01264,1.90229,.00572,1.90229-.00414,.13989-.13642,.0056-1.66049,.00502-1.66049-.15052-.13409-1.44662-.00951-1.45001,.00661-1.45234-.01002-1.45234,.008-.15069-.14537-.03344-1.43374-.04689-1.43569-.03407-1.43604,.14101-.14542,.82361,.00995Zm-20.13531,.13559l.13931-.15098,.47599,.00814,.14169-.14185,.00787-1.20438,.135-.13787,1.51253-.0114,1.51497,.01275,1.51497-.00823,.14737,.14475-.01023,1.44486,.00442,1.44824,.00949,1.45058-.00634,1.45058-.14472,.13902-1.8071-.00054-1.81001,.00232-1.81001-.00639-.13642-.1343,.0285-1.43388,.04762-1.43567,.0451-1.43574Zm14.78951,4.30542l-.13162,.15061-1.87607-.00814-1.8791,.00016-1.8791-.00787-.13787-.135-.0114-1.44486,.01275-1.44824-.00823-1.45058-.00262-1.45058,.14737-.13714,1.53336-.00442,1.53583-.00949,1.53583,.00634,.13902,.14472-.00054,1.20438,.14608,.14376,.62057,.00639,.14411,.13441,.04903,1.43332,.03004,1.43615,.03255,1.43608Z" fill="#1d868c"/>
      </g>
    </g>
  </g>
</svg>