<?xml version="1.0" encoding="UTF-8"?>
<svg width="150px" height="100px" viewBox="0 -11 150 100" version="1.1"
    xmlns="http://www.w3.org/2000/svg"
    xmlns:xlink="http://www.w3.org/1999/xlink">
    <title>accomodation</title>
    <g id="シンボル" stroke="none" stroke-width="1" fill="none" fill-rule="evenodd">
        <g id="accomodation">
            <rect id="Rectangle-Copy-19" x="0" y="0" width="150" height="100"></rect>
            <g id="Group-2-Copy" transform="translate(27.000000, 13.000000)">
                <g id="ホテル" transform="translate(0.000000, 3.082192)">
                    <g id="Group-20">
                        <rect id="Rectangle" fill="#F2A900" fill-rule="nonzero" x="8.21917808" y="8.21917808" width="6.16438356" height="10.2739726"></rect>
                        <rect id="Rectangle" fill="#F2A900" fill-rule="nonzero" x="23.630137" y="8.21917808" width="6.16438356" height="10.2739726"></rect>
                        <rect id="Rectangle" fill="#F2A900" fill-rule="nonzero" x="8.21917808" y="31.8493151" width="6.16438356" height="10.2739726"></rect>
                        <rect id="Rectangle" fill="#F2A900" fill-rule="nonzero" x="23.630137" y="31.8493151" width="6.16438356" height="10.2739726"></rect>
                        <rect id="Rectangle" fill="#F2A900" fill-rule="nonzero" x="8.21917808" y="55.4794521" width="6.16438356" height="10.2739726"></rect>
                        <rect id="Rectangle" fill="#F2A900" fill-rule="nonzero" x="23.630137" y="55.4794521" width="6.16438356" height="10.2739726"></rect>
                        <path d="M0,71.9178082 L0,8 C-1.42926142e-15,3.581722 3.581722,-7.65539184e-17 8,0 L32.0684932,0 C36.4867711,-1.69980292e-15 40.0684932,3.581722 40.0684932,8 L40.0684932,71.9178082 L40.0684932,71.9178082" id="Path-2" stroke="#F2A900" stroke-width="5"></path>
                    </g>
                    <g id="Group" transform="translate(40.068493, 25.684932)">
                        <rect id="Rectangle" fill="#F2A900" fill-rule="nonzero" x="9.24657534" y="10.2739726" width="6.16438356" height="10.2739726"></rect>
                        <rect id="Rectangle" fill="#F2A900" fill-rule="nonzero" x="9.24657534" y="28.7671233" width="6.16438356" height="10.2739726"></rect>
                        <path d="M0,46.2328767 L0,0 L16.6575342,0 C21.0758122,-8.11624501e-16 24.6575342,3.581722 24.6575342,8 L24.6575342,46.2328767 L24.6575342,46.2328767" id="Path-2-Copy" stroke="#F2A900" stroke-width="5"></path>
                    </g>
                </g>
                <path d="M89.3427995,35.8646088 C89.2357093,35.5448716 88.9354521,35.3228607 88.5893472,35.3078091 L84.4334197,35.1254995 L82.9700591,31.3450968 C82.8483043,31.0305132 82.5381303,30.8219178 82.1917725,30.8219178 C81.8454148,30.8219178 81.5352408,31.0305132 81.413486,31.3450968 L79.9501535,35.1254995 L75.794226,35.3078091 C75.448093,35.3228607 75.1478639,35.5448716 75.0407456,35.8646088 C74.9336553,36.1843459 75.0422064,36.5353315 75.3129379,36.7448813 L78.564863,39.2635136 L77.4592939,43.1566941 C77.36743,43.4808759 77.4917412,43.8262171 77.7721368,44.0240146 C78.0526447,44.221594 78.4296237,44.2298287 78.7189808,44.0446833 L82.1917725,41.8211384 L85.6645362,44.0447105 C85.9538933,44.2298287 86.3308723,44.221594 86.6113802,44.0240419 C86.8918039,43.8264898 87.0160589,43.4808759 86.9240826,43.1567214 L85.8187102,39.2635136 L89.0706353,36.7448813 C89.3413668,36.5353043 89.4499179,36.1843187 89.3427995,35.8646088 Z" id="Path" fill="#F2A900" fill-rule="nonzero"></path>
                <path d="M96.5345804,14.2892663 C96.4274901,13.9695291 96.1272329,13.7475182 95.781128,13.7324666 L91.6252006,13.550157 L90.1618399,9.76975436 C90.0400851,9.45517072 89.7299111,9.24657534 89.3835534,9.24657534 C89.0371956,9.24657534 88.7270216,9.45517072 88.6052669,9.76975436 L87.1419343,13.550157 L82.9860068,13.7324666 C82.6398738,13.7475182 82.3396447,13.9695291 82.2325264,14.2892663 C82.1254361,14.6090035 82.2339872,14.9599891 82.5047188,15.1695388 L85.7566439,17.6881712 L84.6510747,21.5813517 C84.5592109,21.9055334 84.6835221,22.2508746 84.9639176,22.4486721 C85.2444255,22.6462515 85.6214045,22.6544862 85.9107617,22.4693408 L89.3835534,20.2457959 L92.856317,22.4693681 C93.1456742,22.6544862 93.5226532,22.6462515 93.8031611,22.4486994 C94.0835847,22.2511473 94.2078397,21.9055334 94.1158635,21.5813789 L93.010491,17.6881712 L96.2624161,15.1695388 C96.5331476,14.9599618 96.6416987,14.6089762 96.5345804,14.2892663 Z" id="Path" fill="#F2A900" fill-rule="nonzero"></path>
                <path d="M72.8957086,6.20638888 C72.7656705,5.81286621 72.4010724,5.539622 71.9808022,5.52109696 L66.9343189,5.29671588 L65.1573809,0.643912637 C65.0095358,0.256732771 64.632896,0 64.2123187,0 C63.7917415,0 63.4151016,0.256732771 63.2672565,0.643912637 L61.4903527,5.29671588 L56.4438693,5.52109696 C56.023565,5.539622 55.6590011,5.81286621 55.5289288,6.20638888 C55.3988906,6.59991156 55.5307027,7.03189381 55.8594481,7.28980118 L59.8082143,10.3896564 L58.4657375,15.1812631 C58.3541885,15.5802561 58.5051378,16.0052914 58.8456181,16.2487345 C59.1862349,16.4919091 59.6439951,16.5020442 59.9953574,16.2741729 L64.2123187,13.5375022 L68.429246,16.2742064 C68.7806082,16.5020442 69.2383685,16.4919091 69.5789852,16.2487681 C69.9194996,16.005627 70.0703807,15.5802561 69.9586953,15.1812967 L68.6164572,10.3896564 L72.5652234,7.28980118 C72.8939689,7.03186025 73.0257809,6.599878 72.8957086,6.20638888 Z" id="Path" fill="#F2A900" fill-rule="nonzero"></path>
            </g>
        </g>
    </g>
</svg>