<?xml version="1.0" encoding="UTF-8"?>
<svg width="150px" height="100px" viewBox="0 -11 150 100" version="1.1"
    xmlns="http://www.w3.org/2000/svg"
    xmlns:xlink="http://www.w3.org/1999/xlink">
    <title>area</title>
    <g id="シンボル" stroke="none" stroke-width="1" fill="none" fill-rule="evenodd" alignment-baseline="bottom">
        <g id="area">
            <rect id="Rectangle-Copy-20" x="0" y="0" width="150" height="100"></rect>
            <g id="Group-2-Copy-5" transform="translate(31.000000, 11.000000)" fill-rule="nonzero">
                <g id="Group-2-Copy">
                    <g id="Group" transform="translate(37.745174, 30.667954)" fill="#F2A900">
                        <path d="M20.0521236,37.4872297 C20.0521236,38.2813806 19.2790977,38.9247104 18.3272275,38.9247104 L14.6997995,38.9247104 C13.746863,38.9247104 12.9749035,38.2814399 12.9749035,37.4872297 L12.9749035,36.8235811 C12.9749035,36.0294302 13.746792,35.3861004 14.6997995,35.3861004 L18.3272275,35.3861004 C19.2790977,35.3861004 20.0521236,36.0293709 20.0521236,36.8235811 L20.0521236,37.4872297 Z" id="Path"></path>
                        <path d="M2.65326009,29.488417 L2.25655437,29.488417 C1.0112927,29.488417 0,30.4528908 0,31.6403924 L0,34.6125608 C0,35.8013926 0.581202703,36.7657777 1.57650071,36.7657777 L1.82497649,36.7657777 C2.90164287,36.7657777 2.65316709,37.7287439 2.65316709,38.9176645 L2.65316709,40.3116111 C2.65326009,41.4989354 3.66455279,42.4633205 4.90981445,42.4633205 L8.35927575,42.4633205 C9.6059323,42.4633205 10.6158301,41.4989354 10.6158301,40.3114337 L10.6158301,36.765689 L10.6158301,31.6403037 C10.6158301,30.4528021 9.60602529,29.488417 8.35927575,29.488417 L2.65326009,29.488417 L2.65326009,29.488417 Z" id="Path"></path>
                        <path d="M26.9383704,14.1544402 C26.0387975,14.1544402 25.2610631,14.8131659 25.0715715,15.7353323 L24.0033779,20.9042089 C23.8138864,21.8263753 23.0348919,22.485101 22.135319,22.485101 L10.1678963,22.485101 C9.11324908,22.485101 8.25675676,23.3840397 8.25675676,24.4909535 L8.25675676,26.0098499 C8.25675676,27.1167637 9.11324908,28.0157023 10.1678963,28.0157023 L10.5604258,28.0157023 C11.615073,28.0157023 12.4715653,28.914641 12.4715653,30.0227947 L12.4715653,31.0211746 C12.4715653,32.1280884 13.3280576,33.027027 14.3827049,33.027027 L29.1990376,33.027027 C30.096169,33.027027 30.8726433,32.3708638 31.0658364,31.4486974 L34.1620463,16.5878154 C34.2863263,15.9962931 34.1472398,15.3763354 33.7842446,14.903597 C33.4212494,14.4282961 32.8735668,14.1544402 32.2939873,14.1544402 L26.9383704,14.1544402 L26.9383704,14.1544402 Z" id="Path"></path>
                        <path d="M38.7931262,7.98982319 C38.6102169,8.8289934 37.7755889,9.43629344 36.79985,9.43629344 L27.9791595,9.43629344 C27.374422,9.43629344 26.7996957,9.20097018 26.4169071,8.79115654 C26.030273,8.38016738 25.872192,7.84060636 25.9858833,7.31948621 L27.2607307,1.44882127 C27.44364,0.608402077 28.2796055,0 29.254007,0 L38.076035,0 C38.6807724,0 39.2529073,0.236498766 39.6382874,0.647487925 C40.0249214,1.05730157 40.181665,1.59686259 40.0680573,2.11915825 L38.7931262,7.98982319 Z" id="Path"></path>
                    </g>
                    <path d="M19.4925231,4.71814672 L19.4925231,69.956694 C16.361587,71.6122198 14.1544402,75.4599214 14.1544402,79.9403017 C14.1544402,85.9270355 18.0899887,90.7974161 22.9278557,90.7974161 L63.7102005,90.7974161 L63.8148368,90.7974161 L63.8148368,90.8243243 C68.9569645,90.8243243 73.1312741,85.6443314 73.1312741,79.2945053 L73.1312741,4.71814672 L19.4925231,4.71814672 Z M70.7722008,79.1497278 C70.7722008,82.9143305 68.3763036,85.9968783 65.4057922,86.1061776 C65.3407416,86.1061776 65.2862617,86.0928775 65.2321883,86.0928775 C62.4782414,86.0928775 60.2342647,83.2688287 60.2342647,79.8046711 C60.2342647,76.3258494 62.4782414,73.5156121 65.2321883,73.5156121 C66.2624281,73.5156121 67.1078157,72.4519473 67.1078157,71.1557017 C67.1078157,69.8463266 66.2624281,68.7957913 65.2321883,68.7957913 L23.0061809,68.7957913 L23.0061809,8.25675676 L70.7722008,8.25675676 L70.7722008,79.1497278 Z M16.8776013,79.393493 C16.8776013,74.8259826 19.3474515,71.1362885 22.3777231,71.1362885 L64.5104296,71.1362885 C60.4450756,71.987082 58.4123987,74.7394835 58.4123987,79.393493 C58.4123987,84.0475026 60.4450756,86.7996056 64.5104296,87.649802 L22.3777231,87.649802 C19.3474515,87.6495782 16.8776013,83.9417501 16.8776013,79.393493 Z" id="Shape" fill="#F2A900" transform="translate(43.642857, 47.771236) rotate(90.000000) translate(-43.642857, -47.771236) "></path>
                    <g id="Group-24" transform="translate(28.308880, 0.000000)">
                        <g id="Group" transform="translate(0.000000, 0.000000)">
                            <path d="M3.9682191,28.0433502 C8.09229472,36.0900585 13.9549794,44.3870287 13.985667,44.4325869 L15.924879,47.1814672 L17.8618234,44.4350495 C17.8831384,44.4038052 21.2985279,39.5650987 24.7400698,33.7188799 C26.4620501,30.7920765 28.193403,27.615319 29.5232477,24.6090968 C30.1870363,23.1059856 30.7539247,21.6462779 31.1648055,20.2513674 C31.5734187,18.8541481 31.8426529,17.5314227 31.8474903,16.2159311 C31.8449205,7.26036846 24.7210224,0.00246260272 15.924879,0 C7.12631682,0.00246260272 0,7.26036846 0,16.216085 C0.00468627779,17.5315766 0.274071666,18.854302 0.682684855,20.2515213 C1.40542983,22.687651 2.59347683,25.3475698 3.9682191,28.0433502 Z M8.03560588,8.18384448 C10.0621943,6.12526252 12.8352614,4.86025429 15.924879,4.8579456 C19.0120778,4.8604082 21.7851449,6.12526252 23.8117333,8.18384448 C25.8336354,10.2471977 27.0762078,13.0705717 27.0762078,16.2162389 C27.08079,16.8031079 26.9273522,17.745823 26.5965917,18.8519934 C26.0225982,20.8048373 24.9455102,23.26744 23.6487718,25.7973026 C21.7048735,29.5994073 19.2766258,33.572355 17.3467863,36.5759608 C16.8294817,37.379231 16.3523884,38.1055449 15.9224602,38.7499772 C14.576138,36.7226395 12.7029874,33.810304 10.8724668,30.6623282 C9.26628289,27.9063679 7.69789154,24.970022 6.55700965,22.3485814 C5.98770248,21.0378611 5.52481917,19.8090223 5.22005995,18.7436388 C4.90819572,17.6830266 4.76654919,16.7812523 4.77112301,16.216085 C4.77112301,13.0705717 6.01370377,10.2471977 8.03560588,8.18384448 Z" id="Shape" stroke="#FFFFFF" stroke-width="1.76930502" fill="#F2A900"></path>
                            <path d="M7.20391867,24.9643016 C10.2969754,30.9993328 14.6939889,37.2220605 14.7170046,37.2562291 L16.1714136,39.3178893 L17.6241219,37.2580761 C17.6401081,37.2346429 20.2016502,33.605613 22.7828067,29.2209488 C24.074292,27.0258463 25.3728066,24.6432782 26.3701901,22.3886115 C26.8680316,21.2612782 27.2931979,20.1664973 27.6013585,19.1203144 C27.9078184,18.0724 28.109744,17.0803559 28.1133721,16.0937372 C28.1114447,9.37706528 22.7685211,3.93363588 16.1714136,3.93178893 C9.57249196,3.93363588 4.22775434,9.37706528 4.22775434,16.0938527 C4.23126905,17.0804714 4.43330809,18.0725155 4.73976798,19.1204299 C5.28182671,20.9475272 6.17286197,22.9424663 7.20391867,24.9643016 Z" id="Shape-Copy" fill="#FFFFFF"></path>
                            <path d="M15.8905808,21.169327 C18.617846,21.169327 20.8312787,18.8504292 20.8312787,15.9932158 C20.8312787,13.1311663 18.617846,10.8124196 15.8905808,10.8124196 C13.1610075,10.8124196 10.9475748,13.1313174 10.9475748,15.9932158 C10.9475748,18.8504292 13.1610075,21.169327 15.8905808,21.169327 Z" id="Path" fill="#F2A900"></path>
                        </g>
                    </g>
                </g>
            </g>
        </g>
    </g>
</svg>