<?xml version="1.0" encoding="UTF-8"?>
<svg width="150px" height="100px" viewBox="0 -13 150 100" version="1.1"
    xmlns="http://www.w3.org/2000/svg"
    xmlns:xlink="http://www.w3.org/1999/xlink">
    <title>experiences</title>
    <g id="シンボル" stroke="none" stroke-width="1" fill="none" fill-rule="evenodd">
        <g id="experiences">
            <rect id="Rectangle-Copy-17" x="0" y="0" width="150" height="100"></rect>
            <g id="Group-28-Copy" transform="translate(19.000000, 13.000000)" fill="#F2A900" fill-rule="nonzero">
                <g id="Group-27">
                    <g id="Group" transform="translate(53.124220, 37.000849) rotate(8.000000) translate(-53.124220, -37.000849) translate(4.624220, 6.500849)">
                        <path d="M46.7388964,29.4164135 L46.8628531,29.2249388 L46.9423577,29.1334324 C46.9355039,29.1326453 46.9294333,29.1326453 46.9223837,29.1326453 L46.9423577,29.1019464 C32.6248674,28.8181781 17.1314527,27.3231801 8.67243485,26.410084 C7.35610459,26.2524569 6.19721699,25.339164 5.64871342,24.0171426 L3.71886595,19.4126981 L3.48720593,18.8492942 L3.48348527,18.8508685 L3.47114834,18.8217439 L0.463484495,20.5534779 L14.0139315,50.5118848 L27.9252825,50.5118848 C27.9718886,50.432776 28.0194739,50.3696071 28.0658842,50.2910887 L39.4393536,33.2581078 L46.7388964,29.4164135 Z" id="Path" stroke="#FFFFFF" stroke-width="1.5"></path>
                        <path d="M96.1201353,26.1387802 L96.1007553,26.1410897 L96.1161802,26.1079863 L94.7712487,26.2769676 C94.5657813,26.3079539 78.066096,28.3249515 60.2372995,29.1719749 L57.9269283,32.5129158 L53.9882427,38.2247911 L53.1185164,46.8928765 L51.5736546,49.1331295 L50.6976001,50.3727747 L50.7193532,50.3727747 L50.6976001,50.403761 L84.5362429,50.403761 L92.0823745,34.5720624 L96.1201353,26.1387802 Z" id="Path"></path>
                        <path d="M71.6070037,3.33015088 C72.1909961,2.45366281 72.0203414,1.23369941 71.2218172,0.59173694 C70.8940981,0.341172065 70.5232784,0.215791827 70.1668256,0.215791827 C69.6109844,0.215791827 69.0695101,0.497848462 68.7130573,1.01423509 L51.0538881,27.5674614 L47.989287,32.168388 L40.7493732,35.9863239 L32.2117848,48.8167711 L30.2590602,51.742962 C29.3188092,53.1510936 29.5894492,55.1383997 30.8861531,56.1713686 L35.4188894,59.8173711 C35.93163,60.22383 36.5305717,60.4270594 37.1289309,60.4270594 C38.0122971,60.4270594 38.8968282,59.9740475 39.4660654,59.1290512 L46.3215693,48.8167711 L50.0132633,43.2775466 L50.8686724,34.4843038 L55.5149843,27.4894166 L71.6070037,3.33015088 Z" id="Path"></path>
                    </g>
                    <g id="Group" transform="translate(8.000000, 55.000000)" stroke="#FFFFFF" stroke-width="1.5">
                        <path d="M45.4109851,12.0403003 C45.4109851,12.0331424 45.4109851,12.0289807 45.4109851,12.0214898 C44.3808256,13.1493706 42.4081408,13.7596298 40.0917944,13.7596298 C39.9969186,13.7596298 39.901676,13.7596298 39.7996501,13.7531377 C38.3164697,13.7200113 36.9425571,13.1889892 35.8540054,12.2604498 C35.2645833,11.7643021 34.7644453,11.149798 34.361475,10.4407421 C34.2891493,10.307404 34.2136153,10.1767293 34.1501813,10.0369823 C34.1484397,10.0398122 34.146698,10.0428085 34.1448646,10.0457217 C34.1423896,10.0408942 34.1395479,10.0363164 34.1369812,10.031156 C33.6765353,10.9005173 33.0409128,11.663258 32.266414,12.260533 C31.2069209,13.0896099 29.8916754,13.5939143 28.4740374,13.5939143 L28.430312,13.5939143 C27.0932496,13.5805139 25.8510632,13.0964349 24.8137536,12.260533 C24.095447,11.6899756 23.4881498,10.9479597 23.0079953,10.0883366 C22.9058777,9.89939928 22.8021101,9.711544 22.7154843,9.51220266 C22.7140176,9.51569841 22.7119093,9.5190277 22.7100759,9.52260669 C22.7076009,9.51744629 22.7043925,9.51253558 22.7018259,9.50704225 C22.1976545,10.6218556 21.4743979,11.5637122 20.5977815,12.260533 C19.5600136,13.0964349 18.3179188,13.5805139 16.9807648,13.5939143 L16.9371311,13.5939143 C15.5194013,13.5939143 14.2042476,13.0896099 13.1447545,12.260533 C12.5008819,11.7640524 11.9555518,11.1482998 11.5269145,10.4567227 C11.4442305,10.3182242 11.3582463,10.1807244 11.2876623,10.0367326 C11.2862873,10.0396457 11.284179,10.0425588 11.2827123,10.0458049 C11.2802373,10.0406445 11.2770289,10.0360667 11.2740956,10.0312392 C10.8429832,10.9204098 10.2586029,11.6701663 9.54992133,12.2606162 C8.46100296,13.1891557 7.09488204,13.7200945 5.61142671,13.7533042 C5.5093091,13.7597963 5.41406655,13.7597963 5.31928235,13.7597963 C3.35301423,13.7597963 1.64066512,13.3156688 0.536071606,12.493084 C0.343753168,12.3460958 0.164726518,12.1913669 0.0146668018,12.0216563 L0.0146668018,12.0353064 C0.0104500963,12.0304789 0.00430837303,12.0264838 0,12.0216563 C0,13.2887015 0,13.0565666 0,14.3170365 C1.06673483,15.7234958 3.17114589,17.6275177 5.61142671,17.9659402 C5.88927093,18.0058917 6.15959842,18.025701 6.43001758,18.025701 C8.26015945,18.025701 9.86039919,17.155008 10.8777252,15.6639847 C11.0234766,15.4556543 11.1569445,15.2345061 11.2790456,15.0020383 C12.376214,17.1742347 14.5142671,18.8948126 16.9806731,19.0075924 C17.0612489,19.0140845 17.1414579,19.0140845 17.221667,19.0140845 C19.2125937,19.0140845 20.9728849,17.8800445 22.1151538,16.1253413 C22.3313974,15.7985713 22.5340743,15.455904 22.7070509,15.0836891 C23.7753441,17.4260956 25.8253046,19.0140845 28.1893181,19.0140845 C28.2695272,19.0140845 28.3501029,19.0140845 28.430312,19.0075092 C30.5068561,18.9126243 32.341948,17.6722967 33.5279423,15.9880912 C33.5741427,15.9236695 33.6249265,15.8641584 33.6697519,15.7981552 C33.6977105,15.7555402 33.7198024,15.7104283 33.7470276,15.6674805 C33.8863622,15.4519088 34.0220302,15.2335073 34.1420229,15.002288 C35.1073735,16.894158 36.89489,18.0256178 38.9739091,18.0256178 C39.2442366,18.0256178 39.5218058,18.0058085 39.7996501,17.965857 C42.2399309,17.6274345 44.3368252,15.7234126 45.4109851,14.3169533 C45.4109851,13.569777 45.4109851,13.345133 45.4109851,13.0236067 L45.4225352,12.0299795 C45.4188685,12.0335585 45.4145601,12.0368046 45.4109851,12.0403003 Z" id="Path"></path>
                        <path d="M103.506353,2.53325808 C103.506353,2.52610011 103.506353,2.52193849 103.506353,2.51444758 C102.188708,3.64232839 99.665506,4.25258757 96.7027374,4.25258757 C96.5813845,4.25258757 96.4595627,4.25258757 96.3290644,4.24609545 C94.4319732,4.212969 92.6746431,3.68194696 91.2823095,2.7534075 C90.5283975,2.2572598 89.8886862,1.64275578 89.373259,0.933699868 C89.2807494,0.800361734 89.1841361,0.669687033 89.1029997,0.529940012 C89.100772,0.53276991 89.0985443,0.535766273 89.0961993,0.538679403 C89.0930335,0.53385193 89.0893988,0.529274154 89.0861158,0.524113752 C88.4971734,1.39347506 87.6841678,2.15621579 86.6935298,2.75349073 C85.3383643,3.58256761 83.6560736,4.08687207 81.8428156,4.08687207 L81.7868877,4.08687207 C80.0766917,4.07347167 78.4878486,3.58939265 77.1610573,2.75349073 C76.242293,2.18293336 75.4655175,1.44091746 74.8513665,0.581294337 C74.7207509,0.392357031 74.5880249,0.204501745 74.4772244,0.00516040219 C74.4753485,0.00865615852 74.4726517,0.0119854503 74.4703067,0.0155644389 C74.467141,0.0104040367 74.4630373,0.00549333137 74.4597543,0 C73.814884,1.11481334 72.8897883,2.05666997 71.7685348,2.75349073 C70.4411572,3.58939265 68.8524313,4.07347167 67.1421181,4.08687207 L67.0863075,4.08687207 C65.2729323,4.08687207 63.5907588,3.58256761 62.2355932,2.75349073 C61.4120353,2.2570101 60.7145201,1.64125759 60.1662631,0.949680468 C60.0605044,0.811181932 59.9505247,0.673682183 59.8602429,0.529690315 C59.8584841,0.532603446 59.8557874,0.535516576 59.8539114,0.538762635 C59.8507457,0.533602233 59.846642,0.529024457 59.84289,0.524196984 C59.2914673,1.41336757 58.544004,2.16312407 57.6375509,2.75357396 C56.2447483,3.68211343 54.4973843,4.21305223 52.5999415,4.24626191 C52.4693259,4.25275403 52.3475041,4.25275403 52.2262684,4.25275403 C49.7112743,4.25275403 47.5210604,3.80862652 46.1082082,2.98604176 C45.8622195,2.83905353 45.6332319,2.6843247 45.4412951,2.51461405 L45.4412951,2.52826415 C45.4359016,2.52343667 45.4280459,2.51944152 45.4225352,2.51461405 C45.4225352,3.78165925 45.4225352,3.54952439 45.4225352,4.80999424 C46.7869635,6.21645353 49.478652,8.12047548 52.5999415,8.45889798 C52.9553236,8.49884948 53.3010913,8.51865877 53.6469763,8.51865877 C55.9878554,8.51865877 58.0346737,7.64796575 59.3359047,6.15694244 C59.5223308,5.94861201 59.6930456,5.72746381 59.8492214,5.49499601 C61.2525764,7.66719241 63.9872954,9.38777038 67.1420008,9.50055013 C67.2450628,9.50704225 67.3476558,9.50704225 67.4502488,9.50704225 C69.996783,9.50704225 72.2483182,8.37300226 73.7093598,6.61829905 C73.9859505,6.29152906 74.2451884,5.94886171 74.4664375,5.57664689 C75.832859,7.91905333 78.4549016,9.50704225 81.4786397,9.50704225 C81.5812327,9.50704225 81.6842947,9.50704225 81.7868877,9.5004669 C84.4429326,9.40558209 86.7901431,8.16525445 88.3071125,6.48104899 C88.3662061,6.4166272 88.4311621,6.35711611 88.488497,6.2911129 C88.524258,6.24849797 88.552515,6.20338606 88.587338,6.1604382 C88.7655567,5.94486656 88.9390854,5.72646502 89.0925645,5.49524571 C90.3273153,7.38711574 92.6136735,8.51857554 95.2728841,8.51857554 C95.6186518,8.51857554 95.9736822,8.49876625 96.3290644,8.45881475 C99.4503538,8.12039224 102.132428,6.2163703 103.506353,4.80991101 C103.506353,4.06273471 103.506353,3.83809075 103.506353,3.5165644 L103.521127,2.52293728 C103.516437,2.52651627 103.510926,2.52976233 103.506353,2.53325808 Z" id="Path-Copy-2"></path>
                    </g>
                </g>
            </g>
        </g>
    </g>
</svg>