<?xml version="1.0" encoding="UTF-8"?>
<svg width="152px" height="102px" viewBox="0 -20 152 102" version="1.1"
    xmlns="http://www.w3.org/2000/svg"
    xmlns:xlink="http://www.w3.org/1999/xlink">
    <title>food &amp; drinks</title>
    <g id="シンボル" stroke="none" stroke-width="1" fill="none" fill-rule="evenodd">
        <g id="food-&amp;-drinks">
            <rect id="Rectangle" x="0" y="0" width="150" height="100"></rect>
            <rect id="Rectangle-Copy-9" x="2" y="2" width="150" height="100"></rect>
            <g id="Group-26-Copy" transform="translate(23.000000, 15.000000)" fill="#F2A900" fill-rule="nonzero">
                <g id="Group-25" transform="translate(0.197183, 0.033981)">
                    <g id="パーツ/アイコン/Food-&amp;-Drinks/PC" transform="translate(56.601942, 0.000000)">
                        <g id="酒" transform="translate(0.512442, 0.000000)">
                            <path d="M19.1218028,13.301911 C17.8606667,11.6357409 17.751642,9.39619889 18.8453745,7.62266727 L22.2280814,2.13588996 C22.4969946,1.69966096 22.5040741,1.15776618 22.2465971,0.715072176 C21.9896648,0.273226037 21.5080391,0 20.9860056,0 L12.3921132,0 L3.79811185,0 C3.27662299,0 2.79499731,0.273226037 2.53752035,0.714966192 C2.28047906,1.1576602 2.28766751,1.69955497 2.55658062,2.13578398 L5.9392876,7.62256129 C7.03302008,9.39619889 6.92399536,11.6357409 5.66275038,13.301805 L2.45038771,18.2393747 C0.849978919,20.7002108 0,23.5528686 0,26.4658313 L0,48.4952899 C0,51.6812665 2.65406026,54.2635599 5.92785144,54.2635599 L18.8568106,54.2635599 C22.1306018,54.2635599 24.7846621,51.6812665 24.7846621,48.4952899 L24.7846621,26.4659372 C24.7846621,23.5530806 23.9346832,20.7004227 22.3341654,18.2394807 L19.1218028,13.301911 Z" id="Path"></path>
                            <path d="M27.8827448,38.3815424 L27.8827448,41.1110309 C27.8827448,44.9093034 30.0106717,48.2126914 33.1462478,49.9087982 L33.1462478,52.9400585 L42.7573162,52.9400585 L42.7573162,49.9087982 C45.8924632,48.2126914 48.0202828,44.9093034 48.0202828,41.1110309 L48.0202828,38.3815424 L27.8827448,38.3815424 Z" id="Path"></path>
                        </g>
                    </g>
                    <g id="Group" transform="translate(0.000000, 10.281690)">
                        <polygon id="Path" points="4.11650485 56.5492958 60.7184466 56.5492958 60.7184466 51.4084507 4.11650485 52.6242302"></polygon>
                        <polygon id="Path" points="4.11650485 61.5009183 60.7184466 62.7183099 60.7184466 57.5774648 4.11650485 57.5774648"></polygon>
                        <path d="M19.0786895,41.5455505 L19.0786895,44.2568072 C19.0786895,47.0700316 24.8209645,49.3521127 31.9029126,49.3521127 C38.9848607,49.3521127 44.7271358,47.0700316 44.7271358,44.2568072 L44.7271358,41.5455505 C55.960575,36.6677269 63.8058252,25.5765246 63.8058252,12.6728097 C63.8058252,5.67447698 49.5231654,0 31.9029126,0 C14.2846537,0 0,5.67447698 0,12.6728097 C0,25.5765246 7.84724416,36.6677269 19.0786895,41.5455505 Z M5.21263683,12.6728097 C5.21263683,12.397694 6.33222967,10.4580914 11.2878985,8.49151897 C16.6330072,6.36903946 24.1452708,5.15109212 31.9029126,5.15109212 C39.6605545,5.15109212 47.172818,6.36916261 52.5199207,8.49151897 C57.4735956,10.4580914 58.5931884,12.397694 58.5931884,12.6728097 C58.5931884,12.9479255 57.4735956,14.8856809 52.5199207,16.8541005 C47.172818,18.9764569 39.6605545,20.1945274 31.9029126,20.1945274 C24.1452708,20.1945274 16.6330072,18.9764569 11.2878985,16.8541005 C6.33235429,14.8856809 5.21263683,12.9479255 5.21263683,12.6728097 Z" id="Shape" stroke="#FFFFFF" stroke-width="1.5"></path>
                    </g>
                </g>
            </g>
        </g>
    </g>
</svg>