<?xml version="1.0" encoding="UTF-8"?>
<svg width="150px" height="100px" viewBox="0 -11 150 100" version="1.1"
    xmlns="http://www.w3.org/2000/svg"
    xmlns:xlink="http://www.w3.org/1999/xlink">
    <title>japanese culture</title>
    <g id="シンボル" stroke="none" stroke-width="1" fill="none" fill-rule="evenodd">
        <g id="japanese-culture">
            <rect id="Rectangle-Copy-16" x="0" y="0" width="150" height="100"></rect>
            <g id="Group-26-Copy" transform="translate(38.000000, 13.000000)" fill="#F2A900" fill-rule="nonzero">
                <g id="Group">
                    <path d="M19.4950822,70.3636293 C25.0006505,73.4067964 31.2208576,75 37.5,75 C43.7742636,75 49.9901775,73.4095285 55.4756453,70.4003174 L53.6677769,38.6129397 L21.320319,38.583277 L19.4950822,70.3636293 Z M6.15775916,16.9464249 C2.12928029,23.0684716 -2.01426402e-13,30.17583 -2.01426402e-13,37.5 C-2.01426402e-13,47.5357775 3.93090393,56.9728351 11.0685106,64.0723876 L13.5168609,38.6174282 L5.71262229,38.583277 L6.82751353,31.371123 L14.2633092,31.3978586 L14.908865,25.7289498 L13.2805345,25.5917595 L11.7704647,25.4955506 L11.0304564,25.42315 L9.70050999,22.4767772 L8.39144463,22.331976 L8.1272117,21.6821269 L7.63953216,20.5252784 C7.15907317,19.3656979 6.92177092,18.7675635 6.53732567,17.7986444 L6.19132494,16.8952956 L6.15775916,16.9464249 Z M63.8821165,64.0501405 C71.070267,56.970103 75,47.5340211 75,37.5 C75,30.1730979 72.8693537,23.0632025 68.838533,16.9393995 L68.5579075,17.5244588 C68.1057452,18.6996513 67.8709799,19.2956391 67.3641757,20.4881999 C67.2470858,20.7953658 67.1602441,21.0016393 67.0591564,21.2426494 L66.5876743,22.3505152 L65.311199,22.4584331 L63.9305136,25.4411038 L63.2511969,25.4953554 C63.2511969,25.4953554 60.6529715,25.6557686 60.1063567,25.6942132 L60.6918063,31.369757 L68.1888791,31.3974683 L69.2610325,38.6189894 L61.4835294,38.5828867 L63.8821165,64.0501405 Z M33.50255,24.8390664 L33.50255,25.5263843 L33.3950224,32.2690076 L33.3766783,32.95574 L33.3766783,33.8963624 L41.5965862,33.9275864 L41.6102467,33.6586699 L41.6104418,32.9565206 L41.5920977,32.2690076 L41.501353,25.1827253 L41.4837896,24.8380907 L41.4287573,20.8989904 L33.5753409,20.8681567 L33.50255,24.8390664 Z M53.6533358,25.1339379 C50.1685444,25.2849839 47.641939,25.3878279 44.3981578,25.4411038 L44.5123205,32.2705688 L54.1242324,32.3010122 L53.6837791,25.1323767 L53.6533358,25.1339379 Z M20.830688,32.2678367 L30.4425999,32.3010122 L30.6369692,25.4731083 C27.3461568,25.3876327 24.8179902,25.2847887 21.3328086,25.1339379 L21.3023652,25.1325718 L20.830688,32.2678367 Z M37.5,0 C26.6650838,0 16.3531692,4.71228403 9.20775656,12.9286792 L10.1571607,13.066455 L11.2062864,13.1564191 C20.1306854,13.804707 28.9748777,14.1331443 37.4939504,14.1331443 C46.0175114,14.1331443 54.8736079,13.804707 63.8161558,13.1564191 L65.7698012,12.9780521 C58.6460502,4.71150343 48.3343308,0 37.5,0 Z" id="Shape"></path>
                </g>
            </g>
        </g>
    </g>
</svg>