<?xml version="1.0" encoding="UTF-8"?>
<svg width="150px" height="100px" viewBox="0 -11 150 100" version="1.1"
    xmlns="http://www.w3.org/2000/svg"
    xmlns:xlink="http://www.w3.org/1999/xlink">
    <title>shopping</title>
    <g id="シンボル" stroke="none" stroke-width="1" fill="none" fill-rule="evenodd">
        <g id="shopping">
            <rect id="Rectangle-Copy-18" x="0" y="0" width="150" height="100"></rect>
            <g id="Group-2-Copy" transform="translate(22.000000, 8.000000)" fill="#F2A900" fill-rule="nonzero">
                <g id="Group-24" transform="translate(33.000000, 0.000000)">
                    <g id="Group" transform="translate(0.615385, 0.000000)">
                        <path d="M36.0582557,2.27373675e-13 C42.1634146,0.00209867834 47.112192,4.91678361 47.113178,10.9833631 L47.113178,10.9833631 L47.113178,15.1607124 L63.2471642,15.1607124 L59.9332369,12.447541 L59.8050631,9.81411946 L49.2793157,9.81411946 C49.1760723,8.6577477 48.9153583,7.54894598 48.5305551,6.49736822 L48.5305551,6.49736822 L62.9853234,6.49736822 L63.1961764,10.8203658 L68.8427265,15.4434743 L72.1153846,67.3076923 L0,67.3076923 L3.22702261,16.1624815 L3.27153133,15.4563462 L8.80821815,10.8084733 L9.19189453,6.49736822 L23.5837027,6.49736822 C23.1990403,7.54894598 22.9380446,8.6577477 22.8359281,9.81411946 L22.8359281,9.81411946 L12.2483474,9.81411946 L12.0125639,12.4604129 L8.79638672,15.1607124 L25.0022067,15.1607124 L25.0022067,15.1607124 L25.0022067,10.9833631 C25.0022067,4.91678361 29.9508432,0.00111929511 36.0582557,2.27373675e-13 Z M25.0022067,17.3718799 L6.49644118,17.3718799 L3.55407715,63.991081 L68.5613075,63.991081 L65.6190843,17.3718799 L47.1133188,17.3718799 L47.1133188,26.5113442 C48.2242056,27.0004762 49.0001502,28.1006034 49.0001502,29.3875129 C49.0001502,31.1257782 47.5817871,32.534691 45.8296086,32.534691 C44.0796837,32.534691 42.6624474,31.1257782 42.6624474,29.3875129 C42.6624474,28.1006034 43.4385329,27.0014556 44.5471661,26.5123236 L44.5471661,26.5123236 L44.5471661,17.3718799 L27.5673734,17.3718799 L27.5673734,17.3718799 L27.5673734,26.5112043 C28.6771334,27.0003363 29.4542049,28.1004635 29.4542049,29.387373 C29.4542049,31.1256383 28.0345741,32.534551 26.28479,32.534551 C24.5337384,32.534551 23.1142484,31.1256383 23.1142484,29.387373 C23.1142484,28.0993442 23.8914607,27.0003363 25.0022067,26.5112043 L25.0022067,26.5112043 L25.0022067,17.3718799 Z M36.0581149,2.54905471 C33.7094351,2.54905471 31.5942852,3.4916411 30.0540865,5.02045832 C28.5161415,6.55137421 27.5683594,8.64907316 27.5672326,10.9833631 L27.5672326,10.9833631 L27.5672326,15.1607124 L44.5468844,15.1607124 L44.5468844,10.9833631 C44.5468844,8.64921307 43.5991023,6.55137421 42.0600304,5.02045832 C40.5209585,3.4916411 38.4058087,2.54905471 36.0581149,2.54905471 Z" id="Shape"></path>
                        <path d="M40.4524518,6.73076923 L31.6639351,6.73076923 L31.5545423,6.80682106 C30.6407393,7.58522672 30.044233,8.55808169 29.8076923,9.61538462 L42.3076923,9.61538462 C42.0722971,8.55808169 41.4745022,7.58437494 40.5585514,6.80499581 L40.4524518,6.73076923 Z" id="Path"></path>
                    </g>
                </g>
                <path d="M52.6143606,34 L5.07781689,34 L-3.55271368e-14,84 L57.6923077,84 L52.6143606,34 Z M15.9340188,45.6139424 C14.7582884,45.6139424 13.8062709,44.6516251 13.8062709,43.4655254 C13.8062709,42.2792942 14.7582884,41.3171084 15.9340188,41.3171084 C17.1098795,41.3171084 18.0617667,42.2792942 18.0617667,43.4655254 C18.0618969,44.6516251 17.1098795,45.6139424 15.9340188,45.6139424 Z M41.7569867,45.6139424 C40.5811261,45.6139424 39.6292388,44.6516251 39.6292388,43.4655254 C39.6292388,42.2792942 40.5812563,41.3171084 41.7569867,41.3171084 C42.9327172,41.3171084 43.8847346,42.2792942 43.8847346,43.4655254 C43.8847346,44.6516251 42.9327172,45.6139424 41.7569867,45.6139424 Z" id="Shape" stroke="#FFFFFF" stroke-width="1.5"></path>
                <path d="M20.0162955,29.5776788 C22.1635924,27.5678891 25.110575,26.3294502 28.3846833,26.3284317 C31.6587916,26.3294502 34.60591,27.5678891 36.753071,29.5776788 C38.8968373,31.5907785 40.2179687,34.3535869 40.219055,37.4230769 L43.7692308,37.4230769 C43.7680086,29.4562282 36.8824819,23.0011458 28.3845475,23 C19.8868847,23.0011458 13.0012221,29.4562282 13,37.4230769 L16.5503115,37.4230769 C16.5515337,34.3535869 17.8725293,31.5907785 20.0162955,29.5776788 Z" id="Path" stroke="#FFFFFF" stroke-width="1.5" stroke-linejoin="round"></path>
            </g>
        </g>
    </g>
</svg>