<?xml version="1.0" encoding="UTF-8"?>
<svg width="150px" height="100px" viewBox="0 -20 150 100" version="1.1"
    xmlns="http://www.w3.org/2000/svg"
    xmlns:xlink="http://www.w3.org/1999/xlink">
    <title>things to do</title>
    <g id="シンボル" stroke="none" stroke-width="1" fill="none" fill-rule="evenodd">
        <g id="things-to-do">
            <rect id="Rectangle-Copy" x="0" y="0" width="150" height="100"></rect>
            <g id="Group-29-Copy" transform="translate(24.000000, 19.000000)">
                <g id="Group-2" transform="translate(0.000000, 0.767544)">
                    <g id="チェックリスト" fill="#F2A900" fill-rule="nonzero">
                        <path d="M16.443178,23.0811885 C13.8360136,24.5698167 11.1967876,28.8044027 11.1967876,28.8044027 L8.81519132,26.0255719 L7.3988347,27.4149477 L10.8426069,31.8146112 L12.097904,31.7650245 C13.7073817,26.8026005 17.2639476,23.4781784 17.2639476,23.4781784 L16.443178,23.0811885 Z" id="Path"></path>
                        <path d="M16.443178,8.10960676 C13.8360136,9.59823495 11.1967876,13.8328209 11.1967876,13.8328209 L8.81519132,11.0539902 L7.3988347,12.443366 L10.8426069,16.8430294 L12.097904,16.7934428 C13.7073817,11.8310188 17.2639476,8.50659673 17.2639476,8.50659673 L16.443178,8.10960676 Z" id="Path"></path>
                        <g id="Group">
                            <path d="M0,0 L0,58.2718596 L0,58.6293037 L0,58.6293037 L0,58.6386951 L52.4084125,58.6386951 L52.4084125,0 L0,0 Z M47.475856,53.6481678 L5.1820554,53.6481678 L4.93255647,53.6481678 L4.93255647,4.36671133 L47.2262347,4.36671133 L47.475856,4.36671133 L47.475856,53.356542 L47.475856,53.6481678 L47.475856,53.6481678 Z" id="Shape"></path>
                            <rect id="Rectangle" x="19.1136563" y="9.98105448" width="25.2793519" height="3.74289543"></rect>
                            <rect id="Rectangle" x="19.1136563" y="24.9526362" width="25.2793519" height="3.74289543"></rect>
                            <rect id="Rectangle" x="19.1136563" y="39.9242179" width="25.2793519" height="3.74289543"></rect>
                        </g>
                    </g>
                    <g id="双眼鏡" transform="translate(36.685889, 10.604870)">
                        <g transform="translate(32.872092, 24.385822) rotate(1.000000) translate(-32.872092, -24.385822) translate(0.872092, 0.885822)">
                            <path d="M22.6238843,5.72699417 C25.4189158,6.57366413 27.704351,8.32210026 29.2850089,10.6048704 L29.505548,9.38667326 C30.3173929,5.62226173 28.539633,1.50171027 24.5965689,0.308455352 C20.6535049,-0.883806843 16.7702502,1.52342612 15.2260926,5.06596371 L14.8490502,5.85666882 C16.1663932,5.41565094 17.5391912,5.17702477 18.9292788,5.17702477 C20.1714439,5.17702477 21.4159143,5.36278835 22.6238843,5.72699417 Z" id="Path" stroke="#FFFFFF" stroke-width="1.5" fill="#F2A900" fill-rule="nonzero"></path>
                            <path d="M34.4763298,10.6048704 C36.0591707,8.32541247 38.3446142,6.57628046 41.1396559,5.72914939 C42.3476303,5.36467447 43.589928,5.1789611 44.8322257,5.1789611 C46.2223184,5.1789611 47.5974266,5.41768223 48.9145183,5.86098603 L48.5376026,5.06797997 C46.9933114,1.52403245 43.1101706,-0.8841586 39.1669641,0.308578118 C35.2259348,1.50230796 33.4461192,5.6244994 34.2578391,9.39040917 L34.4763298,10.6048704 Z" id="Path" stroke="#FFFFFF" stroke-width="1.5" fill="#F2A900" fill-rule="nonzero"></path>
                            <path d="M48.7323035,16.4436847 C41.7363691,16.4436847 35.8589123,21.2741931 34.1802616,27.8155563 C33.8512317,27.6343729 33.4991621,27.495495 33.1284118,27.3953971 C33.3429912,26.5657811 33.6200887,25.7624801 33.9553456,24.9886418 L33.9720337,25.0907542 C36.4733839,19.3570988 42.1448544,15.3404679 48.7325526,15.3404679 C51.9670593,15.3404679 54.9808842,16.3122354 57.5093837,17.9787703 L55.9410739,14.5391814 C53.5021174,8.6981254 47.3663684,4.72770313 41.1347249,6.69553879 C36.5276825,8.15054608 33.7930723,12.2482626 33.1993986,16.7944679 C32.7891697,16.6345631 32.3475572,16.541768 31.881037,16.541768 C31.416634,16.541768 30.9729043,16.6344372 30.564668,16.7944679 C29.9711189,12.2482626 27.2363841,8.15067199 22.6273491,6.69553879 C16.3978229,4.72782904 10.2619493,8.6981254 7.8210002,14.5391814 L6.25480755,17.9787703 C8.78318249,16.3122354 11.7970074,15.3404679 15.031514,15.3404679 C21.6172196,15.3404679 27.2905583,19.3570988 29.7900403,25.0907542 L29.8087211,24.9886418 C30.1441025,25.7624801 30.4212,26.5657811 30.6356548,27.3953971 C30.2650291,27.4953691 29.9108424,27.6343729 29.5818124,27.8155563 C27.9030372,21.2741931 22.0275731,16.4436847 15.0316386,16.4436847 C6.72942271,16.4436847 0,23.2481983 0,31.6414348 C0,40.033664 6.72942271,46.8381775 15.031265,46.8381775 C21.7253188,46.8381775 27.3945477,42.4141042 29.3398347,36.3003288 C30.0792181,36.7625417 30.9477476,37.0331206 31.880788,37.0331206 C32.81607,37.0331206 33.6823578,36.7625417 34.4238584,36.3003288 C36.3691454,42.4142301 42.0383742,46.8381775 48.7323035,46.8381775 C57.0342704,46.8381775 63.7635685,40.0337899 63.7635685,31.6414348 C63.7635685,23.2481983 57.0342704,16.4436847 48.7323035,16.4436847 Z" id="Shape" stroke="#FFFFFF" stroke-width="1.5" fill="#F2A900" fill-rule="nonzero"></path>
                            <ellipse id="Oval" fill="#FFFFFF" cx="14.8490502" cy="31.8146112" rx="11.355156" ry="11.4886096"></ellipse>
                            <ellipse id="Oval-Copy" fill="#FFFFFF" cx="48.9145183" cy="31.8146112" rx="11.355156" ry="11.4886096"></ellipse>
                            <path d="M40.1797829,30.930872 L48.0410448,22.9772192 C43.6997412,22.9772192 40.1797829,26.5380959 40.1797829,30.930872 Z" id="Path" fill="#F2A900" fill-rule="nonzero"></path>
                            <path d="M6.11431479,30.0471328 L13.9755767,22.09348 C9.63427307,22.09348 6.11431479,25.6543567 6.11431479,30.0471328 Z" id="Path-Copy" fill="#F2A900" fill-rule="nonzero"></path>
                        </g>
                    </g>
                </g>
            </g>
        </g>
    </g>
</svg>