<?xml version="1.0" encoding="UTF-8"?>
<svg width="150px" height="100px" viewBox="0 -13 150 100" version="1.1"
    xmlns="http://www.w3.org/2000/svg"
    xmlns:xlink="http://www.w3.org/1999/xlink">
    <title>travel tips</title>
    <g id="シンボル" stroke="none" stroke-width="1" fill="none" fill-rule="evenodd">
        <g id="travel-tips">
            <rect id="Rectangle-Copy-10" x="0" y="0" width="150" height="100"></rect>
            <g id="Group-25-Copy" transform="translate(38.000000, 13.000000)">
                <g id="Group-21" transform="translate(0.048193, 0.000000)">
                    <g id="キャリーケース" transform="translate(35.366460, 0.000000)" fill="#F2A900" fill-rule="nonzero">
                        <path d="M8.77812561,3.71010638 L28.0619365,3.71010638 C28.840759,3.71010638 29.4720497,3.10467887 29.4720497,2.35802374 L29.4720497,1.35208264 C29.4720497,0.605427515 28.8406376,0 28.0619365,0 L8.77812561,0 C7.99942451,0 7.36801242,0.605427515 7.36801242,1.35208264 L7.36801242,2.35802374 C7.36801242,3.10467887 7.99942451,3.71010638 8.77812561,3.71010638 Z" id="Path"></path>
                        <rect id="Rectangle" x="11.0520186" y="5.19414894" width="2.94720497" height="8.90425532"></rect>
                        <rect id="Rectangle" x="22.8408385" y="5.19414894" width="2.94720497" height="8.90425532"></rect>
                        <path d="M29.9573257,15.5824468 L6.88298169,15.5824468 C3.08169779,15.5824468 0,18.6670198 0,22.4718502 L0,53.1101085 C0,56.437018 2.35561123,59.2129618 5.48882191,59.8579648 L5.48882191,61.9269097 C5.48882191,62.5595136 6.00076199,63.0718085 6.63265354,63.0718085 L7.39479913,63.0718085 C8.02595478,63.0718085 8.53863076,62.5595136 8.53863076,61.9269097 L8.53863076,59.999512 L28.3004502,59.999512 L28.3004502,61.9269097 C28.3004502,62.5595136 28.8123902,63.0718085 29.4444044,63.0718085 L30.2064274,63.0718085 C30.837583,63.0718085 31.350259,62.5595136 31.350259,61.9269097 L31.350259,59.8579648 C34.4834697,59.2129618 36.8400621,56.4368952 36.8400621,53.1101085 L36.8400621,22.4718502 C36.8400621,18.6670198 33.758487,15.5824468 29.9573257,15.5824468 Z M8.84161491,51.0121531 C8.84161491,51.5259256 8.34687795,51.9414894 7.737281,51.9414894 C7.12594814,51.9414894 6.63121118,51.525804 6.63121118,51.0121531 L6.63121118,26.1580597 C6.63121118,25.6444087 7.12594814,25.2287234 7.737281,25.2287234 C8.34673329,25.2287234 8.84161491,25.6444087 8.84161491,26.1580597 L8.84161491,51.0121531 Z M16.2096273,51.0121531 C16.2096273,51.5259256 15.7148904,51.9414894 15.1044255,51.9414894 C14.4939606,51.9414894 13.9992236,51.525804 13.9992236,51.0121531 L13.9992236,26.1580597 C13.9992236,25.6444087 14.4939606,25.2287234 15.1044255,25.2287234 C15.7148904,25.2287234 16.2096273,25.6444087 16.2096273,26.1580597 L16.2096273,51.0121531 Z M22.8408385,51.0121531 C22.8408385,51.5259256 22.3462138,51.9414894 21.736577,51.9414894 C21.1250595,51.9414894 20.6304348,51.525804 20.6304348,51.0121531 L20.6304348,26.1580597 C20.6304348,25.6444087 21.1252041,25.2287234 21.736577,25.2287234 C22.3462138,25.2287234 22.8408385,25.6444087 22.8408385,26.1580597 L22.8408385,51.0121531 Z M30.2088509,51.0121531 C30.2088509,51.5259256 29.714114,51.9414894 29.1036491,51.9414894 C28.4931842,51.9414894 27.9984472,51.525804 27.9984472,51.0121531 L27.9984472,26.1580597 C27.9984472,25.6444087 28.4931842,25.2287234 29.1036491,25.2287234 C29.714114,25.2287234 30.2088509,25.6444087 30.2088509,26.1580597 L30.2088509,51.0121531 Z" id="Shape"></path>
                    </g>
                    <g id="コンパス" transform="translate(0.000000, 25.970745)">
                        <path d="M40.8781318,7.06363676 C36.5533465,2.70387771 30.5507484,0 23.9460385,0 C17.3413286,0 11.3387305,2.70387771 7.01394522,7.06363676 C2.68485714,11.4204756 -0.00149537779,17.4656012 6.24506068e-07,24.1156915 C-0.00149537779,30.7671949 2.68485714,36.8123205 7.01394522,41.1691592 C11.3387305,45.5275053 17.3413286,48.231383 23.9460385,48.231383 C30.5507484,48.231383 36.5533465,45.5275053 40.8781318,41.1691592 C45.2072199,36.8123205 47.8935724,30.7671949 47.8920764,24.1156915 C47.8935724,17.4656012 45.2072199,11.4204756 40.8781318,7.06363676 Z M37.3205041,37.5849139 C33.9034233,41.023284 29.2088776,43.1413199 23.9984631,43.1413199 C18.7865519,43.1413199 14.0935028,41.023284 10.676422,37.5849139 C7.26224088,34.1436235 5.15910532,29.4173248 5.1576087,24.168488 C5.15910532,18.9211585 7.26224088,14.1933525 10.676422,10.7520622 C14.0935028,7.31369213 18.7865519,5.19565617 23.9984631,5.19414894 C29.2088776,5.19565617 33.9034233,7.31369213 37.3205041,10.7520622 C40.7346852,14.1933525 42.8378208,18.9211585 42.8393174,24.168488 C42.8378208,29.4173248 40.7346852,34.1436235 37.3205041,37.5849139 Z" id="Shape" stroke="#FFFFFF" stroke-width="1.5" fill="#F2A900" fill-rule="nonzero"></path>
                        <ellipse id="Oval" fill="#FFFFFF" cx="23.9976165" cy="24.167633" rx="18.8400078" ry="18.973484"></ellipse>
                        <path d="M33.3988898,11.272699 L33.4003846,11.2711939 L19.4244157,18.2216566 L12.6641104,32.1577618 L12.6612142,32.1636879 C12.4115799,32.6781224 12.5108917,33.3188845 12.9240215,33.7319183 C13.3298641,34.1419421 13.966282,34.2536898 14.4904018,33.9920985 L14.488907,33.9920985 L28.3247369,27.1753945 L28.4882324,26.8432555 L28.9641444,25.8717653 L35.2251812,13.1114567 L35.226676,13.1085407 C35.4835975,12.5809372 35.3799881,11.9489231 34.9682597,11.5329733 C34.5535417,11.1169294 33.924411,11.0111077 33.3988898,11.272699 Z M16.6829232,29.9620323 L16.6960962,29.9340954 L16.6698435,29.9473584 L21.3980399,20.2058368 L26.3583999,25.2000562 L16.6829232,29.9620323 Z" id="Shape" fill="#F2A900" fill-rule="nonzero"></path>
                        <path d="M25.4196429,8.16223404 C26.0298089,8.16223404 26.5248447,7.66404655 26.5248447,7.04981375 C26.5248447,6.4343577 26.0298899,5.93617021 25.4196429,5.93617021 C24.8093958,5.93617021 24.314441,6.4343577 24.314441,7.04981375 C24.314441,7.663965 24.8094768,8.16223404 25.4196429,8.16223404 Z" id="Path" fill="#F2A900" fill-rule="nonzero"></path>
                        <path d="M25.4196429,37.1010638 C24.8094768,37.1010638 24.314441,37.5983013 24.314441,38.2140957 C24.314441,38.8285847 24.8093958,39.3271277 25.4196429,39.3271277 C26.0298899,39.3271277 26.5248447,38.8286663 26.5248447,38.2140957 C26.5248447,37.5983013 26.0298089,37.1010638 25.4196429,37.1010638 Z" id="Path" fill="#F2A900" fill-rule="nonzero"></path>
                        <path d="M9.94620945,21.518617 C9.33637868,21.518617 8.84161491,22.0168045 8.84161491,22.6310373 C8.84161491,23.2464934 9.33629771,23.7446809 9.94620945,23.7446809 C10.5573358,23.7446809 11.0520186,23.2464934 11.0520186,22.6310373 C11.0520996,22.0168861 10.5573358,21.518617 9.94620945,21.518617 Z" id="Path" fill="#F2A900" fill-rule="nonzero"></path>
                        <path d="M40.8918616,23.7446809 C41.502988,23.7446809 41.9976708,23.2464934 41.9976708,22.6310373 C41.9976708,22.0168861 41.502988,21.518617 40.8918616,21.518617 C40.2820309,21.518617 39.7872671,22.0168045 39.7872671,22.6310373 C39.7872671,23.2464934 40.2820309,23.7446809 40.8918616,23.7446809 Z" id="Path" fill="#F2A900" fill-rule="nonzero"></path>
                    </g>
                </g>
            </g>
        </g>
    </g>
</svg>