<?xml version="1.0" encoding="UTF-8"?>
<svg id="_レイヤー_2" data-name="レイヤー 2" xmlns="http://www.w3.org/2000/svg" width="574.7601" height="67.61315" viewBox="0 0 574.7601 67.61315">
  <g id="_ロゴ" data-name="ロゴ">
    <g>
      <g>
        <path d="M89.03315,36.22176l.00533,2.24027,.00837,2.23067-.00854,2.23367,.00281,2.23619-.00167,2.2365,.00585,2.23706-.00317,2.24067-.0075,2.2363-2.05195-.00438-2.05723-.00072-2.06055,.01767-2.05386-.01412-.00274-2.32018-.011-2.32721-.0024-2.33097,.0018-2.33053,.01021-2.32848,.00242-2.33009,.00104-2.33274-.01266-2.33015-.00289-2.33288,.01548-2.33157-.01332-2.33378,.00637-2.33236-.00261-2.33352,.00182-2.33352,.00094-2.32967,.00465-2.33279-.00189-2.33542,.00186-2.33575,.00513-2.33634-.0085-2.34011-.00338-2.34312,2.38006,.00506,2.38028,.00381,2.38297-.0026,2.3833-.0031,2.3839,.00068,2.38774-.00916,2.38774,.00792,2.25048,.08077,2.24063,.2311,2.20532,.44885,2.14673,.6724,2.05307,.91749,1.87792,1.23747,1.66011,1.51247,1.36204,1.78477,1.04247,1.99001,.68332,2.14045,.39008,2.21403,.11012,2.24683-.11627,2.25392-.38662,2.22147-.6963,2.14492-1.03941,1.99952-1.35311,1.80144-1.65398,1.52969-1.88514,1.2347-2.03677,.96347-2.14853,.67814-2.2081,.45478-2.24174,.25095-2.2563,.09353-2.10989-.01201-2.11042,.00477-2.11382-.00266-2.12007-.00448Zm7.60236-7.08468l2.23815-.1048,2.20872-.35606,2.11839-.70999,1.85386-1.23609,1.3369-1.77802,.6939-2.11641,.19604-2.22611-.19802-2.19803-.73716-2.07631-1.36994-1.72217-1.8636-1.17031-2.08664-.71104-2.18153-.336-2.20906-.08526-2.52932,.0024-2.5334-.0018-2.53516-.00951-.00322,2.39919-.00104,2.40054,.01266,2.40325,.00289,2.40358-.01548,2.40419,.01332,2.40807-.00668,2.40735,2.52864-.00288,2.5334,.00182,2.53339,.01038Z" fill="#f47842"/>
        <path d="M149.8057,48.72299l-1.42301,2.02011-1.83267,1.65466-2.17113,1.17291-2.35972,.73036-2.44693,.35091-2.47285,.10487-2.29926-.11884-2.26581-.38978-2.19145-.69359-2.05928-1.01796-1.85004-1.36288-1.57591-1.67091-1.25897-1.92011-.94193-2.09463-.63614-2.20721-.34922-2.27165-.12076-2.29693,.00439-2.41373,.00411-2.41373,.07117-2.22869,.28169-2.21037,.50341-2.16861,.77091-2.0875,1.10577-1.93145,1.42566-1.70559,1.73776-1.38587,1.97152-1.02719,2.11678-.68161,2.19628-.35745,2.22342-.12394,2.25997,.12192,2.22747,.37719,2.14637,.70344,1.98756,1.0691,1.72529,1.45223,1.40739,1.76283,1.04522,1.99931,.74649,2.12859,.45976,2.21215,.25655,2.24562,.07159,2.2619,.00895,1.95226,.00164,1.95705-2.36072-.00459-2.35675-.00519-2.35286,.00141-2.35602,.0067-2.35868-.00034-2.359-.00692-2.3596,.00566-2.3634-.00093-2.36344-.0012-.00384,.14262,.14871,2.37176,.50285,2.3162,.99959,2.14475,1.61316,1.72227,2.12727,1.01812,2.35041,.29892,2.12957-.13524,2.05937-.54565,1.78411-1.14847,1.33822-1.65075,1.89234,1.32041,1.89248,1.32827,1.89415,1.32503Zm-20.65786-16.32757l2.25657-.00682,2.25861-.00024,2.25892,.00969,2.25949-.00923,2.26313,.00866,2.26298-.00382-.28652-2.31851-.72159-2.22006-1.38596-1.86372-2.0404-1.09689-2.30955-.30664-2.29892,.32581-2.01985,1.12885-1.39487,1.85179-.76718,2.19325-.33487,2.30786Z" fill="#f47842"/>
        <path d="M188.07498,38.5703l-.09794,2.28633-.30729,2.26562-.55669,2.21834-.86269,2.11598-1.17506,1.9583-1.50051,1.72073-1.8075,1.3938-2.03183,1.04028-2.1772,.68801-2.25259,.38531-2.2849,.11598-2.28588-.12063-2.25011-.39784-2.17471-.7012-2.02801-1.04941-1.80455-1.39818-1.51752-1.70516-1.19825-1.9435-.85965-2.11481-.58294-2.20856-.31481-2.264-.10244-2.2854,.00296-2.23617-.01228-2.23617,.10723-2.28772,.30373-2.26733,.56243-2.21682,.8658-2.1143,1.18243-1.95585,1.52609-1.69961,1.81931-1.37979,2.04237-1.02151,2.17835-.68694,2.25607-.36896,2.28437-.12024,2.28289,.1118,2.24987,.38501,2.18065,.67402,2.03374,1.03355,1.81391,1.38174,1.51179,1.70708,1.17372,1.9535,.85348,2.11249,.55893,2.21256,.30063,2.26332,.08433,2.28401,.00953,2.23617,.00074,2.23618Zm-7.53318-.21291l.00246-2.05871-.00135-2.05871-.13549-2.31851-.45952-2.27687-.96018-2.10899-1.58246-1.68081-2.08495-.98654-2.29953-.28459-2.30881,.28048-2.09877,.9855-1.59212,1.68073-.97656,2.10744-.48967,2.2743-.13267,2.32787,.00027,2.05871-.0011,2.05871,.13008,2.36674,.46584,2.31705,.93821,2.1653,1.59417,1.73079,2.12436,1.00748,2.34678,.28274,2.31728-.30882,2.07424-1.06287,1.55968-1.73167,.95157-2.13535,.48276-2.29126,.13551-2.34014Z" fill="#f47842"/>
        <path d="M226.61436,38.71231l-.11182,2.40799-.33587,2.38743-.64268,2.32229-.93942,2.21961-1.31413,2.01838-1.67246,1.72987-1.9854,1.35956-2.22537,.91415-2.34905,.52442-2.40491,.16992-2.33338-.13234-2.29282-.43419-2.15106-.89727-1.82196-1.45928,.00176,2.24848-.00187,2.2486,.00456,2.25113,.00148,2.25145-.00079,2.25202,.00575,2.25565,.00504,2.263-2.53588-.01689-2.5334,.01543-2.53667-.00233,.00818-2.32967-.01023-2.32721,.00672-2.33097-.0107-2.33053,.01581-2.32848-.01012-2.33009,.00214-2.33274-.00108-2.33015-.00684-2.33288,.00587-2.33157,.00552-2.33378,.00697-2.33236-.00153-2.33352-.0165-2.33352,.00973-2.32967-.00216-2.33279-.0057-2.33542,.00493-2.33575,.00874-2.33634-.01591-2.34011,.00722-2.34251,2.53154-.00552,2.5334-.00099,2.54001,.00302,.00081,2.84397,1.76022-1.6303,2.14194-1.10146,2.34246-.56715,2.40885-.17117,2.38538,.1624,2.33651,.50773,2.20505,.92282,1.98227,1.3341,1.67319,1.7068,1.3009,2.00377,.95717,2.18763,.62403,2.30879,.33468,2.36858,.11972,2.39253-.00956,2.41373,.00076,2.41374Zm-7.51657-.35492l.00317-2.05871-.01363-2.05871-.11828-2.32021-.48564-2.27142-.95386-2.109-1.57439-1.68766-2.08948-.97505-2.29727-.29966-2.23264,.2739-2.03886,.93027-1.58469,1.58057-.98831,2.01656-.50799,2.18928-.18231,2.24638,.0022,2.27176-.00187,2.27172,.12737,2.36102,.44638,2.3155,.92876,2.16345,1.57684,1.73682,2.11868,.99648,2.33644,.30411,2.31415-.32675,2.07874-1.05044,1.55772-1.7338,.946-2.1369,.48995-2.28922,.14282-2.34027Z" fill="#f47842"/>
        <path d="M235.06646,5.13374l2.52894-.00583,2.53337,.00806,2.53386-.00316-.00728,2.25095-.00075,2.25295,.0071,2.25045,.00152,2.25308-.00144,2.25182,.00168,2.25395-.00315,2.25258,.00143,2.2537,.0045,2.2537-.01117,2.24998,.01285,2.253,.00327,2.25554-.00141,2.25586-.00477,2.25643-.00773,2.26007,.00275,2.26007,.15595,2.41761,.86087,2.2344,1.98684,1.29619,2.3919,.29998,.00558,2.22116-.01331,2.22558,.01372,2.22699-2.22112-.05933-2.20312-.23954-2.16133-.4754-2.04897-.83613-1.7774-1.30838-1.29573-1.78241-.80692-2.05573-.38343-2.17757-.10458-2.21265,.0059-2.36114,.0071-2.36383-.01254-2.3612,.00291-2.36396-.0046-2.36264,.00823-2.36488-.00961-2.36344,.00107-2.36461,.01328-2.36564-.00992-2.36057-.00433-2.36373,.01327-2.3664-.0092-2.36673-.0033-2.36733,.01085-2.37114-.00159-2.37077Z" fill="#f47842"/>
        <path d="M283.62083,48.72425l-1.42195,2.01823-1.83487,1.65117-2.16441,1.18634-2.36415,.71827-2.44597,.35779-2.4732,.09732-2.2991-.1168-2.26794-.38006-2.19209-.69537-2.05802-1.02227-1.84391-1.3705-1.58493-1.66216-1.25735-1.92203-.93939-2.09604-.64117-2.20613-.34596-2.27259-.11748-2.29711-.00466-2.41373,.01141-2.41373,.07332-2.22855,.27496-2.21136,.50135-2.16983,.77753-2.0856,1.10083-1.93495,1.43586-1.6969,1.73146-1.39307,1.97268-1.02564,2.11739-.6795,2.19549-.36313,2.22387-.12023,2.26058,.11665,2.22683,.3831,2.15066,.69325,1.98015,1.08382,1.72879,1.44723,1.40369,1.76533,1.06052,1.99204,.73074,2.13473,.46834,2.21036,.25827,2.24592,.07362,2.26236,.00323,1.95226-.00264,1.95527-2.35924-.00933-2.35675,.0045-2.35286,.00416-2.35602-.00843-2.35868,.01324-2.359-.00826-2.3596,.00307-2.3634-.00837-2.36378,.00012,.00633,.14829,.13856,2.3718,.50357,2.31603,.99367,2.14848,1.6141,1.72493,2.13171,1.01239,2.35056,.29698,2.12889-.13861,2.06038-.54008,1.78472-1.14826,1.33739-1.65211,1.89525,1.31645,1.89317,1.32728,1.88865,1.33158Zm-20.65685-16.32679l2.25733-.0079,2.25861,.00385,2.25892-.00541,2.25949,.00368,2.26313,.00171,2.26421,.00352-.28635-2.32203-.73067-2.21603-1.38291-1.86215-2.03651-1.09969-2.3088-.31634-2.29728,.33817-2.01949,1.12593-1.39677,1.84959-.76215,2.19438-.34075,2.30872Z" fill="#f47842"/>
        <path d="M341.41111,38.5703l-.10091,2.28579-.30984,2.26449-.55038,2.21922-.85589,2.1189-1.17899,1.95646-1.50083,1.72052-1.80467,1.39833-2.03695,1.03025-2.1732,.70103-2.25434,.37821-2.28496,.11958-2.28564-.12693-2.25245-.38701-2.17251-.71009-2.02886-1.04799-1.80283-1.40039-1.52503-1.6993-1.1816-1.95341-.88178-2.10573-.56415-2.21387-.33312-2.26162-.0903-2.28643-.00701-2.23617,.00822-2.23617,.08751-2.28845,.31727-2.26565,.55698-2.21792,.85554-2.11951,1.1995-1.9458,1.52523-1.69837,1.8137-1.38597,2.04385-1.01797,2.1788-.6827,2.2535-.38429,2.28519-.1157,2.28285,.11548,2.25188,.37619,2.17796,.68423,2.03447,1.03172,1.81255,1.38321,1.50736,1.70986,1.18652,1.94581,.84032,2.11792,.5535,2.21276,.31448,2.26095,.0947,2.2842-.01343,2.23618,.0078,2.23617Zm-7.52667-.21291l.00545-2.05871,.00134-2.05871-.14185-2.31883-.4667-2.27514-.95598-2.11016-1.58212-1.68099-2.08632-.98137-2.29812-.2957-2.30679,.29388-2.1005,.97837-1.58898,1.68257-.98211,2.10452-.47875,2.27606-.14176,2.32677,.00192,2.05871-.00392,2.05871,.13955,2.36582,.4469,2.32122,.9598,2.15539,1.57936,1.74309,2.13147,.99074,2.3438,.29454,2.31466-.31841,2.08372-1.0451,1.54556-1.74505,.96369-2.12932,.47741-2.29283,.13924-2.34008Z" fill="#f47842"/>
        <path d="M351.48795,18.61912l.01154-2.19803,.0908-2.36954,.36388-2.33985,.78589-2.22931,1.39291-1.90258,1.96705-1.30062,2.24921-.72338,2.34218-.33965,2.37057-.07788,2.19676-.00097,.01277,2.26535-.00234,2.27294-.00246,2.27575-1.6367,.00465-2.19034,.2541-1.70986,1.31578-.60926,2.10162-.10969,2.21327,.0074,.77375,2.07748,.01031,2.08353-.00051,2.09047-.00926-.00263,2.18143-.0103,2.17829,.00278,2.17522-2.07697-.00144-2.08353,.01246-2.07645-.00133-.00769,2.2199,.00232,2.22529-.0076,2.22739,.01547,2.22604-.00401,2.22714-.01415,2.22714,.01496,2.22347-.00157,2.22645-.0047,2.22896,.0007,2.22927-.00321,2.22984,.00302,2.23343-.00019,2.23392-2.50611-.00805-2.50972-.00096-2.50814,.00675-.00832-2.22475,.01266-2.22529-.00264-2.22739,.002-2.22604-.00588-2.22714-.00636-2.22714,.00908-2.22347,.00595-2.22645-.00227-2.22896-.00565-2.22927-.00386-2.22984,.00263-2.23343,.00745-2.23991-2.2781,.00845-2.2764,.00292,.00102-2.17967,.00898-2.17829-.00792-2.181,2.27433,.01065,2.26921-.01053Z" fill="#f47842"/>
        <path d="M394.58328,44.04442l1.40957,1.51233,1.73299,1.13702,1.9596,.67891,2.06593,.22306,2.21544-.20572,2.10702-.69233,1.73863-1.36698,1.20457-1.85978,.73308-2.10008,.39883-2.18965,.21052-2.21569,.05269-2.22863,.00077-2.27566-.00974-2.27439,.00816-2.27654-.00145-2.27516,.01113-2.27629-.01181-2.27629-.00453-2.27253,.0061-2.27558,.00967-2.27815-.00085-2.27846-.00049-2.27904-.00097-2.28271-.00493-2.28185,2.05576,.00455,2.05723-.00729,2.06055-.00066,2.05895,.00399-.0021,2.27421-.00354,2.27439,.00283,2.27654-.00092,2.27516-.00145,2.27629,.0136,2.27629-.01293,2.27253,.00942,2.27558-.00239,2.27815,.00139,2.27846,.00049,2.27904-.00143,2.28271,.00674,2.28271-.05808,2.29544-.1853,2.28375-.32863,2.27044-.52316,2.23272-.74593,2.16593-1.02975,2.04421-1.31692,1.86913-1.62427,1.60812-1.88797,1.28864-2.08814,.93365-2.20787,.59676-2.26477,.32546-2.28832,.09667-2.37266-.10862-2.34943-.35794-2.28075-.65891-2.17275-.95389-2.00198-1.27504-1.7552-1.59682-1.48468-1.86117,2.29685-1.2983,2.29929-1.29751,2.29833-1.2952Z" fill="#f47842"/>
        <path d="M441.29237,33.16875l2.55293,.00727,2.55705-.0032,2.56251,.00688,.00142-2.98626-.18391-2.12381-.86347-1.92559-1.76486-1.14499-2.08772-.39983-2.13501-.08369-2.152,.07364-2.11028,.38441-1.84206,1.07117-1.34875,1.65994-1.82484-1.26731-1.82008-1.28281-1.82038-1.28092,1.2927-1.78233,1.61062-1.49936,1.88857-1.12809,2.06803-.75323,2.15704-.45047,2.19344-.21079,2.20492-.06822,2.40069,.07496,2.38832,.26583,2.33544,.55704,2.19224,.96973,1.8916,1.46509,1.38454,1.95157,.85441,2.23915,.42024,2.3605,.11992,2.39935-.00099,2.38266-.00282,2.38384-.00148,2.38487-.00067,2.37976,.00579,2.38295-.00651,2.38564,.00339,2.38597-.00201,2.38658,.00288,2.39042,.00268,2.39292-2.48444-.00406-2.48604,.00187-2.49013,.00281,.00034-3.26802-1.49417,1.87236-2.01637,1.28427-2.31729,.60601-2.40337,.13872-2.37876-.1297-2.33841-.44233-2.23729-.81459-2.01959-1.25389-1.64577-1.71086-1.1702-2.06426-.6545-2.28443-.19593-2.37208,.21108-2.39128,.70942-2.2886,1.29139-2.01339,1.79606-1.57827,2.12949-1.09476,2.29938-.67532,2.3711-.36686,2.40046-.10456Zm7.66336,5.83266l-2.36016-.00609-2.36763,.0032-2.36763-.0094-2.24842,.16569-2.13265,.7086-1.51029,1.62287-.43167,2.19549,.43735,2.0989,1.43944,1.57203,2.0112,.74859,2.15104,.19961,2.46312-.1943,2.31936-.81257,1.65782-1.79081,.75821-2.33515,.18724-2.46807-.0063-1.69862Z" fill="#f47842"/>
        <path d="M497.87351,38.71231l-.10246,2.40943-.35541,2.38516-.6361,2.32398-.94039,2.21955-1.31241,2.02013-1.67068,1.73327-1.99618,1.3429-2.21731,.93217-2.35226,.5103-2.40396,.15866-2.33296-.11829-2.29396-.42785-2.14688-.90569-1.81069-1.44858-.01509,2.24388,.0153,2.2486-.00965,2.25113-.00229,2.25145-.00119,2.25202-.00005,2.25565,.0046,2.25242-2.52644-.00542-2.5334,.01137-2.53671,.00088-.00117-2.32972,.00097-2.32721,.01158-2.33097-.01636-2.33053,.01295-2.32848-.01029-2.33009,.01106-2.33274-.00857-2.33015-.00296-2.33288,.01256-2.33157-.0048-2.33378,.00787-2.33236-.00642-2.33352,.00115-2.33352-.00292-2.32967,.0042-2.33279-.00559-2.33542,.0084-2.33575-.00808-2.33634,.00851-2.34011-.00363-2.33454,2.52417-.01238,2.5334,.01407,2.53334-.00721,.00181,2.83931,1.76721-1.62964,2.14423-1.09338,2.33639-.59364,2.41129-.15847,2.38786,.14841,2.33145,.53371,2.20625,.91716,1.97557,1.3412,1.66866,1.7072,1.3172,1.99171,.94703,2.19184,.62787,2.30709,.34292,2.36753,.10987,2.39305-.00362,2.41373,.0052,2.41373Zm-7.52882-.35492l-.00626-2.05871,.00606-2.05871-.12507-2.3199-.48467-2.27122-.9557-2.10727-1.57551-1.68359-2.08172-.99309-2.30045-.28026-2.23438,.25957-2.04739,.92203-1.57776,1.59314-.9827,2.01965-.51725,2.18751-.15978,2.24743-.01535,2.27171,.0153,2.27172,.11316,2.36091,.44274,2.31638,.92874,2.16434,1.57421,1.74237,2.12036,1.00296,2.34011,.28953,2.31505-.32283,2.07781-1.05354,1.54981-1.7387,.95573-2.13138,.49487-2.28892,.13004-2.34111Z" fill="#f47842"/>
        <path d="M519.1684,33.17501l2.553,.00198,2.55711-.00811,2.56073,.00923-.00366-2.98467-.1802-2.12319-.85181-1.9334-1.77719-1.12665-2.08445-.40605-2.13458-.08462-2.15184,.07142-2.10744,.39159-1.84531,1.0619-1.35001,1.66606-1.81796-1.2807-1.82267-1.27903-1.82246-1.27752,1.29912-1.77588,1.60695-1.50101,1.88378-1.1356,2.0705-.74631,2.1568-.4486,2.19234-.22042,2.20513-.06058,2.40017,.07916,2.38916,.25613,2.33584,.5567,2.19714,.9623,1.88329,1.47728,1.38986,1.94759,.84016,2.24358,.43191,2.3574,.11752,2.39935,.00692,2.38266-.0128,2.38384,.00835,2.38487,.00057,2.37976,.00113,2.38295,.00062,2.38564-.00767,2.38597-.00192,2.38658-.00182,2.39042,.00982,2.39331-2.48482-.00322-2.48604,.00555-2.48278-.0077,.00231-3.2641-1.49853,1.87942-2.01834,1.28629-2.32061,.59688-2.40315,.14904-2.37862-.13944-2.33894-.43971-2.23591-.8181-2.0201-1.25242-1.65343-1.70491-1.16165-2.07018-.65686-2.2837-.18759-2.37225,.19906-2.39213,.71142-2.28894,1.28517-2.01984,1.79967-1.57849,2.13641-1.08255,2.29661-.68464,2.37294-.35328,2.39965-.10691Zm7.66722,5.82132l-2.36386-.00198-2.36767,.00811-2.36767-.01089-2.24728,.17009-2.13218,.70459-1.52199,1.61535-.4098,2.20019,.43004,2.09674,1.43708,1.57078,2.00943,.75024,2.15069,.19194,2.46321-.18444,2.31614-.81811,1.66914-1.78128,.75465-2.33879,.18332-2.46884-.00326-1.7037Z" fill="#f47842"/>
        <path d="M545.58128,18.62674l2.47723-.00877,2.48604-.00091,2.48324,.00682,.00025,3.19297,1.73448-1.78937,2.17165-1.21596,2.40581-.64454,2.4935-.18764,2.40674,.14321,2.35706,.49635,2.23146,.90018,1.97713,1.36946,1.58371,1.80904,1.14422,2.11535,.72195,2.2972,.3867,2.37735,.11406,2.40965-.00391,2.21956-.00377,2.22066-.00122,2.22066,.00492,2.217,.00411,2.21997-.00019,2.22248-.00647,2.22278,.01014,2.22335-.00496,2.22693,.00362,2.23231-2.51049-.00571-2.50975,.00537-2.51108-.00362,.00157-2.37393,.003-2.37355,.00297-2.36845-.0032-2.37163-.00093-2.37431-.00205-2.37464,.00699-2.37524-.00975-2.37907-.00368-2.37907-.16022-2.40642-.64605-2.31774-1.41165-1.93338-2.13286-1.07803-2.38689-.28004-2.41398,.32208-2.16842,1.09515-1.59821,1.82812-.87696,2.2709-.25753,2.42845,.00277,2.38039-.00193,2.38142-.00412,2.37631,.00725,2.3795-.00406,2.38219,.01016,2.38252-.00344,2.38312,.00022,2.38696-.00267,2.3882-2.53049,.00251-2.5334-.00712-2.53009-.00017,.00245-2.36152,.0002-2.36244-.00947-2.3652,.00711-2.36387-.00367-2.36611-.00499-2.36467,.00714-2.36585,.00014-2.36687,.00351-2.3618-.00743-2.36497,.0089-2.36763-.00964-2.36796-.00399-2.36856,.01303-2.37237-.00179-2.36736Z" fill="#f47842"/>
      </g>
      <path d="M57.7,52.16872l-1.6039-1.53525-1.59085-1.54996-1.59887-1.54525-1.59589-1.54379-1.59954-1.54748-1.61373-1.53795-1.59075-1.55659,1.32961-1.95712,1.15259-2.07747,.952-2.17623,.76514-2.24911,.53987-2.31369,.33224-2.35336,.10963-2.37473-.09523-2.25317-.30617-2.23408-.49072-2.19951-.66887-2.1525-.85872-2.08494-1.06103-1.98903-1.21577-1.89704-1.37256-1.7867-1.51962-1.66377-1.66425-1.51895-1.77563-1.38816-1.90443-1.20565-2.00061-1.03672-2.07906-.86837-2.14968-.6752-2.1968-.50237-2.23571-.29172-2.25268-.10285-2.25304,.09939-2.23547,.29751-2.19821,.49803-2.15277,.66812-2.08097,.86737-1.99119,1.05578-1.9079,1.19986-1.781,1.38155-1.66599,1.51811-1.52302,1.66179-1.37678,1.78502-1.19875,1.90828-1.06069,1.98849-.85182,2.08674-.6807,2.14816-.49024,2.19939-.29939,2.23441L.00397,25.85073l.09753,2.25192,.27856,2.23766,.48908,2.20118,.67963,2.15003,.86402,2.0829,1.05249,1.99387,1.20956,1.90235,1.37618,1.78558,1.53444,1.65061,1.65603,1.5279,1.78239,1.37944,1.90625,1.20165,1.98719,1.06347,2.08451,.85873,2.14912,.68062,2.20318,.47374,2.2338,.29925,2.25212,.09702,2.20616-.08452,2.18736-.29793,2.15949-.45603,2.10857-.65238,2.04543-.82917,1.9661-1.00329,1.87619-1.1627,1.76277-1.32718,1.59209,1.54176,1.59517,1.54316,1.60244,1.53923,1.59116,1.54636,1.61105,1.53324,1.59423,1.55582,1.60634,1.54532,1.4417-1.51085,1.46423-1.49168,1.44948-1.50909Zm-19.85221-10.87001l-.00995-2.14405-.45221-2.66037-.46114-2.65958-.69225-2.54627-1.61986-1.16074-1.6251-.68113-1.61105-.70754-2.31865-1.60815-.69442-.80738-.46433,.35478-.68958-.7049-.23283-.92417-.22447-.92446,.46336-1.38535,.23004-.45748,.68465-.24104,.22721-1.15418-.15867-.92604-.28759-.15701-.01735-.28705-.0026-2.56057-.45971-1.38232-.91953-1.15694-1.76864-.68769-2.16109-.01765-1.84679,.93415-1.14824,1.09847-.00324,1.91708,.00377,1.93797-.07451-.01368-.59807,1.29159,.46183,1.26164,.54096,.71785,1.15987,2.07777,.24164,3.23803-1.33983,1.44067-1.32783,1.44642-1.84207,1.28269-1.86085,1.25966-.22273,2.19983-.23842,2.19554-.91597,3.09354-1.6148-1.4656-1.46353-1.62115-1.24517-1.79421-1.06727-1.90504-.83289-2.01931-.59972-2.09978-.35646-2.15457-.12983-2.18027,.14126-2.3608,.43935-2.32254,.70288-2.25535,.97247-2.15298,1.22687-2.01871,1.45183-1.86399,1.67476-1.66675,1.85698-1.46059,2.01297-1.23882,2.15742-.96694,2.2576-.69754,2.32296-.43902,2.3608-.11923,2.35977,.1344,2.32457,.42675,2.26029,.69134,2.15159,.97948,2.02082,1.22593,1.85309,1.46627,1.68326,1.65915,1.45009,1.86668,1.2261,2.02002,.97128,2.15422,.70445,2.25507,.41999,2.32536,.14816,2.35861-.12889,2.22166-.37941,2.19277-.62033,2.13706-.87248,2.04656-1.07976,1.94563-1.31575,1.79479-1.4978,1.64505-1.67131,1.46447Z" fill="#f47842"/>
    </g>
  </g>
</svg>