<?xml version="1.0" encoding="UTF-8"?>
<svg id="_レイヤー_2" data-name="レイヤー 2" xmlns="http://www.w3.org/2000/svg" width="602.65429" height="65.88421" viewBox="0 0 602.65429 65.88421">
  <g id="_ロゴ" data-name="ロゴ">
    <g>
      <g>
        <path d="M110.82857,18.60018l-.64973-2.32845-1.0343-2.17567-1.5038-1.87476-1.98598-1.34877-2.29062-.72869-2.40206-.19931-2.26032,.19017-2.16445,.67107-1.88372,1.25501-1.44871,1.73572-1.01482,2.02829-.6557,2.17282-.38201,2.23904-.20728,2.26078-.07037,2.27475-.00052,2.08015,.01343,2.0835,.00093,2.0835,.04602,2.27254,.21199,2.25991,.40666,2.23305,.65602,2.17047,1.00589,2.03013,1.46244,1.72475,1.87322,1.26192,2.15402,.68895,2.25729,.19377,2.41019-.19113,2.30693-.71203,2.00775-1.33133,1.49957-1.89215,1.00186-2.19826,.64423-2.32508,2.62107-.00712,2.62809-.0017,2.6259,.00619-.45261,2.35663-.64935,2.3147-.89064,2.23225-1.18225,2.09037-1.48087,1.89005-1.77075,1.61842-2.02189,1.28986-2.19806,.96414-2.32139,.6112-2.37563,.35289-2.40213,.09565-2.329-.09273-2.30324-.35154-2.24852-.60197-2.14142-.91261-1.98333-1.21723-1.75771-1.52406-1.51242-1.76605-1.22499-1.97825-.96356-2.11875-.73199-2.20931-.52347-2.26732-.33883-2.30465-.1993-2.32221-.04814-2.33238-.01008-2.08015-.00265-2.0835,.00388-2.0835,.0671-2.33372,.19021-2.32309,.33663-2.30552,.51446-2.27432,.74667-2.20643,.95823-2.12208,1.24242-1.96758,1.50502-1.77409,1.76125-1.51799,1.9759-1.22626,2.14691-.89387,2.24129-.61881,2.30325-.33005,2.32542-.11662,2.39915,.11749,2.37203,.36414,2.31017,.6475,2.19972,.95737,2.01208,1.30598,1.77309,1.61462,1.48985,1.87784,1.21057,2.06916,.91617,2.21804,.6763,2.30328,.45665,2.34954-2.6445,.01747-2.65176-.00422-2.65302,.00024Z" fill="#1d868c"/>
        <path d="M155.90458,52.38389l-2.47825,.00175-2.486-.00457-2.48932,.00933,.00377-3.19734-1.6111,1.91504-2.17046,1.23146-2.43989,.54997-2.51097,.13872-2.4159-.15118-2.36923-.48959-2.23558-.91995-1.97951-1.38307-1.60298-1.80614-1.14197-2.12843-.74512-2.3004-.38529-2.38834-.11383-2.41965-.00867-2.21248,.00457-2.21357-.00241-2.21358,.0073-2.20992,.00086-2.21289,.00058-2.21538-.00186-2.21569-.0073-2.21625,.00333-2.21982-.00233-2.22428,2.5332,.00306,2.53337,.00424,2.53827-.00807-.00186,2.37775-.00122,2.37355,.00217,2.36845-.00686,2.37163-.00226,2.37431-.0006,2.37464,.00109,2.37524,.0077,2.37907-.00115,2.37907,.16138,2.43244,.65557,2.34129,1.42639,1.95149,2.15581,1.08797,2.41412,.27548,2.42276-.31793,2.17327-1.10468,1.56518-1.86617,.84514-2.29031,.23096-2.43868-.00084-2.38039-.00182-2.38142,.00462-2.37631,.00211-2.3795-.00602-2.38219,.01219-2.38252-.00837-2.38312,.00522-2.38696-.00223-2.38593,2.50466,.00468,2.50968-.01225,2.51453,.00141-.00293,2.3702-.00089,2.36244-.00663,2.3652,.00969,2.36387-.00442,2.36611,.00509,2.36467-.01018,2.36585,.00199,2.36687,.00247,2.3618-.00515,2.36497,.0004,2.36763,.00901,2.36796-.00768,2.36856,.00072,2.37238-.00008,2.36846Z" fill="#1d868c"/>
        <path d="M167.26196,3.39973l2.53303,.00572,2.53337-.00369,2.53318,.00217-.00264,2.25019,.0001,2.25295-.00172,2.25045,.00576,2.25308,.00198,2.25182-.00065,2.25395,.00106,2.25258-.00959,2.2537,.00124,2.2537,.00784,2.24998,.00415,2.253-.00372,2.25554-.00009,2.25586-.00048,2.25643,.00434,2.26007-.01299,2.26007,.15794,2.41785,.85585,2.23908,1.98899,1.30605,2.40487,.2815,.00298,2.22486-.0153,2.22558,.00145,2.22411-2.21279-.05781-2.20319-.23829-2.16214-.47263-2.0503-.8349-1.76889-1.31868-1.31583-1.7687-.77709-2.06727-.38246-2.17508-.12116-2.21089,.00259-2.36114,.00823-2.36383-.0118-2.3612,.00587-2.36396-.00554-2.36264,.01608-2.36488-.00966-2.36344-.00229-2.36461-.00108-2.36564-.0044-2.36057,.0157-2.36373-.00557-2.3664,.00545-2.36673-.00111-2.36733-.00553-2.37114-.00405-2.37514Z" fill="#1d868c"/>
        <path d="M187.63991,16.89215l2.27165,.00718,2.26755-.01091,.00914-2.59657,.00302-2.60441-.00536-2.60189,2.50306,.00238,2.50972-.0075,2.5142-.00173-.01217,2.60454,.00614,2.60441,.0043,2.60177,2.5029,.00047,2.50968-.00018,2.50505,.0077,.00058,2.16936,.0061,2.17822,.00273,2.18372-2.51043-.00262-2.50968-.00516-2.5101,.00183,.00788,2.31686-.01284,2.31952-.00039,2.32214,.00737,2.32246,.00484,2.32305,.00175,2.3268-.01467,2.3268,.10576,2.21282,.605,2.11256,1.72209,1.30332,2.18809,.26522,2.91508-.00749-.00868,2.27508,.01227,2.27294-.0084,2.27272-1.739-.00334-1.7393,.01126-2.3693-.10211-2.34644-.32126-2.2528-.7261-1.96172-1.31159-1.40187-1.89597-.79033-2.22801-.36055-2.33975-.09567-2.37062,.01283-2.20777-.01089-2.20412-.00181-2.20708,.00066-2.20957,.00004-2.20988,.01368-2.21044-.00903-2.214,.00176-2.2141-2.27182,.00446-2.26956-.00662-.01075-2.17245,.01234-2.17822-.00368-2.17814Z" fill="#1d868c"/>
        <path d="M244.43172,52.38753l-2.48173,.00243-2.486-.00634-2.48055-.00006-.00447-3.19062-1.61826,1.90738-2.16307,1.24134-2.44047,.54938-2.51116,.13472-2.41604-.14766-2.36959-.489-2.23345-.92464-1.9836-1.37728-1.59341-1.81381-1.15228-2.12217-.74091-2.30198-.39123-2.38761-.10959-2.42014,.00303-2.21248-.00948-2.21357,.01008-2.21358-.01007-2.20992,.00573-2.21289-.00159-2.21538,.00147-2.21569-.00597-2.21625,.00206-2.21982-.00003-2.22376,2.53274-.00268,2.53337,.00534,2.5344,.00017-.00464,2.37362,.00591,2.37355,.00203,2.36845,.00195,2.37163-.00451,2.37431-.00754,2.37464,.01219,2.37524-.00672,2.37907-.00541,2.37907,.16996,2.43229,.65662,2.34053,1.42971,1.9461,2.15061,1.09373,2.41398,.2852,2.42267-.3274,2.17532-1.10191,1.56401-1.86821,.83715-2.29228,.24867-2.43715-.0102-2.38039,.00019-2.38142-.00285-2.37631,.01056-2.3795-.00932-2.38219-.00114-2.38252,.01181-2.38312-.00154-2.38696-.00845-2.3915,2.50997,.00452,2.50968,.00505,2.50872-.004-.00136,2.36403,.00673,2.36244-.01052,2.3652,.00898,2.36387,.00151,2.36611-.01046,2.36467,.00579,2.36585,.00199,2.36687-.00066,2.3618-.00048,2.36497,.00112,2.36763,.00488,2.36796-.01092,2.36856,.00119,2.37238,.0029,2.37209Z" fill="#1d868c"/>
        <path d="M273.60918,25.76898l-1.35308-1.5021-1.76366-.9708-1.99568-.30382-2.27599,.39024-1.97171,1.1914-1.36452,1.8636-.7109,2.20068-.20483,2.31026-.0063,2.38039-.00305,2.38142,.00482,2.37631,.0003,2.3795,.00509,2.38219-.00175,2.38252,.00252,2.38312-.00195,2.38696-.00089,2.3892-2.5314-.00329-2.53337,.0055-2.52907-.00905-.00481-2.36046,.00551-2.36244-.01185-2.3652,.00582-2.36387-.00235-2.36611,.00633-2.36467-.0008-2.36585-.00266-2.36687,.0036-2.3618-.00312-2.36497,.004-2.36763,.00206-2.36796-.01203-2.36856,.00675-2.37238,.00027-2.37133,2.48103,.00606,2.48604-.00478,2.48677-.00291-.00388,3.19573,1.51338-1.73333,1.94629-1.22331,2.19568-.68269,2.29883-.19975,2.33857,.18361,2.26843,.58715,2.07303,1.08834,1.76309,1.53887,1.42647,1.86188-2.00721,1.42242-2.01446,1.41778-2.01338,1.42078Z" fill="#1d868c"/>
        <path d="M311.51912,46.99125l-1.42703,2.02129-1.83699,1.64798-2.16255,1.18835-2.36399,.71767-2.44552,.35994-2.47321,.09943-2.29949-.11546-2.26636-.38861-2.19171-.69429-2.05918-1.01901-1.85093-1.36235-1.57482-1.6724-1.26786-1.91545-.93161-2.10014-.63211-2.20799-.36351-2.26967-.10965-2.29788-.00157-2.41373,.00321-2.41373,.07471-2.22883,.2815-2.21057,.49537-2.17124,.7869-2.08177,1.09719-1.93601,1.43225-1.69971,1.73775-1.38384,1.96822-1.03171,2.11782-.67608,2.19453-.36512,2.22348-.1222,2.25958,.12446,2.22885,.36933,2.14517,.70806,1.9852,1.07241,1.73625,1.44028,1.39606,1.77287,1.06033,1.99222,.7288,2.13529,.46601,2.21053,.25359,2.24589,.08517,2.26175-.00861,1.95226-.00075,1.94667-2.35212,.00997-2.35675-.00609-2.35286,.0065-2.35602-.00447-2.35868-.00611-2.359,.00549-2.3596,.00359-2.3634,.00267-2.36325-.00341,.00699,.13946,.1342,2.37221,.50056,2.3176,1.00539,2.14289,1.61522,1.71945,2.12487,1.02215,2.35074,.28925,2.12874-.13263,2.06221-.53499,1.78433-1.15088,1.33539-1.65118,1.89313,1.31817,1.89465,1.32516,1.89475,1.32631Zm-20.65955-16.32888l2.25529-.00202,2.25861,.00768,2.25892-.00809,2.25949,.00421,2.26313-.0005,2.26343,.00155-.28906-2.31925-.72254-2.219-1.38476-1.86308-2.03907-1.09726-2.30903-.30561-2.29863,.32395-2.01285,1.13615-1.40281,1.84325-.77124,2.1925-.32888,2.30553Z" fill="#1d868c"/>
        <path d="M369.30095,36.84066l-.09001,2.28641-.31646,2.26398-.55395,2.21815-.85295,2.11984-1.17781,1.95731-1.49954,1.72228-1.81115,1.38934-2.02966,1.04462-2.17561,.69658-2.25613,.36565-2.28401,.11975-2.28617-.1132-2.25134-.39426-2.17251-.70913-2.03125-1.04373-1.80857-1.39516-1.51432-1.7097-1.19297-1.94694-.86798-2.11172-.57442-2.2111-.32937-2.26246-.08868-2.28651-.00965-2.23617,.00934-2.23617,.09706-2.2877,.29657-2.26868,.57447-2.21385,.85614-2.11824,1.19081-1.95076,1.52847-1.69574,1.81728-1.37984,2.03544-1.03523,2.18393-.66818,2.25371-.3772,2.28402-.12425,2.28284,.11285,2.24997,.38433,2.18087,.67359,2.02934,1.04084,1.81539,1.37797,1.51772,1.70183,1.17476,1.95377,.85346,2.11325,.54306,2.21611,.30997,2.26133,.09765,2.28382,.00116,2.23618-.00893,2.23617Zm-7.51928-.21291l-.00547-2.05881,.00797-2.05881-.13815-2.31917-.46979-2.27473-.95722-2.10934-1.58303-1.67883-2.08223-.99152-2.30006-.27978-2.30583,.28876-2.10672,.96746-1.5911,1.68505-.97005,2.11081-.48586,2.27425-.14087,2.32704,.00682,2.05881,.00377,2.05881,.1246,2.36627,.45962,2.31815,.946,2.16112,1.58718,1.73613,2.12889,.99368,2.34356,.29613,2.31412-.32097,2.08377-1.04389,1.5535-1.73977,.94462-2.13757,.49481-2.28849,.13717-2.3408Z" fill="#1d868c"/>
        <path d="M379.38273,16.89086l-.00063-2.19942,.0952-2.37012,.36159-2.34135,.78519-2.23205,1.39917-1.90114,1.96915-1.29966,2.24873-.72844,2.34449-.32355,2.36989-.10068,2.20059,.00941,.00795,2.26916-.01386,2.27294,.01269,2.27773-1.63954,.00501-2.18603,.2655-1.71967,1.2988-.60098,2.1052-.10455,2.21293-.00372,.78252,2.08077-.00828,2.08353-.00231,2.07838,.01394,.01265,2.16978-.00306,2.17822-.00913,2.17374-2.07548,.0084-2.08353-.00663-2.07828,.00763-.00678,2.22163,.00897,2.2253-.00554,2.22741,.00093,2.22605-.00025,2.22716-.01035,2.22716,.01409,2.22348-.00874,2.22647,.00565,2.22898,.00161,2.22929-.00869,2.22985,.00503,2.23345,.00247,2.23754-2.50933-.00448-2.50972-.00353-2.50722,.00109-.00386-2.22373,.00459-2.2253-.00807-2.22741,.00209-2.22605-.00581-2.22716,.01077-2.22716-.00039-2.22348-.00747-2.22647,.01287-2.22898-.00651-2.22929-.00662-2.22985,.01258-2.23345-.00514-2.23498-2.27323,.00718-2.27426-.003,.00979-2.17736-.00119-2.17822-.01217-2.18459,2.27783,.00923,2.27056-.00407Z" fill="#1d868c"/>
        <path d="M422.4759,42.31147l1.41488,1.51046,1.73161,1.13602,1.95817,.67768,2.06433,.22263,2.21552-.19747,2.10571-.6951,1.74909-1.35639,1.19468-1.86831,.72302-2.10249,.4254-2.18485,.18961-2.21806,.05663-2.22836-.00443-2.27566,.01267-2.27439,.00122-2.27654-.01383-2.27516,.0062-2.27629,.00413-2.27629,.00494-2.27253-.00275-2.27558-.01215-2.27815,.00207-2.27846,.01112-2.27904-.01424-2.28271,.01173-2.27779,2.05125-.00618,2.05723,.01075,2.06055-.01876,2.06409,.00605,.00536,2.27887-.01166,2.27439,.00959,2.27654-.00906,2.27516,.00791,2.27629-.01385,2.27629,.0104,2.27253-.0067,2.27558,.00912,2.27815,.00437,2.27846-.01164,2.27904-.00034,2.28271,.00881,2.28271-.05784,2.29534-.19323,2.28275-.32903,2.26961-.50853,2.23588-.75783,2.16157-1.00984,2.0546-1.32817,1.86277-1.62128,1.61217-1.89737,1.27402-2.08446,.93861-2.20427,.61097-2.26618,.32182-2.28885,.10387-2.37365-.11171-2.34558-.38114-2.28771-.63424-2.17061-.96167-1.99721-1.28239-1.76561-1.58599-1.47156-1.86311,2.29467-1.29756,2.29808-1.29962,2.29527-1.30233Z" fill="#1d868c"/>
        <path d="M469.18581,31.44902l2.55293,.00262,2.55705-.0046,2.55768-.00113,.00557-2.98211-.18227-2.12401-.86047-1.92872-1.77083-1.13569-2.08531-.40993-2.1354-.08755-2.15173,.08489-2.1085,.38729-1.85068,1.05767-1.34419,1.67502-1.81648-1.28411-1.8247-1.27623-1.82571-1.27581,1.29476-1.78633,1.61382-1.4958,1.88482-1.13477,2.07279-.73904,2.15532-.45366,2.19264-.21453,2.20475-.07038,2.40048,.07736,2.38812,.26523,2.3371,.55072,2.19397,.96851,1.88224,1.47631,1.39163,1.94509,.85089,2.24026,.41687,2.36041,.12151,2.39869-.00048,2.38266,.00509,2.38384,.00395,2.38487-.00654,2.37976-.00374,2.38295,.00166,2.38564,.00198,2.38597,.00388,2.38658-.00265,2.39042-.00164,2.38942-2.48107-.00069-2.48604,.00723-2.48576-.00575-.00512-3.2645-1.49073,1.87469-2.01527,1.2901-2.3223,.58634-2.40181,.15147-2.3783-.13502-2.33844-.44002-2.23883-.81067-2.01971-1.25468-1.64838-1.70955-1.16677-2.06696-.6496-2.28539-.20354-2.37129,.21933-2.39033,.70222-2.29049,1.29078-2.01477,1.79878-1.57589,2.1265-1.10236,2.30253-.6668,2.37207-.35499,2.39928-.10749Zm7.66916,5.8147l-2.36596-.00331-2.36763,.0046-2.36763,.00084-2.24831,.16-2.13325,.70708-1.51449,1.62154-.42068,2.19767,.42732,2.1007,1.43895,1.577,2.01605,.73859,2.15039,.19635,2.46481-.1781,2.31346-.82908,1.67175-1.77874,.75145-2.33991,.1798-2.46856,.00397-1.70666Z" fill="#1d868c"/>
        <path d="M525.7645,36.98267l-.1153,2.408-.3362,2.38737-.64429,2.3217-.94428,2.2167-1.30694,2.02231-1.67152,1.73117-1.99007,1.35182-2.21983,.92746-2.34979,.52821-2.40642,.15783-2.33239-.14029-2.28941-.44061-2.15001-.89134-1.8244-1.44883-.00177,2.24752,.00199,2.2486,.00092,2.25113-.003,2.25145,.00028,2.25202,.01632,2.25565-.00568,2.25879-2.53213-.00394-2.5334,.00885-2.52937-.01245,.00526-2.32172-.01861-2.32721,.01832-2.33097-.00761-2.33053,.00815-2.32848-.00609-2.33009-.00574-2.33274-.00403-2.33015,.00959-2.33288-.01188-2.33157,.01485-2.33378-.00518-2.33236,.00562-2.33352,.00191-2.33352-.01103-2.32967,.00728-2.33279-.00164-2.33542-.01209-2.33575,.01809-2.33634-.01064-2.34011,.0022-2.33929,2.52856-.00337,2.5334-.00049,2.53081,.00535,.0104,2.83567,1.76078-1.62882,2.13892-1.10858,2.34278-.57319,2.41059-.1687,2.3864,.16441,2.33426,.51896,2.20797,.91573,1.97319,1.3461,1.67655,1.70116,1.30918,1.99827,.95483,2.18925,.61277,2.31136,.35991,2.36522,.10113,2.39399-.00257,2.41373,.00009,2.41373Zm-7.52393-.35492l.00665-2.05881-.0133-2.05881-.11657-2.3204-.48032-2.27338-.96161-2.10638-1.57514-1.68618-2.08635-.98345-2.29902-.28541-2.22983,.27709-2.04225,.91863-1.59154,1.57627-.99607,2.01653-.50367,2.19291-.16821,2.24793-.00148,2.27175,.00199,2.27172,.12374,2.36104,.44209,2.31677,.9302,2.16403,1.58407,1.72934,2.11306,1.00753,2.3379,.28993,2.31353-.32009,2.08593-1.03985,1.5548-1.74001,.93844-2.1404,.50131-2.28707,.13165-2.34121Z" fill="#1d868c"/>
        <path d="M547.06194,31.44898l2.553-.00144,2.55711,.00071,2.56027-.00018,.00012-2.98427-.17723-2.12447-.85806-1.93216-1.77653-1.12873-2.08443-.41169-2.13531-.08727-2.1521,.07879-2.10893,.38939-1.84297,1.06782-1.34839,1.6569-1.82271-1.26857-1.82252-1.27925-1.82005-1.28094,1.29805-1.77679,1.61005-1.49736,1.8847-1.13196,2.06822-.75015,2.15618-.45057,2.1921-.22354,2.20529-.05988,2.40056,.07517,2.38877,.26198,2.33257,.56686,2.20034,.95225,1.88136,1.47908,1.38453,1.9495,.8601,2.23641,.42041,2.36063,.11833,2.39947-.00014,2.38266,.00282,2.38384-.00827,2.38487-.00319,2.37976,.00213,2.38295,.00824,2.38564,.00206,2.38597-.00179,2.38658-.00112,2.39042-.0025,2.39017-2.48179,.00432-2.48604-.0101-2.4847,.00502,.00117-3.26501-1.50077,1.87314-2.01522,1.2867-2.31967,.59307-2.4019,.15616-2.37818-.14118-2.33938-.43593-2.23754-.81473-2.01397-1.26146-1.65396-1.70224-1.1663-2.06694-.65714-2.28381-.19543-2.37242,.21815-2.39022,.70469-2.28923,1.28423-2.01919,1.80045-1.57565,2.12881-1.09841,2.29994-.6779,2.37305-.35744,2.4004-.09511Zm7.66933,5.81476l-2.36597,.00076-2.36767-.00071-2.36767-.00127-2.24783,.1662-2.13482,.7023-1.51886,1.6209-.41198,2.20021,.42526,2.10013,1.43861,1.57623,2.01433,.74439,2.15128,.19448,2.46306-.19085,2.32091-.80976,1.66063-1.79086,.75444-2.33737,.18745-2.46815-.00116-1.70664Z" fill="#1d868c"/>
        <path d="M573.47113,16.89344l2.48072,.00545,2.48604-.00591,2.48445,.00032-.00058,3.19384,1.73249-1.79137,2.17119-1.21911,2.4077-.64041,2.49367-.18624,2.40519,.15516,2.35981,.48003,2.22767,.90908,1.97181,1.37349,1.59052,1.80093,1.1491,2.11302,.72106,2.2981,.38892,2.37751,.10055,2.41015,.00719,2.21956-.00223,2.22066,.00789,2.22066-.01169,2.217,.00627,2.21997-.00216,2.22248,.00457,2.22278,.00199,2.22335-.00487,2.22693-.00165,2.2263-2.50515-.00501-2.50975,.00839-2.50593-.00679-.01033-2.36848,.0116-2.37355,.00032-2.36845,.00039-2.37163-.01205-2.37431,.00201-2.37464,.01051-2.37524-.00222-2.37907-.00713-2.37907-.16175-2.4067-.65483-2.31432-1.40828-1.93228-2.12937-1.08177-2.38676-.27979-2.41344,.32317-2.17035,1.09152-1.59342,1.83189-.87461,2.27021-.25702,2.42715,.00297,2.38039-.01326,2.38142,.01114,2.37631-.01031,2.3795,.00532,2.38219,.00431,2.38252-.00492,2.38312-.00464,2.38696,.00672,2.3876-2.52992-.00476-2.5334,.00553-2.53193-.00298,.00503-2.36349-.0053-2.36244-.00635-2.3652-.00041-2.36387,.00053-2.36611,.01129-2.36467,.00074-2.36585-.00048-2.36687-.00439-2.3618,.00115-2.36497-.0064-2.36763-.00224-2.36796,.00022-2.36856,.00863-2.37238-.00216-2.37101Z" fill="#1d868c"/>
      </g>
      <path d="M48.63129,15.05208l.18593-.20733,.01132-1.67472,.19844-.19866,2.52739,.01094,2.52739-.00398,.21212-.20371,.32644-2.5337,.29747-2.53722,.21101-.26996,2.13833-.73656,2.13158-.75578,.21461-.29819,.85693-2.72634,.85607-2.72661-.12591-.10869-2.14005,.7879-2.20266,.60726-2.22748,.51786-2.24457,.44118-2.25714,.34544-2.26705,.28874-2.27329,.26085-2.28154,.19816-2.28168,.15695-2.28732,.11105-2.29013,.07561-2.29221,.04209-2.2938,.03532-2.29016-.01914-2.2893-.05782-2.29337-.06535-2.29117-.1084-2.28611-.16205-2.28131-.18275-2.27663-.216-2.27405-.26184-2.26412-.32045-2.25921-.35391-2.24918-.41676-2.23087-.49185L2.35752,.74669,.18866,.06039,.06304,.18758,.91585,2.91522l.8334,2.73366,.24206,.27946,2.1134,.63835,2.10946,.65103,.20645,.2461,.32887,2.65592,.32945,2.65585,.22007,.18508,2.57088,.02047,2.57088-.00421,.20257,.1931-.00399,1.67472,.19711,.18867,1.34631,.00946,.18285,.19722-.05218,1.99349-.03912,1.99706-.05871,1.99653-.20543,.19866-2.08663-.01127-2.08716,.0125-2.09052-.00513-2.09052-.00494-.20204,.20573,.01108,2.30894v2.30894s.19096,.19334,.19096,.19334l2.05277-.00444,2.05329,.01215,2.0566,.0014,2.0566-.00392,.19043,.19703-.06052,2.363-.06872,2.36502-.06819,2.36359-.06259,2.36492-.05848,2.36606-.06724,2.36074-.05363,2.36428-.059,2.3668-.07163,2.36679-.07482,2.36731-.04661,2.37189-.08179,2.37094,.20005,.20115,1.9487-.00415,1.95184-.00452,1.95184,.00617,.20043-.19851,.06742-2.36282,.05675-2.36534,.0603-2.36381,.07232-2.36466,.0626-2.36595,.06398-2.36083,.07458-2.36371,.05282-2.36697,.06309-2.36702,.06873-2.36747,.06428-2.37141,.05412-2.37168,.21269-.19503,2.29075,.00314,2.29075-.01037,2.28697,.00106,2.29004-.00427,2.29263,.01669,2.29294-.01347,2.29352,.00488,2.29722-.0014,2.29722-.00905,.21302,.2078,.04514,2.36342,.07747,2.36478,.05179,2.36404,.08365,2.36435,.05189,2.36624,.06356,2.36084,.0667,2.36393,.04924,2.36707,.07822,2.36661,.05554,2.36783,.06302,2.37144,.07301,2.37117,.20192,.20473,1.9487-.00247,1.95184,.00359,1.95184-.0108,.19215-.19501-.05527-2.36314-.0631-2.36517-.07143-2.36351-.07769-2.36451-.06222-2.36596-.06408-2.36083-.04177-2.3646-.06767-2.36657-.07305-2.36675-.06009-2.3677-.07769-2.37105-.05895-2.37155,.19806-.19068,2.64091-.01758,2.64516,.00795,2.64516-.00576,.19452-.1897,.00779-2.30894,.00698-2.30894-.2093-.18646-2.0147-.01322-2.01521,.00919-2.01846-.01394-2.01846,.01113-.20954-.20214-.0465-1.99364-.0652-1.99635-.04738-1.99683,.19608-.20221,1.14525,.01383Zm-27.99848,.18855l.19371-.20994,.66188,.01132,.19702-.19725,.01094-1.67472,.18772-.19171,2.10319-.01586,2.10658,.01773,2.10658-.01145,.20492,.20127-.01422,2.01225,.00615,2.01276,.0132,2.016-.00882,2.016-.20123,.19331-2.5128-.00075-2.51685,.00323-2.51685-.00889-.18969-.18675,.03963-1.99383,.06621-1.99632,.06272-1.99642Zm20.56505,5.98675l-.18302,.20942-2.60871-.01132-2.61291,.00023-2.61291-.01094-.19171-.18772-.01586-2.01225,.01773-2.01276-.01145-2.016-.00364-2.016,.20492-.1907,2.13216-.00615,2.1356-.0132,2.1356,.00882,.19331,.20123-.00075,1.67472,.20313,.1999,.86291,.00889,.20039,.1869,.06817,1.99306,.04177,1.99698,.04527,1.99689Z" fill="#1d868c"/>
    </g>
  </g>
</svg>