<?xml version="1.0" encoding="UTF-8"?>
<svg id="_レイヤー_2" data-name="レイヤー 2" xmlns="http://www.w3.org/2000/svg" width="505.78248" height="64.42129" viewBox="0 0 505.78248 64.42129">
  <g id="_ロゴ" data-name="ロゴ">
    <g>
      <g>
        <path d="M71.74749,50.92162l.73539-2.12708,.73387-2.12718,.74078-2.12343,.74098-2.12448,.75219-2.12443,.73021-2.13163,.74376-2.12482,.74108-2.12739,.72859-2.13445,.74442-2.1263,.74273-2.12967,.73874-2.12973,.7544-2.12654,.72302-2.136,.7537-2.12651,.74492-2.12957,.73125-2.13038,.74085-2.13024,.74929-2.13,.73948-2.13374,.73286-2.13665,.74045-2.13787,.75503-2.12897,2.59707-.01465,2.60441,.00974,2.60911-.0074,.73418,2.13645,.73355,2.12729,.74851,2.12073,.7382,2.12545,.73484,2.13047,.74022,2.12814,.74353,2.1249,.73316,2.13015,.74174,2.12988,.75151,2.12383,.73323,2.13298,.7373,2.13022,.7479,2.1288,.73801,2.13078,.74346,2.13007,.74386,2.12994,.74169,2.12675,.74502,2.12879,.7368,2.13434,.73516,2.13525,.74844,2.13123,.74811,2.1352,.73812,2.14207-2.18414,.00507-2.18137-.00987-2.18489,.00348-2.18026-.00742-.67963-2.0193-.66379-2.0298-.65303-2.03391-.66828-2.03252-.6759-2.03064-2.20834,.00964-2.20412-.00257-2.20708-.01388-2.20957,.00563-2.20988,.00222-2.21044,.00064-2.214,.0037-2.21612-.00759-.65806,2.03369-.68084,2.0242-.65592,2.03296-.68039,2.02854-.6637,2.02922-2.19409,.01101-2.19909-.01368-2.20263,.00865-2.19954-.00184Zm14.40496-17.24667l2.17652-.00405,2.17583-.00569,2.17613,.00207,2.17668,.00192,2.18019,.01252,2.17871-.00981-.72114-2.19895-.72415-2.19943-.73635-2.19138-.72058-2.19985-.72397-2.20148-.72767-2.2006-.71281-2.20612-.74508-2.19942-.71792-2.21188-.73228,2.20027-.71641,2.20199-.72387,2.1955-.73249,2.19593-.72334,2.20169-.7166,2.20426-.7232,2.2027-.74142,2.20062-.7248,2.2092Z" fill="#44c38b"/>
        <path d="M140.32008,24.30022l-1.35612-1.49163-1.76218-.9668-1.99246-.30158-2.2758,.37871-1.96633,1.19684-1.36983,1.85777-.71253,2.20031-.20816,2.31053-.00434,2.38039,.00806,2.38142,.00153,2.37631-.01081,2.3795,.00131,2.38219-.00029,2.38252,.00087,2.38312,.00691,2.38696-.00615,2.3823-2.52492,.00611-2.5334,.00253-2.52866-.00906-.00021-2.35998-.00601-2.36244-.00073-2.3652,.00612-2.36387-.00503-2.36611,.00574-2.36467-.01103-2.36585,.005-2.36687,.0046-2.3618-.00616-2.36497,.00289-2.36763-.0049-2.36796,.00249-2.36856-.00296-2.37238,.00189-2.3761,2.48559,.0006,2.48604,.0015,2.48193,.00481,.00234,3.19175,1.51586-1.72863,1.94202-1.22873,2.19599-.68235,2.29894-.18747,2.33866,.17131,2.26439,.59813,2.07644,1.07874,1.76786,1.53419,1.4214,1.86516-2.01395,1.41232-2.00995,1.42417-2.01197,1.42043Z" fill="#44c38b"/>
        <path d="M178.23568,45.52437l-1.43146,2.02372-1.83614,1.64895-2.16451,1.184-2.36166,.72506-2.44575,.36265-2.47376,.10029-2.29915-.12576-2.26775-.38107-2.19174-.69599-2.05755-1.02262-1.85223-1.3606-1.57648-1.67135-1.25406-1.92357-.9446-2.09335-.62808-2.20911-.36977-2.26876-.10499-2.29827,.00162-2.41373-.0056-2.41373,.09345-2.22776,.27135-2.21099,.50425-2.16814,.77489-2.08523,1.08999-1.94084,1.44211-1.69179,1.72997-1.39413,1.971-1.02892,2.11979-.6708,2.1935-.37343,2.22423-.10828,2.26042,.10968,2.22584,.38639,2.14627,.70157,1.98507,1.07166,1.7302,1.44554,1.40397,1.76541,1.05504,1.99462,.73629,2.13253,.46753,2.21061,.2572,2.24602,.06654,2.26231,.00676,1.95226,.00362,1.95764-2.36121-.00151-2.35675-.01034-2.35286,.01043-2.35602,.0028-2.35868-.01136-2.359,.00454-2.3596,.0008-2.3634,.00435-2.36361-.00859-.00521,.1455,.14849,2.37199,.49907,2.31775,1.00348,2.14405,1.61286,1.72386,2.13008,1.01235,2.34956,.29732,2.12992-.12804,2.06183-.54143,1.78385-1.15247,1.33595-1.65443,1.89488,1.31732,1.88721,1.33581,1.90356,1.3166Zm-20.66183-16.33064l2.25357,.00314,2.25861,.00637,2.25892-.0033,2.25949-.00357,2.26313-.00315,2.26088,.00118-.28346-2.31315-.72972-2.21637-1.3826-1.86285-2.03683-1.10047-2.30931-.30346-2.29768,.32575-2.02234,1.12352-1.39263,1.85371-.77516,2.19115-.32487,2.30148Z" fill="#44c38b"/>
        <path d="M199.24306,29.97633l2.55293-.00108,2.55705,.00304,2.55313-.00034-.00114-2.97821-.17231-2.12374-.85963-1.92859-1.76851-1.14161-2.0874-.40208-2.13518-.08718-2.15219,.07661-2.11,.38698-1.84536,1.06732-1.34521,1.66228-1.82244-1.26994-1.82254-1.27931-1.8169-1.28331,1.28556-1.78256,1.6188-1.49002,1.88765-1.1262,2.06613-.75436,2.15697-.44472,2.19128-.22793,2.20518-.05803,2.40052,.07153,2.38824,.26483,2.33532,.55668,2.19478,.96487,1.88214,1.47578,1.38975,1.94568,.84885,2.24009,.4321,2.35802,.11416,2.3998,.00625,2.38266-.00923,2.38384,.00047,2.38487,.00873,2.37976-.01209,2.38295,.00859,2.38564,.00243,2.38597-.00294,2.38658-.00317,2.39042,.0053,2.39554-2.48696,.00211-2.48604-.0141-2.48038,.00257-.01267-3.26002-1.49181,1.8708-2.0144,1.28783-2.31968,.59381-2.40204,.15111-2.37917-.12896-2.33713-.44911-2.23457-.81882-2.02442-1.24483-1.65084-1.70771-1.16721-2.06761-.65303-2.28547-.19524-2.3724,.21916-2.38999,.70937-2.28676,1.2857-2.0155,1.79723-1.57577,2.1287-1.09427,2.29756-.68054,2.37229-.35557,2.39953-.11334Zm7.66412,5.83032l-2.36092,.00202-2.36763-.00304-2.36763,.00214-2.24645,.16511-2.13445,.69713-1.5146,1.62064-.42707,2.19741,.43526,2.09968,1.43827,1.57573,2.01354,.74638,2.15149,.19706,2.46394-.18927,2.31921-.81622,1.66131-1.78965,.75449-2.33733,.19144-2.46814-.01019-1.69966Z" fill="#44c38b"/>
        <path d="M272.43489,35.3766l-.09163,2.28659-.31704,2.26409-.5591,2.2167-.85456,2.11843-1.17325,1.95939-1.50244,1.71896-1.80578,1.39597-2.03029,1.04463-2.17933,.6829-2.25317,.38018-2.2844,.11984-2.28491-.12855-2.25258-.38279-2.17509-.70284-2.02772-1.05144-1.8026-1.40105-1.5232-1.70085-1.18833-1.94973-.8753-2.10883-.5785-2.21091-.31456-2.26473-.10024-2.28597,.007-2.23617-.01039-2.23617,.10251-2.28797,.29866-2.2686,.56537-2.21693,.86188-2.11714,1.19686-1.94733,1.52197-1.70221,1.81854-1.38035,2.03936-1.02856,2.18243-.67391,2.25404-.37993,2.2848-.11204,2.28286,.10797,2.25011,.38385,2.17891,.67873,2.03201,1.03496,1.80982,1.38443,1.52259,1.69665,1.17523,1.95358,.85046,2.11432,.55571,2.21342,.30475,2.26284,.09242,2.28424-.01209,2.23618,.00821,2.23617Zm-7.52674-.21291l-.00386-2.05871,.00854-2.05871-.13282-2.31966-.46798-2.27603-.96207-2.10811-1.58065-1.68266-2.0862-.9841-2.29922-.27995-2.30874,.27494-2.10169,.98127-1.5901,1.68416-.98429,2.10528-.47485,2.27778-.13407,2.32709-.00168,2.05871-.00458,2.05871,.13716,2.36599,.45433,2.31929,.95302,2.15768,1.5883,1.73157,2.12205,1.00676,2.34515,.28476,2.31727-.30477,2.07538-1.06138,1.5561-1.73466,.94628-2.13623,.48525-2.28952,.14396-2.33948Z" fill="#44c38b"/>
        <path d="M282.516,15.42987l-.00755-2.20249,.10125-2.36992,.36598-2.34,.7898-2.22793,1.39384-1.90068,1.96495-1.30227,2.24594-.73737,2.34607-.31282,2.36945-.10608,2.20065,.00952-.00843,2.26912,.00437,2.27294,.0012,2.27077-1.62977,.00439-2.18494,.27666-1.72829,1.29077-.59922,2.10896-.10631,2.21361,.00391,.78201,2.08058-.00632,2.08353-.00076,2.08339,.00615-.00684,2.17465,.00565,2.17829-.00482,2.17242-2.07404,.00494-2.08353,.00894-2.08803-.01222,.00027,2.23074-.00261,2.22529,.00215,2.22739-.0026,2.22604,.00608,2.22714,.00305,2.22714-.00524,2.22347-.00309,2.22645-.00106,2.22896,.00073,2.22927,.00318,2.22984-.00558,2.23343,.0154,2.24038-2.51187,.0007-2.50972-.01054-2.51141,.0048,.00839-2.22844-.00273-2.22529-.01315-2.22739,.00882-2.22604,.00694-2.22714-.00324-2.22714,.00645-2.22347-.0097-2.22645,.00523-2.22896,.00139-2.22927-.00084-2.22984,.00206-2.23343-.01117-2.23012-2.26847-.00252-2.26952-.00309,.00616-2.17248-.01224-2.17829,.00771-2.17429,2.26788,.00471,2.27354-.00684Z" fill="#44c38b"/>
        <path d="M325.60322,40.83684l1.40806,1.53244,1.73893,1.12949,1.95913,.67941,2.06576,.21716,2.21616-.19516,2.10787-.69318,1.74742-1.36076,1.20124-1.86574,.7174-2.10554,.40908-2.18725,.19653-2.21657,.06179-2.22796,.00254-2.27566-.00506-2.27439-.00084-2.27654,.01511-2.27516-.00606-2.27629-.00657-2.27629,.00459-2.27253,.00269-2.27558-.00562-2.27815-.00233-2.27846,.01103-2.27904v-2.28271s-.00282-2.27976-.00282-2.27976l2.05344,.00018,2.05723-.00577,2.06055-.00713,2.05688,.0131,.0069,2.27233,.0008,2.27439,.00318,2.27654-.00317,2.27516-.01394,2.27629,.01247,2.27629-.00215,2.27253-.00264,2.27558-.00667,2.27815,.01182,2.27846-.00825,2.27904,.01027,2.28271-.00299,2.28271-.064,2.29483-.17264,2.28442-.32865,2.27048-.52591,2.232-.74197,2.16728-1.02159,2.04933-1.32554,1.86438-1.62166,1.6118-1.89192,1.28382-2.09089,.92582-2.20493,.60539-2.26379,.33733-2.28945,.09122-2.37198-.12269-2.35063-.34866-2.28097-.65926-2.17441-.95146-1.99506-1.28546-1.76723-1.58382-1.46699-1.85865,2.28908-1.30358,2.29989-1.29646,2.2915-1.3144Z" fill="#44c38b"/>
        <path d="M372.31611,29.97447l2.55293,.00393,2.55705,.00188,2.55819,.002-.0064-2.98255-.17394-2.12337-.85903-1.92793-1.77051-1.13308-2.08447-.40851-2.13489-.08103-2.15214,.06792-2.10802,.39251-1.84618,1.06256-1.34944,1.67253-1.8214-1.27874-1.82348-1.27796-1.81937-1.28349,1.29621-1.78193,1.6126-1.49586,1.88457-1.13354,2.06906-.74973,2.15678-.44945,2.19263-.21807,2.20511-.06066,2.40085,.06806,2.38631,.27936,2.3347,.55398,2.19944,.95378,1.8797,1.47998,1.38544,1.94792,.85397,2.23763,.42405,2.35901,.1253,2.39903-.00003,2.38266-.00109,2.38384-.00115,2.38487-.00826,2.37976,.00885,2.38295,.00139,2.38564-.00056,2.38597-.00459,2.38658,.00671,2.39042-.00438,2.39186-2.48342-.00862-2.48604,.01126-2.48703-.00332-.00151-3.26589-1.49575,1.87223-2.0147,1.28787-2.31929,.598-2.40271,.13862-2.37817-.12991-2.34042-.43194-2.23762-.81623-2.01287-1.26377-1.65658-1.70029-1.1593-2.07069-.65328-2.28346-.19459-2.37098,.19922-2.39207,.71999-2.28494,1.27769-2.02264,1.79943-1.57792,2.13374-1.08811,2.29711-.68541,2.37349-.35349,2.4001-.10903Zm7.66303,5.83369l-2.35983-.00264-2.36763-.00188-2.36763-.00253-2.24642,.17198-2.13355,.69855-1.51408,1.6197-.41843,2.19674,.428,2.09831,1.44034,1.56922,2.00875,.75368,2.15137,.1912,2.46363-.18463,2.31322-.82463,1.66459-1.78108,.7525-2.33653,.18975-2.4673-.00458-1.69816Z" fill="#44c38b"/>
        <path d="M428.88588,35.5186l-.09261,2.40928-.35106,2.38588-.63636,2.32429-.9473,2.21638-1.31983,2.01316-1.65768,1.74401-1.99639,1.34335-2.21793,.93161-2.35113,.52027-2.40552,.15022-2.33262-.12414-2.29142-.43489-2.15067-.89412-1.81678-1.45236,.00112,2.24606,.008,2.2486-.01261,2.25113,.00164,2.25145-.00202,2.25202-.00209,2.25565,.00761,2.2558-2.52945,.00905-2.5334-.01694-2.52743,.00124-.01177-2.31961,.01445-2.32721-.00241-2.33097-.00953-2.33053,.00548-2.32848-.00077-2.33009-.00745-2.33274,.0046-2.33015,.00067-2.33288,.00065-2.33157-.00203-2.33378,.00197-2.33236,.00514-2.33352,.00144-2.33352-.00317-2.32967-.01077-2.33279,.01688-2.33542-.00193-2.33575-.01165-2.33634,.01329-2.34011-.01574-2.34732,2.53599,.00324,2.5334,.01026,2.53313-.00606-.00077,2.83975,1.76297-1.64045,2.14615-1.09734,2.3425-.57273,2.41028-.16628,2.38746,.15228,2.331,.53358,2.20898,.91095,1.97343,1.34502,1.6779,1.6997,1.31458,1.99549,.94488,2.19378,.61764,2.30978,.3531,2.36592,.10988,2.39343,.00445,2.41375-.01841,2.41371Zm-7.50627-.35492l-.0161-2.05871,.00164-2.05871-.12487-2.31955-.47726-2.27299-.94774-2.11392-1.58917-1.67394-2.08113-.99254-2.29985-.28094-2.23148,.26923-2.04861,.91336-1.58184,1.58905-.9901,2.01797-.50561,2.19111-.16897,2.24713,.00119,2.27173,.008,2.27172,.11021,2.36103,.44655,2.31547,.92772,2.16407,1.57247,1.74344,2.12153,.99859,2.33894,.27605,2.31798-.29494,2.08324-1.05274,1.54024-1.75026,.96841-2.12708,.48141-2.29274,.14321-2.34087Z" fill="#44c38b"/>
        <path d="M450.19233,29.98258l2.553-.00857,2.55711,.01134,2.55185-.00857,.0027-2.97705-.18108-2.1225-.85246-1.93068-1.77113-1.13604-2.08568-.40843-2.13537-.07797-2.15271,.06272-2.10995,.39186-1.84956,1.06355-1.34192,1.67278-1.8242-1.27066-1.8215-1.2807-1.82234-1.28078,1.29331-1.78819,1.61423-1.49602,1.88838-1.12819,2.06881-.75009,2.15705-.44721,2.19226-.22025,2.20506-.05657,2.40087,.06359,2.38646,.27861,2.33695,.54739,2.19289,.96836,1.88623,1.47056,1.38357,1.9499,.85424,2.23767,.43046,2.35844,.12061,2.39979-.00546,2.38266-.00551,2.38384-.00041,2.38487,.00256,2.37976,.00565,2.38295-.00638,2.38564,.00313,2.38597,.00672,2.38658-.00134,2.39042-.00155,2.3948-2.48626-.01033-2.48604-.00009-2.48192,.0029-.0051-3.26227-1.49912,1.87054-2.0123,1.2913-2.32041,.59292-2.40224,.15581-2.379-.13632-2.33759-.44658-2.23502-.81837-2.01983-1.25121-1.65064-1.70592-1.17045-2.06492-.64405-2.28685-.20498-2.37069,.21221-2.39126,.7108-2.28796,1.28493-2.01838,1.80327-1.57065,2.1272-1.09827,2.29856-.67928,2.37293-.3524,2.3995-.1073Zm7.66797,5.819l-2.36461,.00832-2.36767-.01134-2.36767,.01099-2.24687,.16087-2.13088,.70512-1.51891,1.61457-.42091,2.19796,.42878,2.10039,1.44374,1.56858,2.0083,.75904,2.15272,.19239,2.46517-.18388,2.31516-.82779,1.65931-1.78765,.75559-2.33533,.18566-2.46752,.00306-1.70474Z" fill="#44c38b"/>
        <path d="M476.59807,15.42576l2.48418,.00384,2.48604-.00644,2.48483,.00578-.00308,3.19453,1.7339-1.79268,2.17384-1.21326,2.40584-.64484,2.4936-.17877,2.40657,.13626,2.35846,.49085,2.23017,.90445,1.97873,1.36762,1.58871,1.80628,1.14008,2.11886,.7215,2.29775,.38672,2.37761,.11315,2.40984-.00677,2.21956-.00152,2.22066,.0083,2.22066-.00904,2.217,.00502,2.21997,.00518,2.22248-.0117,2.22278,.00309,2.22335,.00861,2.22693-.00107,2.23109-2.5094-.00417-2.50975-.00332-2.51082,.00447,.00102-2.37365-.00072-2.37355-.00617-2.36845,.00332-2.37163,.00178-2.37431,.00643-2.37464-.0106-2.37524,.00913-2.37907-.00755-2.37907-.15856-2.40698-.657-2.31389-1.41115-1.92867-2.12423-1.09273-2.3887-.28644-2.41462,.333-2.17304,1.09056-1.59175,1.83561-.87704,2.27045-.24995,2.42819-.00422,2.38039-.002,2.38142,.00061,2.37631,.00234,2.3795-.00269,2.38219-.00117,2.38252-.00544,2.38312,.00149,2.38696,.00847,2.39023-2.5324,.0036-2.5334-.00132-2.53511-.00371,.00808-2.3669-.01233-2.36244,.00479-2.3652-.00072-2.36387,.00667-2.36611,.0017-2.36467-.006-2.36585-.00762-2.36687,.01227-2.3618-.00252-2.36497,.0015-2.36763-.00247-2.36796,.00556-2.36856-.00333-2.37238-.00601-2.37462Z" fill="#44c38b"/>
      </g>
      <path d="M21.08808,47.9253l2.60209-2.10423,1.25291-1.89989,1.23602-1.90621,1.19054-1.94059,1.17982-1.94824,1.12963-1.97233,1.12149-1.98109,1.06268-2.01577,1.00964-2.04344,.97485-2.06114,.88591-2.10045,.80972-2.13313,.69138-2.17368,.50704-2.22017,.19216-2.26359-.13345-2.24083-.4357-2.20206-.72213-2.12523-.99406-2.01236-1.26048-1.85587-1.47756-1.68698-1.67974-1.48687-1.86468-1.24811-2.0112-.99541-2.12395-.72387-2.2034-.42596-2.23903-.1578-2.24139,.14517-2.20039,.44413-2.12198,.72848-2.01168,.99225-1.86355,1.24834-1.68657,1.47876-1.48106,1.68472-1.24244,1.86728-.99331,2.01055-.73777,2.11856-.42356,2.20406-.15638,2.23905,.21965,2.26395,.49427,2.21867,.69218,2.16719,.8033,2.12946,.89295,2.09479,.96114,2.06506,1.01239,2.04285,1.07935,2.01101,1.10141,1.9981,1.14971,1.96564,1.1628,1.96298,1.2117,1.92921,1.21433,1.92156,1.2731,1.88254,2.5904,2.10317-2.30681,.00295-2.30489,.0097-2.30798,.00523-2.31058-.01285-2.3109,.0096-2.31149,.00279-2.31521-.00455-2.31447-.00454,.00326,2.85214-.00811,2.85609,2.32669-.0093,2.32418,.0148,2.32683-.00914,2.32425,.00945,2.32696-.00346,2.32566-.01243,2.32786,.01005,2.32645-.01027,2.3276,.01365,2.3276,.00308,2.32376-.00442,2.32688-.00103,2.32951-.00244,2.32983,.00655,2.33042-.01146,2.33418,.00559,2.33062-.00547,.00986-2.84984-.00912-2.85047-2.30585-.0058-2.30486,.00342-2.30795-.00629-2.31056,.00898-2.31088-.00338-2.31146,.00521-2.31519-.00805-2.31519,.00364ZM11.45303,17.16136l.28493-2.15745,.82328-2.01555,1.33501-1.71978,1.71925-1.33576,2.01488-.82538,2.15819-.29196,2.15608,.30038,2.0108,.82872,1.73362,1.31671,1.3179,1.73284,.84319,2.00698,.27848,2.16026-.29108,2.15701-.83828,2.00635-1.31238,1.73539-1.73275,1.31678-2.00889,.83267-2.15668,.28263-2.1569-.2822-2.01671-.82017-1.72599-1.32925-1.31862-1.73206-.83318-2.00961-.28416-2.15754Z" fill="#44c38b"/>
    </g>
  </g>
</svg>