<svg id="icon2" xmlns="http://www.w3.org/2000/svg" width="45" height="45" viewBox="0 0 45 45">
  <g id="Group_6" data-name="Group 6">
    <circle id="Oval_Copy_4" data-name="Oval Copy 4" cx="22.5" cy="22.5" r="22.5" fill="#188e9d"/>
    <g id="Group_13" data-name="Group 13" transform="translate(13.846 8.901)">
      <path id="Fill_19" data-name="Fill 19" d="M3.413.769c0,.121-.135.22-.3.22H.3c-.165,0-.3-.1-.3-.22V.22C0,.1.135,0,.3,0H3.114c.165,0,.3.1.3.22Z" transform="translate(6.923 1.484)" fill="#fff"/>
      <path id="Fill_21" data-name="Fill 21" d="M3.461,3.757H2.424V3.1H3.461a.478.478,0,0,0,.495-.458.478.478,0,0,0-.495-.458H2.706c.262-.476.618-1.118.848-1.505A.441.441,0,0,0,3.361.057a.516.516,0,0,0-.672.18c-.213.356-.52.908-.772,1.363C1.658,1.144,1.351.594,1.193.27A.513.513,0,0,0,.539.04.445.445,0,0,0,.291.646c.188.387.56,1.048.841,1.538H.494A.477.477,0,0,0,0,2.642.477.477,0,0,0,.494,3.1h.94v.658H.494a.459.459,0,1,0,0,.916h.94v.8a.477.477,0,0,0,.495.457.477.477,0,0,0,.495-.457v-.8H3.461a.459.459,0,1,0,0-.916" transform="translate(6.923 10.879)" fill="#fff"/>
      <g id="Group_14" data-name="Group 14">
        <g id="Rectangle" fill="none" stroke="#fff" stroke-miterlimit="10" stroke-width="1">
          <rect width="17.308" height="28.187" rx="1.915" stroke="none"/>
          <rect x="0.5" y="0.5" width="16.308" height="27.187" rx="1.415" fill="none"/>
        </g>
        <g id="Rectangle-2" data-name="Rectangle" transform="translate(1.978 2.967)" fill="none" stroke="#fff" stroke-miterlimit="10" stroke-width="1.25">
          <rect width="13.352" height="20.769" stroke="none"/>
          <rect x="0.625" y="0.625" width="12.102" height="19.519" fill="none"/>
        </g>
        <g id="Oval" transform="translate(4.451 9.396)" fill="none" stroke="#fff" stroke-miterlimit="10" stroke-width="1.25">
          <circle cx="4.451" cy="4.451" r="4.451" stroke="none"/>
          <circle cx="4.451" cy="4.451" r="3.826" fill="none"/>
        </g>
      </g>
      <g id="Oval-2" data-name="Oval" transform="translate(7.418 24.231)" fill="none" stroke="#fff" stroke-miterlimit="10" stroke-width="1">
        <circle cx="1.484" cy="1.484" r="1.484" stroke="none"/>
        <circle cx="1.484" cy="1.484" r="0.984" fill="none"/>
      </g>
    </g>
  </g>
</svg>
