<svg id="ion3" xmlns="http://www.w3.org/2000/svg" width="45" height="45" viewBox="0 0 45 45">
  <g id="Group_32" data-name="Group 32">
    <circle id="Oval_Copy_5" data-name="Oval Copy 5" cx="22.5" cy="22.5" r="22.5" fill="#188e9d"/>
    <g id="Group_5" data-name="Group 5" transform="translate(7.879 9)">
      <g id="Group_41" data-name="Group 41" transform="translate(0 13)">
        <g id="Oval" transform="translate(2.121)" fill="none" stroke="#f9f7f7" stroke-miterlimit="10" stroke-width="1.25">
          <circle cx="3.5" cy="3.5" r="3.5" stroke="none"/>
          <circle cx="3.5" cy="3.5" r="2.875" fill="none"/>
        </g>
        <path id="Rectangle" d="M0,5.738.038,3.916A4,4,0,0,1,4.038,0H7.1a4,4,0,0,1,4,4.017L11.1,5.738" transform="translate(0 7)" fill="none" stroke="#f9f7f7" stroke-miterlimit="10" stroke-width="1.25"/>
      </g>
      <g id="Group_41_Copy" data-name="Group 41 Copy" transform="translate(20)">
        <g id="Oval-2" data-name="Oval" transform="translate(2.121)" fill="none" stroke="#f9f7f7" stroke-miterlimit="10" stroke-width="1.25">
          <circle cx="3.5" cy="3.5" r="3.5" stroke="none"/>
          <circle cx="3.5" cy="3.5" r="2.875" fill="none"/>
        </g>
        <path id="Rectangle-2" data-name="Rectangle" d="M0,5.738.038,3.916A4,4,0,0,1,4.038,0H7.1a4,4,0,0,1,4,4.017L11.1,5.738" transform="translate(0 7)" fill="none" stroke="#f9f7f7" stroke-miterlimit="10" stroke-width="1.25"/>
      </g>
      <g id="Group_42" data-name="Group 42" transform="matrix(0.438, 0.899, -0.899, 0.438, 18.215, 1.847)">
        <path id="Line_10" data-name="Line 10" d="M0,13V0" transform="translate(2 0.899)" fill="none" stroke="#f9f7f7" stroke-linecap="round" stroke-linejoin="round" stroke-miterlimit="10" stroke-width="1.25"/>
        <path id="Line_6" data-name="Line 6" d="M0,1.9,2,0,4,1.9" fill="none" stroke="#f9f7f7" stroke-linecap="round" stroke-linejoin="round" stroke-miterlimit="10" stroke-width="1.25"/>
        <path id="Line_6_Copy" data-name="Line 6 Copy" d="M0,0,2,1.9,4,0" transform="translate(0 12)" fill="none" stroke="#f9f7f7" stroke-linecap="round" stroke-linejoin="round" stroke-miterlimit="10" stroke-width="1.25"/>
      </g>
    </g>
  </g>
</svg>
