<svg id="icon1" xmlns="http://www.w3.org/2000/svg" width="45" height="45" viewBox="0 0 45 45">
  <g id="Group_23_Copy" data-name="Group 23 Copy">
    <circle id="Oval" cx="22.5" cy="22.5" r="22.5" fill="#188e9d"/>
    <g id="Group_10" data-name="Group 10" transform="translate(12.824 8.934)">
      <g id="Group_3" data-name="Group 3">
        <g id="Group_11" data-name="Group 11">
          <g id="Group_6" data-name="Group 6">
            <g id="Oval-2" data-name="Oval" transform="translate(4.045)" fill="none" stroke="#fff" stroke-miterlimit="10" stroke-width="1.25">
              <circle cx="1.731" cy="1.731" r="1.731" stroke="none"/>
              <circle cx="1.731" cy="1.731" r="1.106" fill="none"/>
            </g>
            <circle id="Oval_Copy_2" data-name="Oval Copy 2" cx="0.989" cy="0.989" r="0.989" transform="translate(6.023 4.945)" fill="none" stroke="#fff" stroke-miterlimit="10" stroke-width="1.25"/>
            <g id="Oval_Copy_14" data-name="Oval Copy 14" transform="translate(2.067 3.956)" fill="none" stroke="#fff" stroke-miterlimit="10" stroke-width="1.25">
              <circle cx="1.484" cy="1.484" r="1.484" stroke="none"/>
              <circle cx="1.484" cy="1.484" r="0.859" fill="none"/>
            </g>
            <path id="Combined_Shape" data-name="Combined Shape" d="M2.711,7.723l-2.4-.968a.5.5,0,0,1-.3-.588L1.5.376A.5.5,0,0,1,2.168.037L6.043,1.6a.5.5,0,0,1,.247.711l-.555.974h0l-2.4,4.219a.5.5,0,0,1-.622.216Z" transform="translate(0 8.334)" fill="none" stroke="#fff" stroke-miterlimit="10" stroke-width="1.25"/>
          </g>
          <g id="Combined_Shape-2" data-name="Combined Shape" transform="translate(8.001 3.956)" fill="none" stroke-miterlimit="10">
            <path d="M5.192,10.384A5.2,5.2,0,0,1,0,5.192c0-.08,0-.162.006-.244L3.659,4.8a.025.025,0,0,0,.02-.013.023.023,0,0,0,0-.022L1.93,1.152a5.192,5.192,0,1,1,3.262,9.232Z" stroke="none"/>
            <path d="M 5.192100048065186 9.134200096130371 C 7.365779876708984 9.134200096130371 9.134200096130371 7.365779876708984 9.134200096130371 5.192100048065186 C 9.134200096130371 3.018419981002808 7.365779876708984 1.25 5.192100048065186 1.25 C 4.62008810043335 1.25 4.05617094039917 1.375651717185974 3.541944026947021 1.612274885177612 L 4.801868438720703 4.213965892791748 C 4.988612174987793 4.592748165130615 4.976296901702881 5.035007476806641 4.766429901123047 5.405270099639893 C 4.550590038299561 5.785260200500488 4.161370277404785 6.025859832763672 3.725260019302368 6.0488600730896 L 3.709670066833496 6.049590110778809 L 1.366161108016968 6.143916606903076 C 1.793063163757324 7.85925817489624 3.34651517868042 9.134200096130371 5.192100048065186 9.134200096130371 M 5.192100048065186 10.38420009613037 C 2.329169988632202 10.38420009613037 4.806518560940276e-08 8.05502986907959 4.806518560940276e-08 5.192100048065186 C 4.806518560940276e-08 5.112120151519775 0.001930048107169569 5.029880046844482 0.00574004789814353 4.947659969329834 L 3.65939998626709 4.800600051879883 C 3.667740106582642 4.800159931182861 3.675260066986084 4.79541015625 3.679520130157471 4.787909984588623 C 3.683550119400024 4.780799865722656 3.683760166168213 4.772419929504395 3.680099964141846 4.765500068664551 L 1.930350065231323 1.152340054512024 C 2.850019931793213 0.4088100492954254 4.008299827575684 4.806518560940276e-08 5.192100048065186 4.806518560940276e-08 C 8.05502986907959 4.806518560940276e-08 10.38420009613037 2.329169988632202 10.38420009613037 5.192100048065186 C 10.38420009613037 8.05502986907959 8.05502986907959 10.38420009613037 5.192100048065186 10.38420009613037 Z" stroke="none" fill="#fff"/>
          </g>
          <path id="Rectangle" d="M0,10.651V3.877A3.877,3.877,0,0,1,3.877,0H6.013A3.877,3.877,0,0,1,9.89,3.877v6.774" transform="translate(8.001 15.33)" fill="none" stroke="#fff" stroke-linecap="round" stroke-linejoin="round" stroke-miterlimit="10" stroke-width="1.25"/>
        </g>
      </g>
    </g>
  </g>
</svg>
