<svg id="icon5" xmlns="http://www.w3.org/2000/svg" width="45" height="45" viewBox="0 0 45 45">
  <g id="Group_23" data-name="Group 23">
    <circle id="Oval_Copy_7" data-name="Oval Copy 7" cx="22.5" cy="22.5" r="22.5" fill="#188e9d"/>
    <path id="Line_14" data-name="Line 14" d="M.5,0V1.375" transform="translate(19 23.293)" fill="none" stroke="#fafffa" stroke-linecap="round" stroke-miterlimit="10" stroke-width="1.25"/>
    <g id="Rectangle" transform="translate(24 12)" fill="none" stroke="#fafffa" stroke-linecap="round" stroke-linejoin="round" stroke-miterlimit="10" stroke-width="1.25">
      <path d="M2,0H3A2,2,0,0,1,5,2V3A0,0,0,0,1,5,3H0A0,0,0,0,1,0,3V2A2,2,0,0,1,2,0Z" stroke="none"/>
      <path d="M1.828.625H3.172a1.2,1.2,0,0,1,1.2,1.2v0a.547.547,0,0,1-.547.547H1.172a.547.547,0,0,1-.547-.547v0A1.2,1.2,0,0,1,1.828.625Z" fill="none"/>
    </g>
    <path id="Path_4" data-name="Path 4" d="M0,0H8.809a1,1,0,0,1,1,1v.558" transform="translate(18.95 9.396)" fill="none" stroke="#fafffa" stroke-linecap="round" stroke-linejoin="round" stroke-miterlimit="10" stroke-width="1.25"/>
    <path id="Line_13" data-name="Line 13" d="M.5.5v3" transform="translate(26 9)" fill="none" stroke="#fafffa" stroke-linecap="round" stroke-linejoin="round" stroke-miterlimit="10" stroke-width="1.25"/>
    <path id="Path_5" data-name="Path 5" d="M0,2.058V1A1,1,0,0,1,1,0H5.242a1,1,0,0,1,1,1v.78" transform="translate(22.963 15.181)" fill="none" stroke="#fafffa" stroke-miterlimit="10" stroke-width="1.25"/>
    <path id="Path_6" data-name="Path 6" d="M2.572,0h9.94a2,2,0,0,1,2,1.989L14.6,17.372a2,2,0,0,1-2,2.011H1.327A1.327,1.327,0,0,1,0,18.057H0" transform="translate(19.5 16.716)" fill="none" stroke="#fafffa" stroke-linecap="round" stroke-miterlimit="10" stroke-width="1.25"/>
    <g id="Group_9" data-name="Group 9" transform="translate(6.021 24.291)">
      <path id="Path_7" data-name="Path 7" d="M0,5.825H2.576l7.46,2.282a3,3,0,0,0,2.214-.183l10.778-5.36A1.111,1.111,0,0,0,23.5,1.02h0A1.311,1.311,0,0,0,21.842.461L16.2,2.873a3,3,0,0,1-1.18.242H8.471" transform="translate(0.891 1.126)" fill="none" stroke="#fafffa" stroke-linecap="round" stroke-linejoin="round" stroke-miterlimit="10" stroke-width="1.25"/>
      <path id="Path_8" data-name="Path 8" d="M0,.709S1.515.612,3.107.377A14.074,14.074,0,0,1,7.224.067c3.179.475,4.289,1.691,4.289,1.691h4.35a1.357,1.357,0,0,1,1.079,2.179h0" transform="translate(0 0)" fill="none" stroke="#fafffa" stroke-miterlimit="10" stroke-width="1.25"/>
    </g>
    <path id="Path_9" data-name="Path 9" d="M3.083,0S.068,3.066,0,4.691A3.067,3.067,0,0,0,3.083,7.806,2.785,2.785,0,0,0,5.828,4.691C5.757,3.046,3.083,0,3.083,0Z" transform="translate(16.172 14.051)" fill="none" stroke="#fafffa" stroke-linecap="round" stroke-linejoin="round" stroke-miterlimit="10" stroke-width="1.25"/>
    <path id="Path_10" data-name="Path 10" d="M.078,0A1.679,1.679,0,0,0,.326,1.409a1.757,1.757,0,0,0,1.226.567" transform="translate(17.535 18.315)" fill="none" stroke="#fafffa" stroke-linecap="round" stroke-linejoin="round" stroke-miterlimit="10" stroke-width="1.25"/>
  </g>
</svg>
