<svg id="icon9" xmlns="http://www.w3.org/2000/svg" width="45" height="45" viewBox="0 0 45 45">
  <g id="Group_40" data-name="Group 40">
    <g id="Group_37" data-name="Group 37">
      <g id="Group_35" data-name="Group 35">
        <circle id="Oval_Copy_11" data-name="Oval Copy 11" cx="22.5" cy="22.5" r="22.5" fill="#188e9d"/>
      </g>
    </g>
    <g id="Group_27" data-name="Group 27" transform="translate(28.637 8.954) rotate(39)">
      <g id="Rectangle" fill="none" stroke-linejoin="round" stroke-miterlimit="10">
        <path d="M0,2.057A2,2,0,0,1,2,0H4.907a2,2,0,0,1,2,2.035L6.668,15.709a2,2,0,0,1-.19.817L5.2,19.237l-.165,7.391a1.377,1.377,0,0,1-1.408,1.346h0A1.464,1.464,0,0,1,2.2,26.566l-.256-6.783a2,2,0,0,0-.162-.717L.546,16.208a2,2,0,0,1-.163-.736Z" stroke="none"/>
        <path d="M 2.000011920928955 1.25 C 1.795641899108887 1.25 1.604641914367676 1.330709457397461 1.462202072143555 1.477270126342773 C 1.319752216339111 1.623830795288086 1.24451208114624 1.817050933837891 1.250322341918945 2.021339416503906 L 1.632232189178467 15.43634033203125 C 1.634952068328857 15.53178977966309 1.655522346496582 15.62462997436523 1.693392276763916 15.71230983734131 L 2.927492141723633 18.57019996643066 C 3.087422132492065 18.94055938720703 3.176232099533081 19.33275032043457 3.191472053527832 19.73590087890625 L 3.447782039642334 26.51866912841797 C 3.452052116394043 26.63163948059082 3.543932199478149 26.7221508026123 3.660462141036987 26.72476005554199 C 3.728862047195435 26.72476005554199 3.785752058029175 26.66885948181152 3.787282228469849 26.60013008117676 L 3.951892137527466 19.20907020568848 C 3.955782175064087 19.03446960449219 3.996212244033813 18.86262893676758 4.070582389831543 18.70460891723633 L 5.346642017364502 15.99322986602783 C 5.392082214355469 15.8966703414917 5.416071891784668 15.79362010955811 5.417932033538818 15.68694019317627 L 5.6568922996521 2.01310920715332 C 5.660431861877441 1.810329437255859 5.584102153778076 1.618980407714844 5.441952228546143 1.474319458007812 C 5.299802303314209 1.329669952392578 5.109822273254395 1.25 4.907011985778809 1.25 L 2.000011920928955 1.25 M 2.000011920928955 0 L 4.907011985778809 0 C 6.025252342224121 0 6.926242351531982 0.9168796539306641 6.906702041625977 2.034950256347656 L 6.667742252349854 15.70878028869629 C 6.662802219390869 15.99139022827148 6.59801197052002 16.26974868774414 6.477652072906494 16.5255012512207 L 5.201581954956055 19.23690032958984 L 5.036972045898438 26.62796020507812 C 5.020031929016113 27.38879013061523 4.389314651489258 27.99172019958496 3.628502130508423 27.97439956665039 C 2.854452133178711 27.95677947998047 2.227911949157715 27.33958053588867 2.198672294616699 26.56587982177734 L 1.942362308502197 19.78310012817383 C 1.933022022247314 19.53598976135254 1.877942085266113 19.29275894165039 1.779911994934082 19.06573867797852 L 0.5458121299743652 16.20785903930664 C 0.4452919960021973 15.97509002685547 0.3899521827697754 15.7253303527832 0.3827419281005859 15.47189044952393 L 0.0008320808410644531 2.056909561157227 C -0.03123807907104492 0.9305095672607422 0.8731522560119629 0 2.000011920928955 0 Z" stroke="none" fill="#fff"/>
      </g>
      <path id="Line_15" data-name="Line 15" d="M0,0H1" transform="translate(3.442 24.5)" fill="none" stroke="#fff" stroke-linecap="square" stroke-miterlimit="10" stroke-width="1.25"/>
      <g id="Rectangle-2" data-name="Rectangle" transform="translate(1.942 6)" fill="none" stroke="#fff" stroke-miterlimit="10" stroke-width="1.25">
        <rect width="3" height="8" rx="1" stroke="none"/>
        <rect x="0.625" y="0.625" width="1.75" height="6.75" rx="0.375" fill="none"/>
      </g>
      <g id="Oval" transform="translate(1.942 2)" fill="none" stroke="#fff" stroke-miterlimit="10" stroke-width="1.25">
        <circle cx="1.5" cy="1.5" r="1.5" stroke="none"/>
        <circle cx="1.5" cy="1.5" r="0.875" fill="none"/>
      </g>
    </g>
  </g>
</svg>
