<svg id="icon8" xmlns="http://www.w3.org/2000/svg" width="45" height="45" viewBox="0 0 45 45">
  <g id="Group_36" data-name="Group 36">
    <circle id="Oval_Copy_10" data-name="Oval Copy 10" cx="22.5" cy="22.5" r="22.5" fill="#188e9d"/>
    <g id="Group_18" data-name="Group 18" transform="translate(11 12.467)">
      <g id="Group_17" data-name="Group 17" transform="translate(16.807)">
        <text id="_36.5" data-name="36.5" transform="translate(1.274)" fill="#fff" font-size="5.294" font-family="SegoeUI, Segoe UI"><tspan x="0" y="6">36.5</tspan></text>
        <path id="Path_2" data-name="Path 2" d="M0,3.664,1.781.016,10.949,0" transform="translate(0 7.184)" fill="none" stroke="#fff" stroke-linecap="round" stroke-linejoin="round" stroke-miterlimit="10" stroke-width="1.25"/>
      </g>
      <g id="Group_2" data-name="Group 2" transform="translate(0 0.533)">
        <g id="Combined_Shape" data-name="Combined Shape" fill="none" stroke-linecap="round" stroke-miterlimit="10">
          <path d="M3.723,18.109V15.667a1,1,0,0,0-1-1H1a1,1,0,0,1-1-1V.882A.882.882,0,0,1,.882,0H14.008a.882.882,0,0,1,.882.882v12.9a.882.882,0,0,1-.882.882H12.317a.882.882,0,0,0-.882.882v2.56" stroke="none"/>
          <path d="M 4.972627639770508 18.10896492004395 C 4.972627639770508 18.45414352416992 4.692805767059326 18.73396492004395 4.347627639770508 18.73396492004395 C 4.002449512481689 18.73396492004395 3.722627878189087 18.45414352416992 3.722627878189087 18.10896492004395 C 3.722627878189087 18.10896492004395 3.722627878189087 15.66666698455811 3.722627878189087 15.66666698455811 C 3.722627878189087 15.11438179016113 3.27491283416748 14.66666698455811 2.722627878189087 14.66666698455811 C 2.722627878189087 14.66666698455811 1.000000238418579 14.66666698455811 1.000000238418579 14.66666698455811 L 1.000000238418579 13.41666698455811 L 2.722627878189087 13.41666698455811 C 3.963281869888306 13.41666698455811 4.972627639770508 14.42601299285889 4.972627639770508 15.66666698455811 L 4.972627639770508 18.10896492004395 M 1.250000238418579 13.66666698455811 L 2.795410125600029e-07 13.66666698455811 C 2.795410125600029e-07 13.66666698455811 2.795410125600029e-07 0.8823530673980713 2.795410125600029e-07 0.8823530673980713 L 1.250000238418579 0.8823530673980713 L 1.250000238418579 13.66666698455811 M 0.8823527693748474 1.25 L 0.8823527693748474 -3.997802622279778e-08 C 0.8823527693748474 -3.997802622279778e-08 14.00815773010254 -3.997802622279778e-08 14.00815773010254 -3.997802622279778e-08 L 14.00815773010254 1.25 L 0.8823527693748474 1.25 M 13.64051055908203 0.8823530673980713 L 14.89051055908203 0.8823530673980713 C 14.89051055908203 0.8823530673980713 14.89051055908203 13.78431415557861 14.89051055908203 13.78431415557861 L 13.64051055908203 13.78431415557861 L 13.64051055908203 0.8823530673980713 M 14.00815773010254 13.41666698455811 L 14.00815773010254 14.66666698455811 C 14.00815773010254 14.66666698455811 12.31681823730469 14.66666698455811 12.31681823730469 14.66666698455811 C 11.82950782775879 14.66666698455811 11.4344654083252 15.0617094039917 11.4344654083252 15.5490198135376 C 11.4344654083252 15.5490198135376 11.4344654083252 18.10896492004395 11.4344654083252 18.10896492004395 C 11.4344654083252 18.45414352416992 11.15464305877686 18.73396492004395 10.8094654083252 18.73396492004395 C 10.46428680419922 18.73396492004395 10.1844654083252 18.45414352416992 10.1844654083252 18.10896492004395 L 10.1844654083252 15.5490198135376 C 10.1844654083252 14.37323665618896 11.14103507995605 13.41666698455811 12.31681823730469 13.41666698455811 L 14.00815773010254 13.41666698455811 M 1.00000524520874 14.66666221618652 C 0.4477152824401855 14.66666221618652 5.27954080098425e-06 14.21895217895508 5.27954080098425e-06 13.66666221618652 L 1.00000524520874 13.66666221618652 L 1.00000524520874 14.66666221618652 Z M 1.25000524520874 13.66666221618652 L 1.00000524520874 13.66666221618652 L 1.00000524520874 13.41666221618652 C 1.137855291366577 13.41666221618652 1.25000524520874 13.52881240844727 1.25000524520874 13.66666221618652 Z M 0.882355272769928 1.250002503395081 L 0.882355272769928 0.8823524713516235 L 1.25000524520874 0.8823524713516235 C 1.25000524520874 1.08507251739502 1.085075259208679 1.250002503395081 0.882355272769928 1.250002503395081 Z M 0.882355272769928 0.8823524713516235 L 5.27954080098425e-06 0.8823524713516235 C 5.27954080098425e-06 0.3950424492359161 0.395045280456543 2.460021960359882e-06 0.882355272769928 2.460021960359882e-06 L 0.882355272769928 0.8823524713516235 Z M 14.00815486907959 1.250002503395081 C 13.80543518066406 1.250002503395081 13.64051532745361 1.08507251739502 13.64051532745361 0.8823524713516235 L 14.00815486907959 0.8823524713516235 L 14.00815486907959 1.250002503395081 Z M 14.89051532745361 0.8823524713516235 L 14.00815486907959 0.8823524713516235 L 14.00815486907959 2.460021960359882e-06 C 14.49546527862549 2.460021960359882e-06 14.89051532745361 0.3950424492359161 14.89051532745361 0.8823524713516235 Z M 14.00815486907959 14.66666221618652 L 14.00815486907959 13.78431224822998 L 14.89051532745361 13.78431224822998 C 14.89051532745361 14.27162265777588 14.49546527862549 14.66666221618652 14.00815486907959 14.66666221618652 Z M 14.00815486907959 13.78431224822998 L 13.64051532745361 13.78431224822998 C 13.64051532745361 13.58159255981445 13.80543518066406 13.41666221618652 14.00815486907959 13.41666221618652 L 14.00815486907959 13.78431224822998 Z" stroke="none" fill="#fff"/>
        </g>
        <g id="Rectangle" transform="translate(5.474 14.667)" fill="none" stroke="#fff" stroke-miterlimit="10" stroke-width="1.25">
          <rect width="3.942" height="2.222" rx="0.882" stroke="none"/>
          <rect x="0.625" y="0.625" width="2.692" height="0.972" rx="0.257" fill="none"/>
        </g>
        <g id="Rectangle-2" data-name="Rectangle" transform="translate(1.533 2.222)" fill="none" stroke="#fff" stroke-miterlimit="10" stroke-width="1.25">
          <rect width="11.825" height="10.222" rx="0.882" stroke="none"/>
          <rect x="0.625" y="0.625" width="10.575" height="8.972" rx="0.257" fill="none"/>
        </g>
        <g id="Oval" transform="translate(5.474 4.444)" fill="none" stroke="#fff" stroke-miterlimit="10" stroke-width="1.25">
          <ellipse cx="2.19" cy="2.222" rx="2.19" ry="2.222" stroke="none"/>
          <ellipse cx="2.19" cy="2.222" rx="1.565" ry="1.597" fill="none"/>
        </g>
        <g id="Rectangle-3" data-name="Rectangle" transform="translate(3.723 8.889)" fill="none" stroke="#fff" stroke-miterlimit="10" stroke-width="1.25">
          <path d="M2.647,0H5.065A2.647,2.647,0,0,1,7.712,2.647v.908a0,0,0,0,1,0,0H0a0,0,0,0,1,0,0V2.647A2.647,2.647,0,0,1,2.647,0Z" stroke="none"/>
          <path d="M2.386.625H5.326A1.761,1.761,0,0,1,7.087,2.386v0a.544.544,0,0,1-.544.544H1.169a.544.544,0,0,1-.544-.544v0A1.761,1.761,0,0,1,2.386.625Z" fill="none"/>
        </g>
      </g>
    </g>
  </g>
</svg>
