<?xml version="1.0" encoding="UTF-8"?>
<svg id="b" data-name="logo-coj-ja" xmlns="http://www.w3.org/2000/svg" width="484.45282" height="132.02016" viewBox="0 0 484.45282 132.02016">
  <g id="c" data-name="g-logo-coj-ja">
    <g>
      <g>
        <rect x=".45282" y="91.27016" width="484" height="40.75" fill="#fff" opacity=".98"/>
        <g>
          <path d="M34.88685,106.6935c0-.74121-.03809-1.40576-.09521-2.03271,.60791,.07568,1.23486,.09473,2.10889,.09473h9.19434c.89307,0,1.48193-.01904,2.05176-.09473-.07568,.72168-.09473,1.27246-.09473,1.9375v12.27246c0,.98779,.03809,1.61475,.11377,2.29834h-2.29883v-1.13965h-8.8335v1.13965h-2.26074c.07617-.646,.11426-1.40576,.11426-2.29834v-12.17725Zm2.14648,4.4834h8.8335v-4.40771h-8.8335v4.40771Zm0,6.85791h8.8335v-4.86328h-8.8335v4.86328Z" fill="#1d868c"/>
          <path d="M55.95717,109.02993c-.83594,0-1.48145,.03809-2.26074,.11426v-2.31787c.74121,.09521,1.36816,.13281,2.26074,.13281h4.88232v-1.34863c0-.74072-.03809-1.21582-.11377-1.7666h2.37451c-.09521,.53174-.13281,1.04492-.13281,1.74756v1.36768h5.14795c.9502,0,1.65283-.0376,2.29883-.13281v2.31787c-.83594-.07617-1.40576-.11426-2.29883-.11426h-4.06543c.89307,1.61475,1.78564,2.86865,2.84961,3.98926,1.29199,1.34912,2.64062,2.39404,4.1416,3.19189-.58887,.70264-.91211,1.21582-1.29199,2.0708-1.21582-.83594-2.03271-1.50098-3.19141-2.64062v2.16553c-.58887-.07617-1.12109-.11426-1.8999-.11426h-1.69043v1.29199c0,.89307,.0376,1.69092,.13281,2.35547h-2.39355c.09473-.70264,.13281-1.4624,.13281-2.35547v-1.29199h-1.50049c-.7793,0-1.33008,.03809-1.8999,.11426v-2.14697c-1.08301,1.14014-1.88086,1.82373-3.07764,2.65967-.37988-.85449-.66504-1.2915-1.29199-1.99463,2.84961-1.7666,5.14844-4.3125,6.61133-7.29492h-3.72363Zm4.88232,3.62842c0-.58887,.05713-1.34863,.15186-2.12744-1.00684,2.05176-1.91846,3.38135-3.45752,5.03418,.43701,.05713,.81689,.07617,1.69092,.07617h1.61475v-2.98291Zm3.9707,2.98291c.87354,0,1.21582-.01904,1.67139-.07617-1.48145-1.48193-2.31738-2.64062-3.68555-5.03418,.11426,.77881,.17139,1.53857,.17139,2.1084v3.00195h1.84277Z" fill="#1d868c"/>
          <path d="M82.48109,115.37514c-1.08301,2.45068-2.29883,3.57129-3.85645,3.57129-2.16602,0-3.72363-2.20361-3.72363-5.26221,0-2.08984,.74072-4.04639,2.08984-5.52832,1.5957-1.74756,3.8374-2.65918,6.53467-2.65918,4.55957,0,7.52295,2.77344,7.52295,7.04785,0,3.28662-1.70947,5.9082-4.61621,7.08594-.91162,.37988-1.65283,.56982-2.98242,.79785-.32324-1.00684-.55127-1.4248-1.15869-2.22266,1.74756-.22803,2.88721-.53223,3.78027-1.04492,1.65283-.91162,2.64062-2.7168,2.64062-4.74951,0-1.82373-.81689-3.30518-2.33691-4.21729-.58887-.3418-1.08252-.49365-1.91846-.56982-.36084,2.98242-1.02588,5.604-1.97559,7.75098Zm-2.79297-6.80127c-1.5957,1.14014-2.5835,3.09668-2.5835,5.12939,0,1.55762,.66504,2.79248,1.50098,2.79248,.62695,0,1.27246-.79785,1.95654-2.43164,.72168-1.70947,1.34863-4.27441,1.57666-6.4209-.98779,.11377-1.67188,.37988-2.45068,.93066Z" fill="#1d868c"/>
          <path d="M99.35365,119.17446c0,.94971,.01904,1.55762,.09473,2.22266h-2.2417c.07617-.70264,.11426-1.31055,.11426-2.27979v-5.49023c0-.93066,0-1.36768,.0376-2.12744-.47461,.87402-.75977,1.27295-1.51953,2.20361-.26611-.75977-.62695-1.55762-1.04492-2.20361,1.36768-1.48193,2.35547-3.00146,3.13477-4.86328,.43652-1.02588,.79785-2.2417,.91162-3.00146l2.16553,.68359c-.24658,.60791-.26562,.66504-.41748,1.14014-.09521,.30371-.45605,1.25391-.60791,1.5957q-.43701,1.00684-.62695,1.46289v10.65723Zm3.34326-7.00977c-1.12061,0-1.69092,.01904-2.33643,.11377v-2.12744c.66455,.07568,1.27246,.11377,2.29834,.11377h7.75098c1.02588,0,1.63379-.03809,2.33691-.11377v2.12744c-.70312-.07568-1.34912-.11377-2.33691-.11377h-4.16016c-.91211,2.94434-1.27295,3.93213-2.18506,6.13574q3.91357-.41797,5.35742-.62695c-.66504-1.32959-1.08301-2.07031-1.9375-3.41943l1.84229-.70264c1.53906,2.33643,2.31787,3.78027,3.57178,6.68701l-1.91895,.91162c-.37988-.93066-.49365-1.21582-.75977-1.80469-2.39355,.45605-3.32471,.60791-7.39014,1.08301-.30371,.03809-.60791,.07617-.91162,.11377-.32275,.05713-.53174,.07617-.60791,.09521-.37988,.03809-.43701,.03809-.68408,.13281l-.45557-2.22266c.28467,.01904,.32275,.01904,.39893,.01904,.28467,0,.64551-.01904,1.23486-.05713,.81689-1.88037,1.40576-3.51416,2.26025-6.34473h-1.36768Zm-1.02588-7.08594c.66504,.07568,1.27295,.11377,2.29883,.11377h5.26221c1.02588,0,1.63379-.03809,2.33643-.11377v2.12744c-.70264-.07568-1.34863-.11377-2.31738-.11377h-5.26221c-1.12109,0-1.67188,.01904-2.31787,.11377v-2.12744Z" fill="#1d868c"/>
          <path d="M118.86635,114.57729c-.05664,2.50732-.26562,3.93213-.81689,5.79395l-1.61475-.77881c.51318-1.5957,.70312-2.81152,.7793-5.22412l1.65234,.20898Zm-2.33643-2.73584c.28467,.01904,.45605,.03809,.77881,.03809h.70312q.55078-.75977,.87354-1.27295c-.68359-.98779-1.4248-1.86133-2.4126-2.86816l.91211-1.61475c.36084,.36084,.47461,.49365,.70264,.74072,.72217-1.19678,1.23486-2.33691,1.48193-3.26758l1.84277,.74072c-.20898,.37988-.32324,.60791-.70312,1.31104-.66455,1.21582-.93066,1.69092-1.48145,2.50732,.28467,.34229,.39893,.49414,.68359,.87402,.9502-1.53857,1.46289-2.48877,1.80469-3.38135l1.50098,.83594v-.70312c.55078,.07617,1.17773,.11426,2.01367,.11426h1.99463v-.55127c0-.60791-.01904-.98779-.09473-1.48145h2.16553c-.07617,.49365-.09521,.85449-.09521,1.50049v.53223h2.62158c.83594,0,1.4248-.03809,1.99512-.11426v2.01367c-.58936-.05664-1.17822-.09473-1.82373-.09473h-3.72363c-.41797,.98779-.89307,1.9375-1.32959,2.64062,1.23438-.05713,2.5835-.1709,3.51416-.26611-.3418-.45605-.55078-.70312-1.15869-1.32959l1.51953-.9502c1.27295,1.36768,2.16602,2.52686,3.21094,4.17969l-1.63379,1.12061c-.38037-.72168-.51318-.96875-.81689-1.44385-2.03271,.24707-2.26074,.28516-6.36426,.55127-.646,.0376-.94971,.07568-1.38672,.11377l-.22803-1.93799c.37988,.03809,.53174,.03809,.85498,.03809h.28467c.60791-.93066,1.06396-1.78564,1.44385-2.71631h-1.13965c-.77881,0-1.27295,.01904-1.82373,.09473v-.85498c-.11426,.17139-.13281,.20898-.26611,.43701-.93066,1.53906-2.14648,3.36279-2.94434,4.42627,.5127-.01855,1.17773-.07568,1.99463-.15186-.18994-.5127-.3042-.74072-.60791-1.34863l1.27295-.62695c.66455,1.17773,.94971,1.9375,1.4624,3.6665l-1.4624,.62695q-.09521-.39893-.18994-.79785c-.39893,.05664-.49414,.07568-1.17822,.15186v6.06006c0,.91211,.03809,1.4248,.11426,1.99463h-2.08984c.07617-.58887,.11426-1.12061,.11426-1.99463v-5.87012c-1.61523,.13281-2.50781,.20898-2.65967,.24707l-.24707-1.91895Zm6.78174,2.39355c.3042,1.19727,.4751,2.12793,.62695,3.72363l-1.55762,.49414c-.07617-1.38672-.26611-2.73584-.53174-3.7998l1.4624-.41797Zm4.10352-1.44336c-.03809,.32275-.05713,.49365-.07568,1.40576-.01904,1.88037-.28516,3.17236-.89307,4.3501-.55078,1.10205-1.17773,1.7666-2.65967,2.83057-.41797-.70264-.77881-1.10156-1.50098-1.65283,.83594-.45557,1.10205-.62695,1.53906-1.02588,1.12061-1.02588,1.57666-2.43164,1.57666-4.78711,0-.4751-.01904-.74072-.07617-1.12061h2.08984Zm3.41943-.05713c-.05664,.45605-.07568,.98779-.07568,1.74756v4.25537c0,.37988,.07568,.43701,.66455,.43701,.34229,0,.49414-.05713,.58887-.20898,.1333-.20898,.22803-1.10156,.22803-2.01367v-1.17773c.57031,.37988,1.06396,.58887,1.82373,.77881-.01904,1.74756-.18994,3.11572-.45557,3.62842-.36133,.66504-.96924,.87402-2.45068,.87402-1.88086,0-2.35596-.32324-2.35596-1.53906v-4.95801c0-.93115-.01904-1.36768-.07568-1.82373h2.1084Z" fill="#1d868c"/>
          <path d="M141.40053,107.54799c-1.04492,0-1.70947,.03809-2.45068,.11426v-2.2417c.66504,.07617,1.31104,.11377,2.46973,.11377h10.2207c1.12061,0,1.72852-.0376,2.45068-.11377v2.2417c-.7793-.07617-1.40625-.11426-2.43164-.11426h-4.17969v10.16357h5.09131c1.10205,0,1.82373-.03809,2.5835-.13281v2.29883c-.70264-.09521-1.55762-.1333-2.5835-.1333h-12.12012c-.98779,0-1.78564,.03809-2.5835,.1333v-2.29883c.77881,.09473,1.4624,.13281,2.62158,.13281h4.74902v-10.16357h-3.8374Z" fill="#1d868c"/>
          <path d="M163.70619,105.15444c0-.39893-.03809-.77881-.09473-1.12061h2.22266c-.05713,.3418-.09521,.72168-.09521,1.12061v.62695h3.79932v-.62695c0-.37988-.01904-.74072-.09473-1.12061h2.22266c-.07617,.37988-.09521,.70264-.09521,1.12061v.62695h2.5459c.98779,0,1.61475-.03809,2.20361-.11377v2.1084c-.58887-.07568-1.17773-.09473-2.20361-.09473h-2.5459v.3418c0,.43701,.01904,.68408,.05713,1.02588h-2.14648c.0376-.37988,.05664-.60791,.05664-1.06396v-.30371h-3.79932v.30371c0,.4751,.01904,.74121,.05713,1.06396h-2.16602c.05713-.3418,.07617-.646,.07617-1.02588v-.3418h-2.31738c-1.04492,0-1.61523,.01904-2.2041,.09473v-2.1084c.62695,.07568,1.25391,.11377,2.2041,.11377h2.31738v-.62695Zm-2.16553,9.95459c-.91211,0-1.5957,.03809-2.20361,.11426v-2.12793c.60791,.07617,1.27246,.11426,2.22266,.11426h12.51904c.94971,0,1.5957-.03809,2.18457-.11426v2.12793c-.56982-.07617-1.2915-.11426-2.20361-.11426h-7.04785c-.58887,1.12109-1.23486,2.12793-2.20361,3.45752,2.62158-.07617,4.38818-.18994,6.47803-.43701-.646-.68359-.96924-1.00684-1.8999-1.86182l1.69092-.96875c2.1084,1.88086,3.03955,2.84961,4.76807,4.9585l-1.86182,1.21582c-.62695-.87402-.87354-1.19678-1.27246-1.69092-3.51465,.4751-6.13623,.70312-10.29688,.87402-1.02539,.05713-1.72852,.11377-2.26025,.18994l-.39893-2.20361c.36084,.01904,.81689,.03809,1.12061,.03809,.11377,0,.41797,0,.91211-.01904q.13281,0,.62646-.01904c1.06396-1.50098,1.55811-2.29883,2.14697-3.53369h-3.02051Zm12.76611-3.3623c-.56982-.05713-1.25391-.09521-2.08984-.09521h-8.90967c-.89307,0-1.5957,.03809-2.14648,.09521v-2.12793c.53174,.07617,1.21582,.11426,2.18457,.11426h8.85254c.93115,0,1.61475-.03809,2.10889-.11426v2.12793Z" fill="#1d868c"/>
          <path d="M186.54408,112.58266c0,1.25342-1.00684,2.26025-2.26025,2.26025-1.25391,0-2.26074-1.00684-2.26074-2.26025,0-1.25391,1.00684-2.26074,2.26074-2.26074,1.25342,0,2.26025,1.00684,2.26025,2.26074Z" fill="#1d868c"/>
          <path d="M206.15101,108.66909c-.49414,1.7666-.79785,2.54541-1.48193,3.81836-.646,1.19678-1.34863,2.18457-2.2417,3.21045,2.08984,1.63379,4.36963,2.65967,7.42822,3.34375-.62695,.74072-.89307,1.19678-1.31104,2.22266-3.22949-1.06396-5.54736-2.29883-7.65576-4.10352-1.08301,.91211-2.375,1.7666-3.72363,2.46973-1.15869,.58887-2.2417,1.02588-4.04639,1.63379-.3418-.81689-.66504-1.34912-1.21582-2.03271,3.40039-.93115,5.50928-1.91895,7.46582-3.53369-.91162-1.00684-1.5957-1.9375-2.2417-3.03955-.72168-1.23486-1.06348-2.05176-1.70947-3.98926h-.89307c-.89258,0-1.63379,.03809-2.31738,.11377v-2.14648c.72168,.09473,1.36768,.13281,2.37451,.13281h5.05322v-1.34863c0-.56982-.03809-1.02588-.13281-1.46289h2.4126c-.09521,.43701-.1333,.89307-.1333,1.44385v1.36768h5.30029c1.02588,0,1.69092-.03809,2.39355-.13281v2.14648c-.68359-.07568-1.32959-.11377-2.31738-.11377h-1.00684Zm-8.54883,0c.4751,1.44385,.77881,2.12744,1.44385,3.24854,.58887,.94971,1.10156,1.61475,1.82373,2.37451,.66504-.74072,1.21582-1.50049,1.72852-2.39355,.56982-1.02588,.85498-1.69092,1.31104-3.22949h-6.30713Z" fill="#1d868c"/>
          <path d="M216.16566,113.70327c0-.66504,0-.85498,.03809-2.12744-.43701,.68359-1.21582,1.67139-1.95654,2.46924-.37988-1.12061-.43701-1.21582-1.00684-2.2417,1.21582-1.23438,1.84277-2.05127,2.65967-3.38135,1.00684-1.67188,1.70947-3.41943,1.91846-4.71143l2.22266,.646c-.1709,.37988-.24707,.58887-.41797,1.04492-.43701,1.21582-.5127,1.38672-1.36768,3.30566v10.20117c0,.7793,.03809,1.63379,.11377,2.43164h-2.33643c.09521-.83545,.13281-1.55762,.13281-2.46924v-5.16748Zm7.52295,4.57861c0,.5127,.34229,.62646,1.86182,.62646,1.70996,0,2.39355-.11377,2.64062-.41797,.32275-.43652,.43701-1.17773,.53174-3.47607,.74121,.36084,1.38721,.58887,2.05176,.74072-.15186,2.35547-.41797,3.60938-.87354,4.1792-.58936,.72217-1.63379,.93115-4.71143,.93115s-3.64746-.32324-3.64746-2.05176v-12.51904c0-.9502-.03809-1.729-.11426-2.27979h2.375c-.07617,.56982-.11426,1.29199-.11426,2.27979v4.23633c2.18457-1.15918,4.1416-2.69775,5.18652-4.08447l1.65234,1.67188c-.15186,.11377-.22754,.18994-.41748,.3418-2.0708,1.86182-3.85645,3.09668-6.42139,4.44531v5.37646Z" fill="#1d868c"/>
          <path d="M236.15394,115.45082c1.74756,1.33008,2.81152,2.375,4.27441,4.17969l-1.76709,1.65283c-1.38672-1.88086-2.46924-3.02051-4.12207-4.33154l1.61475-1.50098Z" fill="#1d868c"/>
          <path d="M249.37758,105.11635c.60791,.07617,.98779,.09521,1.86182,.09521,1.70996,0,4.16064-.09521,5.64209-.20898,.91211-.07617,1.38721-.15186,1.78613-.30371l1.23438,1.57666c-.39893,.28467-.49365,.36084-1.10156,.93066-1.36768,1.25391-3.51465,2.96387-5.22412,4.1416,.94971-.1333,2.31738-.26611,4.61621-.45605,1.19678-.09521,2.0708-.15186,2.50781-.18994,.68359-.07617,1.17773-.11426,1.34863-.13281,.30371-.01904,.36084-.01904,.62695-.07617l.13281,2.22266h-.56982c-2.16553,0-3.87549,.30371-5.28125,.93066-1.53857,.70312-2.5835,1.86182-2.5835,2.8877,0,1.23486,1.36768,1.91895,3.81836,1.91895,.72168,0,1.25391-.03809,1.80469-.1709l.09473,2.4126c-.2085-.01904-.43652-.01904-.70264-.01904-.13281,0-.43701,0-.96875,.01904h-.24707c-1.15869,0-2.54541-.20898-3.53369-.53223-1.63379-.5127-2.67822-1.82373-2.67822-3.32422,0-.89307,.36084-1.74805,1.02588-2.46973,.53174-.56982,1.00684-.91211,2.03271-1.44385-.81689,.15186-1.4248,.24707-2.33691,.36084-.85498,.11426-1.55762,.18994-2.08984,.26611-.75977,.09473-1.78564,.22803-3.05859,.41797-.37988,.05664-.5127,.09473-.87354,.18994l-.22803-2.31787c.13281,.01904,.24707,.01904,.30371,.01904,.38037,0,1.17822-.05713,1.63379-.11377,.09521-.01904,.34229-.03809,.72217-.09521,.45605-.03809,.646-.07568,1.08252-.15186,1.67188-1.00684,4.40771-3.21045,5.83252-4.67334-1.46289,.20898-2.14697,.26611-5.30029,.41797-.49414,.01904-.81689,.05713-1.21582,.11377l-.11426-2.2417Z" fill="#1d868c"/>
          <path d="M274.60902,115.37514c-1.08301,2.45068-2.29883,3.57129-3.85645,3.57129-2.16602,0-3.72363-2.20361-3.72363-5.26221,0-2.08984,.74072-4.04639,2.08984-5.52832,1.5957-1.74756,3.8374-2.65918,6.53467-2.65918,4.55957,0,7.52295,2.77344,7.52295,7.04785,0,3.28662-1.70947,5.9082-4.61621,7.08594-.91162,.37988-1.65283,.56982-2.98242,.79785-.32324-1.00684-.55127-1.4248-1.15869-2.22266,1.74756-.22803,2.88721-.53223,3.78027-1.04492,1.65283-.91162,2.64062-2.7168,2.64062-4.74951,0-1.82373-.81689-3.30518-2.33691-4.21729-.58887-.3418-1.08252-.49365-1.91846-.56982-.36084,2.98242-1.02588,5.604-1.97559,7.75098Zm-2.79297-6.80127c-1.5957,1.14014-2.5835,3.09668-2.5835,5.12939,0,1.55762,.66504,2.79248,1.50098,2.79248,.62695,0,1.27246-.79785,1.95654-2.43164,.72168-1.70947,1.34863-4.27441,1.57666-6.4209-.98779,.11377-1.67188,.37988-2.45068,.93066Z" fill="#1d868c"/>
          <path d="M298.15004,117.16079c1.32959,1.32959,3.45752,2.05176,6.7251,2.26074-.43701,.72168-.70312,1.29199-.91211,2.01367-4.10352-.58887-6.5542-1.82373-8.05469-4.02734-1.40576,2.22266-3.76172,3.49561-7.56104,4.02734-.24707-.74072-.49365-1.29199-.91162-1.8999,2.96338-.18994,4.93896-.93066,6.26904-2.37451h-4.16064c-.79785,0-1.4248,.03809-2.03271,.11377v-1.99463c.60791,.07617,1.19678,.09521,2.03271,.09521h5.16748c.13281-.43701,.1709-.68408,.1709-.93115,0-.01855,0-.07568-.01904-.15186l2.20361,.07617c-.01904,.07568-.01904,.09473-.03809,.18994-.05664,.26611-.11377,.5127-.20898,.81689h5.68018c.9502,0,1.4248-.01904,2.03271-.09521v1.99463c-.60791-.07568-1.21582-.11377-2.03271-.11377h-4.3501Zm-7.23828-2.4126h-2.07031c.05664-.41797,.07568-.85498,.07568-1.48193v-6.51611c0-.60791-.01904-1.04443-.07568-1.48145,.56982,.05664,1.08252,.07568,1.97559,.07568h3.09668c.37988-.58887,.56982-1.00684,.89258-1.86133l2.22266,.28467c-.37988,.74072-.55078,1.04492-.87354,1.57666h5.26221c.81689,0,1.2915-.01904,1.88037-.07568-.05664,.41797-.07568,.75977-.07568,1.4248v6.61084c0,.58887,.01904,1.02588,.07568,1.44385h-2.07031v-1.80469c-.39941,.43701-.66504,.85498-.9502,1.46289-1.51953-.68408-2.33643-1.29199-3.5332-2.62158q.01904,.15186,.0376,.37988c0,.13281,.01904,.3418,.01904,.47461v.41797c0,.53223,0,.60791,.05713,.89307h-1.86182c.05713-.20898,.05713-.36084,.05713-.91211v-.37988c.03809-.43701,.05713-.72168,.05713-.85498-1.04492,1.31104-1.74805,1.88086-3.21045,2.64062-.34229-.60791-.51318-.83545-.98828-1.36768v1.67188Zm1.8999-3.53369c-.79785,0-1.00684,.01904-1.50098,.07617v-1.7666c.36133,.07568,.60791,.09473,1.46289,.09473-.32275-.646-.56982-1.00684-1.13965-1.70947l1.48193-.66504c.49365,.56982,.75977,.94971,1.17773,1.74756l-1.46289,.62695h2.20361v-1.06348c0-.36133-.03809-.76025-.09473-1.12109h1.95654c-.05713,.45605-.07617,.646-.07617,1.12109v1.06348h2.03271l-1.25391-.45605c.57031-.70264,.87402-1.21582,1.17822-1.91846l1.57666,.55078c-.55078,.91211-.77881,1.25391-1.25391,1.82373h.3042c.75977,0,1.02539-.01904,1.42432-.07568v1.74756c-.3418-.05713-.70264-.07617-1.40576-.07617h-1.25342c.85449,.76025,1.5957,1.15918,3.05859,1.65283v-5.81299h-10.31592v5.94629c1.27295-.53223,2.03271-1.02588,2.75488-1.78613h-.85498Z" fill="#1d868c"/>
          <path d="M309.589,108.59291c1.27295,.72217,2.05176,1.25391,3.41943,2.39404l-1.21582,1.74756c-1.38672-1.27295-1.9375-1.69092-3.41943-2.5835l1.21582-1.55811Zm3.32471,6.40234c-.58887,1.9375-1.14014,3.32422-2.01367,4.99609l-.60791,1.15869-1.82373-1.57666c.96875-1.08301,1.86182-2.94434,2.73535-5.7749l1.70996,1.19678Zm-2.50781-11.09473c1.33008,.87402,2.05176,1.44385,3.05859,2.45068l-1.2915,1.729c-.96924-1.15869-1.78613-1.86182-3.07764-2.65967l1.31055-1.52002Zm13.50732,8.89111c.68359,0,1.38672-.03809,2.01367-.11426v2.08984c-.58887-.05713-1.33008-.09521-1.99512-.09521h-2.77344c1.23486,1.57715,3.19141,2.90674,5.24316,3.62842-.49365,.70312-.60791,.9502-.94971,2.05176-2.22266-1.02588-4.04639-2.52637-5.24316-4.3501,.03809,.68359,.05713,1.00684,.05713,1.50049v1.93799c0,.79785,.0376,1.34863,.11377,1.88037h-2.16553c.07568-.56982,.09473-1.08252,.09473-1.91846v-1.8999c0-.43652,0-.45557,.05713-1.50049-1.12061,1.88037-2.5835,3.19141-4.80615,4.33105-.36133-.87354-.53223-1.12061-1.17773-1.82373,2.08936-.81689,3.8374-2.14648,4.97705-3.8374h-2.05176c-.72168,0-1.40576,.03809-2.01367,.11426v-2.10889c.58887,.07617,1.23486,.11426,2.01367,.11426h3.00146v-.51318c0-.5127-.01904-.87402-.07568-1.25391h2.1084c-.05713,.37988-.07568,.70312-.07568,1.25391v.51318h3.64746Zm-4.92041-6.42139c-.13281,1.40576-.39893,2.33691-.87402,3.13477-.70264,1.19678-1.78564,1.99463-3.57129,2.65967-.32324-.79785-.45605-1.00684-1.06396-1.70996,2.50781-.70264,3.38135-1.69092,3.60938-4.08447h-1.61475v1.97607h-1.97559c.05713-.38037,.07617-.79834,.07617-1.23486v-1.38721c0-.5127-.01904-.94971-.05713-1.31055q.1709,.01904,.5127,.03809c.15234,.01904,1.00684,.03809,1.44385,.03809h8.13086c1.08301,0,1.61475-.01904,2.10889-.07617-.03809,.39893-.05713,.77881-.05713,1.36768v1.00684c0,.49414,.01904,.83594,.07617,1.25391h-2.01367v-1.67188h-1.82373v2.75488c0,.36084,.1709,.43701,1.06348,.43701,1.10205,0,1.14014-.05713,1.15918-1.33008,.68359,.28516,.93066,.36084,1.7666,.49414-.09521,1.34863-.18994,1.78564-.53223,2.1084-.36084,.34229-1.06348,.4751-2.62158,.4751-2.05127,0-2.71631-.3042-2.71631-1.25391v-3.68555h-1.02588Z" fill="#1d868c"/>
          <path d="M333.24379,105.83852c-.09473,.70264-.15186,1.63379-.15186,2.8877,0,1.65234,.15186,3.93213,.36084,5.09131,.32275,1.97559,.93115,3.19141,1.53857,3.19141,.28516,0,.55127-.28516,.7793-.81689,.45557-1.02588,.79785-2.16602,1.00684-3.43848,.66455,.75977,.96875,1.04492,1.89941,1.72852-.98779,3.70459-2.08936,5.24316-3.7041,5.24316-1.27295,0-2.29883-.93066-3.05859-2.75439-.77881-1.8999-1.12109-4.6543-1.19678-9.9165-.01904-.66504-.01904-.79785-.07617-1.21582h2.60254Zm8.98584,.85498c2.39355,2.86865,3.72314,6.04102,4.27441,10.22021l-2.35596,.89307c-.11377-1.78564-.55078-3.76172-1.21582-5.49023-.646-1.729-1.55762-3.26758-2.69727-4.67334l1.99463-.94971Z" fill="#1d868c"/>
          <path d="M353.36488,105.64858c.39893-.74072,.55078-1.17773,.72168-1.97559l2.12793,.37988q-.26611,.53174-.53223,1.10156c-.09473,.1709-.13281,.28516-.26562,.49414h1.19678c.79785,0,1.4248-.01904,1.95654-.07617-.03809,.56982-.05713,1.00684-.05713,1.99463v4.12256c0,.96875,0,1.34863,.03809,1.80469-.43701-.01904-.85449-.03809-1.2915-.03809h-.98779v3.70459l.11377-.01904c.45605-1.19678,.68408-2.1084,.91162-3.49561l1.38721,.36133c-.34229,1.21582-.68408,2.29834-.93115,2.96338,.3042-.05713,.4751-.07617,.9502-.18994-.20898-.55078-.22803-.58887-.4751-1.06396l1.10156-.43701c.45605,.85498,.76025,1.55811,1.19727,2.81152l-1.27295,.55127c-.05713-.26611-.1333-.49414-.18994-.66504-.62695,.1709-1.34912,.3418-2.79248,.60791v.11377c.01855,.20898,.05664,.28516,.13281,.34229,.24707,.1709,1.02588,.22803,3.3623,.22803,1.61475,0,3.64746-.05713,4.42627-.11426,.89307-.07568,1.36816-.32275,1.53906-.77881,.13281-.30371,.18994-.75977,.22803-1.61475,.77881,.37988,1.25391,.55078,1.9375,.66504-.15186,1.36768-.26611,1.86182-.56982,2.37451-.62695,1.08301-1.34863,1.19678-7.86475,1.19678-4.33154,0-4.92041-.24707-4.92041-2.01367l-.01904-5.52832h-.5127c-.11426,2.20361-.22803,2.98291-.60791,4.16064-.49414,1.50049-.89307,2.22266-1.99463,3.55225-.41797-.68359-.76025-1.04492-1.50098-1.5957,1.06396-.91162,1.61475-1.82373,1.99463-3.24854,.24707-.98779,.3418-1.63379,.37988-2.86865-.68359,0-1.02588,.01904-1.51953,.03809,.03809-.53174,.05664-.94971,.05664-1.80469v-4.1416c0-.85449-.01855-1.34863-.05664-1.97559,.55078,.05713,.93066,.07617,1.89941,.07617h.70312Zm-.85498,3.13428h1.36768v-1.5957h-1.36768v1.5957Zm0,3.13477h1.36768v-1.63379h-1.36768v1.63379Zm2.8877-3.13477h1.44385v-1.5957h-1.44385v1.5957Zm0,3.13477h1.44385v-1.63379h-1.44385v1.63379Zm5.11035-.70312c-.81689,0-1.08301,.01904-1.57715,.07617v-1.84277c.45605,.05713,.79785,.07617,1.57715,.07617h1.67139v-1.74805h-1.38672c-.74072,0-.98779,.01904-1.44385,.07617v-1.82373c.41797,.05713,.74121,.07617,1.44385,.07617h1.38672v-.76025c0-.56982-.01904-.94971-.09473-1.40576h1.97559c-.05713,.45605-.07617,.79785-.07617,1.36816v.79785h1.50098c.62695,0,.96875-.01904,1.36768-.09521v1.84277c-.39893-.05713-.81689-.07617-1.38672-.07617h-1.48193v1.74805h1.729c.75977,0,1.17773-.01904,1.63379-.07617v1.86182c-.49414-.07617-.87402-.09521-1.63379-.09521h-1.31104c1.23486,1.82373,1.99512,2.58398,3.59082,3.64746-.45605,.4751-.72217,.89307-1.10205,1.65283-1.38672-1.23486-1.99463-1.99463-2.98242-3.6665,.03809,.60791,.05713,1.4248,.05713,1.99463v1.82373c0,.83594,.01855,1.31104,.09473,1.80518h-1.97559c.07568-.57031,.09473-.85498,.09473-1.76709v-1.70947c0-.41797,.01904-1.33008,.05713-1.93799-.66504,1.33008-1.23486,2.12793-2.1084,2.94482-.34229-.77881-.6084-1.19678-1.00732-1.61475,1.15918-.96875,1.82373-1.78564,2.60303-3.17285h-1.21582Z" fill="#1d868c"/>
          <path d="M384.9225,107.60512c1.14014,0,1.80518-.01904,2.45068-.09473q-.07568,.74072-.11377,2.86816c-.05713,2.60303-.24707,5.81348-.43701,7.06738-.24707,1.74756-.5127,2.4126-1.10156,2.83057-.49414,.36084-1.19727,.5127-2.26074,.5127-.87402,0-1.70996-.05713-2.90674-.20898-.11377-.96875-.24707-1.51953-.53174-2.29834,1.21582,.24658,2.31738,.37988,3.26758,.37988,.89258,0,1.17773-.34229,1.38672-1.61475,.24658-1.4248,.41797-4.36963,.43701-7.40918h-5.14844c-.32275,2.81152-.83594,4.73047-1.729,6.32617-1.10156,1.99463-2.83057,3.59033-5.47119,5.07227-.41748-.79785-.91162-1.40576-1.57666-1.97559,2.60254-1.14014,4.33154-2.65967,5.35742-4.73047,.58887-1.15869,.94971-2.62158,1.19678-4.69238h-3.30566c-.96875,0-1.70947,.03809-2.35547,.11426v-2.27979c.68359,.09473,1.32959,.13281,2.4126,.13281h3.38135c.03809-.75977,.03809-.94971,.03809-1.9375,0-.91211-.03809-1.46289-.11377-1.84277h2.52637q-.09473,.49365-.20898,3.78027h4.80615Z" fill="#1d868c"/>
          <path d="M392.82826,106.14223c.7793,.17139,1.99512,.24707,4.40771,.24707,.5127-1.13965,.68359-1.70947,.75977-2.35547l2.48877,.26562q-.11426,.19043-.76025,1.70996c-.09473,.20898-.13281,.26611-.1709,.3418q.15234-.01904,1.19678-.07568c2.2041-.1333,3.93262-.34229,4.97754-.646l.13281,2.16553q-.53174,.03809-1.50049,.15186c-1.38721,.17139-3.7998,.32324-5.71826,.38037-.55078,1.08252-1.08301,1.84277-1.74805,2.52637l.01904,.03809q.1333-.09521,.37988-.28516c.70312-.53174,1.70996-.85449,2.67871-.85449,1.48193,0,2.4126,.70264,2.7168,2.01367,1.46289-.53223,2.43164-.87402,2.90674-1.02588,1.02539-.36133,1.10156-.37988,1.40576-.56982l.89258,2.18457c-.53174,.07568-1.10156,.22803-2.1084,.5127-.26611,.07617-1.21582,.39893-2.84961,.96875v.20898q.01904,.49414,.01904,.76025v.75977c-.01904,.32275-.01904,.49365-.01904,.62695,0,.41797,.01904,.68359,.05664,1.00684l-2.20361,.05713c.07617-.34229,.11426-1.31104,.11426-2.2041v-.45557c-.93115,.43701-1.4248,.70264-1.82373,.98779-.66504,.49365-.98779,1.00684-.98779,1.55762,0,.98779,.91162,1.38672,3.21045,1.38672,2.2793,0,4.23633-.28467,5.58496-.79785l.18994,2.45068c-.32275,0-.41797,.01904-.87402,.07617-1.36768,.20898-3.19141,.3418-4.86328,.3418-2.01367,0-3.26709-.22803-4.23633-.79785-.87354-.49414-1.38672-1.40576-1.38672-2.45068,0-.77881,.22803-1.38672,.83594-2.10889,.85498-1.06348,1.93799-1.78564,4.08447-2.67822-.09521-.70312-.4751-1.02588-1.15869-1.02588-1.10205,0-2.43164,.66504-3.89453,1.95654-.79785,.66504-1.23486,1.14014-1.65283,1.729l-1.72852-1.70996c.49365-.37988,1.04443-.91162,1.70947-1.69092,.74121-.87354,1.8999-2.52637,2.27979-3.24854q.07617-.15186,.15186-.24658c-.07568,0-.32275,.01904-.32275,.01904-.3042,0-1.97607-.03809-2.39355-.03809q-.36133-.01904-.53223-.01904c-.05713,0-.1709,0-.30371,.01904l.0376-2.16602Z" fill="#1d868c"/>
          <path d="M417.54652,113.4186q-.68359,.28467-1.34863,.53174v5.50928c0,.96875-.24707,1.40576-.91211,1.63379-.41797,.13281-1.06348,.22754-1.70947,.22754-.26611,0-.4751,0-.96875-.0376-.09521-.83594-.17139-1.19678-.43701-1.99463,.58887,.07568,.96875,.11377,1.40576,.11377,.49365,0,.60791-.11377,.60791-.56982v-4.16064c-.55078,.18994-.58887,.20898-1.06396,.36133-.28516,.09473-.5127,.18994-.79785,.30371l-.41797-2.10889c.56982-.05664,.98779-.1709,2.27979-.55078v-3.41943h-.74072c-.49414,0-.91211,.01904-1.36816,.07617v-2.03271c.45605,.07568,.83594,.11377,1.40576,.11377h.70312v-1.55762c0-.89307-.01904-1.34912-.11426-1.93799h2.2417c-.09473,.58887-.11377,1.04492-.11377,1.91895v1.57666h.60791c.36084,0,.58887-.01904,.83594-.03809v-1.55762c0-.53174-.01904-.91162-.05713-1.31104,.4751,.05713,.94971,.07617,1.82373,.07617h7.90283c.91211,0,1.38672-.01904,1.86182-.07617-.03809,.38037-.05713,.66504-.05713,1.27295v.98779c0,.58887,.01904,.91211,.07617,1.29199h-2.01367v-1.65283h-1.61475v2.86865c0,.3418,.13281,.39893,.98779,.39893,1.25391,0,1.2915-.03809,1.34863-1.31104,.646,.24707,.91211,.32324,1.5957,.41797-.18994,2.33691-.55078,2.62158-3.22949,2.62158-1.13965,0-1.63379-.07568-2.0708-.28467-.05664,.28467-.07568,.60791-.07568,1.06396v.79785h3.30518c.7793,0,1.34912-.03809,1.93799-.11426v2.0708c-.66504-.07617-1.21582-.09521-1.8999-.09521h-2.29834c.53174,.70312,1.31055,1.48193,2.1084,2.08984,.77881,.60791,1.55811,1.04492,2.60254,1.48193-.39893,.58887-.60791,1.00684-1.00684,1.97559-2.03271-1.08301-3.40039-2.29883-4.78711-4.25537,0,.26611,.01904,.4751,.01904,.60791,.01904,.45605,.01904,.55078,.01904,1.04492v2.03271c0,.646,.03809,1.06396,.11377,1.57666h-2.20361c.07617-.56982,.11426-1.02588,.11426-1.61475v-2.14648c0-.41797,.01855-1.15918,.0376-1.48193-1.15869,1.78564-2.50732,3.03955-4.55908,4.23633-.43701-.81689-.68408-1.15869-1.23486-1.72852,1.91895-.87402,3.64746-2.26074,4.67334-3.81885h-1.5957c-.83594,0-1.36768,.01904-1.91895,.09521v-1.51953Zm.34229-.49414c.47461,.03809,.94971,.05713,1.67139,.05713h2.58398v-.49414c0-.66504-.03809-1.06396-.11426-1.50049h1.99463c-.20898-.20898-.26562-.43701-.26562-.89307v-3.68555h-1.04492c-.05713,1.10205-.09521,1.36768-.22803,1.91895-.45605,1.65234-1.61475,2.86816-3.6665,3.78027-.39893-.66504-.66504-1.00684-1.21582-1.53857,1.25391-.38037,2.10889-.93115,2.64062-1.65283,.4751-.62695,.66504-1.34912,.70264-2.50781h-1.4624v1.88086h-1.61475v1.02588c-.34229-.03809-.62695-.05713-1.04492-.05713h-.62695v2.79248c.62695-.22803,.83594-.30371,1.63379-.62695l.05713,1.50098Z" fill="#1d868c"/>
          <path d="M439.30189,111.95571c1.72852-.68408,2.56445-.87402,3.98926-.87402,3.24854,0,5.33838,1.67188,5.33838,4.27441,0,1.80469-.89307,3.24854-2.5835,4.19824-1.23486,.70312-2.84961,1.08301-4.59766,1.08301-1.5957,0-2.92529-.3042-3.68555-.87402-.72168-.53174-1.13965-1.32959-1.13965-2.18457,0-1.57666,1.36768-2.7168,3.26758-2.7168,1.32959,0,2.48877,.55127,3.28662,1.55811,.37988,.47461,.58887,.89258,.87354,1.70947,1.57715-.58887,2.26074-1.40576,2.26074-2.75439,0-1.48193-1.46289-2.45068-3.76123-2.45068-2.77344,0-5.54736,1.12061-7.82715,3.19141l-1.2915-2.05176c.66504-.32275,1.4248-.83594,2.67871-1.78564,1.7666-1.34863,4.23633-3.47656,5.68018-4.93896,.0376-.03809,.22754-.22803,.3418-.34229l-.01904-.01904c-.72168,.09521-1.9375,.1709-5.37598,.32324-.41797,.01904-.55127,.03809-.91211,.09473l-.09473-2.27979c.64551,.07617,1.19678,.11426,2.24121,.11426,1.61475,0,3.93262-.09521,5.77539-.22803,.66504-.05713,.87402-.09473,1.17773-.24707l1.17773,1.67188c-.32275,.1709-.45557,.28516-.98779,.77881-.94971,.87402-2.33643,2.10889-2.98242,2.65967-.3418,.28516-1.70996,1.31104-2.08984,1.55762q-.47461,.32324-.77881,.49414l.03809,.03809Zm.56982,4.72998c-.68408,0-1.12061,.34229-1.12061,.87402,0,.75977,.85449,1.19678,2.26025,1.19678,.36133,0,.45605,0,.98828-.07568-.34229-1.31104-1.06396-1.99512-2.12793-1.99512Z" fill="#1d868c"/>
        </g>
      </g>
      <g>
        <rect width="484.45282" height="75.82553" fill="#fff" opacity=".98"/>
        <g>
          <path d="M104.83037,28.87757l-.46808-1.6768-.744-1.56402-1.08153-1.34758-1.42771-.96924-1.64708-.52384-1.72717-.14328-1.62553,.13676-1.55656,.4826-1.35468,.90254-1.04187,1.24828-.72982,1.45867-.47073,1.55902-.27524,1.61137-.14931,1.62705-.05067,1.63712-.00038,1.49595,.00966,1.49836,.00067,1.49836,.03309,1.63432,.15245,1.62523,.29245,1.6059,.47255,1.56289,.72354,1.45944,1.05175,1.2398,1.3467,.9069,1.54885,.49528,1.62307,.1393,1.7371-.13812,1.65805-.51268,1.4428-.95774,1.07749-1.36046,.71998-1.5803,.46305-1.67138,1.88496-.00512,1.89001-.00122,1.88844,.00445-.3255,1.6948-.46699,1.66463-.64051,1.60533-.85041,1.50359-1.06499,1.35918-1.27345,1.16384-1.45403,.92755-1.58012,.69312-1.66961,.43965-1.7086,.25384-1.72767,.0688-1.67492-.06669-1.65639-.25281-1.61704-.43291-1.54001-.65631-1.42632-.87537-1.26372-1.09568-1.08776-1.27007-.88104-1.4227-.69302-1.52376-.52602-1.58729-.37671-1.631-.24383-1.65787-.14341-1.6705-.03464-1.67782-.00725-1.49595-.0019-1.49836,.00279-1.49836,.04826-1.67831,.13679-1.67067,.24209-1.65804,.36998-1.63559,.53697-1.58676,.68912-1.52611,.8937-1.41527,1.08235-1.27578,1.26661-1.09161,1.42096-.88182,1.54359-.64267,1.61192-.44507,1.65646-.23738,1.67241-.08388,1.72537,.08449,1.70585,.26187,1.66138,.46565,1.58213,.6886,1.44696,.93922,1.27509,1.16116,1.0714,1.35045,.87057,1.48803,.65885,1.5951,.48635,1.65639,.3284,1.68966-1.90181,.01256-1.90704-.00304-1.90794,.00018Z" fill="#1d868c"/>
          <path d="M137.24712,53.17338l-1.78225,.00126-1.78783-.00329-1.79021,.00671,.00271-2.29939-1.15864,1.37722-1.56084,.88559-1.75469,.39553-1.80582,.09977-1.73742-.10872-1.70438-.35225-1.60807-.6619-1.42333-.99473-1.15256-1.29889-.82107-1.53059-.53575-1.65422-.2769-1.71618-.08197-1.74121-.00623-1.58759,.00328-1.58763-.00173-1.59288,.00525-1.59025,.00062-1.59239,.00042-1.59419-.00134-1.59191-.00525-1.59564,.0024-1.59821-.00167-1.60142,1.82177,.0022,1.82189,.00305,1.82541-.00581-.00133,1.70498-.00088,1.70684,.00156,1.70402-.00493,1.70631-.00163,1.70823-.00043,1.7058,.00079,1.70979,.00554,1.71255-.00083,1.71255,.11606,1.74928,.47244,1.68597,1.02615,1.40237,1.54988,.78151,1.73529,.19789,1.74243-.22867,1.56289-.79445,1.12543-1.3418,.60789-1.64719,.16613-1.75392-.00061-1.70685-.00131-1.7125,.00332-1.70968,.00152-1.71197-.00433-1.7139,.00877-1.71146-.00602-1.71547,.00376-1.71823-.0016-1.71749,1.80125,.00337,1.80486-.00881,1.80834,.00101-.00211,1.70454-.00064,1.69896-.00477,1.70095,.00697,1.7-.00318,1.70161,.00366,1.70057-.00732,1.69643,.00143,1.70204,.00178,1.69923-.0037,1.70151,.00029,1.70343,.00648,1.701-.00552,1.70498,.00052,1.70773-.00006,1.70491Z" fill="#1d868c"/>
          <path d="M145.41486,17.94606l1.82165,.00411,1.82189-.00265,1.82176,.00156-.0019,1.61824,.00007,1.62023-.00124,1.61843,.00414,1.62032,.00142,1.61941-.00047,1.62095,.00076,1.61637-.0069,1.61641,.00089,1.62176,.00564,1.61908,.00298,1.62126-.00267,1.62308-.00007,1.62077-.00035,1.62457,.00312,1.62718-.00934,1.62718,.11358,1.73876,.61547,1.61028,1.42707,.9383,1.73283,.20343,.00214,1.60003-.011,1.60054,.00104,1.59949-1.59135-.04157-1.58444-.17137-1.55552-.34008-1.47434-.6005-1.27194-.94838-.94614-1.27195-.55876-1.48662-.27484-1.5625-.08729-1.59149,.00187-1.69803,.00592-1.69996-.00849-1.69808,.00422-1.70006-.00398-1.69911,.01156-1.70072-.00695-1.69969-.00165-1.69554-.00078-1.70115-.00317-1.69834,.01129-1.70062-.00401-1.70254,.00392-1.70012-.00079-1.7041-.00398-1.70684-.00292-1.70971Z" fill="#1d868c"/>
          <path d="M160.06982,27.64923l1.63367,.00516,1.63073-.00784,.00657-1.86734,.00217-1.87298-.00386-1.87117,1.80009,.00171,1.80488-.00539,1.8081-.00124-.00875,1.87307,.00441,1.87298,.00309,1.87108,1.79998,.00034,1.80486-.00013,1.80152,.00554,.00042,1.56011,.00439,1.56648,.00197,1.57044-1.80539-.00189-1.80486-.00371-1.80516,.00132,.00567,1.66619-.00924,1.6681-.00028,1.66998,.0053,1.66761,.00348,1.67151,.00125,1.6742-.01055,1.6742,.07605,1.59129,.43507,1.51929,1.23536,.93636,1.57671,.19171,2.0964-.00538-.00624,1.63614,.00883,1.6346-.00604,1.63444-1.25061-.0024-1.25083,.0081-1.7039-.07343-1.68745-.23103-1.62208-.52308-1.41008-.94352-1.0075-1.36347-.56798-1.60198-.25914-1.68224-.06877-1.70442,.00922-1.58773-.00783-1.58511-.0013-1.58724,.00047-1.58903,.00003-1.58677,.00984-1.59048-.00649-1.59304,.00126-1.59312-1.6338,.0032-1.63217-.00476-.00773-1.56234,.00888-1.56648-.00265-1.56642Z" fill="#1d868c"/>
          <path d="M200.91207,53.17599l-1.78476,.00175-1.78783-.00456-1.7839-.00004-.00322-2.29456-1.16379,1.37171-1.55553,.8927-1.75511,.39511-1.80595,.09689-1.73752-.10619-1.70463-.35182-1.60654-.66527-1.42627-.99056-1.14567-1.30441-.82849-1.52609-.53272-1.65535-.28117-1.71565-.07892-1.74156,.00218-1.58759-.00681-1.58763,.00725-1.59288-.00724-1.59025,.00412-1.59239-.00114-1.59419,.00106-1.59191-.00429-1.59564,.00148-1.59821-.00002-1.60104,1.82144-.00193,1.82189,.00384,1.82263,.00012-.00333,1.70201,.00425,1.70684,.00146,1.70402,.0014,1.70631-.00324,1.70823-.00542,1.7058,.00877,1.70979-.00483,1.71255-.00389,1.71255,.12222,1.74918,.4732,1.68543,1.02854,1.39849,1.54614,.78566,1.73519,.20488,1.74237-.23548,1.56436-.79246,1.12458-1.34327,.60214-1.64861,.17886-1.75282-.00734-1.70685,.00014-1.7125-.00205-1.70968,.00759-1.71197-.0067-1.7139-.00082-1.71146,.00849-1.71547-.00111-1.71823-.00608-1.72149,1.80506,.00325,1.80486,.00363,1.80416-.00288-.00098,1.70011,.00484,1.69896-.00757,1.70095,.00646,1.7,.00109,1.70161-.00752,1.70057,.00416,1.69643,.00143,1.70204-.00047,1.69923-.00035,1.70151,.0008,1.70343,.00351,1.701-.00786,1.70498,.00086,1.70773,.00209,1.70753Z" fill="#1d868c"/>
          <path d="M221.89525,34.03307l-.97318-1.08033-1.26831-.6981-1.43515-.21847-1.6375,.28089-1.41767,.85693-.98097,1.34-.51118,1.58257-.14729,1.66135-.00453,1.70685-.00219,1.7125,.00346,1.70968,.00022,1.71197,.00366,1.7139-.00126,1.71146,.00181,1.71547-.0014,1.71823-.00064,1.71984-1.82047-.00237-1.82189,.00396-1.8188-.00651-.00346-1.69754,.00396-1.69896-.00852-1.70095,.00418-1.7-.00169-1.70161,.00455-1.70057-.00058-1.69643-.00191-1.70204,.00259-1.69923-.00224-1.70151,.00288-1.70343,.00148-1.701-.00865-1.70498,.00485-1.70773,.00019-1.70698,1.78425,.00436,1.78785-.00344,1.78838-.00209-.00279,2.29823,1.08836-1.24654,1.39922-.87954,1.57927-.49113,1.65346-.14369,1.6818,.13205,1.63135,.42225,1.49084,.78269,1.26793,1.10667,1.02588,1.33901-1.4435,1.02295-1.44871,1.01961-1.44794,1.02176Z" fill="#1d868c"/>
          <path d="M249.15847,49.29522l-1.02626,1.45362-1.32111,1.18517-1.55348,.85389-1.70059,.51656-1.75813,.25896-1.78041,.07167-1.6537-.08304-1.62987-.27947-1.57618-.4993-1.48093-.73286-1.3311-.97975-1.13253-1.20271-.91178-1.3775-.66978-1.50981-.45469-1.58806-.26148-1.63241-.07887-1.65271-.00113-1.73585,.00231-1.73585,.05373-1.60289,.20245-1.58975,.35625-1.56145,.56611-1.49757,.78909-1.3922,1.03002-1.22226,1.2497-.99511,1.41457-.74154,1.52324-.48637,1.5779-.26261,1.5998-.08796,1.625,.08951,1.60289,.26561,1.5427,.5092,1.42799,.77144,1.24855,1.03581,1.00392,1.27498,.76248,1.43269,.52408,1.53557,.33511,1.58967,.18236,1.6151,.06125,1.6265-.00619,1.40398-.00055,1.39996-1.68657,.00716-1.6955-.00438-1.6927,.00467-1.69497-.00322-1.69688-.00439-1.69446,.00395-1.69843,.00258-1.70117,.00192-1.70106-.00245,.00503,.10029,.09651,1.70597,.35998,1.66673,.72303,1.54108,1.16145,1.23645,1.52818,.73517,1.69065,.20804,1.5309-.09538,1.48299-.38472,1.28326-.82767,.96039-1.18748,1.36146,.94797,1.36255,.953,1.36262,.95383Zm-14.85747-11.74304l1.62191-.00145,1.62429,.00552,1.62198-.00582,1.62578,.00302,1.6284-.00036,1.62861,.00111-.20861-1.67145-.52008-1.5947-.99603-1.3386-1.46592-.78817-1.65969-.21953-1.65354,.23312-1.44736,.81716-1.00868,1.32556-.55458,1.57677-.23646,1.65781Z" fill="#1d868c"/>
          <path d="M290.7127,41.99535l-.06473,1.64429-.22758,1.62816-.39883,1.5966-.61362,1.52446-.84712,1.4073-1.07843,1.23828-1.30244,.99888-1.45826,.75052-1.5648,.50111-1.62203,.26297-1.64351,.08622-1.64412-.08141-1.61906-.28353-1.56237-.50997-1.46096-.75072-1.30061-1.00335-1.08899-1.22954-.8579-1.40014-.62419-1.51864-.41308-1.59012-.23686-1.62703-.06377-1.64433-.00694-1.60816,.00672-1.60816,.0698-1.64522,.21328-1.63154,.41313-1.5921,.61579-1.52353,.85639-1.40286,1.09921-1.21946,1.30691-.99229,1.46298-.74415,1.5708-.48069,1.62054-.27131,1.6433-.08943,1.64173,.08115,1.61808,.27639,1.56838,.48442,1.45968,.74869,1.30548,.991,1.09142,1.22388,.84479,1.40505,.61373,1.51973,.39052,1.5937,.2229,1.62621,.07022,1.64238,.00083,1.60816-.00642,1.60816Zm-5.40754-.15312l-.00393-1.48061,.00574-1.48061-.09951-1.66915-.338-1.63559-.68851-1.51661-1.13844-1.20698-1.49729-.71282-1.65386-.20114-1.66077,.20834-1.51424,.6963-1.14343,1.21194-.69706,1.51768-.34896,1.63348-.10144,1.67456,.0049,1.48061,.00271,1.48061,.08961,1.70171,.33054,1.66712,.68032,1.55419,1.1413,1.24845,1.53106,.71469,1.68547,.21299,1.6642-.23082,1.49856-.75072,1.11721-1.25116,.67934-1.53725,.35576-1.64514,.09873-1.68406Z" fill="#1d868c"/>
          <path d="M297.96309,27.64831l-.00045-1.58173,.06847-1.70449,.26004-1.6838,.56532-1.60645,1.00641-1.36674,1.41608-.93424,1.61698-.52363,1.68579-.23259,1.70405-.07238,1.58257,.00677,.00572,1.63188-.00997,1.6346,.00913,1.63804-1.17909,.0036-1.57564,.19204-1.23443,.93506-.43109,1.51308-.07504,1.59022-.00268,.56276,1.4964-.00595,1.49839-.00166,1.49468,.01003,.0091,1.56042-.0022,1.56648-.00657,1.56326-1.4926,.00604-1.49839-.00477-1.49461,.00549-.00488,1.5977,.00645,1.60034-.00398,1.60186,.00067,1.59733-.00018,1.59737-.00744,1.60266,.01014,1.60001-.00629,1.60216,.00406,1.60397,.00116,1.60168-.00625,1.60543,.00362,1.60802,.00178,1.61097-1.80461-.00322-1.80488-.00254-1.80309,.00078-.00278-1.59921,.0033-1.60034-.0058-1.60186,.0015-1.59733-.00418-1.59737,.00774-1.60266-.00028-1.60001-.00537-1.60216,.00925-1.60397-.00468-1.60168-.00476-1.60543,.00905-1.60802-.0037-1.60912-1.63481,.00516-1.63555-.00216,.00704-1.56587-.00086-1.56648-.00875-1.57106,1.63812,.00664,1.63289-.00292Z" fill="#1d868c"/>
          <path d="M328.95386,45.92972l1.01752,1.08626,1.2453,.81697,1.40823,.48736,1.48458,.16011,1.59331-.14201,1.51461-.50003,1.25777-.97551,.85908-1.3436,.51991-1.51198,.3059-1.5712,.13627-1.59363,.0408-1.60394-.00319-1.63656,.00911-1.63564,.00088-1.63719-.00995-1.63257,.00446-1.63261,.00297-1.63801,.00356-1.63531-.00198-1.6375-.00874-1.63935,.00149-1.63701,.008-1.64085-.01024-1.64349,.00844-1.63995,1.47285-.00444,1.48025,.00773,1.48263-.01349,1.48518,.00435,.00386,1.63887-.00839,1.63564,.0069,1.63719-.00651,1.63257,.00569,1.63261-.00996,1.63801,.00748,1.63531-.00482,1.6375,.00656,1.63935,.00314,1.63701-.00837,1.64085-.00024,1.64349,.00634,1.64349-.0416,1.65071-.13896,1.64167-.23663,1.63221-.36571,1.60794-.545,1.5545-.72667,1.47831-.95581,1.34017-1.16596,1.15901-1.3644,.91587-1.49824,.67453-1.5852,.43935-1.62967,.23142-1.64596,.07469-1.70703-.08034-1.68684-.2741-1.64522-.45612-1.56107-.69162-1.43629-.92224-1.2697-1.14053-1.0583-1.33989,1.65023-.93315,1.65268-.93463,1.65066-.93658Z" fill="#1d868c"/>
          <path d="M362.54563,38.11791l1.83596,.00189,1.83892-.00331,1.83938-.00081,.00401-2.14461-.13128-1.52845-.61909-1.38665-1.2735-.81634-1.49945-.29467-1.53545-.06294-1.54774,.06108-1.51916,.27954-1.32903,.76069-.96546,1.20351-1.30633-.92348-1.31225-.91781-1.31297-.91751,.93114-1.28466,1.16061-1.07573,1.35545-.81606,1.48797-.53074,1.55087-.32672,1.57669-.15443,1.58757-.05073,1.72633,.05563,1.71743,.19074,1.68236,.39658,1.57741,.6967,1.35318,1.0618,1.00041,1.39876,.61167,1.61089,.29968,1.69724,.08736,1.72475-.00035,1.71351,.00366,1.70933,.00284,1.71498-.0047,1.71215-.00269,1.71445,.00119,1.71639,.00142,1.71394,.00279,1.71795-.0019,1.72072-.00118,1.72-1.78428-.0005-1.78785,.0052-1.78766-.00413-.00368-2.34769-1.07207,1.3482-1.44874,.92755-1.6704,.42187-1.72754,.10897-1.71037-.0971-1.68211-.31655-1.60998-.58304-1.45239-.90233-1.18535-1.22943-.83902-1.48643-.46712-1.64349-.14637-1.70527,.15774-1.71903,.505-1.64721,.92827-1.44893,1.29364-1.13334,1.52787-.79221,1.6563-.47987,1.70637-.25545,1.72595-.07735Zm5.51533,4.18168l-1.7015-.00238-1.7027,.00331-1.7027,.0006-1.61689,.11506-1.53414,.5085-1.08892,1.16563-.30278,1.58098,.30731,1.51073,1.03483,1.13411,1.44986,.53116,1.54647,.1412,1.77255-.12807,1.66375-.59624,1.20228-1.27922,.5404-1.68275,.1293-1.77528,.00286-1.22736Z" fill="#1d868c"/>
          <path d="M403.23462,42.09747l-.08292,1.73173-.24178,1.7169-.46347,1.67004-.67911,1.59408-.93991,1.45428-1.20208,1.24491-1.43114,.9721-1.59637,.66695-1.68982,.37984-1.73054,.1135-1.67736-.10089-1.64959-.31777-1.54447-.64093-1.31062-1.04112-.00127,1.61632,.00143,1.61709,.00066,1.61892-.00216,1.61661,.0002,1.6204,.01174,1.62301-.00408,1.62527-1.821-.00283-1.82191,.00637-1.81902-.00895,.00379-1.66968-.01339-1.67363,.01317-1.67634-.00547-1.67602,.00586-1.67455-.00438-1.6757-.00413-1.67761-.0029-1.67575,.0069-1.67771-.00855-1.67677,.01068-1.67835-.00373-1.67361,.00404-1.67366,.00137-1.67919-.00793-1.67642,.00524-1.67867-.00118-1.68057-.0087-1.67817,.01301-1.6821-.00765-1.68481,.00159-1.68422,1.81843-.00242,1.82191-.00035,1.82005,.00385,.00748,2.03929,1.26628-1.17138,1.53822-.79724,1.68483-.41222,1.73359-.12133,1.7162,.11824,1.67869,.37321,1.58816,.6587,1.41897,.96808,1.20564,1.2234,.94145,1.43705,.68664,1.57438,.44066,1.66221,.25882,1.70092,.07272,1.72161-.00185,1.73585,.00007,1.73585Zm-5.41089-.25524l.00478-1.48061-.00956-1.48061-.08399-1.67004-.34558-1.63461-.69166-1.51448-1.13276-1.21227-1.50025-.70702-1.65311-.20519-1.60615,.19993-1.46788,.66117-1.14375,1.13372-.71576,1.44989-.36174,1.5751-.1211,1.61755-.00106,1.63374,.00143,1.63373,.08898,1.69795,.31793,1.66613,.66896,1.55628,1.13907,1.24358,1.51967,.72465,1.68139,.20852,1.66377-.23019,1.50012-.74781,1.11815-1.25134,.67489-1.53929,.36044-1.64412,.09476-1.68435Z" fill="#1d868c"/>
          <path d="M418.55083,38.11788l1.83601-.00104,1.83896,.00051,1.84123-.00013,.00009-2.14616-.12765-1.52878-.61736-1.38913-1.27759-.81133-1.49882-.29594-1.53538-.06274-1.54801,.05669-1.51947,.28105-1.32348,.76799-.96848,1.19047-1.31082-.91231-1.31068-.91998-1.3089-.9212,.93351-1.27779,1.1579-1.07686,1.35537-.81404,1.48468-.53874,1.55149-.32451,1.5763-.16091,1.58796-.04319,1.72639,.05406,1.7179,.18841,1.67911,.40819,1.582,.68501,1.35255,1.0638,.9953,1.40193,.6183,1.60813,.30223,1.69739,.08506,1.72531-.0001,1.71351,.00203,1.70933-.00595,1.71498-.0023,1.71215,.00153,1.71445,.00593,1.71639,.00148,1.71394-.00129,1.71795-.00081,1.72072-.00179,1.72054-1.7848,.0031-1.78785-.00726-1.78689,.00361,.00084-2.34806-1.07929,1.34708-1.4487,.92511-1.6685,.4267-1.7276,.11234-1.71029-.10153-1.68279-.31361-1.60905-.58596-1.44827-.90721-1.18937-1.22417-.83868-1.48642-.47254-1.64236-.14053-1.70608,.15688-1.71896,.50678-1.6463,.92357-1.45212,1.29484-1.13317,1.52954-.78937,1.65444-.48785,1.70707-.25722,1.72676-.06845Zm5.51546,4.18173l-1.70151,.00055-1.70272-.00051-1.70272-.00091-1.61654,.11952-1.53527,.50506-1.09206,1.16517-.29652,1.58281,.30583,1.51032,1.03459,1.13356,1.44862,.53534,1.54711,.13986,1.77129-.13725,1.66911-.58234,1.19428-1.28794,.54255-1.68093,.1348-1.77498-.00084-1.22734Z" fill="#1d868c"/>
          <path d="M437.5432,27.65016l1.78403,.00392,1.78785-.00425,1.78671,.00023-.00041,2.29687,1.24593-1.28828,1.56036-.87631,1.73202-.46089,1.7939-.13402,1.72971,.11159,1.69762,.34538,1.60241,.6541,1.41777,.98784,1.14358,1.29515,.82619,1.51951,.51843,1.65256,.2795,1.70836,.07242,1.73439,.00517,1.59267-.00161,1.59271,.00567,1.59798-.00841,1.59535,.00451,1.59749-.00155,1.59929,.00329,1.59701,.00143,1.60075-.0035,1.60333-.00119,1.60288-1.8016-.00361-1.8049,.00604-1.80216-.00489-.00742-1.6983,.00834-1.70684,.00023-1.70402,.00028-1.70631-.00866-1.70823,.00145-1.7058,.00756-1.70979-.0016-1.71255-.00513-1.71255-.11632-1.73077-.47189-1.66651-1.01311-1.38858-1.53088-.77708-1.71564-.20099-1.73564,.23241-1.56082,.78498-1.14573,1.31709-.62913,1.63278-.18488,1.74569,.00213,1.70685-.00953,1.7125,.00801,1.70968-.00742,1.71197,.00382,1.7139,.0031,1.71146-.00354,1.71547-.00333,1.71823,.00484,1.71869-1.81941-.00342-1.82191,.00397-1.82086-.00214,.00362-1.69972-.00381-1.69896-.00456-1.70095-.0003-1.7,.00038-1.70161,.00812-1.70057,.00053-1.69643-.00035-1.70204-.00316-1.69923,.00083-1.70151-.00461-1.70343-.00161-1.701,.00016-1.70498,.00621-1.70773-.00155-1.70675Z" fill="#1d868c"/>
        </g>
        <path d="M60.10074,26.32593l.13372-.1491,.00814-1.20438,.14271-.14287,1.81759,.00787,1.81759-.00286,.15255-.1465,.23476-1.82213,.21393-1.82466,.15175-.19414,1.53779-.5297,1.53294-.54352,.15434-.21445,.61627-1.96067,.61565-1.96086-.09055-.07817-1.53903,.56663-1.58406,.43672-1.60191,.37243-1.61004,.31656-1.62376,.24862-1.63081,.20779-1.6353,.18771-1.63537,.14215-1.6425,.11311-1.64657,.08004-1.64394,.05437-1.65243,.03043-1.65357,.02546-1.64903-.01379-1.64909-.04168-1.649-.04705-1.6473-.078-1.64366-.11658-1.64021-.13145-1.63684-.15535-1.63499-.18831-1.62785-.23045-1.6262-.25482-1.61868-.30004-1.60277-.35351-1.59389-.39307-1.55823-.49314-.09034,.09147,.6133,1.9616,.59934,1.96594,.17408,.20097,1.51987,.45908,1.51703,.46819,.14847,.17698,.23651,1.91003,.23693,1.90998,.15827,.1331,1.84887,.01472,1.84887-.00303,.14568,.13887-.00287,1.20438,.14175,.13568,.96821,.0068,.13149,.14184-.03752,1.43363-.02813,1.4362-.04222,1.43582-.14773,.14287-1.49827-.0081-1.50178,.00899-1.5042-.00369-1.5042-.00355-.1453,.14795,.00797,1.66049v1.66049s.13733,.13904,.13733,.13904l1.47396-.00319,1.47741,.00874,1.47979,.00101,1.47979-.00282,.13695,.14169-.04353,1.69937-.04942,1.70082-.04904,1.6998-.04488,1.69576-.04205,1.70145-.04838,1.69847-.03859,1.70102-.04245,1.70283-.05146,1.70016-.05385,1.70408-.03356,1.70738-.05886,1.70669,.14387,.14466,1.40142-.00299,1.40368-.00325,1.40368,.00444,.14414-.14276,.04849-1.69924,.04081-1.70105,.04337-1.69995,.05188-1.69557,.04501-1.70137,.04603-1.69854,.05366-1.70061,.038-1.70295,.04532-1.70033,.04947-1.7042,.04627-1.70703,.03896-1.70723,.15296-.14025,1.64258,.00226,1.64802-.00745,1.6453,.00076,1.6475-.00307,1.64936,.012,1.64701-.00969,1.65087,.00351,1.65353-.00101,1.65353-.00651,.15319,.14944,.03246,1.69967,.05571,1.70065,.03725,1.70012,.06002,1.69535,.03731,1.70158,.04573,1.69854,.04799,1.70076,.03543,1.70302,.0562,1.70003,.03998,1.70446,.04536,1.70706,.05255,1.70686,.14521,.14723,1.40142-.00177,1.40368,.00258,1.40368-.00777,.13819-.14024-.03975-1.69947-.04538-1.70093-.05137-1.69973-.05574-1.69547-.04474-1.70138-.0461-1.69853-.03006-1.70125-.04868-1.70267-.05248-1.70013-.04326-1.70437-.05592-1.70677-.04244-1.70714,.14244-.13713,1.89923-.01264,1.90229,.00572,1.90229-.00414,.13989-.13642,.0056-1.66049,.00502-1.66049-.15052-.13409-1.44662-.00951-1.45001,.00661-1.45234-.01002-1.45234,.008-.15069-.14537-.03344-1.43374-.04689-1.43569-.03407-1.43604,.14101-.14542,.82361,.00995Zm-20.13531,.13559l.13931-.15098,.47599,.00814,.14169-.14185,.00787-1.20438,.135-.13787,1.51253-.0114,1.51497,.01275,1.51497-.00823,.14737,.14475-.01023,1.44486,.00442,1.44824,.00949,1.45058-.00634,1.45058-.14472,.13902-1.8071-.00054-1.81001,.00232-1.81001-.00639-.13642-.1343,.0285-1.43388,.04762-1.43567,.0451-1.43574Zm14.78951,4.30542l-.13162,.15061-1.87607-.00814-1.8791,.00016-1.8791-.00787-.13787-.135-.0114-1.44486,.01275-1.44824-.00823-1.45058-.00262-1.45058,.14737-.13714,1.53336-.00442,1.53583-.00949,1.53583,.00634,.13902,.14472-.00054,1.20438,.14608,.14376,.62057,.00639,.14411,.13441,.04903,1.43332,.03004,1.43615,.03255,1.43608Z" fill="#1d868c"/>
      </g>
    </g>
  </g>
</svg>
