<?xml version="1.0" encoding="UTF-8"?>
<svg id="b" data-name="ico-youtube" xmlns="http://www.w3.org/2000/svg" width="100" height="70.00004" viewBox="0 0 100 70.00004">
  <g id="c" data-name="g-ico-youtube">
    <g>
      <path d="M97.91043,10.93058c-1.15007-4.30244-4.53852-7.69094-8.84106-8.84101C81.27091,0,50,0,50,0c0,0-31.27086,0-39.06937,2.08957C6.62815,3.23964,3.23964,6.62815,2.08957,10.93058,0,18.72909,0,34.99999,0,34.99999c0,0,0,16.2709,2.08957,24.06941,1.15007,4.30249,4.53857,7.69094,8.84106,8.84101,7.79851,2.08962,39.06937,2.08962,39.06937,2.08962,0,0,31.27091,0,39.06937-2.08962,4.30254-1.15007,7.69099-4.53852,8.84106-8.84101,2.08957-7.79851,2.08957-24.06941,2.08957-24.06941,0,0,0-16.2709-2.08957-24.06941Z" fill="#282828"/>
      <polygon points="40.00003 50 40.00003 19.99999 65.97965 35.00045 40.00003 50" fill="#fff"/>
    </g>
  </g>
</svg>
