<?xml version="1.0" encoding="UTF-8"?>
<svg id="b" data-name="ico-weibo" xmlns="http://www.w3.org/2000/svg" width="100" height="81.00528" viewBox="0 0 100 81.00528">
  <g id="c" data-name="g-ico-weibo">
    <g>
      <path d="M7.35304,55.70845c0,11.64519,15.16082,21.08846,33.86652,21.08846s33.86652-9.4446,33.86652-21.08846-15.16215-21.08713-33.86652-21.08713S7.35304,44.06326,7.35304,55.70845" fill="#fff"/>
      <path d="M42.00805,75.07898c-16.5543,1.63283-30.8442-5.84786-31.92122-16.71786-1.07437-10.86734,11.47898-21.00203,28.03063-22.63884,16.55564-1.63815,30.84685,5.8452,31.92122,16.70988,1.07304,10.87132-11.47499,21.00868-28.03063,22.64682m33.1126-36.08041c-1.40811-.42017-2.37345-.70871-1.63681-2.55827,1.59693-4.01824,1.7618-7.48334,.03058-9.95652-3.24571-4.63653-12.12786-4.38789-22.30909-.12366,0-.00665-3.19651,1.39881-2.3801-1.13686,1.56635-5.03543,1.32966-9.2518-1.10761-11.68641-5.52209-5.52741-20.21088,.20876-32.80811,12.80067C5.47688,35.77147,0,45.76921,0,54.41468c0,16.53702,21.2068,26.5906,41.95353,26.5906,27.1956,0,45.287-15.80171,45.287-28.34576,0-7.58041-6.38371-11.88187-12.11988-13.66096"/>
      <path d="M93.18014,8.73677C86.61293,1.45553,76.925-1.31948,67.98301,.58061h-.00266c-2.06794,.44171-3.38625,2.47619-2.94454,4.54412,.44171,2.06794,2.47619,3.38625,4.54412,2.94454,6.36111-1.35094,13.24478,.6276,17.91721,5.79733,4.50628,4.99388,6.00517,12.0129,3.93181,18.41185l.00133,.00133c-.65216,2.00879,.44759,4.16591,2.45637,4.81808,.00339,.0011,.00677,.00219,.01015,.00328,2.01015,.64997,4.16694-.45074,4.82003-2.45988l.00133-.01595c2.80293-8.69866,1.03182-18.61528-5.53805-25.88854"/>
      <path d="M83.09331,17.83831c-3.19651-3.54621-7.91548-4.89316-12.27279-3.96638-1.79002,.32747-2.97565,2.04403-2.64818,3.83405s2.04404,2.97565,3.83405,2.64818c.06293-.01151,.12551-.02486,.18767-.04001v.00266c2.20318-.47114,4.49055,.2665,6.00343,1.93599,1.51036,1.67386,2.01088,4.02735,1.31238,6.17097h.00266c-.55989,1.73191,.38936,3.58993,2.12081,4.15121,1.73266,.55868,3.59026-.39244,4.14988-2.1248,1.36955-4.23764,.51325-9.06697-2.68991-12.61185"/>
      <path d="M42.92152,55.39332c-.57973,.99193-1.85887,1.46795-2.86144,1.05442-.98661-.40688-1.29642-1.51316-.7353-2.48647,.57707-.968,1.80834-1.44003,2.79096-1.05044,.99991,.36566,1.35891,1.48656,.80577,2.48248m-5.27477,6.77197c-1.60092,2.55428-5.03012,3.67386-7.61365,2.49445-2.54497-1.15813-3.29623-4.12727-1.69266-6.61773,1.58097-2.47982,4.89449-3.5861,7.45808-2.51173,2.59284,1.10628,3.42255,4.05414,1.84823,6.63502m6.01673-18.08076c-7.87825-2.05034-16.78301,1.87615-20.20423,8.81833-3.48505,7.07913-.11435,14.93744,7.84235,17.50767,8.24524,2.658,17.96242-1.41476,21.34109-9.05767,3.33347-7.47005-.82705-15.16082-8.97921-17.26833"/>
    </g>
  </g>
</svg>
