<?xml version="1.0" encoding="UTF-8"?>
<svg id="b" data-name="ico-pinterest" xmlns="http://www.w3.org/2000/svg" width="100" height="100" viewBox="0 0 100 100">
  <g id="c" data-name="g-ico-pinterest">
    <g>
      <circle cx="50" cy="50" r="50" fill="#fff"/>
      <path d="M49.9794,0C22.3365,0,0,22.3776,0,49.9794,0,71.1641,13.1633,89.2637,31.7565,96.5446c-.4525-3.94901-.8227-10.037,.1645-14.3562,.905-3.9079,5.8412-24.8457,5.8412-24.8457,0,0-1.4808-3.0029-1.4808-7.4044,0-6.9519,4.0312-12.1349,9.0497-12.1349,4.2781,0,6.3349,3.2085,6.3349,7.0341,0,4.2781-2.715,10.6952-4.1547,16.6598-1.1929,4.9774,2.5093,9.0498,7.4044,9.0498,8.8852,0,15.7137-9.37889,15.7137-22.8712,0-11.9704-8.5973-20.3209-20.8968-20.3209-14.2328,0-22.5833,10.654-22.5833,21.6783,0,4.2781,1.6454,8.8852,3.7022,11.3945,.4114,.4936,.4525,.9461,.3291,1.4397-.3702,1.5632-1.2341,4.9774-1.3986,5.6767-.2057,.90501-.7405,1.1107-1.6866,.6582-6.1703-2.9618-10.037-12.0938-10.037-19.4159,0-15.7548,11.4356-30.2345,33.0317-30.2345,17.318,0,30.8104,12.3406,30.8104,28.877,0,17.2357-10.85979,31.0984-25.9153,31.0984-5.0597,0-9.8314-2.6327-11.4356-5.759,0,0-2.5093,9.5434-3.1263,11.8881-1.1107,4.3604-4.1547,9.7902-6.2115,13.1222,4.6895,1.4397,9.6257,2.2213,14.8088,2.2213,27.6018,0,49.9794-22.3776,49.9794-49.9794-.0411-27.643-22.4188-50.0206-50.0206-50.0206Z"/>
    </g>
  </g>
</svg>
