<?xml version="1.0" encoding="UTF-8"?>
<svg id="b" data-name="ico-fb" xmlns="http://www.w3.org/2000/svg" width="100" height="100" viewBox="0 0 100 100">
  <g id="c" data-name="g-ico-fb">
    <g>
      <path d="M100,50C100,22.38576,77.61424,0,50,0S0,22.38576,0,50c0,24.95645,18.28428,45.64161,42.1875,49.39236v-34.93924h-12.69531v-14.45312h12.69531v-11.01562c0-12.53127,7.4647-19.45313,18.88567-19.45313,5.47055,0,11.19246,.97656,11.19246,.97656v12.30469h-6.30497c-6.21114,0-8.14816,3.85417-8.14816,7.80833v9.37917h13.86719l-2.2168,14.45312h-11.65039v34.93924c23.90322-3.75075,42.1875-24.43591,42.1875-49.39236Z"/>
      <path d="M69.46289,64.45312l2.2168-14.45312h-13.86719v-9.37917c0-3.95416,1.93702-7.80833,8.14816-7.80833h6.30497v-12.30469s-5.72191-.97656-11.19246-.97656c-11.42097,0-18.88567,6.92186-18.88567,19.45313v11.01562h-12.69531v14.45312h12.69531v34.93924c2.54562,.39945,5.15471,.60764,7.8125,.60764s5.26688-.20819,7.8125-.60764v-34.93924h11.65039Z" fill="#fff"/>
    </g>
  </g>
</svg>
