<svg x="0px" y="0px" viewBox="0 0 23.6 37">
<g>
	<path d="M10.3,27.8c-0.8,0-1.5-0.3-2-0.9c-0.4-0.4-0.5-1.4-0.5-1.8l0-0.1c-0.3-3.8,0.8-5.9,4.4-8c3.5-2.1,5.3-3.8,5.3-7.2
		c0-3.4-2.7-5.8-6.5-5.8c-2.7,0-4.9,1.3-6,3.5C4.8,8,4,9.3,2.7,9.3H2.5C1.7,9.3,0.8,8.8,0.4,8c-0.4-0.7-0.5-1.5-0.2-2.2
		C2,2.1,6,0,11.5,0c7.2,0,12,3.9,12,9.6c0,3.6-1.7,6.2-5.4,8.4c-3.6,2.1-5.3,3.7-5.3,7.3c0,0.6-0.2,1.4-0.4,1.6
		C11.9,27.5,11.1,27.8,10.3,27.8z"/>
	<path d="M10.5,37c-1.9,0-3.3-1.4-3.3-3.2s1.5-3.2,3.3-3.2c1.9,0,3.4,1.4,3.4,3.2S12.4,37,10.5,37z"/>
</g>
</svg>
