<?xml version="1.0" encoding="UTF-8"?>
<svg id="_レイヤー_2" data-name="レイヤー 2" xmlns="http://www.w3.org/2000/svg" viewBox="0 0 100 100">
  <defs>
    <style>
      .cls-1 {
        fill: #777;
      }
    </style>
  </defs>
  <g id="b">
    <g>
      <path class="cls-1" d="M99.99,49.9c-.03-13.58-.09-15.28-.34-20.61-.25-5.32-1.1-8.95-2.35-12.13-1.28-3.29-3-6.07-5.78-8.85-2.78-2.77-5.58-4.48-8.87-5.75-3.18-1.23-6.82-2.07-12.14-2.3C65.19.03,63.48-.02,49.9,0c-13.58.03-15.28.08-20.61.34-5.32.25-8.95,1.1-12.13,2.35-3.29,1.28-6.07,3-8.85,5.78-2.78,2.78-4.48,5.58-5.75,8.87-1.23,3.18-2.07,6.82-2.3,12.14C.03,34.82-.02,36.52,0,50.1c.03,13.58.09,15.28.34,20.61.25,5.32,1.1,8.95,2.35,12.13,1.28,3.29,3,6.07,5.78,8.85,2.78,2.77,5.58,4.48,8.87,5.75,3.18,1.23,6.82,2.07,12.14,2.3,5.33.23,7.04.29,20.61.26,13.58-.03,15.28-.09,20.62-.34,5.32-.25,8.95-1.11,12.13-2.35,3.29-1.29,6.07-3,8.85-5.78,2.77-2.78,4.48-5.58,5.75-8.87,1.23-3.18,2.07-6.82,2.3-12.14.23-5.34.29-7.04.26-20.62ZM90.73,70.12c-.21,4.87-1.02,7.52-1.7,9.29-.9,2.33-1.98,4-3.73,5.76-1.75,1.75-3.41,2.84-5.74,3.75-1.76.69-4.41,1.51-9.28,1.74-5.27.25-6.85.3-20.2.33-13.35.03-14.93-.02-20.2-.25h0c-4.87-.21-7.52-1.02-9.29-1.7-2.34-.9-4-1.99-5.76-3.73-1.75-1.75-2.84-3.41-3.75-5.74-.69-1.76-1.51-4.41-1.74-9.28-.25-5.27-.3-6.85-.33-20.2-.03-13.35.02-14.93.25-20.2.21-4.87,1.02-7.52,1.7-9.28.9-2.34,1.98-4,3.73-5.76,1.75-1.75,3.41-2.84,5.74-3.75,1.76-.69,4.41-1.51,9.28-1.74,5.27-.25,6.85-.3,20.2-.33,13.35-.03,14.93.02,20.21.25,4.87.21,7.52,1.02,9.28,1.7,2.34.9,4,1.98,5.76,3.73,1.75,1.75,2.84,3.41,3.75,5.74.69,1.76,1.51,4.4,1.74,9.28.25,5.27.31,6.85.33,20.2.03,13.35-.02,14.93-.25,20.2Z"/>
      <path class="cls-1" d="M76.62,17.26c-3.31,0-5.99,2.7-5.99,6.01,0,3.31,2.7,5.99,6.01,5.99,3.31,0,5.99-2.7,5.99-6.01,0-3.31-2.7-5.99-6.01-5.99Z"/>
      <path class="cls-1" d="M49.95,24.33c-14.18.03-25.65,11.55-25.62,25.72.03,14.18,11.54,25.65,25.72,25.62,14.18-.03,25.65-11.54,25.63-25.72-.03-14.18-11.55-25.65-25.73-25.62ZM50.03,66.67c-9.2.02-16.68-7.43-16.7-16.63-.02-9.2,7.43-16.68,16.63-16.7,9.2-.02,16.68,7.43,16.7,16.63.02,9.21-7.43,16.68-16.64,16.7Z"/>
    </g>
  </g>
</svg>