<?xml version="1.0" encoding="UTF-8"?>
<svg id="b" data-name="ico-instagram" xmlns="http://www.w3.org/2000/svg" width="100" height="100" viewBox="0 0 100 100">
  <g id="c" data-name="g-ico-instagram">
    <path d="M29.29231,.34624c-5.32008,.2511-8.95372,1.10324-12.12896,2.34742-3.28697,1.28141-6.07333,2.99869-8.84515,5.78187-2.77509,2.78481-4.47933,5.5761-5.75099,8.86638-1.23122,3.18334-2.06554,6.81871-2.30048,12.14207C.03349,34.81714-.02001,36.51815,.006,50.09559c.02591,13.57581,.08583,15.28003,.34014,20.61477,.25431,5.31857,1.10327,8.95067,2.34744,12.12754,1.28303,3.28702,2.99855,6.07183,5.78332,8.84532,2.78319,2.77349,5.57608,4.47613,8.86789,5.74948,3.18009,1.2296,6.81698,2.06715,12.13875,2.30041,5.33304,.23494,7.0356,.28675,20.60965,.26084,13.58048-.02591,15.28314-.08588,20.61618-.33861,5.32008-.25432,8.95046-1.10645,12.12896-2.34737,3.28697-1.28631,6.07333-2.99869,8.84515-5.7835,2.77182-2.78323,4.47607-5.57615,5.74783-8.86801,1.23122-3.18013,2.06871-6.81707,2.30038-12.1356,.23325-5.33637,.28842-7.04064,.26242-20.61645-.02591-13.57744-.08741-15.27845-.34014-20.60992-.25273-5.32342-1.10485-8.95389-2.34744-12.13238-1.28461-3.28702-2.99855-6.07025-5.78174-8.84532-2.78319-2.77186-5.57608-4.47939-8.86789-5.74785-3.18167-1.23123-6.81698-2.07042-12.13875-2.30046C65.1851,.03196,63.48254-.01986,49.90364,.00605c-13.57563,.02591-15.2782,.08424-20.61133,.34019m.58328,90.38764c-4.87464-.21224-7.52168-1.02225-9.28585-1.70101-2.33607-.904-4.00304-1.9878-5.75752-3.7293-1.75121-1.74802-2.83827-3.41017-3.75031-5.74138-.68532-1.76424-1.50985-4.4081-1.73826-9.28276-.24788-5.26992-.30454-6.85109-.32887-20.2017-.02591-13.34735,.02264-14.92852,.25273-20.20329,.20893-4.87144,1.02387-7.52178,1.70098-9.28439,.90393-2.33932,1.98446-4.00309,3.72925-5.75754,1.74795-1.7545,3.41007-2.83831,5.74288-3.75036,1.76258-.68854,4.40646-1.50666,9.27942-1.73828,5.27312-.24952,6.85258-.30296,20.1998-.32887,13.35039-.02596,14.93153,.02106,20.20633,.25273,4.87128,.21219,7.52158,1.01899,9.28258,1.70101,2.33765,.90395,4.00462,1.98128,5.75752,3.7293,1.75279,1.74802,2.83985,3.40691,3.75189,5.74459,.68848,1.75771,1.50659,4.40484,1.73668,9.27628,.25105,5.27319,.3078,6.8543,.33203,20.2017,.02591,13.35061-.02264,14.93173-.25431,20.20329-.21219,4.87466-1.02061,7.52341-1.70098,9.28923-.90393,2.33447-1.98456,4.00146-3.73093,5.75596-1.74627,1.74802-3.40839,2.83826-5.74288,3.75036-1.75932,.68686-4.40636,1.50661-9.27616,1.73828-5.27302,.24784-6.85258,.30455-20.20465,.32887-13.34722,.02591-14.92669-.02432-20.20139-.25273M70.6365,23.27284c.00643,3.31134,2.69885,5.99248,6.01015,5.986,3.31288-.00648,5.99403-2.69735,5.98918-6.00869-.00653-3.31134-2.69895-5.99406-6.01183-5.98758-3.31288,.00648-5.99403,2.69894-5.9875,6.01028M24.3271,50.04857c.02749,14.18011,11.5441,25.64986,25.72071,25.62232,14.17829-.02754,25.65436-11.54104,25.62687-25.7211-.02759-14.17521-11.54578-25.65149-25.72565-25.62395-14.17671,.02754-25.64952,11.54594-25.62193,25.72273m9.00553-.0178c-.01622-9.20336,7.43259-16.67975,16.6342-16.69597,9.20328-.0178,16.68116,7.4278,16.69896,16.63279,.0179,9.20499-7.43091,16.67975-16.63578,16.6976-9.2016,.0178-16.67958-7.42943-16.69738-16.63442"/>
  </g>
</svg>
