<svg x="0px" y="0px" viewBox="0 0 667.8 114.6">
<polygon class="st0" points="147,38.2 156.8,38.2 156.8,52.5 162.6,52.5 162.6,60.9 156.8,60.9 156.8,91.4 147,91.4 147,60.9 
	142,60.9 142,52.5 147,52.5 "/>
<g>
	<defs>
		<rect id="SVGID_1_" y="0" width="667.8" height="114.6"/>
	</defs>
	<clipPath id="SVGID_2_">
		<use xlink:href="#SVGID_1_"  style="overflow:visible;"/>
	</clipPath>
	<path class="st1" d="M196,57.9l-6,6c-2.4-2.4-4.7-3.6-6.7-3.6c-1.1,0-2,0.2-2.6,0.7c-0.6,0.5-0.9,1-0.9,1.7c0,0.5,0.2,1,0.6,1.4
		c0.4,0.4,1.4,1,2.9,1.8l3.6,1.8c3.8,1.9,6.3,3.8,7.8,5.7c1.4,1.9,2.1,4.2,2.1,6.8c0,3.5-1.3,6.3-3.8,8.7c-2.5,2.3-5.9,3.5-10.2,3.5
		c-5.7,0-10.2-2.2-13.6-6.6l6-6.5c1.1,1.3,2.5,2.4,4,3.2c1.5,0.8,2.9,1.2,4.1,1.2c1.3,0,2.3-0.3,3.1-0.9c0.8-0.6,1.2-1.3,1.2-2.2
		c0-1.5-1.4-3-4.2-4.4l-3.3-1.6c-6.3-3.2-9.4-7.1-9.4-11.9c0-3.1,1.2-5.7,3.6-7.9c2.4-2.2,5.4-3.3,9.1-3.3c2.5,0,4.9,0.6,7.1,1.7
		C192.5,54.3,194.4,55.9,196,57.9"/>
	<path class="st1" d="M204.3,52.5h9.9v18.7c0,3.6,0.3,6.2,0.8,7.6c0.5,1.4,1.3,2.5,2.4,3.3c1.1,0.8,2.5,1.2,4.1,1.2
		c1.6,0,3-0.4,4.1-1.2c1.1-0.8,2-1.9,2.5-3.4c0.4-1.1,0.6-3.5,0.6-7.2v-19h9.8V69c0,6.8-0.5,11.4-1.6,13.9c-1.3,3-3.2,5.4-5.8,7
		c-2.5,1.6-5.8,2.4-9.7,2.4c-4.3,0-7.7-1-10.4-2.9c-2.6-1.9-4.5-4.6-5.6-8c-0.8-2.4-1.1-6.7-1.1-12.9V52.5z"/>
	<path class="st1" d="M248.3,52.5h9.8v4c2.2-1.9,4.2-3.2,6-3.9c1.8-0.7,3.6-1.1,5.5-1.1c3.9,0,7.1,1.3,9.8,4
		c2.3,2.3,3.4,5.7,3.4,10.2v25.7h-9.7v-17c0-4.6-0.2-7.7-0.6-9.2c-0.4-1.5-1.1-2.7-2.2-3.5c-1-0.8-2.3-1.2-3.8-1.2
		c-2,0-3.7,0.7-5.1,2c-1.4,1.3-2.4,3.1-2.9,5.5c-0.3,1.2-0.4,3.8-0.4,7.9v15.6h-9.8V52.5z"/>
	<path class="st1" d="M320.9,52.5h9.8v38.9h-9.8v-4.1c-1.9,1.8-3.8,3.1-5.7,3.9c-1.9,0.8-4,1.2-6.2,1.2c-5,0-9.4-1.9-13-5.8
		c-3.7-3.9-5.5-8.7-5.5-14.5c0-6,1.8-10.9,5.3-14.8c3.5-3.8,7.9-5.8,12.9-5.8c2.3,0,4.5,0.4,6.6,1.3c2,0.9,3.9,2.2,5.7,4V52.5z
		 M310.7,60.5c-3,0-5.5,1.1-7.5,3.2c-2,2.1-3,4.9-3,8.2c0,3.4,1,6.1,3,8.3c2,2.2,4.5,3.2,7.5,3.2c3.1,0,5.6-1.1,7.6-3.2
		c2-2.1,3-4.9,3-8.4c0-3.4-1-6.1-3-8.2C316.3,61.6,313.8,60.5,310.7,60.5"/>
	<path class="st1" d="M369.3,52.5h9.7v33.3c0,6.6-1.3,11.4-4,14.5c-3.6,4.2-8.9,6.3-16,6.3c-3.8,0-7-0.5-9.6-1.4
		c-2.6-0.9-4.8-2.3-6.6-4.2c-1.8-1.8-3.1-4.1-4-6.7h10.8c0.9,1.1,2.2,1.9,3.7,2.5c1.5,0.6,3.3,0.8,5.3,0.8c2.6,0,4.7-0.4,6.3-1.2
		c1.6-0.8,2.7-1.9,3.4-3.1c0.6-1.3,1-3.5,1-6.6c-1.7,1.7-3.5,2.9-5.4,3.7c-1.9,0.8-4,1.1-6.4,1.1c-5.2,0-9.6-1.9-13.2-5.6
		c-3.6-3.8-5.4-8.5-5.4-14.3c0-6.2,1.9-11.1,5.7-14.9c3.5-3.4,7.6-5.1,12.4-5.1c2.2,0,4.4,0.4,6.3,1.2c2,0.8,4,2.2,6,4.1V52.5z
		 M359.2,60.6c-3.1,0-5.6,1-7.6,3.1c-2,2.1-3,4.7-3,7.8c0,3.2,1,5.9,3.1,8c2.1,2.1,4.6,3.1,7.7,3.1c3,0,5.5-1,7.5-3c2-2,3-4.7,3-8
		c0-3.2-1-5.9-3-7.9C364.8,61.6,362.3,60.6,359.2,60.6"/>
	<path class="st1" d="M388.8,52.5h9.9v18.7c0,3.6,0.3,6.2,0.8,7.6c0.5,1.4,1.3,2.5,2.4,3.3c1.1,0.8,2.5,1.2,4.1,1.2
		c1.6,0,3-0.4,4.1-1.2c1.1-0.8,2-1.9,2.5-3.4c0.4-1.1,0.6-3.5,0.6-7.2v-19h9.8V69c0,6.8-0.5,11.4-1.6,13.9c-1.3,3-3.2,5.4-5.8,7
		c-2.6,1.6-5.8,2.4-9.7,2.4c-4.3,0-7.7-1-10.3-2.9c-2.6-1.9-4.5-4.6-5.6-8c-0.8-2.4-1.1-6.7-1.1-12.9V52.5z"/>
	<path class="st1" d="M546.4,52.5v4.3c1.8-1.8,3.7-3.1,5.7-4c2.1-0.9,4.2-1.3,6.6-1.3c5.1,0,9.4,1.9,12.9,5.8
		c3.6,3.8,5.3,8.8,5.3,14.8c0,5.8-1.8,10.6-5.5,14.5c-3.7,3.9-8,5.8-13,5.8c-2.2,0-4.3-0.4-6.3-1.2c-1.9-0.8-3.9-2.1-5.8-3.9v18.3
		h-9.7V52.5H546.4z M556.7,60.5c-3.1,0-5.6,1-7.6,3.1c-2,2.1-3,4.8-3,8.2c0,3.5,1,6.2,3,8.4c2,2.1,4.6,3.2,7.6,3.2
		c3,0,5.5-1.1,7.5-3.2c2-2.2,3.1-4.9,3.1-8.3c0-3.3-1-6.1-3-8.2C562.2,61.6,559.7,60.5,556.7,60.5"/>
	<path class="st1" d="M613.7,52.5h9.8v38.9h-9.8v-4.1c-1.9,1.8-3.8,3.1-5.7,3.9c-1.9,0.8-4,1.2-6.2,1.2c-5,0-9.4-1.9-13-5.8
		c-3.7-3.9-5.5-8.7-5.5-14.5c0-6,1.8-10.9,5.3-14.8c3.5-3.8,7.9-5.8,12.9-5.8c2.3,0,4.5,0.4,6.6,1.3c2.1,0.9,3.9,2.2,5.7,4V52.5z
		 M603.5,60.5c-3,0-5.5,1.1-7.5,3.2c-2,2.1-3,4.9-3,8.2c0,3.4,1,6.1,3,8.3c2,2.2,4.5,3.2,7.5,3.2c3.1,0,5.6-1.1,7.6-3.2
		c2-2.1,3-4.9,3-8.4c0-3.4-1-6.1-3-8.2C609.1,61.6,606.6,60.5,603.5,60.5"/>
	<path class="st1" d="M516.7,52.5h9.8v38.9h-9.8v-4.1c-1.9,1.8-3.8,3.1-5.7,3.9c-1.9,0.8-4,1.2-6.2,1.2c-5,0-9.4-1.9-13-5.8
		c-3.7-3.9-5.5-8.7-5.5-14.5c0-6,1.8-10.9,5.3-14.8c3.5-3.8,7.9-5.8,12.9-5.8c2.3,0,4.5,0.4,6.6,1.3c2.1,0.9,3.9,2.2,5.7,4V52.5z
		 M506.5,60.5c-3,0-5.5,1.1-7.5,3.2c-2,2.1-3,4.9-3,8.2c0,3.4,1,6.1,3,8.3c2,2.2,4.5,3.2,7.5,3.2c3.1,0,5.6-1.1,7.6-3.2
		c2-2.1,3-4.9,3-8.4c0-3.4-1-6.1-3-8.2C512.1,61.6,509.5,60.5,506.5,60.5"/>
	<path class="st1" d="M633.4,52.5h9.8v4c2.2-1.9,4.2-3.2,6-3.9c1.8-0.7,3.6-1.1,5.5-1.1c3.9,0,7.1,1.3,9.8,4
		c2.3,2.3,3.4,5.7,3.4,10.2v25.7h-9.7v-17c0-4.6-0.2-7.7-0.6-9.2c-0.4-1.5-1.1-2.7-2.2-3.5c-1-0.8-2.3-1.2-3.8-1.2
		c-2,0-3.7,0.7-5.1,2c-1.4,1.3-2.4,3.1-2.9,5.5c-0.3,1.2-0.4,3.8-0.4,7.9v15.6h-9.8V52.5z"/>
	<polygon class="st1" points="458.7,93.4 441.9,93.4 441.9,82.3 454.1,82.3 465.9,70.5 465.9,40.7 454.9,40.7 454.9,29.7 
		476.9,29.7 476.9,75.1 	"/>
	<polygon class="st1" points="61.1,114.6 31.5,105 37.1,87.7 59.6,94.9 76.8,86.2 87.4,53.3 76.2,49.7 81.8,32.3 110.4,41.6 
		91.8,99 	"/>
	<polygon class="st1" points="76.4,30.6 42.8,19.7 47.3,5.6 30,0 25.5,14 14.7,10.6 9.1,27.9 19.8,31.4 7.3,70 7.4,70 0,92.7 
		17.3,98.3 37.2,37 70.8,47.9 	"/>
	<path class="st1" d="M61.5,67.9c0,4-3.2,7.2-7.2,7.2c-4,0-7.2-3.2-7.2-7.2c0-4,3.2-7.2,7.2-7.2C58.2,60.7,61.5,63.9,61.5,67.9"/>
</g>
</svg>
