<svg x="0px" y="0px" viewBox="0 0 341 287.4">
    <polygon class="st0" points="178.8,217.6 122.6,199.3 133.3,166.4 175.9,180.2 208.5,163.6 228.7,101.1 207.5,94.2 218.1,61.3
	272.3,78.9 237,187.9 "/>
    <polygon class="st0" points="119.8,0 111.1,26.6 90.8,20 80.1,52.9 100.5,59.5 76.7,132.8 76.8,132.8 62.8,175.9 95.7,186.6
	133.4,70.2 197.2,90.9 207.9,58 144,37.3 152.7,10.7 "/>
    <path class="st0" d="M179.5,128.9c0,7.6-6.2,13.7-13.7,13.7c-7.6,0-13.7-6.2-13.7-13.7c0-7.6,6.2-13.7,13.7-13.7
		C173.4,115.1,179.5,121.3,179.5,128.9"/>
    <g class="text">
        <defs>
            <rect id="SVGID_1_" width="341" height="287.4"/>
        </defs>
        <clipPath id="SVGID_2_">
            <use xlink:href="#SVGID_1_"  style="overflow:visible;"/>
        </clipPath>
        <polygon class="st1" points="3.2,243 9.6,243 9.6,252.3 13.3,252.3 13.3,257.7 9.6,257.7 9.6,277.5 3.2,277.5 3.2,257.7 0,257.7
		0,252.3 3.2,252.3 	"/>
        <path class="st1" d="M35,255.8l-3.9,3.9c-1.6-1.6-3-2.4-4.3-2.4c-0.7,0-1.3,0.1-1.7,0.5c-0.4,0.3-0.6,0.7-0.6,1.1
		c0,0.3,0.1,0.7,0.4,0.9c0.3,0.3,0.9,0.7,1.9,1.2l2.3,1.2c2.4,1.2,4.1,2.4,5,3.7c0.9,1.3,1.4,2.7,1.4,4.4c0,2.2-0.8,4.1-2.5,5.6
		c-1.6,1.5-3.8,2.2-6.6,2.2c-3.7,0-6.6-1.4-8.8-4.3l3.9-4.2c0.7,0.9,1.6,1.6,2.6,2.1c1,0.5,1.9,0.8,2.7,0.8c0.8,0,1.5-0.2,2-0.6
		c0.5-0.4,0.8-0.9,0.8-1.4c0-1-0.9-1.9-2.8-2.8l-2.1-1.1c-4.1-2.1-6.1-4.6-6.1-7.7c0-2,0.8-3.7,2.3-5.1c1.5-1.4,3.5-2.1,5.9-2.1
		c1.6,0,3.2,0.4,4.6,1.1C32.8,253.4,34,254.5,35,255.8"/>
        <path class="st1" d="M40.4,252.3h6.4v12.1c0,2.4,0.2,4,0.5,4.9c0.3,0.9,0.8,1.6,1.6,2.1c0.7,0.5,1.6,0.8,2.7,0.8
		c1.1,0,1.9-0.3,2.7-0.8c0.7-0.5,1.3-1.2,1.6-2.2c0.3-0.7,0.4-2.3,0.4-4.7v-12.4h6.3V263c0,4.4-0.3,7.4-1,9c-0.8,2-2.1,3.5-3.8,4.6
		s-3.8,1.6-6.3,1.6c-2.8,0-5-0.6-6.7-1.9c-1.7-1.2-2.9-3-3.6-5.2c-0.5-1.5-0.7-4.3-0.7-8.3V252.3z"/>
        <path class="st1" d="M68.9,252.3h6.3v2.6c1.4-1.2,2.7-2.1,3.9-2.5c1.2-0.5,2.4-0.7,3.6-0.7c2.5,0,4.6,0.9,6.4,2.6
		c1.5,1.5,2.2,3.7,2.2,6.6v16.7H85v-11c0-3-0.1-5-0.4-6c-0.3-1-0.7-1.7-1.4-2.3c-0.7-0.5-1.5-0.8-2.5-0.8c-1.3,0-2.4,0.4-3.3,1.3
		c-0.9,0.9-1.6,2-1.9,3.6c-0.2,0.8-0.3,2.5-0.3,5.1v10.1h-6.3V252.3z"/>
        <path class="st1" d="M116,252.3h6.3v25.2H116v-2.7c-1.2,1.2-2.5,2-3.7,2.5c-1.2,0.5-2.6,0.8-4,0.8c-3.3,0-6.1-1.3-8.4-3.8
		c-2.4-2.5-3.6-5.7-3.6-9.4c0-3.9,1.2-7.1,3.4-9.6c2.3-2.5,5.1-3.7,8.4-3.7c1.5,0,2.9,0.3,4.3,0.9c1.3,0.6,2.6,1.4,3.7,2.6V252.3z
		 M109.4,257.5c-2,0-3.6,0.7-4.9,2.1c-1.3,1.4-1.9,3.2-1.9,5.3c0,2.2,0.7,4,2,5.4c1.3,1.4,2.9,2.1,4.9,2.1c2,0,3.6-0.7,4.9-2.1
		s2-3.2,2-5.4c0-2.2-0.7-4-2-5.3C113,258.2,111.4,257.5,109.4,257.5"/>
        <path class="st1" d="M147.4,252.3h6.3v21.6c0,4.3-0.9,7.4-2.6,9.4c-2.3,2.7-5.8,4.1-10.4,4.1c-2.5,0-4.5-0.3-6.2-0.9
		c-1.7-0.6-3.1-1.5-4.3-2.7c-1.2-1.2-2-2.7-2.6-4.4h7c0.6,0.7,1.4,1.2,2.4,1.6c1,0.4,2.1,0.5,3.5,0.5c1.7,0,3.1-0.3,4.1-0.8
		c1-0.5,1.8-1.2,2.2-2c0.4-0.8,0.6-2.3,0.6-4.3c-1.1,1.1-2.3,1.9-3.5,2.4c-1.2,0.5-2.6,0.7-4.1,0.7c-3.4,0-6.2-1.2-8.6-3.7
		c-2.3-2.4-3.5-5.5-3.5-9.3c0-4,1.2-7.2,3.7-9.6c2.2-2.2,4.9-3.3,8-3.3c1.5,0,2.8,0.3,4.1,0.8c1.3,0.5,2.6,1.4,3.9,2.6V252.3z
		 M140.8,257.6c-2,0-3.6,0.7-4.9,2c-1.3,1.3-1.9,3-1.9,5c0,2.1,0.7,3.8,2,5.2c1.3,1.3,3,2,5,2c2,0,3.6-0.7,4.9-2
		c1.3-1.3,1.9-3,1.9-5.2c0-2.1-0.6-3.8-1.9-5.1C144.5,258.2,142.8,257.6,140.8,257.6"/>
        <path class="st1" d="M160,252.3h6.4v12.1c0,2.4,0.2,4,0.5,4.9c0.3,0.9,0.8,1.6,1.6,2.1c0.7,0.5,1.6,0.8,2.7,0.8
		c1.1,0,1.9-0.3,2.7-0.8c0.7-0.5,1.3-1.2,1.6-2.2c0.3-0.7,0.4-2.3,0.4-4.7v-12.4h6.3V263c0,4.4-0.3,7.4-1,9c-0.9,2-2.1,3.5-3.8,4.6
		c-1.7,1.1-3.8,1.6-6.3,1.6c-2.8,0-5-0.6-6.7-1.9c-1.7-1.2-2.9-3-3.6-5.2c-0.5-1.5-0.7-4.3-0.7-8.3V252.3z"/>
        <path class="st1" d="M262.2,252.3v2.8c1.1-1.1,2.4-2,3.7-2.6c1.3-0.6,2.8-0.9,4.3-0.9c3.3,0,6.1,1.2,8.4,3.7
		c2.3,2.5,3.5,5.7,3.5,9.6c0,3.8-1.2,6.9-3.6,9.4c-2.4,2.5-5.2,3.8-8.5,3.8c-1.5,0-2.8-0.3-4.1-0.8c-1.3-0.5-2.5-1.4-3.7-2.5v11.9
		h-6.3v-34.4H262.2z M268.9,257.5c-2,0-3.6,0.7-5,2c-1.3,1.4-2,3.1-2,5.3c0,2.2,0.7,4.1,2,5.4c1.3,1.4,3,2.1,5,2.1
		c1.9,0,3.6-0.7,4.9-2.1c1.3-1.4,2-3.2,2-5.4c0-2.2-0.6-3.9-1.9-5.3C272.5,258.2,270.8,257.5,268.9,257.5"/>
        <path class="st1" d="M305.9,252.3h6.3v25.2h-6.3v-2.7c-1.2,1.2-2.5,2-3.7,2.5c-1.2,0.5-2.6,0.8-4,0.8c-3.3,0-6.1-1.3-8.4-3.8
		c-2.4-2.5-3.6-5.7-3.6-9.4c0-3.9,1.1-7.1,3.4-9.6c2.3-2.5,5.1-3.7,8.4-3.7c1.5,0,2.9,0.3,4.3,0.9c1.3,0.6,2.6,1.4,3.7,2.6V252.3z
		 M299.2,257.5c-2,0-3.6,0.7-4.9,2.1c-1.3,1.4-1.9,3.2-1.9,5.3c0,2.2,0.7,4,2,5.4c1.3,1.4,2.9,2.1,4.9,2.1c2,0,3.6-0.7,4.9-2.1
		c1.3-1.4,2-3.2,2-5.4c0-2.2-0.7-4-2-5.3C302.9,258.2,301.2,257.5,299.2,257.5"/>
        <path class="st1" d="M243,252.3h6.3v25.2H243v-2.7c-1.2,1.2-2.5,2-3.7,2.5c-1.2,0.5-2.6,0.8-4,0.8c-3.3,0-6.1-1.3-8.4-3.8
		c-2.4-2.5-3.6-5.7-3.6-9.4c0-3.9,1.1-7.1,3.4-9.6c2.3-2.5,5.1-3.7,8.4-3.7c1.5,0,2.9,0.3,4.3,0.9c1.3,0.6,2.6,1.4,3.7,2.6V252.3z
		 M236.3,257.5c-2,0-3.6,0.7-4.9,2.1c-1.3,1.4-1.9,3.2-1.9,5.3c0,2.2,0.7,4,2,5.4c1.3,1.4,2.9,2.1,4.9,2.1c2,0,3.6-0.7,4.9-2.1
		c1.3-1.4,2-3.2,2-5.4c0-2.2-0.7-4-2-5.3C240,258.2,238.3,257.5,236.3,257.5"/>
        <path class="st1" d="M318.6,252.3h6.3v2.6c1.4-1.2,2.7-2.1,3.9-2.5c1.2-0.5,2.4-0.7,3.6-0.7c2.5,0,4.6,0.9,6.4,2.6
		c1.5,1.5,2.2,3.7,2.2,6.6v16.7h-6.3v-11c0-3-0.1-5-0.4-6c-0.3-1-0.7-1.7-1.4-2.3c-0.7-0.5-1.5-0.8-2.5-0.8c-1.3,0-2.4,0.4-3.3,1.3
		c-0.9,0.9-1.6,2-1.9,3.6c-0.2,0.8-0.3,2.5-0.3,5.1v10.1h-6.3V252.3z"/>
        <polygon class="st1" points="205.3,278.8 194.5,278.8 194.5,271.6 202.4,271.6 210,264 210,244.7 202.9,244.7 202.9,237.5
		217.2,237.5 217.2,266.9 	"/>
    </g>
</svg>