<?xml version="1.0" encoding="UTF-8"?>
<svg id="b" data-name="mail1" xmlns="http://www.w3.org/2000/svg" width="196" height="196" viewBox="0 0 196 196">
  <g id="c" data-name="mail2">
    <g>
      <circle cx="98" cy="98" r="98" fill="#f2a900"/>
      <g>
        <polygon points="130.81628 66 65.18365 66 98 93.89386 130.81628 66" fill="none"/>
        <path d="M100.82843,101.98926c-.78107,.66388-1.80475,.99579-2.82843,.99579s-2.04736-.33191-2.82843-.99579l-38.97803-33.13135c-.11389,.3656-.19354,.74463-.19354,1.14209v56c0,2.16821,1.83179,4,4,4h76c2.16821,0,4-1.83179,4-4v-56c0-.39746-.07965-.77649-.19354-1.14209l-38.97803,33.13135Z" fill="none"/>
        <path d="M146.07935,63.52594c-1.50891-2.33575-3.79785-4.12506-6.49854-4.97577-1.13214-.35663-2.33484-.55017-3.58081-.55017H60c-1.24597,0-2.44867,.19354-3.58081,.55017-2.70068,.85071-4.98969,2.64008-6.49854,4.97577-1.20923,1.87189-1.92065,4.0921-1.92065,6.47406v56c0,6.59998,5.40002,12,12,12h76c6.60004,0,12-5.40002,12-12v-56c0-2.38196-.71143-4.60217-1.92065-6.47406Zm-15.26306,2.47406l-32.81628,27.89386-32.81635-27.89386h65.63263Zm9.18372,60c0,2.16821-1.83179,4-4,4H60c-2.16821,0-4-1.83179-4-4v-56c0-.39746,.07965-.77649,.19354-1.14209l38.97803,33.13135c.78107,.66388,1.80475,.99579,2.82843,.99579s2.04736-.33191,2.82843-.99579l38.97803-33.13135c.11389,.3656,.19354,.74463,.19354,1.14209v56Z" fill="#fff"/>
      </g>
    </g>
  </g>
</svg>
