<?xml version="1.0" encoding="UTF-8"?>
<svg id="b" data-name="ico-sns-pin" xmlns="http://www.w3.org/2000/svg" width="100" height="100" viewBox="0 0 100 100">
  <g id="c" data-name="g-ico-sns-pin">
    <g>
      <circle cx="50.00388" cy="49.99992" r="49.99591" fill="#fff"/>
      <path d="M49.99987,0C22.38579,0,0,22.38579,0,49.99987c0,21.18234,13.179,39.29076,31.77881,46.57606-.43733-3.95606-.83208-10.04011,.17338-14.3587,.9083-3.90221,5.8631-24.85345,5.8631-24.85345,0,0-1.49576-2.99506-1.49576-7.42334,0-6.95238,4.02968-12.1429,9.04716-12.1429,4.2657,0,6.32648,3.20273,6.32648,7.04319,0,4.28991-2.73143,10.70358-4.14119,16.64769-1.17791,4.97671,2.49579,9.03511,7.40424,9.03511,8.88687,0,15.71777-9.37037,15.71777-22.89637,0-11.97145-8.60225-20.34182-20.88523-20.34182-14.22649,0-22.57705,10.67076-22.57705,21.69862,0,4.2973,1.65546,8.90557,3.72097,11.41049,.40832,.49495,.46841,.92899,.34686,1.434-.37968,1.57947-1.22315,4.97553-1.38876,5.67039-.2182,.91536-.72472,1.10932-1.67201,.66873-6.24514-2.90695-10.1492-12.03668-10.1492-19.37018,0-15.77251,11.45964-30.25707,33.03674-30.25707,17.34484,0,30.82439,12.35955,30.82439,28.87752,0,17.23189-10.86524,31.09999-25.94588,31.09999-5.0663,0-9.82954-2.63209-11.45987-5.74132,0,0-2.50698,9.54659-3.11484,11.88593-1.12916,4.34306-4.17623,9.78704-6.21454,13.10786,4.67846,1.4483,9.64996,2.22972,14.8043,2.22972,27.61438,0,50.00013-22.38575,50.00013-50.00013S77.61425,0,49.99987,0Z" fill="#dd001b"/>
    </g>
  </g>
</svg>
