<?xml version="1.0" encoding="UTF-8"?>
<svg id="logo-poj" data-name="log-poj" xmlns="http://www.w3.org/2000/svg" width="872.27529" height="102.612" viewBox="0 0 872.27529 102.612">
  <g id="logo">
    <g>
      <g>
        <path d="M135.11971,54.97137l.00809,3.40138,.01271,3.39241-.01296,3.38847,.00426,3.39229-.00254,3.39276,.00888,3.39362-.0048,3.39909-.01137,3.39246-3.11412-.00665-3.12213-.0011-3.12716,.02681-3.11699-.02142-.00417-3.52997-.01669-3.538-.00365-3.5387,.00274-3.53846,.0155-3.53947,.00367-3.53476,.00158-3.53879-.01921-3.53486-.00439-3.53899,.02349-3.53702-.02022-3.54036,.00966-3.53821-.00396-3.53997,.00276-3.5415,.00142-3.5415,.00706-3.53739-.00287-3.54138,.00282-3.54187,.00778-3.54277-.01289-3.54848-.00512-3.55306,3.6198,.00769,3.61536,.00578,3.61433-.00394,3.61483-.0047,3.61574,.00104,3.62157-.0139,3.62157,.01202,3.41541,.12257,3.40044,.35073,3.34686,.68119,3.25794,1.02045,3.11582,1.39241,2.8488,1.87711,2.51978,2.29537,2.06739,2.7087,1.58234,3.02027,1.03719,3.24863,.59209,3.36033,.16715,3.41011-.17646,3.42063-.58675,3.37137-1.05673,3.2552-1.57745,3.03455-2.05381,2.73423-2.51127,2.32231-2.86083,1.87344-3.09088,1.46191-3.26244,1.02947-3.35017,.68974-3.40188,.38067-3.42256,.14182-3.20204-.01823-3.20285,.00725-3.20801-.00403-3.2175-.00679Zm11.5376-10.75195l3.39667-.15904,3.35205-.54037,3.21377-1.07695,2.81394-1.87582,2.02933-2.69844,1.05333-3.21221,.29757-3.37875-.30052-3.33579-1.11876-3.15111-2.07919-2.61372-2.82824-1.77603-3.16756-1.07925-3.31031-.50975-3.35207-.12935-3.83858,.00365-3.84477-.00274-3.84745-.01443-.00489,3.6489-.00158,3.64614,.01921,3.64509,.00439,3.6456-.02349,3.64652,.02022,3.6524-.01013,3.65131,3.83754-.00437,3.84477,.00276,3.84477,.01575Z" fill="#fff"/>
        <path d="M227.35017,73.94365l-2.15844,3.06446-2.78134,2.51168-3.29516,1.78046-3.58222,1.10883-3.71352,.53255-3.75285,.15915-3.48943-.18036-3.43866-.59155-3.32581-1.05262-3.12524-1.54489-2.80714-2.06787-2.39182-2.53583-1.91078-2.91407-1.42962-3.17897-.9655-3.34984-.53009-3.44819-.18324-3.48548,.00667-3.66316,.00624-3.66316,.10801-3.38234,.4275-3.35452,.764-3.29115,1.16997-3.16808,1.67702-2.92958,2.16341-2.58879,2.63737-2.10375,2.99228-1.55929,3.21281-1.03469,3.3335-.54261,3.37472-.18813,3.4298,.18503,3.38047,.57243,3.2574,1.06756,3.0164,1.62252,2.61869,2.20429,2.13579,2.67532,1.58617,3.03418,1.13365,3.23334,.69721,3.35618,.38916,3.40799,.1085,3.43064,.01358,2.96281,.00249,2.97008-3.5827-.00697-3.57823-.00787-3.57823,.00213-3.57829,.01017-3.57726-.00051-3.57776-.0105-3.57867,.00859-3.58444-.00142-3.58449-.00182-.00582,.21644,.22511,3.59501,.76261,3.51611,1.51663,3.25613,2.44821,2.61499,3.23134,1.54662,3.56561,.45325,3.23138-.20518,3.1254-.82796,2.70792-1.74299,2.03112-2.50542,2.87188,2.00389,2.87208,2.01582,2.87462,2.0109Zm-31.35106-24.77928l3.42465-.01034,3.42774-.00036,3.42821,.01471,3.42908-.01401,3.43461,.01314,3.43438-.00579-.43483-3.51865-1.09372-3.36637-2.10318-2.8299-3.09944-1.66645-3.50379-.465-3.48896,.49448-3.06538,1.71319-2.11688,2.81034-1.16429,3.32855-.5082,3.50247Z" fill="#fff"/>
        <path d="M285.42892,58.53559l-.14863,3.46979-.46635,3.43838-.84485,3.36663-1.30925,3.2113-1.78267,2.97111-2.2772,2.61169-2.74318,2.11552-3.08368,1.57895-3.30435,1.04426-3.41878,.58482-3.46783,.17603-3.46913-.18307-3.41483-.60377-3.30042-1.06416-3.07778-1.59262-2.73843-2.12173-2.30311-2.58781-1.81855-2.94953-1.30521-3.21117-.88441-3.35132-.47767-3.4361-.15536-3.46719,.00449-3.39369-.01863-3.39369,.16274-3.47192,.46096-3.44098,.85357-3.36432,1.31398-3.20874,1.7935-2.96691,2.31602-2.57979,2.76113-2.09437,3.09974-1.55055,3.30616-1.04271,3.42415-.56005,3.46711-.18251,3.46459,.16967,3.41448,.5843,3.30944,1.02291,3.08648,1.56856,2.75293,2.09706,2.29432,2.59073,1.78125,2.96469,1.29609,3.20857,.84775,3.35702,.45606,3.43504,.12782,3.4643,.01446,3.39369,.00112,3.3937Zm-11.43261-.32313l.00373-3.12437-.00204-3.12437-.20563-3.51865-.69652-3.45266-1.45688-3.20163-2.4016-2.55184-3.16467-1.49787-3.49056-.43209-3.50393,.42566-3.18459,1.49522-2.41654,2.55071-1.48231,3.1986-.74318,3.45155-.20136,3.53301,.00041,3.12437-.00167,3.12437,.19689,3.58726,.70643,3.51742,1.42343,3.28735,2.41935,2.62798,3.22461,1.52986,3.56247,.42934,3.51676-.46867,3.14741-1.61264,2.36723-2.62793,1.44465-3.24183,.73249-3.47686,.20563-3.55129Z" fill="#fff"/>
        <path d="M343.91758,58.75111l-.1697,3.65444-.50973,3.62324-.97535,3.52438-1.42478,3.36684-1.99395,3.0632-2.5382,2.62588-3.01328,2.06381-3.37863,1.38801-3.56491,.79583-3.64966,.25785-3.5412-.20085-3.47972-.65896-3.2645-1.36172-2.76506-2.21463,.00268,3.41968-.00284,3.41133,.00691,3.41518,.00224,3.41565-.0012,3.41652,.00872,3.42202,.00764,3.43319-3.84854-.02564-3.84477,.02342-3.84974-.00355,.01241-3.54436-.01552-3.538,.01019-3.5387-.01624-3.53846,.02399-3.53947-.01535-3.53476,.00325-3.53879-.00164-3.53486-.01038-3.53899,.0089-3.53702,.00838-3.54036,.01057-3.53821-.00232-3.53997-.02505-3.5415,.01477-3.5415-.00328-3.53739-.00865-3.54138,.00748-3.54187,.01327-3.54277-.02415-3.54848,.01097-3.55212,3.84195-.00838,3.84477-.0015,3.8548,.00458,.00122,4.31611,2.67136-2.47419,3.25101-1.67173,3.55483-.86064,3.65559-.25975,3.62013,.24647,3.54596,.77055,3.34647,1.40051,3.00859,2.02486,2.53932,2.59045,1.97417,3.04094,1.45355,3.32282,.94642,3.50295,.50769,3.59474,.18148,3.62874-.01452,3.66315,.00115,3.66317Zm-11.4074-.53864l.00481-3.12437-.02069-3.12437-.17951-3.52123-.73616-3.44439-1.44729-3.20165-2.38935-2.56223-3.17154-1.48044-3.48712-.45496-3.38834,.41568-3.09349,1.41129-2.40533,2.39867-1.50014,3.06055-.77105,3.32264-.27672,3.40947,.00334,3.44769-.00284,3.44765,.19279,3.5786,.67693,3.51511,1.4091,3.2845,2.39304,2.63711,3.21597,1.51315,3.54675,.46177,3.51201-.49588,3.15424-1.59377,2.36426-2.63116,1.4362-3.24417,.7434-3.47377,.21673-3.55149Z" fill="#fff"/>
        <path d="M356.74478,7.79113l3.83801-.00885,3.84472,.01223,3.84547-.00479-.01105,3.41611-.00114,3.41916,.01077,3.41536,.0023,3.41935-.00219,3.41744,.00256,3.42067-.00479,3.4186,.00216,3.42029,.00683,3.42178-.01696,3.42177,.0195,3.4178,.00496,3.42166-.00214,3.42213-.00724,3.423-.01173,3.42851,.00417,3.42851,.23667,3.66896,1.30647,3.39104,3.0153,1.96718,3.63006,.45527,.00847,3.37091-.0202,3.37762,.02082,3.37976-3.37083-.09004-3.34352-.36352-3.28011-.72147-3.10659-1.26729-2.69852-1.98534-1.9674-2.70513-1.22527-3.12048-.58216-3.30535-.15879-3.35862,.00895-3.58334,.01077-3.58742-.01903-3.58344,.00441-3.58763-.00697-3.58562,.01249-3.58902-.01458-3.58684,.00162-3.58862,.02015-3.59017-.01506-3.59017-.00658-3.59023,.02013-3.5892-.01396-3.5897-.00501-3.59061,.01647-3.5964-.00242-3.59583Z" fill="#fff"/>
        <path d="M430.43253,73.94556l-2.15683,3.0616-2.78466,2.50639-3.28495,1.80083-3.58893,1.09048-3.71207,.54298-3.75339,.14769-3.4892-.17726-3.44189-.57679-3.32679-1.05531-3.12332-1.55143-2.79785-2.07944-2.40551-2.52256-1.90834-2.91698-1.42576-3.1811-.97314-3.3482-.52514-3.4496-.17824-3.48577-.00707-3.66316,.01732-3.66316,.11128-3.38213,.41728-3.35602,.76086-3.293,1.18001-3.16519,1.66951-2.93489,2.1789-2.57561,2.62781-2.11466,2.99403-1.55694,3.21374-1.03149,3.3323-.55124,3.37539-.18251,3.43072,.17703,3.3795,.5814,3.26391,1.05209,3.00517,1.64485,2.62399,2.1967,2.13017,2.67912,1.60939,3.02315,1.10975,3.24265,.71024,3.35345,.39177,3.40844,.11158,3.43133,.0049,2.96281-.004,2.96738-3.58047-.01416-3.57823,.00683-3.57823,.00632-3.57829-.01279-3.57726,.02009-3.57776-.01253-3.57867,.00466-3.58444-.0127-3.58501,.00018,.0096,.22505,.20971,3.59507,.7637,3.51586,1.50764,3.26179,2.44963,2.61903,3.23808,1.53791,3.56584,.45031,3.23035-.21028,3.12693-.81952,2.70885-1.74266,2.02986-2.50748,2.8763,1.99788,2.87314,2.01432,2.86629,2.02085Zm-31.34953-24.77809l3.42581-.01199,3.42774,.00584,3.42821-.00821,3.42908,.00558,3.43461,.00259,3.43624,.00535-.43458-3.52399-1.1075-3.36027-2.09855-2.82752-3.09353-1.6707-3.50266-.47971-3.48648,.51324-3.06482,1.70876-2.11978,2.807-1.15666,3.33025-.51713,3.50378Z" fill="#fff"/>
        <path d="M518.137,58.53559l-.15314,3.46898-.47022,3.43666-.83528,3.36796-1.29894,3.21574-1.78864,2.96831-2.27768,2.61138-2.73887,2.12238-3.09146,1.56372-3.29827,1.06402-3.42144,.57405-3.46791,.18149-3.46877-.19264-3.41839-.58734-3.29708-1.07765-3.07907-1.59046-2.73583-2.12509-2.3145-2.57892-1.79328-2.96457-1.3388-3.19739-.85588-3.35938-.50547-3.4325-.13694-3.46876-.01064-3.39369,.01248-3.39369,.13281-3.47303,.48149-3.43843,.84529-3.36599,1.29841-3.21665,1.81941-2.95166,2.31471-2.5779,2.75262-2.10375,3.10199-1.54518,3.30685-1.03627,3.42025-.58331,3.46835-.17562,3.46452,.17525,3.41753,.57092,3.30535,1.03841,3.0876,1.56578,2.75087,2.09929,2.28759,2.59494,1.80067,2.95301,1.27611,3.2168,.83951,3.35734,.47708,3.43145,.14355,3.46459-.02038,3.3937,.01184,3.39369Zm-11.42272-.32313l.00827-3.12437,.00203-3.12437-.21528-3.51912-.70741-3.45003-1.4505-3.2034-2.40109-2.55211-3.16674-1.49002-3.4884-.44896-3.50086,.446-3.18722,1.4844-2.41177,2.5535-1.49072,3.19417-.7266,3.45423-.21517,3.53135,.00292,3.12437-.00595,3.12437,.21126,3.58586,.67769,3.52373,1.4562,3.27231,2.39687,2.64665,3.2354,1.50445,3.55795,.44724,3.51278-.48323,3.16181-1.58566,2.34581-2.64823,1.46305-3.23267,.72437-3.47925,.21129-3.5512Z" fill="#fff"/>
        <path d="M533.42995,28.257l.01752-3.33581,.1378-3.59606,.55222-3.55103,1.19269-3.38328,2.11394-2.88744,2.98526-1.97388,3.41473-1.0981,3.55397-.51525,3.59703-.11814,3.33388-.00147,.01938,3.43797-.00356,3.4495-.00373,3.45376-2.48392,.00706-3.32413,.38562-2.59456,1.99623-.92577,3.19665-.16573,3.3524,.01123,1.17427,3.15285,.01565,3.16204-.00078,3.17257-.01405-.00398,3.31061-.01563,3.30584,.00421,3.30119-3.15208-.00218-3.16204,.01891-3.15129-.00201-.01166,3.369,.00353,3.37717-.01153,3.38036,.02348,3.37831-.00609,3.37999-.02148,3.38145,.0227,3.38145-.00238,3.37752-.00713,3.38133,.00106,3.3818-.00487,3.38266,.00458,3.38811-.00029,3.38885-3.80336-.01222-3.80883-.00146-3.80644,.01024-.01262-3.37636,.01922-3.37717-.00401-3.38036,.00304-3.37831-.00893-3.37999-.00965-3.38145,.01378-3.38145,.00903-3.37752-.00344-3.38133-.00858-3.3818-.00586-3.38266,.004-3.38811,.01131-3.39795-3.45731,.01282-3.45475,.00443,.00154-3.30794,.01363-3.30584-.01201-3.30995,3.4516,.01616,3.44383-.01598Z" fill="#fff"/>
        <path d="M598.83288,66.8433l2.1392,2.29516,2.63074,1.72592,2.97363,1.03008,3.13495,.33844,3.3622-.31219,3.19769-1.05071,2.64021-2.07637,1.82732-2.82242,1.11209-3.1868,.60511-3.32311,.31935-3.3619,.07992-3.38152,.00116-3.45362-.01479-3.45169,.01239-3.45496-.0022-3.45286,.01689-3.45457-.01793-3.45607-.00687-3.45606,.00925-3.45205,.01468-3.45595-.00129-3.45643-.00075-3.4573-.00147-3.46287-.00748-3.46157,3.11989,.0069,3.12213-.01107,3.12716-.001,3.12473,.00606-.00319,3.45142-.00538,3.45169,.00429,3.45496-.00139,3.45286-.0022,3.45457,.02064,3.45607-.01962,3.45606,.0143,3.45205-.00363,3.45595,.0021,3.45643,.00075,3.4573-.00218,3.46287,.01023,3.46287-.08791,3.47889-.28095,3.46602-.49848,3.44615-.7937,3.38894-1.13179,3.28763-1.56257,3.10296-1.99848,2.83726-2.46478,2.44092-2.86541,1.95628-3.16936,1.4174-3.35117,.90596-3.43834,.49415-3.47255,.14669-3.60016-.16478-3.56286-.54255-3.46213-.99978-3.29823-1.44761-3.03888-1.93509-2.66445-2.42377-2.25371-2.82512,3.48577-1.97035,3.48947-1.96914,3.48802-1.96565Z" fill="#fff"/>
        <path d="M669.72017,50.33801l3.87441,.01103,3.88066-.00486,3.88896,.01044,.00215-4.53204-.27911-3.22316-1.31046-2.92239-2.67842-1.73765-3.16791-.60675-3.24062-.12706-3.26595,.11175-3.20262,.5834-2.79732,1.62722-2.04516,2.5176-2.76943-1.92332-2.76221-1.94684-2.76266-1.94398,1.95971-2.70248,2.4443-2.27629,2.86636-1.71273,3.1389-1.14362,3.27402-.68391,3.3294-.32003,3.34683-.10357,3.64336,.11376,3.62458,.40342,3.54435,.84538,3.326,1.47111,2.87113,2.22338,2.10155,2.9618,1.29699,3.39876,.63779,3.58243,.182,3.64139-.0015,3.616-.00428,3.61779-.00224,3.61936-.00102,3.61936,.00879,3.61942-.00988,3.61838,.00514,3.61889-.00305,3.6198,.00437,3.62564,.00406,3.62942-3.77047-.00617-3.77289,.00284-3.7791,.00427,.00051-4.95966-2.2676,2.84156-3.06011,1.94905-3.5168,.9197-3.64743,.21053-3.61008-.19683-3.54886-.67129-3.39179-1.23452-3.0661-1.90268-2.49874-2.59654-1.77713-3.13414-.99347-3.4672-.29741-3.60025,.32035-3.62909,1.07663-3.47325,1.95971-3.05542,2.72576-2.39531,3.23177-1.66148,3.48967-1.02493,3.59947-.55686,3.64213-.1586Zm11.63018,8.85183l-3.58186-.00924-3.5932,.00486-3.5932-.01426-3.41224,.25146-3.2366,1.07539-2.29207,2.4629-.65514,3.33199,.66374,3.18534,2.1844,2.38568,3.05232,1.13616,3.26457,.30295,3.73682-.29465,3.51942-1.23229,2.51711-2.71766,1.15252-3.55209,.283-3.73868-.00957-2.57788Z" fill="#fff"/>
        <path d="M755.58961,58.75111l-.1555,3.65661-.53939,3.6198-.96536,3.52695-1.42627,3.36676-1.99134,3.06586-2.53549,2.63104-3.02966,2.03852-3.3664,1.41537-3.56977,.77439-3.64822,.24077-3.54055-.17951-3.48145-.64934-3.25815-1.37451-2.74794-2.19841-.02291,3.41271,.02322,3.41133-.01465,3.41518-.00348,3.41565-.0018,3.41652-.00007,3.42202,.00698,3.41712-3.83422-.00822-3.84477,.01726-3.84981,.00133-.00176-3.54443,.00148-3.538,.01757-3.5387-.02483-3.53846,.01965-3.53947-.01562-3.53476,.01679-3.53879-.013-3.53486-.00449-3.53899,.01906-3.53702-.00729-3.54036,.01195-3.53821-.00974-3.53997,.00175-3.5415-.00444-3.5415,.00637-3.53739-.00848-3.54138,.01275-3.54187-.01227-3.54277,.01292-3.54848-.00551-3.54002,3.83077-.01879,3.84477,.02135,3.84469-.01094,.00275,4.30903,2.68199-2.47319,3.25448-1.65947,3.54562-.90083,3.65929-.24047,3.6239,.22523,3.53829,.80997,3.34829,1.39192,2.99842,2.03565,2.53245,2.59105,1.99891,3.02265,1.43815,3.3292,.95225,3.50037,.5202,3.59315,.16654,3.62953-.00549,3.66316,.00789,3.66316Zm-11.42599-.53864l-.00949-3.12437,.0092-3.12437-.18981-3.52075-.73469-3.44409-1.45008-3.19901-2.39105-2.55605-3.15977-1.50782-3.49194-.42553-3.39098,.39393-3.10644,1.39879-2.39482,2.41776-1.49163,3.06523-.78509,3.31997-.24254,3.41106-.0233,3.44762,.02322,3.44765,.17123,3.57843,.6714,3.51644,1.40906,3.28585,2.38904,2.64553,3.21851,1.52298,3.55233,.43964,3.51337-.48993,3.15283-1.59847,2.35226-2.63861,1.45096-3.2358,.75087-3.47331,.19733-3.55277Z" fill="#fff"/>
        <path d="M787.90746,50.34751l3.87451,.003,3.88076-.01231,3.88625,.01401-.00556-4.52963-.27347-3.22221-1.29277-2.93424-2.69713-1.70982-3.16295-.61618-3.23996-.12847-3.26571,.10839-3.19832,.5943-2.80226,1.61315-2.04706,2.5269-2.759-1.94363-2.76614-1.9411-2.76583-1.93881,1.96946-2.69269,2.43873-2.2788,2.85908-1.72413,3.14266-1.1331,3.27365-.68107,3.32773-.33465,3.34716-.09198,3.64258,.12013,3.62585,.38871,3.54495,.84487,3.33343,1.45982,2.85851,2.24189,2.10961,2.95577,1.27537,3.40547,.65551,3.57772,.17835,3.64139,.0105,3.616-.01943,3.61779,.01268,3.61936,.00087,3.61936,.00172,3.61942,.00094,3.61838-.01163,3.61889-.00292,3.6198-.00277,3.62564,.0149,3.63002-3.77104-.00489-3.77289,.00843-3.76794-.01169,.00351-4.9537-2.27422,2.85228-3.0631,1.95212-3.52183,.90584-3.6471,.22618-3.60987-.21163-3.54965-.66732-3.3897-1.23986-3.06687-1.90045-2.51036-2.5875-1.76416-3.14313-.99706-3.46608-.28475-3.60051,.3021-3.63038,1.07966-3.47376,1.95026-3.0652,2.73124-2.39565,3.24228-1.64295,3.48547-1.03907,3.60226-.53625,3.64091-.16217Zm11.63603,8.83463l-3.58747-.003-3.59325,.01231-3.59325-.01653-3.41052,.25812-3.23588,1.06931-2.30982,2.45148-.62195,3.33912,.65263,3.18207,2.18083,2.38379,3.04964,1.13866,3.26404,.29132,3.73696-.27968,3.51454-1.2407,2.53428-2.70321,1.14712-3.55761,.27705-3.73986-.00495-2.58559Z" fill="#fff"/>
        <path d="M827.99253,28.26857l3.75953-.01331,3.77289-.00137,3.76864,.01035,.00037,4.84576,2.6323-2.7156,3.29577-1.84538,3.65114-.97818,3.78422-.28476,3.65252,.21734,3.57714,.75326,3.38655,1.36614,3.00092,2.07866,2.40336,2.74546,1.73641,3.21028,1.09568,3.48663,.58677,3.60765,.17307,3.65666-.00594,3.36848-.00572,3.37015-.00184,3.37161,.00746,3.37161,.00623,3.36769-.0003,3.37149-.00982,3.37196,.01539,3.37281-.00753,3.37825,.00549,3.38641-3.81-.00867-3.80888,.00815-3.81091-.0055,.00239-3.60275,.00456-3.60217,.00451-3.60217-.00486-3.60223-.00141-3.6012-.00311-3.6017,.01061-3.60261-.01479-3.60842-.00559-3.60842-.24316-3.65206-.98047-3.5175-2.14237-2.93415-3.23794-1.63633-3.62137-.4247-3.66356,.4888-3.29086,1.66205-2.4255,2.77441-1.3309,3.44639-.39083,3.68549,.00421,3.61256-.00293,3.61413-.00626,3.61412,.011,3.61418-.00616,3.61315,.01542,3.61365-.00522,3.61456,.00033,3.62039-.00405,3.62227-3.84036,.00381-3.84477-.01081-3.83975-.00026,.00371-3.58392,.0003-3.58531-.01437-3.5895,.01078-3.58749-.00557-3.59089-.00758-3.58871,.01083-3.59049,.00022-3.59205,.00533-3.59204-.01127-3.5921,.01351-3.59107-.01462-3.59157-.00606-3.59248,.01978-3.59826-.00272-3.59065Z" fill="#fff"/>
      </g>
      <path d="M87.56747,79.17301l-2.43413-2.32995-2.41432-2.35227-2.4265-2.34513-2.42577-2.34657-2.42625-2.34729-2.44778-2.33282-2.41291-2.36111,2.01786-2.9702,1.74921-3.15283,1.44479-3.30273,1.16124-3.41342,.81931-3.5113,.50421-3.57159,.16637-3.60387-.14453-3.41949-.46455-3.38992-.74467-3.33802-1.01506-3.26677-1.30319-3.16424-1.61023-3.01867-1.84507-2.87907-2.08303-2.71162-2.30621-2.52505-2.52578-2.3053-2.69477-2.10676-2.89025-1.82977-3.03621-1.57339-3.15528-1.3179-3.26255-1.02475-3.33394-.76242-3.39306-.44273-3.41869-.15608-3.41929,.15083-3.39203,.4514-3.33605,.75576-3.26718,1.01392-3.15821,1.31632-3.02196,1.60226-2.89554,1.82094-2.70296,2.09668-2.52841,2.30393-2.31147,2.52205-2.08949,2.70902-1.8193,2.8961-1.60977,3.01782-1.29279,3.16694-1.03309,3.26024-.74401,3.33788-.45437,3.39109L.00602,39.23194l.14802,3.41759,.42265,3.39535,.74218,3.34055,1.03139,3.26301,1.31123,3.16115,1.59727,3.02602,1.83564,2.88712,2.08853,2.70992,2.32871,2.50507,2.51329,2.31889,2.70503,2.09353,2.89301,1.8237,3.01585,1.61399,3.16356,1.30326,3.2617,1.03298,3.34362,.71897,3.39017,.45416,3.41784,.14724,3.34785-.12824,3.31965-.45213,3.27735-.69207,3.20009-.99007,3.10424-1.25838,2.98386-1.52263,2.84742-1.76458,2.67528-2.0142,2.41621,2.33982,2.42088,2.34196,2.43192,2.33599,2.4186,2.35047,2.44372,2.32567,2.4182,2.35994,2.43657,2.34401,2.18798-2.29291,2.22216-2.26382,2.19978-2.29025Zm-30.12838-16.4967l-.0151-3.25389-.68628-4.03747-.69985-4.03627-1.05059-3.8643-2.45836-1.76158-2.46631-1.03371-2.44498-1.07378-3.51886-2.44058-1.05388-1.22531-.70469,.53842-1.04653-1.06979-.35335-1.40255-.34066-1.403,.70322-2.10245,.34912-.69429,1.03905-.36581,.34483-1.75162-.24081-1.40539-.43646-.23829-.02633-.43563-.00395-3.88601-.69768-2.09785-1.39551-1.75581-2.68415-1.04365-3.27974-.02679-2.80274,1.4177-1.74261,1.66708-.00491,2.90942,.00573,2.94113-.11308-.02077-.90765,1.96016,.70088,1.91471,.82098,1.08944,1.76026,3.15329,.36673,4.91415-2.03337,2.18641-2.01516,2.19513-2.79558,1.94665-2.82409,1.9117-.33803,3.33853-.36183,3.33203-1.39011,4.69487-2.45067-2.22424-2.2211-2.46032-1.88972-2.72295-1.61972-2.89115-1.26405-3.06467-.91014-3.18667-.54097-3.26982-.19704-3.30882,.21423-3.58164,.66666-3.52489,1.06662-3.42293,1.47578-3.26756,1.86191-3.06381,2.20333-2.82899,2.5417-2.52965,2.81825-2.21676,3.05499-1.88018,3.27425-1.46754,3.4263-1.05868,3.5255-.66631,3.58294-.18097,3.58006,.20383,3.52797,.64754,3.43043,1.04911,3.26545,1.48642,3.067,1.86047,2.81244,2.22524,2.5547,2.51799,2.20083,2.83297,1.86087,3.06569,1.47413,3.2694,1.06916,3.42246,.63743,3.52915,.22486,3.57961-.19561,3.37166-.57567,3.32728-.9414,3.24337-1.32408,3.10602-1.63869,2.95284-1.99686,2.72392-2.27316,2.49667-2.53651,2.22259Z" fill="#fff"/>
    </g>
  </g>
</svg>
