<?xml version="1.0" standalone="no"?>
<!DOCTYPE svg PUBLIC "-//W3C//DTD SVG 20010904//EN"
 "http://www.w3.org/TR/2001/REC-SVG-20010904/DTD/svg10.dtd">
<svg version="1.0" xmlns="http://www.w3.org/2000/svg"
 width="300.000000pt" height="207.000000pt" viewBox="0 0 300.000000 207.000000"
 preserveAspectRatio="xMidYMid meet">
<metadata>
Created by potrace 1.10, written by Peter Selinger 2001-2011
</metadata>
<g transform="translate(0.000000,207.000000) scale(0.100000,-0.100000)"
fill="#000000" stroke="none">
<path d="M2365 1947 c-3 -7 -4 -100 -3 -207 l3 -195 60 0 60 0 5 40 5 40 165
5 165 5 0 160 0 160 -228 3 c-179 2 -229 0 -232 -11z m443 -149 l-3 -143 -150
-3 c-163 -3 -180 -9 -188 -62 -3 -21 -10 -25 -45 -28 l-42 -3 0 190 0 191 215
0 216 0 -3 -142z"/>
<path d="M2584 1812 c-6 -4 -13 -22 -16 -39 -3 -25 0 -34 14 -39 26 -8 38 3
38 35 0 31 -19 54 -36 43z m18 -37 c3 -15 1 -25 -6 -25 -6 0 -12 11 -12 25 -2
32 12 32 18 0z"/>
<path d="M2372 1471 c-9 -5 -12 -25 -10 -57 l3 -49 130 0 130 0 3 49 c2 32 -1
52 -10 57 -7 5 -62 9 -123 9 -60 0 -116 -4 -123 -9z m88 -33 c-1 -43 -13 -59
-43 -56 -30 3 -42 24 -30 54 7 18 73 19 73 2z m150 -23 c0 -34 -1 -35 -39 -35
-37 0 -39 2 -43 35 l-4 35 43 0 c42 0 43 0 43 -35z m-103 -8 c1 -21 -3 -27
-18 -27 -24 0 -24 9 -1 26 16 13 16 13 -1 14 -10 0 -15 5 -12 11 11 18 30 4
32 -24z"/>
<path d="M2364 1327 c-2 -8 -4 -49 -2 -93 l3 -79 58 -3 58 -3 -3 93 -3 93 -53
3 c-37 2 -54 -1 -58 -11z m96 -50 c0 -23 -3 -28 -12 -19 -12 12 -46 0 -60 -22
-4 -6 -8 8 -8 31 0 36 3 42 23 45 42 7 57 -2 57 -35z m-17 -46 c6 -24 -7 -48
-17 -32 -4 6 -12 8 -18 5 -6 -4 -8 -1 -6 7 3 8 10 13 16 12 6 -2 9 4 6 12 -4
8 -2 15 4 15 5 0 12 -9 15 -19z m-24 -60 c-6 -2 -18 4 -27 13 -15 15 -15 15
10 4 15 -7 23 -15 17 -17z"/>
<path d="M2517 1334 c-4 -4 -7 -47 -7 -96 l0 -89 58 3 57 3 0 90 0 90 -50 3
c-28 2 -54 0 -58 -4z m93 -56 c0 -25 -3 -29 -12 -20 -16 16 -55 15 -62 0 -2
-7 -4 2 -3 20 1 30 3 32 39 32 36 0 38 -2 38 -32z m-22 -53 c0 -30 -15 -42
-31 -26 -8 8 -6 11 9 11 16 0 17 2 4 10 -8 5 -10 10 -5 10 6 0 3 5 -5 10 -12
8 -11 10 6 10 16 0 22 -6 22 -25z"/>
<path d="M2373 1124 c-18 -8 -17 -81 1 -91 8 -4 16 -26 18 -48 3 -39 4 -40 46
-43 l43 -3 -3 93 -3 93 -45 2 c-25 1 -51 0 -57 -3z m87 -47 c0 -19 -5 -23 -34
-24 -25 -1 -35 4 -39 17 -6 25 0 30 40 30 28 0 33 -4 33 -23z m-23 -41 c-3 -8
-1 -16 5 -18 7 -3 9 -12 5 -21 -8 -21 -37 -11 -37 12 0 9 5 22 12 29 16 16 21
15 15 -2z"/>
<path d="M2517 1124 c-4 -4 -7 -47 -7 -96 l0 -89 58 3 57 3 0 90 0 90 -50 3
c-28 2 -54 0 -58 -4z m93 -51 c0 -26 -10 -29 -28 -11 -9 9 -17 10 -30 1 -15
-9 -18 -7 -20 13 -2 22 2 24 38 22 35 -1 40 -4 40 -25z m-38 -30 c-10 -4 -9
-8 4 -17 9 -7 14 -18 10 -24 -9 -15 -36 -16 -36 -1 0 5 5 7 10 4 6 -3 10 -1
10 4 0 6 -4 11 -10 11 -5 0 -10 7 -10 15 0 8 8 15 18 14 11 0 12 -2 4 -6z m38
-62 c0 -5 -7 -12 -16 -15 -25 -9 -54 -7 -54 5 0 5 4 7 10 4 5 -3 18 -1 27 4
22 13 33 14 33 2z"/>
<path d="M2210 1015 c0 -22 4 -25 35 -25 31 0 35 3 35 25 0 22 -4 25 -35 25
-31 0 -35 -3 -35 -25z"/>
<path d="M2325 1008 c-2 -7 -6 -29 -7 -48 l-3 -35 -85 -5 -85 -5 0 -55 0 -55
75 -2 75 -2 38 52 c30 42 37 61 37 97 0 43 -13 70 -32 70 -5 0 -11 -6 -13 -12z
m-18 -143 l-25 -36 -11 32 c-13 39 -14 42 -2 35 5 -4 20 -2 33 3 32 12 33 8 5
-34z m-84 -33 c9 -2 17 2 17 8 0 6 -4 8 -10 5 -5 -3 -10 3 -10 14 0 13 6 21
18 21 13 0 14 -2 3 -9 -9 -6 -10 -11 -2 -15 24 -15 11 -36 -23 -36 -32 0 -34
2 -31 28 5 39 6 40 14 12 4 -14 15 -26 24 -28z"/>
<path d="M1804 979 c-10 -17 -7 -200 4 -211 5 -5 29 -8 53 -6 l44 3 3 104 c2
77 -1 107 -10 113 -19 12 -86 10 -94 -3z m76 -43 c0 -19 -6 -25 -30 -28 -27
-4 -30 -2 -30 24 0 24 4 28 30 28 25 0 30 -4 30 -24z m-30 -89 c4 -5 10 -1 13
7 4 9 2 16 -3 16 -6 0 -10 5 -10 10 0 6 9 10 20 10 23 0 24 -1 8 -35 -7 -15
-19 -25 -32 -25 -17 0 -21 6 -20 28 3 37 5 41 11 17 3 -11 8 -24 13 -28z m29
-52 c-11 -9 -53 -8 -56 2 -5 13 50 23 56 10 1 -5 1 -10 0 -12z"/>
<path d="M1934 907 c-3 -8 -4 -34 -2 -58 l3 -44 70 -3 c110 -5 117 -1 113 61
l-3 52 -88 3 c-68 2 -89 0 -93 -11z m155 -51 c0 -30 -1 -30 -10 -7 -5 14 -14
30 -20 37 -8 9 -5 11 10 7 16 -4 21 -13 20 -37z m-109 30 c0 -11 -19 -15 -25
-6 -3 5 1 10 9 10 9 0 16 -2 16 -4z m26 -42 c2 -16 -2 -24 -9 -21 -10 3 -13
25 -8 54 2 14 14 -9 17 -33z m30 27 c-3 -5 1 -12 10 -15 13 -5 14 -9 3 -22
-10 -13 -14 -13 -26 -1 -14 14 -8 47 9 47 5 0 7 -4 4 -9z"/>
<path d="M2373 873 c-23 -26 -43 -51 -43 -55 0 -5 68 -8 150 -8 l150 0 0 49
c0 60 -3 61 -122 61 l-91 0 -44 -47z m91 -6 c5 -21 -17 -34 -62 -35 l-32 -1
22 28 c26 32 64 36 72 8z m146 -2 c0 -14 -3 -25 -7 -26 -5 0 -19 -2 -33 -4
-33 -3 -45 5 -46 33 0 19 4 22 43 22 39 0 43 -2 43 -25z m-100 2 c0 -7 -7 -22
-16 -33 -15 -18 -15 -18 -10 0 4 10 1 25 -5 32 -9 11 -7 14 10 14 11 0 21 -6
21 -13z"/>
<path d="M817 784 c-10 -10 -9 -76 2 -92 5 -9 31 -12 92 -10 l84 3 0 50 0 50
-85 3 c-47 1 -89 0 -93 -4z m48 -44 c-3 -38 -4 -40 -20 -40 -10 0 -15 10 -15
33 0 25 4 33 18 33 14 0 18 -7 17 -26z m45 -1 c0 -14 5 -19 13 -16 8 3 20 1
28 -4 12 -7 11 -9 -2 -9 -9 0 -31 -3 -49 -7 -24 -4 -31 -3 -26 6 4 6 12 9 17
6 5 -4 9 -2 9 4 0 5 -4 13 -10 16 -15 9 -12 25 5 25 9 0 15 -9 15 -21z m45 12
c3 -5 1 -12 -5 -16 -5 -3 -10 -1 -10 5 0 6 -4 8 -10 5 -5 -3 -10 -1 -10 4 0
13 27 14 35 2z m22 -38 c-3 -10 -5 -2 -5 17 0 19 2 27 5 18 2 -10 2 -26 0 -35z"/>
<path d="M1024 776 c-3 -7 -4 -31 -2 -52 l3 -39 90 0 90 0 0 50 0 50 -88 3
c-69 2 -89 0 -93 -12z m44 -47 c-1 -41 -24 -36 -26 6 -1 25 2 33 13 29 7 -3
13 -18 13 -35z m119 3 c1 -20 -4 -32 -11 -32 -8 0 -13 15 -14 36 -1 24 3 34
11 31 6 -2 13 -18 14 -35z m-41 -6 c1 -14 -2 -26 -7 -26 -5 0 -9 10 -10 23 l0
22 -9 -22 c-5 -13 -17 -22 -27 -22 -17 1 -17 2 -1 6 16 4 16 6 3 19 -23 24
-18 34 16 30 26 -2 33 -8 35 -30z"/>
<path d="M1234 777 c-2 -7 -3 -62 -2 -123 l3 -109 53 -3 52 -3 0 125 0 126
-50 0 c-33 0 -52 -5 -56 -13z m77 -20 c9 -12 -2 -57 -13 -57 -5 0 -18 5 -29
10 -16 9 -20 32 -10 57 3 6 47 -2 52 -10z m-36 -103 c1 -17 -4 -24 -19 -24
-18 0 -19 1 -1 20 11 12 13 20 6 20 -7 0 -9 5 -6 11 10 15 20 1 20 -27z m31
27 c-3 -5 1 -11 9 -15 17 -6 9 -36 -10 -36 -7 0 -15 6 -18 13 -4 12 9 47 19
47 3 0 3 -4 0 -9z m11 -105 c-7 -17 -48 -18 -59 -1 -13 17 -9 25 15 34 26 11
53 -9 44 -33z"/>
<path d="M1934 767 c-3 -8 -4 -41 -2 -73 l3 -59 90 0 90 0 0 70 0 70 -88 3
c-68 2 -89 0 -93 -11z m86 -17 c0 -3 -10 -10 -22 -15 -13 -6 -24 -20 -26 -33
-5 -36 -19 -17 -14 21 3 30 7 34 33 33 16 -1 29 -3 29 -6z m70 -48 c0 -29 -4
-51 -8 -48 -5 3 -7 18 -4 34 2 18 -2 35 -12 45 -21 21 -20 26 4 24 17 -1 20
-8 20 -55z m-35 -3 c0 -15 -7 -25 -17 -27 -13 -3 -18 3 -18 21 0 13 3 27 7 31
13 12 28 -1 28 -25z m-45 -4 c0 -14 -6 -25 -14 -25 -9 0 -12 8 -8 25 2 14 8
25 13 25 5 0 9 -11 9 -25z m-35 -35 c3 -5 1 -10 -4 -10 -6 0 -11 5 -11 10 0 6
2 10 4 10 3 0 8 -4 11 -10z"/>
<path d="M2030 690 c0 -5 5 -10 11 -10 5 0 7 5 4 10 -3 6 -8 10 -11 10 -2 0
-4 -4 -4 -10z"/>
<path d="M2142 723 l3 -58 75 0 75 0 3 58 3 57 -81 0 -81 0 3 -57z m48 33 c0
-2 -7 -9 -15 -16 -12 -10 -15 -10 -15 4 0 9 7 16 15 16 8 0 15 -2 15 -4z m90
-18 c0 -12 -1 -19 -3 -17 -1 2 -9 12 -16 22 -12 14 -11 17 3 17 10 0 16 -8 16
-22z m-76 -30 c5 -21 3 -28 -8 -28 -13 0 -14 12 -7 59 2 9 9 -5 15 -31z m52
17 c4 -8 0 -22 -7 -31 -11 -13 -14 -13 -27 0 -17 17 -9 46 13 46 9 0 18 -7 21
-15z"/>
<path d="M2226 721 c-4 -7 -5 -15 -2 -18 9 -9 19 4 14 18 -4 11 -6 11 -12 0z"/>
<path d="M2324 767 c-3 -8 -4 -34 -2 -58 l3 -44 80 0 80 0 0 55 0 55 -78 3
c-60 2 -79 0 -83 -11z m52 -26 c-11 -13 -15 -27 -11 -40 3 -12 2 -21 -3 -21
-13 0 -24 44 -16 64 3 9 15 16 27 16 19 0 19 -1 3 -19z m90 -18 c-1 -27 -6
-39 -18 -41 -12 -2 -15 2 -11 18 3 12 -2 29 -12 40 -18 19 -17 20 12 20 28 0
30 -2 29 -37z m-51 -13 c0 -13 -6 -25 -14 -28 -8 -3 -11 0 -7 6 3 6 1 12 -6
14 -7 3 -9 12 -5 22 10 24 32 15 32 -14z"/>
<path d="M2510 690 c0 -53 4 -90 10 -91 6 0 28 -1 50 -1 22 0 45 1 50 1 6 1
10 38 10 91 l0 90 -60 0 -60 0 0 -90z m97 20 c1 -33 0 -38 -6 -20 -8 28 -48
40 -62 18 -6 -9 -9 -2 -9 20 0 32 1 33 38 30 36 -3 37 -4 39 -48z m-20 -39 c3
-22 -21 -35 -35 -18 -14 18 5 64 20 49 7 -7 13 -20 15 -31z m18 -40 c-3 -6
-16 -11 -28 -11 -21 0 -21 1 3 13 27 15 36 14 25 -2z m-55 -1 c0 -5 -4 -10
-10 -10 -5 0 -10 5 -10 10 0 6 5 10 10 10 6 0 10 -4 10 -10z"/>
<path d="M1745 721 c-3 -10 -5 -23 -4 -27 5 -30 -4 -33 -101 -36 -58 -2 -100
-7 -100 -13 0 -6 68 -10 183 -10 l182 0 0 50 0 50 -77 3 c-68 3 -77 1 -83 -17z
m67 -46 c3 -15 1 -25 -6 -25 -6 0 -11 11 -11 25 0 14 3 25 6 25 4 0 9 -11 11
-25z m48 1 c0 -13 -8 -27 -17 -30 -10 -4 -14 -4 -10 0 4 4 2 13 -4 20 -13 16
-4 34 17 34 8 0 14 -10 14 -24z m-87 -11 c-3 -9 -8 -14 -10 -11 -3 3 -2 9 2
15 9 16 15 13 8 -4z"/>
<path d="M1835 680 c3 -5 8 -10 11 -10 2 0 4 5 4 10 0 6 -5 10 -11 10 -5 0 -7
-4 -4 -10z"/>
<path d="M687 724 c-4 -4 -7 -47 -7 -96 l0 -89 53 3 52 3 0 90 0 90 -45 3
c-25 2 -49 0 -53 -4z m83 -32 c0 -15 -7 -18 -30 -17 -17 1 -33 4 -36 8 -12 12
8 27 37 27 21 0 29 -5 29 -18z m-42 -60 c3 -22 32 -32 32 -11 0 5 -4 7 -10 4
-5 -3 -10 3 -10 14 0 13 6 21 18 21 13 0 14 -2 3 -9 -9 -6 -10 -11 -2 -15 6
-4 11 -14 11 -22 0 -10 -12 -14 -42 -13 -33 0 -38 2 -23 9 11 5 14 9 7 9 -7 1
-10 6 -7 11 3 6 1 10 -5 10 -6 0 -8 5 -5 11 10 16 30 5 33 -19z m33 -52 c5 0
9 -4 9 -10 0 -5 -16 -10 -35 -10 -19 0 -35 4 -35 9 0 12 21 21 38 15 8 -2 18
-4 23 -4z"/>
<path d="M1371 706 c-7 -8 -11 -34 -9 -58 l3 -43 63 -3 62 -3 0 -39 0 -40 56
0 55 0 -3 43 c-3 42 -3 42 -45 45 l-42 3 -3 52 -3 52 -61 3 c-44 2 -64 -1 -73
-12z m59 -35 c0 -4 -3 -10 -6 -14 -8 -7 -33 16 -28 25 6 9 34 -1 34 -11z m40
9 c0 -5 -6 -10 -12 -10 -9 0 -9 -3 1 -9 19 -12 6 -45 -15 -37 -9 3 -24 6 -35
6 -10 0 -19 4 -19 9 0 6 17 8 38 5 20 -2 31 -2 25 2 -18 8 -16 44 2 44 8 0 15
-4 15 -10z m110 -115 c0 -19 -48 -25 -62 -8 -9 11 -9 16 1 22 18 11 61 1 61
-14z"/>
<path d="M114 667 c-2 -7 -4 -52 -2 -98 l3 -84 50 0 50 0 0 95 0 95 -48 3
c-33 2 -49 -1 -53 -11z m86 -23 c0 -13 -22 -24 -46 -24 -8 0 -14 8 -14 18 0
13 8 18 30 17 17 0 30 -5 30 -11z m-30 -74 c5 0 12 5 15 10 3 6 1 10 -5 10 -6
0 -8 5 -5 10 12 19 23 10 27 -21 5 -30 4 -30 -31 -25 -20 3 -40 5 -44 6 -5 0
-5 5 -2 10 4 6 11 7 17 4 7 -4 8 -2 4 4 -4 7 -4 18 1 25 6 8 9 5 11 -10 2 -13
7 -23 12 -23z m24 -54 c-7 -18 -51 -18 -58 0 -4 12 -2 15 9 10 8 -3 15 -1 15
3 0 5 9 7 19 4 11 -3 18 -10 15 -17z"/>
<path d="M244 667 c-3 -8 -4 -52 -2 -98 l3 -84 50 0 50 0 3 98 3 97 -51 0
c-33 0 -52 -5 -56 -13z m81 -27 c0 -9 -9 -15 -25 -15 -14 0 -28 -4 -33 -10 -5
-8 -4 15 2 43 1 2 13 2 29 0 16 -2 27 -9 27 -18z m5 -60 c0 -16 -4 -30 -9 -30
-10 0 -21 47 -13 55 13 13 22 3 22 -25z m-37 0 c6 -24 -3 -32 -23 -20 -11 7
-11 11 -1 24 17 20 18 20 24 -4z m30 -49 c4 -1 7 -7 7 -14 0 -9 -11 -12 -35
-9 -19 2 -35 9 -35 16 0 10 17 12 63 7z"/>
<path d="M374 667 c-3 -8 -4 -52 -2 -98 l3 -84 95 -3 c147 -4 141 -9 138 101
l-3 92 -113 3 c-88 2 -114 0 -118 -11z m214 -84 l-3 -78 -97 -1 -98 -1 0 78 0
79 100 0 101 0 -3 -77z"/>
<path d="M447 602 c-36 -40 -3 -74 61 -64 33 4 51 35 38 67 -8 22 -79 20 -99
-3z m45 -14 c7 26 33 29 42 6 9 -24 -11 -43 -42 -39 -15 2 -33 4 -40 4 -7 1
-10 6 -7 11 4 6 11 7 17 4 7 -4 8 -2 4 4 -4 7 -4 18 0 24 6 9 10 5 14 -12 6
-25 6 -25 12 -2z"/>
<path d="M506 591 c-4 -7 -5 -15 -2 -18 9 -9 19 4 14 18 -4 11 -6 11 -12 0z"/>
<path d="M817 654 c-13 -13 -7 -81 7 -93 9 -8 43 -11 93 -9 l78 3 0 50 0 50
-85 3 c-47 1 -89 0 -93 -4z m62 -20 c17 -4 31 -12 31 -19 0 -6 7 -12 15 -12 8
0 12 4 9 8 -2 4 0 10 5 13 10 7 20 -23 13 -43 -4 -11 -6 -11 -13 0 -7 12 -12
12 -29 1 -17 -10 -25 -9 -47 5 -26 17 -27 17 -20 0 4 -11 3 -16 -3 -12 -12 8
-13 65 -1 65 5 0 23 -3 40 -6z m98 -26 c-3 -7 -5 -2 -5 12 0 14 2 19 5 13 2
-7 2 -19 0 -25z"/>
<path d="M867 609 c3 -11 13 -19 22 -18 12 0 12 2 2 6 -10 4 -10 7 -1 13 8 5
5 9 -8 12 -15 4 -18 1 -15 -13z"/>
<path d="M1027 654 c-13 -13 -7 -81 7 -93 9 -8 43 -11 93 -9 l78 3 0 50 0 50
-85 3 c-47 1 -89 0 -93 -4z m28 -24 c-3 -5 -1 -10 4 -10 6 0 11 -7 11 -15 0
-8 8 -15 18 -14 12 0 13 2 3 6 -11 5 -11 7 0 14 10 6 11 9 2 9 -7 0 -13 5 -13
10 0 20 21 9 30 -15 5 -14 14 -25 20 -25 12 0 9 22 -4 31 -4 4 -3 10 3 13 11
7 32 -33 25 -46 -3 -4 -29 -6 -59 -5 -53 2 -55 3 -55 29 0 16 5 28 11 28 5 0
7 -4 4 -10z m130 -14 c0 -37 -12 -41 -17 -6 -3 18 0 30 7 30 6 0 11 -11 10
-24z"/>
<path d="M2147 634 c-4 -4 -7 -29 -7 -56 l0 -48 173 2 172 3 0 50 0 50 -166 3
c-91 1 -168 -1 -172 -4z m123 -28 c-5 -5 -10 -20 -10 -31 0 -19 -6 -22 -50
-24 -49 -2 -50 -1 -50 27 0 39 6 43 67 41 37 -2 50 -6 43 -13z m190 -22 l0
-35 -52 3 c-50 3 -53 4 -59 36 l-6 32 58 0 59 0 0 -36z m-160 -5 c0 -18 2 -20
15 -9 13 11 13 15 3 21 -10 7 -9 9 4 9 13 0 17 -7 16 -25 -2 -21 -8 -25 -34
-25 -26 0 -30 3 -28 23 3 28 2 27 14 27 6 0 10 -10 10 -21z"/>
<path d="M1624 597 c-3 -8 -4 -36 -2 -63 l3 -49 48 -3 48 -3 -3 63 -3 63 -43
3 c-30 2 -44 -1 -48 -11z m66 -17 c0 -5 -7 -10 -16 -10 -8 0 -12 5 -9 10 3 6
10 10 16 10 5 0 9 -4 9 -10z m-33 -41 c-7 -25 5 -24 21 1 16 27 30 25 30 -3 0
-20 -6 -23 -39 -24 -41 -2 -47 5 -27 25 9 9 9 12 -1 12 -7 0 -9 5 -6 10 10 16
27 0 22 -21z"/>
<path d="M1751 596 c-7 -8 -11 -32 -9 -53 l3 -38 98 -3 98 -3 -3 53 -3 53 -86
3 c-66 2 -89 -1 -98 -12z m63 -26 c30 -11 32 -50 3 -50 -14 0 -17 3 -9 13 7 8
6 16 -4 25 -12 10 -14 10 -14 -2 0 -8 -4 -18 -10 -21 -6 -4 -10 5 -10 19 0 28
6 31 44 16z m104 -15 c1 -16 -3 -25 -13 -25 -8 0 -15 4 -15 9 0 5 -3 16 -6 25
-4 11 0 16 13 16 13 0 19 -8 21 -25z m-48 -10 c0 -14 -4 -25 -10 -25 -5 0 -10
11 -10 25 0 14 5 25 10 25 6 0 10 -11 10 -25z"/>
<path d="M1967 604 c-4 -4 -7 -29 -7 -56 l0 -49 78 3 77 3 0 50 0 50 -70 3
c-39 1 -74 0 -78 -4z m51 -64 c-1 -18 -6 -30 -15 -30 -16 0 -17 12 -1 28 9 9
9 12 0 12 -7 0 -12 5 -12 10 0 6 6 10 14 10 10 0 14 -10 14 -30z m47 0 c0 -13
-6 -25 -12 -27 -16 -6 -27 21 -19 43 9 23 31 11 31 -16z"/>
<path d="M2040 540 c0 -5 5 -10 10 -10 6 0 10 5 10 10 0 6 -4 10 -10 10 -5 0
-10 -4 -10 -10z"/>
<path d="M1365 558 c-4 -13 -5 -49 -3 -79 l3 -54 50 0 50 0 0 75 0 75 -47 3
c-43 3 -48 1 -53 -20z m42 -48 c-3 -10 0 -21 7 -24 6 -2 1 -5 -11 -5 -25 -1
-31 14 -10 22 9 4 8 8 -3 16 -13 9 -12 11 4 11 13 0 17 -5 13 -20z m50 5 c3
-9 -2 -24 -11 -34 -9 -10 -14 -20 -11 -23 3 -3 -6 -5 -21 -5 l-28 0 28 14 c21
11 25 18 17 26 -6 6 -11 17 -11 24 0 18 29 16 37 -2z"/>
<path d="M2512 428 l3 -143 55 0 55 0 3 143 3 142 -61 0 -61 0 3 -142z m98 69
c0 -40 -2 -47 -14 -38 -7 6 -25 12 -40 13 -23 2 -26 6 -26 40 0 38 0 38 40 36
l40 -1 0 -50z m-56 -69 c5 -21 3 -28 -8 -28 -13 0 -14 12 -7 59 2 9 9 -5 15
-31z m36 2 c0 -16 -4 -30 -10 -30 -5 0 -10 14 -10 30 0 17 5 30 10 30 6 0 10
-13 10 -30z m16 -115 c-2 -7 -13 -12 -23 -10 -10 2 -26 4 -35 4 -14 1 -18 10
-18 41 0 28 4 38 13 34 7 -2 24 -1 38 4 22 9 24 7 27 -25 2 -19 1 -41 -2 -48z"/>
<path d="M2144 496 c-3 -7 -4 -33 -2 -57 l3 -44 159 -3 c108 -2 163 1 172 9
17 14 18 81 2 97 -18 18 -327 17 -334 -2z m127 -19 c-6 -6 -11 -21 -11 -33 0
-25 -17 -31 -67 -26 -28 4 -33 8 -33 31 0 15 2 30 4 32 3 2 30 5 62 6 43 1 54
-1 45 -10z m195 -14 c10 -37 0 -46 -49 -50 -39 -4 -48 -1 -53 14 -3 10 -9 25
-14 34 -13 24 -5 27 56 26 48 -1 55 -4 60 -24z m-151 -40 c12 -2 14 0 6 3 -11
5 -11 8 0 15 11 7 9 9 -5 9 -15 0 -17 3 -9 11 16 16 33 2 33 -27 0 -21 -5 -24
-33 -24 -29 0 -32 3 -31 28 3 38 5 40 13 12 4 -14 15 -26 26 -27z"/>
<path d="M1497 494 c-4 -4 -7 -43 -7 -86 l0 -78 55 0 56 0 -3 83 -3 82 -45 3
c-25 2 -49 0 -53 -4z m41 -79 c-1 -14 -8 -25 -15 -25 -16 0 -17 12 -1 28 9 9
9 12 -1 12 -7 0 -9 5 -6 10 11 17 25 1 23 -25z m47 5 c0 -16 -6 -26 -17 -28
-14 -3 -18 3 -18 28 0 25 4 31 17 28 11 -2 18 -12 18 -28z m-14 -50 c5 0 9 -4
9 -10 0 -5 -13 -10 -30 -10 -29 0 -38 9 -23 24 4 3 13 4 21 1 7 -3 18 -5 23
-5z"/>
<path d="M814 476 c-3 -8 -4 -29 -2 -48 l3 -33 93 -3 92 -3 0 51 0 50 -90 0
c-69 0 -92 -3 -96 -14z m109 -17 c30 2 33 -5 12 -34 -16 -20 -65 -32 -65 -15
0 5 4 10 8 10 5 0 9 7 9 15 0 14 -6 17 -24 13 -5 0 -7 -9 -5 -19 2 -13 -1 -17
-11 -13 -9 3 -12 14 -9 30 4 22 8 25 31 18 14 -4 38 -6 54 -5z m47 -43 c-7 -7
-10 1 -9 25 0 32 1 33 10 10 6 -16 6 -28 -1 -35z"/>
<path d="M905 441 c-3 -5 -1 -12 4 -15 5 -3 11 1 15 9 6 16 -9 21 -19 6z"/>
<path d="M1024 476 c-3 -8 -4 -29 -2 -48 l3 -33 93 -3 92 -3 0 51 0 50 -90 0
c-69 0 -92 -3 -96 -14z m72 -16 c15 0 20 -45 5 -54 -5 -3 -20 0 -32 7 -28 14
-29 63 -2 53 8 -3 21 -6 29 -6z m51 3 c-4 -3 -2 -12 5 -20 13 -16 -4 -39 -21
-29 -21 13 -11 56 12 56 6 0 7 -3 4 -7z m38 -18 c0 -14 -3 -25 -6 -25 -4 0 -9
11 -11 25 -3 15 -1 25 6 25 6 0 11 -11 11 -25z"/>
<path d="M1062 442 c2 -9 12 -18 23 -19 12 -2 14 0 6 3 -10 5 -10 8 -1 14 8 5
5 9 -10 13 -16 4 -20 1 -18 -11z"/>
<path d="M1130 429 c0 -5 5 -7 10 -4 6 3 10 8 10 11 0 2 -4 4 -10 4 -5 0 -10
-5 -10 -11z"/>
<path d="M1267 484 c-17 -18 -6 -35 21 -32 16 2 27 9 27 18 0 16 -36 26 -48
14z"/>
<path d="M1791 466 c-7 -9 -11 -40 -9 -78 l3 -63 55 0 55 0 3 63 c4 76 -7 92
-58 92 -21 0 -43 -6 -49 -14z m72 -23 c-7 -2 -21 -2 -30 0 -10 3 -4 5 12 5 17
0 24 -2 18 -5z m-35 -45 c-2 -14 3 -24 12 -26 10 -1 16 5 16 17 0 11 -4 17 -8
15 -4 -3 -8 0 -8 5 0 6 7 11 15 11 10 0 15 -10 15 -30 0 -28 -3 -30 -35 -30
-34 0 -46 12 -25 25 6 3 10 11 10 16 0 6 -4 7 -10 4 -5 -3 -10 -1 -10 4 0 6 7
11 16 11 10 0 14 -7 12 -22z"/>
<path d="M1927 473 c-4 -3 -7 -30 -7 -60 l0 -54 98 3 97 3 3 43 c5 64 -7 72
-103 72 -45 0 -85 -3 -88 -7z m35 -48 c-5 -28 -22 -44 -22 -21 0 21 11 46 20
46 4 0 5 -11 2 -25z m128 -5 c0 -16 -5 -30 -11 -30 -6 0 -9 9 -6 20 3 11 1 20
-4 20 -5 0 -9 5 -9 10 0 6 7 10 15 10 10 0 15 -10 15 -30z m-87 -9 c-3 -25 9
-27 27 -6 9 10 9 15 1 15 -6 0 -11 5 -11 11 0 23 25 1 27 -24 2 -25 -1 -27
-38 -27 -43 0 -48 6 -21 26 16 13 16 13 -1 14 -10 0 -15 5 -12 11 11 17 30 3
28 -20z"/>
<path d="M383 463 c-9 -3 -13 -36 -13 -114 l0 -110 53 3 52 3 3 99 c2 64 -1
103 -9 112 -11 14 -61 18 -86 7z m65 -41 c2 -12 0 -22 -5 -23 -4 0 -18 -2 -29
-4 -17 -4 -21 0 -21 20 0 39 50 45 55 7z m-28 -72 c0 -31 -6 -36 -28 -21 -12
7 -12 12 -1 30 19 29 29 26 29 -9z m32 23 c-10 -4 -9 -8 4 -17 20 -15 11 -36
-14 -35 -11 0 -12 3 -4 6 6 2 12 9 12 14 0 6 -4 7 -10 4 -5 -3 -10 3 -10 14 0
14 6 21 18 20 11 0 12 -2 4 -6z m-2 -94 c0 -14 -7 -19 -30 -19 -24 0 -30 4
-28 18 6 35 58 36 58 1z"/>
<path d="M504 456 c-3 -7 -4 -31 -2 -52 l3 -39 85 0 85 0 0 50 0 50 -83 3
c-64 2 -84 0 -88 -12z m41 -26 c-3 -5 -10 -10 -16 -10 -5 0 -9 5 -9 10 0 6 7
10 16 10 8 0 12 -4 9 -10z m115 -6 c0 -14 -3 -14 -15 -4 -8 7 -15 14 -15 16 0
2 7 4 15 4 8 0 15 -7 15 -16z m-64 -38 c17 -6 16 23 -1 37 -6 5 -1 7 10 5 14
-2 20 -11 20 -28 0 -23 -4 -25 -38 -23 -49 2 -55 8 -31 34 19 21 19 21 22 1 2
-11 10 -23 18 -26z"/>
<path d="M1632 451 c-9 -5 -12 -32 -10 -92 l3 -84 45 0 45 0 0 90 0 90 -35 2
c-20 1 -41 -2 -48 -6z m58 -31 c0 -5 -9 -10 -20 -10 -11 0 -20 5 -20 10 0 6 9
10 20 10 11 0 20 -4 20 -10z m6 -59 c-12 -23 -20 -27 -41 -23 -24 4 -25 6 -10
22 15 17 15 19 -2 23 -10 3 1 5 25 6 l43 1 -15 -29z m-2 -61 c-7 -7 -19 -7
-35 -1 -23 9 -22 10 11 10 23 1 31 -2 24 -9z"/>
<path d="M1659 364 c-12 -14 -11 -16 5 -13 11 2 21 10 24 17 5 17 -13 15 -29
-4z"/>
<path d="M1364 387 c-3 -8 -4 -36 -2 -63 l3 -49 118 -3 c109 -2 118 -1 115 15
-2 14 -16 19 -63 23 l-60 5 -5 40 c-5 40 -5 40 -53 43 -34 2 -49 -1 -53 -11z
m44 -39 c9 -9 12 -9 12 0 0 17 27 15 34 -3 6 -16 -2 -45 -13 -45 -4 0 -12 5
-19 12 -9 9 -12 9 -12 0 0 -7 -10 -12 -22 -11 l-23 0 23 10 c24 9 22 29 -4 29
-8 0 -12 5 -9 10 8 13 18 13 33 -2z"/>
<path d="M1425 339 c-10 -15 3 -25 16 -12 7 7 7 13 1 17 -6 3 -14 1 -17 -5z"/>
<path d="M2142 318 l3 -53 115 0 115 0 0 50 0 50 -118 3 -118 3 3 -53z m60 -3
c-2 -19 -7 -35 -11 -35 -15 0 -31 25 -31 47 0 17 6 23 23 23 20 0 23 -4 19
-35z m156 3 c-2 -23 -9 -32 -24 -34 -16 -3 -23 4 -31 31 l-11 35 35 0 c32 0
34 -2 31 -32z m-118 -3 c0 -14 -6 -25 -13 -25 -8 0 -13 9 -11 23 3 28 2 27 14
27 6 0 10 -11 10 -25z m43 -27 c-5 -10 -33 2 -33 14 0 5 5 6 12 2 7 -4 8 -3 4
4 -4 7 -4 18 0 24 6 9 10 5 14 -12 4 -14 5 -28 3 -32z"/>
<path d="M817 354 c-4 -4 -7 -27 -7 -50 0 -52 10 -57 115 -52 l70 3 0 50 0 50
-85 3 c-47 1 -89 0 -93 -4z m150 -66 c-2 -13 -4 -5 -4 17 -1 22 1 32 4 23 2
-10 2 -28 0 -40z m-107 17 c0 -8 -4 -17 -10 -20 -6 -4 -10 5 -10 20 0 15 4 24
10 20 6 -3 10 -12 10 -20z m87 8 c3 -8 -1 -22 -10 -31 -15 -14 -16 -13 -12 14
2 16 2 23 -1 16 -3 -6 -9 -10 -14 -7 -4 3 -7 -3 -6 -12 0 -10 -7 -19 -16 -21
-10 -2 -18 2 -18 8 0 6 5 8 10 5 6 -3 10 -2 10 4 0 5 -4 13 -10 16 -20 13 -9
23 26 23 22 0 38 -6 41 -15z"/>
<path d="M1027 354 c-13 -13 -7 -81 7 -93 9 -8 43 -11 93 -9 l78 3 0 50 0 50
-85 3 c-47 1 -89 0 -93 -4z m131 -47 c3 -22 -1 -27 -17 -27 -15 0 -21 6 -21
23 0 46 33 49 38 4z m-50 -4 c-3 -27 -38 -48 -38 -23 0 7 7 10 15 6 8 -3 15
-1 15 4 0 6 -6 10 -12 10 -9 0 -8 4 2 10 13 8 12 10 -3 10 -11 0 -21 -9 -24
-20 -3 -11 -9 -18 -13 -15 -19 12 2 41 31 43 28 2 30 0 27 -25z"/>
<path d="M500 290 l0 -50 90 0 90 0 0 50 0 50 -90 0 -90 0 0 -50z m37 8 c-3
-8 -6 -5 -6 6 -1 11 2 17 5 13 3 -3 4 -12 1 -19z m63 -15 c10 1 16 7 13 14 -3
7 -1 13 5 13 11 0 21 -29 15 -47 -4 -10 -9 -10 -25 0 -15 9 -22 9 -25 1 -2 -7
-13 -10 -24 -7 -20 6 -21 30 0 26 6 -2 10 0 10 5 -3 17 4 26 8 10 2 -9 12 -16
23 -15z"/>
<path d="M114 277 c-3 -8 -4 -49 -2 -93 l3 -79 50 0 50 0 3 93 3 92 -51 0
c-33 0 -52 -5 -56 -13z m76 -17 c13 -9 13 -10 0 -11 -8 0 -23 -2 -32 -4 -20
-4 -24 11 -5 18 18 8 21 8 37 -3z m-20 -70 c16 0 23 22 9 31 -10 6 -8 9 9 9
26 0 27 -3 6 -35 -12 -18 -22 -22 -42 -19 -35 7 -34 6 -14 35 l17 24 3 -22 c2
-13 7 -23 12 -23z m-10 -45 c0 6 9 11 20 11 31 0 20 -29 -12 -33 -28 -4 -44
10 -32 28 4 8 9 7 15 -2 5 -8 9 -9 9 -4z"/>
<path d="M378 209 c-5 -3 -8 -26 -6 -50 l3 -44 115 0 115 0 3 39 c2 21 -1 43
-7 49 -10 10 -207 16 -223 6z m149 -16 c-4 -3 -2 -12 5 -20 13 -16 -4 -39 -21
-29 -21 13 -11 56 12 56 6 0 7 -3 4 -7z m-87 -23 c-6 -11 -8 -25 -5 -30 3 -6
-5 -10 -20 -10 -22 0 -25 3 -21 28 2 15 5 28 5 30 1 1 12 2 26 2 23 0 24 -2
15 -20z m50 -11 c0 -25 -3 -29 -13 -20 -8 6 -17 7 -22 3 -4 -4 -5 0 -3 8 3 8
10 14 16 13 6 -2 9 4 6 12 -4 8 -1 15 5 15 6 0 11 -14 11 -31z m100 17 c0 -24
-12 -46 -25 -46 -7 0 -12 12 -11 30 1 21 6 30 19 30 9 0 17 -6 17 -14z"/>
</g>
</svg>
