<svg xmlns="http://www.w3.org/2000/svg" width="500" height="500" viewBox="0 0 500 500">
  <g id="svg">
    <rect width="500" height="500" fill="#fff"/>
    <g>
      <polygon points="274.88 490 150.904 449.813 174.427 377.204 268.309 407.62 340.314 370.884 384.946 233.113 338.079 217.927 361.602 145.315 481.126 184.028 403.201 424.491 274.88 490" fill="#231815"/>
      <polygon points="338.911 137.951 198.106 92.315 217.151 33.556 144.548 10 125.492 68.781 80.545 54.213 57.032 126.825 101.956 141.385 49.581 302.949 49.694 302.986 18.874 398.06 91.485 421.621 174.681 164.957 315.395 210.563 338.911 137.951" fill="#231815"/>
      <path d="M276.39933,294.33179a30.31823,30.31823,0,1,1-30.31669-30.31806A30.31791,30.31791,0,0,1,276.39933,294.33179Z" fill="#231815"/>
    </g>
  </g>
</svg>
