<!-- Generator: Adobe Illustrator 21.1.0, SVG Export Plug-In  -->
<svg version="1.1"
	 xmlns="http://www.w3.org/2000/svg" xmlns:xlink="http://www.w3.org/1999/xlink" xmlns:a="http://ns.adobe.com/AdobeSVGViewerExtensions/3.0/"
	 x="0px" y="0px" width="593.7px" height="407px" viewBox="0 0 593.7 407" style="enable-background:new 0 0 593.7 407;"
	 xml:space="preserve">
<style type="text/css">
	.st0{fill:#7A55A0;}
	.st1{fill:#235C9D;}
	.st2{fill:#49A3C6;}
	.st3{fill:#D53E4A;}
	.st4{fill:#DB5C8E;}
	.st5{fill:#ED8F26;}
	.st6{fill:#15947A;}
	.st7{fill:#A6B042;}
	.st8{fill:#A2A749;}
	.st9{fill:#FFFFFF;}
	.st10{font-family:"Helvetica Neue", Helvetica, Arial, sans-serif;}
	.st11{font-size:16.34px;}
	.st12{fill:none;stroke:#133B95;stroke-width:1.83;stroke-miterlimit:10;}
	.st13{fill:none;stroke:#133B95;stroke-width:1.83;stroke-miterlimit:10;stroke-dasharray:1.89,3.78;}
	.st14{fill:none;stroke:#133B95;stroke-width:1.83;stroke-miterlimit:10;stroke-dasharray:1.84,3.68;}
	.st15{enable-background:new    ;}
	.st16{letter-spacing:-1;}
</style>
<defs>
</defs>
<title>Element 1</title>
<g id="Ebene_2_1_">
	<g id="レイヤー_1_1_">
		<path id="1" class="st0" d="M593.7,5.3c0-2.9-2.4-5.3-5.3-5.3h-91.5c-2.9,0-5.3,2.4-5.3,5.3v80.8c0,2.9,2.4,5.3,5.3,5.3h17.3
			c2.9,0,5.3-2.4,5.3-5.3v-8.4c0-2.9,2.4-5.3,5.3-5.3h63.6c2.9,0,5.3-2.4,5.3-5.3L593.7,5.3z">
				<text transform="matrix(1 0 0 1 530.96 35.7)" class="st9 st10 st11">1</text>
		</path>
		<path id="2" class="st1" d="M497,104.8h48.3c2.9,0,5.3,2.4,5.3,5.3v15.2c0,2.9-2.4,5.3-5.3,5.3H497c-2.9,0-5.3-2.4-5.3-5.3v-15.2
			C491.7,107.2,494,104.8,497,104.8z"/>
		<path id="4" class="st1" d="M497,134.8h16.6c2.9,0,5.3,2.4,5.3,5.3v30.6c0,2.9-2.4,5.3-5.3,5.3H497c-2.9,0-5.3-2.4-5.3-5.3v-30.6
			C491.7,137.1,494,134.8,497,134.8z"/>
		<path id="3" class="st1" d="M528.6,134.8h16.6c2.9,0,5.3,2.4,5.3,5.3v30.6c0,2.9-2.4,5.3-5.3,5.3h-16.6c-2.9,0-5.3-2.4-5.3-5.3v-30.6
			C523.3,137.1,525.7,134.8,528.6,134.8z"/>
		<path id="5" class="st1" d="M528.6,180.1h16.6c2.9,0,5.3,2.4,5.3,5.3v30.6c0,2.9-2.4,5.3-5.3,5.3h-16.6c-2.9,0-5.3-2.4-5.3-5.3v-30.6
			C523.3,182.5,525.7,180.1,528.6,180.1z"/>
		<path id="8" class="st2" d="M528.6,254.3h16.6c2.9,0,5.3,2.4,5.3,5.3v30.6c0,2.9-2.4,5.3-5.3,5.3h-16.6c-2.9,0-5.3-2.4-5.3-5.3v-30.6
			C523.3,256.6,525.7,254.3,528.6,254.3z"/>
		<path id="11" class="st2" d="M528.6,299.2h16.6c2.9,0,5.3,2.4,5.3,5.3v52.8c0,2.9-2.4,5.3-5.3,5.3h-16.6c-2.9,0-5.3-2.4-5.3-5.3v-52.8
			C523.3,301.6,525.7,299.2,528.6,299.2z"/>
		<path id="7" class="st1" d="M498.5,229.8c2.2-2.5,5.3-4,8.6-4.1h38.1c2.9,0,5.3,2.4,5.3,5.3v13.8c0,2.9-2.4,5.3-5.3,5.3h-57.5
			c-2.9,0-3.8-1.9-2-4.1L498.5,229.8z"/>
		<path id="10" class="st2" d="M448.7,254.3h25.6c2.9,0,5.3,2.4,5.3,5.3v16.6c0,2.9-2.4,5.3-5.3,5.3h-25.6c-2.9,0-5.3-2.4-5.3-5.3v-16.6
			C443.4,256.6,445.8,254.3,448.7,254.3z"/>
		<path id="9" class="st2" d="M488.6,254.3h25.6c2.9,0,5.3,2.4,5.3,5.3v16.6c0,2.9-2.4,5.3-5.3,5.3h-25.6c-2.9,0-5.3-2.4-5.3-5.3v-16.6
			C483.4,256.6,485.7,254.3,488.6,254.3z"/>
		<path id="12" class="st2" d="M448.7,285.2h65.5c2.9,0,5.3,2.4,5.3,5.3v14.1c0,2.9-2.4,5.3-5.3,5.3h-65.5c-2.9,0-5.3-2.4-5.3-5.3v-14.1
			C443.4,287.6,445.8,285.2,448.7,285.2z"/>
		<path id="13" class="st2" d="M448.7,314.1h65.5c2.9,0,5.3,2.4,5.3,5.3v14.1c0,2.9-2.4,5.3-5.3,5.3h-65.5c-2.9,0-5.3-2.4-5.3-5.3v-14.1
			C443.4,316.5,445.8,314.1,448.7,314.1z"/>
		<path id="14" class="st2" d="M448.7,342.6h42.1c2.9,0,5.3,2.4,5.3,5.3V362c0,2.9-2.4,5.3-5.3,5.3h-42.1c-2.9,0-5.3-2.4-5.3-5.3v-14.1
			C443.4,345,445.8,342.6,448.7,342.6z"/>
		<path id="47" class="st3" d="M10.2,359.9H24c2.9,0,5.3,2.4,5.3,5.3v31.3c0,2.9-2.4,5.3-5.3,5.3H10.2c-2.9,0-5.3-2.4-5.3-5.3v-31.3
			C4.9,362.2,7.3,359.9,10.2,359.9z"/>
		<path id="42" class="st3" d="M10.2,276H24c2.9,0,5.3,2.4,5.3,5.3v33.1c0,2.9-2.4,5.3-5.3,5.3H10.2c-2.9,0-5.3-2.4-5.3-5.3v-33.1
			C4.9,278.4,7.3,276,10.2,276z"/>
		<path id="41" class="st3" d="M38.4,276h13.8c2.9,0,5.3,2.4,5.3,5.3v33.1c0,2.9-2.4,5.3-5.3,5.3H38.4c-2.9,0-5.3-2.4-5.3-5.3v-33.1
			C33.1,278.4,35.4,276,38.4,276z"/>
		<path id="40" class="st3" d="M66.5,276h41.4c2.9,0,5.3,2.4,5.3,5.3v33.1c0,2.9-2.4,5.3-5.3,5.3H66.5c-2.9,0-5.3-2.4-5.3-5.3v-33.1
			C61.2,278.4,63.5,276,66.5,276z"/>
		<path id="43" class="st3" d="M93.9,322.6h29.9c2.9,0,5.3,2.4,5.3,5.3v13.1c0,2.9-2.4,5.3-5.3,5.3H93.9c-2.9,0-5.3-2.4-5.3-5.3v-13.1
			C88.6,324.9,90.9,322.6,93.9,322.6z"/>
		<path id="44" class="st3" d="M93.9,349.5h29.9c2.9,0,5.3,2.4,5.3,5.3v13.1c0,2.9-2.4,5.3-5.3,5.3H93.9c-2.9,0-5.3-2.4-5.3-5.3v-13.1
			C88.6,351.8,90.9,349.5,93.9,349.5z"/>
		<path id="45" class="st3" d="M66.5,322.6h12.7c2.9,0,5.3,2.4,5.3,5.3v39.9c0,2.9-2.4,5.3-5.3,5.3H66.5c-2.9,0-5.3-2.4-5.3-5.3v-39.9
			C61.2,324.9,63.5,322.6,66.5,322.6z"/>
		<path id="46" class="st3" d="M66.5,376.9h41.4c2.9,0,5.3,2.4,5.3,5.3v13.6c0,2.9-2.4,5.3-5.3,5.3H66.5c-2.9,0-5.3-2.4-5.3-5.3v-13.6
			C61.2,379.2,63.5,376.9,66.5,376.9z"/>
		<path id="35" class="st4" d="M132.6,265.9h14.9c2.9,0,5.3,2.4,5.3,5.3v31c0,2.9-2.4,5.3-5.3,5.3h-14.9c-2.9,0-5.3-2.4-5.3-5.3v-31
			C127.3,268.3,129.6,265.9,132.6,265.9z"/>
		<path id="32" class="st4" d="M162,253h31c2.9,0,5.3,2.4,5.3,5.3v13.1c0,2.9-2.4,5.3-5.3,5.3h-31c-2.9,0-5.3-2.4-5.3-5.3v-13.1
			C156.7,255.4,159.1,253,162,253z"/>
		<path id="34" class="st4" d="M162,280.8h31c2.9,0,5.3,2.4,5.3,5.3v13.1c0,2.9-2.4,5.3-5.3,5.3h-31c-2.9,0-5.3-2.4-5.3-5.3v-13.1
			C156.7,283.2,159.1,280.8,162,280.8z"/>
		<path id="31" class="st4" d="M207.3,253h31c2.9,0,5.3,2.4,5.3,5.3v13.1c0,2.9-2.4,5.3-5.3,5.3h-31c-2.9,0-5.3-2.4-5.3-5.3v-13.1
			C202,255.4,204.4,253,207.3,253z"/>
		<path id="33" class="st4" d="M207.3,280.8h31c2.9,0,5.3,2.4,5.3,5.3v13.1c0,2.9-2.4,5.3-5.3,5.3h-31c-2.9,0-5.3-2.4-5.3-5.3v-13.1
			C202,283.2,204.4,280.8,207.3,280.8z"/>
		<path id="37" class="st5" d="M162,317h31c2.9,0,5.3,2.4,5.3,5.3v13.1c0,2.9-2.4,5.3-5.3,5.3h-31c-2.9,0-5.3-2.4-5.3-5.3v-13.1
			C156.7,319.4,159.1,317,162,317z"/>
		<path id="39" class="st5" d="M162,345.7h31c2.9,0,5.3,2.4,5.3,5.3v13.1c0,2.9-2.4,5.3-5.3,5.3h-31c-2.9,0-5.3-2.4-5.3-5.3V351
			C156.7,348.1,159.1,345.7,162,345.7z"/>
		<path id="36" class="st5" d="M207.5,317h31c2.9,0,5.3,2.4,5.3,5.3v13.1c0,2.9-2.4,5.3-5.3,5.3h-31c-2.9,0-5.3-2.4-5.3-5.3v-13.1
			C202.2,319.4,204.6,317,207.5,317z"/>
		<path id="38" class="st5" d="M207.5,345.7h31c2.9,0,5.3,2.4,5.3,5.3v13.1c0,2.9-2.4,5.3-5.3,5.3h-31c-2.9,0-5.3-2.4-5.3-5.3V351
			C202.2,348.1,204.6,345.7,207.5,345.7z"/>
		<path id="6" class="st1" d="M497,180.1c-2.9,0-5.3,2.4-5.3,5.3v10c0,2.9,1.5,5.3,3.2,5.3s3.2,2.4,3.2,5.3v10c0,2.9,2.4,5.3,5.3,5.3h10.1
			c2.9,0,5.3-2.4,5.3-5.3v-30.6c0-2.9-2.4-5.3-5.3-5.3H497z"/>
		<path  class="st6" d="M463.5,197.8h6.4c2.9,0,5.3,2.4,5.3,5.3v1.9c0,2.9-2.4,5.3-5.3,5.3h-6.4c-2.9,0-5.3-2.4-5.3-5.3v-1.9
			C458.2,200.2,460.5,197.8,463.5,197.8z"/>
		<path id="17" class="st6" d="M374.4,210.4h14.9c2.9,0,5.3,2.4,5.3,5.3v38.5c0,2.9-2.4,5.3-5.3,5.3h-14.9c-2.9,0-5.3-2.4-5.3-5.3v-38.5
			C369.1,212.8,371.5,210.4,374.4,210.4z"/>
		<path id="23" class="st6" d="M371.7,320.5h14.9c2.9,0,5.3,2.4,5.3,5.3v23.6c0,2.9-2.4,5.3-5.3,5.3h-14.9c-2.9,0-5.3-2.4-5.3-5.3v-23.6
			C366.4,322.9,368.8,320.5,371.7,320.5z"/>
		<path id="16" class="st6" d="M403.8,224.7h30.6c2.9,0,5.3,2.4,5.3,5.3v15.2c0,2.9-2.4,5.3-5.3,5.3h-30.6c-2.9,0-5.3-2.4-5.3-5.3V230
			C398.5,227.1,400.8,224.7,403.8,224.7z"/>
		<path id="18" class="st6" d="M403.8,254.3h30.6c2.9,0,5.3,2.4,5.3,5.3V283c0,2.9-2.4,5.3-5.3,5.3h-30.6c-2.9,0-5.3-2.4-5.3-5.3v-23.5
			C398.5,256.6,400.8,254.3,403.8,254.3z"/>
		<path id="20" class="st6" d="M410.2,292.1h24.2c2.9,0,5.3,2.4,5.3,5.3v14.1c0,2.9-2.4,5.3-5.3,5.3h-24.2c-2.9,0-5.3-2.4-5.3-5.3v-14.1
			C404.9,294.4,407.3,292.1,410.2,292.1z"/>
		<path id="21" class="st6" d="M363.5,292.1h32.4c2.9,0,5.3,2.4,5.3,5.3v14.1c0,2.9-2.4,5.3-5.3,5.3h-32.4c-2.9,0-5.3-2.4-5.3-5.3v-14.1
			C358.2,294.4,360.5,292.1,363.5,292.1z"/>
		<path id="22" class="st6" d="M400.9,320.5h33.5c2.9,0,5.3,2.4,5.3,5.3v15.6c0,2.9-2.4,5.3-5.3,5.3h-33.5c-2.9,0-5.3-2.4-5.3-5.3v-15.6
			C395.6,322.9,398,320.5,400.9,320.5z"/>
		<path id="19" class="st6" d="M363.7,263.2c-2.9,0-5.3,2.4-5.3,5.3v7.3c0,2.9-2.4,5.3-5.3,5.3h-35.3c-2.9,0-5.3,1.6-5.3,3.6
			s2.4,3.6,5.3,3.6h71.5c2.9,0,5.3-2.4,5.3-5.3v-14.5c0-2.9-2.4-5.3-5.3-5.3L363.7,263.2z"/>
		<path id="26" class="st7" d="M252.6,252.7h14.1c2.9,0,5.3,2.4,5.3,5.3v44.6c0,2.9-2.4,5.3-5.3,5.3h-14.1c-2.9,0-5.3-2.4-5.3-5.3V258
			C247.3,255.1,249.7,252.7,252.6,252.7z"/>
		<path id="25" class="st8" d="M281.1,268.8h22.7c2.9,0,5.3,2.4,5.3,5.3v15.2c0,2.9-2.4,5.3-5.3,5.3h-22.7c-2.9,0-5.3-2.4-5.3-5.3v-15.2
			C275.8,271.2,278.2,268.8,281.1,268.8z"/>
		<path class="st7" d="M308,292.1h14.5c2.9,0,5.3,2.4,5.3,5.3v9.8c0,2.9-2.4,5.3-5.3,5.3H308c-2.9,0-5.3-2.4-5.3-5.3v-9.8
			C302.7,294.4,305,292.1,308,292.1z"/>
		<path id="29" class="st7" d="M281.1,298.4H294c2.9,0,5.3,2.4,5.3,5.3V328c0,2.9-2.4,5.3-5.3,5.3h-12.9c-2.9,0-5.3-2.4-5.3-5.3v-24.3
			C275.8,300.8,278.2,298.4,281.1,298.4z"/>
		<path id="28" class="st7" d="M308,315.8h14.5c2.9,0,5.3,2.4,5.3,5.3v27.2c0,2.9-2.4,5.3-5.3,5.3H308c-2.9,0-5.3-2.4-5.3-5.3v-27.2
			C302.7,318.2,305,315.8,308,315.8z"/>
		<path id="24" class="st7" d="M336.8,292.1h12.3c2.9,0,5.3,2.4,5.3,5.3v18.4c0,2.9-2.4,5.3-5.3,5.3h-12.3c-2.9,0-5.3-2.4-5.3-5.3v-18.4
			C331.5,294.4,333.9,292.1,336.8,292.1z"/>
		<path id="27" class="st7" d="M336.8,324.8h12.3c2.9,0,5.3,2.4,5.3,5.3V360c0,2.9-2.4,5.3-5.3,5.3h-12.3c-2.9,0-5.3-2.4-5.3-5.3v-29.9
			C331.5,327.2,333.9,324.8,336.8,324.8z"/>
		<path id="30" class="st7" d="M304.6,357.1c-2.9,0-5.3-2.4-5.3-5.3v-9.1c0-2.9-2.4-5.3-5.3-5.3h-12.9c-2.9,0-5.3,2.4-5.3,5.3v18.4
			c0,2.9,2.4,5.3,5.3,5.3h41.4c2.9,0,5.3-2.1,5.3-4.7s-2.4-4.7-5.3-4.7H304.6z"/>
		<path class="st7" d="M266.5,322.4c0,2.5-2.4,4.5-5.3,4.5h-3c-2.9,0-5.3-2-5.3-4.5s2.4-4.5,5.3-4.5h3
			C264.1,317.9,266.5,319.9,266.5,322.4z"/>
		<path id="15" class="st6" d="M487.7,204.1c-2.9,0-5.3,2.4-5.3,5.3v6.9c0,2.9-0.6,6-1.4,6.9s-3.8,1.6-6.7,1.6h-25.6c-2.9,0-5.3,2.4-5.3,5.3
			v15.2c0,2.9,2.4,5.3,5.3,5.3h25.6c2.9,0,5.3-0.8,5.3-1.8s1.5-3.7,3.3-6l7.1-8.8c1.8-2.3,3.3-4.6,3.3-5.2v-19.2
			c0-2.9-2.4-5.3-5.3-5.3H487.7z"/>
		
		<text transform="matrix(1 0 0 1 510.04 119.58)" class="st9 st10 st11">2</text>
		<text transform="matrix(1 0 0 1 527.51 155.13)" class="st9 st10 st11">3</text>
		<text transform="matrix(1 0 0 1 527.51 200.8)" class="st9 st10 st11">5</text>
		<text transform="matrix(1 0 0 1 510.04 235.09)" class="st9 st10 st11">7</text>
		<text transform="matrix(1 0 0 1 527.82 274.04)" class="st9 st10 st11">8</text>
		<text transform="matrix(1 0 0 1 518.6 330.98)" class="st9 st10 st11">11</text>
		<text transform="matrix(1 0 0 1 492.25 265.35)" class="st9 st10 st11">9</text>
		<text transform="matrix(1 0 0 1 462.39 297.03)" class="st9 st10 st11">12</text>
		<text transform="matrix(1 0 0 1 462.39 325.9)" class="st9 st10 st11">13</text>
		<text transform="matrix(1 0 0 1 452.33 355.11)" class="st9 st10 st11">14</text>
		<text transform="matrix(1 0 0 1 442.08 265.35)" class="st9 st10 st11">10</text>
		<text transform="matrix(1 0 0 1 446.08 235.96)" class="st9 st10 st11">15</text>
		<text transform="matrix(1 0 0 1 399.93 235.96)" class="st9 st10 st11">16</text>
		<text transform="matrix(1 0 0 1 363.38 235.13)" class="st9 st10 st11">17</text>
		<text transform="matrix(1 0 0 1 363.38 273.98)" class="st9 st10 st11">19</text>
		<text transform="matrix(1 0 0 1 399.93 268.83)" class="st9 st10 st11">18</text>
		<text transform="matrix(1 0 0 1 405.67 300.18)" class="st9 st10 st11">20</text>
		<text transform="matrix(1 0 0 1 400.01 330.39)" class="st9 st10 st11">22</text>
		<text transform="matrix(1 0 0 1 363.38 305.71)" class="st9 st10 st11">21</text>
		<text transform="matrix(1 0 0 1 363.52 334.35)" class="st9 st10 st11">23</text>
		<text transform="matrix(1 0 0 1 324.77 305.88)" class="st9 st10 st11">24</text>
		<text transform="matrix(1 0 0 1 275.06 280.73)" class="st9 st10 st11">25</text>
		<text transform="matrix(1 0 0 1 242.21 275.73)" class="st9 st10 st11">26</text>
		<text transform="matrix(1 0 0 1 204.82 263.75)" class="st9 st10 st11">31</text>
		<text transform="matrix(1 0 0 1 160.61 263.35)" class="st9 st10 st11">32</text>
		<text transform="matrix(1 0 0 1 122.04 285.6)" class="st9 st10 st11">35</text>
		<text transform="matrix(1 0 0 1 68.21 297.71)" class="st9 st10 st11">40</text>
		<text transform="matrix(1 0 0 1 27.3 297.71)" class="st9 st10 st11">41</text>
		<text transform="matrix(1 0 0 1 0.19 297.71)" class="st9 st10 st11">42</text>
		<text transform="matrix(1 0 0 1 0.19 380.28)" class="st9 st10 st11">47</text>
		<text transform="matrix(1 0 0 1 90.97 332.6)" class="st9 st10 st11">43</text>
		<text transform="matrix(1 0 0 1 53.88 346.78)" class="st9 st10 st11">45</text>
		<text transform="matrix(1 0 0 1 90.86 360.16)" class="st9 st10 st11">44</text>
		<text transform="matrix(1 0 0 1 70.1 385.76)" class="st9 st10 st11">46</text>
		<text transform="matrix(1 0 0 1 160.61 290.7)" class="st9 st10 st11">34</text>
		<text transform="matrix(1 0 0 1 205.82 290.7)" class="st9 st10 st11">33</text>
		<text transform="matrix(1 0 0 1 205.82 325.57)" class="st9 st10 st11">36</text>
		<text transform="matrix(1 0 0 1 160.61 325.57)" class="st9 st10 st11">37</text>
		<text transform="matrix(1 0 0 1 205.82 355.24)" class="st9 st10 st11">38</text>
		<text transform="matrix(1 0 0 1 160.61 355.24)" class="st9 st10 st11">39</text>
		<text transform="matrix(1 0 0 1 295.95 332.66)" class="st9 st10 st11">28</text>
		<text transform="matrix(1 0 0 1 269.29 312.78)" class="st9 st10 st11">29</text>
		<text transform="matrix(1 0 0 1 270.37 348.73)" class="st9 st10 st11">30</text>
		<text transform="matrix(1 0 0 1 324.77 344.55)" class="st9 st10 st11">27</text>
		<text transform="matrix(1 0 0 1 496 200.8)" class="st9 st10 st11">6</text>
		<text transform="matrix(1 0 0 1 496 155.13)" class="st9 st10 st11">4</text>
		<line class="st12" x1="0" y1="340.7" x2="0.9" y2="340.7"/>
		<line class="st13" x1="4.7" y1="340.7" x2="42.4" y2="340.7"/>
		<polyline class="st12" points="44.3,340.7 45.2,340.7 45.2,341.6"/>
		<line class="st14" x1="45.2" y1="345.3" x2="45.2" y2="404.2"/>
		<line class="st12" x1="45.2" y1="406.1" x2="45.2" y2="407"/>
	</g>
</g>
</svg>