<?xml version="1.0" encoding="UTF-8"?>
<svg id="g-gunma-h1-a" data-name="g-gunma-h1-a" xmlns="http://www.w3.org/2000/svg" width="607.2417" height="160.70139" viewBox="0 0 607.2417 160.70139">
  <g id="gunma-h1">
    <g id="gunma-h1-a">
      <g opacity=".32">
        <path d="M43.29883,116.23291h30.19141v.54883c0,12.51562-3.73291,22.72559-10.86914,29.64258-7.5752,7.35547-16.57764,9.33105-24.92139,9.33105-10.64941,0-18.22461-3.07324-24.92188-9.99023-7.13623-7.35547-10.86914-17.12695-10.86914-27.66602,0-11.41797,4.61133-21.29883,10.64941-27.33691,6.25781-6.36816,16.24854-10.97852,27.55664-10.97852,6.5874,0,13.39404,1.42676,19.10303,4.61035,6.03809,3.40332,9.771,7.68555,11.85693,10.97852l-8.89258,6.25879c-2.1958-3.07422-5.48926-6.36816-9.00244-8.34473-4.0625-2.41504-8.45361-3.18359-12.95508-3.18359-9.55127,0-15.69971,3.95215-19.32275,7.5752-4.83057,4.83105-7.79443,12.62598-7.79443,20.53027,0,7.35547,2.74463,14.71191,7.5752,19.87207,5.05029,5.37891,11.30811,7.35547,18.33447,7.35547,6.36768,0,11.63721-1.86621,16.35791-6.47754,4.0625-3.95215,5.70898-8.23438,6.14844-12.40625h-18.22461v-10.31934Z" fill="none" stroke="#f1f1f1" stroke-miterlimit="10" stroke-width="1.5"/>
        <path d="M98.74023,81.10107v44.13379c0,3.95215,.10938,8.7832,2.30518,12.62598,2.1958,3.73242,7.13623,7.5752,13.61377,7.5752s11.41797-3.84277,13.61377-7.5752c2.19531-3.84277,2.30518-8.67383,2.30518-12.62598v-44.13379h11.19824v47.09863c0,5.81836-1.20752,12.84473-6.80664,18.99316-3.84277,4.17188-10.31982,8.5625-20.31055,8.5625s-16.46826-4.39062-20.31055-8.5625c-5.59912-6.14844-6.80713-13.1748-6.80713-18.99316v-47.09863h11.19873Z" fill="none" stroke="#f1f1f1" stroke-miterlimit="10" stroke-width="1.5"/>
        <path d="M159.34229,154.32861V76.16064l53.13672,55.66211v-50.72168h11.19824v77.72852l-53.13672-55.66211v51.16113h-11.19824Z" fill="none" stroke="#f1f1f1" stroke-miterlimit="10" stroke-width="1.5"/>
        <path d="M239.04688,154.32861l15.37012-78.7168,25.47021,56.86914,25.69043-56.86914,13.83301,78.7168h-11.41797l-7.46533-44.13477-21.29883,47.53809-21.0791-47.64746-7.68506,44.24414h-11.41748Z" fill="none" stroke="#f1f1f1" stroke-miterlimit="10" stroke-width="1.5"/>
        <path d="M377.81689,136.65283h-31.28906l-8.01465,17.67578h-12.07666l36.44971-77.50977,34.69238,77.50977h-12.07666l-7.68506-17.67578Zm-4.50098-10.53905l-10.86914-24.81251-11.30811,24.81251h22.17725Z" fill="none" stroke="#f1f1f1" stroke-miterlimit="10" stroke-width="1.5"/>
      </g>
      <g opacity=".15">
        <path d="M43.29883,116.23291h30.19141v.54883c0,12.51562-3.73291,22.72559-10.86914,29.64258-7.5752,7.35547-16.57764,9.33105-24.92139,9.33105-10.64941,0-18.22461-3.07324-24.92188-9.99023-7.13623-7.35547-10.86914-17.12695-10.86914-27.66602,0-11.41797,4.61133-21.29883,10.64941-27.33691,6.25781-6.36816,16.24854-10.97852,27.55664-10.97852,6.5874,0,13.39404,1.42676,19.10303,4.61035,6.03809,3.40332,9.771,7.68555,11.85693,10.97852l-8.89258,6.25879c-2.1958-3.07422-5.48926-6.36816-9.00244-8.34473-4.0625-2.41504-8.45361-3.18359-12.95508-3.18359-9.55127,0-15.69971,3.95215-19.32275,7.5752-4.83057,4.83105-7.79443,12.62598-7.79443,20.53027,0,7.35547,2.74463,14.71191,7.5752,19.87207,5.05029,5.37891,11.30811,7.35547,18.33447,7.35547,6.36768,0,11.63721-1.86621,16.35791-6.47754,4.0625-3.95215,5.70898-8.23438,6.14844-12.40625h-18.22461v-10.31934Z" fill="#f1f1f1"/>
      </g>
      <path d="M9.17871,5.7417V26.29492h-3.67139V5.7417H0V2.28613H14.68604v3.45557h-5.50732Z" fill="#f1f1f1"/>
      <path d="M21.59912,11.78857h10.29443V2.28613h3.67188V26.29492h-3.67188V15.24414h-10.29443v11.05078h-3.67188V2.28613h3.67188V11.78857Z" fill="#f1f1f1"/>
      <path d="M54.57373,5.7417h-9.57471v6.08301h9.28662v3.45557h-9.28662v7.55908h9.57471v3.45557h-13.24609V2.28613h13.24609v3.45557Z" fill="#f1f1f1"/>
      <path d="M81.80957,13.3252h12.54639v.32812c0,1.84521-.24609,7.58496-4.01807,11.31592-2.8291,2.8291-6.31445,3.6084-9.71729,3.6084s-6.9292-.69727-9.92188-3.69043c-.94336-.94287-4.05908-4.38672-4.05908-10.53711,0-5.28906,2.37793-8.52783,4.01807-10.16797,2.0498-2.09082,5.49365-4.18213,10.78271-4.18213,2.05029,0,4.22314,.32812,6.31445,1.43506,1.7627,.90234,3.68994,2.54199,5.125,5.00195l-4.6333,2.50098c-.94287-1.84473-2.33691-2.7876-3.19775-3.23877-1.14844-.57422-2.58301-.86084-3.854-.86084-2.17334,0-4.6333,.77881-6.31445,2.41895-1.55762,1.51709-2.74707,4.14111-2.74707,7.21582,0,3.64941,1.55811,5.82227,2.70605,6.9292,1.22998,1.18896,3.15723,2.33691,6.06836,2.33691,1.80371,0,3.854-.4917,5.37109-1.64014,1.06592-.81982,2.13184-2.21387,2.58301-4.18164h-7.05225v-4.59229Z" fill="#f1f1f1"/>
      <path d="M103.32227,2.28613c2.91553,0,4.7876,.35986,6.33545,1.40381,2.62744,1.76367,2.84326,4.60742,2.84326,5.65088,0,3.45557-2.12354,5.97559-5.32715,6.69531l7.48682,10.25879h-4.42725l-6.875-9.82666h-.64795v9.82666h-3.67188V2.28613h4.28369Zm-.61182,11.01465h1.15186c1.00781,0,5.11133-.1084,5.11133-3.92383,0-3.3833-3.20361-3.70752-5.00342-3.70752h-1.25977v7.63135Z" fill="#f1f1f1"/>
      <path d="M132.37305,20.49951h-10.25879l-2.62744,5.79541h-3.95947L127.47803,.88232l11.37451,25.4126h-3.95947l-2.52002-5.79541Zm-1.47559-3.45557l-3.56348-8.13477-3.70752,8.13477h7.271Z" fill="#f1f1f1"/>
      <path d="M159.66064,7.90137c-2.66406-2.41162-5.14746-2.66357-6.51562-2.66357-5.21924,0-8.74658,3.85107-8.74658,9.14258,0,5.0752,3.67139,8.99902,8.78271,8.99902,2.87988,0,5.11133-1.47607,6.47949-2.77197v4.35547c-2.41211,1.43994-4.93164,1.7998-6.5874,1.7998-4.35547,0-7.09131-1.97949-8.49512-3.31152-2.80762-2.62744-3.85107-5.68701-3.85107-9.0708,0-4.42725,1.83545-7.48682,3.85107-9.39453,2.48389-2.33984,5.36377-3.13184,8.67529-3.13184,2.19531,0,4.31934,.396,6.40723,1.72754V7.90137Z" fill="#f1f1f1"/>
      <path d="M167.87012,2.28613V26.29492h-3.67139V2.28613h3.67139Z" fill="#f1f1f1"/>
      <path d="M197.45898,14.30859c0,7.05519-5.29102,12.4541-12.49023,12.4541s-12.49072-5.39891-12.49072-12.4541,5.2915-12.45459,12.49072-12.45459,12.49023,5.39941,12.49023,12.45459Zm-3.67139,0c0-5.32764-3.67139-9.0708-8.81885-9.0708s-8.81885,3.74316-8.81885,9.0708c0,5.32715,3.67139,9.0708,8.81885,9.0708s8.81885-3.74365,8.81885-9.0708Z" fill="#f1f1f1"/>
      <path d="M205.7417,2.28613v14.47021c0,1.29541,.03613,2.87939,.75586,4.13916,.71973,1.22412,2.33984,2.48389,4.46338,2.48389s3.74365-1.25977,4.46338-2.48389c.72021-1.25977,.75586-2.84375,.75586-4.13916V2.28613h3.67188v15.44189c0,1.90771-.396,4.21143-2.23193,6.22705-1.25977,1.36816-3.38379,2.80762-6.65918,2.80762s-5.39941-1.43945-6.65918-2.80762c-1.83594-2.01562-2.23193-4.31934-2.23193-6.22705V2.28613h3.67188Z" fill="#f1f1f1"/>
      <path d="M235.97998,7.61328c-.21582-.54004-.53955-1.04395-1.07959-1.51172-.75586-.61182-1.54785-.86377-2.5918-.86377-2.23145,0-3.3833,1.33154-3.3833,2.87939,0,.71973,.25195,1.97998,2.59131,2.91553l2.41211,.97217c4.42725,1.7998,5.65088,4.31934,5.65088,7.05518,0,4.57129-3.23926,7.70264-7.73877,7.70264-2.77197,0-4.42773-1.04346-5.65137-2.41162-1.2959-1.43994-1.87158-3.02344-2.01562-4.6792l3.63525-.79199c0,1.18799,.43213,2.30371,1.00781,3.05957,.68408,.86377,1.69189,1.43994,3.13184,1.43994,2.23193,0,3.95947-1.62012,3.95947-4.03174,0-2.44775-1.87158-3.45557-3.45557-4.10352l-2.30371-.97168c-1.97949-.82812-4.89551-2.48389-4.89551-6.0835,0-3.23926,2.52002-6.33496,7.01904-6.33496,2.5918,0,4.06787,.97168,4.82373,1.61963,.64795,.57617,1.33154,1.40381,1.83545,2.41162l-2.95166,1.72803Z" fill="#f1f1f1"/>
      <path d="M256.24854,11.78857h10.29443V2.28613h3.67188V26.29492h-3.67188V15.24414h-10.29443v11.05078h-3.67188V2.28613h3.67188V11.78857Z" fill="#f1f1f1"/>
      <path d="M299.80566,14.30859c0,7.05519-5.29102,12.4541-12.49023,12.4541s-12.49072-5.39891-12.49072-12.4541,5.2915-12.45459,12.49072-12.45459,12.49023,5.39941,12.49023,12.45459Zm-3.67139,0c0-5.32764-3.67139-9.0708-8.81885-9.0708s-8.81885,3.74316-8.81885,9.0708c0,5.32715,3.67139,9.0708,8.81885,9.0708s8.81885-3.74365,8.81885-9.0708Z" fill="#f1f1f1"/>
      <path d="M314.78369,7.61328c-.21631-.54004-.54004-1.04395-1.08008-1.51172-.75586-.61182-1.54785-.86377-2.5918-.86377-2.23145,0-3.3833,1.33154-3.3833,2.87939,0,.71973,.25195,1.97998,2.59131,2.91553l2.41211,.97217c4.42725,1.7998,5.65088,4.31934,5.65088,7.05518,0,4.57129-3.23926,7.70264-7.73877,7.70264-2.77148,0-4.42773-1.04346-5.65137-2.41162-1.2959-1.43994-1.87158-3.02344-2.01562-4.6792l3.63525-.79199c0,1.18799,.43213,2.30371,1.00781,3.05957,.68408,.86377,1.69189,1.43994,3.13184,1.43994,2.23193,0,3.95947-1.62012,3.95947-4.03174,0-2.44775-1.87158-3.45557-3.45557-4.10352l-2.30371-.97168c-1.97949-.82812-4.89551-2.48389-4.89551-6.0835,0-3.23926,2.52002-6.33496,7.01904-6.33496,2.5918,0,4.06787,.97168,4.82373,1.61963,.64795,.57617,1.33154,1.40381,1.83545,2.41162l-2.95117,1.72803Z" fill="#f1f1f1"/>
      <path d="M328.28369,2.28613c1.47607,0,3.52783,.14355,5.25537,1.29541,2.01562,1.33203,2.98779,3.63574,2.98779,5.83154,0,1.40381-.35986,3.56348-2.33984,5.25537-1.90771,1.61963-4.10352,1.87158-5.86719,1.87158h-1.65576v9.75488h-3.67139V2.28613h5.29102Zm-1.61963,10.87061h1.65576c3.16748,0,4.6792-1.54785,4.6792-3.77979,0-1.33154-.53955-3.70752-4.71533-3.70752h-1.61963v7.4873Z" fill="#f1f1f1"/>
      <path d="M343.94385,2.28613V26.29492h-3.67188V2.28613h3.67188Z" fill="#f1f1f1"/>
      <path d="M356.36279,5.7417V26.29492h-3.67139V5.7417h-5.50732V2.28613h14.68604v3.45557h-5.50732Z" fill="#f1f1f1"/>
      <path d="M379.22168,20.49951h-10.25879l-2.62744,5.79541h-3.95947L374.32666,.88232l11.37451,25.4126h-3.95947l-2.52002-5.79541Zm-1.47559-3.45557l-3.56348-8.13477-3.70752,8.13477h7.271Z" fill="#f1f1f1"/>
      <path d="M392.39893,2.28613V22.83936h7.05518v3.45557h-10.72705V2.28613h3.67188Z" fill="#f1f1f1"/>
      <path d="M406.58301,2.28613V26.29492h-3.67139V2.28613h3.67139Z" fill="#f1f1f1"/>
      <path d="M419.00195,5.7417V26.29492h-3.67139V5.7417h-5.50732V2.28613h14.68604v3.45557h-5.50732Z" fill="#f1f1f1"/>
      <path d="M432.75391,15.92822l-7.88281-13.64209h4.17529l5.54346,9.61084,5.54346-9.61084h4.17529l-7.88281,13.64209v10.3667h-3.67188V15.92822Z" fill="#f1f1f1"/>
      <path d="M479.40723,14.30859c0,7.05519-5.29102,12.4541-12.49023,12.4541s-12.49072-5.39891-12.49072-12.4541,5.2915-12.45459,12.49072-12.45459,12.49023,5.39941,12.49023,12.45459Zm-3.67139,0c0-5.32764-3.67139-9.0708-8.81885-9.0708s-8.81885,3.74316-8.81885,9.0708c0,5.32715,3.67139,9.0708,8.81885,9.0708s8.81885-3.74365,8.81885-9.0708Z" fill="#f1f1f1"/>
      <path d="M496.04053,5.7417h-8.35059v6.08301h8.0625v3.45557h-8.0625v11.01465h-3.67188V2.28613h12.02246v3.45557Z" fill="#f1f1f1"/>
      <path d="M515.87646,2.28613v15.5498c0,1.90771-.07129,3.81543-.89941,5.47119-.75586,1.51221-2.37598,3.45557-5.65137,3.45557-2.12402,0-3.52734-.75586-4.24707-1.22363l1.79883-3.0957c.46875,.396,1.22461,.86377,2.52051,.86377,.61133,0,1.7998-.10791,2.41113-1.61963,.21582-.54004,.39648-1.40381,.39648-3.85156V2.28613h3.6709Z" fill="#f1f1f1"/>
      <path d="M535.74854,20.49951h-10.25879l-2.62793,5.79541h-3.95996l11.95117-25.4126,11.37402,25.4126h-3.95898l-2.51953-5.79541Zm-1.47656-3.45557l-3.56348-8.13477-3.70703,8.13477h7.27051Z" fill="#f1f1f1"/>
      <path d="M550.54443,2.28613c1.47559,0,3.52734,.14355,5.25586,1.29541,2.01562,1.33203,2.9873,3.63574,2.9873,5.83154,0,1.40381-.36035,3.56348-2.33984,5.25537-1.9082,1.61963-4.10352,1.87158-5.86719,1.87158h-1.65625v9.75488h-3.6709V2.28613h5.29102Zm-1.62012,10.87061h1.65625c3.16797,0,4.67969-1.54785,4.67969-3.77979,0-1.33154-.54004-3.70752-4.71582-3.70752h-1.62012v7.4873Z" fill="#f1f1f1"/>
      <path d="M576.64404,20.49951h-10.25879l-2.62793,5.79541h-3.95996l11.95117-25.4126,11.37402,25.4126h-3.95898l-2.51953-5.79541Zm-1.47656-3.45557l-3.56348-8.13477-3.70703,8.13477h7.27051Z" fill="#f1f1f1"/>
      <path d="M586.14893,26.29492V.66602l17.42188,18.25V2.28613h3.6709V27.77051l-17.42188-18.24951V26.29492h-3.6709Z" fill="#f1f1f1"/>
      <path d="M8.8208,51.29346h5.83691v.33594c0,1.55371-.46191,3.2334-1.34375,4.43018-.41992,.56689-1.99463,2.51953-5.20703,2.51953-4.15723,0-7.26465-3.17041-7.26465-7.24365s3.12842-7.24365,7.30664-7.24365c1.34375,0,2.91846,.33594,4.2832,1.38574,.62988,.48291,1.21777,1.11279,1.6167,1.65869l-1.15479,1.0498c-.39893-.56689-.86084-1.0708-1.32275-1.44873-.67188-.5459-1.72168-1.17578-3.40137-1.17578-3.38037,0-5.73193,2.54053-5.73193,5.79492,0,3.82129,3.04443,5.75293,5.68994,5.75293,1.86865,0,3.48535-.94482,4.2832-2.35156,.25195-.44092,.5249-1.11279,.56689-1.99463h-4.15723v-1.46973Z" fill="#f1f1f1"/>
      <path d="M18.6499,43.021v15.30615h-1.51172v-15.30615h1.51172Z" fill="#f1f1f1"/>
      <path d="M22.26172,45.24658c.58789,0,1.0708,.48291,1.0708,1.0708s-.48291,1.0708-1.0708,1.0708-1.0708-.48291-1.0708-1.0708,.48291-1.0708,1.0708-1.0708Zm.75586,4.3672v8.71337h-1.51172v-8.71337h1.51172Z" fill="#f1f1f1"/>
      <path d="M25.87354,49.61378h1.51172v.92382c.48291-.71387,1.23877-1.13379,2.1626-1.13379,1.57471,0,2.20459,1.11279,2.37256,1.40674,.83984-1.32275,2.03662-1.40674,2.62451-1.40674,2.58252,0,2.83447,2.1626,2.83447,3.40137v5.52197h-1.51172v-5.29102c0-.98682-.12598-2.28857-1.55371-2.28857-1.74268,0-1.93164,1.67969-1.93164,2.72949v4.8501h-1.51172v-5.16504c0-.60889,.021-2.41455-1.57471-2.41455-1.72168,0-1.91064,1.78467-1.91064,2.83447v4.74512h-1.51172v-8.71337Z" fill="#f1f1f1"/>
      <path d="M41.77002,63.15625h-1.51172v-13.54247h1.51172v1.21776c1.02881-1.28076,2.35156-1.42773,2.98145-1.42773,2.72949,0,4.24121,2.26758,4.24121,4.61914,0,2.39355-1.53271,4.55615-4.17822,4.55615-1.40674,0-2.39355-.62988-3.04443-1.46973v6.04688Zm5.66895-9.1333c0-2.1416-1.44873-3.27539-2.85547-3.27539s-2.89746,1.15479-2.89746,3.25439c0,1.78467,1.13379,3.2334,2.91846,3.2334,1.76367,0,2.83447-1.46973,2.83447-3.2124Z" fill="#f1f1f1"/>
      <path d="M54.89453,51.62939c-.20996-.50391-.65088-.88184-1.21777-.88184-.5459,0-1.0498,.31494-1.0498,.98682,0,.62988,.41992,.81885,1.40674,1.23877,1.25977,.5249,1.84766,.92383,2.18359,1.34375,.37793,.46191,.46191,.92383,.46191,1.40674,0,1.82666-1.32275,2.85547-3.00244,2.85547-.35693,0-2.30957-.04199-3.04443-2.22559l1.30176-.5459c.16797,.46191,.67188,1.42773,1.76367,1.42773,.98682,0,1.42773-.73486,1.42773-1.38574,0-.81885-.58789-1.0918-1.40674-1.44873-1.0498-.46191-1.72168-.79785-2.12061-1.28076-.33594-.41992-.39893-.83984-.39893-1.28076,0-1.53271,1.0708-2.43555,2.54053-2.43555,.46191,0,1.70068,.08398,2.39355,1.57471l-1.23877,.65088Z" fill="#f1f1f1"/>
      <path d="M66.42236,56.10156c-.25195,.48291-.62988,1.00781-1.0708,1.40674-.79785,.71387-1.78467,1.0708-2.89746,1.0708-2.09961,0-4.3042-1.32275-4.3042-4.55615,0-2.60352,1.5957-4.61914,4.22021-4.61914,1.70068,0,2.77148,.83984,3.29639,1.5957,.5459,.77686,.86084,2.12061,.81885,3.27539h-6.78174c.021,1.80566,1.25977,2.96045,2.77148,2.96045,.71387,0,1.28076-.20996,1.78467-.62988,.39893-.33594,.71387-.77686,.90283-1.19678l1.25977,.69287Zm-1.49072-3.08643c-.25195-1.36475-1.28076-2.26758-2.56152-2.26758s-2.33057,.96582-2.56152,2.26758h5.12305Z" fill="#f1f1f1"/>
      <path d="M74.44482,45.24658c.58789,0,1.0708,.48291,1.0708,1.0708s-.48291,1.0708-1.0708,1.0708-1.0708-.48291-1.0708-1.0708,.48291-1.0708,1.0708-1.0708Zm.75586,4.3672v8.71337h-1.51172v-8.71337h1.51172Z" fill="#f1f1f1"/>
      <path d="M78.05664,49.61378h1.51172v1.0078c.27295-.35693,1.0498-1.21777,2.49854-1.21777,1.02881,0,1.97363,.41992,2.49854,1.19678,.44092,.65088,.50391,1.36475,.50391,2.33057v5.396h-1.51172v-5.354c0-.5249-.04199-1.13379-.39893-1.5957-.29395-.37793-.75586-.62988-1.42773-.62988-.5249,0-1.0918,.14697-1.53271,.67188-.58789,.69287-.62988,1.72168-.62988,2.35156v4.55615h-1.51172v-8.71337Z" fill="#f1f1f1"/>
      <path d="M89.47998,50.99951v7.32764h-1.51172v-7.32764h-.92383v-1.38573h.92383v-3.14943h1.51172v3.14943h1.51172v1.38573h-1.51172Z" fill="#f1f1f1"/>
      <path d="M91.87402,54.00195c0-2.64551,1.95264-4.59814,4.61914-4.59814s4.61914,1.95264,4.61914,4.59814-1.97363,4.57715-4.61914,4.57715-4.61914-1.93164-4.61914-4.57715Zm1.55371,0c0,2.1416,1.51172,3.2334,3.06543,3.2334,1.57471,0,3.06543-1.11279,3.06543-3.2334,0-2.1416-1.46973-3.25439-3.06543-3.25439s-3.06543,1.13379-3.06543,3.25439Z" fill="#f1f1f1"/>
      <path d="M109.87012,50.99951v7.32764h-1.51172v-7.32764h-.92383v-1.38573h.92383v-3.14943h1.51172v3.14943h1.51172v1.38573h-1.51172Z" fill="#f1f1f1"/>
      <path d="M112.81006,43.021h1.51172v7.60059c.27295-.35693,1.0498-1.21777,2.49854-1.21777,1.02881,0,1.97363,.41992,2.49854,1.19678,.44092,.65088,.50391,1.36475,.50391,2.33057v5.396h-1.51172v-5.354c0-.5249-.04199-1.13379-.39893-1.5957-.29395-.37793-.75586-.62988-1.42773-.62988-.5249,0-1.0918,.14697-1.53271,.67188-.58789,.69287-.62988,1.72168-.62988,2.35156v4.55615h-1.51172v-15.30615Z" fill="#f1f1f1"/>
      <path d="M130.40625,56.10156c-.25195,.48291-.62988,1.00781-1.0708,1.40674-.79785,.71387-1.78467,1.0708-2.89746,1.0708-2.09961,0-4.3042-1.32275-4.3042-4.55615,0-2.60352,1.5957-4.61914,4.22021-4.61914,1.70068,0,2.77148,.83984,3.29639,1.5957,.5459,.77686,.86084,2.12061,.81885,3.27539h-6.78174c.021,1.80566,1.25977,2.96045,2.77148,2.96045,.71387,0,1.28076-.20996,1.78467-.62988,.39893-.33594,.71386-.77686,.90283-1.19678l1.25977,.69287Zm-1.49072-3.08643c-.25195-1.36475-1.28076-2.26758-2.56152-2.26758s-2.33057,.96582-2.56152,2.26758h5.12305Z" fill="#f1f1f1"/>
      <path d="M139.18457,43.021v15.30615h-1.51172v-15.30615h1.51172Z" fill="#f1f1f1"/>
      <path d="M142.79639,45.24658c.58789,0,1.0708,.48291,1.0708,1.0708s-.48291,1.0708-1.0708,1.0708-1.0708-.48291-1.0708-1.0708,.48291-1.0708,1.0708-1.0708Zm.75586,4.3672v8.71337h-1.51172v-8.71337h1.51172Z" fill="#f1f1f1"/>
      <path d="M146.82812,49.61378l2.60352,5.87889,2.60352-5.87889h1.67969l-4.2832,9.28026-4.2832-9.28026h1.67969Z" fill="#f1f1f1"/>
      <path d="M163.03857,56.10156c-.25195,.48291-.62988,1.00781-1.0708,1.40674-.79785,.71387-1.78467,1.0708-2.89746,1.0708-2.09961,0-4.3042-1.32275-4.3042-4.55615,0-2.60352,1.5957-4.61914,4.22021-4.61914,1.70068,0,2.77148,.83984,3.29639,1.5957,.5459,.77686,.86084,2.12061,.81885,3.27539h-6.78174c.021,1.80566,1.25977,2.96045,2.77148,2.96045,.71387,0,1.28076-.20996,1.78467-.62988,.39893-.33594,.71387-.77686,.90283-1.19678l1.25977,.69287Zm-1.49072-3.08643c-.25195-1.36475-1.28076-2.26758-2.56152-2.26758s-2.33057,.96582-2.56152,2.26758h5.12305Z" fill="#f1f1f1"/>
      <path d="M169.00293,51.62939c-.20996-.50391-.65088-.88184-1.21777-.88184-.5459,0-1.0498,.31494-1.0498,.98682,0,.62988,.41992,.81885,1.40674,1.23877,1.25977,.5249,1.84766,.92383,2.18359,1.34375,.37793,.46191,.46191,.92383,.46191,1.40674,0,1.82666-1.32275,2.85547-3.00244,2.85547-.35693,0-2.30957-.04199-3.04443-2.22559l1.30176-.5459c.16797,.46191,.67188,1.42773,1.76367,1.42773,.98682,0,1.42773-.73486,1.42773-1.38574,0-.81885-.58789-1.0918-1.40674-1.44873-1.0498-.46191-1.72168-.79785-2.12061-1.28076-.33594-.41992-.39893-.83984-.39893-1.28076,0-1.53271,1.0708-2.43555,2.54053-2.43555,.46191,0,1.70068,.08398,2.39355,1.57471l-1.23877,.65088Z" fill="#f1f1f1"/>
      <path d="M184.37354,49.61378h1.51172v8.71337h-1.51172v-1.21777c-.50391,.65088-1.44873,1.46973-2.98145,1.46973-2.20459,0-4.24121-1.55371-4.24121-4.61914,0-3.00244,2.01562-4.55615,4.24121-4.55615,1.67969,0,2.58252,.92383,2.98145,1.44873v-1.23876Zm-5.66895,4.34618c0,1.86865,1.0498,3.27539,2.85547,3.27539,1.84766,0,2.89746-1.53271,2.89746-3.25439,0-2.24658-1.55371-3.2334-2.89746-3.2334-1.49072,0-2.85547,1.0918-2.85547,3.2124Z" fill="#f1f1f1"/>
      <path d="M188.74268,49.61378h1.51172v1.0078c.27295-.35693,1.0498-1.21777,2.49854-1.21777,1.02881,0,1.97363,.41992,2.49854,1.19678,.44092,.65088,.50391,1.36475,.50391,2.33057v5.396h-1.51172v-5.354c0-.5249-.04199-1.13379-.39893-1.5957-.29395-.37793-.75586-.62988-1.42773-.62988-.5249,0-1.0918,.14697-1.53271,.67188-.58789,.69287-.62988,1.72168-.62988,2.35156v4.55615h-1.51172v-8.71337Z" fill="#f1f1f1"/>
      <path d="M205.28906,43.021h1.51172v15.30615h-1.51172v-1.21777c-.50391,.65088-1.44873,1.46973-2.98145,1.46973-2.20459,0-4.24121-1.55371-4.24121-4.61914,0-3.00244,2.01562-4.55615,4.24121-4.55615,1.67969,0,2.58252,.92383,2.98145,1.44873v-7.83154Zm-5.66895,10.93896c0,1.86865,1.0498,3.27539,2.85547,3.27539,1.84766,0,2.89746-1.53271,2.89746-3.25439,0-2.24658-1.55371-3.2334-2.89746-3.2334-1.49072,0-2.85547,1.0918-2.85547,3.2124Z" fill="#f1f1f1"/>
      <path d="M216.10449,50.99951v7.32764h-1.51172v-7.32764h-.92383v-1.38573h.92383v-3.14943h1.51172v3.14943h1.51172v1.38573h-1.51172Z" fill="#f1f1f1"/>
      <path d="M219.04443,49.61378h1.51172v.94481c.14697-.23096,.79785-1.15479,1.97363-1.15479,.46191,0,.96582,.16797,1.34375,.35693l-.71387,1.36475c-.33594-.23096-.65088-.29395-.88184-.29395-.60889,0-.98682,.25195-1.21777,.5459-.25195,.33594-.50391,.92383-.50391,2.35156v4.59814h-1.51172v-8.71337Z" fill="#f1f1f1"/>
      <path d="M231.93701,49.61378h1.51172v8.71337h-1.51172v-1.21777c-.50391,.65088-1.44873,1.46973-2.98145,1.46973-2.20459,0-4.24121-1.55371-4.24121-4.61914,0-3.00244,2.01562-4.55615,4.24121-4.55615,1.67969,0,2.58252,.92383,2.98145,1.44873v-1.23876Zm-5.66895,4.34618c0,1.86865,1.0498,3.27539,2.85547,3.27539,1.84766,0,2.89746-1.53271,2.89746-3.25439,0-2.24658-1.55371-3.2334-2.89746-3.2334-1.49072,0-2.85547,1.0918-2.85547,3.2124Z" fill="#f1f1f1"/>
      <path d="M242.98291,43.021h1.51172v15.30615h-1.51172v-1.21777c-.50391,.65088-1.44873,1.46973-2.98145,1.46973-2.20459,0-4.24121-1.55371-4.24121-4.61914,0-3.00244,2.01562-4.55615,4.24121-4.55615,1.67969,0,2.58252,.92383,2.98145,1.44873v-7.83154Zm-5.66895,10.93896c0,1.86865,1.0498,3.27539,2.85547,3.27539,1.84766,0,2.89746-1.53271,2.89746-3.25439,0-2.24658-1.55371-3.2334-2.89746-3.2334-1.49072,0-2.85547,1.0918-2.85547,3.2124Z" fill="#f1f1f1"/>
      <path d="M248.10791,45.24658c.58789,0,1.0708,.48291,1.0708,1.0708s-.48291,1.0708-1.0708,1.0708-1.0708-.48291-1.0708-1.0708,.48291-1.0708,1.0708-1.0708Zm.75586,4.3672v8.71337h-1.51172v-8.71337h1.51172Z" fill="#f1f1f1"/>
      <path d="M253.27344,50.99951v7.32764h-1.51172v-7.32764h-.92383v-1.38573h.92383v-3.14943h1.51172v3.14943h1.51172v1.38573h-1.51172Z" fill="#f1f1f1"/>
      <path d="M256.96924,45.24658c.58789,0,1.0708,.48291,1.0708,1.0708s-.48291,1.0708-1.0708,1.0708-1.0708-.48291-1.0708-1.0708,.48291-1.0708,1.0708-1.0708Zm.75586,4.3672v8.71337h-1.51172v-8.71337h1.51172Z" fill="#f1f1f1"/>
      <path d="M260.03516,54.00195c0-2.64551,1.95264-4.59814,4.61914-4.59814s4.61914,1.95264,4.61914,4.59814-1.97363,4.57715-4.61914,4.57715-4.61914-1.93164-4.61914-4.57715Zm1.55371,0c0,2.1416,1.51172,3.2334,3.06543,3.2334,1.57471,0,3.06543-1.11279,3.06543-3.2334,0-2.1416-1.46973-3.25439-3.06543-3.25439s-3.06543,1.13379-3.06543,3.25439Z" fill="#f1f1f1"/>
      <path d="M271.58496,49.61378h1.51172v1.0078c.27295-.35693,1.0498-1.21777,2.49854-1.21777,1.02881,0,1.97363,.41992,2.49854,1.19678,.44092,.65088,.50391,1.36475,.50391,2.33057v5.396h-1.51172v-5.354c0-.5249-.04199-1.13379-.39893-1.5957-.29395-.37793-.75586-.62988-1.42773-.62988-.5249,0-1.0918,.14697-1.53271,.67188-.58789,.69287-.62988,1.72168-.62988,2.35156v4.55615h-1.51172v-8.71337Z" fill="#f1f1f1"/>
      <path d="M285.04492,51.62939c-.20996-.50391-.65088-.88184-1.21777-.88184-.5459,0-1.0498,.31494-1.0498,.98682,0,.62988,.41992,.81885,1.40674,1.23877,1.25977,.5249,1.84766,.92383,2.18359,1.34375,.37793,.46191,.46191,.92383,.46191,1.40674,0,1.82666-1.32275,2.85547-3.00244,2.85547-.35693,0-2.30957-.04199-3.04443-2.22559l1.30176-.5459c.16797,.46191,.67188,1.42773,1.76367,1.42773,.98682,0,1.42773-.73486,1.42773-1.38574,0-.81885-.58789-1.0918-1.40674-1.44873-1.0498-.46191-1.72168-.79785-2.12061-1.28076-.33594-.41992-.39893-.83984-.39893-1.28076,0-1.53271,1.0708-2.43555,2.54053-2.43555,.46191,0,1.70068,.08398,2.39355,1.57471l-1.23877,.65088Z" fill="#f1f1f1"/>
      <path d="M293.19287,54.00195c0-2.64551,1.95264-4.59814,4.61914-4.59814s4.61914,1.95264,4.61914,4.59814-1.97364,4.57715-4.61914,4.57715-4.61914-1.93164-4.61914-4.57715Zm1.55371,0c0,2.1416,1.51172,3.2334,3.06543,3.2334,1.57471,0,3.06543-1.11279,3.06543-3.2334,0-2.1416-1.46973-3.25439-3.06543-3.25439s-3.06543,1.13379-3.06543,3.25439Z" fill="#f1f1f1"/>
      <path d="M306.29639,50.99951v7.32764h-1.51172v-7.32764h-.83984v-1.38573h.83984v-3.8003c0-.79785,.06299-1.80566,.83984-2.45654,.41992-.35693,1.0498-.56689,1.74268-.56689,.5459,0,.90283,.12598,1.0708,.18896v1.46973c-.31494-.12598-.67188-.18896-.98682-.18896-.33594,0-.73486,.08398-.96582,.46191-.18896,.31494-.18896,.79785-.18896,1.25977v3.63234h2.1416v1.38573h-2.1416Z" fill="#f1f1f1"/>
      <path d="M316.229,50.99951v7.32764h-1.51172v-7.32764h-.92383v-1.38573h.92383v-3.14943h1.51172v3.14943h1.51172v1.38573h-1.51172Z" fill="#f1f1f1"/>
      <path d="M319.16895,43.021h1.51172v7.60059c.27295-.35693,1.0498-1.21777,2.49854-1.21777,1.02881,0,1.97363,.41992,2.49854,1.19678,.44092,.65088,.50391,1.36475,.50391,2.33057v5.396h-1.51172v-5.354c0-.5249-.04199-1.13379-.39893-1.5957-.29395-.37793-.75586-.62988-1.42773-.62988-.5249,0-1.0918,.14697-1.53271,.67188-.58789,.69287-.62988,1.72168-.62988,2.35156v4.55615h-1.51172v-15.30615Z" fill="#f1f1f1"/>
      <path d="M336.76514,56.10156c-.25195,.48291-.62988,1.00781-1.0708,1.40674-.79785,.71387-1.78467,1.0708-2.89746,1.0708-2.09961,0-4.3042-1.32275-4.3042-4.55615,0-2.60352,1.5957-4.61914,4.22021-4.61914,1.70068,0,2.77148,.83984,3.29639,1.5957,.5459,.77686,.86084,2.12061,.81885,3.27539h-6.78174c.021,1.80566,1.25977,2.96045,2.77148,2.96045,.71387,0,1.28076-.20996,1.78467-.62988,.39893-.33594,.71387-.77686,.90283-1.19678l1.25977,.69287Zm-1.49072-3.08643c-.25195-1.36475-1.28076-2.26758-2.56152-2.26758s-2.33057,.96582-2.56152,2.26758h5.12305Z" fill="#f1f1f1"/>
      <path d="M350.7085,49.61378h1.51172v8.50341c0,.94482,0,2.28857-.83984,3.42236-.65088,.88184-1.84766,1.6167-3.48535,1.6167-1.49072,0-2.51953-.58789-3.10742-1.17578s-1.13379-1.53271-1.13379-2.81348h1.49072c0,.73486,.29395,1.38574,.67188,1.80566,.62988,.69287,1.42773,.83984,2.09961,.83984,1.0708,0,1.80566-.37793,2.30957-1.21777,.44092-.71387,.48291-1.49072,.48291-2.22559v-1.25977c-.50391,.65088-1.44873,1.46973-2.98145,1.46973-1.28076,0-2.30957-.50391-2.98145-1.17578-.58789-.58789-1.25977-1.67969-1.25977-3.44336,0-1.70068,.62988-2.75049,1.25977-3.38037,.73486-.71387,1.80566-1.17578,2.98145-1.17578,1.28076,0,2.28857,.5459,2.98145,1.44873v-1.23876Zm-4.78711,1.95263c-.73486,.75586-.88184,1.67969-.88184,2.39355,0,.75586,.14697,1.78467,.98682,2.56152,.48291,.44092,1.0708,.71387,1.86865,.71387s1.42773-.25195,1.91064-.73486c.58789-.56689,.98682-1.49072,.98682-2.51953s-.37793-1.93164-.92383-2.45654c-.48291-.48291-1.19678-.77686-1.97363-.77686-.92383,0-1.55371,.39893-1.97363,.81885Z" fill="#f1f1f1"/>
      <path d="M354.53174,54.00195c0-2.64551,1.95264-4.59814,4.61914-4.59814s4.61914,1.95264,4.61914,4.59814-1.97363,4.57715-4.61914,4.57715-4.61914-1.93164-4.61914-4.57715Zm1.55371,0c0,2.1416,1.51172,3.2334,3.06543,3.2334,1.57471,0,3.06543-1.11279,3.06543-3.2334,0-2.1416-1.46973-3.25439-3.06543-3.25439s-3.06543,1.13379-3.06543,3.25439Z" fill="#f1f1f1"/>
      <path d="M365.53564,54.00195c0-2.64551,1.95264-4.59814,4.61914-4.59814s4.61914,1.95264,4.61914,4.59814-1.97363,4.57715-4.61914,4.57715-4.61914-1.93164-4.61914-4.57715Zm1.55371,0c0,2.1416,1.51172,3.2334,3.06543,3.2334,1.57471,0,3.06543-1.11279,3.06543-3.2334,0-2.1416-1.46973-3.25439-3.06543-3.25439s-3.06543,1.13379-3.06543,3.25439Z" fill="#f1f1f1"/>
      <path d="M383.76221,43.021h1.51172v15.30615h-1.51172v-1.21777c-.50391,.65088-1.44873,1.46973-2.98145,1.46973-2.20459,0-4.24121-1.55371-4.24121-4.61914,0-3.00244,2.01562-4.55615,4.24121-4.55615,1.67969,0,2.58252,.92383,2.98145,1.44873v-7.83154Zm-5.66895,10.93896c0,1.86865,1.0498,3.27539,2.85547,3.27539,1.84766,0,2.89746-1.53271,2.89746-3.25439,0-2.24658-1.55371-3.2334-2.89746-3.2334-1.49072,0-2.85547,1.0918-2.85547,3.2124Z" fill="#f1f1f1"/>
      <path d="M387.75342,53.07812h4.61914v1.55371h-4.61914v-1.55371Z" fill="#f1f1f1"/>
      <path d="M394.85107,43.021h1.51172v7.60059c.27295-.35693,1.0498-1.21777,2.49854-1.21777,1.02881,0,1.97363,.41992,2.49854,1.19678,.44092,.65088,.50391,1.36475,.50391,2.33057v5.396h-1.51172v-5.354c0-.5249-.04199-1.13379-.39893-1.5957-.29395-.37793-.75586-.62988-1.42773-.62988-.5249,0-1.0918,.14697-1.53271,.67188-.58789,.69287-.62988,1.72168-.62988,2.35156v4.55615h-1.51172v-15.30615Z" fill="#f1f1f1"/>
      <path d="M412.44727,56.10156c-.25195,.48291-.62988,1.00781-1.0708,1.40674-.79785,.71387-1.78467,1.0708-2.89746,1.0708-2.09961,0-4.3042-1.32275-4.3042-4.55615,0-2.60352,1.5957-4.61914,4.22021-4.61914,1.70068,0,2.77148,.83984,3.29639,1.5957,.5459,.77686,.86084,2.12061,.81885,3.27539h-6.78174c.021,1.80566,1.25977,2.96045,2.77148,2.96045,.71387,0,1.28076-.20996,1.78467-.62988,.39893-.33594,.71387-.77686,.90283-1.19678l1.25977,.69287Zm-1.49072-3.08643c-.25195-1.36475-1.28076-2.26758-2.56152-2.26758s-2.33057,.96582-2.56152,2.26758h5.12305Z" fill="#f1f1f1"/>
      <path d="M421.49805,49.61378h1.51172v8.71337h-1.51172v-1.21777c-.50391,.65088-1.44873,1.46973-2.98145,1.46973-2.20459,0-4.24121-1.55371-4.24121-4.61914,0-3.00244,2.01562-4.55615,4.24121-4.55615,1.67969,0,2.58252,.92383,2.98145,1.44873v-1.23876Zm-5.66895,4.34618c0,1.86865,1.0498,3.27539,2.85547,3.27539,1.84766,0,2.89746-1.53271,2.89746-3.25439,0-2.24658-1.55371-3.2334-2.89746-3.2334-1.49072,0-2.85547,1.0918-2.85547,3.2124Z" fill="#f1f1f1"/>
      <path d="M425.86719,49.61378h1.51172v.94481c.14697-.23096,.79785-1.15479,1.97363-1.15479,.46191,0,.96582,.16797,1.34375,.35693l-.71387,1.36475c-.33594-.23096-.65088-.29395-.88184-.29395-.60889,0-.98682,.25195-1.21777,.5459-.25195,.33594-.50391,.92383-.50391,2.35156v4.59814h-1.51172v-8.71337Z" fill="#f1f1f1"/>
      <path d="M433.63672,50.99951v7.32764h-1.51172v-7.32764h-.92383v-1.38573h.92383v-3.14943h1.51172v3.14943h1.51172v1.38573h-1.51172Z" fill="#f1f1f1"/>
      <path d="M444.30322,56.10156c-.25195,.48291-.62988,1.00781-1.0708,1.40674-.79785,.71387-1.78467,1.0708-2.89746,1.0708-2.09961,0-4.3042-1.32275-4.3042-4.55615,0-2.60352,1.5957-4.61914,4.22021-4.61914,1.70068,0,2.77148,.83984,3.29639,1.5957,.5459,.77686,.86084,2.12061,.81885,3.27539h-6.78174c.021,1.80566,1.25977,2.96045,2.77148,2.96045,.71387,0,1.28076-.20996,1.78467-.62988,.39893-.33594,.71387-.77686,.90283-1.19678l1.25977,.69287Zm-1.49072-3.08643c-.25195-1.36475-1.28076-2.26758-2.56152-2.26758s-2.33057,.96582-2.56152,2.26758h5.12305Z" fill="#f1f1f1"/>
      <path d="M453.354,43.021h1.51172v15.30615h-1.51172v-1.21777c-.50391,.65088-1.44873,1.46973-2.98145,1.46973-2.20459,0-4.24121-1.55371-4.24121-4.61914,0-3.00244,2.01562-4.55615,4.24121-4.55615,1.67969,0,2.58252,.92383,2.98145,1.44873v-7.83154Zm-5.66895,10.93896c0,1.86865,1.0498,3.27539,2.85547,3.27539,1.84766,0,2.89746-1.53271,2.89746-3.25439,0-2.24658-1.55371-3.2334-2.89746-3.2334-1.49072,0-2.85547,1.0918-2.85547,3.2124Z" fill="#f1f1f1"/>
      <path d="M464.12744,63.15625h-1.51172v-13.54247h1.51172v1.21776c1.02881-1.28076,2.35156-1.42773,2.98145-1.42773,2.72949,0,4.24121,2.26758,4.24121,4.61914,0,2.39355-1.53271,4.55615-4.17822,4.55615-1.40674,0-2.39355-.62988-3.04443-1.46973v6.04688Zm5.66895-9.1333c0-2.1416-1.44873-3.27539-2.85547-3.27539s-2.89746,1.15479-2.89746,3.25439c0,1.78467,1.13379,3.2334,2.91846,3.2334,1.76367,0,2.83447-1.46973,2.83447-3.2124Z" fill="#f1f1f1"/>
      <path d="M481.38818,56.10156c-.25195,.48291-.62988,1.00781-1.0708,1.40674-.79785,.71387-1.78467,1.0708-2.89746,1.0708-2.09961,0-4.3042-1.32275-4.3042-4.55615,0-2.60352,1.5957-4.61914,4.22021-4.61914,1.70068,0,2.77148,.83984,3.29639,1.5957,.5459,.77686,.86084,2.12061,.81885,3.27539h-6.78174c.021,1.80566,1.25977,2.96045,2.77148,2.96045,.71387,0,1.28076-.20996,1.78467-.62988,.39893-.33594,.71387-.77686,.90283-1.19678l1.25977,.69287Zm-1.49072-3.08643c-.25195-1.36475-1.28076-2.26758-2.56152-2.26758s-2.33057,.96582-2.56152,2.26758h5.12305Z" fill="#f1f1f1"/>
      <path d="M483.21631,54.00195c0-2.64551,1.95264-4.59814,4.61914-4.59814s4.61914,1.95264,4.61914,4.59814-1.97363,4.57715-4.61914,4.57715-4.61914-1.93164-4.61914-4.57715Zm1.55371,0c0,2.1416,1.51172,3.2334,3.06543,3.2334,1.57471,0,3.06543-1.11279,3.06543-3.2334,0-2.1416-1.46973-3.25439-3.06543-3.25439s-3.06543,1.13379-3.06543,3.25439Z" fill="#f1f1f1"/>
      <path d="M496.27783,63.15625h-1.51172v-13.54247h1.51172v1.21776c1.0293-1.28076,2.35156-1.42773,2.98145-1.42773,2.72949,0,4.24121,2.26758,4.24121,4.61914,0,2.39355-1.5332,4.55615-4.17773,4.55615-1.40723,0-2.39453-.62988-3.04492-1.46973v6.04688Zm5.66895-9.1333c0-2.1416-1.44824-3.27539-2.85547-3.27539s-2.89746,1.15479-2.89746,3.25439c0,1.78467,1.13379,3.2334,2.91797,3.2334,1.76367,0,2.83496-1.46973,2.83496-3.2124Z" fill="#f1f1f1"/>
      <path d="M507.32373,43.021v15.30615h-1.51172v-15.30615h1.51172Z" fill="#f1f1f1"/>
      <path d="M517.90674,56.10156c-.25195,.48291-.62988,1.00781-1.07031,1.40674-.79883,.71387-1.78516,1.0708-2.89844,1.0708-2.09961,0-4.30371-1.32275-4.30371-4.55615,0-2.60352,1.5957-4.61914,4.21973-4.61914,1.70117,0,2.77148,.83984,3.29688,1.5957,.5459,.77686,.86133,2.12061,.81836,3.27539h-6.78125c.02148,1.80566,1.25977,2.96045,2.77148,2.96045,.71387,0,1.28125-.20996,1.78516-.62988,.39844-.33594,.71288-.77686,.90234-1.19678l1.25977,.69287Zm-1.49023-3.08643c-.25195-1.36475-1.28125-2.26758-2.5625-2.26758-1.28027,0-2.33008,.96582-2.56055,2.26758h5.12305Z" fill="#f1f1f1"/>
      <path d="M524.62744,54.00195c0-2.64551,1.95312-4.59814,4.61914-4.59814s4.61914,1.95264,4.61914,4.59814-1.97363,4.57715-4.61914,4.57715-4.61914-1.93164-4.61914-4.57715Zm1.55371,0c0,2.1416,1.51172,3.2334,3.06543,3.2334,1.57422,0,3.06543-1.11279,3.06543-3.2334,0-2.1416-1.46973-3.25439-3.06543-3.25439s-3.06543,1.13379-3.06543,3.25439Z" fill="#f1f1f1"/>
      <path d="M537.73096,50.99951v7.32764h-1.51172v-7.32764h-.83984v-1.38573h.83984v-3.8003c0-.79785,.0625-1.80566,.83984-2.45654,.41992-.35693,1.0498-.56689,1.74219-.56689,.54688,0,.90332,.12598,1.07129,.18896v1.46973c-.31543-.12598-.67188-.18896-.9873-.18896-.33594,0-.73438,.08398-.96484,.46191-.18945,.31494-.18945,.79785-.18945,1.25977v3.63234h2.1416v1.38573h-2.1416Z" fill="#f1f1f1"/>
      <path d="M553.71045,51.29346h5.83691v.33594c0,1.55371-.46191,3.2334-1.34375,4.43018-.41992,.56689-1.99414,2.51953-5.20703,2.51953-4.15723,0-7.26465-3.17041-7.26465-7.24365s3.12793-7.24365,7.30664-7.24365c1.34375,0,2.91893,.33594,4.2832,1.38574,.62988,.48291,1.21777,1.11279,1.61621,1.65869l-1.1543,1.0498c-.39844-.56689-.86133-1.0708-1.32227-1.44873-.67188-.5459-1.72266-1.17578-3.40234-1.17578-3.37988,0-5.73145,2.54053-5.73145,5.79492,0,3.82129,3.04395,5.75293,5.69043,5.75293,1.86816,0,3.48438-.94482,4.2832-2.35156,.25195-.44092,.52441-1.11279,.56641-1.99463h-4.15723v-1.46973Z" fill="#f1f1f1"/>
      <path d="M563.53955,54.69482c0,.60889,0,1.32275,.41992,1.86865,.23047,.29395,.69336,.67188,1.5332,.67188s1.30078-.37793,1.53223-.67188c.41992-.5459,.41992-1.25977,.41992-1.86865v-5.08104h1.51172v5.24901c0,1.0708-.10449,1.86865-.79785,2.62451-.77734,.81885-1.80566,1.0918-2.66602,1.0918-.86133,0-1.89062-.27295-2.66699-1.0918-.69238-.75586-.79785-1.55371-.79785-2.62451v-5.24901h1.51172v5.08104Z" fill="#f1f1f1"/>
      <path d="M571.81396,49.61378h1.51172v1.0078c.27246-.35693,1.0498-1.21777,2.49902-1.21777,1.02832,0,1.97266,.41992,2.49805,1.19678,.44141,.65088,.50391,1.36475,.50391,2.33057v5.396h-1.51172v-5.354c0-.5249-.04199-1.13379-.39844-1.5957-.29492-.37793-.75586-.62988-1.42773-.62988-.52539,0-1.0918,.14697-1.5332,.67188-.58789,.69287-.62988,1.72168-.62988,2.35156v4.55615h-1.51172v-8.71337Z" fill="#f1f1f1"/>
      <path d="M581.68408,49.61378h1.51172v.92382c.48242-.71387,1.23828-1.13379,2.16211-1.13379,1.5752,0,2.20508,1.11279,2.37305,1.40674,.83984-1.32275,2.03711-1.40674,2.625-1.40674,2.58203,0,2.83398,2.1626,2.83398,3.40137v5.52197h-1.51172v-5.29102c0-.98682-.12598-2.28857-1.55371-2.28857-1.74316,0-1.93164,1.67969-1.93164,2.72949v4.8501h-1.51172v-5.16504c0-.60889,.02051-2.41455-1.5752-2.41455-1.7207,0-1.91016,1.78467-1.91016,2.83447v4.74512h-1.51172v-8.71337Z" fill="#f1f1f1"/>
      <path d="M602.74561,49.61378h1.51172v8.71337h-1.51172v-1.21777c-.50391,.65088-1.44824,1.46973-2.98145,1.46973-2.20508,0-4.24121-1.55371-4.24121-4.61914,0-3.00244,2.01562-4.55615,4.24121-4.55615,1.67969,0,2.58203,.92383,2.98145,1.44873v-1.23876Zm-5.66895,4.34618c0,1.86865,1.0498,3.27539,2.85547,3.27539,1.84766,0,2.89746-1.53271,2.89746-3.25439,0-2.24658-1.55371-3.2334-2.89746-3.2334-1.49023,0-2.85547,1.0918-2.85547,3.2124Z" fill="#f1f1f1"/>
    </g>
  </g>
</svg>
