<?xml version="1.0" encoding="UTF-8"?>
<svg id="a" data-name="logo-vgu" xmlns="http://www.w3.org/2000/svg" width="229" height="59.33934" xmlns:xlink="http://www.w3.org/1999/xlink" viewBox="0 0 229 59.33934">
  <defs>
    <linearGradient id="d" data-name="名称未設定グラデーション" x1="151.69367" y1="-6.93066" x2="151.69367" y2="64.03934" gradientTransform="translate(0 61.99868) scale(1 -1)" gradientUnits="userSpaceOnUse">
      <stop offset="0" stop-color="#00899c"/>
      <stop offset=".99" stop-color="#89c57d"/>
    </linearGradient>
    <linearGradient id="e" data-name="名称未設定グラデーション 2" x1="82.87867" y1="-6.93066" x2="82.87867" y2="64.03934" gradientTransform="translate(0 61.99868) scale(1 -1)" gradientUnits="userSpaceOnUse">
      <stop offset="0" stop-color="#00899c"/>
      <stop offset=".99" stop-color="#89c57d"/>
    </linearGradient>
    <linearGradient id="f" data-name="名称未設定グラデーション 3" x1="36.76954" y1="-6.93066" x2="36.76954" y2="64.03934" gradientTransform="translate(0 61.99868) scale(1 -1)" gradientUnits="userSpaceOnUse">
      <stop offset="0" stop-color="#00899c"/>
      <stop offset=".99" stop-color="#89c57d"/>
    </linearGradient>
    <linearGradient id="g" data-name="名称未設定グラデーション 4" x1="72.995" y1="-6.93066" x2="72.995" y2="64.03934" gradientTransform="translate(0 61.99868) scale(1 -1)" gradientUnits="userSpaceOnUse">
      <stop offset="0" stop-color="#00899c"/>
      <stop offset=".99" stop-color="#89c57d"/>
    </linearGradient>
    <linearGradient id="h" data-name="名称未設定グラデーション 5" x1="139.8572" y1="-6.93066" x2="139.8572" y2="64.03934" gradientTransform="translate(0 61.99868) scale(1 -1)" gradientUnits="userSpaceOnUse">
      <stop offset="0" stop-color="#00899c"/>
      <stop offset=".99" stop-color="#89c57d"/>
    </linearGradient>
    <linearGradient id="i" data-name="名称未設定グラデーション 6" x1="9.495" y1="-6.93066" x2="9.495" y2="64.03934" gradientTransform="translate(0 61.99868) scale(1 -1)" gradientUnits="userSpaceOnUse">
      <stop offset="0" stop-color="#00899c"/>
      <stop offset=".99" stop-color="#89c57d"/>
    </linearGradient>
    <linearGradient id="j" data-name="名称未設定グラデーション 7" x1="9.495" y1="-6.93066" x2="9.495" y2="64.03934" gradientTransform="translate(0 61.99868) scale(1 -1)" gradientUnits="userSpaceOnUse">
      <stop offset="0" stop-color="#00899c"/>
      <stop offset=".99" stop-color="#89c57d"/>
    </linearGradient>
    <linearGradient id="k" data-name="名称未設定グラデーション 8" x1="1.76" y1="-6.93066" x2="1.76" y2="64.03934" gradientTransform="translate(0 61.99868) scale(1 -1)" gradientUnits="userSpaceOnUse">
      <stop offset="0" stop-color="#00899c"/>
      <stop offset=".99" stop-color="#89c57d"/>
    </linearGradient>
    <linearGradient id="l" data-name="名称未設定グラデーション 9" x1="9.49989" y1="-6.93066" x2="9.49989" y2="64.03934" gradientTransform="translate(0 61.99868) scale(1 -1)" gradientUnits="userSpaceOnUse">
      <stop offset="0" stop-color="#00899c"/>
      <stop offset=".99" stop-color="#89c57d"/>
    </linearGradient>
    <linearGradient id="m" data-name="名称未設定グラデーション 10" x1="9.495" y1="-6.93066" x2="9.495" y2="64.03934" gradientTransform="translate(0 61.99868) scale(1 -1)" gradientUnits="userSpaceOnUse">
      <stop offset="0" stop-color="#00899c"/>
      <stop offset=".99" stop-color="#89c57d"/>
    </linearGradient>
    <linearGradient id="n" data-name="名称未設定グラデーション 11" x1="1.7464" y1="-6.93066" x2="1.7464" y2="64.03934" gradientTransform="translate(0 61.99868) scale(1 -1)" gradientUnits="userSpaceOnUse">
      <stop offset="0" stop-color="#00899c"/>
      <stop offset=".99" stop-color="#89c57d"/>
    </linearGradient>
    <linearGradient id="o" data-name="名称未設定グラデーション 12" x1="8.18" y1="-6.93066" x2="8.18" y2="64.03934" gradientTransform="translate(0 61.99868) scale(1 -1)" gradientUnits="userSpaceOnUse">
      <stop offset="0" stop-color="#00899c"/>
      <stop offset=".99" stop-color="#89c57d"/>
    </linearGradient>
    <linearGradient id="p" data-name="名称未設定グラデーション 13" x1="110.69" y1="-6.93066" x2="110.69" y2="64.03934" gradientTransform="translate(0 61.99868) scale(1 -1)" gradientUnits="userSpaceOnUse">
      <stop offset="0" stop-color="#00899c"/>
      <stop offset=".99" stop-color="#89c57d"/>
    </linearGradient>
    <linearGradient id="q" data-name="名称未設定グラデーション 14" x1="119.22499" y1="-6.93066" x2="119.22499" y2="64.03934" gradientTransform="translate(0 61.99868) scale(1 -1)" gradientUnits="userSpaceOnUse">
      <stop offset="0" stop-color="#00899c"/>
      <stop offset=".99" stop-color="#89c57d"/>
    </linearGradient>
    <linearGradient id="r" data-name="名称未設定グラデーション 15" x1="127.77499" y1="-6.93066" x2="127.77499" y2="64.03934" gradientTransform="translate(0 61.99868) scale(1 -1)" gradientUnits="userSpaceOnUse">
      <stop offset="0" stop-color="#00899c"/>
      <stop offset=".99" stop-color="#89c57d"/>
    </linearGradient>
    <linearGradient id="s" data-name="名称未設定グラデーション 16" x1="210.36956" y1="-6.93066" x2="210.36956" y2="64.03934" gradientTransform="translate(0 61.99868) scale(1 -1)" gradientUnits="userSpaceOnUse">
      <stop offset="0" stop-color="#00899c"/>
      <stop offset=".99" stop-color="#89c57d"/>
    </linearGradient>
  </defs>
  <g id="b" data-name="レイヤー 2">
    <g id="c" data-name="レイヤー 1-2">
      <path d="M137.05,13.16934c.20029,.00193,.39363-.07327,.53999-.21l11.14-11.15,2.55,2.55-2.61,2.64c-.20473,.36008-.0788,.81795,.2813,1.02268,.24344,.13841,.54373,.12967,.7787-.02268l6-6,10.06999,10.07c.13988,.14164,.33093,.22094,.53,.22,.1993,.00209,.39078-.07739,.53-.22,.29271-.28522,.29878-.75372,.01357-1.04643-.00446-.00458-.00899-.00911-.01357-.01357L156.24001,.46934c-.2971-.28191-.76289-.28191-1.06,0l-2.84001,2.83-3.08-3.08c-.29282-.29245-.76718-.29245-1.06,0l-11.67999,11.67c-.28828,.29841-.28828,.77159,0,1.07,.1433,.13523,.33298,.21039,.53,.21Z" fill="url(#d)"/>
      <path d="M67.47,13.16934c.19205,.01446,.38219-.04652,.53-.17l10.9-10.94,6,6c.33364,.24547,.80311,.17399,1.04858-.15966,.19764-.26864,.19415-.63552-.00858-.90034l-2.61-2.64,2.55-2.55,11.87,11.87c.13988,.14164,.33093,.22094,.53,.22,.19929,.00209,.39077-.07739,.53-.22,.29271-.28522,.29878-.75372,.01357-1.04643-.00447-.00458-.00899-.00911-.01357-.01357L86.41,.21934c-.2971-.28191-.76289-.28191-1.06,0l-3.09,3.08-2.83-2.83c-.29282-.29245-.76718-.29245-1.06,0l-11.43,11.42c-.28829,.29841-.28829,.77159,0,1.07,.1433,.13523,.33297,.21039,.53,.21Z" fill="url(#e)"/>
      <path d="M36.5,46.09934h6.74c-.12262,.54174-.32839,1.06123-.61,1.54-.3396,.56997-.8005,1.05819-1.35,1.43-.57539,.38508-1.2157,.66289-1.89,.82-.74076,.17366-1.49915,.26091-2.26,.26-1.18046,.02599-2.35298-.19897-3.44-.66-.946-.4095-1.782-1.0365-2.44-1.83-.68209-.83343-1.18888-1.79599-1.49-2.83-.70646-2.46773-.67866-5.08782,.08-7.54,.33652-1.09314,.87967-2.11156,1.6-3,.66396-.788,1.49371-1.4197,2.43-1.85,1.00073-.44343,2.08553-.66517,3.18-.65,1.31772-.02368,2.61267,.34532,3.72,1.06,1.22512,.88528,2.15546,2.11877,2.67,3.54l.21,.51,9-3.72-.25-.53c-1.31295-2.91489-3.48711-5.35776-6.23-7-2.77843-1.53883-5.91456-2.3151-9.09-2.25-2.46906-.03186-4.92196,.4024-7.23,1.28-2.08669,.79166-3.98666,2.00723-5.58,3.57-1.57051,1.57367-2.79053,3.46162-3.58,5.54-.87815,2.30094-1.31247,4.74741-1.28,7.21001-.02761,2.43294,.40674,4.84901,1.28,7.12,1.58706,4.19598,4.87991,7.52155,9.06,9.15,2.23104,.8657,4.60704,1.29678,7,1.27,1.80354,.01047,3.60009-.22503,5.34-.7,1.65277-.43359,3.23295-1.10743,4.69-2,1.42762-.90461,2.69209-2.04399,3.74-3.37,1.08257-1.38577,1.93048-2.93974,2.51-4.6,.45556-1.2924,.7511-2.63573,.88-4,.1558-1.56172,.22923-3.13056,.22-4.7v-.55h-17.63v7.48Z" fill="url(#f)"/>
      <path d="M78.18,42.85934c0,.92,0,1.88-.11,2.85-.04832,.86047-.25512,1.70463-.61,2.49-.31805,.69744-.82349,1.29288-1.46,1.72-.89341,.49578-1.9103,.72484-2.93,.66-1.04247,.0705-2.08337-.1585-3-.66-.65751-.40697-1.17683-1.00298-1.49-1.71-.34203-.79271-.54499-1.6384-.6-2.5-.07-1-.1-1.92-.1-2.85V24.72934h-9.51001v19.27c0,5.15,1.22,9,3.64,11.41,2.41999,2.41,6.12,3.63,11,3.63s8.6-1.22,11-3.64,3.61-6.25,3.61-11.4V24.72934h-9.43999v18.13Z" fill="url(#g)"/>
      <path d="M184,27.59934c-.96844-.94294-2.14261-1.64813-3.42999-2.06-1.37054-.43747-2.80135-.65681-4.24001-.65-4.44443-.14566-8.61061,2.15823-10.85001,6-2.2233-3.85819-6.40024-6.16801-10.85001-6-3.89926,.03032-7.62366,1.62238-10.34,4.42v-3.23c.18439-.39841,.28317-.83105,.28999-1.27,0-2.33-2.75-4.34-7.94-5.82-.39075-.11976-.8046,.09993-.92436,.49068-.00197,.00642-.00385,.01286-.00563,.01932-.10938,.39995,.12199,.81375,.52,.93,4.28999,1.22,6.85001,2.86,6.85001,4.38-.00789,.22106-.05884,.43846-.14999,.64-.75,1.68-4.36,3.39-9.93001,4.51-2.27974,.46067-4.58328,.79451-6.9,1-2.33,.21-4.85,.33-7.52,.33-13.43,0-23.07-2.95-24.35-5.82-.09116-.20154-.14211-.41894-.15-.64,0-1.52,2.56-3.16,6.85-4.38,.398-.11625,.62937-.53006,.52-.93-.11598-.39765-.53236-.62598-.93-.51h0c-5.19,1.48-7.94,3.49-7.94,5.82,.03177,.80749,.35095,1.57706,.90001,2.17v30.43h11.29v-17.08c-.1179-1.76524,.42376-3.51139,1.52-4.9,1.14303-1.19053,2.75301-1.81623,4.4-1.71,.67916-.00709,1.35486,.09764,2,.31,.63913,.21494,1.21827,.57819,1.69,1.06,.61544,.65064,1.03484,1.4617,1.21,2.34,.25529,1.26007,.36933,2.54467,.34,3.83v16.15h11.29v-20.32c.01811-1.53461-.14978-3.06577-.5-4.56v-.16c2.22-.21,4.37-.52,6.36-.9v25.94h11.28999v-15.77c-.03406-1.39439,.10023-2.78779,.39999-4.15,.17349-.90172,.53464-1.75689,1.06001-2.51,.41748-.56065,.99161-.98516,1.64999-1.22,1.35962-.43351,2.82037-.43351,4.17999,0,.63905,.24311,1.17789,.6939,1.53,1.28,.44687,.78007,.7516,1.63333,.89999,2.52,.22871,1.32064,.3325,2.65989,.31,4v15.85h11.28999v-15.77c0-5.28,1.80667-7.92,5.42-7.92,.63667-.0069,1.26961,.09803,1.87,.31,.61732,.23511,1.15016,.64955,1.53,1.19,.49782,.73211,.83833,1.55955,1,2.43,.24945,1.31825,.36337,2.65856,.34,4v15.76h11.28v-20.76c.04411-1.84549-.24031-3.68411-.84-5.43-.4868-1.36675-1.26863-2.60952-2.28996-3.64Z" fill="url(#h)"/>
      <polygon points="5.11 51.64934 9.61 53.76934 5.11 55.85934 5.11 59.33934 13.88 54.82934 13.88 52.75934 5.11 48.19934 5.11 51.64934" fill="url(#i)"/>
      <rect x="5.11" y="44.03934" width="8.77" height="3.09" fill="url(#j)"/>
      <path d="M3,44.36934c-.16775-.15948-.36468-.2851-.58-.37-.21551-.08897-.44686-.13321-.68-.13-.2299-.00325-.458,.04101-.67,.13-.2069,.09394-.39627,.22244-.56,.38C.19138,44.70658,.00906,45.1427,0,45.59934c.00128,.46119,.18457,.90322,.51,1.23,.16081,.16112,.35087,.2901,.56,.38,.212,.08899,.4401,.13325,.67,.13,.23314,.0032,.46449-.04103,.68-.13,.21821-.08388,.41596-.21344,.58-.38,.16083-.15721,.28985-.34395,.38-.55,.0924-.21479,.14004-.44617,.14-.68,.00009-.2306-.04758-.45872-.14-.67-.08737-.21051-.21666-.40105-.38-.56001Z" fill="url(#k)"/>
      <path d="M13.33,36.29934c-.57911-.74603-1.47571-1.1758-2.42-1.16-.62488-.02426-1.23348,.20261-1.69,.63-.49332,.53136-.81105,1.20173-.91,1.92-.07,.3-.13,.55-.17,.74-.03366,.14991-.08748,.29456-.16,.43-.04269,.06545-.10605,.11473-.18,.14-.25824,.11694-.56313,.02247-.71-.22-.1217-.20892-.18071-.44845-.17-.69,.01003-.58842,.16457-1.16535,.45-1.68l-2-1c-.37331,.89311-.56373,1.85202-.56,2.82-.01799,.54646,.04606,1.09253,.19,1.62,.13214,.44849,.3457,.86882,.63,1.24,.26929,.33306,.6114,.5999,1,.78,.42824,.19994,.89765,.29588,1.37,.28,.58432,.03418,1.15658-.17589,1.58-.58,.46882-.57266,.76686-1.26579,.86-2,.06-.29,.11-.52,.16-.7,.03747-.1407,.09471-.27538,.17-.4,.05385-.07661,.12605-.1385,.21-.18,.09251-.01758,.18749-.01758,.28,0,.19678-.00236,.37983,.10061,.48,.27,.13402,.20815,.20039,.45266,.19,.7-.06099,.88456-.38483,1.73074-.93,2.43l2.19,1.12c.64197-1.05553,.98743-2.26464,1-3.5,.01723-.5695-.04675-1.13855-.19-1.69-.14282-.47644-.36973-.92348-.67-1.32Z" fill="url(#l)"/>
      <rect x="5.11" y="30.46934" width="8.77" height="3.09" fill="url(#m)"/>
      <path d="M3,30.79934c-.1553-.16308-.34252-.29244-.55-.38-.21479-.0924-.44617-.14004-.68-.14-.2306-.00009-.45873,.04757-.67,.14-.20913,.08991-.39919,.21888-.56,.38C.21074,31.11385,.01703,31.54432,0,31.99934c-.00009,.2306,.04758,.45872,.14,.67,.08627,.20868,.21189,.3988,.37,.56,.1612,.15812,.35133,.28373,.56,.37,.20978,.097,.43893,.14488,.67,.14,.23431,.005,.46673-.04285,.68-.14,.21498-.07153,.41257-.18736,.58-.34,.16112-.1608,.29009-.35087,.38-.56,.08632-.22278,.12383-.46148,.11-.7,.00004-.23383-.0476-.46521-.14-.68-.08442-.19299-.20299-.36914-.35-.52Z" fill="url(#n)"/>
      <polygon points="5.11 29.01934 7.69 29.01934 7.69 27.98934 13.88 27.98934 13.88 24.89934 7.69 24.89934 7.69 23.13934 5.11 23.13934 5.11 24.89934 2.48 24.89934 2.48 27.98934 5.11 27.98934 5.11 29.01934" fill="url(#o)"/>
      <path d="M110.33,20.77934c-.0628,1.72862-.66025,3.3952-1.71,4.77-.1534,.19587-.22827,.44188-.21,.69,.01073,.21639,.09145,.42344,.23,.59,.31602,.36938,.85189,.45799,1.27,.21,.7865-.48546,1.51752-1.05552,2.18-1.7l.37-.39c1.14333-1.09788,1.82919-2.5875,1.92-4.17-.07887-1.58962-.7749-3.08573-1.94-4.17-.76381-.66929-1.24905-1.60053-1.36-2.61,0-2.37,2.3-4.66,2.32-4.69,.39213-.38892,.39473-1.02207,.00581-1.4142-.18674-.18829-.44063-.29469-.70581-.2958-.16877-.00054-.33457,.04436-.48,.13-.88751,.50183-1.7247,1.08786-2.5,1.75-1.78,1.52-2.72,3.04-2.72,4.52,.08736,1.49365,.7505,2.89524,1.85,3.91,.84248,.73199,1.37218,1.75917,1.48,2.87Z" fill="url(#p)"/>
      <path d="M118.85,20.77934c-.04353,1.4859-.49312,2.93151-1.3,4.18-.23,.36-.4,.58-.4,.59-.30883,.37078-.30883,.90922,0,1.28,.31602,.36938,.85189,.45799,1.27,.21,.65189-.40165,1.26458-.86368,1.83-1.38l.35-.32c1.34745-1.14867,2.17334-2.79324,2.29-4.56-.06985-1.58144-.7468-3.07504-1.88999-4.17-.77496-.66434-1.27123-1.5962-1.39-2.61,0-2.37,2.29-4.66,2.31-4.69,.39213-.38892,.39473-1.02207,.00581-1.4142-.18674-.18829-.44063-.29469-.70581-.2958-.16877-.00054-.33457,.04436-.48,.13-.88751,.50183-1.7247,1.08786-2.5,1.75-1.78,1.52-2.68,3-2.68,4.52,.0837,1.49247,.74335,2.89421,1.84,3.91,.83134,.73699,1.34998,1.76353,1.45,2.87Z" fill="url(#q)"/>
      <path d="M127.37,20.77934c-.06699,1.72615-.66017,3.39056-1.7,4.77-.33347,.44025-.24689,1.06747,.19335,1.40093,.33176,.25129,.78447,.27083,1.13664,.04907,.78649-.48546,1.51752-1.05552,2.17999-1.7,1.34744-1.14867,2.17334-2.79324,2.28999-4.56-.0804-1.58715-.77205-3.08157-1.92999-4.17-.77365-.65118-1.27644-1.56763-1.40999-2.57,0-2.37,2.28999-4.66,2.32001-4.69,.35263-.35306,.39104-.91204,.08998-1.31-.18886-.25181-.48524-.4-.8-.4-.16876-.00054-.33456,.04436-.48,.13-.88751,.50183-1.7247,1.08786-2.5,1.75-1.78,1.52-2.68,3-2.68,4.52,.08881,1.49117,.7476,2.8911,1.84,3.91,.83134,.73699,1.34998,1.76353,1.45001,2.87Z" fill="url(#r)"/>
      <path d="M217.67999,25.44934v3.18c-2.54504-2.75858-6.15814-4.28257-9.91-4.18-4.38449-.05927-8.58475,1.7606-11.53999,5-1.43147,1.57143-2.55133,3.40053-3.3,5.39-.79559,2.0778-1.19908,4.2851-1.19,6.51-.02249,2.32304,.39134,4.62966,1.22,6.8,.76509,2.01307,1.92056,3.85504,3.39999,5.42,1.44064,1.53267,3.17964,2.75439,5.11,3.59,2.0287,.86421,4.21506,1.29671,6.42,1.27,3.80547,.14755,7.44926-1.54594,9.78999-4.55v3.56h11.32002V25.43934l-11.32001,.01Zm-.22,18.82c-.38261,.85436-.91042,1.63593-1.56,2.31-.65364,.67438-1.44026,1.2056-2.31,1.56-.89661,.37332-1.85878,.56371-2.83,.56-.99425,.00767-1.98009-.1827-2.89999-.56-.86838-.35694-1.65451-.88783-2.31-1.56-1.34579-1.41214-2.0945-3.28929-2.09-5.24-.00833-.95329,.18596-1.89746,.57001-2.77,.3676-.84405,.88226-1.61605,1.52-2.28,.65607-.66901,1.44221-1.19652,2.31-1.55,.91849-.38205,1.90529-.5726,2.89999-.56,.97169-.00868,1.93484,.18191,2.83,.56,.86913,.35093,1.65578,.87877,2.31,1.55,.65009,.68497,1.17775,1.47646,1.56,2.34,.39279,.89509,.59378,1.86252,.59,2.84,.00539,.96474-.19579,1.91946-.59,2.8h-.00002Z" fill="url(#s)"/>
    </g>
  </g>
</svg>