<?xml version="1.0" encoding="UTF-8"?>
<svg id="b" data-name="レイヤー 2" xmlns="http://www.w3.org/2000/svg" width="544" height="223.02832" viewBox="0 0 544 223.02832">
  <g id="c" data-name="root-zh-hant">
    <g>
      <rect x="96" y="41.5" width="438" height="10" fill="#ccc"/>
      <g>
        <rect x="96" y="42.14648" width="5.80469" height="8.70703" fill="#fff"/>
        <path d="M516.67139,50.85352h-11.52393v-8.70703h11.52393v8.70703Zm-23.04834,0h-11.52393v-8.70703h11.52393v8.70703Zm-23.04785,0h-11.52441v-8.70703h11.52441v8.70703Zm-23.04834,0h-11.52393v-8.70703h11.52393v8.70703Zm-23.04834,0h-11.52393v-8.70703h11.52393v8.70703Zm-23.04785,0h-11.52393v-8.70703h11.52393v8.70703Zm-23.04834,0h-11.52393v-8.70703h11.52393v8.70703Zm-23.04785,0h-11.52441v-8.70703h11.52441v8.70703Zm-23.04834,0h-11.52393v-8.70703h11.52393v8.70703Zm-23.04834,0h-11.52393v-8.70703h11.52393v8.70703Zm-23.04785,0h-11.52441v-8.70703h11.52441v8.70703Zm-23.04834,0h-11.52393v-8.70703h11.52393v8.70703Zm-23.04834,0h-11.52393v-8.70703h11.52393v8.70703Zm-23.04785,0h-11.52393v-8.70703h11.52393v8.70703Zm-23.04834,0h-11.52393v-8.70703h11.52393v8.70703Zm-23.04785,0h-11.52441v-8.70703h11.52441v8.70703Zm-23.04834,0h-11.52393v-8.70703h11.52393v8.70703Zm-23.04834,0h-11.52393v-8.70703h11.52393v8.70703Z" fill="#fff"/>
        <rect x="528.19531" y="42.14648" width="5.80469" height="8.70703" fill="#fff"/>
      </g>
      <rect width="158" height="93" fill="#fff"/>
      <rect x="96" y="166.1665" width="438" height="10" fill="#ccc"/>
      <g>
        <rect x="96" y="166.81299" width="5.80469" height="8.70703" fill="#fff"/>
        <path d="M516.67139,175.52002h-11.52393v-8.70703h11.52393v8.70703Zm-23.04834,0h-11.52393v-8.70703h11.52393v8.70703Zm-23.04785,0h-11.52441v-8.70703h11.52441v8.70703Zm-23.04834,0h-11.52393v-8.70703h11.52393v8.70703Zm-23.04834,0h-11.52393v-8.70703h11.52393v8.70703Zm-23.04785,0h-11.52393v-8.70703h11.52393v8.70703Zm-23.04834,0h-11.52393v-8.70703h11.52393v8.70703Zm-23.04785,0h-11.52441v-8.70703h11.52441v8.70703Zm-23.04834,0h-11.52393v-8.70703h11.52393v8.70703Zm-23.04834,0h-11.52393v-8.70703h11.52393v8.70703Zm-23.04785,0h-11.52441v-8.70703h11.52441v8.70703Zm-23.04834,0h-11.52393v-8.70703h11.52393v8.70703Zm-23.04834,0h-11.52393v-8.70703h11.52393v8.70703Zm-23.04785,0h-11.52393v-8.70703h11.52393v8.70703Zm-23.04834,0h-11.52393v-8.70703h11.52393v8.70703Zm-23.04785,0h-11.52441v-8.70703h11.52441v8.70703Zm-23.04834,0h-11.52393v-8.70703h11.52393v8.70703Zm-23.04834,0h-11.52393v-8.70703h11.52393v8.70703Z" fill="#fff"/>
        <rect x="528.19531" y="166.81299" width="5.80469" height="8.70703" fill="#fff"/>
      </g>
      <rect y="124.66667" width="158" height="93" fill="#fff"/>
      <rect x="402" width="142" height="219" fill="#fff"/>
      <g>
        <path d="M68.11328,52.02588c2.04492,1.87695,4.98047,3.58545,7.77246,4.52393-.67383,.57715-1.58887,1.73242-2.0459,2.47852-2.81543-1.1792-5.70312-3.24854-7.89258-5.60693v5.84717h-2.95996v-5.72656c-2.16504,2.31006-4.95703,4.25879-7.74805,5.43799-.45703-.69775-1.34766-1.82861-1.97363-2.40625,2.74414-.93848,5.58301-2.64697,7.58008-4.54785h-4.86035v-9.19238h7.00195v-1.37158h-9.04785v-2.6709h9.04785v-1.97314h2.95996v1.97314h9.26465v2.6709h-9.26465v1.37158h7.33984v9.19238h-5.17383Zm-9.36035-5.63086h4.23438v-1.41992h-4.23438v1.41992Zm0,3.48926h4.23438v-1.46777h-4.23438v1.46777Zm7.19434-4.90918v1.41992h4.42773v-1.41992h-4.42773Zm4.42773,3.44141h-4.42773v1.46777h4.42773v-1.46777Z" fill="#2c9d92"/>
        <path d="M84.30664,53.06055c-1.20312,1.9248-2.9834,4.04248-4.66797,5.3418-.62598-.5293-1.68457-1.27539-2.33398-1.66016,1.6123-1.15527,3.27246-3.08008,4.06641-4.62012l2.93555,.93848Zm14.87109-11.2373h-21.19922v-2.71924h9.02344v-2.31006h3.03223v2.31006h9.14355v2.71924Zm-9.14355,9.36035v5.07715c0,1.44385-.26465,2.16602-1.32324,2.57471-1.05957,.40918-2.47852,.43311-4.4043,.43311-.14453-.8418-.5293-1.94873-.91406-2.74316,1.22754,.04834,2.74316,.07227,3.12793,.04834,.43359-.02393,.5293-.09619,.5293-.40918v-4.98096h-6.32812v-7.67627h15.90527v7.67627h-6.59277Zm-6.44922-2.45459h10.01074v-2.74316h-10.01074v2.74316Zm11.69434,3.39307c1.49219,1.4917,3.44141,3.65771,4.35547,5.07715l-2.81543,1.41992c-.81738-1.39551-2.64648-3.63379-4.16211-5.24561l2.62207-1.25146Z" fill="#2c9d92"/>
      </g>
      <g>
        <path d="M470.04297,98.79102v2.43066h-21.03125v-2.43066h8.90332v-2.02148h2.91211v2.02148h9.21582Zm-.76953,17.4458c0,1.32373-.26465,2.09326-1.20312,2.52686-.89062,.43311-2.16602,.45703-3.89844,.45703-.07227-.55371-.28906-1.29932-.55371-1.92529h-6.20801v1.08301h-2.50293v-6.47314h9.19238v4.66846c.81836,.02393,1.56445,.02393,1.8291,0,.36035-.02393,.45703-.09619,.45703-.38525v-5.36572h-13.62012v8.4458h-2.79102v-10.82812h19.29883v7.79639Zm-3.17676-14.10107v5.29395h-13.13867v-5.29395h13.13867Zm-2.91113,1.90088h-7.50781v1.46826h7.50781v-1.46826Zm-1.6123,9.77002h-4.16309v1.56396h4.16309v-1.56396Z" fill="#2c9d92"/>
        <path d="M479.09082,100.88477h1.94824v14.89502h-1.94824v-1.51611h-4.06738v2.11768h-2.02148v-15.49658h2.02148v11.09277h.89062v-14.60596h2.23828v14.60596h.93848v-11.09277Zm15.78516,6.85791h-1.44434v8.63867c0,1.32324-.26465,2.021-1.20312,2.43018-.91406,.40918-2.18945,.45703-3.94629,.45703-.12012-.74561-.60156-1.85254-.96191-2.57471,1.25098,.04834,2.52637,.04834,2.93555,.04834,.36035,0,.48145-.09619,.48145-.40918v-8.59033h-9.5293v-2.3584h1.39551c-.24023-.60156-.76953-1.37158-1.17871-1.78076,2.86328-.5293,4.21094-1.34717,4.86035-2.74316h-4.42773v-2.26172h4.93359c.04785-.5293,.07129-1.13086,.0957-1.78076h2.59863c-.02344,.62549-.04785,1.22705-.0957,1.78076h4.78809v2.26172h-5.14941l-.0957,.33691c1.80469,.77002,4.13867,1.8291,5.38965,2.57471l-1.44336,1.6123h1.99707v2.3584Zm-10.08301,7.21875v1.25146h-2.28613v-7.14697h6.69043v5.89551h-4.4043Zm7.21973-9.57715c-1.13184-.62549-2.74316-1.44385-4.21191-2.16553-.8418,.9624-2.11719,1.66016-4.04199,2.16553h8.25391Zm-7.21973,5.6792v1.90088h2.09375v-1.90088h-2.09375Z" fill="#2c9d92"/>
      </g>
      <g>
        <path d="M75.47656,178.20215v2.8877h-21.87402v-2.8877h8.61523v-18.11963h3.08008v6.88232h8.49414v2.91162h-8.49414v8.32568h10.17871Z" fill="#2c9d92"/>
        <path d="M84.78809,178.03369c1.44434-.14453,2.91211-.31299,4.37988-.48145l.07227,2.50293c-4.09082,.57715-8.44629,1.10693-11.5752,1.4917l-.33691-2.7915c1.2998-.12012,2.91211-.24023,4.69238-.43311v-2.64697h-3.89746v-2.57471h3.89746v-1.94873h-3.94629v-10.25098h10.68457v10.25098h-3.9707v1.94873h3.99414v2.57471h-3.99414v2.3584Zm-4.37988-13.06641h1.80566v-1.78076h-1.80566v1.78076Zm0,3.92236h1.80566v-1.80469h-1.80566v1.80469Zm5.91992-5.70312h-1.73242v1.78076h1.73242v-1.78076Zm0,3.89844h-1.73242v1.80469h1.73242v-1.80469Zm13.71582,2.02148c-.43262,2.1416-1.05859,4.54785-1.6123,6.08789l-2.30957-.48145c.24023-.84229,.50488-2.021,.74609-3.22461h-1.56445v7.67627c0,1.37158-.26465,2.16553-1.20312,2.59912-.91406,.45703-2.21387,.48096-3.94629,.48096-.09668-.81787-.48145-2.021-.8418-2.81543,1.08203,.07227,2.30957,.07227,2.64648,.04834,.36133,0,.48145-.07227,.48145-.38525v-7.604h-3.17676v-2.71875h5.05371c-1.32324-.96289-2.95996-1.92529-4.40332-2.62305l1.75586-1.75684c.65039,.28906,1.34766,.62598,2.0459,1.01074,.5293-.57715,1.10645-1.25098,1.58789-1.9248h-5.77539v-2.57471h7.67676l.625-.14453,1.80469,1.29932c-.96191,1.56445-2.35742,3.27246-3.80176,4.62012,.72168,.50537,1.41992,.9624,1.94922,1.396l-.62598,.69775h.55371l.40918-.07227,1.9248,.40918Z" fill="#2c9d92"/>
      </g>
      <g>
        <path d="M228.79199,73.23242v1.9209h-14.5498v-1.9209h5.73047v-12.05273h2.04883v4.57812h5.65039v1.93652h-5.65039v5.53809h6.77051Z" fill="#2c9d92"/>
        <path d="M235.76367,73.2168c.97656,.38379,2.19336,.47949,3.68164,.47949,1.13672,0,5.1543,0,6.51465-.04785-.30371,.43262-.6084,1.3125-.73633,1.87305h-5.79395c-3.15332,0-5.21875-.43262-6.5791-2.51367-.22363,1.02539-.56055,2.01758-1.08789,2.88184-.24023-.38477-.84863-.96094-1.2334-1.15234,1.02441-1.80859,1.12109-4.29004,1.04102-6.45117l1.60059,.09668c.01562,.60742,.01562,1.23242,0,1.85645,.24023,.7041,.52832,1.26465,.87988,1.71289v-4.59375h-3.08887v-1.66504h2.76953v-1.34473h-2.22559v-1.66406h2.22559v-1.68066h1.74414v1.68066h2.16113v1.66406h-2.16113v1.34473h2.40137v1.66504h-2.11328v1.77637h1.90527v1.64844h-1.90527v2.43359Zm2.48145-9.68457h2.7207c-.03223-.83203-.06348-1.68066-.08008-2.52832h1.76074c0,.84766,.0166,1.69629,.04785,2.52832h1.4248c-.25586-.52832-.76855-1.26465-1.23242-1.79199l1.28027-.67285c.5127,.56055,1.12109,1.3291,1.37695,1.84082l-1.13672,.62402h1.3125v1.58496h-2.92871c.08008,1.10449,.20801,2.12891,.35156,3.02539,.38477-.75293,.7041-1.56934,.94434-2.38477l1.45703,.38379c-.44824,1.56836-1.08887,3.02539-1.88867,4.27344,.24023,.68848,.47949,1.08887,.73633,1.08887,.22363,0,.35156-.62402,.40039-2.00098,.33594,.38379,.86426,.75195,1.28027,.92871-.24023,2.20898-.7207,2.80078-1.87305,2.80078-.67188,0-1.23242-.48047-1.66504-1.3125-.52734,.5918-1.08789,1.10449-1.69629,1.52051-.24023-.40039-.76855-1.00879-1.13672-1.3125,.80078-.49609,1.52051-1.16895,2.16113-1.96875-.38379-1.39258-.64062-3.1377-.78418-5.04199h-1.15234v4.37012l1.10449-.65625,.52832,1.36035c-1.24902,.84766-2.60938,1.76074-3.74609,2.46484l-.7998-1.52051c.35156-.17676,.76758-.41602,1.23242-.67285v-6.93066Z" fill="#2c9d92"/>
        <path d="M257.15723,68.46289c0,1.12012-.92773,2.04883-2.04883,2.04883-1.12012,0-2.04883-.92871-2.04883-2.04883,0-1.12109,.92871-2.04883,2.04883-2.04883,1.12109,0,2.04883,.92773,2.04883,2.04883Z" fill="#2c9d92"/>
        <path d="M268.6123,61.24316h2.00098v14.51855h-2.00098v-3.28125c-1.2168,.52734-2.44922,1.04004-3.48926,1.47266l-.84863-1.95312c1.08887-.32031,2.7207-.88086,4.33789-1.45703v-3.87305h-3.77734v-1.90527h3.77734v-3.52148Zm8.32324,12.50098c.6084,0,.7041-.63965,.81641-3.2168,.46387,.36816,1.29688,.75195,1.82422,.86426-.19141,3.05762-.65625,4.24219-2.44824,4.24219h-2.14551c-1.82422,0-2.35254-.67285-2.35254-2.92969v-11.44434h1.96875v4.80176c1.2168-.78418,2.40137-1.68066,3.28125-2.43262l1.37695,1.71191c-1.40918,.96094-3.08984,1.90527-4.6582,2.72168v4.67383c0,.89648,.0957,1.00781,.67188,1.00781h1.66504Z" fill="#2c9d92"/>
        <path d="M290.48633,66.65332c-.19238,1.69727-.78418,2.80176-2.84961,3.45801-.12793-.35254-.46387-.86426-.76855-1.18457,.06445,.32031,.08008,.64062,.08008,.94434,0,1.02441-.22363,1.69629-.73633,2.06445-.25586,.17676-.57617,.27246-.92773,.33691-.30469,.04785-.67285,.04785-1.04102,.03125-.01562-.46387-.17578-1.2002-.43164-1.68066,.27148,.03223,.49609,.03223,.68848,.03223,.17578-.01562,.30371-.04785,.44824-.14355,.19141-.12891,.25586-.43262,.25586-.89648,0-.70508-.20801-1.69727-1.10449-2.75391,.32031-.99219,.67188-2.40039,.92773-3.48926h-1.34375v12.56543h-1.76074v-14.26172h3.68164l.28809-.08008,1.28027,.73633c-.41602,1.37695-.96094,3.08887-1.4248,4.32129,.6084,.73633,.91211,1.4248,1.07227,2.06543,1.39258-.41602,1.80859-1.04102,1.96875-2.06543h-1.96875v-1.61621h3.60156v-1.2002h-2.76855v-1.58496h2.76855v-1.23242h1.87305v1.23242h2.89746v1.58496h-2.89746v1.2002h3.71289v1.61621h-2.48047v1.08887c0,.35254,.01562,.40039,.25586,.40039h.6084c.22363,0,.28809-.14453,.32031-1.12109,.30371,.24023,.99219,.48047,1.44043,.59277-.16016,1.58496-.5918,2.00098-1.55273,2.00098h-1.10449c-1.34473,0-1.61621-.48047-1.61621-1.87305v-1.08887h-1.39258Zm5.68164,7.26758v1.66406h-10.01953v-1.66406h4.27344v-1.52051h-2.99316v-1.63281h2.99316v-1.24902h1.87305v1.24902h3.05664v1.63281h-3.05664v1.52051h3.87305Z" fill="#2c9d92"/>
        <path d="M302.91602,70.63965c.57617,.39941,1.90527,1.45605,2.27344,1.74414l-1.10449,1.36035c-.25684-.31934-.70508-.7998-1.16895-1.24805v3.40918h-1.84082v-3.2168c-.62402,.89648-1.34473,1.69629-2.03223,2.25684-.28906-.41602-.83301-1.04102-1.2334-1.34473,1.04102-.68848,2.14551-1.88867,2.88184-3.08887h-2.43359v-1.60156h2.81738v-1.23242h-2.86523v-1.56836h1.47266c-.06348-.52832-.25586-1.2168-.48047-1.76074l.97656-.22363h-1.79297v-1.55273h2.68945v-1.45703h1.84082v1.45703h2.65723v1.55273h-1.64844l.92773,.17578c-.28809,.68848-.54395,1.32812-.76758,1.80859h1.61621v1.56836h-2.78516v1.23242h2.64062v1.60156h-2.64062v.12793Zm-2.20898-6.51465c.27246,.54395,.48047,1.28027,.54395,1.76074l-.7998,.22363h3.13672l-1.05566-.22363c.20801-.48047,.46387-1.2168,.5918-1.76074h-2.41699Zm12.26074,3.88965h-1.52051v7.82715h-1.84082v-7.82715h-1.63281c-.01562,2.38477-.35156,5.76172-2.46484,7.95508-.24023-.41602-.92773-1.07227-1.36035-1.29688,1.84082-1.95312,2.0332-4.67383,2.0332-6.88281v-5.53809l1.10449,.30371c1.52051-.36816,3.10449-.87988,4.08105-1.4082l1.52051,1.39258c-1.4082,.62402-3.2334,1.12012-4.91406,1.47266v2.24121h4.99414v1.76074Z" fill="#2c9d92"/>
        <path d="M326.64648,69.66309h2.86523v1.76074h-2.86523v4.48145h-1.88867v-4.48145h-2.7373v-1.76074h2.7373v-1.71289h-1.96875v-1.13672c-.16016,.14453-.33594,.28809-.49609,.41602-.17578-.43164-.49609-1.00781-.78418-1.42383v4.89746h-2.16113v.92871h2.67285v1.69629h-2.67285v2.60938h-1.84082v-2.60938h-2.64062v-1.69629h2.64062v-.92871h-2.04883v-5.66602h2.04883v-.89648h-2.46484v-1.66504h2.46484v-1.48828h1.84082v1.48828h2.54492v1.66504h-2.54492v.89648h2.16113v.46387c1.36035-1.05566,2.64062-2.97656,3.2334-4.44922h1.74414c.88086,1.60059,2.22559,3.37695,3.55371,4.22559-.36816,.46387-.75195,1.16797-1.04004,1.74414-.14453-.11133-.27246-.22363-.41699-.35156v1.28027h-1.93652v1.71289Zm-6.89844-3.18555h-2.625v.7207h2.625v-.7207Zm0,2.06543h-2.625v.71973h2.625v-.71973Zm8.35547-2.33789c-.96094-.99219-1.87305-2.25684-2.41699-3.29688-.5127,1.00879-1.3125,2.25684-2.28906,3.29688h4.70605Z" fill="#2c9d92"/>
        <path d="M333.69824,70.60742c-.14355,1.52051-.49609,3.10547-.94434,4.12988-.32031-.22461-1.00781-.52832-1.39258-.67285,.46484-.94434,.68848-2.36914,.81641-3.71289l1.52051,.25586Zm12.91797-.54395c-.73633,.60742-1.50488,1.26367-2.19336,1.76074,.62402,.78418,1.4082,1.47266,2.41699,1.91992-.33594,.33691-.88086,1.07324-1.12012,1.53711-1.24902-.7041-2.16113-1.80859-2.80176-2.99316v1.82422c0,.81641-.12793,1.26465-.63965,1.52148-.5127,.27148-1.20117,.28809-2.17676,.28809-.06445-.48047-.24023-1.15332-.44824-1.61719,.54395,.0166,1.13574,.0166,1.3125,.0166,.20801,0,.25586-.04883,.25586-.22461v-3.8418c-.59277,2.43359-1.76074,4.11426-3.24902,5.02637-.24023-.35254-.83301-1.00879-1.18457-1.26465,1.08789-.5918,1.95215-1.56836,2.48047-2.84863h-1.55273v-1.48926l-1.12012,.5127c-.04785-.27246-.14453-.59277-.24023-.94434l-.7998,.06348v6.62695h-1.63281v-6.49902l-2.22559,.17676-.19141-1.64941,1.15234-.06348c.24023-.28809,.48047-.6084,.71973-.94434-.44727-.7207-1.18359-1.58496-1.82422-2.24121l.92871-1.28027c.11133,.1123,.23926,.22363,.36816,.33594,.44824-.87988,.89551-1.95312,1.15234-2.76855l1.64844,.57617c-.56055,1.10449-1.2168,2.36816-1.80859,3.26465,.19141,.20801,.36816,.43262,.51172,.625,.56055-.89648,1.07227-1.80957,1.44043-2.59375l1.55273,.7207c-.87988,1.34473-1.96875,2.92871-2.97656,4.20996l1.39258-.08008c-.16016-.35254-.33691-.70508-.5127-1.02441l1.34473-.56055c.62402,1.08789,1.23242,2.49707,1.4248,3.39355l-.17676,.08008h2.12891l.28809-.04785,.96094,.38379v-1.4082h-3.08984v-5.9707h2.49707c.22461-.52832,.43262-1.12109,.56055-1.60059l2.14453,.30371c-.22363,.44824-.46387,.89648-.7041,1.29688h3.29785v5.9707h-3.00977v.14355c.17676,.6084,.40039,1.23242,.7041,1.8252,.54492-.5127,1.08887-1.10449,1.45703-1.58496l1.53711,1.13672Zm-9.58789,.22363c.36816,.86426,.6875,1.98535,.78418,2.7373l-1.40918,.44824c-.06348-.75293-.36816-1.90527-.7041-2.78516l1.3291-.40039Zm2.81641-5.42578h4.29004v-.81641h-4.29004v.81641Zm0,2.22461h4.29004v-.84863h-4.29004v.84863Z" fill="#2c9d92"/>
        <path d="M239.79395,90.7373c0-3.18555,.88086-5.81055,2.38477-8.27539l1.47266,.62402c-1.34375,2.33691-1.95215,5.04199-1.95215,7.65137,0,2.64062,.6084,5.33008,1.95215,7.66699l-1.47266,.62402c-1.50391-2.48145-2.38477-5.07422-2.38477-8.29102Z" fill="#2c9d92"/>
        <path d="M247.98633,91.87305c-.16016,1.50488-.49609,3.10547-.95996,4.12988-.33691-.20801-1.04102-.54395-1.45703-.68848,.46387-.94434,.7207-2.36914,.84863-3.71289l1.56836,.27148Zm12.45312-6.93066s0,.64062-.01562,.88086c-.20898,7.01074-.43262,9.53906-1.10449,10.3877-.44824,.6084-.86523,.78418-1.53711,.88086-.57617,.0957-1.56836,.08008-2.49707,.04785-.03223-.54395-.28809-1.37695-.63965-1.9209,1.00781,.0957,1.91992,.0957,2.35254,.0957,.30371,0,.48047-.06348,.67188-.27148,.48047-.49609,.7207-2.83398,.89648-8.29199h-4.41797c-.43164,.78418-.87988,1.48926-1.36035,2.06543-.32031-.28809-1.02441-.76855-1.50488-1.05664,.56055,1.00879,1.07324,2.19238,1.24902,2.99316l-1.44043,.67188c-.04785-.25586-.12793-.54395-.22461-.86426l-.91211,.06445v6.57812h-1.68066v-6.4502l-2.36914,.16016-.16016-1.66504,1.18457-.04785c.24023-.30371,.49609-.64062,.73633-.99219-.46387-.68848-1.24805-1.55273-1.9209-2.19336l.89648-1.3125c.12793,.1123,.25586,.22461,.38477,.33691,.44824-.88086,.89551-1.95312,1.16797-2.78516l1.68066,.5918c-.57617,1.10449-1.23242,2.33691-1.80859,3.2334,.20801,.22363,.40039,.46387,.56055,.67188,.57617-.89648,1.08789-1.82422,1.47266-2.625l1.61621,.67285c-.89648,1.4082-2.0166,3.04102-3.05762,4.33789l1.61719-.06445c-.17578-.38379-.36816-.76855-.56055-1.10449l1.34473-.5918,.1123,.19141c1.18457-1.26465,2.12891-3.31348,2.64062-5.33008l1.95312,.41602c-.20801,.78418-.48047,1.55273-.78418,2.28906h5.45801Zm-9.04395,6.5625c.43262,.94434,.84863,2.19336,1.04102,3.00977l-1.50488,.52832c-.12793-.81641-.54395-2.11328-.94434-3.08984l1.4082-.44824Zm3.74609,1.63281c-.30469-1.00781-1.13672-2.54492-1.95312-3.69727l1.52051-.76855c.83203,1.10449,1.74512,2.57715,2.08105,3.58594l-1.64844,.87988Z" fill="#2c9d92"/>
        <path d="M262.86523,90.33691c0-4.40234,2.19336-6.30664,4.59375-6.30664,1.44043,0,2.49707,.6084,3.20117,1.34473l-1.24805,1.4082c-.41602-.46387-1.13672-.84863-1.8252-.84863-1.36035,0-2.48047,1.00879-2.57715,3.98633,.65625-.81641,1.66504-1.29688,2.43359-1.29688,1.98438,0,3.40918,1.13672,3.40918,3.55371,0,2.36914-1.69629,3.84082-3.72949,3.84082-2.24121,0-4.25781-1.72852-4.25781-5.68164Zm2.20898,1.21582c.22461,1.95312,1.02441,2.68945,2.00098,2.68945,.89648,0,1.61621-.68848,1.61621-2.06445,0-1.29688-.67188-1.88867-1.69629-1.88867-.6084,0-1.3291,.33594-1.9209,1.26367Z" fill="#2c9d92"/>
        <path d="M273.00977,89.96875c0-3.90625,1.58496-5.93848,4.01758-5.93848,2.43359,0,4.00195,2.04883,4.00195,5.93848,0,3.92188-1.56836,6.0498-4.00195,6.0498-2.43262,0-4.01758-2.12793-4.01758-6.0498Zm5.79492,0c0-3.20117-.75293-4.09766-1.77734-4.09766s-1.79297,.89648-1.79297,4.09766c0,3.2168,.76855,4.20996,1.79297,4.20996s1.77734-.99316,1.77734-4.20996Z" fill="#2c9d92"/>
        <path d="M293.52539,82.41309c1.00879,2.0332,3.00977,4.35449,4.75391,5.69824-.51172,.40039-1.24805,1.16895-1.61621,1.71289-.33594-.30371-.67188-.65625-1.02441-1.02441v.1123c-.17578,4.83398-.36816,6.72266-.92871,7.39453-.39941,.5127-.83203,.67285-1.45605,.75293-.54492,.08008-1.47266,.08008-2.41699,.04785-.03223-.57617-.28809-1.37695-.62402-1.9209,.87988,.06445,1.71191,.08008,2.1123,.08008,.28809,0,.46387-.03223,.64062-.22363,.31934-.33691,.49609-1.76074,.63965-5.10645h-3.15332c-.39941,3.07324-1.44043,5.81055-5.58594,7.36328-.24023-.54492-.7998-1.3291-1.26465-1.76074,3.61719-1.16895,4.4502-3.26562,4.77051-5.60254h-2.70508v-1.12012c-.41699,.43164-.84863,.81641-1.28125,1.15234-.35156-.43262-1.16797-1.2002-1.63281-1.53711,2.00098-1.34375,3.76172-3.55273,4.72266-5.98633l2.04883,.59277c-.78418,1.84082-1.90527,3.60156-3.16992,5.04199h8.64355c-1.26465-1.47266-2.46484-3.2334-3.34473-4.91406l1.87207-.75293Z" fill="#2c9d92"/>
        <path d="M314.79102,95.41113v1.45605h-8.96289v-1.13672c-1.9209,.40039-3.88965,.81641-5.44238,1.10449l-.35254-1.72852c.67285-.0957,1.47266-.22363,2.35352-.36816v-4.17773h-2.17773v-1.60059h2.17773v-1.16797h-1.40918v-.7207c-.0957,.0957-.20801,.19238-.30371,.28809-.24023-.36816-.76855-.99219-1.13672-1.23242,1.34473-1.13672,2.27344-2.64062,2.76953-3.87305h1.56836c.94434,.76758,2.12891,1.9043,2.68945,2.7207l-1.02441,1.23242h.03125v1.58496h-1.53613v1.16797h1.98438v1.60059h-1.98438v3.88965c.7041-.12793,1.44043-.27148,2.16113-.40039l.11133,1.36133h3.15332v-.76855h-2.88086v-1.37695h2.88086v-.67188h-2.81641v-4.88184h7.53906v4.88184h-2.96191v.67188h3.02539v1.37695h-3.02539v.76855h3.56934Zm-13.20508-4.24219c.25586,.88086,.48047,2.0166,.56055,2.75293l-1.28125,.35254c-.03125-.76855-.25586-1.9209-.49609-2.80078l1.2168-.30469Zm3.60156-4.96191c-.43262-.65625-1.16895-1.55273-1.84082-2.19336-.40039,.68848-.91211,1.44141-1.55273,2.19336h3.39355Zm-.97656,7.42676c.20801-.7041,.46387-1.84082,.56055-2.59277l1.37598,.33594c-.28809,.89648-.54395,1.9209-.78418,2.57715l-1.15234-.32031Zm3.55371-9.0752h-1.36035v-1.36035h3.00879v-.86523h1.80859v.86523h3.21777v1.36035h-1.48926l.32031,.08008c-.20801,.41602-.40039,.78418-.55957,1.10449h2v1.42383h-8.73926v-1.42383h1.88867c-.0957-.35254-.25586-.78418-.41602-1.12109l.32031-.06348Zm.36816,5.04199h1.32812v-.75293h-1.32812v.75293Zm1.32812,1.85645v-.76855h-1.32812v.76855h1.32812Zm1.64844-5.71387c.16016-.33691,.33691-.78418,.48047-1.18457h-2.48047c.19141,.40039,.36816,.87988,.43164,1.18457h1.56836Zm1.52148,3.10449h-1.40918v.75293h1.40918v-.75293Zm0,1.84082h-1.40918v.76855h1.40918v-.76855Z" fill="#2c9d92"/>
        <path d="M316.96094,98.4043c1.34473-2.33691,1.95312-5.02637,1.95312-7.66699,0-2.60938-.6084-5.31445-1.95312-7.65137l1.45703-.62402c1.52051,2.46484,2.40039,5.08984,2.40039,8.27539,0,3.2168-.87988,5.80957-2.40039,8.29102l-1.45703-.62402Z" fill="#2c9d92"/>
      </g>
      <g>
        <path d="M253.7041,186.31641v1.61621h-13.98926v-1.61621h5.92188v-1.34473h1.93652v1.34473h6.13086Zm-.51172,11.60449c0,.87988-.17676,1.39258-.80078,1.68066-.5918,.28809-1.44043,.30371-2.59277,.30371-.04785-.36816-.19238-.86426-.36816-1.28027h-4.12988v.7207h-1.66504v-4.30664h6.11523v3.10547c.54395,.0166,1.04004,.0166,1.21582,0,.24023-.01562,.30469-.06348,.30469-.25586v-3.56934h-9.05957v5.61816h-1.85742v-7.20312h12.83789v5.18652Zm-2.11328-9.37988v3.52148h-8.73926v-3.52148h8.73926Zm-1.93652,1.26465h-4.99414v.97656h4.99414v-.97656Zm-1.07227,6.49805h-2.76953v1.04102h2.76953v-1.04102Z" fill="#2c9d92"/>
        <path d="M260.51562,187.70898h1.29688v9.90723h-1.29688v-1.00781h-2.70508v1.4082h-1.34473v-10.30762h1.34473v7.37891h.59277v-9.71582h1.48828v9.71582h.62402v-7.37891Zm10.50098,4.56152h-.96094v5.74609c0,.88086-.17578,1.34473-.7998,1.61719-.6084,.27148-1.45703,.30371-2.62598,.30371-.0791-.49609-.39941-1.23242-.63965-1.71289,.83203,.03223,1.68066,.03223,1.95312,.03223,.23926,0,.31934-.06445,.31934-.27246v-5.71387h-6.33789v-1.56836h.92773c-.16016-.40039-.51172-.91309-.78418-1.18457,1.90527-.35254,2.80176-.89648,3.2334-1.8252h-2.94531v-1.50488h3.28125c.03223-.35156,.04785-.75195,.06445-1.18359h1.72852c-.01562,.41602-.03223,.81543-.06445,1.18359h3.18555v1.50488h-3.4248l-.06445,.22461c1.2002,.51172,2.75293,1.21582,3.58594,1.71191l-.96094,1.07324h1.3291v1.56836Zm-6.70703,4.80176v.83203h-1.52051v-4.75391h4.44922v3.92188h-2.92871Zm4.80176-6.37012c-.75195-.41699-1.82422-.96094-2.80078-1.44141-.56055,.64062-1.40918,1.10449-2.68945,1.44141h5.49023Zm-4.80176,3.77734v1.26465h1.39258v-1.26465h-1.39258Z" fill="#2c9d92"/>
        <path d="M274.89844,194.60742c-.14355,1.52051-.49609,3.10547-.94434,4.12988-.32031-.22461-1.00781-.52832-1.39258-.67285,.46484-.94434,.68848-2.36914,.81641-3.71289l1.52051,.25586Zm12.91797-.54395c-.73633,.60742-1.50488,1.26367-2.19336,1.76074,.62402,.78418,1.4082,1.47266,2.41699,1.91992-.33594,.33691-.87988,1.07324-1.12012,1.53711-1.24902-.7041-2.16113-1.80859-2.80176-2.99316v1.82422c0,.81641-.12793,1.26465-.63965,1.52148-.5127,.27148-1.20117,.28809-2.17676,.28809-.06445-.48047-.24023-1.15332-.44824-1.61719,.54395,.0166,1.13574,.0166,1.3125,.0166,.20801,0,.25586-.04883,.25586-.22461v-3.8418c-.59277,2.43359-1.76074,4.11426-3.24902,5.02637-.24023-.35254-.83301-1.00879-1.18457-1.26465,1.08789-.5918,1.95215-1.56836,2.48047-2.84863h-1.55273v-1.48926l-1.12012,.5127c-.04785-.27246-.14453-.59277-.24023-.94434l-.7998,.06348v6.62695h-1.63281v-6.49902l-2.22559,.17676-.19141-1.64941,1.15234-.06348c.24023-.28809,.48047-.6084,.71973-.94434-.44727-.7207-1.18359-1.58496-1.82422-2.24121l.92871-1.28027c.11133,.1123,.23926,.22363,.36816,.33594,.44824-.87988,.89551-1.95312,1.15234-2.76855l1.64844,.57617c-.56055,1.10449-1.2168,2.36816-1.80859,3.26465,.19141,.20801,.36816,.43262,.51172,.625,.56055-.89648,1.07227-1.80957,1.44043-2.59375l1.55273,.7207c-.87988,1.34473-1.96875,2.92871-2.97656,4.20996l1.39258-.08008c-.16016-.35254-.33691-.70508-.5127-1.02441l1.34473-.56055c.62402,1.08789,1.23242,2.49707,1.4248,3.39355l-.17676,.08008h2.12891l.28809-.04785,.96094,.38379v-1.4082h-3.08984v-5.9707h2.49707c.22461-.52832,.43262-1.12109,.56055-1.60059l2.14453,.30371c-.22363,.44824-.46387,.89648-.7041,1.29688h3.29785v5.9707h-3.00977v.14355c.17676,.6084,.40039,1.23242,.7041,1.8252,.54492-.5127,1.08887-1.10449,1.45703-1.58496l1.53711,1.13672Zm-9.58789,.22363c.36816,.86426,.6875,1.98535,.78418,2.7373l-1.40918,.44824c-.06348-.75293-.36816-1.90527-.7041-2.78516l1.3291-.40039Zm2.81641-5.42578h4.29004v-.81641h-4.29004v.81641Zm0,2.22461h4.29004v-.84863h-4.29004v.84863Z" fill="#2c9d92"/>
        <path d="M289.41016,192.31836c.38477-1.07227,.67285-2.84863,.78516-4.17773l1.36035,.17578c-.06445,1.39258-.35254,3.26562-.7207,4.49805l-1.4248-.49609Zm4.77051-1.00879c-.12793-.57617-.40039-1.39258-.7207-2.16016v10.77246h-1.88867v-14.93457h1.88867v3.00977l.86426-.36816c.49609,.95996,1.04102,2.24023,1.24902,3.02441l-1.39258,.65625Zm6.51465,2.59375c.78418,1.96875,2.09668,3.53711,4.09766,4.28906-.44824,.40039-1.05664,1.23242-1.34473,1.79297-2.00098-.94434-3.28125-2.56055-4.16211-4.70605-.63965,1.79297-1.85645,3.47363-4.06543,4.73828-.25586-.41602-.92773-1.12012-1.34473-1.47266,2.43359-1.18457,3.45801-2.88086,3.88965-4.6416h-3.18457v-1.80859h3.44141c.04785-.5127,.04785-.99316,.04785-1.47266v-1.45703h-2.75293v-1.76074h2.75293v-2.41699h1.9209v2.41699h3.47266v4.69043h1.00879v1.80859h-3.77734Zm-.7041-3.26562c0,.48047-.0166,.95996-.04883,1.45703h1.66504v-2.92969h-1.61621v1.47266Z" fill="#2c9d92"/>
        <path d="M310.35645,196.22363c.65625,1.07324,1.85645,1.50488,3.52148,1.56934,1.87207,.08008,5.47363,.03125,7.60254-.12793-.20801,.44727-.49609,1.37598-.5918,1.91992-1.9209,.09668-5.13867,.12891-7.04297,.04883-1.96875-.08008-3.28125-.52832-4.32227-1.77734-.7041,.62402-1.4082,1.24902-2.28906,1.9209l-.92773-1.98438c.68848-.40039,1.48828-.92871,2.19238-1.47266v-3.37793h-1.84082v-1.74414h3.69824v5.02539Zm-1.10449-7.18652c-.49609-.76855-1.63281-1.8252-2.57715-2.5293l1.4082-1.15234c.96094,.67285,2.12891,1.66504,2.67285,2.41699l-1.50391,1.26465Zm5.74609-1.07227h-3.9375v-1.58496h3.9375v-1.37598h1.85645v1.37598h4.17773v1.58496h-4.17773v.86426h3.63379v4.29004h-2.97754c.96094,.99219,2.43359,1.93652,3.74609,2.46484-.40039,.36816-.99316,1.02441-1.28125,1.48828-1.05566-.56055-2.19238-1.48828-3.12109-2.5127v2.81641h-1.85645v-2.92871c-.88086,1.10449-2.0166,2.08105-3.16895,2.67285-.27246-.44824-.80078-1.10449-1.20117-1.44043,1.3125-.54395,2.65723-1.50488,3.52148-2.56055h-2.59277v-4.29004h3.44141v-.86426Zm-1.68066,3.71289h1.68066v-1.39258h-1.68066v1.39258Zm3.53711-1.39258v1.39258h1.77734v-1.39258h-1.77734Z" fill="#2c9d92"/>
        <path d="M239.79395,214.7373c0-3.18555,.88086-5.81055,2.38477-8.27539l1.47266,.62402c-1.34375,2.33691-1.95215,5.04199-1.95215,7.65137,0,2.64062,.6084,5.33008,1.95215,7.66699l-1.47266,.62402c-1.50391-2.48145-2.38477-5.07422-2.38477-8.29102Z" fill="#2c9d92"/>
        <path d="M247.98633,215.87305c-.16016,1.50488-.49609,3.10547-.95996,4.12988-.33691-.20801-1.04102-.54395-1.45703-.68848,.46387-.94434,.7207-2.36914,.84863-3.71289l1.56836,.27148Zm12.45312-6.93066s0,.64062-.01562,.88086c-.20898,7.01074-.43262,9.53906-1.10449,10.3877-.44824,.6084-.86523,.78418-1.53711,.88086-.57617,.0957-1.56836,.08008-2.49707,.04785-.03223-.54395-.28809-1.37695-.63965-1.9209,1.00781,.0957,1.91992,.0957,2.35254,.0957,.30371,0,.48047-.06348,.67188-.27148,.48047-.49609,.7207-2.83398,.89648-8.29199h-4.41797c-.43164,.78418-.87988,1.48926-1.36035,2.06543-.32031-.28809-1.02441-.76855-1.50488-1.05664,.56055,1.00879,1.07324,2.19238,1.24902,2.99316l-1.44043,.67188c-.04785-.25586-.12793-.54395-.22461-.86426l-.91211,.06445v6.57812h-1.68066v-6.4502l-2.36914,.16016-.16016-1.66504,1.18457-.04785c.24023-.30371,.49609-.64062,.73633-.99219-.46387-.68848-1.24805-1.55273-1.9209-2.19336l.89648-1.3125c.12793,.1123,.25586,.22461,.38477,.33691,.44824-.88086,.89551-1.95312,1.16797-2.78516l1.68066,.5918c-.57617,1.10449-1.23242,2.33691-1.80859,3.2334,.20801,.22363,.40039,.46387,.56055,.67188,.57617-.89648,1.08789-1.82422,1.47266-2.625l1.61621,.67285c-.89648,1.4082-2.0166,3.04102-3.05762,4.33789l1.61719-.06445c-.17578-.38379-.36816-.76855-.56055-1.10449l1.34473-.5918,.1123,.19141c1.18457-1.26465,2.12891-3.31348,2.64062-5.33008l1.95312,.41602c-.20801,.78418-.48047,1.55273-.78418,2.28906h5.45801Zm-9.04395,6.5625c.43262,.94434,.84863,2.19336,1.04102,3.00977l-1.50488,.52832c-.12793-.81641-.54395-2.11328-.94434-3.08984l1.4082-.44824Zm3.74609,1.63281c-.30469-1.00781-1.13672-2.54492-1.95312-3.69727l1.52051-.76855c.83203,1.10449,1.74512,2.57715,2.08105,3.58594l-1.64844,.87988Z" fill="#2c9d92"/>
        <path d="M262.91309,218.6748l1.24902-1.4248c.41602,.48047,1.13672,.84863,1.82422,.84863,1.36133,0,2.48145-.99316,2.57715-3.96973-.65625,.81641-1.66406,1.2959-2.43262,1.2959-1.98535,0-3.40918-1.15234-3.40918-3.56934,0-2.35254,1.69629-3.8252,3.72949-3.8252,2.24023,0,4.25781,1.71289,4.25781,5.68262,0,4.40137-2.19336,6.30566-4.57812,6.30566-1.45703,0-2.5293-.62402-3.21777-1.34375Zm3.66602-4.93066c.62402,0,1.37598-.36816,1.9209-1.26465-.24023-1.93652-1.04102-2.67285-2.01758-2.67285-.87988,0-1.60059,.67285-1.60059,2.04883,0,1.29688,.65625,1.88867,1.69727,1.88867Z" fill="#2c9d92"/>
        <path d="M272.72168,218.40234l1.08887-1.50488c.67188,.65625,1.50391,1.20117,2.6084,1.20117,1.23242,0,2.09766-.7207,2.09766-2.01758,0-1.28027-.80078-2-2.00098-2-.7041,0-1.08887,.17578-1.77734,.62402l-1.07227-.68848,.32031-5.7627h6.33887v1.96875h-4.30566l-.22461,2.51367c.48047-.20801,.88086-.32031,1.4248-.32031,1.98438,0,3.64941,1.12012,3.64941,3.58496,0,2.5459-1.95312,4.01758-4.14551,4.01758-1.87305,0-3.12109-.73535-4.00195-1.61621Z" fill="#2c9d92"/>
        <path d="M293.52539,206.41309c1.00879,2.0332,3.00977,4.35449,4.75391,5.69824-.51172,.40039-1.24805,1.16895-1.61621,1.71289-.33594-.30371-.67188-.65625-1.02441-1.02441v.1123c-.17578,4.83398-.36816,6.72266-.92871,7.39453-.39941,.5127-.83203,.67285-1.45605,.75293-.54492,.08008-1.47266,.08008-2.41699,.04785-.03223-.57617-.28809-1.37695-.62402-1.9209,.87988,.06445,1.71191,.08008,2.1123,.08008,.28809,0,.46387-.03223,.64062-.22363,.31934-.33691,.49609-1.76074,.63965-5.10645h-3.15332c-.39941,3.07324-1.44043,5.81055-5.58594,7.36328-.24023-.54492-.7998-1.3291-1.26465-1.76074,3.61719-1.16895,4.4502-3.26562,4.77051-5.60254h-2.70508v-1.12012c-.41699,.43164-.84863,.81641-1.28125,1.15234-.35156-.43262-1.16797-1.2002-1.63281-1.53711,2.00098-1.34375,3.76172-3.55273,4.72266-5.98633l2.04883,.59277c-.78418,1.84082-1.90527,3.60156-3.16992,5.04199h8.64355c-1.26465-1.47266-2.46484-3.2334-3.34473-4.91406l1.87207-.75293Z" fill="#2c9d92"/>
        <path d="M314.79102,219.41113v1.45605h-8.96289v-1.13672c-1.9209,.40039-3.88965,.81641-5.44238,1.10449l-.35254-1.72852c.67285-.0957,1.47266-.22363,2.35352-.36816v-4.17773h-2.17773v-1.60059h2.17773v-1.16797h-1.40918v-.7207c-.0957,.0957-.20801,.19238-.30371,.28809-.24023-.36816-.76855-.99219-1.13672-1.23242,1.34473-1.13672,2.27344-2.64062,2.76953-3.87305h1.56836c.94434,.76758,2.12891,1.9043,2.68945,2.7207l-1.02441,1.23242h.03125v1.58496h-1.53613v1.16797h1.98438v1.60059h-1.98438v3.88965c.7041-.12793,1.44043-.27148,2.16113-.40039l.11133,1.36133h3.15332v-.76855h-2.88086v-1.37695h2.88086v-.67188h-2.81641v-4.88184h7.53906v4.88184h-2.96191v.67188h3.02539v1.37695h-3.02539v.76855h3.56934Zm-13.20508-4.24219c.25586,.88086,.48047,2.0166,.56055,2.75293l-1.28125,.35254c-.03125-.76855-.25586-1.9209-.49609-2.80078l1.2168-.30469Zm3.60156-4.96191c-.43262-.65625-1.16895-1.55273-1.84082-2.19336-.40039,.68848-.91211,1.44141-1.55273,2.19336h3.39355Zm-.97656,7.42676c.20801-.7041,.46387-1.84082,.56055-2.59277l1.37598,.33594c-.28809,.89648-.54395,1.9209-.78418,2.57715l-1.15234-.32031Zm3.55371-9.0752h-1.36035v-1.36035h3.00879v-.86523h1.80859v.86523h3.21777v1.36035h-1.48926l.32031,.08008c-.20801,.41602-.40039,.78418-.55957,1.10449h2v1.42383h-8.73926v-1.42383h1.88867c-.0957-.35254-.25586-.78418-.41602-1.12109l.32031-.06348Zm.36816,5.04199h1.32812v-.75293h-1.32812v.75293Zm1.32812,1.85645v-.76855h-1.32812v.76855h1.32812Zm1.64844-5.71387c.16016-.33691,.33691-.78418,.48047-1.18457h-2.48047c.19141,.40039,.36816,.87988,.43164,1.18457h1.56836Zm1.52148,3.10449h-1.40918v.75293h1.40918v-.75293Zm0,1.84082h-1.40918v.76855h1.40918v-.76855Z" fill="#2c9d92"/>
        <path d="M316.96094,222.4043c1.34473-2.33691,1.95312-5.02637,1.95312-7.66699,0-2.60938-.6084-5.31445-1.95312-7.65137l1.45703-.62402c1.52051,2.46484,2.40039,5.08984,2.40039,8.27539,0,3.2168-.87988,5.80957-2.40039,8.29102l-1.45703-.62402Z" fill="#2c9d92"/>
      </g>
    </g>
  </g>
</svg>