<?xml version="1.0" encoding="UTF-8"?>
<svg id="b" data-name="レイヤー 2" xmlns="http://www.w3.org/2000/svg" width="544" height="223.21191" viewBox="0 0 544 223.21191">
  <g id="c" data-name="root-th">
    <g>
      <rect x="96" y="41.5" width="438" height="10" fill="#ccc"/>
      <g>
        <rect x="96" y="42.14648" width="5.80469" height="8.70703" fill="#fff"/>
        <path d="M516.67139,50.85352h-11.52393v-8.70703h11.52393v8.70703Zm-23.04834,0h-11.52393v-8.70703h11.52393v8.70703Zm-23.04785,0h-11.52441v-8.70703h11.52441v8.70703Zm-23.04834,0h-11.52393v-8.70703h11.52393v8.70703Zm-23.04834,0h-11.52393v-8.70703h11.52393v8.70703Zm-23.04785,0h-11.52393v-8.70703h11.52393v8.70703Zm-23.04834,0h-11.52393v-8.70703h11.52393v8.70703Zm-23.04785,0h-11.52441v-8.70703h11.52441v8.70703Zm-23.04834,0h-11.52393v-8.70703h11.52393v8.70703Zm-23.04834,0h-11.52393v-8.70703h11.52393v8.70703Zm-23.04785,0h-11.52441v-8.70703h11.52441v8.70703Zm-23.04834,0h-11.52393v-8.70703h11.52393v8.70703Zm-23.04834,0h-11.52393v-8.70703h11.52393v8.70703Zm-23.04785,0h-11.52393v-8.70703h11.52393v8.70703Zm-23.04834,0h-11.52393v-8.70703h11.52393v8.70703Zm-23.04785,0h-11.52441v-8.70703h11.52441v8.70703Zm-23.04834,0h-11.52393v-8.70703h11.52393v8.70703Zm-23.04834,0h-11.52393v-8.70703h11.52393v8.70703Z" fill="#fff"/>
        <rect x="528.19531" y="42.14648" width="5.80469" height="8.70703" fill="#fff"/>
      </g>
      <rect width="158" height="93" fill="#fff"/>
      <rect x="96" y="166.16699" width="438" height="10" fill="#ccc"/>
      <g>
        <rect x="96" y="166.81299" width="5.80469" height="8.70703" fill="#fff"/>
        <path d="M516.67139,175.52002h-11.52393v-8.70703h11.52393v8.70703Zm-23.04834,0h-11.52393v-8.70703h11.52393v8.70703Zm-23.04785,0h-11.52441v-8.70703h11.52441v8.70703Zm-23.04834,0h-11.52393v-8.70703h11.52393v8.70703Zm-23.04834,0h-11.52393v-8.70703h11.52393v8.70703Zm-23.04785,0h-11.52393v-8.70703h11.52393v8.70703Zm-23.04834,0h-11.52393v-8.70703h11.52393v8.70703Zm-23.04785,0h-11.52441v-8.70703h11.52441v8.70703Zm-23.04834,0h-11.52393v-8.70703h11.52393v8.70703Zm-23.04834,0h-11.52393v-8.70703h11.52393v8.70703Zm-23.04785,0h-11.52441v-8.70703h11.52441v8.70703Zm-23.04834,0h-11.52393v-8.70703h11.52393v8.70703Zm-23.04834,0h-11.52393v-8.70703h11.52393v8.70703Zm-23.04785,0h-11.52393v-8.70703h11.52393v8.70703Zm-23.04834,0h-11.52393v-8.70703h11.52393v8.70703Zm-23.04785,0h-11.52441v-8.70703h11.52441v8.70703Zm-23.04834,0h-11.52393v-8.70703h11.52393v8.70703Zm-23.04834,0h-11.52393v-8.70703h11.52393v8.70703Z" fill="#fff"/>
        <rect x="528.19531" y="166.81299" width="5.80469" height="8.70703" fill="#fff"/>
      </g>
      <rect y="124.66667" width="158" height="93" fill="#fff"/>
      <rect x="402" width="142" height="219" fill="#fff"/>
      <g>
        <path d="M41.7168,46.39551v-3.92285c0-.96191-.17676-1.65137-.53027-2.06836-.35254-.41797-.88184-.62598-1.58789-.62598v-1.44434l2.43066-1.1543h6.13574v2.59863h-4.04199l-.02441,.09668c.41699,.25586,.72559,.625,.92676,1.10645,.2002,.48145,.30078,1.11426,.30078,1.90137v3.5127h-3.60938Zm3.34473,11.02051c-.72266,0-1.33203-.1123-1.8291-.33691s-.875-.56543-1.13086-1.02246c-.25684-.45703-.38477-1.03125-.38477-1.7207v-10.34668h3.60938v9.91309c0,.30469,.06738,.5293,.2041,.67383,.13574,.14453,.34863,.2168,.6377,.2168,.12793,0,.26465-.01562,.40918-.04785s.28027-.07227,.40918-.12012l.33691,2.30957c-.30566,.16113-.65039,.28027-1.03516,.36035s-.79395,.12109-1.22656,.12109Z" fill="#2c9d92"/>
        <path d="M54.3252,57.41602c-1.42871,0-2.53906-.29297-3.33301-.87891-.79395-.58496-1.34766-1.40234-1.66016-2.45312-.31348-1.05078-.46973-2.27441-.46973-3.66992,0-1.55664,.15234-2.82422,.45703-3.80273,.30469-.97754,.7666-1.69922,1.38379-2.16504s1.37598-.69824,2.27441-.69824c.56152,0,1.05469,.10938,1.47949,.3252,.4248,.2168,.76562,.61426,1.02246,1.19043h.09668c.22461-.59277,.59277-.99414,1.10645-1.20312,.51367-.20703,1.06738-.3125,1.66016-.3125,1.10742,0,1.9375,.29688,2.49121,.89062,.55273,.59375,.83008,1.45996,.83008,2.59863v9.93848h-3.60938v-9.26465c0-.49707-.08105-.83398-.24121-1.01074-.16016-.17578-.37695-.26465-.64941-.26465-.30469,0-.5332,.08887-.68555,.26465-.15234,.17676-.25293,.47363-.30078,.89062h-1.41992c-.06445-.46484-.18457-.77344-.36133-.92578-.17578-.15234-.38477-.22949-.625-.22949-.40137,0-.70996,.28906-.92676,.86621-.2168,.57812-.32422,1.55664-.32422,2.93555,0,.89844,.06738,1.66406,.2041,2.29883,.13574,.63281,.37305,1.11523,.70996,1.44336s.81836,.49316,1.44336,.49316c.19238,0,.36914-.0127,.5293-.03613s.29688-.06055,.40918-.1084l.36133,2.5752c-.25684,.11133-.53809,.19141-.84277,.24023s-.6416,.07227-1.00977,.07227Z" fill="#2c9d92"/>
        <path d="M68.7373,57.41602c-.72168,0-1.33105-.1123-1.82812-.33691-.49805-.22461-.875-.56543-1.13086-1.02246-.25684-.45703-.38574-1.03125-.38574-1.7207v-10.34668h3.60938v9.91309c0,.30469,.06836,.5293,.20508,.67383,.13574,.14453,.34863,.2168,.6377,.2168,.12793,0,.26465-.01562,.40918-.04785s.28027-.07227,.40918-.12012l.33691,2.30957c-.30566,.16113-.65039,.28027-1.03516,.36035s-.79395,.12109-1.22754,.12109Z" fill="#2c9d92"/>
        <path d="M73.11719,57.17578v-4.01953c0-1.00977,.2002-1.78809,.60156-2.33398,.40039-.54492,.96973-.92969,1.70801-1.1543l.02441-.0957-2.5752-.93945v-.625c0-.78613,.23242-1.50781,.69824-2.16602,.46484-.6582,1.15039-1.18262,2.05664-1.57617,.90625-.39258,2.00977-.58984,3.30859-.58984,1.21973,0,2.27051,.18945,3.15234,.56641,.88281,.37695,1.56836,.9375,2.05762,1.68359s.73438,1.68945,.73438,2.82812v8.42188h-3.60938v-8.20508c0-.80273-.21289-1.4043-.6377-1.80469-.42578-.40137-1.02344-.60156-1.79297-.60156-.73828,0-1.29199,.15625-1.66016,.46875-.36914,.3125-.57031,.69336-.60156,1.14258l2.1416,.98633-.26465,1.56445c-.57812,.03223-1.01074,.24023-1.2998,.625-.28906,.38574-.43262,.90723-.43262,1.56445v4.25977h-3.60938Z" fill="#2c9d92"/>
        <path d="M73.64551,42.16016v-1.51562l2.43066-1.01074h8.58984v2.52637h-11.02051Zm7.94141-1.46777v-2.71875h3.0791v2.71875h-3.0791Z" fill="#2c9d92"/>
        <path d="M93.83398,57.48828c-1.44336,0-2.59863-.17285-3.46484-.51758s-1.49609-.83008-1.88867-1.45508c-.39355-.62695-.58984-1.34766-.58984-2.16602,0-.70605,.1084-1.27539,.3252-1.70898,.2168-.43262,.49707-.76562,.8418-.99805s.69434-.38867,1.04688-.46875v-.14453c-.36914-.12891-.72168-.30469-1.05859-.5293s-.61328-.5293-.83008-.91504c-.2168-.38477-.3252-.86621-.3252-1.44434,0-.59277,.14062-1.14648,.4209-1.66016,.28125-.5127,.73438-.92578,1.36035-1.23828,.625-.31348,1.45117-.46973,2.47754-.46973,.49707,0,.97852,.03613,1.44434,.1084,.46484,.07227,.82617,.17188,1.08301,.30078l-.55371,2.42969c-.12891-.03125-.30078-.06738-.51758-.10742s-.4375-.06055-.66113-.06055c-.49805,0-.86621,.11719-1.10742,.34961-.24023,.23242-.36035,.5332-.36035,.90234,0,.38477,.10352,.68164,.3125,.88965,.20801,.20801,.47656,.35254,.80566,.43262,.3291,.08105,.66992,.12109,1.02344,.12109h.50488v2.23828h-.50488c-.69043,0-1.20801,.11914-1.55273,.36035s-.51758,.63379-.51758,1.17871c0,.28906,.06836,.57422,.20508,.85449,.13574,.28027,.37305,.51367,.70996,.69824,.33691,.18359,.81836,.27637,1.44336,.27637,.59375,0,1.05859-.08789,1.39551-.26465,.33691-.17578,.57812-.41309,.72168-.70996,.14453-.29688,.2168-.62988,.2168-.99902v-8.78223h3.60938v8.66211c0,1.65332-.48535,2.87207-1.45508,3.65723-.97168,.78711-2.49121,1.17969-4.56055,1.17969Z" fill="#2c9d92"/>
        <path d="M106.73145,57.48828c-.81836,0-1.58789-.09277-2.30957-.27734-.72168-.18359-1.39551-.44531-2.02148-.78125l.96289-2.62305c.35254,.20898,.77734,.39258,1.27539,.55273,.49707,.16113,.98633,.24121,1.46777,.24121,.89746,0,1.61133-.34082,2.1416-1.02246,.5293-.68164,.79395-1.70508,.79395-3.06836,0-1.2832-.26465-2.26172-.79395-2.93555-.53027-.67383-1.35645-1.00977-2.47852-1.00977-.5293,0-1.0752,.07617-1.63672,.22852s-1.02637,.33984-1.39551,.56445v-2.95898c.49707-.22461,1.05859-.40039,1.68457-.5293,.625-.12891,1.29102-.19336,1.99707-.19336,1.47559,0,2.67871,.27344,3.60938,.81836,.92969,.5459,1.6123,1.32812,2.04492,2.3457,.43359,1.01953,.65039,2.24219,.65039,3.66992,0,2.27832-.52148,4.01074-1.56445,5.19727-1.04297,1.1875-2.51855,1.78125-4.42773,1.78125Z" fill="#2c9d92"/>
      </g>
      <g>
        <path d="M427.42773,117.17578v-13.18652h2.64746l.48047,2.06934h.19336c.27246-.6582,.74512-1.20703,1.41895-1.64844s1.54785-.66211,2.62305-.66211c1.02637,0,1.87695,.18066,2.55078,.54199,.67383,.36035,1.18262,.90625,1.52832,1.63574,.34473,.73047,.5166,1.64844,.5166,2.75586v8.49414h-3.60938v-7.77246c0-.89844-.17969-1.54395-.54102-1.93652-.36133-.39355-.88672-.58984-1.57617-.58984-.56152,0-1.03906,.15234-1.43164,.45703-.39355,.30469-.69043,.75-.89062,1.33594-.2002,.58496-.30078,1.31836-.30078,2.20117v6.30469h-3.60938Z" fill="#2c9d92"/>
        <path d="M446.24512,117.17578v-8.71094c0-.67383-.15723-1.16309-.46973-1.46777s-.82227-.45801-1.52832-.45801c-.5293,0-1.01465,.07227-1.45508,.2168-.44141,.14453-.85449,.32129-1.23926,.5293v-2.88672c.35254-.16016,.84961-.32031,1.49121-.48145,.6416-.16016,1.39648-.24121,2.2627-.24121,.88184,0,1.66406,.12891,2.3457,.38477,.68164,.25781,1.21875,.68652,1.6123,1.28809,.39258,.60156,.58984,1.42383,.58984,2.46582v9.36133h-3.60938Z" fill="#2c9d92"/>
        <path d="M453.22266,117.17578v-7.82031c0-1.8457,.48926-3.25195,1.46777-4.22363,.97852-.96973,2.52637-1.45605,4.64355-1.45605,2.13379,0,3.67773,.48633,4.63281,1.45605,.9541,.97168,1.43164,2.37793,1.43164,4.22363v7.82031h-3.58594v-7.86914c0-.84961-.19629-1.51953-.58887-2.00879-.39355-.48926-1.03906-.7334-1.9375-.7334-.88281,0-1.51953,.24414-1.91309,.7334s-.58887,1.15918-.58887,2.00879v2.09375l.07129,.02344c.30469-.625,.66992-1.03809,1.0957-1.23828,.4248-.20117,1.00586-.30078,1.74414-.30078h.55371v2.69531h-.55371c-.80273,0-1.41211,.13574-1.8291,.4082-.41699,.27344-.70117,.62988-.85352,1.07031-.15332,.44141-.22852,.93555-.22852,1.48047v1.63672h-3.56152Z" fill="#2c9d92"/>
        <path d="M472.25586,117.17578v-8.71094c0-.67383-.15723-1.16309-.46973-1.46777s-.82227-.45801-1.52832-.45801c-.5293,0-1.01465,.07227-1.45508,.2168-.44141,.14453-.85449,.32129-1.23926,.5293v-2.88672c.35254-.16016,.84961-.32031,1.49121-.48145,.6416-.16016,1.39648-.24121,2.2627-.24121,.88184,0,1.66406,.12891,2.3457,.38477,.68164,.25781,1.21875,.68652,1.6123,1.28809,.39258,.60156,.58984,1.42383,.58984,2.46582v9.36133h-3.60938Z" fill="#2c9d92"/>
        <path d="M484.86426,117.48828c-1.86133,0-3.25684-.41699-4.1875-1.25195-.93066-.83398-1.39551-2.01172-1.39551-3.53711v-.79297c0-.75391,.12793-1.39648,.38477-1.92578s.63379-1.07422,1.13086-1.63672c.16016-.17578,.33301-.37598,.51758-.60156,.18457-.22363,.28516-.44043,.30078-.64844l-.07227-.02539c-.16016,.08105-.32422,.14453-.49316,.19336-.16797,.04785-.34863,.07227-.54102,.07227-.59375,0-1.0791-.2168-1.45605-.65039-.37695-.43262-.56543-1.04199-.56543-1.82812v-.86621h2.57422c0,.44922,.05664,.77051,.16895,.96191,.1123,.19336,.28906,.28906,.5293,.28906,.12793,0,.27246-.02734,.43359-.08398,.16016-.05664,.3125-.14062,.45703-.25293l.38477-.91406h1.78027v1.6123c0,.51367-.02051,.9375-.05957,1.27539-.04102,.33594-.12109,.6416-.24121,.91406-.12012,.27344-.30078,.58594-.54102,.93848-.19238,.28809-.37305,.55371-.54199,.79395-.16797,.24023-.30078,.50586-.39648,.79395-.09668,.28906-.14453,.66602-.14453,1.13086v.96289c0,.5293,.07617,.96191,.22852,1.2998,.15234,.33594,.37695,.58105,.67383,.7334s.65332,.22852,1.07129,.22852c.70508,0,1.21875-.18848,1.53906-.56543,.32129-.37695,.48145-.88672,.48145-1.52734v-2.33496c0-.48145-.10449-.8623-.3125-1.14258-.20898-.28027-.5459-.4209-1.01074-.4209h-.07227v-1.90137h.09668c.48145,0,.83398-.13574,1.05859-.40918,.22461-.27246,.36914-.62109,.43262-1.04688,.06445-.42383,.09668-.86914,.09668-1.33496h3.56152c0,.97852-.125,1.78027-.37305,2.40625-.24902,.62598-.70215,1.06738-1.35938,1.32324v.0957c.54492,.16113,.92188,.4541,1.13086,.87891,.20801,.42578,.3125,.9668,.3125,1.62402v2.3584c0,1.57227-.46875,2.76758-1.40723,3.58496-.93848,.81836-2.33105,1.22754-4.1748,1.22754Z" fill="#2c9d92"/>
        <path d="M497.23242,117.17578v-8.71094c0-.67383-.15723-1.16309-.46973-1.46777s-.82227-.45801-1.52832-.45801c-.5293,0-1.01465,.07227-1.45508,.2168-.44141,.14453-.85449,.32129-1.23926,.5293v-2.88672c.35254-.16016,.84961-.32031,1.49121-.48145,.6416-.16016,1.39648-.24121,2.2627-.24121,.88184,0,1.66406,.12891,2.3457,.38477,.68164,.25781,1.21875,.68652,1.6123,1.28809,.39258,.60156,.58984,1.42383,.58984,2.46582v9.36133h-3.60938Z" fill="#2c9d92"/>
        <path d="M504.08984,117.17578v-4.01953c0-1.00977,.2002-1.78809,.60156-2.33398,.40039-.54492,.96973-.92969,1.70801-1.1543l.02441-.0957-2.5752-.93945v-.625c0-.78613,.23242-1.50781,.69824-2.16602,.46484-.6582,1.15039-1.18262,2.05664-1.57617,.90625-.39258,2.00977-.58984,3.30859-.58984,1.21973,0,2.27051,.18945,3.15234,.56641,.88281,.37695,1.56836,.9375,2.05762,1.68359s.73438,1.68945,.73438,2.82812v8.42188h-3.60938v-8.20508c0-.80273-.21289-1.4043-.6377-1.80469-.42578-.40137-1.02344-.60156-1.79297-.60156-.73828,0-1.29199,.15625-1.66016,.46875-.36914,.3125-.57031,.69336-.60156,1.14258l2.1416,.98633-.26465,1.56445c-.57812,.03223-1.01074,.24023-1.2998,.625-.28906,.38574-.43262,.90723-.43262,1.56445v4.25977h-3.60938Z" fill="#2c9d92"/>
        <path d="M504.61816,102.16016v-1.51562l2.43066-1.01074h8.58984v2.52637h-11.02051Z" fill="#2c9d92"/>
      </g>
      <g>
        <path d="M48.83887,180.48828c-1.95703,0-3.4082-.47656-4.35547-1.43164-.94629-.95508-1.41895-2.37109-1.41895-4.24707,0-.32129,.01172-.70996,.03613-1.16699,.02344-.45703,.05957-.8623,.1084-1.21484h5.77441v2.28516h-2.38184v.33691c0,.6416,.08008,1.16699,.24023,1.57617s.40527,.70996,.73438,.90234c.32812,.19238,.74121,.28906,1.23926,.28906,.54492,0,1.00586-.12012,1.38281-.36133,.37695-.24023,.66602-.64941,.86621-1.22754,.20117-.57715,.30078-1.37109,.30078-2.38184,0-.94629-.10742-1.73535-.32422-2.37012-.2168-.63281-.57812-1.11035-1.08301-1.43164-.50488-.32031-1.19922-.48047-2.08105-.48047-.48145,0-.97852,.05176-1.49219,.15625-.51367,.10352-.99902,.23633-1.45605,.39648s-.85352,.33691-1.19043,.5293v-3.00781c.35254-.19238,.79004-.36133,1.31152-.50586,.52051-.14355,1.08594-.25586,1.69629-.33594,.60938-.08008,1.21094-.12109,1.80469-.12109,1.55566,0,2.81055,.28516,3.76562,.85449,.9541,.56934,1.65137,1.37598,2.09277,2.41895s.66211,2.27734,.66211,3.70508c0,1.45996-.21289,2.69922-.6377,3.71777s-1.09473,1.79199-2.00879,2.32129c-.91504,.53027-2.11035,.79492-3.58594,.79492Z" fill="#2c9d92"/>
        <path d="M51.19727,186.45508v-2.14062c0-.40137-.17676-.60156-.53027-.60156-.08008,0-.16016,.00781-.24023,.02344s-.16016,.04004-.24023,.07227l-.16895-1.73242c.22461-.08008,.5332-.16016,.92676-.24023s.79004-.12109,1.19043-.12109c.78711,0,1.33984,.15625,1.66113,.46973,.32031,.31348,.48047,.74121,.48047,1.28711v2.9834h-3.0791Z" fill="#2c9d92"/>
        <path d="M61.56738,180.41602c-.72168,0-1.33105-.1123-1.82812-.33691-.49805-.22461-.875-.56543-1.13086-1.02246-.25684-.45703-.38574-1.03125-.38574-1.7207v-10.34668h3.60938v9.91309c0,.30469,.06836,.5293,.20508,.67383,.13574,.14453,.34863,.2168,.6377,.2168,.12793,0,.26465-.01562,.40918-.04785s.28027-.07227,.40918-.12012l.33691,2.30957c-.30566,.16113-.65039,.28027-1.03516,.36035s-.79395,.12109-1.22754,.12109Z" fill="#2c9d92"/>
        <path d="M71.3125,180.48828c-1.95703,0-3.4082-.47656-4.35547-1.43164-.94629-.95508-1.41895-2.37109-1.41895-4.24707,0-.32129,.01172-.70996,.03613-1.16699,.02344-.45703,.05957-.8623,.1084-1.21484h5.77441v2.28516h-2.38184v.33691c0,.6416,.08008,1.16699,.24023,1.57617s.40527,.70996,.73438,.90234c.32812,.19238,.74121,.28906,1.23926,.28906,.54492,0,1.00586-.12012,1.38281-.36133,.37695-.24023,.66602-.64941,.86621-1.22754,.20117-.57715,.30078-1.37109,.30078-2.38184,0-.94629-.10742-1.73535-.32422-2.37012-.2168-.63281-.57812-1.11035-1.08301-1.43164-.50488-.32031-1.19922-.48047-2.08105-.48047-.48145,0-.97852,.05176-1.49219,.15625-.51367,.10352-.99902,.23633-1.45605,.39648s-.85352,.33691-1.19043,.5293v-3.00781c.35254-.19238,.79004-.36133,1.31152-.50586,.52051-.14355,1.08594-.25586,1.69629-.33594,.60938-.08008,1.21094-.12109,1.80469-.12109,1.55566,0,2.81055,.28516,3.76562,.85449,.9541,.56934,1.65137,1.37598,2.09277,2.41895s.66211,2.27734,.66211,3.70508c0,1.45996-.21289,2.69922-.6377,3.71777s-1.09473,1.79199-2.00879,2.32129c-.91504,.53027-2.11035,.79492-3.58594,.79492Z" fill="#2c9d92"/>
        <path d="M81.1543,169.39551v-3.92285c0-.96191-.17676-1.65137-.53027-2.06836-.35254-.41797-.88184-.62598-1.58789-.62598v-1.44434l2.43066-1.1543h6.13574v2.59863h-4.04199l-.02441,.09668c.41699,.25586,.72559,.625,.92676,1.10645,.2002,.48145,.30078,1.11426,.30078,1.90137v3.5127h-3.60938Zm3.34473,11.02051c-.72266,0-1.33203-.1123-1.8291-.33691s-.875-.56543-1.13086-1.02246c-.25684-.45703-.38477-1.03125-.38477-1.7207v-10.34668h3.60938v9.91309c0,.30469,.06738,.5293,.2041,.67383,.13574,.14453,.34863,.2168,.6377,.2168,.12793,0,.26465-.01562,.40918-.04785s.28027-.07227,.40918-.12012l.33691,2.30957c-.30566,.16113-.65039,.28027-1.03516,.36035s-.79395,.12109-1.22656,.12109Z" fill="#2c9d92"/>
        <path d="M93.23242,180.41602c-.97852,0-1.80078-.18945-2.46582-.56543-.66602-.37695-1.1709-.94238-1.51562-1.69629-.3457-.75391-.51758-1.67578-.51758-2.76758v-8.39746h3.60938v7.77246c0,.88184,.17578,1.52344,.5293,1.92383,.35254,.40234,.86621,.60156,1.54004,.60156,.84961,0,1.50781-.32422,1.97266-.97363,.46582-.64941,.69824-1.65625,.69824-3.02051v-6.30371h3.60938v13.18652h-2.74316l-.38477-2.02148h-.2168c-.27344,.6416-.74219,1.17871-1.4082,1.61133-.66504,.43359-1.56738,.65039-2.70703,.65039Z" fill="#2c9d92"/>
        <path d="M106.53906,172.40332c-.73828,0-1.32324-.1123-1.75684-.33691-.43262-.22461-.74609-.52539-.93848-.90234s-.28809-.77344-.28809-1.19141c0-.27246,.03906-.55664,.12012-.85352,.08008-.29688,.2002-.58984,.36035-.87891l2.62305,.33691c-.03223,.1123-.05957,.2334-.08398,.36035-.02441,.12891-.03613,.26562-.03613,.41016,0,.20801,.06348,.37305,.19238,.49219,.12793,.12109,.35254,.18164,.67383,.18164h2.71875v2.38184h-3.58496Zm0,6.7373c-.73828,0-1.32324-.11133-1.75684-.33691-.43262-.22461-.74609-.52539-.93848-.90234-.19238-.37598-.28809-.77441-.28809-1.19043,0-.27344,.03906-.55762,.12012-.85547,.08008-.2959,.2002-.58887,.36035-.87695l2.62305,.33594c-.03223,.11328-.05957,.23242-.08398,.36133s-.03613,.26465-.03613,.4082c0,.20898,.06348,.37305,.19238,.49414,.12793,.12012,.35254,.17969,.67383,.17969h2.71875v2.38281h-3.58496Z" fill="#2c9d92"/>
      </g>
      <g>
        <path d="M163.83496,72.87207l1.61621-1.20117c.46484,.86426,1.08887,1.23242,1.76074,1.23242,1.04102,0,1.58496-.55957,1.58496-2.19238v-7.84277h2.36914v8.03516c0,2.22461-1.12012,4.04883-3.66602,4.04883-1.72852,0-2.88086-.7041-3.66504-2.08008Z" fill="#2c9d92"/>
        <path d="M173.25879,70.24707c0-2.97754,2.06543-4.70605,4.30566-4.70605,2.24121,0,4.30566,1.72852,4.30566,4.70605,0,2.97656-2.06445,4.70508-4.30566,4.70508-2.24023,0-4.30566-1.72852-4.30566-4.70508Zm6.21094,0c0-1.68066-.68848-2.78516-1.90527-2.78516-1.21582,0-1.9043,1.10449-1.9043,2.78516,0,1.69629,.68848,2.78516,1.9043,2.78516,1.2168,0,1.90527-1.08887,1.90527-2.78516Z" fill="#2c9d92"/>
        <path d="M183.27441,70.24707c0-2.89746,2.04883-4.70605,4.17773-4.70605,2.46484,0,3.74609,1.80859,3.74609,4.27344,0,.44824-.04883,.88086-.1123,1.08887h-5.52246c.19238,1.47266,1.15234,2.24023,2.48145,2.24023,.73633,0,1.37598-.22363,2.0166-.62402l.7998,1.44043c-.87988,.6084-2.0166,.99219-3.12109,.99219-2.5127,0-4.46582-1.74414-4.46582-4.70508Zm5.90625-.91309c0-1.2002-.54395-1.96875-1.69629-1.96875-.94434,0-1.77637,.67285-1.95312,1.96875h3.64941Z" fill="#2c9d92"/>
        <path d="M193.4668,71.59082v-3.96875h-1.26465v-1.74512l1.39258-.1123,.27246-2.41699h1.95215v2.41699h2.20898v1.85742h-2.20898v3.96875c0,1.02441,.41699,1.50488,1.2168,1.50488,.28809,0,.64062-.0957,.88086-.19238l.38379,1.71289c-.48047,.16016-1.10449,.33594-1.88867,.33594-2.12891,0-2.94531-1.36035-2.94531-3.36133Z" fill="#2c9d92"/>
        <path d="M199.00195,73.68848l1.07227-1.47266c.80078,.62402,1.56934,.97559,2.40137,.97559,.89648,0,1.29688-.38379,1.29688-.94434,0-.67188-.92871-.97559-1.87305-1.34375-1.13672-.43262-2.40137-1.12109-2.40137-2.625,0-1.60059,1.29688-2.7373,3.3457-2.7373,1.29688,0,2.30469,.54395,3.04102,1.10449l-1.05664,1.4248c-.63965-.46484-1.26465-.76855-1.9209-.76855-.81543,0-1.2002,.35156-1.2002,.86426,0,.65625,.83203,.89648,1.77734,1.24805,1.18359,.44824,2.49609,1.04102,2.49609,2.70508,0,1.56934-1.23242,2.83301-3.56934,2.83301-1.2002,0-2.5127-.52734-3.40918-1.26367Z" fill="#2c9d92"/>
        <path d="M207.6748,71.36719v-5.60254h2.35254v5.29883c0,1.37598,.38379,1.87207,1.24805,1.87207,.73633,0,1.2168-.32031,1.8252-1.12012v-6.05078h2.35254v8.96387h-1.9209l-.17578-1.28027h-.06348c-.76855,.91211-1.63281,1.50391-2.84961,1.50391-1.93652,0-2.76855-1.34375-2.76855-3.58496Z" fill="#2c9d92"/>
        <path d="M220.90723,61.82715h1.55273l-3.96973,15.81445h-1.56934l3.98633-15.81445Z" fill="#2c9d92"/>
        <path d="M224.3623,62.86816h2.36816v4.67383h4.48242v-4.67383h2.35254v11.86035h-2.35254v-5.12207h-4.48242v5.12207h-2.36816v-11.86035Z" fill="#2c9d92"/>
        <path d="M235.72168,70.24707c0-2.97754,2.06543-4.70605,4.30566-4.70605,2.24121,0,4.30566,1.72852,4.30566,4.70605,0,2.97656-2.06445,4.70508-4.30566,4.70508-2.24023,0-4.30566-1.72852-4.30566-4.70508Zm6.21094,0c0-1.68066-.68848-2.78516-1.90527-2.78516-1.21582,0-1.9043,1.10449-1.9043,2.78516,0,1.69629,.68848,2.78516,1.9043,2.78516,1.2168,0,1.90527-1.08887,1.90527-2.78516Z" fill="#2c9d92"/>
        <path d="M246.29785,61.95508h2.32129v7.66699h.06348l3.05762-3.85742h2.57715l-3.07324,3.69727,3.36133,5.2666h-2.5459l-2.17676-3.71387-1.26367,1.44141v2.27246h-2.32129v-12.77344Z" fill="#2c9d92"/>
        <path d="M255.88184,71.36719v-5.60254h2.35254v5.29883c0,1.37598,.38379,1.87207,1.24805,1.87207,.73633,0,1.2168-.32031,1.8252-1.12012v-6.05078h2.35254v8.96387h-1.9209l-.17578-1.28027h-.06348c-.76855,.91211-1.63281,1.50391-2.84961,1.50391-1.93652,0-2.76855-1.34375-2.76855-3.58496Z" fill="#2c9d92"/>
        <path d="M266.16895,65.76465h1.9209l.17578,1.58496h.04785c.65625-1.16895,1.61719-1.80859,2.54492-1.80859,.49609,0,.78418,.08008,1.05664,.19141l-.40039,2.0332c-.31934-.0957-.57617-.14355-.94434-.14355-.7041,0-1.55273,.46387-2.04883,1.76074v5.3457h-2.35254v-8.96387Z" fill="#2c9d92"/>
        <path d="M272.95215,63.02734c0-.76758,.56055-1.28027,1.37695-1.28027,.7998,0,1.36035,.5127,1.36035,1.28027,0,.78516-.56055,1.29688-1.36035,1.29688-.81641,0-1.37695-.51172-1.37695-1.29688Zm.19238,2.7373h2.35254v8.96387h-2.35254v-8.96387Z" fill="#2c9d92"/>
        <path d="M278.00879,61.95508h2.32129v7.66699h.06348l3.05762-3.85742h2.57715l-3.07324,3.69727,3.36133,5.2666h-2.5459l-2.17676-3.71387-1.26367,1.44141v2.27246h-2.32129v-12.77344Z" fill="#2c9d92"/>
        <path d="M287.59277,71.36719v-5.60254h2.35254v5.29883c0,1.37598,.38379,1.87207,1.24805,1.87207,.73633,0,1.2168-.32031,1.8252-1.12012v-6.05078h2.35254v8.96387h-1.9209l-.17578-1.28027h-.06348c-.76855,.91211-1.63281,1.50391-2.84961,1.50391-1.93652,0-2.76855-1.34375-2.76855-3.58496Z" fill="#2c9d92"/>
        <path d="M301.44727,73.22363l1.36133-1.63281c.84766,.78516,1.96875,1.3125,3.00879,1.3125,1.23242,0,1.88867-.52734,1.88867-1.36035,0-.87988-.71973-1.15234-1.77637-1.60059l-1.58496-.67188c-1.2002-.49609-2.40039-1.45703-2.40039-3.18555,0-1.93652,1.69629-3.42578,4.09766-3.42578,1.37598,0,2.75293,.54492,3.71289,1.52148l-1.2002,1.48828c-.75293-.62402-1.53711-.97656-2.5127-.97656-1.04102,0-1.69727,.46387-1.69727,1.24902,0,.84766,.83203,1.15234,1.84082,1.55176l1.55273,.65625c1.44043,.59277,2.38477,1.50488,2.38477,3.21777,0,1.93652-1.61621,3.58496-4.35352,3.58496-1.58496,0-3.16895-.62402-4.32227-1.72852Z" fill="#2c9d92"/>
        <path d="M312.02441,61.95508h2.35254v3.21777l-.11133,1.68066c.71973-.67285,1.60059-1.3125,2.81641-1.3125,1.9375,0,2.76953,1.34473,2.76953,3.60156v5.58594h-2.35352v-5.29785c0-1.39258-.38379-1.87305-1.26367-1.87305-.73633,0-1.20117,.35254-1.85742,1.00879v6.16211h-2.35254v-12.77344Z" fill="#2c9d92"/>
        <path d="M322.07227,63.02734c0-.76758,.56055-1.28027,1.37695-1.28027,.7998,0,1.36035,.5127,1.36035,1.28027,0,.78516-.56055,1.29688-1.36035,1.29688-.81641,0-1.37695-.51172-1.37695-1.29688Zm.19238,2.7373h2.35254v8.96387h-2.35254v-8.96387Z" fill="#2c9d92"/>
        <path d="M327.12793,65.76465h1.9209l.17578,1.18457h.04785c.78418-.76855,1.69727-1.4082,2.91309-1.4082,1.9375,0,2.76953,1.34473,2.76953,3.60156v5.58594h-2.35352v-5.29785c0-1.39258-.38379-1.87305-1.26367-1.87305-.73633,0-1.20117,.35254-1.85742,1.00879v6.16211h-2.35254v-8.96387Z" fill="#2c9d92"/>
        <path d="M337.38379,61.95508h2.32129v7.66699h.06348l3.05762-3.85742h2.57715l-3.07324,3.69727,3.36133,5.2666h-2.5459l-2.17676-3.71387-1.26367,1.44141v2.27246h-2.32129v-12.77344Z" fill="#2c9d92"/>
        <path d="M346.61523,72.2959c0-1.9209,1.55273-2.92969,5.16992-3.31348-.04785-.88086-.43164-1.55273-1.53613-1.55273-.83301,0-1.63281,.36816-2.46582,.84863l-.84766-1.55273c1.05664-.65625,2.33691-1.18457,3.74512-1.18457,2.27344,0,3.44141,1.36035,3.44141,3.95312v5.23438h-1.9209l-.16016-.95996h-.06348c-.78418,.67188-1.68066,1.18359-2.70508,1.18359-1.60059,0-2.65723-1.13574-2.65723-2.65625Zm5.16992-.06445v-1.80859c-2.19238,.27246-2.92871,.87988-2.92871,1.68066,0,.7041,.49609,1.00879,1.18457,1.00879,.67188,0,1.16797-.32031,1.74414-.88086Z" fill="#2c9d92"/>
        <path d="M356.51953,65.76465h1.9209l.17578,1.18457h.04785c.78418-.76855,1.69727-1.4082,2.91309-1.4082,1.9375,0,2.76953,1.34473,2.76953,3.60156v5.58594h-2.35352v-5.29785c0-1.39258-.38379-1.87305-1.26367-1.87305-.73633,0-1.20117,.35254-1.85742,1.00879v6.16211h-2.35254v-8.96387Z" fill="#2c9d92"/>
        <path d="M365.92676,73.68848l1.07227-1.47266c.80078,.62402,1.56934,.97559,2.40137,.97559,.89648,0,1.29688-.38379,1.29688-.94434,0-.67188-.92871-.97559-1.87305-1.34375-1.13672-.43262-2.40137-1.12109-2.40137-2.625,0-1.60059,1.29688-2.7373,3.3457-2.7373,1.29688,0,2.30469,.54395,3.04102,1.10449l-1.05664,1.4248c-.63965-.46484-1.26465-.76855-1.9209-.76855-.81543,0-1.2002,.35156-1.2002,.86426,0,.65625,.83203,.89648,1.77734,1.24805,1.18359,.44824,2.49609,1.04102,2.49609,2.70508,0,1.56934-1.23242,2.83301-3.56934,2.83301-1.2002,0-2.5127-.52734-3.40918-1.26367Z" fill="#2c9d92"/>
        <path d="M374.13477,70.24707c0-2.89746,2.04883-4.70605,4.17773-4.70605,2.46484,0,3.74609,1.80859,3.74609,4.27344,0,.44824-.04883,.88086-.1123,1.08887h-5.52246c.19238,1.47266,1.15234,2.24023,2.48145,2.24023,.73633,0,1.37598-.22363,2.0166-.62402l.7998,1.44043c-.87988,.6084-2.0166,.99219-3.12109,.99219-2.5127,0-4.46582-1.74414-4.46582-4.70508Zm5.90625-.91309c0-1.2002-.54395-1.96875-1.69629-1.96875-.94434,0-1.77637,.67285-1.95312,1.96875h3.64941Z" fill="#2c9d92"/>
        <path d="M383.99121,65.76465h1.9209l.17578,1.18457h.04785c.78418-.76855,1.69727-1.4082,2.91309-1.4082,1.9375,0,2.76953,1.34473,2.76953,3.60156v5.58594h-2.35352v-5.29785c0-1.39258-.38379-1.87305-1.26367-1.87305-.73633,0-1.20117,.35254-1.85742,1.00879v6.16211h-2.35254v-8.96387Z" fill="#2c9d92"/>
        <path d="M222.13086,90.9209c0-3.18555,.88086-5.81055,2.38477-8.27539l1.47266,.62402c-1.34375,2.33691-1.95215,5.04199-1.95215,7.65137,0,2.64062,.6084,5.33008,1.95215,7.66699l-1.47266,.62402c-1.50391-2.48145-2.38477-5.07422-2.38477-8.29102Z" fill="#2c9d92"/>
        <path d="M231.63477,95.77148c-1.25879,0-2.16016-.28809-2.7041-.86426s-.81641-1.39746-.81641-2.46387v-5.59961h1.42383v5.61523c0,.71484,.1709,1.24805,.5127,1.60059,.34082,.35156,.86914,.52734,1.58398,.52734,.72461,0,1.26074-.17578,1.60742-.52734,.34668-.35254,.52051-.88574,.52051-1.60059v-8.76758h1.42383v8.75195c0,1.06641-.27539,1.8877-.82422,2.46387-.5498,.57617-1.45898,.86426-2.72754,.86426Z" fill="#2c9d92"/>
        <path d="M240.25781,95.77148c-.62891,0-1.21289-.06152-1.75195-.18457-.53809-.12207-.99414-.26855-1.36816-.43945l.41602-1.15234c.22461,.08594,.48047,.17578,.76855,.27246,.28809,.0957,.59961,.17285,.93555,.23145s.68066,.08789,1.03223,.08789c.56543,0,1.03418-.10645,1.4082-.31934,.37305-.21387,.55957-.52246,.55957-.92871,0-.24512-.06641-.45508-.2002-.63184-.13281-.17578-.33789-.33789-.61523-.4873-.27832-.14941-.63477-.29395-1.07227-.43262-.67188-.21289-1.24023-.43945-1.7041-.67969s-.81641-.52832-1.05566-.86426c-.24023-.33594-.36035-.75391-.36035-1.25586,0-.44824,.12012-.8457,.36035-1.19238,.23926-.3457,.61328-.61816,1.12012-.81543,.50586-.19727,1.1543-.2959,1.94336-.2959,.5127,0,.99512,.04492,1.44824,.13574s.80762,.21582,1.06445,.37598v1.2002c-.18164-.08496-.4082-.1709-.68066-.25586-.27148-.08594-.56738-.15527-.8877-.20801-.32031-.05371-.65039-.08008-.99219-.08008-.71484,0-1.21875,.10938-1.51172,.32812-.29395,.21875-.44043,.4668-.44043,.74316,0,.23535,.06641,.43262,.2002,.59277,.13281,.16016,.3623,.31445,.68848,.46387,.3252,.14941,.76465,.32031,1.31934,.51172,.5127,.1709,.98145,.36816,1.4082,.5918,.42676,.22461,.76562,.50391,1.01562,.83984,.25098,.33691,.37598,.76562,.37598,1.28809,0,.44824-.10938,.86719-.32715,1.25684-.21875,.38867-.5791,.70312-1.08008,.94336-.50195,.24023-1.17383,.36035-2.0166,.36035Z" fill="#2c9d92"/>
        <path d="M246.75391,90.10742c-.4375,0-.79199-.06641-1.06445-.2002-.27148-.13281-.4668-.30371-.58398-.51172s-.17578-.42969-.17578-.66406c0-.16016,.02441-.3252,.07227-.49609s.10938-.31445,.18359-.43164l1.2002,.19141c-.02148,.05371-.0459,.12793-.07227,.22461-.02637,.0957-.04004,.19141-.04004,.28809,0,.13867,.03711,.25293,.1123,.34375,.07422,.09082,.21289,.13574,.41602,.13574h2.28809v1.12012h-2.33594Zm0,4.47949c-.4375,0-.79199-.06641-1.06445-.19922-.27148-.13379-.4668-.30469-.58398-.5127s-.17578-.42871-.17578-.66406c0-.15918,.02441-.3252,.07227-.49609,.04785-.16992,.10938-.31445,.18359-.43164l1.2002,.19238c-.02148,.05371-.0459,.12793-.07227,.22363s-.04004,.19238-.04004,.28809c0,.13867,.03711,.25391,.1123,.34375,.07422,.09082,.21289,.13672,.41602,.13672h2.28809v1.11914h-2.33594Z" fill="#2c9d92"/>
        <path d="M255.2334,95.77148c-.68262,0-1.27148-.13574-1.76758-.4082-.49609-.27148-.83496-.65332-1.01562-1.14355h-.06445l-.08008,1.3916h-1.16797v-8.76758h1.42383v5.07129c0,.53418,.09375,1,.28027,1.40039,.18652,.39941,.45898,.70898,.81641,.92773,.35645,.21875,.78613,.32812,1.28809,.32812,.62891,0,1.09766-.16504,1.40723-.49609,.30957-.33008,.46387-.81543,.46387-1.45605v-5.77539h1.4248v5.87109c0,.7041-.12012,1.28027-.36035,1.72852s-.58398,.78125-1.03223,1c-.44727,.21875-.98633,.32812-1.61621,.32812Z" fill="#2c9d92"/>
        <path d="M263.31445,95.61133v-6.22363c0-.52246-.12012-.90723-.36035-1.15234s-.64258-.36816-1.20801-.36816c-.38379,0-.74414,.05078-1.08008,.15234s-.6582,.24219-.96777,.42383v-1.28027c.21289-.10645,.51758-.21289,.91211-.31934s.86328-.16016,1.4082-.16016c.55371,0,1.03418,.08008,1.43945,.23926,.40527,.16016,.71973,.4248,.94434,.79199,.22363,.36816,.33594,.85645,.33594,1.46484v6.43164h-1.42383Z" fill="#2c9d92"/>
        <path d="M269.1377,95.77148c-.29785,0-.58398-.04785-.85547-.14453-.27246-.0957-.49121-.2666-.65625-.51172s-.24805-.58594-.24805-1.02344v-1.55273c0-.66113,.1416-1.14062,.42383-1.43945,.2832-.29883,.65332-.50684,1.1123-.62402l.0166-.04785-1.84082-.67285v-.52734c0-.46973,.1416-.89648,.4248-1.28027,.28223-.38379,.68164-.69043,1.19922-.91992s1.12305-.34375,1.81641-.34375c.58594,0,1.14355,.0957,1.67188,.28809,.52832,.19141,.95703,.50879,1.28809,.95117,.33008,.44336,.49609,1.03223,.49609,1.76855v3.05566c0,.64062,.14648,1.10449,.43945,1.39258,.29395,.28809,.68555,.43164,1.17676,.43164,.42578,0,.7998-.10938,1.12012-.32812,.31934-.21875,.57031-.52246,.75195-.91211,.18066-.38867,.27148-.84473,.27148-1.36816v-5.11914h1.42383v8.76758h-1.16797l-.08008-1.3916h-.08008c-.18066,.49023-.50391,.87207-.96777,1.14355-.46387,.27246-.9834,.4082-1.55957,.4082-.81055,0-1.47266-.22461-1.98438-.67188-.51172-.44824-.76758-1.19434-.76758-2.24023v-3.02441c0-.51172-.09668-.91211-.28809-1.19922-.19238-.28809-.44531-.48828-.75977-.60059-.31543-.1123-.64844-.16797-1-.16797-.56641,0-1.03223,.12305-1.40039,.36816s-.55762,.60254-.56836,1.07227l1.82422,.86328-.12793,.76855c-.39453,0-.7334,.12305-1.01562,.36816-.2832,.24512-.4248,.65039-.4248,1.21582v1.4082c0,.23438,.05371,.40527,.16016,.51172s.27734,.16016,.5127,.16016c.10645,0,.20996-.00781,.31152-.02441,.10156-.01562,.19434-.04004,.28027-.07129l.20801,1.02344c-.20312,.0957-.39746,.16016-.58398,.19238-.18652,.03125-.37109,.04785-.55273,.04785Z" fill="#2c9d92"/>
        <path d="M285.52246,90.52051c0-4.40234,2.19336-6.30664,4.59375-6.30664,1.44043,0,2.49707,.6084,3.20117,1.34473l-1.24805,1.4082c-.41602-.46387-1.13672-.84863-1.8252-.84863-1.36035,0-2.48047,1.00879-2.57715,3.98633,.65723-.81641,1.66504-1.29688,2.43359-1.29688,1.98438,0,3.40918,1.13672,3.40918,3.55371,0,2.36914-1.69629,3.84082-3.72949,3.84082-2.24121,0-4.25781-1.72852-4.25781-5.68164Zm2.20898,1.21582c.22461,1.95312,1.02441,2.68945,2.00098,2.68945,.89648,0,1.61621-.68848,1.61621-2.06445,0-1.29688-.67188-1.88867-1.69629-1.88867-.6084,0-1.32812,.33594-1.9209,1.26367Z" fill="#2c9d92"/>
        <path d="M294.86621,90.15234c0-3.90625,1.58496-5.93848,4.01758-5.93848,2.43359,0,4.00195,2.04883,4.00195,5.93848,0,3.92188-1.56836,6.0498-4.00195,6.0498-2.43262,0-4.01758-2.12793-4.01758-6.0498Zm5.79492,0c0-3.20117-.75293-4.09766-1.77734-4.09766s-1.79297,.89648-1.79297,4.09766c0,3.2168,.76855,4.20996,1.79297,4.20996s1.77734-.99316,1.77734-4.20996Z" fill="#2c9d92"/>
        <path d="M312.06641,95.77148c-.62988,0-1.1709-.10938-1.62402-.32812-.4541-.21875-.7998-.55176-1.04004-1s-.36035-1.0293-.36035-1.74414v-5.85547h1.42383v5.77539c0,.64062,.16309,1.12598,.48828,1.45605,.3252,.33105,.79688,.49609,1.41602,.49609,.74609,0,1.3252-.24023,1.73633-.71973,.41016-.48047,.61523-1.125,.61523-1.93652v-5.07129h1.4248v8.76758h-1.18457l-.06348-1.2959h-.08008c-.19238,.42676-.52539,.77637-1,1.04785-.47461,.27246-1.05859,.4082-1.75195,.4082Z" fill="#2c9d92"/>
        <path d="M321.33008,95.61133v-6.22363c0-.52246-.12012-.90723-.36035-1.15234s-.64258-.36816-1.20801-.36816c-.38379,0-.74414,.05078-1.08008,.15234s-.6582,.24219-.96777,.42383v-1.28027c.21289-.10645,.51758-.21289,.91211-.31934s.86328-.16016,1.4082-.16016c.55371,0,1.03418,.08008,1.43945,.23926,.40527,.16016,.71973,.4248,.94434,.79199,.22363,.36816,.33594,.85645,.33594,1.46484v6.43164h-1.42383Z" fill="#2c9d92"/>
        <path d="M325.39355,95.61133v-8.76758h.99219l.25586,1.3916h.06445c.18066-.48047,.51172-.8584,.99219-1.13574,.47949-.27734,1.06055-.41602,1.74316-.41602,.64062,0,1.18652,.10938,1.64062,.32812,.45312,.21875,.80273,.55176,1.04785,1,.24512,.44727,.36816,1.0293,.36816,1.74316v5.85645h-1.42383v-5.77637c0-.63965-.16016-1.125-.48047-1.45605-.32031-.33008-.79492-.49512-1.42383-.49512-.50195,0-.92773,.11719-1.28027,.35156-.35156,.23438-.61816,.55176-.7998,.95215-.18164,.39941-.27246,.85059-.27246,1.35156v5.07227h-1.42383Z" fill="#2c9d92"/>
        <path d="M325.57031,85.45117v-.62402l1.16797-.51172h5.63184v1.13574h-6.7998Zm5.47168-.62402v-1.80762h1.34375v1.80762h-1.34375Z" fill="#2c9d92"/>
        <path d="M334.62598,98.58789c1.34473-2.33691,1.95312-5.02637,1.95312-7.66699,0-2.60938-.6084-5.31445-1.95312-7.65137l1.45703-.62402c1.52051,2.46484,2.40039,5.08984,2.40039,8.27539,0,3.2168-.87988,5.80957-2.40039,8.29102l-1.45703-.62402Z" fill="#2c9d92"/>
      </g>
      <g>
        <path d="M209.93848,198.52148c-.93848,0-1.65527-.21582-2.15137-.64844-.49609-.43164-.74414-1.05273-.74414-1.86328,0-.88574,.32227-1.56836,.96777-2.04883,.64551-.47949,1.69336-.76172,3.14453-.84766l1.82324-.1123v1.18457l-1.63184,.11133c-1.08789,.0752-1.83691,.24609-2.24805,.5127-.41016,.2666-.61621,.65527-.61621,1.16797,0,.47949,.15234,.83203,.45605,1.05566,.30469,.22461,.72852,.33594,1.27246,.33594,.18066,0,.34668-.0127,.49609-.04004,.14941-.02637,.29297-.06055,.43164-.10352l.22363,1.07129c-.20215,.0752-.42383,.13086-.66309,.16797-.24023,.03809-.49414,.05664-.76074,.05664Zm2.75195-.16016v-5.83984c0-.69336-.15723-1.18652-.47168-1.48047-.31445-.29297-.83984-.43945-1.57617-.43945-.5332,0-1.04297,.07129-1.52734,.21582-.48633,.14355-.94727,.34375-1.38477,.59961v-1.32812c.30957-.15918,.72852-.30859,1.25586-.44727,.52832-.13867,1.12305-.20801,1.78418-.20801,.56543,0,1.04785,.06348,1.44824,.19141s.69629,.36328,.8877,.7041c.37402,.1709,.63281,.4375,.77637,.7998,.14355,.36328,.21582,.80078,.21582,1.3125v5.91992h-1.4082Zm.36816-7.53613l-.7998-.75195c.27734-.04199,.53809-.14941,.78418-.32031,.24512-.16992,.36816-.41602,.36816-.73535h1.3916c0,.33008-.07715,.62109-.23242,.87207-.1543,.25-.36523,.45312-.63184,.60742-.2666,.15527-.55957,.26465-.87988,.32812Z" fill="#2c9d92"/>
        <path d="M219.18652,198.36133v-6.22363c0-.52246-.12012-.90723-.36035-1.15234s-.64258-.36816-1.20801-.36816c-.38379,0-.74414,.05078-1.08008,.15234s-.6582,.24219-.96777,.42383v-1.28027c.21289-.10645,.51758-.21289,.91211-.31934s.86328-.16016,1.4082-.16016c.55371,0,1.03418,.08008,1.43945,.23926,.40527,.16016,.71973,.4248,.94434,.79199,.22363,.36816,.33594,.85645,.33594,1.46484v6.43164h-1.42383Z" fill="#2c9d92"/>
        <path d="M226.57812,198.50488c-.86426,0-1.55469-.11133-2.07227-.33594-.51758-.22363-.89062-.53809-1.11914-.94336-.22949-.40527-.34473-.88574-.34473-1.44043,0-.49023,.07227-.88281,.21582-1.17578,.14453-.29297,.32617-.50977,.54492-.64844,.21777-.1377,.44434-.22852,.67969-.27148v-.06445c-.21387-.06348-.4375-.16992-.67188-.31934-.23535-.14941-.42969-.35742-.58398-.62402-.15527-.2666-.23242-.60254-.23242-1.00879,0-.37305,.08496-.72461,.25586-1.05566,.1709-.33008,.44824-.60254,.83203-.81543,.38379-.21387,.89062-.32031,1.52051-.32031,.25586,0,.52246,.01855,.7998,.05566,.27734,.03809,.49023,.09863,.63965,.18457l-.25586,1.10352c-.11719-.04199-.26953-.08203-.45605-.12012-.18652-.03711-.38086-.05566-.58398-.05566-.44824,0-.77832,.10352-.99219,.31152-.21289,.20801-.31934,.4834-.31934,.82422,0,.37402,.09277,.65625,.2793,.84863,.18652,.19141,.42676,.32227,.7207,.3916,.29297,.06934,.59961,.10352,.91992,.10352h.30371v1.04004h-.30371c-.64062,0-1.1123,.11523-1.41602,.34473-.30469,.22949-.45605,.61035-.45605,1.14355,0,.30957,.06152,.5918,.18359,.84766,.12305,.25684,.33594,.45898,.64062,.6084,.30371,.14941,.72754,.22363,1.27148,.22363s.96777-.07422,1.27246-.22363c.30371-.14941,.51953-.36523,.64746-.64844,.12793-.28223,.19238-.62109,.19238-1.01562v-5.85547h1.42383v5.75977c0,1.12012-.28516,1.92578-.85645,2.41602-.57031,.49023-1.46387,.73535-2.67969,.73535Z" fill="#2c9d92"/>
        <path d="M232.75391,198.36133v-8.76758h.99219l.25586,1.3916h.06445c.18066-.48047,.51172-.8584,.99219-1.13574,.47949-.27734,1.06055-.41602,1.74316-.41602,.64062,0,1.18652,.10938,1.64062,.32812,.45312,.21875,.80273,.55176,1.04785,1,.24512,.44727,.36816,1.0293,.36816,1.74316v5.85645h-1.42383v-5.77637c0-.63965-.16016-1.125-.48047-1.45605-.32031-.33008-.79492-.49512-1.42383-.49512-.50195,0-.92773,.11719-1.28027,.35156-.35156,.23438-.61816,.55176-.7998,.95215-.18164,.39941-.27246,.85059-.27246,1.35156v5.07227h-1.42383Z" fill="#2c9d92"/>
        <path d="M244.93066,198.36133v-6.22363c0-.52246-.12012-.90723-.36035-1.15234s-.64258-.36816-1.20801-.36816c-.38379,0-.74414,.05078-1.08008,.15234s-.6582,.24219-.96777,.42383v-1.28027c.21289-.10645,.51758-.21289,.91211-.31934s.86328-.16016,1.4082-.16016c.55371,0,1.03418,.08008,1.43945,.23926,.40527,.16016,.71973,.4248,.94434,.79199,.22363,.36816,.33594,.85645,.33594,1.46484v6.43164h-1.42383Z" fill="#2c9d92"/>
        <path d="M248.94629,198.36133v-5.59961c0-1.07812,.28809-1.90137,.86426-2.47266,.57617-.57031,1.49316-.85547,2.75195-.85547,1.26953,0,2.18945,.28516,2.75977,.85547,.57031,.57129,.85645,1.39453,.85645,2.47266v5.59961h-1.4248v-5.59961c0-.71484-.18652-1.25098-.55957-1.6084s-.92285-.53613-1.64746-.53613c-.71484,0-1.25684,.17871-1.62402,.53613-.36816,.35742-.55273,.89355-.55273,1.6084v1.77539l.04785,.0166c.23535-.41602,.52246-.69043,.86426-.82422s.82129-.2002,1.44043-.2002h.52734v1.16797h-.52734c-.65137,0-1.14453,.09082-1.48047,.27246-.33594,.18066-.56543,.41797-.6875,.71191-.12305,.29297-.18457,.62109-.18457,.9834v1.69629h-1.42383Z" fill="#2c9d92"/>
        <path d="M261.25098,198.36133v-6.22363c0-.52246-.12012-.90723-.36035-1.15234s-.64258-.36816-1.20801-.36816c-.38379,0-.74414,.05078-1.08008,.15234s-.6582,.24219-.96777,.42383v-1.28027c.21289-.10645,.51758-.21289,.91211-.31934s.86328-.16016,1.4082-.16016c.55371,0,1.03418,.08008,1.43945,.23926,.40527,.16016,.71973,.4248,.94434,.79199,.22363,.36816,.33594,.85645,.33594,1.46484v6.43164h-1.42383Z" fill="#2c9d92"/>
        <path d="M268.38672,198.52148c-1.00293,0-1.77051-.24512-2.30371-.73633-.53418-.49023-.80078-1.2207-.80078-2.19141v-1.00879c0-.62891,.10742-1.11719,.32031-1.46387,.21387-.34668,.45312-.67383,.71973-.9834,.16016-.18164,.30469-.34961,.43262-.50391,.12793-.15527,.19727-.3125,.20801-.47266l-.04785-.03223c-.11816,.08594-.25391,.1582-.4082,.2168-.15527,.05859-.32812,.08789-.52051,.08789-.38379,0-.69824-.13086-.94336-.39258-.24609-.26074-.36816-.63184-.36816-1.11133v-.33594h1.24805c0,.31934,.04004,.55176,.12012,.69531,.08008,.14453,.20996,.21582,.3916,.21582,.11719,0,.24023-.02051,.36816-.06348s.24512-.10645,.35156-.19238l.30469-.65527h.78418v.71973c0,.30957-.01074,.58105-.03223,.81543-.02148,.23535-.08008,.46191-.17578,.68066-.09668,.21875-.25684,.47168-.48047,.75977-.16016,.20312-.30371,.38672-.43164,.55176-.12793,.16602-.22949,.34961-.30469,.55176-.07422,.20312-.11133,.46973-.11133,.80078v1.04004c0,.50098,.08008,.88477,.23926,1.15137,.16016,.2666,.36816,.44824,.62402,.54395,.25684,.09668,.52832,.14453,.81641,.14453,.55469,0,.98145-.125,1.28027-.37598,.29785-.25098,.44727-.6377,.44727-1.16016v-2.24023c0-.39453-.09277-.69629-.2793-.9043s-.4834-.31152-.88867-.31152h-.06348v-.91211h.08008c.4375,0,.74609-.10156,.92773-.30371,.18164-.20312,.29102-.4502,.32812-.74414,.03711-.29297,.05566-.5625,.05566-.80762h1.42383c0,.56543-.07422,1.04004-.22363,1.42383s-.45898,.66602-.92773,.84766v.06445c.40527,.11719,.67188,.33008,.7998,.63965s.19238,.69336,.19238,1.15234v2.17578c0,.82129-.27246,1.46387-.81641,1.92773s-1.32227,.69629-2.33594,.69629Z" fill="#2c9d92"/>
        <path d="M276.64355,198.36133v-6.22363c0-.52246-.12012-.90723-.36035-1.15234s-.64258-.36816-1.20801-.36816c-.38379,0-.74414,.05078-1.08008,.15234s-.6582,.24219-.96777,.42383v-1.28027c.21289-.10645,.51758-.21289,.91211-.31934s.86328-.16016,1.4082-.16016c.55371,0,1.03418,.08008,1.43945,.23926,.40527,.16016,.71973,.4248,.94434,.79199,.22363,.36816,.33594,.85645,.33594,1.46484v6.43164h-1.42383Z" fill="#2c9d92"/>
        <path d="M280.5791,198.36133v-3.04004c0-.67188,.14941-1.16016,.44824-1.46387s.67676-.51465,1.13574-.63184l.0166-.04785-1.76074-.67285v-.52734c0-.4375,.14453-.85059,.43262-1.24023s.70117-.7041,1.23926-.94434c.53906-.23926,1.18164-.35938,1.92871-.35938,.65039,0,1.25293,.10352,1.80762,.31152s1,.53418,1.33594,.97656,.50391,1.02148,.50391,1.73535v5.9043h-1.42383v-5.75977c0-.71484-.21582-1.22461-.64746-1.52832-.43262-.30371-.96289-.45605-1.59277-.45605-.65039,0-1.16797,.13574-1.55176,.4082-.38379,.27148-.57617,.61621-.57617,1.03223l1.72852,.86328-.12793,.76855c-.39551,0-.73926,.13086-1.03223,.3916-.29395,.26172-.44043,.6748-.44043,1.24023v3.04004h-1.42383Z" fill="#2c9d92"/>
        <path d="M280.73926,188.20117v-.62402l1.16797-.51172h5.63184v1.13574h-6.7998Z" fill="#2c9d92"/>
        <path d="M294.4834,193.6709c0-3.18555,.88086-5.81055,2.38477-8.27539l1.47266,.62402c-1.34375,2.33691-1.95215,5.04199-1.95215,7.65137,0,2.64062,.6084,5.33008,1.95215,7.66699l-1.47266,.62402c-1.50391-2.48145-2.38477-5.07422-2.38477-8.29102Z" fill="#2c9d92"/>
        <path d="M302.93066,198.52148c-.62891,0-1.21289-.06152-1.75195-.18457-.53809-.12207-.99414-.26855-1.36816-.43945l.41602-1.15234c.22461,.08594,.48047,.17578,.76855,.27246,.28809,.0957,.59961,.17285,.93555,.23145s.68066,.08789,1.03223,.08789c.56543,0,1.03418-.10645,1.4082-.31934,.37305-.21387,.55957-.52246,.55957-.92871,0-.24512-.06641-.45508-.2002-.63184-.13281-.17578-.33789-.33789-.61523-.4873-.27832-.14941-.63477-.29395-1.07227-.43262-.67188-.21289-1.24023-.43945-1.7041-.67969s-.81641-.52832-1.05566-.86426c-.24023-.33594-.36035-.75391-.36035-1.25586,0-.44824,.12012-.8457,.36035-1.19238,.23926-.3457,.61328-.61816,1.12012-.81543,.50586-.19727,1.1543-.2959,1.94336-.2959,.5127,0,.99512,.04492,1.44824,.13574s.80762,.21582,1.06445,.37598v1.2002c-.18164-.08496-.4082-.1709-.68066-.25586-.27148-.08594-.56738-.15527-.8877-.20801-.32031-.05371-.65039-.08008-.99219-.08008-.71484,0-1.21875,.10938-1.51172,.32812-.29395,.21875-.44043,.4668-.44043,.74316,0,.23535,.06641,.43262,.2002,.59277,.13281,.16016,.3623,.31445,.68848,.46387,.3252,.14941,.76465,.32031,1.31934,.51172,.5127,.1709,.98145,.36816,1.4082,.5918,.42676,.22461,.76562,.50391,1.01562,.83984,.25098,.33691,.37598,.76562,.37598,1.28809,0,.44824-.10938,.86719-.32715,1.25684-.21875,.38867-.5791,.70312-1.08008,.94336-.50195,.24023-1.17383,.36035-2.0166,.36035Z" fill="#2c9d92"/>
        <path d="M310.08203,198.52148c-.29785,0-.58398-.04785-.85547-.14453-.27246-.0957-.49121-.2666-.65625-.51172s-.24805-.58594-.24805-1.02344v-1.55273c0-.66113,.1416-1.14062,.42383-1.43945,.2832-.29883,.65332-.50684,1.1123-.62402l.0166-.04785-1.84082-.67285v-.52734c0-.4375,.14453-.85059,.43262-1.24023s.70117-.7041,1.23926-.94434c.53906-.23926,1.18652-.35938,1.94434-.35938,.66113,0,1.26953,.10352,1.82422,.31152s1,.53418,1.33594,.97656,.50391,1.02148,.50391,1.73535v5.9043h-1.42383v-5.75977c0-.71484-.21875-1.22461-.65625-1.52832s-.9707-.45605-1.59961-.45605c-.66211,0-1.18457,.13574-1.56836,.4082-.38379,.27148-.57617,.61621-.57617,1.03223l1.82422,.86328-.12793,.76855c-.39453,.01074-.7334,.10938-1.01562,.2959-.2832,.18652-.4248,.5625-.4248,1.12793v1.56836c0,.23438,.05371,.40527,.16016,.51172s.27734,.16016,.5127,.16016c.10645,0,.20996-.00781,.31152-.02441,.10156-.01562,.19434-.04004,.28027-.07129l.20801,1.02344c-.20312,.0957-.39746,.16016-.58398,.19238-.18652,.03125-.37109,.04785-.55273,.04785Z" fill="#2c9d92"/>
        <path d="M320.89844,198.52148c-.85352,0-1.52246-.2002-2.00781-.60059-.48535-.39941-.82715-.94043-1.02441-1.62402-.19727-.68164-.2959-1.43359-.2959-2.25586,0-.90625,.09375-1.65527,.28027-2.24805,.18652-.5918,.45312-1.06055,.7998-1.40723s.7627-.59277,1.24805-.73633c.48535-.14453,1.02148-.21582,1.6084-.21582,.85254,0,1.54883,.125,2.08789,.37598,.53809,.25098,.93555,.60547,1.19141,1.06348,.25586,.45898,.38379,1.00781,.38379,1.64844v5.83984h-1.40723v-5.71191c0-.66113-.16602-1.16504-.49609-1.51172-.33105-.34668-.90137-.52051-1.71191-.52051-.49121,0-.93066,.09082-1.32031,.27246s-.69336,.51758-.91211,1.00781-.32812,1.21094-.32812,2.16016c0,.61816,.06152,1.17578,.18457,1.67188,.12207,.49609,.33789,.8877,.64746,1.17578s.74121,.43164,1.2959,.43164c.16016,0,.30957-.00977,.44824-.03125s.27246-.05371,.40039-.09668l.14355,1.10449c-.1709,.07422-.36523,.12793-.58398,.16016-.21875,.03125-.42969,.04785-.63184,.04785Z" fill="#2c9d92"/>
        <path d="M323.61914,188.20117v-3.37598h1.40723v3.37598h-1.40723Z" fill="#2c9d92"/>
        <path d="M329.52246,198.52148c-.41602,0-.81836-.04297-1.20801-.12793-.38867-.08594-.80273-.24512-1.23926-.48047l.44727-1.08789c.23438,.13867,.50195,.25879,.80078,.36035,.29785,.10156,.64453,.15137,1.04004,.15137,.78906,0,1.4043-.29004,1.84766-.87207,.44238-.58105,.66406-1.4209,.66406-2.51953,0-1.07715-.22656-1.90137-.68066-2.47168-.45312-.57129-1.14941-.85645-2.08789-.85645-.34082,0-.6875,.03809-1.04004,.1123-.35156,.07422-.66113,.18652-.92773,.33594v-1.2002c.30957-.16016,.64844-.27148,1.0166-.33594,.36719-.06445,.73828-.0957,1.11133-.0957,.95996,0,1.73828,.18945,2.33594,.56738,.59766,.37891,1.03516,.9043,1.3125,1.57617s.41602,1.46191,.41602,2.36816c0,1.4082-.31738,2.52246-.95215,3.34375s-1.58691,1.23242-2.85645,1.23242Z" fill="#2c9d92"/>
        <path d="M338.65918,198.52148c-.62988,0-1.1709-.10938-1.62402-.32812-.4541-.21875-.7998-.55176-1.04004-1s-.36035-1.0293-.36035-1.74414v-5.85547h1.42383v5.77539c0,.64062,.16309,1.12598,.48828,1.45605,.3252,.33105,.79688,.49609,1.41602,.49609,.74609,0,1.3252-.24023,1.73633-.71973,.41016-.48047,.61523-1.125,.61523-1.93652v-5.07129h1.4248v8.76758h-1.18457l-.06348-1.2959h-.08008c-.19238,.42676-.52539,.77637-1,1.04785-.47461,.27246-1.05859,.4082-1.75195,.4082Z" fill="#2c9d92"/>
        <path d="M344.97852,201.33789c1.34473-2.33691,1.95312-5.02637,1.95312-7.66699,0-2.60938-.6084-5.31445-1.95312-7.65137l1.45703-.62402c1.52051,2.46484,2.40039,5.08984,2.40039,8.27539,0,3.2168-.87988,5.80957-2.40039,8.29102l-1.45703-.62402Z" fill="#2c9d92"/>
        <path d="M222.13086,214.9209c0-3.18555,.88086-5.81055,2.38477-8.27539l1.47266,.62402c-1.34375,2.33691-1.95215,5.04199-1.95215,7.65137,0,2.64062,.6084,5.33008,1.95215,7.66699l-1.47266,.62402c-1.50391-2.48145-2.38477-5.07422-2.38477-8.29102Z" fill="#2c9d92"/>
        <path d="M231.63477,219.77148c-1.25879,0-2.16016-.28809-2.7041-.86426s-.81641-1.39746-.81641-2.46387v-5.59961h1.42383v5.61523c0,.71484,.1709,1.24805,.5127,1.60059,.34082,.35156,.86914,.52734,1.58398,.52734,.72461,0,1.26074-.17578,1.60742-.52734,.34668-.35254,.52051-.88574,.52051-1.60059v-8.76758h1.42383v8.75195c0,1.06641-.27539,1.8877-.82422,2.46387-.5498,.57617-1.45898,.86426-2.72754,.86426Z" fill="#2c9d92"/>
        <path d="M240.25781,219.77148c-.62891,0-1.21289-.06152-1.75195-.18457-.53809-.12207-.99414-.26855-1.36816-.43945l.41602-1.15234c.22461,.08594,.48047,.17578,.76855,.27246,.28809,.0957,.59961,.17285,.93555,.23145s.68066,.08789,1.03223,.08789c.56543,0,1.03418-.10645,1.4082-.31934,.37305-.21387,.55957-.52246,.55957-.92871,0-.24512-.06641-.45508-.2002-.63184-.13281-.17578-.33789-.33789-.61523-.4873-.27832-.14941-.63477-.29395-1.07227-.43262-.67188-.21289-1.24023-.43945-1.7041-.67969s-.81641-.52832-1.05566-.86426c-.24023-.33594-.36035-.75391-.36035-1.25586,0-.44824,.12012-.8457,.36035-1.19238,.23926-.3457,.61328-.61816,1.12012-.81543,.50586-.19727,1.1543-.2959,1.94336-.2959,.5127,0,.99512,.04492,1.44824,.13574s.80762,.21582,1.06445,.37598v1.2002c-.18164-.08496-.4082-.1709-.68066-.25586-.27148-.08594-.56738-.15527-.8877-.20801-.32031-.05371-.65039-.08008-.99219-.08008-.71484,0-1.21875,.10938-1.51172,.32812-.29395,.21875-.44043,.4668-.44043,.74316,0,.23535,.06641,.43262,.2002,.59277,.13281,.16016,.3623,.31445,.68848,.46387,.3252,.14941,.76465,.32031,1.31934,.51172,.5127,.1709,.98145,.36816,1.4082,.5918,.42676,.22461,.76562,.50391,1.01562,.83984,.25098,.33691,.37598,.76562,.37598,1.28809,0,.44824-.10938,.86719-.32715,1.25684-.21875,.38867-.5791,.70312-1.08008,.94336-.50195,.24023-1.17383,.36035-2.0166,.36035Z" fill="#2c9d92"/>
        <path d="M246.75391,214.10742c-.4375,0-.79199-.06641-1.06445-.2002-.27148-.13281-.4668-.30371-.58398-.51172s-.17578-.42969-.17578-.66406c0-.16016,.02441-.3252,.07227-.49609s.10938-.31445,.18359-.43164l1.2002,.19141c-.02148,.05371-.0459,.12793-.07227,.22461-.02637,.0957-.04004,.19141-.04004,.28809,0,.13867,.03711,.25293,.1123,.34375,.07422,.09082,.21289,.13574,.41602,.13574h2.28809v1.12012h-2.33594Zm0,4.47949c-.4375,0-.79199-.06641-1.06445-.19922-.27148-.13379-.4668-.30469-.58398-.5127s-.17578-.42871-.17578-.66406c0-.15918,.02441-.3252,.07227-.49609,.04785-.16992,.10938-.31445,.18359-.43164l1.2002,.19238c-.02148,.05371-.0459,.12793-.07227,.22363s-.04004,.19238-.04004,.28809c0,.13867,.03711,.25391,.1123,.34375,.07422,.09082,.21289,.13672,.41602,.13672h2.28809v1.11914h-2.33594Z" fill="#2c9d92"/>
        <path d="M255.2334,219.77148c-.68262,0-1.27148-.13574-1.76758-.4082-.49609-.27148-.83496-.65332-1.01562-1.14355h-.06445l-.08008,1.3916h-1.16797v-8.76758h1.42383v5.07129c0,.53418,.09375,1,.28027,1.40039,.18652,.39941,.45898,.70898,.81641,.92773,.35645,.21875,.78613,.32812,1.28809,.32812,.62891,0,1.09766-.16504,1.40723-.49609,.30957-.33008,.46387-.81543,.46387-1.45605v-5.77539h1.4248v5.87109c0,.7041-.12012,1.28027-.36035,1.72852s-.58398,.78125-1.03223,1c-.44727,.21875-.98633,.32812-1.61621,.32812Z" fill="#2c9d92"/>
        <path d="M263.31445,219.61133v-6.22363c0-.52246-.12012-.90723-.36035-1.15234s-.64258-.36816-1.20801-.36816c-.38379,0-.74414,.05078-1.08008,.15234s-.6582,.24219-.96777,.42383v-1.28027c.21289-.10645,.51758-.21289,.91211-.31934s.86328-.16016,1.4082-.16016c.55371,0,1.03418,.08008,1.43945,.23926,.40527,.16016,.71973,.4248,.94434,.79199,.22363,.36816,.33594,.85645,.33594,1.46484v6.43164h-1.42383Z" fill="#2c9d92"/>
        <path d="M269.1377,219.77148c-.29785,0-.58398-.04785-.85547-.14453-.27246-.0957-.49121-.2666-.65625-.51172s-.24805-.58594-.24805-1.02344v-1.55273c0-.66113,.1416-1.14062,.42383-1.43945,.2832-.29883,.65332-.50684,1.1123-.62402l.0166-.04785-1.84082-.67285v-.52734c0-.46973,.1416-.89648,.4248-1.28027,.28223-.38379,.68164-.69043,1.19922-.91992s1.12305-.34375,1.81641-.34375c.58594,0,1.14355,.0957,1.67188,.28809,.52832,.19141,.95703,.50879,1.28809,.95117,.33008,.44336,.49609,1.03223,.49609,1.76855v3.05566c0,.64062,.14648,1.10449,.43945,1.39258,.29395,.28809,.68555,.43164,1.17676,.43164,.42578,0,.7998-.10938,1.12012-.32812,.31934-.21875,.57031-.52246,.75195-.91211,.18066-.38867,.27148-.84473,.27148-1.36816v-5.11914h1.42383v8.76758h-1.16797l-.08008-1.3916h-.08008c-.18066,.49023-.50391,.87207-.96777,1.14355-.46387,.27246-.9834,.4082-1.55957,.4082-.81055,0-1.47266-.22461-1.98438-.67188-.51172-.44824-.76758-1.19434-.76758-2.24023v-3.02441c0-.51172-.09668-.91211-.28809-1.19922-.19238-.28809-.44531-.48828-.75977-.60059-.31543-.1123-.64844-.16797-1-.16797-.56641,0-1.03223,.12305-1.40039,.36816s-.55762,.60254-.56836,1.07227l1.82422,.86328-.12793,.76855c-.39453,0-.7334,.12305-1.01562,.36816-.2832,.24512-.4248,.65039-.4248,1.21582v1.4082c0,.23438,.05371,.40527,.16016,.51172s.27734,.16016,.5127,.16016c.10645,0,.20996-.00781,.31152-.02441,.10156-.01562,.19434-.04004,.28027-.07129l.20801,1.02344c-.20312,.0957-.39746,.16016-.58398,.19238-.18652,.03125-.37109,.04785-.55273,.04785Z" fill="#2c9d92"/>
        <path d="M285.57031,218.8584l1.24902-1.4248c.41602,.48047,1.13672,.84863,1.82422,.84863,1.36133,0,2.48145-.99316,2.57715-3.96973-.65625,.81641-1.66406,1.2959-2.43262,1.2959-1.98535,0-3.40918-1.15234-3.40918-3.56934,0-2.35254,1.69629-3.8252,3.72949-3.8252,2.24023,0,4.25781,1.71289,4.25781,5.68262,0,4.40137-2.19336,6.30566-4.57812,6.30566-1.45703,0-2.5293-.62402-3.21777-1.34375Zm3.66602-4.93066c.62402,0,1.37598-.36816,1.9209-1.26465-.24023-1.93652-1.04102-2.67285-2.01758-2.67285-.87988,0-1.60059,.67285-1.60059,2.04883,0,1.29688,.65625,1.88867,1.69727,1.88867Z" fill="#2c9d92"/>
        <path d="M294.57812,218.58594l1.08887-1.50488c.67188,.65625,1.50391,1.20117,2.6084,1.20117,1.23242,0,2.09766-.7207,2.09766-2.01758,0-1.28027-.80078-2-2.00098-2-.7041,0-1.08887,.17578-1.77734,.62402l-1.07227-.68848,.32031-5.7627h6.33887v1.96875h-4.30566l-.22461,2.51367c.48047-.20801,.88086-.32031,1.4248-.32031,1.98438,0,3.64941,1.12012,3.64941,3.58496,0,2.5459-1.95312,4.01758-4.14551,4.01758-1.87305,0-3.12109-.73535-4.00195-1.61621Z" fill="#2c9d92"/>
        <path d="M312.06641,219.77148c-.62988,0-1.1709-.10938-1.62402-.32812-.4541-.21875-.7998-.55176-1.04004-1s-.36035-1.0293-.36035-1.74414v-5.85547h1.42383v5.77539c0,.64062,.16309,1.12598,.48828,1.45605,.3252,.33105,.79688,.49609,1.41602,.49609,.74609,0,1.3252-.24023,1.73633-.71973,.41016-.48047,.61523-1.125,.61523-1.93652v-5.07129h1.4248v8.76758h-1.18457l-.06348-1.2959h-.08008c-.19238,.42676-.52539,.77637-1,1.04785-.47461,.27246-1.05859,.4082-1.75195,.4082Z" fill="#2c9d92"/>
        <path d="M321.33008,219.61133v-6.22363c0-.52246-.12012-.90723-.36035-1.15234s-.64258-.36816-1.20801-.36816c-.38379,0-.74414,.05078-1.08008,.15234s-.6582,.24219-.96777,.42383v-1.28027c.21289-.10645,.51758-.21289,.91211-.31934s.86328-.16016,1.4082-.16016c.55371,0,1.03418,.08008,1.43945,.23926,.40527,.16016,.71973,.4248,.94434,.79199,.22363,.36816,.33594,.85645,.33594,1.46484v6.43164h-1.42383Z" fill="#2c9d92"/>
        <path d="M325.39355,219.61133v-8.76758h.99219l.25586,1.3916h.06445c.18066-.48047,.51172-.8584,.99219-1.13574,.47949-.27734,1.06055-.41602,1.74316-.41602,.64062,0,1.18652,.10938,1.64062,.32812,.45312,.21875,.80273,.55176,1.04785,1,.24512,.44727,.36816,1.0293,.36816,1.74316v5.85645h-1.42383v-5.77637c0-.63965-.16016-1.125-.48047-1.45605-.32031-.33008-.79492-.49512-1.42383-.49512-.50195,0-.92773,.11719-1.28027,.35156-.35156,.23438-.61816,.55176-.7998,.95215-.18164,.39941-.27246,.85059-.27246,1.35156v5.07227h-1.42383Z" fill="#2c9d92"/>
        <path d="M325.57031,209.45117v-.62402l1.16797-.51172h5.63184v1.13574h-6.7998Zm5.47168-.62402v-1.80762h1.34375v1.80762h-1.34375Z" fill="#2c9d92"/>
        <path d="M334.62598,222.58789c1.34473-2.33691,1.95312-5.02637,1.95312-7.66699,0-2.60938-.6084-5.31445-1.95312-7.65137l1.45703-.62402c1.52051,2.46484,2.40039,5.08984,2.40039,8.27539,0,3.2168-.87988,5.80957-2.40039,8.29102l-1.45703-.62402Z" fill="#2c9d92"/>
      </g>
    </g>
  </g>
</svg>