<?xml version="1.0" encoding="UTF-8"?>
<svg id="b" data-name="レイヤー 2" xmlns="http://www.w3.org/2000/svg" width="544" height="223.23633" viewBox="0 0 544 223.23633">
  <g id="c" data-name="root-en">
    <g>
      <rect x="96" y="41.5" width="438" height="10" fill="#ccc"/>
      <g>
        <rect x="96" y="42.14648" width="5.80469" height="8.70703" fill="#fff"/>
        <path d="M516.67139,50.85352h-11.52393v-8.70703h11.52393v8.70703Zm-23.04834,0h-11.52393v-8.70703h11.52393v8.70703Zm-23.04785,0h-11.52441v-8.70703h11.52441v8.70703Zm-23.04834,0h-11.52393v-8.70703h11.52393v8.70703Zm-23.04834,0h-11.52393v-8.70703h11.52393v8.70703Zm-23.04785,0h-11.52393v-8.70703h11.52393v8.70703Zm-23.04834,0h-11.52393v-8.70703h11.52393v8.70703Zm-23.04785,0h-11.52441v-8.70703h11.52441v8.70703Zm-23.04834,0h-11.52393v-8.70703h11.52393v8.70703Zm-23.04834,0h-11.52393v-8.70703h11.52393v8.70703Zm-23.04785,0h-11.52441v-8.70703h11.52441v8.70703Zm-23.04834,0h-11.52393v-8.70703h11.52393v8.70703Zm-23.04834,0h-11.52393v-8.70703h11.52393v8.70703Zm-23.04785,0h-11.52393v-8.70703h11.52393v8.70703Zm-23.04834,0h-11.52393v-8.70703h11.52393v8.70703Zm-23.04785,0h-11.52441v-8.70703h11.52441v8.70703Zm-23.04834,0h-11.52393v-8.70703h11.52393v8.70703Zm-23.04834,0h-11.52393v-8.70703h11.52393v8.70703Z" fill="#fff"/>
        <rect x="528.19531" y="42.14648" width="5.80469" height="8.70703" fill="#fff"/>
      </g>
      <rect width="158" height="93" fill="#fff"/>
      <rect x="96" y="166.1665" width="438" height="10" fill="#ccc"/>
      <g>
        <rect x="96" y="166.81299" width="5.80469" height="8.70703" fill="#fff"/>
        <path d="M516.67139,175.52002h-11.52393v-8.70703h11.52393v8.70703Zm-23.04834,0h-11.52393v-8.70703h11.52393v8.70703Zm-23.04785,0h-11.52441v-8.70703h11.52441v8.70703Zm-23.04834,0h-11.52393v-8.70703h11.52393v8.70703Zm-23.04834,0h-11.52393v-8.70703h11.52393v8.70703Zm-23.04785,0h-11.52393v-8.70703h11.52393v8.70703Zm-23.04834,0h-11.52393v-8.70703h11.52393v8.70703Zm-23.04785,0h-11.52441v-8.70703h11.52441v8.70703Zm-23.04834,0h-11.52393v-8.70703h11.52393v8.70703Zm-23.04834,0h-11.52393v-8.70703h11.52393v8.70703Zm-23.04785,0h-11.52441v-8.70703h11.52441v8.70703Zm-23.04834,0h-11.52393v-8.70703h11.52393v8.70703Zm-23.04834,0h-11.52393v-8.70703h11.52393v8.70703Zm-23.04785,0h-11.52393v-8.70703h11.52393v8.70703Zm-23.04834,0h-11.52393v-8.70703h11.52393v8.70703Zm-23.04785,0h-11.52441v-8.70703h11.52441v8.70703Zm-23.04834,0h-11.52393v-8.70703h11.52393v8.70703Zm-23.04834,0h-11.52393v-8.70703h11.52393v8.70703Z" fill="#fff"/>
        <rect x="528.19531" y="166.81299" width="5.80469" height="8.70703" fill="#fff"/>
      </g>
      <rect y="124.66667" width="158" height="93" fill="#fff"/>
      <rect x="402" width="142" height="219" fill="#fff"/>
      <g>
        <path d="M45.51855,42.32812h-5.00488v-2.9834h13.62012v2.9834h-5.05371v14.84717h-3.56152v-14.84717Z" fill="#2c9d92"/>
        <path d="M55.88965,50.4375c0-4.47559,3.10449-7.07422,6.47363-7.07422,3.36816,0,6.47266,2.59863,6.47266,7.07422,0,4.47607-3.10449,7.07471-6.47266,7.07471-3.36914,0-6.47363-2.59863-6.47363-7.07471Zm9.33691,0c0-2.52637-1.03516-4.18701-2.86328-4.18701-1.8291,0-2.86426,1.66064-2.86426,4.18701,0,2.55078,1.03516,4.18701,2.86426,4.18701,1.82812,0,2.86328-1.63623,2.86328-4.18701Z" fill="#2c9d92"/>
        <path d="M71.79492,37.97314h3.48828v11.52588h.09668l4.5957-5.79883h3.875l-4.62012,5.55811,5.05273,7.91699h-3.82617l-3.27246-5.58252-1.90137,2.16553v3.41699h-3.48828v-19.20215Z" fill="#2c9d92"/>
        <path d="M85.67871,62.32471l.64941-2.71924c.24023,.07227,.62598,.16846,.93848,.16846,1.37109,0,2.1416-.86621,2.52637-2.04541l.24121-.79395-5.24609-13.23438h3.56152l2.1416,6.25635c.40918,1.20312,.74609,2.50244,1.13086,3.80176h.12012c.3125-1.25146,.64941-2.55078,.96289-3.80176l1.85254-6.25635h3.39258l-4.78809,13.88428c-1.17871,3.17627-2.62305,5.00488-5.63086,5.00488-.79395,0-1.32324-.09619-1.85254-.26465Z" fill="#2c9d92"/>
        <path d="M99.32129,50.4375c0-4.47559,3.10449-7.07422,6.47363-7.07422,3.36816,0,6.47266,2.59863,6.47266,7.07422,0,4.47607-3.10449,7.07471-6.47266,7.07471-3.36914,0-6.47363-2.59863-6.47363-7.07471Zm9.33691,0c0-2.52637-1.03516-4.18701-2.86328-4.18701-1.8291,0-2.86426,1.66064-2.86426,4.18701,0,2.55078,1.03516,4.18701,2.86426,4.18701,1.82812,0,2.86328-1.63623,2.86328-4.18701Z" fill="#2c9d92"/>
      </g>
      <g>
        <path d="M424.26465,102.32812h-5.00488v-2.9834h13.62012v2.9834h-5.05371v14.84717h-3.56152v-14.84717Z" fill="#2c9d92"/>
        <path d="M434.80469,113.51758c0-2.8877,2.33398-4.40332,7.77246-4.98096-.07227-1.32324-.65039-2.33398-2.31055-2.33398-1.25098,0-2.4541,.55322-3.70605,1.27539l-1.27539-2.33447c1.58887-.98633,3.51367-1.78027,5.63086-1.78027,3.41699,0,5.17383,2.04492,5.17383,5.94336v7.86865h-2.8877l-.24023-1.44385h-.09668c-1.17871,1.01074-2.52637,1.78076-4.06641,1.78076-2.40625,0-3.99414-1.7085-3.99414-3.99463Zm7.77246-.09619v-2.71924c-3.29688,.40918-4.4043,1.32373-4.4043,2.52686,0,1.05859,.74609,1.51611,1.78125,1.51611,1.01074,0,1.75684-.48145,2.62305-1.32373Z" fill="#2c9d92"/>
        <path d="M449.69922,97.97314h3.48828v11.52588h.09668l4.5957-5.79883h3.875l-4.62012,5.55811,5.05273,7.91699h-3.82617l-3.27246-5.58252-1.90137,2.16553v3.41699h-3.48828v-19.20215Z" fill="#2c9d92"/>
        <path d="M463.58301,113.51758c0-2.8877,2.33398-4.40332,7.77246-4.98096-.07227-1.32324-.65039-2.33398-2.31055-2.33398-1.25098,0-2.4541,.55322-3.70605,1.27539l-1.27539-2.33447c1.58887-.98633,3.51367-1.78027,5.63086-1.78027,3.41699,0,5.17383,2.04492,5.17383,5.94336v7.86865h-2.8877l-.24023-1.44385h-.09668c-1.17871,1.01074-2.52637,1.78076-4.06641,1.78076-2.40625,0-3.99414-1.7085-3.99414-3.99463Zm7.77246-.09619v-2.71924c-3.29688,.40918-4.4043,1.32373-4.4043,2.52686,0,1.05859,.74609,1.51611,1.78125,1.51611,1.01074,0,1.75684-.48145,2.62305-1.32373Z" fill="#2c9d92"/>
        <path d="M477.20215,115.61133l1.6123-2.21387c1.20312,.93848,2.35742,1.46777,3.60938,1.46777,1.34766,0,1.94922-.57764,1.94922-1.41992,0-1.01025-1.39648-1.46777-2.81543-2.021-1.70898-.6499-3.60938-1.68457-3.60938-3.94629,0-2.40625,1.94824-4.11475,5.02832-4.11475,1.94922,0,3.46582,.81787,4.57227,1.66016l-1.58789,2.1416c-.96289-.69775-1.90137-1.15527-2.8877-1.15527-1.22754,0-1.80469,.52979-1.80469,1.2998,0,.98633,1.25098,1.34717,2.6709,1.87695,1.78027,.67383,3.75391,1.56396,3.75391,4.06641,0,2.3584-1.85254,4.25928-5.36621,4.25928-1.80469,0-3.77734-.79395-5.125-1.90088Z" fill="#2c9d92"/>
        <path d="M489.71484,113.51758c0-2.8877,2.33398-4.40332,7.77246-4.98096-.07227-1.32324-.65039-2.33398-2.31055-2.33398-1.25098,0-2.4541,.55322-3.70605,1.27539l-1.27539-2.33447c1.58887-.98633,3.51367-1.78027,5.63086-1.78027,3.41699,0,5.17383,2.04492,5.17383,5.94336v7.86865h-2.8877l-.24023-1.44385h-.09668c-1.17871,1.01074-2.52637,1.78076-4.06641,1.78076-2.40625,0-3.99414-1.7085-3.99414-3.99463Zm7.77246-.09619v-2.71924c-3.29688,.40918-4.4043,1.32373-4.4043,2.52686,0,1.05859,.74609,1.51611,1.78125,1.51611,1.01074,0,1.75684-.48145,2.62305-1.32373Z" fill="#2c9d92"/>
        <path d="M504.60938,97.97314h3.48828v11.52588h.09668l4.5957-5.79883h3.875l-4.62012,5.55811,5.05273,7.91699h-3.82617l-3.27246-5.58252-1.90137,2.16553v3.41699h-3.48828v-19.20215Z" fill="#2c9d92"/>
        <path d="M518.87793,99.58496c0-1.15479,.8418-1.9248,2.06934-1.9248,1.20312,0,2.04492,.77002,2.04492,1.9248,0,1.1792-.8418,1.94922-2.04492,1.94922-1.22754,0-2.06934-.77002-2.06934-1.94922Zm.28906,4.11523h3.53711v13.4751h-3.53711v-13.4751Z" fill="#2c9d92"/>
      </g>
      <g>
        <path d="M47.41992,172.16211v-9.81738h3.56152v10.13037c0,3.70557,1.29883,4.95703,3.36816,4.95703,2.11816,0,3.46484-1.25146,3.46484-4.95703v-10.13037h3.41699v9.81738c0,5.91992-2.52637,8.3501-6.88184,8.3501-4.33105,0-6.92969-2.43018-6.92969-8.3501Z" fill="#2c9d92"/>
        <path d="M64.38281,173.4375c0-4.35547,3.08008-7.07422,6.28027-7.07422,3.70605,0,5.63086,2.71875,5.63086,6.4248,0,.67383-.07227,1.32324-.16797,1.63623h-8.30176c.28809,2.21387,1.73242,3.36865,3.72949,3.36865,1.10742,0,2.06934-.33691,3.03223-.93848l1.20312,2.16602c-1.32324,.91406-3.03223,1.4917-4.69238,1.4917-3.77832,0-6.71387-2.62305-6.71387-7.07471Zm8.87988-1.37158c0-1.80469-.81836-2.95947-2.55078-2.95947-1.41992,0-2.6709,1.01025-2.93555,2.95947h5.48633Z" fill="#2c9d92"/>
        <path d="M79.20605,166.7002h2.88672l.26562,1.78027h.07129c1.17969-1.15479,2.55078-2.11719,4.37988-2.11719,2.91211,0,4.16309,2.021,4.16309,5.41406v8.39795h-3.53711v-7.96484c0-2.09375-.57812-2.81543-1.90137-2.81543-1.10645,0-1.80469,.5293-2.79102,1.51611v9.26416h-3.53711v-13.4751Z" fill="#2c9d92"/>
        <path d="M93.78711,173.4375c0-4.47559,3.10449-7.07422,6.47363-7.07422,3.36816,0,6.47266,2.59863,6.47266,7.07422,0,4.47607-3.10449,7.07471-6.47266,7.07471-3.36914,0-6.47363-2.59863-6.47363-7.07471Zm9.33691,0c0-2.52637-1.03516-4.18701-2.86328-4.18701-1.8291,0-2.86426,1.66064-2.86426,4.18701,0,2.55078,1.03516,4.18701,2.86426,4.18701,1.82812,0,2.86328-1.63623,2.86328-4.18701Z" fill="#2c9d92"/>
      </g>
      <g>
        <path d="M164.36328,72.68848l1.61621-1.20117c.46484,.86426,1.08887,1.23242,1.76074,1.23242,1.04102,0,1.58496-.55957,1.58496-2.19238v-7.84277h2.36914v8.03516c0,2.22461-1.12012,4.04883-3.66602,4.04883-1.72852,0-2.88086-.7041-3.66504-2.08008Z" fill="#2c9d92"/>
        <path d="M173.78711,70.06348c0-2.97754,2.06543-4.70605,4.30566-4.70605,2.24121,0,4.30566,1.72852,4.30566,4.70605,0,2.97656-2.06445,4.70508-4.30566,4.70508-2.24023,0-4.30566-1.72852-4.30566-4.70508Zm6.21094,0c0-1.68066-.68848-2.78516-1.90527-2.78516-1.21582,0-1.9043,1.10449-1.9043,2.78516,0,1.69629,.68848,2.78516,1.9043,2.78516,1.2168,0,1.90527-1.08887,1.90527-2.78516Z" fill="#2c9d92"/>
        <path d="M183.80273,70.06348c0-2.89746,2.04883-4.70605,4.17773-4.70605,2.46484,0,3.74609,1.80859,3.74609,4.27344,0,.44824-.04883,.88086-.1123,1.08887h-5.52246c.19238,1.47266,1.15234,2.24023,2.48145,2.24023,.73633,0,1.37598-.22363,2.0166-.62402l.7998,1.44043c-.87988,.6084-2.0166,.99219-3.12109,.99219-2.5127,0-4.46582-1.74414-4.46582-4.70508Zm5.90625-.91309c0-1.2002-.54395-1.96875-1.69629-1.96875-.94434,0-1.77637,.67285-1.95312,1.96875h3.64941Z" fill="#2c9d92"/>
        <path d="M193.99512,71.40723v-3.96875h-1.26465v-1.74512l1.39258-.1123,.27246-2.41699h1.95215v2.41699h2.20898v1.85742h-2.20898v3.96875c0,1.02441,.41699,1.50488,1.2168,1.50488,.28809,0,.64062-.0957,.88086-.19238l.38379,1.71289c-.48047,.16016-1.10449,.33594-1.88867,.33594-2.12891,0-2.94531-1.36035-2.94531-3.36133Z" fill="#2c9d92"/>
        <path d="M199.53027,73.50488l1.07227-1.47266c.80078,.62402,1.56934,.97559,2.40137,.97559,.89648,0,1.29688-.38379,1.29688-.94434,0-.67188-.92871-.97559-1.87305-1.34375-1.13672-.43262-2.40137-1.12109-2.40137-2.625,0-1.60059,1.29688-2.7373,3.3457-2.7373,1.29688,0,2.30469,.54395,3.04102,1.10449l-1.05664,1.4248c-.63965-.46484-1.26465-.76855-1.9209-.76855-.81543,0-1.2002,.35156-1.2002,.86426,0,.65625,.83203,.89648,1.77734,1.24805,1.18359,.44824,2.49609,1.04102,2.49609,2.70508,0,1.56934-1.23242,2.83301-3.56934,2.83301-1.2002,0-2.5127-.52734-3.40918-1.26367Z" fill="#2c9d92"/>
        <path d="M208.20312,71.18359v-5.60254h2.35254v5.29883c0,1.37598,.38379,1.87207,1.24805,1.87207,.73633,0,1.2168-.32031,1.8252-1.12012v-6.05078h2.35254v8.96387h-1.9209l-.17578-1.28027h-.06348c-.76855,.91211-1.63281,1.50391-2.84961,1.50391-1.93652,0-2.76855-1.34375-2.76855-3.58496Z" fill="#2c9d92"/>
        <path d="M221.43652,61.64355h1.55273l-3.96973,15.81445h-1.56934l3.98633-15.81445Z" fill="#2c9d92"/>
        <path d="M224.8916,62.68457h2.36816v4.67383h4.48242v-4.67383h2.35254v11.86035h-2.35254v-5.12207h-4.48242v5.12207h-2.36816v-11.86035Z" fill="#2c9d92"/>
        <path d="M236.25098,70.06348c0-2.97754,2.06543-4.70605,4.30566-4.70605,2.24121,0,4.30566,1.72852,4.30566,4.70605,0,2.97656-2.06445,4.70508-4.30566,4.70508-2.24023,0-4.30566-1.72852-4.30566-4.70508Zm6.21094,0c0-1.68066-.68848-2.78516-1.90527-2.78516-1.21582,0-1.9043,1.10449-1.9043,2.78516,0,1.69629,.68848,2.78516,1.9043,2.78516,1.2168,0,1.90527-1.08887,1.90527-2.78516Z" fill="#2c9d92"/>
        <path d="M246.82715,61.77148h2.32129v7.66699h.06348l3.05762-3.85742h2.57715l-3.07324,3.69727,3.36133,5.2666h-2.5459l-2.17676-3.71387-1.26367,1.44141v2.27246h-2.32129v-12.77344Z" fill="#2c9d92"/>
        <path d="M256.41113,71.18359v-5.60254h2.35254v5.29883c0,1.37598,.38379,1.87207,1.24805,1.87207,.73633,0,1.2168-.32031,1.8252-1.12012v-6.05078h2.35254v8.96387h-1.9209l-.17578-1.28027h-.06348c-.76855,.91211-1.63281,1.50391-2.84961,1.50391-1.93652,0-2.76855-1.34375-2.76855-3.58496Z" fill="#2c9d92"/>
        <path d="M266.69824,65.58105h1.9209l.17578,1.58496h.04785c.65625-1.16895,1.61719-1.80859,2.54492-1.80859,.49609,0,.78418,.08008,1.05664,.19141l-.40039,2.0332c-.31934-.0957-.57617-.14355-.94434-.14355-.7041,0-1.55273,.46387-2.04883,1.76074v5.3457h-2.35254v-8.96387Z" fill="#2c9d92"/>
        <path d="M273.48145,62.84375c0-.76758,.56055-1.28027,1.37695-1.28027,.7998,0,1.36035,.5127,1.36035,1.28027,0,.78516-.56055,1.29688-1.36035,1.29688-.81641,0-1.37695-.51172-1.37695-1.29688Zm.19238,2.7373h2.35254v8.96387h-2.35254v-8.96387Z" fill="#2c9d92"/>
        <path d="M278.53809,61.77148h2.32129v7.66699h.06348l3.05762-3.85742h2.57715l-3.07324,3.69727,3.36133,5.2666h-2.5459l-2.17676-3.71387-1.26367,1.44141v2.27246h-2.32129v-12.77344Z" fill="#2c9d92"/>
        <path d="M288.12207,71.18359v-5.60254h2.35254v5.29883c0,1.37598,.38379,1.87207,1.24805,1.87207,.73633,0,1.2168-.32031,1.8252-1.12012v-6.05078h2.35254v8.96387h-1.9209l-.17578-1.28027h-.06348c-.76855,.91211-1.63281,1.50391-2.84961,1.50391-1.93652,0-2.76855-1.34375-2.76855-3.58496Z" fill="#2c9d92"/>
        <path d="M301.44824,73.04004l1.36133-1.63281c.84766,.78516,1.96875,1.3125,3.00879,1.3125,1.23242,0,1.88867-.52734,1.88867-1.36035,0-.87988-.71973-1.15234-1.77637-1.60059l-1.58496-.67188c-1.2002-.49609-2.40039-1.45703-2.40039-3.18555,0-1.93652,1.69629-3.42578,4.09766-3.42578,1.37598,0,2.75293,.54492,3.71289,1.52148l-1.2002,1.48828c-.75293-.62402-1.53711-.97656-2.5127-.97656-1.04102,0-1.69727,.46387-1.69727,1.24902,0,.84766,.83203,1.15234,1.84082,1.55176l1.55273,.65625c1.44043,.59277,2.38477,1.50488,2.38477,3.21777,0,1.93652-1.61621,3.58496-4.35352,3.58496-1.58496,0-3.16895-.62402-4.32227-1.72852Z" fill="#2c9d92"/>
        <path d="M312.02441,61.77148h2.35254v3.21777l-.11133,1.68066c.71973-.67285,1.60059-1.3125,2.81641-1.3125,1.9375,0,2.76953,1.34473,2.76953,3.60156v5.58594h-2.35352v-5.29785c0-1.39258-.38379-1.87305-1.26367-1.87305-.73633,0-1.20117,.35254-1.85742,1.00879v6.16211h-2.35254v-12.77344Z" fill="#2c9d92"/>
        <path d="M322.07227,62.84375c0-.76758,.56055-1.28027,1.37695-1.28027,.7998,0,1.36035,.5127,1.36035,1.28027,0,.78516-.56055,1.29688-1.36035,1.29688-.81641,0-1.37695-.51172-1.37695-1.29688Zm.19238,2.7373h2.35254v8.96387h-2.35254v-8.96387Z" fill="#2c9d92"/>
        <path d="M327.12793,65.58105h1.9209l.17578,1.18457h.04785c.78418-.76855,1.69727-1.4082,2.91309-1.4082,1.9375,0,2.76953,1.34473,2.76953,3.60156v5.58594h-2.35352v-5.29785c0-1.39258-.38379-1.87305-1.26367-1.87305-.73633,0-1.20117,.35254-1.85742,1.00879v6.16211h-2.35254v-8.96387Z" fill="#2c9d92"/>
        <path d="M337.38379,61.77148h2.32129v7.66699h.06348l3.05762-3.85742h2.57715l-3.07324,3.69727,3.36133,5.2666h-2.5459l-2.17676-3.71387-1.26367,1.44141v2.27246h-2.32129v-12.77344Z" fill="#2c9d92"/>
        <path d="M346.61523,72.1123c0-1.9209,1.55273-2.92969,5.16992-3.31348-.04785-.88086-.43164-1.55273-1.53613-1.55273-.83301,0-1.63281,.36816-2.46582,.84863l-.84766-1.55273c1.05664-.65625,2.33691-1.18457,3.74512-1.18457,2.27344,0,3.44141,1.36035,3.44141,3.95312v5.23438h-1.9209l-.16016-.95996h-.06348c-.78418,.67188-1.68066,1.18359-2.70508,1.18359-1.60059,0-2.65723-1.13574-2.65723-2.65625Zm5.16992-.06445v-1.80859c-2.19238,.27246-2.92871,.87988-2.92871,1.68066,0,.7041,.49609,1.00879,1.18457,1.00879,.67188,0,1.16797-.32031,1.74414-.88086Z" fill="#2c9d92"/>
        <path d="M356.51953,65.58105h1.9209l.17578,1.18457h.04785c.78418-.76855,1.69727-1.4082,2.91309-1.4082,1.9375,0,2.76953,1.34473,2.76953,3.60156v5.58594h-2.35352v-5.29785c0-1.39258-.38379-1.87305-1.26367-1.87305-.73633,0-1.20117,.35254-1.85742,1.00879v6.16211h-2.35254v-8.96387Z" fill="#2c9d92"/>
        <path d="M365.92676,73.50488l1.07227-1.47266c.80078,.62402,1.56934,.97559,2.40137,.97559,.89648,0,1.29688-.38379,1.29688-.94434,0-.67188-.92871-.97559-1.87305-1.34375-1.13672-.43262-2.40137-1.12109-2.40137-2.625,0-1.60059,1.29688-2.7373,3.3457-2.7373,1.29688,0,2.30469,.54395,3.04102,1.10449l-1.05664,1.4248c-.63965-.46484-1.26465-.76855-1.9209-.76855-.81543,0-1.2002,.35156-1.2002,.86426,0,.65625,.83203,.89648,1.77734,1.24805,1.18359,.44824,2.49609,1.04102,2.49609,2.70508,0,1.56934-1.23242,2.83301-3.56934,2.83301-1.2002,0-2.5127-.52734-3.40918-1.26367Z" fill="#2c9d92"/>
        <path d="M374.13477,70.06348c0-2.89746,2.04883-4.70605,4.17773-4.70605,2.46484,0,3.74609,1.80859,3.74609,4.27344,0,.44824-.04883,.88086-.1123,1.08887h-5.52246c.19238,1.47266,1.15234,2.24023,2.48145,2.24023,.73633,0,1.37598-.22363,2.0166-.62402l.7998,1.44043c-.87988,.6084-2.0166,.99219-3.12109,.99219-2.5127,0-4.46582-1.74414-4.46582-4.70508Zm5.90625-.91309c0-1.2002-.54395-1.96875-1.69629-1.96875-.94434,0-1.77637,.67285-1.95312,1.96875h3.64941Z" fill="#2c9d92"/>
        <path d="M383.99121,65.58105h1.9209l.17578,1.18457h.04785c.78418-.76855,1.69727-1.4082,2.91309-1.4082,1.9375,0,2.76953,1.34473,2.76953,3.60156v5.58594h-2.35352v-5.29785c0-1.39258-.38379-1.87305-1.26367-1.87305-.73633,0-1.20117,.35254-1.85742,1.00879v6.16211h-2.35254v-8.96387Z" fill="#2c9d92"/>
        <path d="M216.66699,90.7373c0-3.18555,.88086-5.81055,2.38477-8.27539l1.47266,.62402c-1.34375,2.33691-1.95215,5.04199-1.95215,7.65137,0,2.64062,.6084,5.33008,1.95215,7.66699l-1.47266,.62402c-1.50391-2.48145-2.38477-5.07422-2.38477-8.29102Z" fill="#2c9d92"/>
        <path d="M222.1709,93.3623c0-1.9209,1.55273-2.92969,5.16992-3.31348-.04785-.88086-.43164-1.55273-1.53613-1.55273-.83301,0-1.63281,.36816-2.46582,.84863l-.84766-1.55273c1.05664-.65625,2.33691-1.18457,3.74512-1.18457,2.27344,0,3.44141,1.36035,3.44141,3.95312v5.23438h-1.9209l-.16016-.95996h-.06348c-.78418,.67188-1.68066,1.18359-2.70508,1.18359-1.60059,0-2.65723-1.13574-2.65723-2.65625Zm5.16992-.06445v-1.80859c-2.19238,.27246-2.92871,.87988-2.92871,1.68066,0,.7041,.49609,1.00879,1.18457,1.00879,.67188,0,1.16797-.32031,1.74414-.88086Z" fill="#2c9d92"/>
        <path d="M232.0752,86.83105h1.9209l.17578,.92871h.04785c.75293-.64062,1.68066-1.15234,2.6416-1.15234,2.20898,0,3.52148,1.80859,3.52148,4.56152,0,3.07324-1.84082,4.84961-3.80957,4.84961-.78516,0-1.53711-.35156-2.22559-.97559l.08008,1.47266v2.7207h-2.35254v-12.40527Zm5.89062,4.37012c0-1.71289-.54492-2.65723-1.77734-2.65723-.6084,0-1.15234,.30371-1.76074,.92871v3.9375c.56055,.49609,1.13672,.67188,1.61719,.67188,1.08789,0,1.9209-.92773,1.9209-2.88086Z" fill="#2c9d92"/>
        <path d="M242.37891,86.83105h1.9209l.17578,.92871h.04785c.75293-.64062,1.68066-1.15234,2.6416-1.15234,2.20898,0,3.52148,1.80859,3.52148,4.56152,0,3.07324-1.84082,4.84961-3.80957,4.84961-.78516,0-1.53711-.35156-2.22559-.97559l.08008,1.47266v2.7207h-2.35254v-12.40527Zm5.89062,4.37012c0-1.71289-.54492-2.65723-1.77734-2.65723-.6084,0-1.15234,.30371-1.76074,.92871v3.9375c.56055,.49609,1.13672,.67188,1.61719,.67188,1.08789,0,1.9209-.92773,1.9209-2.88086Z" fill="#2c9d92"/>
        <path d="M252.68262,86.83105h1.9209l.17578,1.58496h.04785c.65625-1.16895,1.61719-1.80859,2.54492-1.80859,.49609,0,.78418,.08008,1.05664,.19141l-.40039,2.0332c-.31934-.0957-.57617-.14355-.94434-.14355-.7041,0-1.55273,.46387-2.04883,1.76074v5.3457h-2.35254v-8.96387Z" fill="#2c9d92"/>
        <path d="M259.09766,91.31348c0-2.97754,2.06543-4.70605,4.30566-4.70605,2.24121,0,4.30566,1.72852,4.30566,4.70605,0,2.97656-2.06445,4.70508-4.30566,4.70508-2.24023,0-4.30566-1.72852-4.30566-4.70508Zm6.21094,0c0-1.68066-.68848-2.78516-1.90527-2.78516-1.21582,0-1.9043,1.10449-1.9043,2.78516,0,1.69629,.68848,2.78516,1.9043,2.78516,1.2168,0,1.90527-1.08887,1.90527-2.78516Z" fill="#2c9d92"/>
        <path d="M271.4668,91.12109l-2.625-4.29004h2.52832l.89648,1.58496c.25586,.51172,.52832,1.02441,.80078,1.52051h.06348c.20801-.49609,.44824-1.00879,.65625-1.52051l.75293-1.58496h2.43262l-2.625,4.5625,2.80078,4.40137h-2.52832l-.99316-1.64844c-.28809-.5127-.57617-1.05664-.86426-1.56934h-.08008c-.25586,.5127-.49609,1.04102-.75195,1.56934l-.83203,1.64844h-2.43359l2.80176-4.67383Z" fill="#2c9d92"/>
        <path d="M278.53809,94.48242c0-.88086,.62402-1.53711,1.45605-1.53711,.84863,0,1.47266,.65625,1.47266,1.53711,0,.86426-.62402,1.53613-1.47266,1.53613-.83203,0-1.45605-.67188-1.45605-1.53613Z" fill="#2c9d92"/>
        <path d="M287.01758,90.33691c0-4.40234,2.19336-6.30664,4.59375-6.30664,1.44043,0,2.49707,.6084,3.20117,1.34473l-1.24805,1.4082c-.41602-.46387-1.13672-.84863-1.8252-.84863-1.36035,0-2.48047,1.00879-2.57715,3.98633,.65625-.81641,1.66504-1.29688,2.43359-1.29688,1.98438,0,3.40918,1.13672,3.40918,3.55371,0,2.36914-1.69629,3.84082-3.72949,3.84082-2.24121,0-4.25781-1.72852-4.25781-5.68164Zm2.20898,1.21582c.22461,1.95312,1.02441,2.68945,2.00098,2.68945,.89648,0,1.61621-.68848,1.61621-2.06445,0-1.29688-.67188-1.88867-1.69629-1.88867-.6084,0-1.3291,.33594-1.9209,1.26367Z" fill="#2c9d92"/>
        <path d="M296.36133,89.96875c0-3.90625,1.58496-5.93848,4.01758-5.93848,2.43359,0,4.00195,2.04883,4.00195,5.93848,0,3.92188-1.56836,6.0498-4.00195,6.0498-2.43262,0-4.01758-2.12793-4.01758-6.0498Zm5.79492,0c0-3.20117-.75293-4.09766-1.77734-4.09766s-1.79297,.89648-1.79297,4.09766c0,3.2168,.76855,4.20996,1.79297,4.20996s1.77734-.99316,1.77734-4.20996Z" fill="#2c9d92"/>
        <path d="M309.97754,86.83105h1.9209l.17578,1.20117h.04785c.75293-.78516,1.58496-1.4248,2.75293-1.4248,1.28125,0,2.0332,.57617,2.46582,1.56836,.81543-.86426,1.68066-1.56836,2.84863-1.56836,1.90527,0,2.78516,1.34473,2.78516,3.60156v5.58594h-2.35254v-5.29785c0-1.39258-.40039-1.87305-1.24902-1.87305-.51172,0-1.08789,.33594-1.72852,1.00879v6.16211h-2.33691v-5.29785c0-1.39258-.41602-1.87305-1.26465-1.87305-.51172,0-1.08789,.33594-1.71289,1.00879v6.16211h-2.35254v-8.96387Z" fill="#2c9d92"/>
        <path d="M325.20898,84.09375c0-.76758,.56055-1.28027,1.37695-1.28027,.7998,0,1.36035,.5127,1.36035,1.28027,0,.78516-.56055,1.29688-1.36035,1.29688-.81641,0-1.37695-.51172-1.37695-1.29688Zm.19238,2.7373h2.35254v8.96387h-2.35254v-8.96387Z" fill="#2c9d92"/>
        <path d="M330.26465,86.83105h1.9209l.17578,1.18457h.04785c.78418-.76855,1.69727-1.4082,2.91309-1.4082,1.9375,0,2.76953,1.34473,2.76953,3.60156v5.58594h-2.35352v-5.29785c0-1.39258-.38379-1.87305-1.26367-1.87305-.73633,0-1.20117,.35254-1.85742,1.00879v6.16211h-2.35254v-8.96387Z" fill="#2c9d92"/>
        <path d="M340.08789,98.4043c1.34473-2.33691,1.95312-5.02637,1.95312-7.66699,0-2.60938-.6084-5.31445-1.95312-7.65137l1.45703-.62402c1.52051,2.46484,2.40039,5.08984,2.40039,8.27539,0,3.2168-.87988,5.80957-2.40039,8.29102l-1.45703-.62402Z" fill="#2c9d92"/>
      </g>
      <g>
        <path d="M199.42871,188.66895h-3.3291v-1.98438h9.05957v1.98438h-3.36133v9.87598h-2.36914v-9.87598Z" fill="#2c9d92"/>
        <path d="M206.43555,196.1123c0-1.9209,1.55273-2.92969,5.16992-3.31348-.04785-.88086-.43164-1.55273-1.53613-1.55273-.83301,0-1.63281,.36816-2.46582,.84863l-.84766-1.55273c1.05664-.65625,2.33691-1.18457,3.74512-1.18457,2.27344,0,3.44141,1.36035,3.44141,3.95312v5.23438h-1.9209l-.16016-.95996h-.06348c-.78418,.67188-1.68066,1.18359-2.70508,1.18359-1.60059,0-2.65723-1.13574-2.65723-2.65625Zm5.16992-.06445v-1.80859c-2.19238,.27246-2.92871,.87988-2.92871,1.68066,0,.7041,.49609,1.00879,1.18457,1.00879,.67188,0,1.16797-.32031,1.74414-.88086Z" fill="#2c9d92"/>
        <path d="M216.33984,185.77148h2.32031v7.66699h.06445l3.05762-3.85742h2.57715l-3.07324,3.69727,3.36133,5.2666h-2.5459l-2.17676-3.71387-1.26465,1.44141v2.27246h-2.32031v-12.77344Z" fill="#2c9d92"/>
        <path d="M225.57129,196.1123c0-1.9209,1.55273-2.92969,5.16992-3.31348-.04785-.88086-.43164-1.55273-1.53613-1.55273-.83301,0-1.63281,.36816-2.46582,.84863l-.84766-1.55273c1.05664-.65625,2.33691-1.18457,3.74512-1.18457,2.27344,0,3.44141,1.36035,3.44141,3.95312v5.23438h-1.9209l-.16016-.95996h-.06348c-.78418,.67188-1.68066,1.18359-2.70508,1.18359-1.60059,0-2.65723-1.13574-2.65723-2.65625Zm5.16992-.06445v-1.80859c-2.19238,.27246-2.92871,.87988-2.92871,1.68066,0,.7041,.49609,1.00879,1.18457,1.00879,.67188,0,1.16797-.32031,1.74414-.88086Z" fill="#2c9d92"/>
        <path d="M234.62695,197.50488l1.07227-1.47266c.80078,.62402,1.56934,.97559,2.40137,.97559,.89648,0,1.29688-.38379,1.29688-.94434,0-.67188-.92871-.97559-1.87305-1.34375-1.13672-.43262-2.40137-1.12109-2.40137-2.625,0-1.60059,1.29688-2.7373,3.3457-2.7373,1.29688,0,2.30469,.54395,3.04102,1.10449l-1.05664,1.4248c-.63965-.46484-1.26465-.76855-1.9209-.76855-.81543,0-1.2002,.35156-1.2002,.86426,0,.65625,.83203,.89648,1.77734,1.24805,1.18359,.44824,2.49609,1.04102,2.49609,2.70508,0,1.56934-1.23242,2.83301-3.56934,2.83301-1.2002,0-2.5127-.52734-3.40918-1.26367Z" fill="#2c9d92"/>
        <path d="M242.94727,196.1123c0-1.9209,1.55273-2.92969,5.16992-3.31348-.04785-.88086-.43164-1.55273-1.53613-1.55273-.83301,0-1.63281,.36816-2.46582,.84863l-.84766-1.55273c1.05664-.65625,2.33691-1.18457,3.74512-1.18457,2.27344,0,3.44141,1.36035,3.44141,3.95312v5.23438h-1.9209l-.16016-.95996h-.06348c-.78418,.67188-1.68066,1.18359-2.70508,1.18359-1.60059,0-2.65723-1.13574-2.65723-2.65625Zm5.16992-.06445v-1.80859c-2.19238,.27246-2.92871,.87988-2.92871,1.68066,0,.7041,.49609,1.00879,1.18457,1.00879,.67188,0,1.16797-.32031,1.74414-.88086Z" fill="#2c9d92"/>
        <path d="M252.85156,185.77148h2.32031v7.66699h.06445l3.05762-3.85742h2.57715l-3.07324,3.69727,3.36133,5.2666h-2.5459l-2.17676-3.71387-1.26465,1.44141v2.27246h-2.32031v-12.77344Z" fill="#2c9d92"/>
        <path d="M262.33887,186.84375c0-.76758,.56055-1.28027,1.37695-1.28027,.7998,0,1.36035,.5127,1.36035,1.28027,0,.78516-.56055,1.29688-1.36035,1.29688-.81641,0-1.37695-.51172-1.37695-1.29688Zm.19238,2.7373h2.35254v8.96387h-2.35254v-8.96387Z" fill="#2c9d92"/>
        <path d="M271.21973,186.68457h2.36816v9.87598h4.81836v1.98438h-7.18652v-11.86035Z" fill="#2c9d92"/>
        <path d="M280.08301,186.84375c0-.76758,.56055-1.28027,1.37695-1.28027,.7998,0,1.36035,.5127,1.36035,1.28027,0,.78516-.56055,1.29688-1.36035,1.29688-.81641,0-1.37695-.51172-1.37695-1.29688Zm.19238,2.7373h2.35254v8.96387h-2.35254v-8.96387Z" fill="#2c9d92"/>
        <path d="M285.13965,189.58105h1.9209l.17578,1.18457h.04785c.78418-.76855,1.69727-1.4082,2.91309-1.4082,1.9375,0,2.76953,1.34473,2.76953,3.60156v5.58594h-2.35352v-5.29785c0-1.39258-.38379-1.87305-1.26367-1.87305-.73633,0-1.20117,.35254-1.85742,1.00879v6.16211h-2.35254v-8.96387Z" fill="#2c9d92"/>
        <path d="M294.83496,194.06348c0-2.89746,2.04883-4.70605,4.17773-4.70605,2.46484,0,3.74609,1.80859,3.74609,4.27344,0,.44824-.04883,.88086-.1123,1.08887h-5.52246c.19238,1.47266,1.15234,2.24023,2.48145,2.24023,.73633,0,1.37598-.22363,2.0166-.62402l.7998,1.44043c-.87988,.6084-2.0166,.99219-3.12109,.99219-2.5127,0-4.46582-1.74414-4.46582-4.70508Zm5.90625-.91309c0-1.2002-.54395-1.96875-1.69629-1.96875-.94434,0-1.77637,.67285-1.95312,1.96875h3.64941Z" fill="#2c9d92"/>
        <path d="M308.41895,193.4873c0-3.18555,.88086-5.81055,2.38477-8.27539l1.47266,.62402c-1.34375,2.33691-1.95215,5.04199-1.95215,7.65137,0,2.64062,.6084,5.33008,1.95215,7.66699l-1.47266,.62402c-1.50391-2.48145-2.38477-5.07422-2.38477-8.29102Z" fill="#2c9d92"/>
        <path d="M314.56348,186.68457h4.12891c2.48145,0,4.4502,.87988,4.4502,3.60059,0,1.77734-.89648,2.88184-2.25684,3.41016l2.76855,4.84961h-2.64062l-2.43262-4.48145h-1.64941v4.48145h-2.36816v-11.86035Zm3.90527,5.50586c1.52051,0,2.36914-.64062,2.36914-1.90527,0-1.28027-.84863-1.71191-2.36914-1.71191h-1.53711v3.61719h1.53711Z" fill="#2c9d92"/>
        <path d="M324.83496,196.1123c0-1.9209,1.55273-2.92969,5.16992-3.31348-.04785-.88086-.43164-1.55273-1.53613-1.55273-.83301,0-1.63281,.36816-2.46582,.84863l-.84766-1.55273c1.05664-.65625,2.33691-1.18457,3.74512-1.18457,2.27344,0,3.44141,1.36035,3.44141,3.95312v5.23438h-1.9209l-.16016-.95996h-.06348c-.78418,.67188-1.68066,1.18359-2.70508,1.18359-1.60059,0-2.65723-1.13574-2.65723-2.65625Zm5.16992-.06445v-1.80859c-2.19238,.27246-2.92871,.87988-2.92871,1.68066,0,.7041,.49609,1.00879,1.18457,1.00879,.67188,0,1.16797-.32031,1.74414-.88086Z" fill="#2c9d92"/>
        <path d="M334.73926,189.58105h1.9209l.17578,.92871h.04785c.75293-.64062,1.68066-1.15234,2.6416-1.15234,2.20898,0,3.52148,1.80859,3.52148,4.56152,0,3.07324-1.84082,4.84961-3.80957,4.84961-.78516,0-1.53711-.35156-2.22559-.97559l.08008,1.47266v2.7207h-2.35254v-12.40527Zm5.89062,4.37012c0-1.71289-.54492-2.65723-1.77734-2.65723-.6084,0-1.15234,.30371-1.76074,.92871v3.9375c.56055,.49609,1.13672,.67188,1.61719,.67188,1.08789,0,1.9209-.92773,1.9209-2.88086Z" fill="#2c9d92"/>
        <path d="M344.85059,186.84375c0-.76758,.56055-1.28027,1.37695-1.28027,.7998,0,1.36035,.5127,1.36035,1.28027,0,.78516-.56055,1.29688-1.36035,1.29688-.81641,0-1.37695-.51172-1.37695-1.29688Zm.19238,2.7373h2.35254v8.96387h-2.35254v-8.96387Z" fill="#2c9d92"/>
        <path d="M349.39453,194.06348c0-2.91309,1.8252-4.70605,3.76172-4.70605,1.00879,0,1.63281,.38379,2.27344,.97656l-.08008-1.40918v-3.15332h2.33691v12.77344h-1.90527l-.17578-.92871h-.06445c-.65625,.64062-1.55273,1.15234-2.48047,1.15234-2.22461,0-3.66602-1.76074-3.66602-4.70508Zm5.95508,1.84082v-3.93848c-.54492-.49609-1.12109-.67188-1.68066-.67188-1.00879,0-1.85742,.95996-1.85742,2.75293,0,1.85742,.67285,2.78516,1.85742,2.78516,.62402,0,1.15234-.25586,1.68066-.92773Z" fill="#2c9d92"/>
        <path d="M359.77832,201.1543c1.34473-2.33691,1.95312-5.02637,1.95312-7.66699,0-2.60938-.6084-5.31445-1.95312-7.65137l1.45703-.62402c1.52051,2.46484,2.40039,5.08984,2.40039,8.27539,0,3.2168-.87988,5.80957-2.40039,8.29102l-1.45703-.62402Z" fill="#2c9d92"/>
        <path d="M218.4834,214.7373c0-3.18555,.88086-5.81055,2.38477-8.27539l1.47266,.62402c-1.34375,2.33691-1.95215,5.04199-1.95215,7.65137,0,2.64062,.6084,5.33008,1.95215,7.66699l-1.47266,.62402c-1.50391-2.48145-2.38477-5.07422-2.38477-8.29102Z" fill="#2c9d92"/>
        <path d="M223.9873,217.3623c0-1.9209,1.55273-2.92969,5.16992-3.31348-.04785-.88086-.43164-1.55273-1.53613-1.55273-.83301,0-1.63281,.36816-2.46582,.84863l-.84766-1.55273c1.05664-.65625,2.33691-1.18457,3.74512-1.18457,2.27344,0,3.44141,1.36035,3.44141,3.95312v5.23438h-1.9209l-.16016-.95996h-.06348c-.78418,.67188-1.68066,1.18359-2.70508,1.18359-1.60059,0-2.65723-1.13574-2.65723-2.65625Zm5.16992-.06445v-1.80859c-2.19238,.27246-2.92871,.87988-2.92871,1.68066,0,.7041,.49609,1.00879,1.18457,1.00879,.67188,0,1.16797-.32031,1.74414-.88086Z" fill="#2c9d92"/>
        <path d="M233.8916,210.83105h1.9209l.17578,.92871h.04785c.75293-.64062,1.68066-1.15234,2.6416-1.15234,2.20898,0,3.52148,1.80859,3.52148,4.56152,0,3.07324-1.84082,4.84961-3.80957,4.84961-.78516,0-1.53711-.35156-2.22559-.97559l.08008,1.47266v2.7207h-2.35254v-12.40527Zm5.89062,4.37012c0-1.71289-.54492-2.65723-1.77734-2.65723-.6084,0-1.15234,.30371-1.76074,.92871v3.9375c.56055,.49609,1.13672,.67188,1.61719,.67188,1.08789,0,1.9209-.92773,1.9209-2.88086Z" fill="#2c9d92"/>
        <path d="M244.19531,210.83105h1.9209l.17578,.92871h.04785c.75293-.64062,1.68066-1.15234,2.6416-1.15234,2.20898,0,3.52148,1.80859,3.52148,4.56152,0,3.07324-1.84082,4.84961-3.80957,4.84961-.78516,0-1.53711-.35156-2.22559-.97559l.08008,1.47266v2.7207h-2.35254v-12.40527Zm5.89062,4.37012c0-1.71289-.54492-2.65723-1.77734-2.65723-.6084,0-1.15234,.30371-1.76074,.92871v3.9375c.56055,.49609,1.13672,.67188,1.61719,.67188,1.08789,0,1.9209-.92773,1.9209-2.88086Z" fill="#2c9d92"/>
        <path d="M254.49902,210.83105h1.9209l.17578,1.58496h.04785c.65625-1.16895,1.61719-1.80859,2.54492-1.80859,.49609,0,.78418,.08008,1.05664,.19141l-.40039,2.0332c-.31934-.0957-.57617-.14355-.94434-.14355-.7041,0-1.55273,.46387-2.04883,1.76074v5.3457h-2.35254v-8.96387Z" fill="#2c9d92"/>
        <path d="M260.91406,215.31348c0-2.97754,2.06543-4.70605,4.30566-4.70605,2.24121,0,4.30566,1.72852,4.30566,4.70605,0,2.97656-2.06445,4.70508-4.30566,4.70508-2.24023,0-4.30566-1.72852-4.30566-4.70508Zm6.21094,0c0-1.68066-.68848-2.78516-1.90527-2.78516-1.21582,0-1.9043,1.10449-1.9043,2.78516,0,1.69629,.68848,2.78516,1.9043,2.78516,1.2168,0,1.90527-1.08887,1.90527-2.78516Z" fill="#2c9d92"/>
        <path d="M273.2832,215.12109l-2.625-4.29004h2.52832l.89648,1.58496c.25586,.51172,.52832,1.02441,.80078,1.52051h.06348c.20801-.49609,.44824-1.00879,.65625-1.52051l.75293-1.58496h2.43262l-2.625,4.5625,2.80078,4.40137h-2.52832l-.99316-1.64844c-.28809-.5127-.57617-1.05664-.86426-1.56934h-.08008c-.25586,.5127-.49609,1.04102-.75195,1.56934l-.83203,1.64844h-2.43359l2.80176-4.67383Z" fill="#2c9d92"/>
        <path d="M280.35449,218.48242c0-.88086,.62402-1.53711,1.45605-1.53711,.84863,0,1.47266,.65625,1.47266,1.53711,0,.86426-.62402,1.53613-1.47266,1.53613-.83203,0-1.45605-.67188-1.45605-1.53613Z" fill="#2c9d92"/>
        <path d="M288.88184,218.6748l1.24902-1.4248c.41602,.48047,1.13672,.84863,1.82422,.84863,1.36133,0,2.48145-.99316,2.57715-3.96973-.65625,.81641-1.66406,1.2959-2.43262,1.2959-1.98535,0-3.40918-1.15234-3.40918-3.56934,0-2.35254,1.69629-3.8252,3.72949-3.8252,2.24023,0,4.25781,1.71289,4.25781,5.68262,0,4.40137-2.19336,6.30566-4.57812,6.30566-1.45703,0-2.5293-.62402-3.21777-1.34375Zm3.66602-4.93066c.62402,0,1.37598-.36816,1.9209-1.26465-.24023-1.93652-1.04102-2.67285-2.01758-2.67285-.87988,0-1.60059,.67285-1.60059,2.04883,0,1.29688,.65625,1.88867,1.69727,1.88867Z" fill="#2c9d92"/>
        <path d="M297.88965,218.40234l1.08887-1.50488c.67188,.65625,1.50391,1.20117,2.6084,1.20117,1.23242,0,2.09766-.7207,2.09766-2.01758,0-1.28027-.80078-2-2.00098-2-.7041,0-1.08887,.17578-1.77734,.62402l-1.07227-.68848,.32031-5.7627h6.33887v1.96875h-4.30566l-.22461,2.51367c.48047-.20801,.88086-.32031,1.4248-.32031,1.98438,0,3.64941,1.12012,3.64941,3.58496,0,2.5459-1.95312,4.01758-4.14551,4.01758-1.87305,0-3.12109-.73535-4.00195-1.61621Z" fill="#2c9d92"/>
        <path d="M311.79395,210.83105h1.9209l.17578,1.20117h.04785c.75293-.78516,1.58496-1.4248,2.75293-1.4248,1.28125,0,2.0332,.57617,2.46582,1.56836,.81543-.86426,1.68066-1.56836,2.84863-1.56836,1.90527,0,2.78516,1.34473,2.78516,3.60156v5.58594h-2.35254v-5.29785c0-1.39258-.40039-1.87305-1.24902-1.87305-.51172,0-1.08789,.33594-1.72852,1.00879v6.16211h-2.33691v-5.29785c0-1.39258-.41602-1.87305-1.26465-1.87305-.51172,0-1.08789,.33594-1.71289,1.00879v6.16211h-2.35254v-8.96387Z" fill="#2c9d92"/>
        <path d="M327.02539,208.09375c0-.76758,.56055-1.28027,1.37695-1.28027,.7998,0,1.36035,.5127,1.36035,1.28027,0,.78516-.56055,1.29688-1.36035,1.29688-.81641,0-1.37695-.51172-1.37695-1.29688Zm.19238,2.7373h2.35254v8.96387h-2.35254v-8.96387Z" fill="#2c9d92"/>
        <path d="M332.08105,210.83105h1.9209l.17578,1.18457h.04785c.78418-.76855,1.69727-1.4082,2.91309-1.4082,1.9375,0,2.76953,1.34473,2.76953,3.60156v5.58594h-2.35352v-5.29785c0-1.39258-.38379-1.87305-1.26367-1.87305-.73633,0-1.20117,.35254-1.85742,1.00879v6.16211h-2.35254v-8.96387Z" fill="#2c9d92"/>
        <path d="M341.9043,222.4043c1.34473-2.33691,1.95312-5.02637,1.95312-7.66699,0-2.60938-.6084-5.31445-1.95312-7.65137l1.45703-.62402c1.52051,2.46484,2.40039,5.08984,2.40039,8.27539,0,3.2168-.87988,5.80957-2.40039,8.29102l-1.45703-.62402Z" fill="#2c9d92"/>
      </g>
    </g>
  </g>
</svg>