<?xml version="1.0" encoding="UTF-8"?>
<svg id="b" data-name="レイヤー 2" xmlns="http://www.w3.org/2000/svg" width="498.45282" height="132.02016" viewBox="0 0 498.45282 132.02016">
  <g id="c" data-name="text">
    <g>
      <rect y="91.27016" width="498.45282" height="40.75" fill="#fff" opacity=".98"/>
      <g>
        <path d="M37.95086,106.69985c.90234,1.42773,1.6582,2.12061,3.06543,2.87646-.4834,.67188-.77637,1.21777-1.07129,2.01562-1.1543-.94482-1.7207-1.55371-2.47656-2.6875,.0625,.86084,.10449,1.72168,.10449,2.26758v1.15479c0,.90283,.02051,1.30176,.08398,1.82666h-2.35156c.08398-.46191,.12598-.98682,.12598-1.82666v-1.11279q.02148-.81885,.04199-1.25977,0-.23096,.04199-.94482c-.81836,1.57471-1.6377,2.6875-3.06543,4.07324-.35645-.71387-.71387-1.28076-1.25977-1.95264,.90332-.65088,1.38574-1.11279,2.22559-2.1626,.56641-.71387,.98633-1.38574,1.38574-2.26758h-1.07129c-.83984,0-1.40625,.021-1.88867,.08398v-2.22559c.48242,.06299,.98633,.08398,1.93164,.08398h1.6582v-.81885c0-.69287-.04199-1.15479-.12598-1.6167h2.37207c-.10449,.5249-.10449,.79785-.10449,1.67969v.75586h1.25977c.71387,0,1.15527-.021,1.72168-.08398v2.22559c-.5459-.06299-1.11328-.08398-1.67969-.08398h-.92383Zm-6.44531,12.70264c1.25977-1.65869,1.6582-2.51953,2.2041-4.76611l1.99512,.88184c-.71484,2.56152-.92383,3.06543-2.26758,5.27002l-1.93164-1.38574Zm7.51562-1.0708c0,.39893,.08398,.5459,.41992,.62988,.31543,.08398,.73535,.12598,1.51172,.12598,2.22656,0,2.85547-.06299,3.15039-.35693,.23047-.23096,.33594-.86084,.35645-2.03662,.81934,.35693,1.25977,.48291,2.24707,.60889-.31543,3.7373-.52539,3.88428-5.56445,3.88428-1.86914,0-2.60352-.06299-3.31738-.29395-.81934-.27295-1.07129-.71387-1.07129-1.78467v-2.45654c0-.94482-.04102-1.32275-.125-1.99463h2.49805c-.08398,.48291-.10547,.92383-.10547,1.99463v1.67969Zm2.12109-4.61914c.04199-.56689,.0625-1.11279,.0625-1.78467v-7.15967c0-.81885-.04102-1.44873-.08398-1.95264,.60938,.06299,1.19727,.08398,2.01562,.08398h4.57812c.81836,0,1.40625-.021,2.01562-.08398-.06348,.5249-.08398,1.13379-.08398,1.95264v7.18066c0,.79785,.02051,1.42773,.08398,2.03662,0,0-.65137-.021-1.93164-.06299h-4.78711c-.50391,0-.86133,0-1.38672,.021,.71484,.65088,1.38672,1.40674,2.35156,2.64551l-1.76367,1.34375c-.98633-1.53271-1.38477-2.01562-2.58203-3.2334l1.51172-.98682Zm2.20508-7.70557h4.13574v-1.19678h-4.13574v1.19678Zm0,3.00244h4.13574v-1.21777h-4.13574v1.21777Zm0,3.02344h4.13574v-1.23877h-4.13574v1.23877Zm5.5,8.54541c-1.00781-2.24658-1.7002-3.44336-2.93945-5.08105l1.97461-.96582c1.36426,1.80566,2.01562,2.81348,3.04395,4.76611l-2.0791,1.28076Z" fill="#44c38b"/>
        <path d="M70.94012,118.60463h1.97363c1.0918,0,1.78516-.04199,2.24609-.10498v2.22559c-.62891-.06299-1.36426-.10498-2.33008-.10498h-7.07617v.98682h-2.30859c.08398-.60889,.125-1.25977,.125-2.20459v-8.35645c0-.37793,0-.48291,.02148-.77686-.27344,.31494-.41992,.48291-.81836,.90283q-.10547-.16797-.18945-.31494l.04199,2.03662q-.86035,.33594-1.76367,.67188v5.81592c0,1.0918-.29395,1.57471-1.0918,1.82666-.50391,.14697-1.21777,.23096-1.99512,.23096-.31445,0-.58789-.021-1.17578-.04199-.0625-.86084-.16797-1.28076-.48242-2.1626,.90234,.08398,1.44922,.12598,1.88965,.12598,.52441,0,.65137-.10498,.65137-.58789v-4.45117q-.81934,.25195-1.49121,.46191c-.08398,.021-.16797,.04199-.29395,.08398-.10547,.04199-.16797,.06299-.18945,.06299q-.20898,.06299-.33594,.12598l-.44043-2.33057c.65137-.06299,1.44824-.25195,2.75098-.60889v-3.98926h-1.05078c-.48242,0-.94434,.021-1.53223,.08398v-2.24658c.52441,.08398,.96582,.12598,1.55371,.12598h1.0293v-1.74268c0-1.00781-.02148-1.46973-.12695-2.1416h2.45703c-.10547,.65088-.12598,1.13379-.12598,2.12061v1.76367h.71387c.52539,0,.79785-.021,1.17578-.08398v1.91064c1.25977-1.6377,2.41406-4.13623,2.6875-5.83691l2.43555,.50391q-.10547,.27295-.31445,.75586c-.41992,1.0498-.65137,1.55371-1.13477,2.47754h2.58301c.62988-1.21777,1.13379-2.47754,1.36426-3.56934l2.35156,.44092c-.79688,1.91064-.90234,2.12061-1.44824,3.12842h1.53223c.83984,0,1.5752-.04199,2.12109-.12598v2.22559c-.56641-.08398-1.34375-.12598-2.12109-.12598h-1.86816v2.18359h1.76367c.81934,0,1.44824-.04199,1.86816-.08398v2.12061c-.48242-.06299-1.13281-.10498-1.86816-.10498h-1.76367v2.28857h1.78418c.90332,0,1.4707-.021,1.84766-.10498v2.1416c-.41992-.08398-1.00781-.10498-1.84766-.10498h-1.78418v2.47754Zm-10.07812-7.18066c.67188-.25195,.94434-.33594,1.7002-.65088-.39844-.67188-.67188-1.0498-1.04883-1.53271,.52441-.50391,.69238-.67188,1.02832-1.0708-.33594-.04199-.56738-.04199-.96582-.04199h-.71387v3.29639Zm7.91504-1.44873v-2.18359h-3.02344v2.18359h3.02344Zm-3.02344,4.22021h3.02344v-2.28857h-3.02344v2.28857Zm0,4.40918h3.02344v-2.47754h-3.02344v2.47754Z" fill="#44c38b"/>
        <path d="M83.73211,112.64174c-.23145,4.19922-.79883,6.29883-2.33105,8.73438-.58789-.88184-1.00781-1.34375-1.6377-1.86865,1.49023-2.26758,1.88965-4.36719,1.88965-9.91016,0-1.70068-.02051-2.47754-.12598-3.29639,.65039,.06299,1.11328,.08398,2.24609,.08398h4.87109c0-.41992-.02051-.5249-.0625-.90283h2.22559c-.06348,.29395-.08398,.50391-.08398,.90283h6.29883c.94434,0,1.51172-.021,2.12012-.12598v1.82666c-.65039-.08398-1.30078-.10498-2.14062-.10498h-3.75879v.92383h3.46387c.58789,0,1.05078-.021,1.5752-.06299-.04199,.35693-.06348,.62988-.06348,1.17578v1.40674c0,.48291,.02148,.83984,.06348,1.28076-.58789-.04199-1.07129-.06299-1.46973-.06299h-8.77637c-.06348,.29395-.08398,.39893-.14746,.71387h9.46973c.83984,0,1.32324-.021,1.86816-.10498v1.67969c-.46094-.06299-1.07031-.08398-1.88867-.08398h-9.82617c-.08398,.29395-.10547,.39893-.21094,.71387h10.20508c.62891,0,1.1123-.021,1.53223-.06299q-.02051,.18896-.08398,.77686c-.23145,2.09961-.39941,3.17041-.65137,3.80029-.41992,1.0708-.94434,1.34375-2.58203,1.34375-.77734,0-.94531-.021-2.18359-.14697-.0625-.83984-.16797-1.34375-.39844-1.91064,.27246,.06299,.35645,.08398,.58789,.12598-.27344-.71387-.44141-1.0708-.86133-1.74268l1.5332-.46191c.54492,.71387,.69238,.96582,1.13281,1.88965l-1.07031,.41992c.48242,.04199,.90234,.06299,1.1543,.06299,.4834,0,.65137-.12598,.75586-.5249,.12695-.46191,.21094-1.02881,.29492-1.97363h-10.16211q-1.67969,.021-2.12109,.021c.71387-1.70068,1.11328-3.08643,1.36523-4.53516h-2.01562Zm1.57422-9.34326c0-.50391-.02148-.69287-.08398-1.13379h2.33008c-.0625,.39893-.08398,.60889-.08398,1.13379h4.59863c0-.46191-.02051-.75586-.06348-1.13379h2.33105c-.06348,.37793-.08398,.5249-.08398,1.13379h2.85547c.96582,0,1.6377-.04199,2.35156-.12598v1.91064c-.69238-.08398-1.32324-.10498-2.35156-.10498h-2.85547c0,.39893,.02051,.65088,.08398,.98682h-2.30957c.04199-.33594,.04199-.44092,.04199-.98682h-4.59863c.02148,.62988,.02148,.67188,.06348,.96582h-2.30957c.0625-.35693,.08398-.58789,.08398-.96582h-2.47754c-1.0498,0-1.6377,.021-2.30957,.10498v-1.91064c.67188,.08398,1.34375,.12598,2.30957,.12598h2.47754Zm1.23828,14.67627c-.39844,1.40674-.83984,2.41455-1.57422,3.59033l-2.03711-.92383c.81934-1.11279,1.23926-1.97363,1.5752-3.27539l2.03613,.60889Zm-.125-6.76074v-.90283h-2.625q0,.67188-.02148,.90283h2.64648Zm0-2.30957v-.92383h-2.625v.92383h2.625Zm2.39258,8.88135c.31543,1.0498,.50391,1.93164,.69336,3.14941l-2.01562,.27295c-.08398-1.23877-.23047-2.05762-.5459-3.17041l1.86816-.25195Zm2.39453-8.88135v-.92383h-2.77148v.92383h2.77148Zm0,2.30957v-.90283h-2.77148v.90283h2.77148Zm.46094,6.40381c.46289,1.02881,.67188,1.5957,.9873,2.83447l-1.84766,.41992c-.29395-1.34375-.44043-1.84766-.88184-2.91846l1.74219-.33594Zm4.41016-6.40381v-.90283h-2.83496v.90283h2.83496Z" fill="#44c38b"/>
        <path d="M107.16766,114.27944c-.16797,2.89746-.37793,4.43018-.83984,6.27783l-1.88965-.73486c.50391-1.72168,.73535-3.27539,.86035-5.85791l1.86914,.31494Zm-2.625-3.19141c.44141,.04199,.90332,.06299,1.30273,.06299,.08398,0,.18848,0,.33594-.021,.41992-.5249,.56641-.75586,1.02832-1.38574q-.10449-.14697-.29395-.39893c-.77734-1.0918-1.44922-1.86865-2.45703-2.85547l1.17578-1.72168q.33594,.35693,.67188,.73486c.50391-.88184,.56738-1.02881,.83984-1.6167,.4834-1.15479,.63086-1.51172,.71484-1.86865l2.01562,.73486c-.12695,.16797-.18945,.31494-.35742,.65088-.60938,1.30176-1.25977,2.45654-1.97363,3.59033,.41992,.5249,.52441,.65088,.79785,1.0498,1.0918-1.67969,1.86914-3.10742,2.09961-3.84229l1.93164,.98682c-.14648,.20996-.29395,.44092-.58789,.94482-.73438,1.28076-2.18359,3.42236-3.31738,4.91309,1.21777-.06299,1.5752-.08398,2.28809-.14697-.23047-.58789-.35645-.86084-.75586-1.70068l1.5332-.60889c.75586,1.49072,1.30176,2.75049,1.78516,4.15723l-1.76367,.73486c-.12695-.41992-.12695-.44092-.23145-.86084q-.73535,.08398-1.49121,.14697v6.65576c0,1.02881,.02148,1.55371,.12695,2.20459h-2.28906c.10547-.73486,.12598-1.25977,.12598-2.22559v-6.4668q-.75586,.04199-2.0791,.12598c-.44043,.04199-.65039,.06299-.96484,.12598l-.21094-2.09961Zm7.39062,2.79248c.35742,1.53271,.58789,2.83447,.88281,5.06006l-1.72266,.39893c-.18848-2.01562-.39844-3.42236-.79688-5.03906l1.63672-.41992Zm2.28906-4.93408c-.48242,.41992-.69336,.56689-1.30176,.98682-.31543-.81885-.5459-1.17578-1.19629-1.88965,1.28027-.81885,1.78418-1.23877,2.64453-2.1626,.9668-1.00781,1.67969-2.12061,2.31055-3.52734h2.28809c.73535,1.51172,1.5752,2.60352,2.89746,3.7793,.83984,.73486,1.5332,1.23877,2.56152,1.82666-.5459,.75586-.81934,1.30176-1.07129,2.12061-.71289-.48291-.96484-.65088-1.46875-1.0708v1.46973c-.50391-.06299-.9873-.08398-1.89062-.08398h-3.88379c-.83984,0-1.34375,.021-1.88965,.08398v-1.53271Zm1.42773,12.53467h-2.26758c.0625-.71387,.10547-1.38574,.10547-2.1626v-5.14404c0-1.0498-.02148-1.36475-.08398-1.91064,.52441,.04199,.98633,.06299,1.80469,.06299h5.94238c.81934,0,1.32324-.021,1.72168-.06299-.0625,.5249-.08398,.94482-.08398,1.88965v4.93408c0,1.02881,.04199,1.91064,.10547,2.39355h-2.35156v-1.17578h-4.89258v1.17578Zm4.53516-13.05957c.48242,0,.71387,0,.96582-.021-1.44824-1.28076-2.37207-2.33057-3.27539-3.82129-.92383,1.57471-1.80566,2.6875-3.02344,3.82129,.37793,.021,.58789,.021,1.0918,.021h4.24121Zm-4.53516,9.86816h4.91309v-4.01025h-4.91309v4.01025Z" fill="#44c38b"/>
        <path d="M134.8659,112.38979h1.44824c.88281,0,1.30273-.021,1.80664-.10498v2.20459c-.50391-.06299-.90332-.08398-1.65918-.08398h-1.0498c.88184,1.17578,1.46973,1.67969,2.77148,2.39355-.58789,.62988-.71387,.79785-1.21777,1.65869-.9873-.75586-1.5957-1.40674-2.1416-2.26758q.04199,.44092,.0625,1.38574v2.05762c0,.77686,.04297,1.51172,.10547,1.84766h-2.28906c.04297-.27295,.10547-1.19678,.10547-1.80566v-1.78467c0-.46191,.02148-1.00781,.04199-1.34375-.92383,1.67969-1.49121,2.37256-2.6875,3.38037-.46191-.73486-.83984-1.19678-1.44824-1.70068,1.7002-1.17578,2.70801-2.28857,3.48438-3.82129h-1.19629c-.88184,0-1.25977,.021-1.82715,.10498v-2.22559c.50391,.08398,.94531,.10498,1.82715,.10498h1.78418v-1.51172h-1.78418c-.88184,0-1.34375,.021-1.82715,.10498v-2.22559c.37891,.06299,1.07129,.10498,1.76367,.10498h.37891c-.21094-.90283-.37891-1.46973-.75586-2.28857l1.67969-.60889h-1.28125c-.62988,0-.92383,.021-1.40625,.10498v-2.22559c.50391,.08398,.90234,.10498,1.76367,.10498h1.44824v-.23096c0-.69287-.04199-1.0708-.10449-1.53271h2.39258c-.08398,.46191-.10449,.77686-.10449,1.53271v.23096h1.36426c.86133,0,1.25977-.021,1.80664-.10498v2.20459c-.35742-.06299-.81934-.08398-1.42773-.08398h-4.32617c.39941,.88184,.46289,1.11279,.79883,2.30957l-1.63867,.58789h2.79297c.48242-1.00781,.73438-1.76367,.98633-2.87646l1.93164,.56689c-.35645,.98682-.58789,1.51172-.98633,2.30957h.31445c.79883,0,1.17578-.021,1.63867-.08398v2.18359c-.52539-.06299-1.00781-.08398-1.80664-.08398h-1.53223v1.51172Zm5.12305,2.26758c-.50391,0-.79785,.021-1.28027,.06299,.0625-.58789,.08398-1.00781,.08398-2.18359v-7.64258c0-.83984-.04297-1.6167-.10547-2.05762,.58789,.06299,1.11328,.08398,2.05762,.08398h4.53516c1.00781,0,1.49121-.021,2.03613-.08398-.0625,.62988-.08398,1.23877-.08398,2.28857v7.39062c0,.92383,.02148,1.70068,.08398,2.22559-.6084-.06299-1.1123-.08398-1.93164-.08398h-.10449v4.05225c0,.29395,.12598,.37793,.50391,.37793,.88184,0,.90332-.06299,.90332-2.81348,.81836,.46191,1.1543,.60889,1.91016,.83984-.04199,1.6377-.16797,2.6665-.41992,3.19141-.31445,.67188-.98633,.90283-2.66602,.90283-1.86914,0-2.31055-.27295-2.31055-1.42773v-5.12305h-.81836c-.31445,3.54834-1.6582,5.47998-4.89258,7.0127-.44043-.81885-.75586-1.19678-1.42773-1.80566,1.65918-.62988,2.64648-1.34375,3.33887-2.41455,.5459-.81885,.77637-1.5957,.83984-2.79248h-.25195Zm.88184-8.31445h4.2207v-1.38574h-4.2207v1.38574Zm0,3.2334h4.2207v-1.44873h-4.2207v1.44873Zm0,3.2334h4.2207v-1.44873h-4.2207v1.44873Z" fill="#44c38b"/>
        <path d="M156.74774,114.67836c-.31445,3.2124-.79688,4.97607-1.95215,6.92871-.86035-1.0918-1.0498-1.30176-1.82715-1.80566,1.49121-2.43555,1.78516-4.72412,1.78516-14.00439,0-1.57471-.02148-2.26758-.12598-2.98145,.73535,.06299,1.21777,.08398,2.37207,.08398h2.98242c1.17578,0,1.7002-.021,2.30859-.08398-.04102,.48291-.0625,1.17578-.0625,2.20459v14.15137l-.02148,.37793c1.34375-2.05762,1.72266-4.72412,1.72266-11.98877,0-3.42236-.02148-3.96826-.10547-4.74512,.65039,.08398,1.28125,.10498,2.30957,.10498h3.33887c1.13281,0,1.6582-.021,2.26758-.10498-.06348,.5249-.08398,1.17578-.08398,2.30957v13.66846c0,1.99463-.60938,2.47754-3.02344,2.47754-.37891,0-.73535-.021-1.49121-.06299-.04199-.88184-.20996-1.53271-.56738-2.33057,.73535,.12598,1.23926,.16797,1.93164,.16797,.77734,0,.90332-.10498,.90332-.69287v-3.71631h-3.50684c-.29297,3.12842-.88086,5.10205-2.05664,6.84473-.73535-.90283-1.00781-1.17578-1.67969-1.67969-.08398,.41992-.16797,.60889-.39941,.81885-.41992,.46191-.92383,.56689-2.60352,.56689-.44043,0-.67188,0-1.30176-.021-.10547-.83984-.20996-1.32275-.56641-2.26758,.86035,.12598,1.53223,.18896,1.99414,.18896,.56641,0,.71387-.14697,.71387-.62988v-3.7793h-3.25488Zm.18945-4.99707q-.02148,1.74268-.08398,3.02344h3.14941v-3.02344h-3.06543Zm3.06543-4.76611h-3.04395v2.81348h3.04395v-2.81348Zm6.11035,4.78711c-.02148,.41992-.02148,.75586-.02148,.94482q-.02148,.94482-.0625,2.07861h3.37988v-3.02344h-3.2959Zm3.2959-4.76611h-3.27539v2.81348h3.27539v-2.81348Z" fill="#44c38b"/>
        <path d="M185.16082,119.65444c-.9873-1.0918-1.36426-1.51172-2.0791-2.1416-1.1123,1.6167-2.24609,2.72949-3.96777,3.90527-.41992-.67188-.88184-1.30176-1.51172-1.95264,1.67969-1.00781,2.72949-1.97363,3.75879-3.42236-1.0918-.88184-1.65918-1.28076-3.21289-2.24658,.75586-1.76367,1.28125-3.46436,1.82617-5.66895h-.50391c-.54492,0-1.04883,.04199-1.51172,.10498v-2.26758c.54688,.10498,1.05078,.12598,1.84766,.12598h.58789c.27344-1.65869,.44141-3.00244,.44141-3.7793v-.23096l2.47754,.18896c-.08398,.31494-.10449,.44092-.23145,1.34375-.125,.86084-.23047,1.51172-.41992,2.47754h1.82715c.75586,0,1.23926-.021,1.76367-.08398q-.02051,.41992-.08398,1.28076c-.16797,3.04443-.81934,5.85791-1.91113,8.18848,.9668,.79785,1.34375,1.11279,2.35156,2.1416l-1.44824,2.03662Zm-2.93945-11.52686q-.06348,.31494-.23145,.94482c-.23047,.98682-.6084,2.26758-1.1543,3.84229,.83984,.56689,1.1543,.79785,1.6582,1.15479,.81934-1.76367,1.17578-3.10742,1.51172-5.94189h-1.78418Zm10.51855,10.93896c0,1.84766-.54492,2.26758-2.87598,2.26758-.6084,0-1.25977-.021-2.18359-.08398-.10449-.96582-.20996-1.42773-.56738-2.37256,1.00781,.14697,1.80664,.23096,2.37305,.23096,.73438,0,.90234-.06299,.90234-.39893v-5.62695h-2.12012c-.81934,0-1.49121,.04199-2.1416,.12598v-2.39355c.50391,.08398,.96582,.10498,2.07812,.10498h2.18359v-.71387c0-.81885-.04102-1.23877-.125-1.99463h.83984c1.1543-1.00781,1.67969-1.6167,2.49805-2.85547h-4.66113c-.83984,0-1.6377,.04199-2.26758,.10498v-2.39355c.5459,.08398,1.30176,.12598,2.33105,.12598h4.84961c.94531,0,1.40625-.021,1.82617-.10498l1.15527,1.46973c-.16797,.16797-.23145,.25195-.41992,.50391-1.74316,2.39355-2.26758,3.04443-3.6748,4.36719v1.49072h2.5625c.90234,0,1.44824-.04199,2.07812-.12598v2.41455c-.65039-.08398-1.21777-.12598-2.07812-.12598h-2.5625v5.98389Z" fill="#44c38b"/>
        <path d="M218.88446,110.58413c-.125,.20996-.23047,.41992-.58789,1.21777-.83984,1.84766-1.76367,3.29639-3.10742,4.78711,1.78516,1.19678,3.59082,1.91064,6.38281,2.54053-.56641,.71387-.88086,1.32275-1.28027,2.37256-1.23926-.37793-2.56152-.92383-3.7998-1.51172-1.15527-.56689-1.99512-1.0708-2.96094-1.82666-.83984,.69287-1.6377,1.23877-2.64551,1.78467-1.1123,.60889-1.80566,.90283-3.75879,1.6167-.44043-.96582-.69238-1.32275-1.38477-2.12061,2.47656-.62988,4.45117-1.53271,6.10938-2.79248-1.25977-1.32275-2.16211-2.58252-2.79297-3.96826-.50391,1.42773-1.0918,2.6875-1.97266,4.17822-1.00781,1.65869-1.99512,2.87646-3.54883,4.3042-.62988-.81885-.98633-1.19678-1.78516-1.78467,2.20508-1.93164,3.42285-3.52734,4.47266-5.8999,.81836-1.86865,1.25977-3.54834,1.6582-6.34082h-3.14844c-1.15527,0-2.0791,.04199-2.5625,.12598v-2.43555c.75586,.08398,1.49121,.12598,2.5625,.12598h3.35938c.04102-.48291,.0625-1.30176,.0625-1.80566,0-.39893-.02148-.73486-.08398-1.13379l2.66602,.06299c-.0625,.39893-.125,.90283-.16797,1.49072-.0625,.79785-.0625,.96582-.10449,1.38574h8.20996c1.07031,0,1.80469-.04199,2.56055-.12598v2.43555c-.73438-.10498-1.36426-.12598-2.56055-.12598h-8.44141c-.125,1.00781-.18848,1.38574-.33594,2.26758h5.94238c.94434,0,1.40723-.021,1.86816-.10498l1.17578,1.28076Zm-8.08301,.88184c.71387,1.51172,1.46973,2.56152,2.66699,3.71631,1.00781-1.0918,1.82617-2.30957,2.47656-3.71631h-5.14355Z" fill="#44c38b"/>
        <path d="M231.08758,115.5812c.02148-.44092,.04199-.65088,.04199-.90283q0-.23096-.06348-1.49072l-.29297-7.13867c-.04297-.92383-.10547-1.97363-.18945-2.56152h3.44336c-.0625,.56689-.14648,1.65869-.18945,2.56152l-.29297,7.13867q-.04297,1.21777-.04297,1.51172c0,.25195,0,.46191,.04297,.88184h-2.45703Zm-.29395,4.59814v-2.87646h3.04395v2.87646h-3.04395Z" fill="#44c38b"/>
        <path d="M247.04852,105.71303c-1.00781,.18896-1.46875,.27295-2.85547,.48291-.10449-.60889-.33594-1.21777-.77637-2.01562,2.85547-.31494,4.63965-.71387,6.65527-1.42773,.56738-.20996,.83984-.33594,1.19727-.58789l1.36523,1.93164-.90332,.31494c-1.17578,.41992-1.5957,.5459-2.43555,.77686v2.6875h1.34375c.88184,0,1.34375-.021,1.84766-.12598v2.28857c-.5459-.08398-1.0918-.10498-1.86816-.10498h-1.11328c.65039,.96582,1.5332,1.93164,2.89746,3.12842-.37793,.56689-.73535,1.32275-1.00781,2.1416-.75586-.73486-1.53223-1.76367-2.2041-2.91846,.02051,.25195,.02051,.44092,.04102,.56689q.06348,.71387,.06348,1.99463v4.03125c0,1.42773,.02051,1.97363,.12598,2.6665h-2.54102c.10547-.81885,.14746-1.46973,.14746-2.6665v-3.38037c0-.29395,.04199-1.19678,.16797-2.7085-.79785,2.03662-1.86816,3.82129-3.19141,5.29102-.35645-.94482-.65137-1.53271-1.15527-2.18359,.92383-.98682,1.30273-1.44873,1.97461-2.47754,.83984-1.32275,1.07031-1.72168,1.7207-3.2124,.02148-.06299,.06348-.14697,.12695-.27295h-1.38672c-.73438,0-1.25977,.021-1.84766,.10498v-2.28857c.58789,.10498,1.11328,.12598,1.95312,.12598h1.6582v-2.1626Zm11.10742-2.62451q-.12598,.31494-.88184,3.7373c-.83984,3.7793-2.09961,8.35645-3.12793,11.25391,1.7207-.16797,4.24023-.5459,5.56348-.81885-.71387-2.1626-1.6377-4.38818-2.56152-6.08887l2.01562-.73486c1.6377,2.85547,2.91797,6.06787,3.98926,9.91016l-2.35156,.77686c-.20996-.90283-.27246-1.19678-.46191-1.84766-2.6875,.5459-4.8291,.88184-8.54492,1.36475-.50391,.06299-.81934,.10498-1.11328,.16797l-.44141-2.47754c.14746,.021,.21094,.021,.41992,.021q.23145,0,1.05078-.04199c1.17578-3.46436,2.05664-6.67676,2.83398-10.30908,.65039-2.91846,.90234-4.47217,.90234-5.375l2.70898,.46191Z" fill="#44c38b"/>
        <path d="M274.20086,114.13247q-1.57422,.021-2.01562,.08398v-2.09961c.37891,.06299,1.07129,.08398,2.12109,.08398h3.16992v-1.36475h-5.62695c-.10449,2.85547-.20898,3.92627-.62891,5.66895-.50391,2.20459-1.13477,3.59033-2.22656,4.97607-.48242-.69287-.90234-1.11279-1.74219-1.72168,.98633-1.21777,1.49023-2.37256,1.93164-4.53516,.27344-1.34375,.46191-3.96826,.46191-6.55078,0-1.82666,0-2.12061-.10449-2.85547,.48242,.06299,1.19629,.08398,2.33008,.08398h11.63184c.92383,0,1.44824-.021,1.91113-.06299-.04297,.39893-.06348,.77686-.06348,1.49072v1.97363c0,.75586,.02051,1.21777,.06348,1.5957-.54688-.04199-1.15527-.06299-1.89062-.06299h-3.8418v1.36475h4.74512c1.00781,0,1.5752-.021,2.12012-.10498v2.12061c-.62891-.06299-1.1543-.08398-2.12012-.08398h-6.31934c-.08398,.56689-.12695,.81885-.21094,1.30176h5.27051c1.0498,0,1.40723-.021,1.86816-.08398q-.04102,.33594-.20898,2.05762c-.31543,3.46436-.77734,3.90527-4.05273,3.90527q-.37793,0-1.95312-.08398c-.04102-.83984-.125-1.23877-.48242-2.1416,1.00781,.14697,1.91016,.20996,2.79297,.20996,.54492,0,.88086-.10498,1.04883-.33594,.10547-.14697,.21094-.5249,.25195-.98682,0,0,.04297-.23096,.08398-.67188h-5.26953c-1.0293,1.97363-2.58203,3.33838-5.06055,4.38818-.29297-.73486-.69238-1.28076-1.38477-1.93164,1.78418-.58789,2.85547-1.30176,3.75781-2.45654,.69336-.86084,1.1543-2.03662,1.25977-3.17041h-1.61719Zm12.53516-9.17529c-.75586-.08398-1.46973-.10498-2.49805-.10498h-13.48047c-1.1123,0-1.78418,.021-2.49805,.10498v-2.26758c.65039,.08398,1.44922,.12598,2.58203,.12598h13.29102c1.21777,0,2.03711-.04199,2.60352-.12598v2.26758Zm-3.61133,4.05225v-1.25977h-11.23242v.48291c0,.37793,0,.5459-.02148,.77686h11.25391Z" fill="#44c38b"/>
        <path d="M298.77118,117.76479c-1.46973,1.51172-3.06543,2.64551-5.12305,3.59033-.41992-.73486-.88184-1.30176-1.46973-1.78467,2.03613-.71387,3.48535-1.5957,4.74512-2.91846l1.84766,1.11279Zm-2.43555-8.5874c-.92383,0-1.49023,.021-2.16211,.08398,.0625-.5459,.08398-1.0708,.08398-1.82666v-2.96045c0-.77686-.02148-1.28076-.08398-1.80566,.67188,.06299,1.1543,.08398,2.24609,.08398h10.51953c.98633,0,1.53223-.021,2.22461-.08398-.0625,.5249-.08398,.96582-.08398,1.80566v2.96045c0,.83984,.02148,1.25977,.08398,1.80566-.58789-.04199-1.17578-.06299-1.93164-.06299h-4.59766v.86084h6.34082c.90332,0,1.5752-.04199,2.22559-.12598v1.93164c-.67188-.06299-1.38574-.10498-2.22559-.10498h-14.5293c-.81934,0-1.51172,.04199-2.2041,.10498v-1.93164c.67188,.08398,1.36426,.12598,2.2041,.12598h5.94238v-.86084h-4.05273Zm.58789,7.47461c-.83984,0-1.5332,.021-2.22559,.08398,.06348-.50391,.08398-.88184,.08398-1.5957v-1.13379c0-.65088-.02051-1.0708-.08398-1.5957,.65137,.06299,1.32324,.08398,2.22559,.08398h9.55273c.90332,0,1.5752-.021,2.22656-.08398-.06348,.50391-.08398,.90283-.08398,1.5957v1.19678c0,.69287,.02051,1.0708,.08398,1.53271-.75586-.06299-1.34375-.08398-2.22656-.08398h-3.52734v2.91846c0,1.53271-.54492,1.88965-3.00195,1.88965-.27344,0-.90234-.021-1.6582-.04199-.04297-.75586-.16797-1.30176-.46289-2.03662,.75586,.10498,1.42773,.14697,2.0791,.14697,.62988,0,.77637-.10498,.77637-.58789v-2.28857h-3.75781Zm-.50391-11.37988h10.49805v-.92383h-10.49805v.92383Zm0,2.37256h10.49805v-.94482h-10.49805v.94482Zm.52539,6.40381v1.00781h9.49023v-1.00781h-9.49023Zm9.32227,2.60352c1.57422,1.40674,2.70801,2.05762,4.93359,2.85547-.69336,.67188-1.07031,1.17578-1.44922,1.88965-2.2041-1.02881-3.42188-1.86865-5.12305-3.52734l1.63867-1.21777Z" fill="#44c38b"/>
        <path d="M316.09735,120.51528c.81934-1.15479,1.07129-1.78467,1.40723-3.35938l1.76367,.50391c-.41992,1.88965-.67188,2.62451-1.36426,3.92627l-1.80664-1.0708Zm2.66699-7.07568c-1.00781,0-1.28027,.021-1.86816,.08398v-2.03662c.54492,.08398,.98633,.10498,1.88867,.10498h1.72266v-1.00781h-1.74316c-.79785,0-1.30176,.021-1.86816,.08398,.0625-.56689,.08398-1.0918,.08398-1.91064v-4.2832c0-.79785-.02148-1.21777-.08398-1.82666,.65039,.08398,1.07031,.10498,1.82617,.10498h5.33301c.73535,0,1.25977-.021,1.88965-.10498-.0625,.58789-.08398,1.0498-.08398,1.78467v4.43018c0,.88184,.02148,1.25977,.0625,1.78467-.50391-.04199-.96484-.06299-1.84766-.06299h-1.6582v1.00781h1.57422c.9668,0,1.40723-.021,1.91113-.08398v1.99463c-.58789-.04199-1.17578-.06299-1.93164-.06299h-1.55371v1.11279q.73438-.06299,3.65332-.39893v1.80566q-4.74512,.65088-8.35645,.98682c-.31445,.021-.69336,.08398-1.0918,.14697l-.29395-2.28857c.25195,.021,.4834,.021,.75586,.021,1.00781,0,1.21777,0,3.42285-.14697v-1.23877h-1.74316Zm-.02051-8.86035v.88184l1.1123-.41992c.39941,1.02881,.56738,1.65869,.73535,2.7085v-3.17041h-1.84766Zm1.84766,3.33838l-1.15527,.46191c-.16797-1.23877-.25195-1.6167-.69238-2.75049v3.14941h1.84766v-.86084Zm-.69336,13.4375c.02148-.62988,.02148-.94482,.02148-1.23877,0-.96582-.04297-1.57471-.21094-2.60352l1.70117-.23096c.25195,1.25977,.33594,2.05762,.37793,3.80029l-1.88965,.27295Zm2.64551-.67188c-.08398-1.38574-.23145-2.28857-.56738-3.40137l1.55469-.29395c.44043,1.36475,.54492,1.88965,.75586,3.25439l-1.74316,.44092Zm-.20996-12.84961c.50391-1.25977,.60938-1.74268,.75586-2.79248l1.0918,.39893v-.86084h-1.84766v3.25439Zm0,.94482h1.84766v-3.10742c-.20996,1.0918-.37793,1.67969-.79785,2.6665l-1.0498-.39893v.83984Zm2.75,11.04395c-.16797-.96582-.25195-1.23877-.83984-2.85547l1.42773-.33594c.41992,.88184,.71484,1.6377,.9668,2.62451l-1.55469,.56689Zm8.25195-8.52441c.69336,0,1.21777-.021,1.76367-.08398-.0625,.69287-.08398,1.30176-.08398,2.18359v5.29102c0,1.19678,.04199,1.97363,.12598,2.7085h-2.28809v-1.0918h-4.01074v1.0708h-2.24707c.08398-.58789,.10547-1.21777,.10547-2.56152v-5.75293c0-.88184-.02148-1.36475-.0625-1.84766,.52441,.06299,.98633,.08398,1.82617,.08398h.75586v-6.67676c0-1.13379-.02148-1.67969-.12598-2.37256h2.51953c-.10449,.67188-.12598,1.19678-.12598,2.37256v1.13379h2.28906c.90234,0,1.36426-.021,1.88867-.10498v2.43555c-.58789-.08398-1.02832-.10498-1.88867-.10498h-2.28906v3.31738h1.84766Zm-4.49316,6.78174h4.01074v-4.68213h-4.01074v4.68213Z" fill="#44c38b"/>
        <path d="M351.10321,111.86489c.77734-.94482,1.15527-1.28076,2.0791-1.86865,1.28027-.79785,2.22559-1.0918,3.44336-1.0918,.96582,0,1.80566,.18896,2.70801,.62988q.54688,.27295,1.91113,1.15479c1.5957,1.02881,2.70801,1.46973,3.71582,1.46973,.44141,0,1.05078-.16797,1.55469-.39893,.90234-.46191,1.44824-.92383,2.18359-1.91064l1.67969,1.67969c-.86133,1.0918-1.30273,1.53271-1.99512,2.03662-1.07129,.79785-2.26758,1.19678-3.63184,1.19678-.63086,0-1.28125-.10498-1.84766-.29395-.81934-.27295-1.23926-.48291-2.87695-1.55371-1.84766-1.17578-2.49805-1.42773-3.61133-1.42773-1.36523,0-2.33008,.50391-3.65332,1.93164l-1.65918-1.55371Z" fill="#44c38b"/>
        <path d="M378.17157,106.06997c-1.07031,0-1.76367,.021-2.54004,.12598v-2.30957c.73535,.10498,1.51172,.14697,2.6875,.14697h5.54297c-.02051-.86084-.04199-1.21777-.14746-1.88965h2.5625c-.10547,.65088-.12695,1.0918-.12695,1.88965h5.73242c1.30176,0,2.09961-.04199,2.75-.14697v2.30957c-.69238-.08398-1.57422-.12598-2.60352-.12598h-5.87891v1.17578h4.38867c1.28125,0,1.67969-.021,2.33008-.08398-.0625,.62988-.08398,1.32275-.08398,2.12061v3.88428q0,1.17578,.08398,2.1416c-.6084-.08398-1.19629-.10498-2.35156-.10498h-2.51953c1.86914,1.76367,4.09473,2.85547,7.28613,3.59033-.5459,.83984-.73535,1.21777-1.19629,2.22559-1.70117-.56689-2.96094-1.13379-4.30469-1.91064-1.55371-.92383-2.54102-1.72168-3.67383-3.02344,.02051,.69287,.04102,1.0918,.04102,1.44873v1.51172c0,1.0708,.02148,1.67969,.14746,2.39355h-2.58301c.10547-.81885,.14746-1.42773,.14746-2.39355v-1.51172c0-.25195,.02051-1.02881,.04199-1.42773-1.07031,1.32275-2.35156,2.37256-4.00977,3.31738-1.00781,.58789-2.33105,1.17578-3.59082,1.6167-.46191-1.0498-.65137-1.40674-1.17578-2.12061,1.5752-.44092,2.66699-.86084,3.94727-1.55371s2.28809-1.42773,3.00293-2.1626h-2.26758c-1.30273,0-1.72266,.021-2.37305,.10498q0-.20996,.0625-.60889,0-.08398,.02148-1.53271v-3.86328c0-1.0918-.02148-1.42773-.08398-2.1626,.56641,.08398,1.07031,.10498,2.28906,.10498h4.13574v-1.17578h-5.69043Zm1.5752,2.98145v1.28076h4.11523v-1.28076h-4.11523Zm0,3.02344v1.32275h4.11523v-1.32275h-4.11523Zm6.40332-1.74268h4.41016v-1.28076h-4.41016v1.28076Zm0,3.06543h4.41016v-1.32275h-4.41016v1.32275Z" fill="#44c38b"/>
        <path d="M406.29071,115.39223c-1.5957,2.51953-2.64551,3.61133-5.06055,5.41699-.48242-.79785-.81836-1.21777-1.49023-1.82666,1.36523-.83984,1.95312-1.30176,2.75-2.12061,.77734-.79785,1.17578-1.36475,1.84766-2.58252l1.95312,1.11279Zm1.82617-11.69482c0-.56689-.04102-1.0498-.125-1.53271h2.60352c-.08398,.41992-.12695,.88184-.12695,1.51172v.62988h6.00586c1.0918,0,1.80469-.04199,2.45605-.14697v2.37256c-.58789-.10498-1.15527-.12598-2.30957-.12598h-14.25586c-1.13477,0-1.65918,.021-2.26758,.12598v-2.37256c.6084,.10498,1.38477,.14697,2.51953,.14697h5.5v-.60889Zm-3.7793,10.2251c-.92383,0-1.32227,.021-1.88867,.06299,.0625-.5249,.08398-.92383,.08398-1.65869v-3.00244c0-.71387-.02148-1.0918-.02148-1.13379,0-.021-.02148-.12598-.04199-.29395,0-.06299,0-.14697-.02051-.27295q.16797,.021,.50391,.04199c.18848,.021,.86035,.04199,1.38477,.04199h10.09961q1.44922-.021,1.91016-.08398c-.0625,.50391-.08398,.94482-.08398,1.70068v3.00244c0,.73486,.02148,1.0918,.06348,1.65869-.4834-.04199-1.0918-.06299-1.91113-.06299h-3.67383v5.24902c0,1.6167-.69336,2.07861-3.16992,2.07861-.33594,0-.54688,0-1.70117-.021-.10547-.92383-.25195-1.46973-.60938-2.24658,.88281,.12598,1.55469,.18896,2.28906,.18896,.71387,0,.86133-.08398,.86133-.44092v-4.80811h-4.07422Zm.41992-2.07861h9.28125v-2.1626h-9.28125v2.1626Zm9.49023,2.45654c.79883,1.21777,1.23926,1.74268,2.0791,2.49854,.86035,.79785,1.51172,1.23877,2.89746,1.99463-.65039,.67188-1.0293,1.19678-1.49023,2.01562-1.44922-.98682-2.05859-1.51172-3.12891-2.60352-.86133-.92383-1.30176-1.46973-2.18359-2.72949l1.82617-1.17578Z" fill="#44c38b"/>
        <path d="M438.08368,119.19252c0,1.02881,.02051,1.51172,.08398,2.01562h-2.18359c.0625-.56689,.08398-1.0498,.08398-2.01562v-.83984h-1.80664v.83984c0,1.00781,.02148,1.49072,.08398,2.01562h-2.18359c.06348-.5249,.08398-1.02881,.08398-2.01562v-.83984h-1.76367v1.25977c0,.90283,.02148,1.40674,.10547,1.97363h-2.33008c.08398-.56689,.10449-1.02881,.10449-1.99463v-3.50635c0-.62988-.02051-1.17578-.04199-1.67969-.39844,3.00244-1.0293,4.64014-2.51953,6.71875-.50391-.79785-.92383-1.21777-1.72168-1.74268,1.15527-1.38574,1.76367-2.72949,2.09961-4.66113,.23145-1.28076,.35645-3.29639,.35645-5.16504,0-.94482-.04102-1.86865-.10449-2.60352-.27246,.27295-.41992,.37793-.86035,.75586-.56738-.73486-.77734-.98682-1.49121-1.57471,1.0498-.81885,1.53223-1.28076,2.09961-2.07861,.5459-.75586,.90332-1.42773,1.13379-2.12061l2.24609,.37793c-.14648,.29395-.35645,.65088-.58789,1.11279h2.75098c1.02832,0,1.5752-.021,2.05762-.12598v1.82666c.79785-.92383,1.38574-2.01562,1.70117-3.10742l2.2041,.39893c-.23145,.5249-.29395,.67188-.46191,1.00781h3.8418c1.19727,0,1.67969-.021,2.28906-.10498v1.97363c-.65039-.06299-1.25977-.10498-2.20508-.10498h-1.6582c.10547,.14697,.16797,.27295,.20996,.33594,.25195,.37793,.27246,.41992,.39941,.67188,.23047-.04199,.31445-.06299,.56641-.14697l1.46973,1.78467q-.46191,.04199-1.53223,.18896c-2.73047,.33594-7.01367,.5249-11.96875,.5249v.71387h11.2334c.9873,0,1.38574-.021,1.78418-.06299-.04102,.41992-.0625,.83984-.0625,1.36475v1.32275c0,.58789,.02148,1.02881,.0625,1.44873-.52441-.04199-.92383-.06299-1.76367-.06299h-11.44238c-.02051,.31494-.04199,.39893-.08398,.71387,.41992,.04199,.96582,.06299,1.88965,.06299h9.97266c1.0918,0,1.49121-.021,2.0791-.08398-.08398,.65088-.10449,1.13379-.10449,2.07861v3.46436c0,1.51172-.41992,1.86865-2.22656,1.86865-.23047,0-.48242,0-1.04883-.04199-.04297-.62988-.12695-1.0498-.31543-1.78467,.46191,.06299,.83984,.10498,1.02832,.10498,.33594,0,.41992-.08398,.41992-.48291v-.81885h-1.97266v.83984Zm-6.9502-14.00439c.41992,.67188,.50391,.81885,.67188,1.17578l-1.93164,.58789c-.31543-.83984-.46191-1.17578-.77637-1.76367h-1.19727c-.52539,.73486-.92383,1.19678-1.44922,1.74268,.90332,.021,1.5332,.04199,2.24707,.04199,1.34375,0,4.01074-.08398,5.64746-.16797-.39844-.35693-.71289-.58789-1.30078-.96582,.29297-.25195,.37695-.35693,.6084-.58789-.37793-.04199-.86035-.06299-1.42773-.06299h-1.0918Zm8.29395,6.57178v-.98682h-10.81348c0,.35693,0,.39893-.04199,.98682h10.85547Zm-7.18164,3.96826h-1.76367v1.0708h1.76367v-1.0708Zm3.82227,1.0708v-1.0708h-1.80664v1.0708h1.80664Zm.18848-11.61084c-.44043,.69287-.73535,1.0708-1.21777,1.57471,.96582-.04199,1.72168-.10498,3.04492-.25195-.23145-.5249-.41992-.88184-.69336-1.32275h-1.13379Zm3.7998,11.61084v-1.0708h-1.97266v1.0708h1.97266Z" fill="#44c38b"/>
        <path d="M448.54364,111.86489c.77637-.94482,1.15527-1.28076,2.0791-1.86865,1.28027-.79785,2.22461-1.0918,3.44336-1.0918,.96484,0,1.80469,.18896,2.70801,.62988q.5459,.27295,1.91113,1.15479c1.5957,1.02881,2.70801,1.46973,3.71582,1.46973,.44043,0,1.0498-.16797,1.55371-.39893,.90234-.46191,1.44922-.92383,2.18359-1.91064l1.67969,1.67969c-.86133,1.0918-1.30176,1.53271-1.99414,2.03662-1.07129,.79785-2.26758,1.19678-3.63281,1.19678-.62988,0-1.28125-.10498-1.84766-.29395-.81836-.27295-1.23828-.48291-2.87695-1.55371-1.84766-1.17578-2.49805-1.42773-3.61133-1.42773-1.36426,0-2.33008,.50391-3.65234,1.93164l-1.65918-1.55371Z" fill="#44c38b"/>
      </g>
      <rect width="427.11677" height="75.82553" fill="#fff" opacity=".98"/>
      <g>
        <g>
          <path d="M84.22849,53.37384l.52514-1.51893,.52405-1.519,.52898-1.51632,.52913-1.51707,.53713-1.51704,.52143-1.52218,.53111-1.51731,.5292-1.51915,.52028-1.52419,.53159-1.51837,.53037-1.52078,.52753-1.52082,.53871-1.51854,.51513-1.52192,.53679-1.51443,.53227-1.52163,.5225-1.52221,.52936-1.52212,.53539-1.52194,.52755-1.52223,.52393-1.52749,.52935-1.52836,.53976-1.52201,1.85454-.01046,1.85978,.00695,1.86314-.00528,.52427,1.52562,.52382,1.51908,.5345,1.5144,.52714,1.51776,.52475,1.52134,.52859,1.51969,.53095,1.51737,.52354,1.52112,.52967,1.52093,.53664,1.51661,.52359,1.52314,.5265,1.52117,.53407,1.52015,.52583,1.5182,.52948,1.51698,.5315,1.5219,.52996,1.51962,.53234,1.52108,.52646,1.52505,.52447,1.52331,.53505,1.52362,.53482,1.52646,.52769,1.53135-1.55725,.00363-1.55851-.00705-1.56102,.00248-1.55772-.0053-.48532-1.44196-.47326-1.4472-.46657-1.45315-.47746-1.45216-.4829-1.45081-1.57696,.00688-1.57394-.00184-1.57606-.00991-1.57783,.00402-1.57559,.00159-1.57927,.00046-1.58182,.00264-1.58334-.00542-.46991,1.45224-.48544,1.44319-.46863,1.45247-.48611,1.44932-.47419,1.4498-1.56432,.00786-1.57116-.00977-1.5737,.00617-1.57149-.00131Zm10.28644-12.31568l1.55423-.00289,1.55374-.00406,1.55153,.00148,1.55516,.00137,1.55767,.00894,1.55661-.00701-.51345-1.56564-.5173-1.57117-.52601-1.56542-.51475-1.57147-.51717-1.57263-.519-1.56955-.50947-1.57676-.53251-1.57198-.5131-1.58088-.52141,1.56659-.51177,1.57299-.5171,1.56836-.52325,1.56867-.51672,1.57278-.51109,1.57216-.51689,1.57432-.5299,1.57284-.51803,1.57896Z" fill="#44c38b"/>
          <path d="M133.19552,34.36375l-.9685-1.06524-1.25831-.69032-1.42273-.21533-1.62583,.27069-1.40385,.85478-.97786,1.3264-.50875,1.57114-.14863,1.64984-.0031,1.69483,.00576,1.70044,.00109,1.69763-.00772,1.69991,.00094,1.70183-.00021,1.6994,.00062,1.70338,.00493,1.70612-.00439,1.7028-1.80302,.00436-1.80908,.00181-1.80569-.00647-.00015-1.68524-.00429-1.68699-.00052-1.68896,.00437-1.68802-.00359-1.68962,.0041-1.68485-.00787-1.68489,.00357-1.69046,.00328-1.68767-.0044-1.68994,.00206-1.69184-.0035-1.68943,.00178-1.69339-.00212-1.69612,.00134-1.69877,1.77494,.00043,1.77525,.00107,1.77232,.00343,.00167,2.2792,1.08246-1.2344,1.38632-.87722,1.56836-.48742,1.64189-.13391,1.67002,.12233,1.61697,.42712,1.48277,.77032,1.2624,1.09553,1.01503,1.33192-1.43814,1.00852-1.43529,1.01699-1.43673,1.01431Z" fill="#44c38b"/>
          <path d="M160.27069,49.51972l-1.02219,1.44512-1.31119,1.17752-1.54394,.84477-1.68694,.51819-1.7459,.25907-1.76826,.07177-1.6418-.0898-1.61937-.27212-1.5651-.49699-1.46933-.73028-1.32265-.97159-1.12574-1.19349-.8955-1.3736-.67434-1.49432-.44861-1.57767-.2641-1.62026-.07499-1.64134,.00115-1.72362-.004-1.72362,.06673-1.59083,.19377-1.57885,.36008-1.54824,.55355-1.48949,.77839-1.38584,1.02981-1.20799,1.23534-.99545,1.40658-.73432,1.51392-.47917,1.56605-.26669,1.58906-.0774,1.61415,.07832,1.58945,.27592,1.53262,.50098,1.41783,.76547,1.23543,1.03227,1.00249,1.26067,.75333,1.42431,.52574,1.52278,.33383,1.57853,.18365,1.60381,.04751,1.61544,.00483,1.39409,.00259,1.39793-1.68119-.00107-1.68355-.00738-1.68077,.00745-1.68303,.002-1.68492-.00811-1.68252,.00324-1.68646,.00057-1.68918,.0031-1.68933-.00613-.00372,.1039,.10603,1.6938,.35638,1.65509,.71657,1.53105,1.15158,1.23089,1.52113,.723,1.67789,.21234,1.52096-.09143,1.47227-.3866,1.27387-.82297,.95401-1.18144,1.35311,.94068,1.34764,.95389,1.35931,.94017Zm-14.75441-11.66155l1.60926,.00225,1.61285,.00455,1.61055-.00236,1.61432-.00255,1.61692-.00225,1.61531,.00084-.20314-1.65532-.52154-1.58159-.98748-1.329-1.45399-.78491-1.6482-.21644-1.64121,.23276-1.44395,.80239-.9943,1.32369-.55348,1.56469-.23194,1.64324Z" fill="#44c38b"/>
          <path d="M175.27186,38.41701l1.82302-.00077,1.82596,.00217,1.82316-.00024-.00081-2.12671-.12324-1.51749-.61413-1.37679-1.26286-.81482-1.49037-.28699-1.52447-.06223-1.53717,.05473-1.50943,.27732-1.31593,.76222-.95942,1.18596-1.30139-.90685-1.30146-.91354-1.29743-.9164,.918-1.27291,1.15599-1.06402,1.34792-.80419,1.47273-.53795,1.54112-.31804,1.56461-.16291,1.57669-.04156,1.7142,.05108,1.70818,.18957,1.66877,.39832,1.56631,.68947,1.34296,1.0541,.99147,1.38923,.60556,1.59913,.30828,1.6832,.08145,1.71299,.00446,1.70143-.00659,1.69729,.00034,1.7029,.00623,1.70009-.00864,1.70237,.00613,1.70429,.00174,1.70186-.0021,1.70585-.00226,1.7086,.00379,1.71225-1.77592,.00151-1.77525-.01007-1.77122,.00184-.00905-2.32795-1.06529,1.33592-1.43792,.9194-1.65676,.42422-1.71553,.10794-1.69894-.09209-1.66932-.32081-1.5956-.58475-1.44553-.88894-1.17876-1.21945-.83342-1.47642-.46628-1.63197-.13941-1.69405,.1565-1.70668,.50655-1.63294,.91811-1.43925,1.28342-1.12527,1.51868-.78085,1.64108-.48629,1.6945-.25407,1.71397-.08098Zm5.47287,4.16338l-1.68591,.00144-1.6907-.00217-1.6907,.00153-1.60417,.1179-1.52419,.49781-1.08132,1.15678-.3052,1.56966,.31081,1.49936,1.02706,1.12522,1.43785,.53298,1.53636,.14072,1.75945-.13515,1.65614-.58285,1.18635-1.278,.53876-1.66906,.1367-1.76247-.00728-1.21371Z" fill="#44c38b"/>
          <path d="M227.53744,42.27329l-.06543,1.63283-.2264,1.61676-.39969,1.58431-.61045,1.51271-.8379,1.39888-1.07291,1.22719-1.28944,.99657-1.44843,.74524-1.55644,.48781-1.60849,.27149-1.6322,.08568-1.63164-.0918-1.60854-.27334-1.5532-.50189-1.44815-.75093-1.28718-1.00049-1.08766-1.21456-.84854-1.39227-.62502-1.50587-.41309-1.57878-.22462-1.61718-.07158-1.63235,.005-1.59683-.00742-1.59683,.0732-1.63382,.21327-1.61999,.40372-1.58308,.61555-1.51201,.85468-1.39053,1.08683-1.21549,1.2986-.98566,1.45548-.73414,1.55866-.4814,1.60936-.27134,1.63228-.08008,1.63017,.0771,1.60678,.2741,1.55593,.48467,1.4513,.73921,1.29231,.98862,1.08721,1.21156,.83917,1.39501,.60727,1.50978,.39681,1.58055,.21761,1.61582,.066,1.63111-.00864,1.59683,.00586,1.59683Zm-5.37478-.15204l-.00275-1.47011,.0061-1.47011-.095-1.65774-.33433-1.62499-.68712-1.50504-1.12871-1.20121-1.48957-.7025-1.64161-.19985-1.65115,.19701-1.49998,.70125-1.13466,1.20276-.70232,1.50304-.33864,1.62449-.09587,1.66279-.0012,1.47011-.00327,1.47011,.09794,1.68952,.32443,1.65618,.68054,1.54078,1.13406,1.2364,1.51539,.71899,1.67473,.20336,1.65472-.21763,1.48202-.75792,1.1112-1.2387,.67573-1.52547,.34643-1.63429,.10288-1.67124Z" fill="#44c38b"/>
          <path d="M234.73627,28.02952l-.00539-1.57278,.0723-1.69234,.26134-1.67097,.56462-1.59219,.99551-1.35678,1.4031-.92952,1.60359-.52632,1.67504-.22329,1.69172-.07573,1.57146,.0068-.00602,1.62036,.00312,1.62309,.00086,1.62154-1.1638,.00314-1.56375,.19866-1.23189,.92275-.42679,1.50509-.07577,1.5795,.00279,.55842,1.48572-.00452,1.48783-.00054,1.48773,.00439-.00489,1.5529,.00404,1.55549-.00344,1.5513-1.48105,.00353-1.48783,.00638-1.49104-.00873,.00019,1.59295-.00186,1.58906,.00153,1.59056-.00185,1.58607,.00434,1.58611,.00218,1.59136-.00374,1.58873-.0022,1.59086-.00076,1.59266,.00052,1.59039,.00227,1.59411-.00399,1.59668,.011,1.60164-1.7937,.0005-1.79217-.00753-1.79337,.00343,.00599-1.59131-.00195-1.58906-.00939-1.59056,.0063-1.58607,.00495-1.58611-.00232-1.59136,.00461-1.58873-.00693-1.59086,.00373-1.59266,.00099-1.59039-.0006-1.59411,.00147-1.59668-.00798-1.59432-1.61989-.0018-1.62064-.00221,.0044-1.55135-.00874-1.55549,.00551-1.55264,1.61947,.00336,1.62351-.00489Z" fill="#44c38b"/>
          <path d="M265.50444,46.17239l1.00548,1.0943,1.24175,.80655,1.399,.48516,1.47514,.15507,1.58254-.13936,1.50548-.49514,1.24771-.97176,.85771-1.3323,.51224-1.5035,.2921-1.56184,.14025-1.58134,.0442-1.59235,.00181-1.62503-.00361-1.62412-.0006-1.62566,.01079-1.62107-.00432-1.62111-.00469-1.62647,.00328-1.62379,.00192-1.62597-.00401-1.6278-.00167-1.62548,.00788-1.62929v-1.63191s-.00201-1.62981-.00201-1.62981l1.46404,.00013,1.46982-.00412,1.47219-.00509,1.46956,.00935,.00492,1.62265,.00057,1.62412,.00227,1.62566-.00226,1.62107-.00995,1.62111,.00891,1.62647-.00153,1.62379-.00189,1.62597-.00476,1.6278,.00844,1.62548-.00589,1.62929,.00733,1.63191-.00213,1.63191-.0457,1.63872-.12329,1.63129-.23469,1.62133-.37555,1.59384-.52983,1.54763-.72994,1.46414-.9472,1.33188-1.15802,1.15058-1.3509,.91642-1.49228,.66064-1.57451,.43227-1.61648,.24086-1.6348,.06513-1.69381-.08761-1.67856-.24897-1.62882-.47077-1.55278-.67946-1.42463-.91793-1.26191-1.13094-1.04758-1.32727,1.63461-.93087,1.64233-.92579,1.63634-.9386Z" fill="#44c38b"/>
          <path d="M298.86167,38.41568l1.82302,.00281,1.82596,.00134,1.82678,.00143-.00457-2.12981-.1244-1.51723-.6137-1.37632-1.26429-.80872-1.48828-.29158-1.52426-.05784-1.53713,.04853-1.50801,.28126-1.31651,.75882-.96245,1.19328-1.30064-.91313-1.30213-.91258-1.2992-.91653,.92561-1.27246,1.15157-1.0682,1.34573-.80943,1.47481-.53464,1.54099-.32142,1.56558-.15587,1.57664-.04343,1.71443,.0486,1.70681,.19995,1.66832,.39639,1.56965,.68155,1.34121,1.05709,.98839,1.39084,.60922,1.59738,.30253,1.6839,.0894,1.71244-.00002,1.70143-.00078,1.69729-.00082,1.7029-.0059,1.70009,.00632,1.70237,.00099,1.70429-.0004,1.70186-.00328,1.70585,.00479,1.7086-.00313,1.70962-1.77339-.00616-1.77525,.00804-1.77597-.00237-.00108-2.33214-1.0681,1.33694-1.43813,.91943-1.65648,.42722-1.71601,.09902-1.69822-.09276-1.67168-.30855-1.59778-.5829-1.43727-.90247-1.18286-1.21415-.82777-1.47863-.46646-1.63053-.13894-1.69304,.14226-1.70816,.51414-1.63164,.91238-1.44435,1.28499-1.12681,1.52228-.77645,1.64076-.48978,1.69536-.25258,1.71438-.0779Zm5.4721,4.16578l-1.68513-.00189-1.6907-.00134-1.6907-.00181-1.60415,.12281-1.52355,.49883-1.08095,1.1561-.29903,1.56918,.30563,1.49839,1.02853,1.12056,1.43443,.5382,1.53627,.13653,1.75923-.13183,1.65186-.58886,1.1887-1.27188,.53735-1.66849,.1355-1.76186-.00327-1.21264Z" fill="#44c38b"/>
          <path d="M339.2576,42.37469l-.06613,1.72045-.25069,1.70374-.45454,1.66012-.67649,1.58262-.94249,1.4375-1.18373,1.24531-1.42483,.95881-1.58397,.66545-1.67913,.37162-1.71799,.1073-1.6657-.08865-1.6394-.31145-1.53406-.6384-1.29594-1.0363,.0008,1.60389,.00571,1.6057-.009,1.60751,.00117,1.60522-.00144,1.60898-.00149,1.61157,.00544,1.61168-1.80626,.00646-1.80908-.0121-1.80482,.00089-.0084-1.65641,.01032-1.66184-.00172-1.66452-.00681-1.66421,.00391-1.66275-.00055-1.66389-.00532-1.66579,.00328-1.66394,.00048-1.66588,.00046-1.66495-.00145-1.66653,.0014-1.66182,.00367-1.66186,.00103-1.66736-.00227-1.66461-.00769-1.66684,.01206-1.66873-.00138-1.66635-.00832-1.67025,.00949-1.67294-.01124-1.67809,1.81093,.00231,1.80908,.00733,1.80889-.00433-.00055,2.02784,1.25892-1.17143,1.53254-.7836,1.67276-.40898,1.72116-.11874,1.70487,.10874,1.66454,.38102,1.57769,.65065,1.40914,.96049,1.19811,1.21374,.93867,1.42494,.67469,1.56653,.44103,1.64937,.25213,1.68943,.07846,1.70908,.00318,1.72364-.01315,1.72361Zm-5.36015-.25345l-.0115-1.47011,.00117-1.47011-.08933-1.65766-.34096-1.62282-.67689-1.50919-1.1348-1.19498-1.48595-.70854-1.64206-.20055-1.59601,.19291-1.46208,.65275-1.12876,1.13486-.70645,1.4407-.36058,1.56272-.12079,1.60558,.00085,1.62222,.00571,1.62222,.0787,1.68598,.31887,1.65346,.66247,1.54534,1.12276,1.24488,1.51502,.71316,1.67029,.19715,1.65523-.21061,1.48763-.75175,1.09988-1.24985,.69153-1.51893,.34369-1.63659,.10235-1.67224Z" fill="#44c38b"/>
          <path d="M354.47233,38.42147l1.82307-.00612,1.82601,.0081,1.82225-.00612,.00193-2.12588-.1295-1.51661-.60901-1.37829-1.26474-.81083-1.48915-.29153-1.5246-.05566-1.53754,.04481-1.50939,.28079-1.31893,.75953-.95707,1.19346-1.30265-.90737-1.30071-.91454-1.30131-.91459,.92354-1.27693,1.15273-1.06831,1.34844-.80561,1.47464-.5349,1.54118-.31982,1.56531-.15743,1.57661-.04052,1.71444,.04541,1.70691,.19942,1.66993,.39168,1.56496,.69195,1.34587,1.05036,.98706,1.39225,.60941,1.59741,.30711,1.6835,.08605,1.71298-.0039,1.70143-.00394,1.69729-.00029,1.7029,.00183,1.70009,.00404,1.70237-.00455,1.70429,.00223,1.70186,.0048,1.70585-.00096,1.7086-.0011,1.71173-1.77541-.00737-1.77525-.00006-1.77231,.00207-.00364-2.32955-1.07051,1.33574-1.43641,.92188-1.65728,.42359-1.71567,.1113-1.69882-.09734-1.66965-.319-1.59592-.58443-1.44225-.8935-1.17862-1.21817-.83573-1.4745-.45987-1.63295-.14636-1.69283,.15154-1.70759,.50757-1.63379,.91756-1.44131,1.28774-1.12161,1.5176-.7837,1.64179-.4854,1.69495-.25181,1.71395-.07666Zm5.47562,4.15529l-1.68854,.00594-1.69073-.0081-1.69073,.00785-1.60447,.11487-1.52164,.50352-1.08441,1.15244-.3008,1.57005,.30619,1.49987,1.03096,1.12011,1.43411,.54202,1.53724,.13739,1.76033-.1313,1.65324-.59111,1.18493-1.27657,.53955-1.66763,.13258-1.76202,.00219-1.21734Z" fill="#44c38b"/>
          <path d="M373.32842,28.02658l1.77393,.00274,1.77525-.0046,1.77439,.00413-.0022,2.28119,1.23816-1.28014,1.55126-.86596,1.71849-.4608,1.78121-.12775,1.71851,.09731,1.6847,.35067,1.59291,.64618,1.41273,.97669,1.13423,1.28984,.81273,1.51009,.51583,1.64151,.27633,1.69738,.08101,1.72298-.00483,1.58145-.00108,1.58149,.00593,1.58672-.00646,1.58411,.00359,1.58623,.0037,1.58802-.00836,1.58576,.00221,1.58947,.00615,1.59203-.00076,1.595-1.79194-.00298-1.79219-.00237-1.79295,.00319,.00073-1.69003-.00052-1.69481-.00441-1.69202,.00237-1.69429,.00127-1.6962,.00459-1.69378-.00757-1.69774,.00652-1.70048-.00539-1.70048-.11322-1.71878-.47011-1.65446-1.00802-1.37622-1.51642-.77943-1.70493-.20433-1.72426,.23779-1.55174,.77876-1.13646,1.31047-.62643,1.62145-.17853,1.73413-.00302,1.69483-.00143,1.70044,.00043,1.69763,.00167,1.69991-.00192,1.70183-.00084,1.6994-.00388,1.70338,.00106,1.70612,.00605,1.70845-1.80836,.00257-1.80908-.00094-1.8103-.00265,.00577-1.69018-.0088-1.68699,.00342-1.68896-.00051-1.68802,.00476-1.68962,.00121-1.68485-.00429-1.68489-.00544-1.69046,.00877-1.68767-.0018-1.68994,.00107-1.69184-.00176-1.68943,.00397-1.69339-.00238-1.69612-.00429-1.69772Z" fill="#44c38b"/>
        </g>
        <path d="M48.05309,51.2342l1.85812-1.50261,.89382-1.35536,.88275-1.36135,.85023-1.38584,.8394-1.38593,.80713-1.409,.8013-1.41527,.75897-1.43941,.72159-1.46013,.69715-1.47376,.63407-1.50323,.57809-1.52303,.49368-1.55228,.36216-1.5864,.13692-1.61464-.0953-1.60016-.31113-1.57248-.51567-1.51761-.70995-1.43717-.90011-1.32522-1.05511-1.20462-1.19948-1.06173-1.33154-.89124-1.43611-.71077-1.51669-.5169-1.57336-.30417-1.59892-.11269-1.60055,.10366-1.57129,.31715-1.51529,.5202-1.43669,.70865-1.3307,.89143-1.20433,1.05597-1.05758,1.20304-.88719,1.3334-.70927,1.43565-.52683,1.51284-.30245,1.57383-.11168,1.59893,.15624,1.61304,.35267,1.58468,.49415,1.5479,.57368,1.52115,.63728,1.4953,.68641,1.47501,.7235,1.46002,.77083,1.43625,.78659,1.42703,.82109,1.40385,.83045,1.40194,.86537,1.37782,.86726,1.37236,.90923,1.34449,1.84978,1.50186-1.64727,.00211-1.6459,.00693-1.6481,.00373-1.64996-.00918-1.64761,.00686-1.65147,.00199-1.65413-.00325-1.6536-.00324,.00233,2.03669-.00579,2.03951,1.66147-.00664,1.65968,.01057,1.66157-.00653,1.65972,.00675,1.66166-.00247,1.66073-.00888,1.6623,.00718,1.65761-.00733,1.65765,.00975,1.66314,.0022,1.66039-.00316,1.66262-.00073,1.6645-.00174,1.66213,.00468,1.66602-.00818,1.6687,.00399,1.66616-.00391,.00704-2.03504-.00651-2.03549-1.64659-.00414-1.64588,.00244-1.64809-.00449-1.64995,.00641-1.6476-.00241-1.65145,.00372-1.65411-.00575-1.65412,.0026Zm-6.88029-21.96824l.20366-1.54137,.58801-1.43907,.95333-1.22787,1.22748-.95359,1.43876-.58935,1.54108-.20847,1.54039,.2147,1.43568,.59189,1.23775,.94027,.94083,1.23719,.60206,1.43312,.19885,1.54256-.20806,1.54105-.59872,1.4325-.93718,1.23901-1.23712,.94003-1.43448,.59456-1.54,.2018-1.54097-.20172-1.4399-.58579-1.2323-.94922-.94135-1.23663-.59492-1.43499-.2029-1.54062Z" fill="#44c38b"/>
      </g>
    </g>
  </g>
</svg>