<?xml version="1.0" encoding="UTF-8"?>
<svg id="b" data-name="レイヤー 2" xmlns="http://www.w3.org/2000/svg" width="650.45282" height="132.02016" viewBox="0 0 650.45282 132.02016">
  <g id="c" data-name="text">
    <g>
      <rect y="91.27016" width="650.45282" height="40.75" fill="#fff" opacity=".98"/>
      <g>
        <path d="M46.67791,111.46157c-.11426,.18994-.20898,.37988-.53174,1.10205-.76025,1.67139-1.59619,2.98242-2.81201,4.33105,1.61475,1.08301,3.24854,1.729,5.77539,2.29883-.51318,.646-.79785,1.19678-1.15869,2.14648-1.12109-.3418-2.31787-.83545-3.43848-1.36768-1.04492-.5127-1.80518-.96875-2.67871-1.65283-.75977,.62695-1.48193,1.12109-2.39355,1.61475-1.00684,.55127-1.63379,.81689-3.40088,1.46289-.39893-.87402-.62695-1.19678-1.25342-1.91846,2.24121-.57031,4.02734-1.38721,5.52783-2.52686-1.13965-1.19678-1.95654-2.33643-2.52637-3.59033-.45605,1.2915-.98779,2.43164-1.78564,3.78027-.91211,1.50098-1.80518,2.60254-3.21094,3.89453-.56982-.74072-.89258-1.08301-1.61475-1.61475,1.99512-1.74805,3.09668-3.19141,4.04639-5.33838,.74121-1.69043,1.14014-3.21045,1.50098-5.73682h-2.84961c-1.04492,0-1.88086,.0376-2.31738,.11377v-2.20361c.68359,.07568,1.34863,.11377,2.31738,.11377h3.03955c.03809-.43701,.05713-1.17773,.05713-1.63379,0-.36084-.01904-.66455-.07617-1.02588l2.4126,.05713c-.05664,.36084-.11377,.81689-.15186,1.34863-.05713,.72217-.05713,.87402-.09521,1.25391h7.42822c.96875,0,1.63379-.03809,2.31738-.11377v2.20361c-.66455-.09521-1.23486-.11377-2.31738-.11377h-7.63672c-.11426,.91162-.17139,1.25342-.3042,2.05127h5.37598c.85498,0,1.27295-.01904,1.69092-.09473l1.06396,1.15869Zm-7.31396,.79785c.646,1.36768,1.32959,2.31787,2.4126,3.36279,.91211-.98779,1.65283-2.08984,2.2417-3.36279h-4.6543Z" fill="#44c38b"/>
        <path d="M62.60028,104.09096c-.07568,.32275-.13281,1.27246-.13281,1.95654,0,3.05859,.49414,5.07227,1.86182,7.48486,.79785,1.4248,1.65283,2.43164,3.00146,3.60938,1.12061,.98779,1.69092,1.38672,2.94434,2.05176-.72168,.74072-1.02539,1.19678-1.48145,2.10889-2.31787-1.61475-3.47656-2.69775-4.8252-4.4834-1.15918-1.53906-1.88086-3.00146-2.52686-5.18652-.36084,1.52002-.70264,2.39355-1.48193,3.8374-.75977,1.38721-1.57666,2.4126-2.92529,3.64746-.98779,.91211-1.61475,1.36816-2.94482,2.18506-.43701-.87402-.79785-1.34912-1.48145-1.95703,1.9375-1.02588,2.94434-1.80469,4.14111-3.17236,2.45068-2.81152,3.47656-5.92725,3.47656-10.48633,0-.74121-.01904-1.08301-.07617-1.5957h2.45068Z" fill="#44c38b"/>
        <path d="M81.20233,107.90932c.53223-.1333,.85498-.20898,1.61475-.36133q0-.37988-.01904-1.04443c-.01904-1.65283-.01904-1.78613-.11377-2.27979h2.39355q-.07568,.58887-.09473,3.03955c.45557-.03809,.72168-.05713,1.10156-.05713,2.67871,0,4.44531,1.53906,4.44531,3.87549,0,1.27295-.56982,2.50781-1.53857,3.30566-.89307,.74072-2.0708,1.12061-3.51465,1.12061-.93066,0-1.9375-.18994-2.94434-.53174-.01904-.91211-.07617-1.27295-.34229-2.33691,1.14014,.51318,2.0708,.74121,3.03955,.74121,.81689,0,1.55811-.22803,2.14697-.62695,.49365-.36084,.77881-.9502,.77881-1.61475,0-1.19678-.93066-1.8999-2.52686-1.8999-1.34863,0-2.48828,.22803-5.69873,1.17773,1.17773,4.12256,1.27246,4.4834,2.4126,9.23291,.09473,.39893,.13281,.53174,.28467,.91162l-2.50732,.56982c-.09521-1.51953-1.14014-6.02197-2.31787-10.10645-.24707,.11426-.28516,.11426-.94971,.34229-.68408,.20898-1.95703,.72168-2.45068,.96875l-.74072-2.22266c.55078-.11426,.79785-.1709,1.72852-.49414,.77881-.26562,.93066-.30371,1.84277-.58887-.56982-1.86182-.93115-2.86865-1.29199-3.5332l2.35596-.66504q.11377,.60791,.66455,2.2417c.15234,.47461,.22803,.72168,.39893,1.34863l1.84277-.5127Z" fill="#44c38b"/>
        <path d="M106.0534,115.73598c-3.15381,2.37451-6.80127,4.23633-10.75244,5.47119-.32275-.77881-.60791-1.27295-1.08301-1.88086,3.76172-1.02588,6.53516-2.2417,9.42285-4.1792-3.9707,.4751-4.57861,.53174-7.78906,.77881-.60791,.05713-.85498,.07617-1.19678,.13281l-.28467-2.03271c.22754,.01904,.41748,.03809,.60791,.03809q.20898,0,1.95654-.07568v-6.80127c0-.74072-.01904-1.21582-.07617-1.82373,.58887,.05713,1.04492,.07617,2.05176,.07617h1.52002c.36084-.55078,.62695-1.15869,.85449-1.86182l2.22266,.28516c-.36084,.68359-.62646,1.15869-.87354,1.57666h3.51416c1.04492,0,1.52002-.01904,2.03271-.07617-.07568,.55127-.09473,1.15918-.09473,2.0708v4.02734c.83594-.93066,1.36768-1.57666,1.70947-2.16553l1.4248,1.48193c-.30371,.28467-.45557,.43652-.91162,.98779-.66504,.77881-1.34863,1.48145-2.22266,2.2793v5.28125c0,1.34912-.66504,1.76709-2.79248,1.76709q-.41797,0-2.0708-.05713c-.03809-.646-.20898-1.27295-.51318-2.0708,1.19678,.1709,1.50098,.18994,2.16602,.18994,.96875,0,1.17773-.07568,1.17773-.37988v-3.03955Zm0-8.54883h-7.08594v1.06396h7.08594v-1.06396Zm-7.08594,3.76172h7.08594v-1.10205h-7.08594v1.10205Zm0,2.92529q4.06543-.28467,7.08594-.60791v-.72168h-7.08594v1.32959Z" fill="#44c38b"/>
        <path d="M129.17645,114.82436c-.4751,.49365-.87402,1.04443-1.25391,1.78564-1.97607-1.31104-3.60938-3.03955-4.57861-4.8252-.26562,.70264-.53174,1.23438-.91162,1.80469-.89307,1.34863-1.8999,2.2793-3.60938,3.3623-.26611-.5127-.68408-1.04492-1.21582-1.5957v3.68555c0,1.17773,.01904,1.74756,.09473,2.26074h-2.33643c.09473-.646,.13281-1.38721,.13281-2.29883v-10.82861c0-.77881-.01904-1.31055-.07617-1.84277,.68408,.07617,1.21582,.09521,2.2041,.09521h4.6543c.01855-.43701,.01855-.70312,.01855-1.02588,0-.75977-.0376-1.17773-.11377-1.67188h2.37451c-.07568,.34229-.09473,.51318-.11377,.9502q-.01904,.26562-.05713,1.04443-.01904,.39941-.03809,.70312h4.84424c1.04492,0,1.52002-.01904,2.16602-.09521-.05713,.51318-.07617,1.04492-.07617,1.84277v10.88574c0,.79785-.05713,1.08252-.28467,1.36768-.41797,.53174-1.10205,.68408-2.8877,.68408-.51318,0-1.08301-.01904-1.84277-.05713-.13281-.9502-.26611-1.4248-.58887-2.16602,.94971,.1333,1.72852,.20898,2.46973,.20898,.93066,0,1.02588-.05664,1.02588-.60791v-3.66602Zm-11.56934,.30371c1.53857-.91162,2.4126-1.70947,3.15332-2.84961,.68408-1.06396,1.10205-2.29883,1.34863-3.95117h-4.50195v6.80078Zm6.57275-6.80078c-.05713,.47461-.07568,.56982-.13281,.91162,.53174,1.17773,1.2915,2.27979,2.14648,3.15381,.81689,.83545,1.69092,1.48145,2.98291,2.22266v-6.28809h-4.99658Z" fill="#44c38b"/>
        <path d="M136.68329,106.14223c.77881,.17139,1.99463,.24707,4.40723,.24707,.5127-1.13965,.68359-1.70947,.75977-2.35547l2.48877,.26562q-.11426,.19043-.76025,1.70996c-.09473,.20898-.13281,.26611-.1709,.3418q.15234-.01904,1.19678-.07568c2.2041-.1333,3.93262-.34229,4.97754-.646l.13281,2.16553q-.53174,.03809-1.50049,.15186c-1.38721,.17139-3.7998,.32324-5.71826,.38037-.55078,1.08252-1.08301,1.84277-1.74805,2.52637l.01904,.03809q.1333-.09521,.37988-.28516c.70312-.53174,1.70996-.85449,2.67871-.85449,1.48193,0,2.4126,.70264,2.7168,2.01367,1.46289-.53223,2.43164-.87402,2.90625-1.02588,1.02588-.36133,1.10205-.37988,1.40625-.56982l.89258,2.18457c-.53174,.07568-1.10156,.22803-2.1084,.5127-.26611,.07617-1.21582,.39893-2.84961,.96875v.20898q.01904,.49414,.01904,.76025v.75977c-.01904,.32275-.01904,.49365-.01904,.62695,0,.41797,.01904,.68359,.05664,1.00684l-2.20361,.05713c.07617-.34229,.11426-1.31104,.11426-2.2041v-.45557c-.93115,.43701-1.4248,.70264-1.82373,.98779-.66504,.49365-.98779,1.00684-.98779,1.55762,0,.98779,.91162,1.38672,3.21045,1.38672,2.2793,0,4.23633-.28467,5.58496-.79785l.18994,2.45068c-.32275,0-.41797,.01904-.87354,.07617-1.36816,.20898-3.19189,.3418-4.86328,.3418-2.01416,0-3.26758-.22803-4.23682-.79785-.87354-.49414-1.38672-1.40576-1.38672-2.45068,0-.77881,.22803-1.38672,.83594-2.10889,.85498-1.06348,1.93799-1.78564,4.08447-2.67822-.09521-.70312-.4751-1.02588-1.15869-1.02588-1.10205,0-2.43164,.66504-3.89453,1.95654-.79785,.66504-1.23486,1.14014-1.65283,1.729l-1.72852-1.70996c.49365-.37988,1.04443-.91162,1.70947-1.69092,.74072-.87354,1.8999-2.52637,2.27979-3.24854q.07617-.15186,.15186-.24658c-.07568,0-.32275,.01904-.32275,.01904-.3042,0-1.97559-.03809-2.39355-.03809q-.36133-.01904-.53223-.01904c-.05713,0-.1709,0-.30371,.01904l.03809-2.16602Z" fill="#44c38b"/>
        <path d="M157.24139,111.08168c-.68408,.05713-.98779,.09521-1.61475,.20898l-.15234-2.22266c.28516,.01904,.49414,.01904,.55127,.01904,.15186,0,1.19678-.05713,3.11523-.1709v-.72217c0-2.03271-.01904-2.39355-.13281-3.09619h2.56445c-.13281,.68359-.13281,.93066-.1709,3.7041l2.69775-.13281,.85498-.03809,1.9375-.09473v-1.95703c0-.72168-.01904-.96875-.11377-1.5957h2.33643c-.05713,.41797-.07617,.68408-.07617,1.15869v.66504c.01904,.20898,.01904,.37988,.01904,.4751,0,.1709,0,.3418-.01904,.56982v.60791l2.29883-.07617c.68408-.01904,.89307-.0376,1.38672-.09473l.05713,2.26074c-.45605-.05713-.60791-.05713-1.15869-.05713-.66504,0-1.57715,0-2.58398,.01904-.01855,1.91846-.18994,3.34326-.49365,4.02734-.41797,.94971-1.19678,1.4248-2.29883,1.4248-.91162,0-1.72852-.18994-2.73535-.646,.03809-.37988,.03809-.49365,.03809-.75977,0-.51318-.03809-.87402-.1333-1.55762,1.00684,.58887,1.91895,.93066,2.48877,.93066,.49365,0,.68408-.24707,.81689-.98779,.09473-.55078,.15186-1.31104,.1709-2.37451l-2.84961,.11377c-.09473,0-.41797,.01904-.81689,.03809l-1.88086,.11377c.01904,.20898,.01904,.32324,.01904,.45605q0,.15186-.01904,1.15869v.39893c0,.98779,.05713,3.05859,.09521,3.43848,.15186,1.5957,.96875,1.99512,4.06543,1.99512,2.45068,0,4.23633-.22803,5.47119-.72217l.1709,2.54541-.28516,.01904-.58887,.07617c-1.38672,.15186-3.87549,.28516-5.12891,.28516-3.55273,0-5.09131-.68408-5.66113-2.50781-.26611-.85498-.34229-1.9375-.34229-5.09131v-1.9375l-1.89941,.13281Zm13.08887-7.40869c.58887,.93066,.98779,1.84229,1.31104,2.96338l-1.31104,.37988c-.3418-1.21582-.74072-2.14648-1.29199-2.98242l1.29199-.36084Zm2.31787,2.75439c-.3042-1.02588-.76025-2.08984-1.27295-2.90674l1.21582-.37988c.5127,.79785,.93066,1.69092,1.29199,2.84961l-1.23486,.43701Z" fill="#44c38b"/>
        <path d="M177.49627,105.49672c.36084,.0376,.5127,.05664,.94971,.05664,2.22266,0,4.59717-.26562,5.39502-.60791l1.19678,2.05176c-.91162,.56982-1.53857,1.12109-2.33643,2.05176-1.61475,1.8999-2.45068,3.81836-2.45068,5.62305,0,2.05176,1.31104,3.43848,3.24854,3.43848,1.55762,0,2.86865-.89258,3.47656-2.35547,.49365-1.15869,.70264-2.4126,.70264-4.12256,0-2.12744-.41748-4.42627-1.02539-5.7749l2.2793-.68408c.3042,1.04492,.89307,2.27979,1.63379,3.43848,.96875,1.48193,2.43164,3.03955,3.43848,3.59082l-1.17773,2.24121c-.15186-.15186-.1709-.1709-.43701-.39893-.77881-.70264-1.48145-1.51953-2.08936-2.39355-.07617-.11377-.38037-.60791-.9502-1.51953,.32324,1.36768,.39893,2.03271,.39893,3.34326,0,4.06543-2.5835,6.97217-6.17383,6.97217-1.19678,0-2.39355-.32324-3.26758-.89307-1.46289-.96875-2.35596-2.79248-2.35596-4.84424,0-1.46289,.4751-3.13428,1.31104-4.55908,.43701-.7793,1.21582-1.76709,1.91895-2.45068q.07568-.07617,.32275-.3042c.05713-.05664,.07617-.07568,.20898-.18994q-.22803,.03809-.53174,.09521c-.79834,.1709-1.04492,.20898-3.07764,.37988-.32324,.01904-.36133,.01904-.56982,.05713l-.03809-2.2417Z" fill="#44c38b"/>
        <path d="M212.35858,114.90004c.93115,0,1.53906-.03809,2.16553-.11377v1.91846c-.60742-.05664-1.21582-.09473-2.16553-.09473h-3.87549c2.14697,1.46289,3.85645,2.18457,6.45898,2.75439-.37988,.49414-.72168,1.10205-1.04443,1.8999-1.93799-.58887-2.8877-1.00684-4.21777-1.7666-1.06348-.6084-1.67139-1.06396-2.84961-2.08984,.01904,.55078,.05713,1.25391,.05713,1.50049v.85498c0,.75977,.03809,1.33008,.09521,1.5957h-2.20361c.09473-.47461,.11377-.87354,.11377-1.5957v-.83594c0-.22803,0-.30371,.01904-.60791v-.47461c0-.11426,0-.18994,.01904-.39893-1.70996,1.63379-3.55273,2.69727-6.7251,3.8374-.36084-.79785-.66504-1.27295-1.17773-1.82373,2.50732-.646,4.74902-1.67188,6.23096-2.84961h-3.49561c-.96875,0-1.51953,.01904-2.14648,.09473v-1.91846c.62695,.07568,1.23486,.11377,2.10889,.11377h5.16699v-.13281c0-.49414-.01904-.79785-.09521-1.23486h2.18506c-.07617,.43701-.09521,.70264-.09521,1.23486v.13281h5.47119Zm-1.7666-5.12891c-.60791,.79785-1.00684,1.19678-1.70996,1.72852,2.31787,.56982,3.32471,.87402,4.80664,1.40576l-1.23486,1.52002c-1.46289-.62695-2.90674-1.10205-5.47119-1.82373-2.05176,.91162-4.55957,1.38672-8.20703,1.57666-.20898-.68408-.39893-1.08301-.79785-1.63379h.58887c1.70996,0,3.93262-.24707,5.49023-.60791-.68359-.11426-1.02588-.1709-3.64746-.51318,.70312-.56982,1.02588-.89258,1.729-1.65234h-2.22266c-.83594,0-1.46289,.0376-2.08984,.09473v-1.74756c.45605,.07568,.91162,.09473,1.91846,.09473h3.64746c.51318-.72168,.79834-1.19678,.98828-1.5957l2.03271,.4751q-.1333,.15186-.38037,.49365c-.01904,.03809-.11377,.1709-.24658,.34229-.03809,.07568-.11426,.1709-.20898,.28467h6.85791c1.06396,0,1.36768-.01904,1.9375-.09473v1.74756c-.58887-.07617-1.17773-.09473-2.08936-.09473h-1.69092Zm-5.66113-4.84473c0-.58887-.03809-.85449-.09521-1.27246h2.31787c-.07617,.37988-.09521,.68359-.09521,1.27246h5.09131c.93115,0,1.4248-.01855,2.05176-.07568-.05713,.43701-.07617,.75977-.07617,1.34863v.55078c0,.45605,.01904,.79785,.05713,1.12109h-2.03271v-1.29199h-12.0249v1.27295h-2.05176c.05664-.36084,.07568-.66504,.07568-1.06396v-.60791c0-.5127-.01904-.85498-.07568-1.32959,.66455,.05713,1.25391,.07568,2.08936,.07568h4.76855Zm-.58887,4.84473c-.20898,.24658-.32324,.36084-.62695,.68359,1.40576,.24707,1.70947,.3042,2.8877,.55078,.72168-.41797,1.15869-.72168,1.65234-1.23438h-3.91309Z" fill="#44c38b"/>
        <path d="M233.12616,114.82436c-.4751,.49365-.87402,1.04443-1.25391,1.78564-1.97607-1.31104-3.60938-3.03955-4.57861-4.8252-.26562,.70264-.53174,1.23438-.91162,1.80469-.89307,1.34863-1.8999,2.2793-3.60938,3.3623-.26611-.5127-.68408-1.04492-1.21582-1.5957v3.68555c0,1.17773,.01904,1.74756,.09473,2.26074h-2.33643c.09473-.646,.13281-1.38721,.13281-2.29883v-10.82861c0-.77881-.01904-1.31055-.07617-1.84277,.68408,.07617,1.21582,.09521,2.2041,.09521h4.6543c.01855-.43701,.01855-.70312,.01855-1.02588,0-.75977-.0376-1.17773-.11377-1.67188h2.37451c-.07568,.34229-.09473,.51318-.11377,.9502q-.01904,.26562-.05713,1.04443-.01904,.39941-.03809,.70312h4.84424c1.04492,0,1.52002-.01904,2.16602-.09521-.05713,.51318-.07617,1.04492-.07617,1.84277v10.88574c0,.79785-.05713,1.08252-.28467,1.36768-.41797,.53174-1.10205,.68408-2.8877,.68408-.51318,0-1.08301-.01904-1.84277-.05713-.13281-.9502-.26611-1.4248-.58887-2.16602,.94971,.1333,1.72852,.20898,2.46973,.20898,.93066,0,1.02588-.05664,1.02588-.60791v-3.66602Zm-11.56934,.30371c1.53857-.91162,2.4126-1.70947,3.15332-2.84961,.68408-1.06396,1.10205-2.29883,1.34863-3.95117h-4.50195v6.80078Zm6.57275-6.80078c-.05713,.47461-.07568,.56982-.13281,.91162,.53174,1.17773,1.2915,2.27979,2.14648,3.15381,.81689,.83545,1.69092,1.48145,2.98291,2.22266v-6.28809h-4.99658Z" fill="#44c38b"/>
        <path d="M244.45135,104.66079c-.11426,.55078-.15186,1.10156-.22803,2.56445-.07617,1.7666-.18994,5.62305-.18994,6.97217,0,1.80469,.11377,2.48828,.49365,3.05859,.43701,.62646,1.34912,.98779,2.5459,.98779,2.05176,0,3.70459-1.15918,4.59717-3.24854,.41797-.98779,.66504-1.88086,.87402-3.19189,1.02588,.83594,1.36768,1.04492,2.29834,1.46289-.75977,2.56494-1.32959,3.7998-2.26025,4.84424-1.4248,1.61475-3.30566,2.4126-5.69922,2.4126-1.31104,0-2.52686-.30371-3.32471-.83545-1.31055-.87402-1.86182-2.33691-1.86182-4.88232,0-.98779,.03809-2.8877,.15234-7.65625,.01904-.56982,.01904-.96875,.01904-1.23438,0-.53223-.01904-.79834-.07617-1.29199l2.65967,.03809Z" fill="#44c38b"/>
        <path d="M259.44305,107.18715c.68408,.11426,1.44385,.1709,2.5459,.1709,.22754,0,.43652,0,.87354-.01855,.1709-.91211,.36084-2.375,.36084-2.90674,0-.07617,0-.18994-.01855-.3418l2.50732,.22754q-.13281,.43701-.36084,1.82373c-.09521,.53223-.11426,.646-.18994,1.08301,1.40576-.13281,2.29883-.28516,3.24854-.56982l.09473,2.18457q-.15186,.01904-.60791,.09521c-.96875,.18994-2.48828,.37988-3.11523,.39893-.20898,1.17773-.68408,3.19141-1.17773,4.91992-.55127,1.97607-.87402,2.92578-2.12793,6.28809l-2.39355-.93066c1.31055-2.4126,2.77344-6.83887,3.40039-10.2207-.13281,.01904-.20898,.01904-.24707,.01904h-1.10156c-.09521,0-.28516,0-.60791-.01904-.34229-.01904-.60791-.01904-.75977-.01904-.09521,0-.19043,0-.36133,.01904l.03809-2.20361Zm9.42285,7.37109c-.76025,.94971-.98828,1.4248-.98828,2.08984,0,.96875,.9502,1.4624,2.84961,1.4624,1.38721,0,3.21094-.30371,4.3125-.70264l.1709,2.33643c-.3418,.03809-.49365,.05713-.93066,.1333-1.57666,.22754-2.4126,.30371-3.53369,.30371-1.69043,0-2.90625-.24707-3.81836-.75977-.81689-.4751-1.34863-1.38672-1.34863-2.33691,0-1.00684,.36084-1.86133,1.40576-3.28613l1.88086,.75977Zm5.64209-2.48877c-.91211-.09473-1.44385-.13281-2.39355-.13281-1.88086,0-3.13477,.13281-5.01562,.55078l-.1709-2.08984c2.69775-.5127,3.60938-.60791,5.66113-.60791,.51318,0,.68408,0,1.88086,.01904l.03809,2.26074Z" fill="#44c38b"/>
        <path d="M282.56659,105.83852c-.09473,.70264-.15186,1.63379-.15186,2.8877,0,1.65234,.15186,3.93213,.36084,5.09131,.32275,1.97559,.93115,3.19141,1.53857,3.19141,.28516,0,.55127-.28516,.7793-.81689,.45557-1.02588,.79785-2.16602,1.00684-3.43848,.66455,.75977,.96875,1.04492,1.89941,1.72852-.98779,3.70459-2.08936,5.24316-3.7041,5.24316-1.27295,0-2.29883-.93066-3.05859-2.75439-.77881-1.8999-1.12109-4.6543-1.19678-9.9165-.01904-.66504-.01904-.79785-.07617-1.21582h2.60254Zm8.98584,.85498c2.39355,2.86865,3.72314,6.04102,4.27441,10.22021l-2.35596,.89307c-.11377-1.78564-.55078-3.76172-1.21582-5.49023-.646-1.729-1.55762-3.26758-2.69727-4.67334l1.99463-.94971Z" fill="#44c38b"/>
        <path d="M303.84588,115.98305c.01855-.39893,.0376-.58887,.0376-.81689q0-.20898-.05664-1.34863l-.26611-6.45947c-.03809-.83545-.09521-1.78564-.1709-2.31738h3.11523c-.05664,.5127-.13281,1.50049-.1709,2.31738l-.26562,6.45947q-.03809,1.10156-.03809,1.36768c0,.22803,0,.41797,.03809,.79785h-2.22266Zm-.26611,4.16016v-2.60254h2.75439v2.60254h-2.75439Z" fill="#44c38b"/>
        <path d="M320.05291,104.18569c.07568,1.27295,.646,4.0083,1.25391,5.94629q1.23486-.45605,4.91992-1.67188c.34229-.11377,.43701-.15186,.72217-.28516l.81689,2.39404c-1.65283,.32275-4.1416,1.04443-6.26904,1.82373-2.77393,1.02588-4.16064,2.2417-4.16064,3.60938,0,1.38672,1.29199,1.97559,4.35059,1.97559,2.37451,0,4.71143-.28516,6.13623-.77881l.20898,2.60254c-.41797,0-.51318,.01904-1.53906,.13281-2.05176,.20898-3.11572,.28516-4.44531,.28516-2.64062,0-4.29346-.32275-5.50928-1.04492-1.04492-.62695-1.65283-1.80469-1.65283-3.17236,0-1.27295,.60791-2.48877,1.69092-3.40039,.74072-.62695,1.34863-1.00732,2.5835-1.63379-.47461-1.53906-.79785-2.81201-1.27246-5.14844-.19043-.91162-.20898-.94971-.3042-1.23486l2.46973-.39893Z" fill="#44c38b"/>
        <path d="M333.63836,111.15786q.53223-.03809,1.97607-.36133c2.5835-.56982,4.29346-.79785,5.87012-.79785,2.16553,0,3.62842,.62695,4.4834,1.93799,.47461,.72168,.70264,1.51953,.70264,2.45068,0,2.52637-1.78564,4.57812-4.80615,5.52783-1.17773,.36133-1.65283,.43701-4.12256,.72217-.18994-.94971-.3418-1.31104-.81689-2.16553h.28516c.70264,0,1.7666-.11426,2.69775-.28516,1.48145-.28516,2.31738-.62695,3.17236-1.29199,.91162-.68359,1.34863-1.51953,1.34863-2.56445,0-1.48193-1.10156-2.27979-3.11523-2.27979-1.31104,0-2.77393,.20898-4.99658,.74121-1.21582,.28467-1.55762,.37988-2.20361,.64551l-.4751-2.2793Z" fill="#44c38b"/>
        <path d="M350.56854,106.59829c.41797,.01904,.62646,.01904,.72168,.01904q.3418,0,3.13477-.18994c1.06348-.05713,4.21729-.22803,9.47949-.4751,1.55762-.07568,1.84277-.09473,2.18457-.18994l.13281,2.43164q-.20898-.01904-.39893-.01904c-1.13965,0-2.54541,.38037-3.76123,1.02588-2.4126,1.25391-3.8374,3.15381-3.8374,5.07227,0,1.48193,.93066,2.62158,2.52637,3.09668,.93115,.28516,2.14697,.49414,2.83057,.49414,.01904,0,.18994,0,.38037-.01904l-.34229,2.5835c-.22803-.05713-.32275-.07617-.646-.11426-2.08936-.26562-3.28613-.60791-4.44531-1.25342-1.74756-.98779-2.71631-2.60303-2.71631-4.57861,0-1.61475,.646-3.21045,1.80469-4.4834,.72168-.77881,1.40576-1.27246,2.64062-1.89941-1.53906,.22803-2.27979,.28467-6.40234,.58887-1.27246,.09473-2.4126,.22803-3.15332,.37988l-.13281-2.46973Z" fill="#44c38b"/>
        <path d="M376.9201,117.73061c0,.77881-.03809,1.23486-.15186,1.61475-.1709,.66504-.85498,1.10205-1.74756,1.10205-1.19727,0-2.64062-.53223-3.59082-1.34912-.68359-.58887-1.04492-1.32959-1.04492-2.14648,0-.89307,.58936-1.8999,1.63379-2.81152,.68408-.58887,1.52002-1.08301,2.77393-1.61475l-.01904-2.92578q-.15186,0-.77881,.03809c-.28516,.01904-.55127,.01904-1.02588,.01904-.28516,0-.81689-.01904-1.04492-.01904-.24707-.01904-.41797-.01904-.4751-.01904-.07568,0-.22803,0-.39893,.01904l-.01904-2.12744c.53223,.11377,1.29199,.1709,2.29883,.1709,.18994,0,.39893,0,.66504-.01904,.45557-.01904,.55078-.01904,.75977-.01904v-1.25391c0-1.08252-.01904-1.57666-.11426-2.18457h2.375c-.09521,.60791-.11426,1.00684-.11426,2.0708v1.21582c1.4248-.1709,2.69775-.41797,3.6665-.72217l.07617,2.12793c-.34229,.05713-.70312,.11377-2.01367,.3418-.62695,.11426-1.00684,.1709-1.729,.24707v2.46973c1.29199-.37988,2.48877-.53223,3.87549-.53223,3.17236,0,5.43311,1.93799,5.43311,4.63525,0,2.46973-1.84277,4.33154-4.31201,4.33154-1.53906,0-2.62158-.74072-3.11572-2.1084-.24707-.646-.32275-1.27295-.32275-2.43164,.96875-.26611,1.2915-.39941,2.1084-.83594-.03809,.36084-.03809,.53174-.03809,.83594,0,.79785,.07617,1.31055,.26611,1.67139,.20898,.39893,.66504,.646,1.19678,.646,1.12109,0,1.91895-.89307,1.91895-2.10889,0-1.6333-1.33008-2.69727-3.36279-2.69727-1.13965,0-2.29834,.20898-3.64746,.62695l.01904,3.74219Zm-2.14648-3.05859c-1.4248,.76025-2.26074,1.5957-2.26074,2.27979,0,.32275,.18994,.60791,.62695,.87402,.37988,.26562,.85498,.41797,1.21582,.41797,.32275,0,.41797-.1709,.41797-.79785v-2.77393Zm10.52441-3.8374c-.94971-1.50049-2.33691-3.00146-3.79932-4.10352l1.78564-1.19678c1.65283,1.27295,2.75439,2.4126,3.76123,3.89453l-1.74756,1.40576Z" fill="#44c38b"/>
        <path d="M391.85565,106.84536c.55127,.05713,.98828,.07617,1.82373,.07617,1.44385,0,2.46973-.05713,3.91357-.20898q-.05713-.15234-.20898-.49414c-.4751-1.10205-.74072-1.69092-.75977-1.72852l2.37451-.32324c.07617,.4751,.26611,1.04492,.77881,2.29883,1.61475-.20898,3.81885-.70312,5.12939-1.14014l.18994,2.01416q-.18994,.0376-.646,.13281c-1.27246,.30371-3.38135,.72168-3.97021,.79785,.30371,.70264,.41797,.94971,.74072,1.55762,1.63379-.3418,2.50781-.53174,2.62158-.55078,1.08301-.26611,1.31104-.3418,1.80469-.55078l.18994,2.07031c-.36084,.05713-.75977,.1333-1.19678,.24707-.77881,.18994-1.40576,.32324-1.86133,.41797q-.4751,.09521-.70312,.15186c.98779,1.63379,1.29199,2.03271,2.54541,3.47656l-1.67139,1.19678c-1.36816-.56982-2.50781-.77881-4.36963-.77881-1.44385,0-2.54541,.18994-3.19141,.53223-.53174,.30371-.81689,.70264-.81689,1.15869s.32275,.89258,.81689,1.10156c.60791,.26611,1.61475,.41797,2.7168,.41797,1.97559,0,4.6543-.56982,5.85107-1.23486l.3418,2.33691q-.36084,.05713-1.23486,.28467c-1.61475,.43701-3.19141,.646-4.86328,.646-2.18457,0-3.57129-.28467-4.63525-.93066-.91162-.56982-1.46289-1.53857-1.46289-2.60254,0-1.02588,.56982-1.97607,1.5957-2.64062,.98779-.62695,2.50781-.9502,4.42627-.9502,1.15918,0,2.26074,.1333,3.28662,.39893-.30371-.28467-.66455-.81641-1.4624-2.12744-2.01416,.3042-3.22998,.37988-7.35205,.5127-.32324,.01904-.45605,.01904-.77881,.05713l-.07617-2.0708c.55078,.07617,.66504,.07617,1.95654,.07617,1.99463,0,3.57178-.11377,5.37646-.36084-.11426-.22803-.18994-.3418-.3418-.70312-.19043-.39893-.24707-.5127-.39941-.85449-1.51953,.1709-2.88721,.24658-5.09082,.26562-.79785,0-.89307,.01904-1.29199,.03809l-.09521-2.01367Z" fill="#44c38b"/>
        <path d="M418.22674,115.37514c-1.08301,2.45068-2.29883,3.57129-3.85645,3.57129-2.16602,0-3.72363-2.20361-3.72363-5.26221,0-2.08984,.74072-4.04639,2.08984-5.52832,1.5957-1.74756,3.8374-2.65918,6.53467-2.65918,4.55957,0,7.52295,2.77344,7.52295,7.04785,0,3.28662-1.70947,5.9082-4.61621,7.08594-.91162,.37988-1.65283,.56982-2.98242,.79785-.32324-1.00684-.55127-1.4248-1.15869-2.22266,1.74756-.22803,2.88721-.53223,3.78027-1.04492,1.65283-.91162,2.64062-2.7168,2.64062-4.74951,0-1.82373-.81689-3.30518-2.33691-4.21729-.58887-.3418-1.08252-.49365-1.91846-.56982-.36084,2.98242-1.02588,5.604-1.97559,7.75098Zm-2.79297-6.80127c-1.5957,1.14014-2.5835,3.09668-2.5835,5.12939,0,1.55762,.66504,2.79248,1.50098,2.79248,.62695,0,1.27246-.79785,1.95654-2.43164,.72168-1.70947,1.34863-4.27441,1.57666-6.4209-.98779,.11377-1.67188,.37988-2.45068,.93066Z" fill="#44c38b"/>
        <path d="M445.43377,120.42836c-1.57715-1.93799-3.76172-4.06543-5.83252-5.64209-2.14648,2.39355-4.33105,4.06543-7.23779,5.49023-.53174-.98779-.75977-1.29199-1.53857-2.10889,1.4624-.56982,2.37451-1.08301,3.79932-2.08984,2.86865-2.01367,5.14795-4.76807,6.38281-7.73145l.20898-.49414q-.30371,.01904-6.28809,.11377c-.91162,.01904-1.4248,.05713-2.07031,.15234l-.07617-2.43164c.53174,.09473,.89307,.11377,1.67188,.11377h.45557l6.68701-.09473c1.06396-.01904,1.21582-.03809,1.69092-.20898l1.25391,1.2915c-.24707,.28516-.39893,.55127-.60791,1.02588-.87402,2.03271-1.80469,3.68555-2.96338,5.24316,1.19678,.79785,2.22266,1.5957,3.51416,2.75488q.4751,.41797,2.77393,2.64062l-1.82373,1.97559Z" fill="#44c38b"/>
        <path d="M456.20819,111.76577c-.03809,.11377-.05713,.22803-.07617,.26562,0,.03809-.03809,.15234-.07568,.32324-.60791,2.79248-1.80518,5.52783-3.19189,7.38965-.89258-.646-1.2915-.87354-2.20361-1.23486,1.46289-1.57666,2.94482-4.97705,3.21045-7.31396l2.33691,.57031Zm8.64355-4.06543c.39893,0,.58887,0,1.04492-.01904-.93066-.3042-1.53857-1.12109-1.53857-2.08984,0-1.19678,.98779-2.18457,2.18457-2.18457,1.21582,0,2.20361,.98779,2.20361,2.18457,0,.93115-.56982,1.729-1.44385,2.0708v2.2417c-.62695-.07617-.91162-.09521-2.4126-.09521h-4.38818v9.21387c0,1.04492,.01855,1.61475,.09473,2.12744h-2.5835c.07568-.5127,.11377-1.08252,.11377-2.14648v-9.19482h-4.21729c-1.48193,0-1.7666,.01904-2.39355,.09521v-2.33691c.66504,.11426,1.02588,.1333,2.43164,.1333h4.1792v-1.06396c0-1.08301-.03809-1.50098-.11377-1.95654h2.56445c-.05713,.5127-.07568,.79785-.07568,2.01367v1.00684h4.3501Zm-.20898,3.49512c.58887,2.46973,2.10889,5.75635,3.36279,7.23828-.96924,.47461-1.33008,.70264-2.18506,1.31055-1.36768-2.12744-2.22266-4.08447-3.11523-7.10498-.15234-.5127-.1709-.58887-.3042-.87354l2.2417-.57031Zm.66504-5.604c0,.68408,.55078,1.25391,1.23486,1.25391,.70264,0,1.25391-.56982,1.25391-1.25391,0-.68359-.55127-1.23486-1.25391-1.23486-.68408,0-1.23486,.55127-1.23486,1.23486Z" fill="#44c38b"/>
        <path d="M474.487,108.87807c.79785,1.46289,1.17773,2.37451,1.86182,4.50244l-2.14697,.68359c-.49365-1.91846-.87354-2.92529-1.72852-4.59717l2.01367-.58887Zm10.9043,.13281c-.11377,.28516-.15186,.37988-.26562,.96875-.55127,2.58398-1.40625,4.67334-2.62207,6.32617-1.40576,1.91895-2.98242,3.15381-5.79395,4.57861-.49365-.83594-.72168-1.12109-1.51953-1.88086,1.32959-.51318,2.1084-.93066,3.22949-1.74756,2.22266-1.61475,3.49512-3.55273,4.31201-6.59229,.24707-.93066,.34229-1.5957,.34229-2.18457l2.31738,.53174Zm-6.85791-.91162c1.00684,1.88037,1.36768,2.71631,1.84277,4.36914l-2.10889,.66504c-.36084-1.44385-.93066-2.90674-1.72852-4.46436l1.99463-.56982Z" fill="#44c38b"/>
        <path d="M492.38543,120.65639c.09521-.60791,.11426-1.12109,.11426-2.12793v-12.17725c0-.93066-.03809-1.4248-.11426-1.9375h2.60254c-.07568,.56982-.07568,.81689-.07568,1.99463v3.53369c2.60254,.91162,5.58496,2.29834,8.62451,4.0083l-1.32959,2.2417c-1.57715-1.08301-3.55273-2.16602-6.7251-3.62842-.43701-.20898-.49414-.22803-.646-.32324,.05713,.53223,.07617,.76025,.07617,1.29199v5.01514c0,.98779,.01904,1.48193,.07568,2.10889h-2.60254Z" fill="#44c38b"/>
        <path d="M516.61004,112.62026c.70312-.85449,1.04492-1.15869,1.88086-1.69043,1.15869-.72217,2.01367-.98779,3.11523-.98779,.87402,0,1.63379,.1709,2.45068,.56982q.49414,.24707,1.729,1.04492c1.44385,.93066,2.45068,1.32959,3.3623,1.32959,.39893,0,.9502-.15186,1.40576-.36084,.81689-.41797,1.31104-.83594,1.97607-1.729l1.51953,1.52002c-.77881,.98779-1.17773,1.38672-1.80469,1.84277-.96875,.72168-2.05176,1.08252-3.28662,1.08252-.56982,0-1.15869-.09473-1.67188-.26562-.74072-.24707-1.12061-.43701-2.60254-1.40576-1.67139-1.06396-2.26074-1.29199-3.26758-1.29199-1.23438,0-2.1084,.45605-3.30518,1.74756l-1.50098-1.40576Z" fill="#44c38b"/>
        <path d="M540.341,107.37709c-.96875,0-1.5957,.01904-2.29883,.11426v-2.08984c.66504,.09521,1.36816,.13281,2.43164,.13281h5.01562c-.01904-.77881-.03809-1.10156-.1333-1.70947h2.31787c-.09521,.58887-.11426,.98779-.11426,1.70947h5.18652c1.17773,0,1.89941-.0376,2.48877-.13281v2.08984c-.62695-.07617-1.4248-.11426-2.35596-.11426h-5.31934v1.06396h3.9707c1.15869,0,1.51953-.01904,2.1084-.07617-.05664,.57031-.07568,1.19727-.07568,1.91895v3.51465q0,1.06348,.07568,1.9375c-.55078-.07617-1.08252-.09473-2.12744-.09473h-2.27979c1.69092,1.5957,3.70459,2.5835,6.59229,3.24805-.49414,.76025-.66504,1.10205-1.08301,2.01416-1.53857-.51318-2.67871-1.02588-3.89453-1.729-1.40576-.83594-2.29834-1.55762-3.32422-2.73535,.01904,.62695,.0376,.98779,.0376,1.31055v1.36768c0,.96924,.01904,1.52002,.1333,2.16602h-2.33691c.09521-.74121,.1333-1.29199,.1333-2.16602v-1.36768c0-.22803,.01904-.93066,.0376-1.29199-.96875,1.19727-2.12744,2.14697-3.62842,3.00195-.91162,.53174-2.1084,1.06348-3.24854,1.4624-.41797-.94971-.58887-1.27246-1.06348-1.91846,1.4248-.39893,2.4126-.77881,3.57129-1.40576s2.0708-1.29199,2.7168-1.95654h-2.05176c-1.17773,0-1.55811,.01855-2.14697,.09473q0-.18994,.05713-.55078,0-.07617,.01904-1.38672v-3.49561c0-.98779-.01904-1.29199-.07617-1.95654,.51318,.07568,.96924,.09473,2.0708,.09473h3.74268v-1.06396h-5.14844Zm1.4248,2.69775v1.15869h3.72363v-1.15869h-3.72363Zm0,2.73535v1.19727h3.72363v-1.19727h-3.72363Zm5.79395-1.57666h3.98975v-1.15869h-3.98975v1.15869Zm0,2.77393h3.98975v-1.19727h-3.98975v1.19727Z" fill="#44c38b"/>
        <path d="M565.02118,115.81215c-1.44385,2.2793-2.39355,3.26758-4.57812,4.90137-.43701-.72217-.74072-1.10205-1.34863-1.65283,1.23438-.76025,1.7666-1.17822,2.48828-1.91895,.70312-.72168,1.06396-1.23486,1.67188-2.33643l1.7666,1.00684Zm1.65283-10.58154c0-.51318-.03809-.94971-.11377-1.38672h2.35547c-.07617,.37988-.11377,.79785-.11377,1.36768v.56982h5.43311c.98779,0,1.63379-.03809,2.22266-.13281v2.14648c-.53223-.09473-1.04492-.11377-2.08984-.11377h-12.89893c-1.02588,0-1.50098,.01904-2.05176,.11377v-2.14648c.55078,.09473,1.25391,.13281,2.27979,.13281h4.97705v-.55078Zm-3.41943,9.25146c-.83594,0-1.19678,.01904-1.70996,.05713,.05713-.4751,.07617-.83594,.07617-1.50098v-2.71631c0-.646-.01904-.98779-.01904-1.02588,0-.01904-.01904-.11426-.03809-.26611,0-.05713,0-.13281-.01904-.24707q.15234,.01904,.45605,.03809c.1709,.01904,.77881,.03809,1.25391,.03809h9.1377q1.31055-.01904,1.72852-.07617c-.05664,.45605-.07568,.85498-.07568,1.53906v2.71631c0,.66504,.01904,.98779,.05664,1.50098-.43652-.03809-.98779-.05713-1.72852-.05713h-3.32471v4.74951c0,1.46289-.62695,1.88086-2.86816,1.88086-.3042,0-.49414,0-1.53906-.01904-.09473-.83594-.22803-1.33008-.55078-2.03271,.79785,.11377,1.40576,.1709,2.0708,.1709,.64551,0,.77881-.07617,.77881-.39893v-4.35059h-3.68555Zm.37988-1.88037h8.39697v-1.95703h-8.39697v1.95703Zm8.58691,2.22266c.72168,1.10156,1.12061,1.57666,1.88037,2.26025,.7793,.72217,1.36816,1.12109,2.62207,1.80469-.58936,.6084-.93115,1.08301-1.34912,1.82422-1.31055-.89307-1.86182-1.36816-2.83057-2.35596-.77881-.83594-1.17773-1.32959-1.97559-2.46973l1.65283-1.06348Z" fill="#44c38b"/>
        <path d="M582.57782,114.7101c-.1333,2.83057-.28516,4.06543-.70312,5.69922l-1.61475-.77881c.43701-1.52002,.646-3.02051,.72217-5.18652l1.5957,.26611Zm3.64746-.646c-.07617-.37988-.09521-.49365-.1709-.79785q-.76025,.07617-1.27295,.1333v5.68018c0,1.23438,.01904,1.74756,.11377,2.31738h-1.89941c.09473-.60791,.11377-1.13965,.11377-2.31738v-5.54736c-.70264,.05713-1.00684,.09473-1.34863,.11377-.646,.03809-.89307,.05713-1.25391,.1333l-.1709-1.93799c.3418,.03809,.49365,.03809,.89258,.03809h.39893q.24707-.36084,.32324-.4751c.18994-.26562,.37988-.53174,.56982-.79785-.62695-.94971-1.23486-1.72852-2.18457-2.79248l.91162-1.61475c.18994,.20898,.37988,.43701,.56982,.646,.60791-.94971,1.25391-2.45068,1.38721-3.13477l1.84229,.74121c-.13281,.18994-.2085,.3418-.39893,.70264-.60791,1.21582-1.12061,2.12793-1.72852,3.05859,.3418,.43701,.39893,.53223,.62695,.85498,.79785-1.21582,1.57666-2.67871,1.74756-3.24854l1.78564,.91162c-.15186,.20898-.24658,.36133-.62646,.98828-.58936,.98779-2.03271,3.09619-2.83057,4.10303,.93066-.05664,1.2915-.07568,1.97559-.15186-.1709-.55078-.26611-.77881-.55127-1.46289l1.31104-.49365c.45605,1.00684,.77881,1.9375,1.10205,3.21045,.07568-1.36768,.11377-2.5459,.11377-4.08447,0-.93066-.01904-1.32959-.07617-1.80469,.4751,.03809,.85498,.05713,1.74805,.05713h6.23096c.91162,0,1.34863-.01904,1.74756-.05713-.0376,.43701-.05664,.83594-.05664,1.5957v1.21582c0,.77881,.01904,1.19678,.05664,1.61475-.24658-.03809-.96875-.05713-1.55762-.05713h-6.26904c0,.09521-.01904,.39893-.03809,.89307,.36084,.01904,.60791,.01904,1.23486,.01904h5.22412c.85498,0,1.40576-.01904,1.80469-.07617-.0376,.51318-.05664,.91211-.05664,1.8999v5.39502c0,1.25391-.43701,1.65283-1.82373,1.65283-.05713,0-.15234,0-.24707-.01904-.03809-.83594-.09521-1.13965-.3418-1.70947,.13281,.03809,.20898,.03809,.37988,.03809,.36084,0,.41797-.05713,.41797-.38037v-1.74756h-.89307v1.7666c0,1.04492,.01904,1.40576,.05713,1.84277h-1.53906c.03809-.47461,.05713-.83594,.05713-1.84277v-1.7666h-.89307v1.7666c0,1.08301,.01904,1.38672,.05713,1.84277h-1.53857c.03809-.47461,.05713-.83594,.05713-1.84277v-1.7666h-.85498v2.35547c0,.72217,.01904,1.23486,.05664,1.65283h-1.69043c.03809-.53174,.05713-.93066,.05713-1.67188v-4.88184c-.36133,3.17236-.60791,4.14111-1.59619,6.40186-.45557-.66504-.79785-.98779-1.51953-1.48193,.3418-.56982,.5127-.93066,.81689-1.69043l-.91211,.24658c-.11377-1.69043-.22803-2.5835-.49365-3.64746l1.2915-.26562c.28516,1.21582,.34229,1.63379,.43701,2.5835,.26611-1.10205,.43701-2.26074,.51318-3.38135l-1.19678,.47461Zm.64551-9.66943c.51318,.07617,1.14014,.11377,2.05176,.11377h6.82031c.93066,0,1.55762-.0376,2.05176-.11377v1.97559c-.45605-.07568-.96924-.09473-1.86182-.09473h-7.54199c-.77881,0-1.10205,.01904-1.52002,.07568v-1.95654Zm2.58398,4.69238v.68408h5.83203v-1.04492h-5.83203v.36084Zm1.86182,4.93896h-.85498v1.67188h.85498v-1.67188Zm2.31738,1.67188v-1.67188h-.89307v1.67188h.89307Zm2.31787,0v-1.67188h-.89307v1.67188h.89307Z" fill="#44c38b"/>
        <path d="M601.73016,112.62026c.70312-.85449,1.04492-1.15869,1.88086-1.69043,1.15869-.72217,2.01367-.98779,3.11523-.98779,.87402,0,1.63379,.1709,2.45068,.56982q.49414,.24707,1.729,1.04492c1.44385,.93066,2.45068,1.32959,3.3623,1.32959,.39893,0,.9502-.15186,1.40576-.36084,.81689-.41797,1.31104-.83594,1.97607-1.729l1.51953,1.52002c-.77881,.98779-1.17773,1.38672-1.80469,1.84277-.96875,.72168-2.05176,1.08252-3.28662,1.08252-.56982,0-1.15869-.09473-1.67188-.26562-.74072-.24707-1.12061-.43701-2.60254-1.40576-1.67139-1.06396-2.26074-1.29199-3.26758-1.29199-1.23438,0-2.1084,.45605-3.30518,1.74756l-1.50098-1.40576Z" fill="#44c38b"/>
      </g>
      <rect width="427.11677" height="75.82553" fill="#fff" opacity=".98"/>
      <g>
        <g>
          <path d="M84.22849,53.37384l.52514-1.51893,.52405-1.519,.52898-1.51632,.52913-1.51707,.53713-1.51704,.52143-1.52218,.53111-1.51731,.5292-1.51915,.52028-1.52419,.53159-1.51837,.53037-1.52078,.52753-1.52082,.53871-1.51854,.51513-1.52192,.53679-1.51443,.53227-1.52163,.5225-1.52221,.52936-1.52212,.53539-1.52194,.52755-1.52223,.52393-1.52749,.52935-1.52836,.53976-1.52201,1.85454-.01046,1.85978,.00695,1.86314-.00528,.52427,1.52562,.52382,1.51908,.5345,1.5144,.52714,1.51776,.52475,1.52134,.52859,1.51969,.53095,1.51737,.52354,1.52112,.52967,1.52093,.53664,1.51661,.52359,1.52314,.5265,1.52117,.53407,1.52015,.52583,1.5182,.52948,1.51698,.5315,1.5219,.52996,1.51962,.53234,1.52108,.52646,1.52505,.52447,1.52331,.53505,1.52362,.53482,1.52646,.52769,1.53135-1.55725,.00363-1.55851-.00705-1.56102,.00248-1.55772-.0053-.48532-1.44196-.47326-1.4472-.46657-1.45315-.47746-1.45216-.4829-1.45081-1.57696,.00688-1.57394-.00184-1.57606-.00991-1.57783,.00402-1.57559,.00159-1.57927,.00046-1.58182,.00264-1.58334-.00542-.46991,1.45224-.48544,1.44319-.46863,1.45247-.48611,1.44932-.47419,1.4498-1.56432,.00786-1.57116-.00977-1.5737,.00617-1.57149-.00131Zm10.28644-12.31568l1.55423-.00289,1.55374-.00406,1.55153,.00148,1.55516,.00137,1.55767,.00894,1.55661-.00701-.51345-1.56564-.5173-1.57117-.52601-1.56542-.51475-1.57147-.51717-1.57263-.519-1.56955-.50947-1.57676-.53251-1.57198-.5131-1.58088-.52141,1.56659-.51177,1.57299-.5171,1.56836-.52325,1.56867-.51672,1.57278-.51109,1.57216-.51689,1.57432-.5299,1.57284-.51803,1.57896Z" fill="#44c38b"/>
          <path d="M133.19552,34.36375l-.9685-1.06524-1.25831-.69032-1.42273-.21533-1.62583,.27069-1.40385,.85478-.97786,1.3264-.50875,1.57114-.14863,1.64984-.0031,1.69483,.00576,1.70044,.00109,1.69763-.00772,1.69991,.00094,1.70183-.00021,1.6994,.00062,1.70338,.00493,1.70612-.00439,1.7028-1.80302,.00436-1.80908,.00181-1.80569-.00647-.00015-1.68524-.00429-1.68699-.00052-1.68896,.00437-1.68802-.00359-1.68962,.0041-1.68485-.00787-1.68489,.00357-1.69046,.00328-1.68767-.0044-1.68994,.00206-1.69184-.0035-1.68943,.00178-1.69339-.00212-1.69612,.00134-1.69877,1.77494,.00043,1.77525,.00107,1.77232,.00343,.00167,2.2792,1.08246-1.2344,1.38632-.87722,1.56836-.48742,1.64189-.13391,1.67002,.12233,1.61697,.42712,1.48277,.77032,1.2624,1.09553,1.01503,1.33192-1.43814,1.00852-1.43529,1.01699-1.43673,1.01431Z" fill="#44c38b"/>
          <path d="M160.27069,49.51972l-1.02219,1.44512-1.31119,1.17752-1.54394,.84477-1.68694,.51819-1.7459,.25907-1.76826,.07177-1.6418-.0898-1.61937-.27212-1.5651-.49699-1.46933-.73028-1.32265-.97159-1.12574-1.19349-.8955-1.3736-.67434-1.49432-.44861-1.57767-.2641-1.62026-.07499-1.64134,.00115-1.72362-.004-1.72362,.06673-1.59083,.19377-1.57885,.36008-1.54824,.55355-1.48949,.77839-1.38584,1.02981-1.20799,1.23534-.99545,1.40658-.73432,1.51392-.47917,1.56605-.26669,1.58906-.0774,1.61415,.07832,1.58945,.27592,1.53262,.50098,1.41783,.76547,1.23543,1.03227,1.00249,1.26067,.75333,1.42431,.52574,1.52278,.33383,1.57853,.18365,1.60381,.04751,1.61544,.00483,1.39409,.00259,1.39793-1.68119-.00107-1.68355-.00738-1.68077,.00745-1.68303,.002-1.68492-.00811-1.68252,.00324-1.68646,.00057-1.68918,.0031-1.68933-.00613-.00372,.1039,.10603,1.6938,.35638,1.65509,.71657,1.53105,1.15158,1.23089,1.52113,.723,1.67789,.21234,1.52096-.09143,1.47227-.3866,1.27387-.82297,.95401-1.18144,1.35311,.94068,1.34764,.95389,1.35931,.94017Zm-14.75441-11.66155l1.60926,.00225,1.61285,.00455,1.61055-.00236,1.61432-.00255,1.61692-.00225,1.61531,.00084-.20314-1.65532-.52154-1.58159-.98748-1.329-1.45399-.78491-1.6482-.21644-1.64121,.23276-1.44395,.80239-.9943,1.32369-.55348,1.56469-.23194,1.64324Z" fill="#44c38b"/>
          <path d="M175.27186,38.41701l1.82302-.00077,1.82596,.00217,1.82316-.00024-.00081-2.12671-.12324-1.51749-.61413-1.37679-1.26286-.81482-1.49037-.28699-1.52447-.06223-1.53717,.05473-1.50943,.27732-1.31593,.76222-.95942,1.18596-1.30139-.90685-1.30146-.91354-1.29743-.9164,.918-1.27291,1.15599-1.06402,1.34792-.80419,1.47273-.53795,1.54112-.31804,1.56461-.16291,1.57669-.04156,1.7142,.05108,1.70818,.18957,1.66877,.39832,1.56631,.68947,1.34296,1.0541,.99147,1.38923,.60556,1.59913,.30828,1.6832,.08145,1.71299,.00446,1.70143-.00659,1.69729,.00034,1.7029,.00623,1.70009-.00864,1.70237,.00613,1.70429,.00174,1.70186-.0021,1.70585-.00226,1.7086,.00379,1.71225-1.77592,.00151-1.77525-.01007-1.77122,.00184-.00905-2.32795-1.06529,1.33592-1.43792,.9194-1.65676,.42422-1.71553,.10794-1.69894-.09209-1.66932-.32081-1.5956-.58475-1.44553-.88894-1.17876-1.21945-.83342-1.47642-.46628-1.63197-.13941-1.69405,.1565-1.70668,.50655-1.63294,.91811-1.43925,1.28342-1.12527,1.51868-.78085,1.64108-.48629,1.6945-.25407,1.71397-.08098Zm5.47287,4.16338l-1.68591,.00144-1.6907-.00217-1.6907,.00153-1.60417,.1179-1.52419,.49781-1.08132,1.15678-.3052,1.56966,.31081,1.49936,1.02706,1.12522,1.43785,.53298,1.53636,.14072,1.75945-.13515,1.65614-.58285,1.18635-1.278,.53876-1.66906,.1367-1.76247-.00728-1.21371Z" fill="#44c38b"/>
          <path d="M227.53744,42.27329l-.06543,1.63283-.2264,1.61676-.39969,1.58431-.61045,1.51271-.8379,1.39888-1.07291,1.22719-1.28944,.99657-1.44843,.74524-1.55644,.48781-1.60849,.27149-1.6322,.08568-1.63164-.0918-1.60854-.27334-1.5532-.50189-1.44815-.75093-1.28718-1.00049-1.08766-1.21456-.84854-1.39227-.62502-1.50587-.41309-1.57878-.22462-1.61718-.07158-1.63235,.005-1.59683-.00742-1.59683,.0732-1.63382,.21327-1.61999,.40372-1.58308,.61555-1.51201,.85468-1.39053,1.08683-1.21549,1.2986-.98566,1.45548-.73414,1.55866-.4814,1.60936-.27134,1.63228-.08008,1.63017,.0771,1.60678,.2741,1.55593,.48467,1.4513,.73921,1.29231,.98862,1.08721,1.21156,.83917,1.39501,.60727,1.50978,.39681,1.58055,.21761,1.61582,.066,1.63111-.00864,1.59683,.00586,1.59683Zm-5.37478-.15204l-.00275-1.47011,.0061-1.47011-.095-1.65774-.33433-1.62499-.68712-1.50504-1.12871-1.20121-1.48957-.7025-1.64161-.19985-1.65115,.19701-1.49998,.70125-1.13466,1.20276-.70232,1.50304-.33864,1.62449-.09587,1.66279-.0012,1.47011-.00327,1.47011,.09794,1.68952,.32443,1.65618,.68054,1.54078,1.13406,1.2364,1.51539,.71899,1.67473,.20336,1.65472-.21763,1.48202-.75792,1.1112-1.2387,.67573-1.52547,.34643-1.63429,.10288-1.67124Z" fill="#44c38b"/>
          <path d="M234.73627,28.02952l-.00539-1.57278,.0723-1.69234,.26134-1.67097,.56462-1.59219,.99551-1.35678,1.4031-.92952,1.60359-.52632,1.67504-.22329,1.69172-.07573,1.57146,.0068-.00602,1.62036,.00312,1.62309,.00086,1.62154-1.1638,.00314-1.56375,.19866-1.23189,.92275-.42679,1.50509-.07577,1.5795,.00279,.55842,1.48572-.00452,1.48783-.00054,1.48773,.00439-.00489,1.5529,.00404,1.55549-.00344,1.5513-1.48105,.00353-1.48783,.00638-1.49104-.00873,.00019,1.59295-.00186,1.58906,.00153,1.59056-.00185,1.58607,.00434,1.58611,.00218,1.59136-.00374,1.58873-.0022,1.59086-.00076,1.59266,.00052,1.59039,.00227,1.59411-.00399,1.59668,.011,1.60164-1.7937,.0005-1.79217-.00753-1.79337,.00343,.00599-1.59131-.00195-1.58906-.00939-1.59056,.0063-1.58607,.00495-1.58611-.00232-1.59136,.00461-1.58873-.00693-1.59086,.00373-1.59266,.00099-1.59039-.0006-1.59411,.00147-1.59668-.00798-1.59432-1.61989-.0018-1.62064-.00221,.0044-1.55135-.00874-1.55549,.00551-1.55264,1.61947,.00336,1.62351-.00489Z" fill="#44c38b"/>
          <path d="M265.50444,46.17239l1.00548,1.0943,1.24175,.80655,1.399,.48516,1.47514,.15507,1.58254-.13936,1.50548-.49514,1.24771-.97176,.85771-1.3323,.51224-1.5035,.2921-1.56184,.14025-1.58134,.0442-1.59235,.00181-1.62503-.00361-1.62412-.0006-1.62566,.01079-1.62107-.00432-1.62111-.00469-1.62647,.00328-1.62379,.00192-1.62597-.00401-1.6278-.00167-1.62548,.00788-1.62929v-1.63191s-.00201-1.62981-.00201-1.62981l1.46404,.00013,1.46982-.00412,1.47219-.00509,1.46956,.00935,.00492,1.62265,.00057,1.62412,.00227,1.62566-.00226,1.62107-.00995,1.62111,.00891,1.62647-.00153,1.62379-.00189,1.62597-.00476,1.6278,.00844,1.62548-.00589,1.62929,.00733,1.63191-.00213,1.63191-.0457,1.63872-.12329,1.63129-.23469,1.62133-.37555,1.59384-.52983,1.54763-.72994,1.46414-.9472,1.33188-1.15802,1.15058-1.3509,.91642-1.49228,.66064-1.57451,.43227-1.61648,.24086-1.6348,.06513-1.69381-.08761-1.67856-.24897-1.62882-.47077-1.55278-.67946-1.42463-.91793-1.26191-1.13094-1.04758-1.32727,1.63461-.93087,1.64233-.92579,1.63634-.9386Z" fill="#44c38b"/>
          <path d="M298.86167,38.41568l1.82302,.00281,1.82596,.00134,1.82678,.00143-.00457-2.12981-.1244-1.51723-.6137-1.37632-1.26429-.80872-1.48828-.29158-1.52426-.05784-1.53713,.04853-1.50801,.28126-1.31651,.75882-.96245,1.19328-1.30064-.91313-1.30213-.91258-1.2992-.91653,.92561-1.27246,1.15157-1.0682,1.34573-.80943,1.47481-.53464,1.54099-.32142,1.56558-.15587,1.57664-.04343,1.71443,.0486,1.70681,.19995,1.66832,.39639,1.56965,.68155,1.34121,1.05709,.98839,1.39084,.60922,1.59738,.30253,1.6839,.0894,1.71244-.00002,1.70143-.00078,1.69729-.00082,1.7029-.0059,1.70009,.00632,1.70237,.00099,1.70429-.0004,1.70186-.00328,1.70585,.00479,1.7086-.00313,1.70962-1.77339-.00616-1.77525,.00804-1.77597-.00237-.00108-2.33214-1.0681,1.33694-1.43813,.91943-1.65648,.42722-1.71601,.09902-1.69822-.09276-1.67168-.30855-1.59778-.5829-1.43727-.90247-1.18286-1.21415-.82777-1.47863-.46646-1.63053-.13894-1.69304,.14226-1.70816,.51414-1.63164,.91238-1.44435,1.28499-1.12681,1.52228-.77645,1.64076-.48978,1.69536-.25258,1.71438-.0779Zm5.4721,4.16578l-1.68513-.00189-1.6907-.00134-1.6907-.00181-1.60415,.12281-1.52355,.49883-1.08095,1.1561-.29903,1.56918,.30563,1.49839,1.02853,1.12056,1.43443,.5382,1.53627,.13653,1.75923-.13183,1.65186-.58886,1.1887-1.27188,.53735-1.66849,.1355-1.76186-.00327-1.21264Z" fill="#44c38b"/>
          <path d="M339.2576,42.37469l-.06613,1.72045-.25069,1.70374-.45454,1.66012-.67649,1.58262-.94249,1.4375-1.18373,1.24531-1.42483,.95881-1.58397,.66545-1.67913,.37162-1.71799,.1073-1.6657-.08865-1.6394-.31145-1.53406-.6384-1.29594-1.0363,.0008,1.60389,.00571,1.6057-.009,1.60751,.00117,1.60522-.00144,1.60898-.00149,1.61157,.00544,1.61168-1.80626,.00646-1.80908-.0121-1.80482,.00089-.0084-1.65641,.01032-1.66184-.00172-1.66452-.00681-1.66421,.00391-1.66275-.00055-1.66389-.00532-1.66579,.00328-1.66394,.00048-1.66588,.00046-1.66495-.00145-1.66653,.0014-1.66182,.00367-1.66186,.00103-1.66736-.00227-1.66461-.00769-1.66684,.01206-1.66873-.00138-1.66635-.00832-1.67025,.00949-1.67294-.01124-1.67809,1.81093,.00231,1.80908,.00733,1.80889-.00433-.00055,2.02784,1.25892-1.17143,1.53254-.7836,1.67276-.40898,1.72116-.11874,1.70487,.10874,1.66454,.38102,1.57769,.65065,1.40914,.96049,1.19811,1.21374,.93867,1.42494,.67469,1.56653,.44103,1.64937,.25213,1.68943,.07846,1.70908,.00318,1.72364-.01315,1.72361Zm-5.36015-.25345l-.0115-1.47011,.00117-1.47011-.08933-1.65766-.34096-1.62282-.67689-1.50919-1.1348-1.19498-1.48595-.70854-1.64206-.20055-1.59601,.19291-1.46208,.65275-1.12876,1.13486-.70645,1.4407-.36058,1.56272-.12079,1.60558,.00085,1.62222,.00571,1.62222,.0787,1.68598,.31887,1.65346,.66247,1.54534,1.12276,1.24488,1.51502,.71316,1.67029,.19715,1.65523-.21061,1.48763-.75175,1.09988-1.24985,.69153-1.51893,.34369-1.63659,.10235-1.67224Z" fill="#44c38b"/>
          <path d="M354.47233,38.42147l1.82307-.00612,1.82601,.0081,1.82225-.00612,.00193-2.12588-.1295-1.51661-.60901-1.37829-1.26474-.81083-1.48915-.29153-1.5246-.05566-1.53754,.04481-1.50939,.28079-1.31893,.75953-.95707,1.19346-1.30265-.90737-1.30071-.91454-1.30131-.91459,.92354-1.27693,1.15273-1.06831,1.34844-.80561,1.47464-.5349,1.54118-.31982,1.56531-.15743,1.57661-.04052,1.71444,.04541,1.70691,.19942,1.66993,.39168,1.56496,.69195,1.34587,1.05036,.98706,1.39225,.60941,1.59741,.30711,1.6835,.08605,1.71298-.0039,1.70143-.00394,1.69729-.00029,1.7029,.00183,1.70009,.00404,1.70237-.00455,1.70429,.00223,1.70186,.0048,1.70585-.00096,1.7086-.0011,1.71173-1.77541-.00737-1.77525-.00006-1.77231,.00207-.00364-2.32955-1.07051,1.33574-1.43641,.92188-1.65728,.42359-1.71567,.1113-1.69882-.09734-1.66965-.319-1.59592-.58443-1.44225-.8935-1.17862-1.21817-.83573-1.4745-.45987-1.63295-.14636-1.69283,.15154-1.70759,.50757-1.63379,.91756-1.44131,1.28774-1.12161,1.5176-.7837,1.64179-.4854,1.69495-.25181,1.71395-.07666Zm5.47562,4.15529l-1.68854,.00594-1.69073-.0081-1.69073,.00785-1.60447,.11487-1.52164,.50352-1.08441,1.15244-.3008,1.57005,.30619,1.49987,1.03096,1.12011,1.43411,.54202,1.53724,.13739,1.76033-.1313,1.65324-.59111,1.18493-1.27657,.53955-1.66763,.13258-1.76202,.00219-1.21734Z" fill="#44c38b"/>
          <path d="M373.32842,28.02658l1.77393,.00274,1.77525-.0046,1.77439,.00413-.0022,2.28119,1.23816-1.28014,1.55126-.86596,1.71849-.4608,1.78121-.12775,1.71851,.09731,1.6847,.35067,1.59291,.64618,1.41273,.97669,1.13423,1.28984,.81273,1.51009,.51583,1.64151,.27633,1.69738,.08101,1.72298-.00483,1.58145-.00108,1.58149,.00593,1.58672-.00646,1.58411,.00359,1.58623,.0037,1.58802-.00836,1.58576,.00221,1.58947,.00615,1.59203-.00076,1.595-1.79194-.00298-1.79219-.00237-1.79295,.00319,.00073-1.69003-.00052-1.69481-.00441-1.69202,.00237-1.69429,.00127-1.6962,.00459-1.69378-.00757-1.69774,.00652-1.70048-.00539-1.70048-.11322-1.71878-.47011-1.65446-1.00802-1.37622-1.51642-.77943-1.70493-.20433-1.72426,.23779-1.55174,.77876-1.13646,1.31047-.62643,1.62145-.17853,1.73413-.00302,1.69483-.00143,1.70044,.00043,1.69763,.00167,1.69991-.00192,1.70183-.00084,1.6994-.00388,1.70338,.00106,1.70612,.00605,1.70845-1.80836,.00257-1.80908-.00094-1.8103-.00265,.00577-1.69018-.0088-1.68699,.00342-1.68896-.00051-1.68802,.00476-1.68962,.00121-1.68485-.00429-1.68489-.00544-1.69046,.00877-1.68767-.0018-1.68994,.00107-1.69184-.00176-1.68943,.00397-1.69339-.00238-1.69612-.00429-1.69772Z" fill="#44c38b"/>
        </g>
        <path d="M48.05309,51.2342l1.85812-1.50261,.89382-1.35536,.88275-1.36135,.85023-1.38584,.8394-1.38593,.80713-1.409,.8013-1.41527,.75897-1.43941,.72159-1.46013,.69715-1.47376,.63407-1.50323,.57809-1.52303,.49368-1.55228,.36216-1.5864,.13692-1.61464-.0953-1.60016-.31113-1.57248-.51567-1.51761-.70995-1.43717-.90011-1.32522-1.05511-1.20462-1.19948-1.06173-1.33154-.89124-1.43611-.71077-1.51669-.5169-1.57336-.30417-1.59892-.11269-1.60055,.10366-1.57129,.31715-1.51529,.5202-1.43669,.70865-1.3307,.89143-1.20433,1.05597-1.05758,1.20304-.88719,1.3334-.70927,1.43565-.52683,1.51284-.30245,1.57383-.11168,1.59893,.15624,1.61304,.35267,1.58468,.49415,1.5479,.57368,1.52115,.63728,1.4953,.68641,1.47501,.7235,1.46002,.77083,1.43625,.78659,1.42703,.82109,1.40385,.83045,1.40194,.86537,1.37782,.86726,1.37236,.90923,1.34449,1.84978,1.50186-1.64727,.00211-1.6459,.00693-1.6481,.00373-1.64996-.00918-1.64761,.00686-1.65147,.00199-1.65413-.00325-1.6536-.00324,.00233,2.03669-.00579,2.03951,1.66147-.00664,1.65968,.01057,1.66157-.00653,1.65972,.00675,1.66166-.00247,1.66073-.00888,1.6623,.00718,1.65761-.00733,1.65765,.00975,1.66314,.0022,1.66039-.00316,1.66262-.00073,1.6645-.00174,1.66213,.00468,1.66602-.00818,1.6687,.00399,1.66616-.00391,.00704-2.03504-.00651-2.03549-1.64659-.00414-1.64588,.00244-1.64809-.00449-1.64995,.00641-1.6476-.00241-1.65145,.00372-1.65411-.00575-1.65412,.0026Zm-6.88029-21.96824l.20366-1.54137,.58801-1.43907,.95333-1.22787,1.22748-.95359,1.43876-.58935,1.54108-.20847,1.54039,.2147,1.43568,.59189,1.23775,.94027,.94083,1.23719,.60206,1.43312,.19885,1.54256-.20806,1.54105-.59872,1.4325-.93718,1.23901-1.23712,.94003-1.43448,.59456-1.54,.2018-1.54097-.20172-1.4399-.58579-1.2323-.94922-.94135-1.23663-.59492-1.43499-.2029-1.54062Z" fill="#44c38b"/>
      </g>
    </g>
  </g>
</svg>