<?xml version="1.0" encoding="UTF-8"?>
<svg id="b" data-name="レイヤー 2" xmlns="http://www.w3.org/2000/svg" width="427.11677" height="132.02016" viewBox="0 0 427.11677 132.02016">
  <g id="c" data-name="text">
    <g>
      <rect x="0" y="91.27016" width="273.4528" height="40.75" fill="#fff" opacity=".98"/>
      <g>
        <path d="M34.21356,106.06997c-1.07129,0-1.76367,.02051-2.54004,.12598v-2.30957c.73438,.10449,1.51172,.14746,2.6875,.14746h5.54297c-.02148-.86133-.04297-1.21875-.14746-1.89062h2.56152c-.10547,.65137-.12598,1.0918-.12598,1.89062h5.73145c1.30273,0,2.09961-.04297,2.75098-.14746v2.30957c-.69238-.08398-1.5752-.12598-2.60352-.12598h-5.87891v1.17578h4.3877c1.28125,0,1.67969-.02051,2.33105-.08398-.06348,.62988-.08398,1.32324-.08398,2.12012v3.88477q0,1.17578,.08398,2.1416c-.6084-.08398-1.19629-.10449-2.35156-.10449h-2.51953c1.86816,1.76367,4.09473,2.85547,7.28613,3.58984-.54688,.83984-.73535,1.21777-1.19727,2.22559-1.70117-.56738-2.96094-1.13379-4.30469-1.91113-1.55273-.92383-2.54004-1.7207-3.67383-3.02344,.02148,.69336,.04199,1.0918,.04199,1.44922v1.51172c0,1.07031,.02051,1.67969,.14746,2.39355h-2.58301c.10449-.81934,.14746-1.42773,.14746-2.39355v-1.51172c0-.25195,.02051-1.0293,.04102-1.42773-1.07031,1.32227-2.35156,2.37305-4.00977,3.31738-1.00781,.58789-2.33008,1.17578-3.58984,1.61621-.46289-1.04883-.65137-1.40625-1.17578-2.12012,1.57422-.44043,2.66602-.86035,3.94727-1.55371,1.28027-.69336,2.28809-1.42773,3.00195-2.16211h-2.26758c-1.30176,0-1.72168,.02051-2.37305,.10449q0-.20996,.06348-.6084,0-.08398,.02051-1.5332v-3.86328c0-1.0918-.02051-1.42773-.08398-2.16211,.56738,.08398,1.07129,.10449,2.28906,.10449h4.13672v-1.17578h-5.69043Zm1.5752,2.98145v1.28125h4.11523v-1.28125h-4.11523Zm0,3.02344v1.32227h4.11523v-1.32227h-4.11523Zm6.40332-1.74219h4.40918v-1.28125h-4.40918v1.28125Zm0,3.06445h4.40918v-1.32227h-4.40918v1.32227Z" fill="#44c38b"/>
        <path d="M62.33172,115.39223c-1.5957,2.51953-2.64551,3.61133-5.06055,5.41699-.48242-.79785-.81836-1.21777-1.49023-1.82617,1.36523-.83984,1.95312-1.30273,2.75-2.12109,.77734-.79785,1.17578-1.36523,1.84766-2.58203l1.95312,1.1123Zm1.82617-11.69434c0-.56738-.04102-1.05078-.125-1.5332h2.60352c-.08398,.41992-.12695,.88184-.12695,1.51172v.62988h6.00586c1.0918,0,1.80469-.04199,2.45605-.14746v2.37305c-.58789-.10547-1.15527-.12598-2.30957-.12598h-14.25586c-1.13477,0-1.65918,.02051-2.26758,.12598v-2.37305c.6084,.10547,1.38477,.14746,2.51953,.14746h5.5v-.6084Zm-3.7793,10.22461c-.92383,0-1.32227,.02148-1.88867,.0625,.0625-.52441,.08398-.92383,.08398-1.6582v-3.00195c0-.71484-.02148-1.0918-.02148-1.13477,0-.02051-.02148-.125-.04199-.29297,0-.06348,0-.14746-.02051-.27344q.16797,.02148,.50391,.04199c.18848,.02051,.86035,.04199,1.38477,.04199h10.09961q1.44922-.02148,1.91016-.08398c-.0625,.50391-.08398,.94531-.08398,1.70117v3.00195c0,.73438,.02148,1.0918,.06348,1.6582-.4834-.04102-1.0918-.0625-1.91113-.0625h-3.67383v5.24902c0,1.61621-.69336,2.0791-3.16992,2.0791-.33594,0-.54688,0-1.70117-.02148-.10547-.92383-.25195-1.46973-.60938-2.24609,.88281,.125,1.55469,.18848,2.28906,.18848,.71387,0,.86133-.08398,.86133-.44043v-4.80859h-4.07422Zm.41992-2.07812h9.28125v-2.16309h-9.28125v2.16309Zm9.49023,2.45605c.79883,1.21777,1.23926,1.74316,2.0791,2.49902,.86035,.79688,1.51172,1.23828,2.89746,1.99414-.65039,.67188-1.0293,1.19727-1.49023,2.01562-1.44922-.98633-2.05859-1.51172-3.12891-2.60352-.86133-.92383-1.30176-1.46973-2.18359-2.72949l1.82617-1.17578Z" fill="#44c38b"/>
        <path d="M80.35125,110.20571c.56641,.08398,.90234,.10547,1.67969,.10547h1.84766c.62988,0,1.0498-.02148,1.5957-.10547-.0625,.65137-.08398,1.19727-.08398,2.31055v4.21973c.41992,.69238,.86133,1.0918,1.6582,1.53223,.83984,.4834,2.01562,.63086,5.18652,.63086,3.2959,0,5.66895-.12695,7.76855-.37891-.35742,.94531-.50391,1.51172-.62988,2.43555-1.6377,.08398-5.54297,.16797-7.09668,.16797-4.74512,0-6.25684-.46094-7.95703-2.39258-.94531,.90234-1.4707,1.34375-2.85547,2.37207-.12695,.06348-.14746,.08398-.39941,.29395l-1.02832-2.45703q.10449-.0625,.33594-.14648c.46094-.16797,1.93164-1.19727,2.83398-2.01562v-4.2832h-1.40625c-.56738,0-.88281,.02148-1.44922,.10547v-2.39453Zm1.97363-7.66309c1.76367,1.5957,2.24707,2.0791,3.65332,3.84277l-1.74219,1.67969c-1.28125-1.74316-2.05859-2.60352-3.61133-3.96875l1.7002-1.55371Zm7.87402,7.72656c-.16797,3.69531-.77734,5.71094-2.31055,7.79004-.71289-.79883-1.13281-1.19727-1.80469-1.70117,1.51172-1.86914,1.97266-4.07324,1.97266-9.42773,0-1.53223-.04102-2.39258-.10449-3.02344,.4834,.02148,.52441,.02148,.65137,.02148,1.51172,0,4.74414-.50391,6.78125-1.07031,.77734-.21094,1.34375-.44141,1.72168-.67188l1.72168,1.99414c-2.30957,.83984-5.16504,1.40625-8.56641,1.72168v2.2041h6.94922c.9668,0,1.51172-.02051,2.16309-.10449v2.37207c-.65137-.0625-1.30176-.10449-2.0791-.10449h-1.2168v5.62695c0,1.0918,.04102,1.74316,.125,2.24707h-2.51953c.08398-.54688,.12695-1.15527,.12695-2.24707v-5.62695h-3.61133Z" fill="#44c38b"/>
        <path d="M113.13055,120.19985c-1.0498-1.55273-1.5957-2.30859-2.49805-3.42188-1.25977,1.76367-2.77148,3.16992-4.89258,4.49316-.39844-.77637-.71387-1.23926-1.38574-1.95215,2.22559-1.21875,3.59082-2.41504,4.8291-4.2207-.81836-.83984-1.17578-1.21777-2.20508-2.20508l1.34375-1.57422c.9873,.94531,1.30273,1.25977,1.91113,1.88965,.4834-1.00781,.73535-1.78418,.77637-2.41504l2.14258,.83984q-.12695,.31543-.35742,.9668c-.31445,.79688-.62988,1.51172-1.00781,2.26758,1.00781,1.0918,1.25977,1.40625,2.89746,3.50586l-1.55371,1.82617Zm-3.69531-12.24023c-1.0918,2.35156-1.88965,3.46484-3.69531,5.14453-.44141-.90332-.81836-1.49121-1.32227-2.01562,.83984-.67188,1.2168-1.07129,1.76367-1.78516,.52441-.71387,.77637-1.21777,1.19629-2.28906l2.05762,.94531Zm-.39844-3.94727c0-.79785-.02148-1.19727-.10547-1.72168h2.41406c-.08398,.52441-.10449,1.00781-.10449,1.72168v.62988h1.82715c.96484,0,1.49023-.02051,2.07812-.10449v2.33008c-.48242-.04199-.92383-.0625-1.86914-.0625h-6.36133c-.79785,0-1.36523,.02051-1.97363,.10449v-2.39355c.62988,.10547,1.0918,.12598,2.05762,.12598h2.03711v-.62988Zm3.82031,2.98145c.9668,1.84766,1.5957,2.70801,2.89844,3.94727-.56738,.4834-.83984,.77637-1.51172,1.65918-1.63867-1.84766-2.22656-2.6875-3.21289-4.70312l1.82617-.90332Zm11.00195-2.89746c-.10449,.20996-.16797,.39844-.73438,1.86914-.50391,1.34375-1.1543,2.70801-1.95312,4.11523,1.07129,1.2168,1.49121,1.82617,1.91113,2.77148,.4834,1.00781,.71387,2.07812,.71387,3.10742,0,1.32227-.5459,2.28809-1.46973,2.64453-.52441,.21094-1.1123,.27344-2.22559,.27344-.33594,0-.56641,0-1.0918-.04199-.04199-1.07129-.12598-1.46973-.48242-2.28809,.81836,.10449,1.07031,.125,1.55273,.125,1.07129,0,1.40723-.25195,1.40723-1.1123,0-.77637-.20996-1.61621-.6084-2.45605-.37891-.79883-.83984-1.40723-2.18359-2.89844,1.07031-1.78418,1.74219-3.40039,2.24609-5.35352h-2.91797v14.04688c0,1.34375,.04102,1.99414,.14648,2.6875h-2.47754c.08398-.71484,.12598-1.61719,.12598-2.66699v-14.46582c0-.60938-.02148-1.19727-.08398-1.74316,.56641,.04199,.98633,.06348,1.72168,.06348h3.69531c.86035,0,1.25977-.02148,1.72168-.08398l.98633,1.40625Z" fill="#44c38b"/>
        <path d="M148.00946,112.85219c-.96582-.10547-1.93164-.14746-3.19141-.14746h-12.42969c-1.17578,0-2.26758,.06348-3.21289,.14746v-2.77148c.90332,.10449,1.84766,.14648,3.21289,.14648h12.42969c1.40625,0,2.37305-.04199,3.19141-.14648v2.77148Z" fill="#44c38b"/>
        <path d="M154.88055,105.31411c0-.81934-.04297-1.55371-.10547-2.24707,.67188,.08398,1.36523,.10547,2.33008,.10547h10.16211c.9873,0,1.63867-.02148,2.26758-.10547-.08398,.79883-.10449,1.40723-.10449,2.14258v13.5625c0,1.0918,.04199,1.78516,.12598,2.54102h-2.54102v-1.25977h-9.7627v1.25977h-2.49902c.08398-.71387,.12695-1.55371,.12695-2.54102v-13.45801Zm2.37207,4.95508h9.7627v-4.87109h-9.7627v4.87109Zm0,7.5791h9.7627v-5.375h-9.7627v5.375Z" fill="#44c38b"/>
        <path d="M176.15399,110.14321c.56641,.08398,.90234,.10547,1.7002,.10547h1.36426c.63086,0,1.11328-.02148,1.61719-.10547-.08398,.62988-.10547,1.17578-.10547,2.28906v4.53516c1.19727,1.7207,2.22656,2.05664,6.27832,2.05664,3.56934,0,6.19434-.125,8.90234-.41992-.39941,.9873-.50391,1.44922-.62988,2.49902-2.05762,.06348-5.375,.12598-8.16797,.12598-4.30371,0-5.96289-.5459-7.41113-2.39355-.4834,.46191-.94434,.88184-1.49121,1.32324-.29297,.25195-.41992,.33594-1.04883,.79688q-.23145,.16797-.39941,.29492l-1.02832-2.39453c.94434-.39844,1.82617-1.02832,2.75-1.97266v-4.57812h-.90234c-.56738,0-.90332,.02148-1.42773,.10547v-2.26758Zm8.29297,.10547c-.12598,1.61621-.27344,2.60352-.60938,3.7998-.39844,1.53223-.71289,2.28809-1.57422,3.65332-.35742-.75586-.88184-1.42773-1.46973-1.91016,.96582-1.5332,1.30176-2.49902,1.55371-4.43066,.16797-1.34375,.20996-2.26758,.23047-4.91309-.54492,0-1.04883,.04199-1.42773,.08398l-1.44824,1.38574c-1.1123-1.6377-1.99512-2.66699-3.35938-3.92676l1.67969-1.55273c1.32324,1.23828,2.16309,2.14062,3.06543,3.31641v-1.42773c.56641,.08398,1.00781,.10547,2.07812,.10547h.46289v-.5459c0-.75586-.02148-1.17578-.12695-1.7002h2.41504c-.08398,.50391-.12598,.94434-.12598,1.67969v.56641h.25195c.94531,0,1.38574-.02148,1.91016-.08398v1.44922c.79883-1.44922,1.30273-2.85547,1.36523-3.7793l2.28906,.35645c-.35742,1.00781-.4834,1.34375-.71484,1.95215h2.77148c.75586,0,1.23926-.02051,1.74316-.10449v2.18359c-.4834-.04199-1.02832-.06348-1.74316-.06348h-3.65234c-.21094,.39941-.29492,.54688-.63086,1.13477,.41992,.04102,.94531,.0625,1.4707,.0625h2.28809c.69238,0,.9873-.02148,1.23926-.0625l.92383,1.0918c-.18945,.16797-.29492,.29297-.46289,.50391-.48242,.54492-1.38477,1.42773-2.12012,2.05664v.54688h1.32324c.56641,0,1.00781-.02148,1.44824-.10547v2.1416c-.39941-.06348-.81934-.08398-1.25977-.08398h-1.51172v2.6875c0,.90332-.29395,1.38574-.96582,1.5752-.50391,.14648-.73438,.16797-2.45703,.16797-.04102,0-.20898,0-.46094-.02148-.04297-.73438-.14746-1.28125-.41992-1.99414,.58789,.08398,1.1543,.125,1.80469,.125,.31543,0,.41992-.08398,.41992-.39844v-2.1416h-.81836c-.67188,0-1.21777,.02051-1.72168,.10449v-2.16211c.4834,.0625,.9873,.10547,1.72168,.10547h.81836c0-.54688-.02051-.79883-.08398-1.15527h.56738c.46191-.33594,.83984-.71387,1.21777-1.17578h-1.5957c-.60938,0-1.11328,.04199-1.5957,.10449v-1.5957l-.46191,.75586c-.52441-.50391-1.0498-.83984-1.84766-1.19629,.35645-.44043,.46191-.58789,.71387-.94434-.41992-.02148-.60938-.02148-.98633-.02148h-1.99512q-.02051,1.46973-.02051,1.80566h1.42773c.81836,0,1.25977-.02051,1.78418-.08398-.04199,.39941-.06348,.77637-.06348,1.34375-.04102,3.2959-.23047,5.73145-.52441,7.0127-.27246,1.07031-.83984,1.40625-2.41504,1.40625-.31445,0-.48242,0-.83984-.04102-.04102-.90332-.125-1.38672-.33594-2.01562,.35742,.0625,.83984,.125,1.0918,.125,.46289,0,.58789-.125,.71484-.67188,.18848-.83984,.35645-2.98047,.39844-5.08008h-1.34375Z" fill="#44c38b"/>
        <path d="M215.54657,118.60414h1.97363c1.0918,0,1.78418-.04102,2.24707-.10449v2.22559c-.63086-.0625-1.36523-.10547-2.33105-.10547h-7.0752v.9873h-2.31055c.08398-.6084,.12695-1.25977,.12695-2.2041v-8.35742c0-.37695,0-.48242,.02051-.77637-.27246,.31543-.41992,.4834-.81934,.90332q-.10449-.16797-.18848-.31543l.04199,2.03613q-.86133,.33594-1.76367,.67188v5.81641c0,1.0918-.29395,1.57422-1.0918,1.82617-.50391,.14746-1.21777,.23145-1.99414,.23145-.31543,0-.58789-.02051-1.17578-.04199-.06348-.86133-.16797-1.28125-.4834-2.16211,.90332,.08398,1.44824,.125,1.88965,.125,.52539,0,.65039-.10449,.65039-.58789v-4.45117q-.81836,.25195-1.49023,.46289c-.08398,.02051-.16797,.04102-.29395,.08398-.10449,.04102-.16797,.0625-.18848,.0625q-.21094,.0625-.33594,.12598l-.44141-2.33105c.65039-.0625,1.44922-.25195,2.75-.6084v-3.98926h-1.04883c-.4834,0-.94531,.02148-1.5332,.08398v-2.24609c.52539,.08398,.96582,.125,1.55371,.125h1.02832v-1.74219c0-1.00781-.02051-1.46973-.125-2.1416h2.45605c-.10449,.65137-.12598,1.13379-.12598,2.12012v1.76367h.71387c.52441,0,.79785-.02051,1.17578-.08398v1.91113c1.25977-1.6377,2.41504-4.13574,2.6875-5.83691l2.43555,.50391q-.10449,.27344-.31543,.75586c-.41992,1.0498-.65039,1.55371-1.13281,2.47754h2.58203c.62988-1.21777,1.13379-2.47754,1.36523-3.56934l2.35156,.44141c-.79883,1.91016-.90332,2.12012-1.44922,3.12793h1.5332c.83984,0,1.57422-.04199,2.12012-.12598v2.22559c-.56738-.08398-1.34375-.12598-2.12012-.12598h-1.86914v2.18359h1.76367c.81836,0,1.44922-.04199,1.86914-.08398v2.12109c-.4834-.06348-1.13477-.10547-1.86914-.10547h-1.76367v2.28906h1.78516c.90234,0,1.46875-.02148,1.84766-.10547v2.1416c-.41992-.08398-1.00781-.10449-1.84766-.10449h-1.78516v2.47656Zm-10.07812-7.17969c.67188-.25195,.94531-.33594,1.70117-.65137-.39941-.67188-.67188-1.0498-1.05078-1.53223,.52539-.50391,.69336-.67188,1.0293-1.07129-.33594-.04199-.56641-.04199-.96582-.04199h-.71387v3.29688Zm7.91602-1.44922v-2.18359h-3.02344v2.18359h3.02344Zm-3.02344,4.2207h3.02344v-2.28906h-3.02344v2.28906Zm0,4.4082h3.02344v-2.47656h-3.02344v2.47656Z" fill="#44c38b"/>
        <path d="M228.33758,112.64125c-.23047,4.19922-.79785,6.29883-2.33008,8.73438-.58789-.88086-1.00781-1.34375-1.63867-1.86816,1.49121-2.26758,1.89062-4.36719,1.89062-9.91016,0-1.7002-.02148-2.47754-.12695-3.2959,.65137,.0625,1.11328,.08398,2.24707,.08398h4.87109c0-.41992-.02051-.52539-.06348-.90332h2.22656c-.06348,.29395-.08398,.50391-.08398,.90332h6.29883c.94434,0,1.51172-.02148,2.12012-.12695v1.82715c-.65137-.08398-1.30176-.10449-2.1416-.10449h-3.75781v.92383h3.46387c.58789,0,1.0498-.02148,1.5752-.06348-.04297,.35645-.06348,.62988-.06348,1.17578v1.40723c0,.48242,.02051,.83984,.06348,1.28027-.58789-.04199-1.07129-.06348-1.4707-.06348h-8.77539c-.06348,.29492-.08398,.39941-.14746,.71484h9.46973c.83984,0,1.32227-.02148,1.86816-.10547v1.67969c-.46191-.0625-1.07129-.08398-1.88965-.08398h-9.82617c-.08398,.29395-.10547,.39844-.20996,.71387h10.2041c.62988,0,1.11328-.02051,1.5332-.06348q-.02148,.18945-.08398,.77734c-.23145,2.09961-.39941,3.16992-.65137,3.80078-.41992,1.07031-.94434,1.34375-2.58301,1.34375-.77637,0-.94434-.02148-2.18359-.14746-.0625-.83984-.16797-1.34375-.39844-1.91113,.27344,.06348,.35742,.08398,.58789,.12695-.27344-.71484-.44141-1.07129-.86133-1.74316l1.5332-.46191c.5459,.71387,.69336,.96582,1.13379,1.88965l-1.07129,.41992c.4834,.04199,.90332,.06348,1.15527,.06348,.4834,0,.65137-.12695,.75586-.52539,.12598-.46191,.20996-1.0293,.29395-1.97363h-10.16211q-1.67969,.02051-2.12109,.02051c.71484-1.7002,1.11328-3.08594,1.36523-4.53516h-2.01562Zm1.57422-9.34277c0-.50391-.02051-.69238-.08398-1.13379h2.33105c-.06348,.39844-.08398,.60938-.08398,1.13379h4.59863c0-.46191-.02148-.75586-.06348-1.13379h2.33105c-.06348,.37793-.08398,.52539-.08398,1.13379h2.85547c.96484,0,1.63672-.04199,2.35156-.12598v1.91016c-.69336-.08398-1.32324-.10449-2.35156-.10449h-2.85547c0,.39941,.02051,.65137,.08398,.9873h-2.31055c.04297-.33594,.04297-.44141,.04297-.9873h-4.59863c.02051,.62988,.02051,.67188,.06348,.96582h-2.31055c.06348-.35742,.08398-.58789,.08398-.96582h-2.47656c-1.05078,0-1.63867,.02051-2.31055,.10449v-1.91016c.67188,.08398,1.34375,.12598,2.31055,.12598h2.47656Zm1.23926,14.67676c-.39941,1.40625-.83984,2.41406-1.5752,3.58984l-2.03613-.92383c.81934-1.11328,1.23926-1.97363,1.5752-3.27539l2.03613,.60938Zm-.12598-6.76172v-.90234h-2.625q0,.67188-.02051,.90234h2.64551Zm0-2.30859v-.92383h-2.625v.92383h2.625Zm2.39355,8.88086c.31543,1.0498,.50391,1.93164,.69238,3.14941l-2.01562,.27246c-.08398-1.23828-.23047-2.05664-.54492-3.16992l1.86816-.25195Zm2.39355-8.88086v-.92383h-2.77148v.92383h2.77148Zm0,2.30859v-.90234h-2.77148v.90234h2.77148Zm.46191,6.4043c.46191,1.0293,.67188,1.5957,.9873,2.83398l-1.84766,.41992c-.29492-1.34375-.44141-1.84766-.88281-2.91797l1.74316-.33594Zm4.40918-6.4043v-.90234h-2.83398v.90234h2.83398Z" fill="#44c38b"/>
      </g>
      <rect width="427.11677" height="75.82553" fill="#fff" opacity=".98"/>
      <g>
        <g>
          <path d="M84.22849,53.37384l.52514-1.51893,.52405-1.519,.52898-1.51632,.52913-1.51707,.53713-1.51704,.52143-1.52218,.53111-1.51731,.5292-1.51915,.52028-1.52419,.53159-1.51837,.53037-1.52078,.52753-1.52082,.53871-1.51854,.51513-1.52192,.53679-1.51443,.53227-1.52163,.5225-1.52221,.52936-1.52212,.53539-1.52194,.52755-1.52223,.52393-1.52749,.52935-1.52836,.53976-1.52201,1.85454-.01046,1.85978,.00695,1.86314-.00528,.52427,1.52562,.52382,1.51908,.5345,1.5144,.52714,1.51776,.52475,1.52134,.52859,1.51969,.53095,1.51737,.52354,1.52112,.52967,1.52093,.53664,1.51661,.52359,1.52314,.5265,1.52117,.53407,1.52015,.52583,1.5182,.52948,1.51698,.5315,1.5219,.52996,1.51962,.53234,1.52108,.52646,1.52505,.52447,1.52331,.53505,1.52362,.53482,1.52646,.52769,1.53135-1.55725,.00363-1.55851-.00705-1.56102,.00248-1.55772-.0053-.48532-1.44196-.47326-1.4472-.46657-1.45315-.47746-1.45216-.4829-1.45081-1.57696,.00688-1.57394-.00184-1.57606-.00991-1.57783,.00402-1.57559,.00159-1.57927,.00046-1.58182,.00264-1.58334-.00542-.46991,1.45224-.48544,1.44319-.46863,1.45247-.48611,1.44932-.47419,1.4498-1.56432,.00786-1.57116-.00977-1.5737,.00617-1.57149-.00131Zm10.28644-12.31568l1.55423-.00289,1.55374-.00406,1.55153,.00148,1.55516,.00137,1.55767,.00894,1.55661-.00701-.51345-1.56564-.5173-1.57117-.52601-1.56542-.51475-1.57147-.51717-1.57263-.519-1.56955-.50947-1.57676-.53251-1.57198-.5131-1.58088-.52141,1.56659-.51177,1.57299-.5171,1.56836-.52325,1.56867-.51672,1.57278-.51109,1.57216-.51689,1.57432-.5299,1.57284-.51803,1.57896Z" fill="#44c38b"/>
          <path d="M133.19552,34.36375l-.9685-1.06524-1.25831-.69032-1.42273-.21533-1.62583,.27069-1.40385,.85478-.97786,1.3264-.50875,1.57114-.14863,1.64984-.0031,1.69483,.00576,1.70044,.00109,1.69763-.00772,1.69991,.00094,1.70183-.00021,1.6994,.00062,1.70338,.00493,1.70612-.00439,1.7028-1.80302,.00436-1.80908,.00181-1.80569-.00647-.00015-1.68524-.00429-1.68699-.00052-1.68896,.00437-1.68802-.00359-1.68962,.0041-1.68485-.00787-1.68489,.00357-1.69046,.00328-1.68767-.0044-1.68994,.00206-1.69184-.0035-1.68943,.00178-1.69339-.00212-1.69612,.00134-1.69877,1.77494,.00043,1.77525,.00107,1.77232,.00343,.00167,2.2792,1.08246-1.2344,1.38632-.87722,1.56836-.48742,1.64189-.13391,1.67002,.12233,1.61697,.42712,1.48277,.77032,1.2624,1.09553,1.01503,1.33192-1.43814,1.00852-1.43529,1.01699-1.43673,1.01431Z" fill="#44c38b"/>
          <path d="M160.27069,49.51972l-1.02219,1.44512-1.31119,1.17752-1.54394,.84477-1.68694,.51819-1.7459,.25907-1.76826,.07177-1.6418-.0898-1.61937-.27212-1.5651-.49699-1.46933-.73028-1.32265-.97159-1.12574-1.19349-.8955-1.3736-.67434-1.49432-.44861-1.57767-.2641-1.62026-.07499-1.64134,.00115-1.72362-.004-1.72362,.06673-1.59083,.19377-1.57885,.36008-1.54824,.55355-1.48949,.77839-1.38584,1.02981-1.20799,1.23534-.99545,1.40658-.73432,1.51392-.47917,1.56605-.26669,1.58906-.0774,1.61415,.07832,1.58945,.27592,1.53262,.50098,1.41783,.76547,1.23543,1.03227,1.00249,1.26067,.75333,1.42431,.52574,1.52278,.33383,1.57853,.18365,1.60381,.04751,1.61544,.00483,1.39409,.00259,1.39793-1.68119-.00107-1.68355-.00738-1.68077,.00745-1.68303,.002-1.68492-.00811-1.68252,.00324-1.68646,.00057-1.68918,.0031-1.68933-.00613-.00372,.1039,.10603,1.6938,.35638,1.65509,.71657,1.53105,1.15158,1.23089,1.52113,.723,1.67789,.21234,1.52096-.09143,1.47227-.3866,1.27387-.82297,.95401-1.18144,1.35311,.94068,1.34764,.95389,1.35931,.94017Zm-14.75441-11.66155l1.60926,.00225,1.61285,.00455,1.61055-.00236,1.61432-.00255,1.61692-.00225,1.61531,.00084-.20314-1.65532-.52154-1.58159-.98748-1.329-1.45399-.78491-1.6482-.21644-1.64121,.23276-1.44395,.80239-.9943,1.32369-.55348,1.56469-.23194,1.64324Z" fill="#44c38b"/>
          <path d="M175.27186,38.41701l1.82302-.00077,1.82596,.00217,1.82316-.00024-.00081-2.12671-.12324-1.51749-.61413-1.37679-1.26286-.81482-1.49037-.28699-1.52447-.06223-1.53717,.05473-1.50943,.27732-1.31593,.76222-.95942,1.18596-1.30139-.90685-1.30146-.91354-1.29743-.9164,.918-1.27291,1.15599-1.06402,1.34792-.80419,1.47273-.53795,1.54112-.31804,1.56461-.16291,1.57669-.04156,1.7142,.05108,1.70818,.18957,1.66877,.39832,1.56631,.68947,1.34296,1.0541,.99147,1.38923,.60556,1.59913,.30828,1.6832,.08145,1.71299,.00446,1.70143-.00659,1.69729,.00034,1.7029,.00623,1.70009-.00864,1.70237,.00613,1.70429,.00174,1.70186-.0021,1.70585-.00226,1.7086,.00379,1.71225-1.77592,.00151-1.77525-.01007-1.77122,.00184-.00905-2.32795-1.06529,1.33592-1.43792,.9194-1.65676,.42422-1.71553,.10794-1.69894-.09209-1.66932-.32081-1.5956-.58475-1.44553-.88894-1.17876-1.21945-.83342-1.47642-.46628-1.63197-.13941-1.69405,.1565-1.70668,.50655-1.63294,.91811-1.43925,1.28342-1.12527,1.51868-.78085,1.64108-.48629,1.6945-.25407,1.71397-.08098Zm5.47287,4.16338l-1.68591,.00144-1.6907-.00217-1.6907,.00153-1.60417,.1179-1.52419,.49781-1.08132,1.15678-.3052,1.56966,.31081,1.49936,1.02706,1.12522,1.43785,.53298,1.53636,.14072,1.75945-.13515,1.65614-.58285,1.18635-1.278,.53876-1.66906,.1367-1.76247-.00728-1.21371Z" fill="#44c38b"/>
          <path d="M227.53744,42.27329l-.06543,1.63283-.2264,1.61676-.39969,1.58431-.61045,1.51271-.8379,1.39888-1.07291,1.22719-1.28944,.99657-1.44843,.74524-1.55644,.48781-1.60849,.27149-1.6322,.08568-1.63164-.0918-1.60854-.27334-1.5532-.50189-1.44815-.75093-1.28718-1.00049-1.08766-1.21456-.84854-1.39227-.62502-1.50587-.41309-1.57878-.22462-1.61718-.07158-1.63235,.005-1.59683-.00742-1.59683,.0732-1.63382,.21327-1.61999,.40372-1.58308,.61555-1.51201,.85468-1.39053,1.08683-1.21549,1.2986-.98566,1.45548-.73414,1.55866-.4814,1.60936-.27134,1.63228-.08008,1.63017,.0771,1.60678,.2741,1.55593,.48467,1.4513,.73921,1.29231,.98862,1.08721,1.21156,.83917,1.39501,.60727,1.50978,.39681,1.58055,.21761,1.61582,.066,1.63111-.00864,1.59683,.00586,1.59683Zm-5.37478-.15204l-.00275-1.47011,.0061-1.47011-.095-1.65774-.33433-1.62499-.68712-1.50504-1.12871-1.20121-1.48957-.7025-1.64161-.19985-1.65115,.19701-1.49998,.70125-1.13466,1.20276-.70232,1.50304-.33864,1.62449-.09587,1.66279-.0012,1.47011-.00327,1.47011,.09794,1.68952,.32443,1.65618,.68054,1.54078,1.13406,1.2364,1.51539,.71899,1.67473,.20336,1.65472-.21763,1.48202-.75792,1.1112-1.2387,.67573-1.52547,.34643-1.63429,.10288-1.67124Z" fill="#44c38b"/>
          <path d="M234.73627,28.02952l-.00539-1.57278,.0723-1.69234,.26134-1.67097,.56462-1.59219,.99551-1.35678,1.4031-.92952,1.60359-.52632,1.67504-.22329,1.69172-.07573,1.57146,.0068-.00602,1.62036,.00312,1.62309,.00086,1.62154-1.1638,.00314-1.56375,.19866-1.23189,.92275-.42679,1.50509-.07577,1.5795,.00279,.55842,1.48572-.00452,1.48783-.00054,1.48773,.00439-.00489,1.5529,.00404,1.55549-.00344,1.5513-1.48105,.00353-1.48783,.00638-1.49104-.00873,.00019,1.59295-.00186,1.58906,.00153,1.59056-.00185,1.58607,.00434,1.58611,.00218,1.59136-.00374,1.58873-.0022,1.59086-.00076,1.59266,.00052,1.59039,.00227,1.59411-.00399,1.59668,.011,1.60164-1.7937,.0005-1.79217-.00753-1.79337,.00343,.00599-1.59131-.00195-1.58906-.00939-1.59056,.0063-1.58607,.00495-1.58611-.00232-1.59136,.00461-1.58873-.00693-1.59086,.00373-1.59266,.00099-1.59039-.0006-1.59411,.00147-1.59668-.00798-1.59432-1.61989-.0018-1.62064-.00221,.0044-1.55135-.00874-1.55549,.00551-1.55264,1.61947,.00336,1.62351-.00489Z" fill="#44c38b"/>
          <path d="M265.50444,46.17239l1.00548,1.0943,1.24175,.80655,1.399,.48516,1.47514,.15507,1.58254-.13936,1.50548-.49514,1.24771-.97176,.85771-1.3323,.51224-1.5035,.2921-1.56184,.14025-1.58134,.0442-1.59235,.00181-1.62503-.00361-1.62412-.0006-1.62566,.01079-1.62107-.00432-1.62111-.00469-1.62647,.00328-1.62379,.00192-1.62597-.00401-1.6278-.00167-1.62548,.00788-1.62929v-1.63191s-.00201-1.62981-.00201-1.62981l1.46404,.00013,1.46982-.00412,1.47219-.00509,1.46956,.00935,.00492,1.62265,.00057,1.62412,.00227,1.62566-.00226,1.62107-.00995,1.62111,.00891,1.62647-.00153,1.62379-.00189,1.62597-.00476,1.6278,.00844,1.62548-.00589,1.62929,.00733,1.63191-.00213,1.63191-.0457,1.63872-.12329,1.63129-.23469,1.62133-.37555,1.59384-.52983,1.54763-.72994,1.46414-.9472,1.33188-1.15802,1.15058-1.3509,.91642-1.49228,.66064-1.57451,.43227-1.61648,.24086-1.6348,.06513-1.69381-.08761-1.67856-.24897-1.62882-.47077-1.55278-.67946-1.42463-.91793-1.26191-1.13094-1.04758-1.32727,1.63461-.93087,1.64233-.92579,1.63634-.9386Z" fill="#44c38b"/>
          <path d="M298.86167,38.41568l1.82302,.00281,1.82596,.00134,1.82678,.00143-.00457-2.12981-.1244-1.51723-.6137-1.37632-1.26429-.80872-1.48828-.29158-1.52426-.05784-1.53713,.04853-1.50801,.28126-1.31651,.75882-.96245,1.19328-1.30064-.91313-1.30213-.91258-1.2992-.91653,.92561-1.27246,1.15157-1.0682,1.34573-.80943,1.47481-.53464,1.54099-.32142,1.56558-.15587,1.57664-.04343,1.71443,.0486,1.70681,.19995,1.66832,.39639,1.56965,.68155,1.34121,1.05709,.98839,1.39084,.60922,1.59738,.30253,1.6839,.0894,1.71244-.00002,1.70143-.00078,1.69729-.00082,1.7029-.0059,1.70009,.00632,1.70237,.00099,1.70429-.0004,1.70186-.00328,1.70585,.00479,1.7086-.00313,1.70962-1.77339-.00616-1.77525,.00804-1.77597-.00237-.00108-2.33214-1.0681,1.33694-1.43813,.91943-1.65648,.42722-1.71601,.09902-1.69822-.09276-1.67168-.30855-1.59778-.5829-1.43727-.90247-1.18286-1.21415-.82777-1.47863-.46646-1.63053-.13894-1.69304,.14226-1.70816,.51414-1.63164,.91238-1.44435,1.28499-1.12681,1.52228-.77645,1.64076-.48978,1.69536-.25258,1.71438-.0779Zm5.4721,4.16578l-1.68513-.00189-1.6907-.00134-1.6907-.00181-1.60415,.12281-1.52355,.49883-1.08095,1.1561-.29903,1.56918,.30563,1.49839,1.02853,1.12056,1.43443,.5382,1.53627,.13653,1.75923-.13183,1.65186-.58886,1.1887-1.27188,.53735-1.66849,.1355-1.76186-.00327-1.21264Z" fill="#44c38b"/>
          <path d="M339.2576,42.37469l-.06613,1.72045-.25069,1.70374-.45454,1.66012-.67649,1.58262-.94249,1.4375-1.18373,1.24531-1.42483,.95881-1.58397,.66545-1.67913,.37162-1.71799,.1073-1.6657-.08865-1.6394-.31145-1.53406-.6384-1.29594-1.0363,.0008,1.60389,.00571,1.6057-.009,1.60751,.00117,1.60522-.00144,1.60898-.00149,1.61157,.00544,1.61168-1.80626,.00646-1.80908-.0121-1.80482,.00089-.0084-1.65641,.01032-1.66184-.00172-1.66452-.00681-1.66421,.00391-1.66275-.00055-1.66389-.00532-1.66579,.00328-1.66394,.00048-1.66588,.00046-1.66495-.00145-1.66653,.0014-1.66182,.00367-1.66186,.00103-1.66736-.00227-1.66461-.00769-1.66684,.01206-1.66873-.00138-1.66635-.00832-1.67025,.00949-1.67294-.01124-1.67809,1.81093,.00231,1.80908,.00733,1.80889-.00433-.00055,2.02784,1.25892-1.17143,1.53254-.7836,1.67276-.40898,1.72116-.11874,1.70487,.10874,1.66454,.38102,1.57769,.65065,1.40914,.96049,1.19811,1.21374,.93867,1.42494,.67469,1.56653,.44103,1.64937,.25213,1.68943,.07846,1.70908,.00318,1.72364-.01315,1.72361Zm-5.36015-.25345l-.0115-1.47011,.00117-1.47011-.08933-1.65766-.34096-1.62282-.67689-1.50919-1.1348-1.19498-1.48595-.70854-1.64206-.20055-1.59601,.19291-1.46208,.65275-1.12876,1.13486-.70645,1.4407-.36058,1.56272-.12079,1.60558,.00085,1.62222,.00571,1.62222,.0787,1.68598,.31887,1.65346,.66247,1.54534,1.12276,1.24488,1.51502,.71316,1.67029,.19715,1.65523-.21061,1.48763-.75175,1.09988-1.24985,.69153-1.51893,.34369-1.63659,.10235-1.67224Z" fill="#44c38b"/>
          <path d="M354.47233,38.42147l1.82307-.00612,1.82601,.0081,1.82225-.00612,.00193-2.12588-.1295-1.51661-.60901-1.37829-1.26474-.81083-1.48915-.29153-1.5246-.05566-1.53754,.04481-1.50939,.28079-1.31893,.75953-.95707,1.19346-1.30265-.90737-1.30071-.91454-1.30131-.91459,.92354-1.27693,1.15273-1.06831,1.34844-.80561,1.47464-.5349,1.54118-.31982,1.56531-.15743,1.57661-.04052,1.71444,.04541,1.70691,.19942,1.66993,.39168,1.56496,.69195,1.34587,1.05036,.98706,1.39225,.60941,1.59741,.30711,1.6835,.08605,1.71298-.0039,1.70143-.00394,1.69729-.00029,1.7029,.00183,1.70009,.00404,1.70237-.00455,1.70429,.00223,1.70186,.0048,1.70585-.00096,1.7086-.0011,1.71173-1.77541-.00737-1.77525-.00006-1.77231,.00207-.00364-2.32955-1.07051,1.33574-1.43641,.92188-1.65728,.42359-1.71567,.1113-1.69882-.09734-1.66965-.319-1.59592-.58443-1.44225-.8935-1.17862-1.21817-.83573-1.4745-.45987-1.63295-.14636-1.69283,.15154-1.70759,.50757-1.63379,.91756-1.44131,1.28774-1.12161,1.5176-.7837,1.64179-.4854,1.69495-.25181,1.71395-.07666Zm5.47562,4.15529l-1.68854,.00594-1.69073-.0081-1.69073,.00785-1.60447,.11487-1.52164,.50352-1.08441,1.15244-.3008,1.57005,.30619,1.49987,1.03096,1.12011,1.43411,.54202,1.53724,.13739,1.76033-.1313,1.65324-.59111,1.18493-1.27657,.53955-1.66763,.13258-1.76202,.00219-1.21734Z" fill="#44c38b"/>
          <path d="M373.32842,28.02658l1.77393,.00274,1.77525-.0046,1.77439,.00413-.0022,2.28119,1.23816-1.28014,1.55126-.86596,1.71849-.4608,1.78121-.12775,1.71851,.09731,1.6847,.35067,1.59291,.64618,1.41273,.97669,1.13423,1.28984,.81273,1.51009,.51583,1.64151,.27633,1.69738,.08101,1.72298-.00483,1.58145-.00108,1.58149,.00593,1.58672-.00646,1.58411,.00359,1.58623,.0037,1.58802-.00836,1.58576,.00221,1.58947,.00615,1.59203-.00076,1.595-1.79194-.00298-1.79219-.00237-1.79295,.00319,.00073-1.69003-.00052-1.69481-.00441-1.69202,.00237-1.69429,.00127-1.6962,.00459-1.69378-.00757-1.69774,.00652-1.70048-.00539-1.70048-.11322-1.71878-.47011-1.65446-1.00802-1.37622-1.51642-.77943-1.70493-.20433-1.72426,.23779-1.55174,.77876-1.13646,1.31047-.62643,1.62145-.17853,1.73413-.00302,1.69483-.00143,1.70044,.00043,1.69763,.00167,1.69991-.00192,1.70183-.00084,1.6994-.00388,1.70338,.00106,1.70612,.00605,1.70845-1.80836,.00257-1.80908-.00094-1.8103-.00265,.00577-1.69018-.0088-1.68699,.00342-1.68896-.00051-1.68802,.00476-1.68962,.00121-1.68485-.00429-1.68489-.00544-1.69046,.00877-1.68767-.0018-1.68994,.00107-1.69184-.00176-1.68943,.00397-1.69339-.00238-1.69612-.00429-1.69772Z" fill="#44c38b"/>
        </g>
        <path d="M48.05309,51.2342l1.85812-1.50261,.89382-1.35536,.88275-1.36135,.85023-1.38584,.8394-1.38593,.80713-1.409,.8013-1.41527,.75897-1.43941,.72159-1.46013,.69715-1.47376,.63407-1.50323,.57809-1.52303,.49368-1.55228,.36216-1.5864,.13692-1.61464-.0953-1.60016-.31113-1.57248-.51567-1.51761-.70995-1.43717-.90011-1.32522-1.05511-1.20462-1.19948-1.06173-1.33154-.89124-1.43611-.71077-1.51669-.5169-1.57336-.30417-1.59892-.11269-1.60055,.10366-1.57129,.31715-1.51529,.5202-1.43669,.70865-1.3307,.89143-1.20433,1.05597-1.05758,1.20304-.88719,1.3334-.70927,1.43565-.52683,1.51284-.30245,1.57383-.11168,1.59893,.15624,1.61304,.35267,1.58468,.49415,1.5479,.57368,1.52115,.63728,1.4953,.68641,1.47501,.7235,1.46002,.77083,1.43625,.78659,1.42703,.82109,1.40385,.83045,1.40194,.86537,1.37782,.86726,1.37236,.90923,1.34449,1.84978,1.50186-1.64727,.00211-1.6459,.00693-1.6481,.00373-1.64996-.00918-1.64761,.00686-1.65147,.00199-1.65413-.00325-1.6536-.00324,.00233,2.03669-.00579,2.03951,1.66147-.00664,1.65968,.01057,1.66157-.00653,1.65972,.00675,1.66166-.00247,1.66073-.00888,1.6623,.00718,1.65761-.00733,1.65765,.00975,1.66314,.0022,1.66039-.00316,1.66262-.00073,1.6645-.00174,1.66213,.00468,1.66602-.00818,1.6687,.00399,1.66616-.00391,.00704-2.03504-.00651-2.03549-1.64659-.00414-1.64588,.00244-1.64809-.00449-1.64995,.00641-1.6476-.00241-1.65145,.00372-1.65411-.00575-1.65412,.0026Zm-6.88029-21.96824l.20366-1.54137,.58801-1.43907,.95333-1.22787,1.22748-.95359,1.43876-.58935,1.54108-.20847,1.54039,.2147,1.43568,.59189,1.23775,.94027,.94083,1.23719,.60206,1.43312,.19885,1.54256-.20806,1.54105-.59872,1.4325-.93718,1.23901-1.23712,.94003-1.43448,.59456-1.54,.2018-1.54097-.20172-1.4399-.58579-1.2323-.94922-.94135-1.23663-.59492-1.43499-.2029-1.54062Z" fill="#44c38b"/>
      </g>
    </g>
  </g>
</svg>