<?xml version="1.0" encoding="UTF-8"?>
<svg id="b" data-name="レイヤー 2" xmlns="http://www.w3.org/2000/svg" width="427.11677" height="132.02016" viewBox="0 0 427.11677 132.02016">
  <g id="c" data-name="text">
    <g>
      <rect x="0" y="91.27016" width="362.4528" height="40.75" fill="#fff" opacity=".98"/>
      <g>
        <path d="M33.87372,107.37758c-.96875,0-1.5957,.01855-2.29883,.11328v-2.08984c.66504,.0957,1.36816,.13281,2.43164,.13281h5.01562c-.01904-.77832-.03809-1.10156-.1333-1.70898h2.31787c-.09521,.58887-.11426,.98828-.11426,1.70898h5.18652c1.17773,0,1.89941-.03711,2.48877-.13281v2.08984c-.62695-.07617-1.4248-.11328-2.35596-.11328h-5.31934v1.06348h3.9707c1.15869,0,1.51953-.01855,2.1084-.07617-.05664,.57031-.07568,1.19727-.07568,1.91895v3.51465q0,1.06348,.07568,1.9375c-.55078-.07617-1.08252-.09473-2.12744-.09473h-2.27979c1.69092,1.5957,3.70459,2.58398,6.59229,3.24805-.49414,.75977-.66504,1.10156-1.08301,2.01367-1.53857-.5127-2.67871-1.02539-3.89453-1.72852-1.40576-.83594-2.29834-1.55762-3.32422-2.73535,.01904,.62695,.0376,.9873,.0376,1.31055v1.36816c0,.96875,.01904,1.51953,.1333,2.16602h-2.33691c.09521-.74219,.1333-1.29297,.1333-2.16602v-1.36816c0-.22754,.01904-.93066,.0376-1.29199-.96875,1.19727-2.12744,2.14648-3.62842,3.00195-.91162,.53125-2.1084,1.06348-3.24854,1.46289-.41797-.9502-.58887-1.27344-1.06348-1.91895,1.4248-.39941,2.4126-.77832,3.57129-1.40527s2.0708-1.29297,2.7168-1.95703h-2.05176c-1.17773,0-1.55811,.01855-2.14697,.09473q0-.19043,.05713-.55078,0-.07617,.01904-1.38672v-3.49512c0-.98828-.01904-1.29297-.07617-1.95703,.51318,.07617,.96924,.09473,2.0708,.09473h3.74268v-1.06348h-5.14844Zm1.4248,2.69727v1.1582h3.72363v-1.1582h-3.72363Zm0,2.73535v1.19727h3.72363v-1.19727h-3.72363Zm5.79395-1.57715h3.98975v-1.1582h-3.98975v1.1582Zm0,2.77441h3.98975v-1.19727h-3.98975v1.19727Z" fill="#44c38b"/>
        <path d="M58.55389,115.81215c-1.44385,2.2793-2.39355,3.26758-4.57812,4.90137-.43701-.72266-.74072-1.10156-1.34863-1.65234,1.23438-.76074,1.7666-1.17871,2.48828-1.91992,.70312-.7207,1.06396-1.23438,1.67188-2.33594l1.7666,1.00684Zm1.65283-10.58105c0-.51367-.03809-.9502-.11377-1.38672h2.35547c-.07617,.37891-.11377,.79688-.11377,1.36719v.57031h5.43311c.98779,0,1.63379-.03906,2.22266-.13281v2.14648c-.53223-.0957-1.04492-.11426-2.08984-.11426h-12.89893c-1.02588,0-1.50098,.01855-2.05176,.11426v-2.14648c.55078,.09375,1.25391,.13281,2.27979,.13281h4.97705v-.55078Zm-3.41943,9.25098c-.83594,0-1.19678,.01855-1.70996,.05762,.05713-.47559,.07617-.83594,.07617-1.50195v-2.71582c0-.64551-.01904-.9873-.01904-1.02637,0-.01855-.01904-.11328-.03809-.26562,0-.05664,0-.13281-.01904-.24707q.15234,.01855,.45605,.03809c.1709,.01953,.77881,.03809,1.25391,.03809h9.1377q1.31055-.01855,1.72852-.07617c-.05664,.45605-.07568,.85449-.07568,1.53906v2.71582c0,.66602,.01904,.98828,.05664,1.50195-.43652-.03906-.98779-.05762-1.72852-.05762h-3.32471v4.74902c0,1.46289-.62646,1.88086-2.86816,1.88086-.3042,0-.49414,0-1.53906-.01855-.09473-.83594-.22803-1.33008-.55078-2.03223,.79785,.11328,1.40576,.16992,2.0708,.16992,.64551,0,.77881-.07617,.77881-.39844v-4.35059h-3.68555Zm.37988-1.87988h8.39697v-1.95703h-8.39697v1.95703Zm8.58691,2.22266c.72168,1.10156,1.12061,1.57617,1.88037,2.25977,.7793,.72266,1.36816,1.12109,2.62207,1.80469-.58936,.6084-.93115,1.08301-1.34912,1.82422-1.31055-.89258-1.86182-1.36816-2.83057-2.35547-.77881-.83594-1.17773-1.33008-1.97559-2.4707l1.65283-1.0625Z" fill="#44c38b"/>
        <path d="M81.84832,115.37563c-1.08301,2.4502-2.29883,3.57031-3.85645,3.57031-2.16602,0-3.72363-2.20312-3.72363-5.26172,0-2.08984,.74072-4.04688,2.08984-5.52832,1.5957-1.74707,3.8374-2.65918,6.53467-2.65918,4.55957,0,7.52295,2.77344,7.52295,7.04785,0,3.28613-1.70947,5.9082-4.61621,7.08594-.91162,.37988-1.65283,.56934-2.98242,.79785-.32324-1.00684-.55078-1.4248-1.15918-2.22266,1.74805-.22852,2.8877-.53223,3.78076-1.04492,1.65283-.91211,2.64062-2.7168,2.64062-4.75,0-1.82324-.81689-3.30469-2.33691-4.2168-.58887-.3418-1.08252-.49414-1.91846-.57031-.36084,2.98242-1.02588,5.60449-1.97559,7.75195Zm-2.79297-6.80176c-1.5957,1.13965-2.5835,3.09668-2.5835,5.12988,0,1.55664,.66504,2.79199,1.50098,2.79199,.62695,0,1.27246-.79785,1.95654-2.43164,.72168-1.70996,1.34863-4.27441,1.57666-6.4209-.98779,.11328-1.67139,.37988-2.45068,.93066Z" fill="#44c38b"/>
        <path d="M101.26629,117.7311c0,.77832-.03809,1.23438-.15186,1.61426-.1709,.66504-.85498,1.10254-1.74756,1.10254-1.19727,0-2.64062-.5332-3.59082-1.34961-.68359-.58887-1.04492-1.33008-1.04492-2.14648,0-.89258,.58936-1.90039,1.63379-2.81152,.68408-.58887,1.52002-1.08301,2.77393-1.61426l-.01904-2.92578q-.15186,0-.77881,.03711c-.28516,.01953-.55127,.01953-1.02588,.01953-.28516,0-.81689-.01953-1.04492-.01953-.24707-.01855-.41797-.01855-.4751-.01855-.07568,0-.22803,0-.39893,.01855l-.01904-2.12695c.53223,.11328,1.29199,.1709,2.29883,.1709,.18994,0,.39893,0,.66504-.01855,.45557-.01953,.55078-.01953,.75977-.01953v-1.25391c0-1.08203-.01904-1.57617-.11426-2.18457h2.375c-.09521,.6084-.11426,1.00684-.11426,2.07129v1.21484c1.4248-.16992,2.69775-.41797,3.6665-.72168l.07617,2.12793c-.3418,.05664-.70312,.11328-2.01367,.3418-.62695,.11426-1.00684,.1709-1.729,.24707v2.46973c1.29199-.37988,2.48877-.53223,3.87549-.53223,3.17285,0,5.43311,1.93848,5.43311,4.63574,0,2.46875-1.84277,4.33105-4.31201,4.33105-1.53906,0-2.62158-.74121-3.11572-2.1084-.24707-.64648-.32275-1.27344-.32275-2.43164,.96875-.26562,1.2915-.39941,2.1084-.83594-.03809,.36133-.03809,.53125-.03809,.83594,0,.79785,.07617,1.31055,.26611,1.67188,.20898,.39844,.66504,.64551,1.19678,.64551,1.12109,0,1.91895-.89355,1.91895-2.1084,0-1.63379-1.33008-2.69727-3.36279-2.69727-1.13965,0-2.29834,.20898-3.64746,.62695l.01904,3.74219Zm-2.14648-3.05859c-1.4248,.75977-2.26074,1.5957-2.26074,2.2793,0,.32227,.18994,.60742,.62695,.87402,.37988,.26562,.85498,.41797,1.21582,.41797,.32275,0,.41797-.1709,.41797-.79785v-2.77344Zm10.52441-3.83789c-.94971-1.5-2.33691-3.00195-3.79932-4.10352l1.78564-1.19727c1.65283,1.27344,2.75439,2.41309,3.76123,3.89453l-1.74756,1.40625Z" fill="#44c38b"/>
        <path d="M125.94696,111.32875c0,.07617,.01904,.22852,.01904,.45605,.41748,.87402,.60791,1.65234,.60791,2.67871,0,2.07031-.98828,3.85547-2.83105,5.12891-.79785,.55078-1.67139,.94922-3.43848,1.55762-.53174-1.17773-.72168-1.46191-1.34863-2.14648,1.55762-.30371,2.33691-.56934,3.22949-1.10254,1.29199-.74023,2.05176-1.70898,2.20361-2.77344-.55078,.875-1.53857,1.34961-2.79248,1.34961-.87402,0-1.55762-.20898-2.20361-.68359-.89307-.64648-1.31104-1.48242-1.31104-2.56543,0-2.01367,1.57715-3.45703,3.78076-3.45703,.81689,0,1.53857,.20801,1.97559,.56934q-.01904-.09473-.01904-.22754c-.01904-.03809-.01904-1.10254-.01904-1.61426-2.71631,.0752-4.50244,.13281-5.33789,.18945q-2.86865,.20898-3.38184,.28516l-.07568-2.26074c.41797,.03809,.58887,.03809,.93066,.03809,.4751,0,.77881,0,3.22949-.0957,1.23486-.03711,1.4248-.03711,2.98242-.07617q.62695-.01855,1.61475-.05664-.01904-1.80469-.11377-2.29883l2.39355-.01855c-.07568,.58887-.07568,.62695-.09473,2.26074,3.30518-.01953,4.78711-.05664,5.49023-.13281l.01855,2.18457c-.70264-.05762-1.61475-.09473-3.19141-.09473-.45605,0-.79785,0-2.29834,.03711v1.23535l-.01904,1.63379Zm-3.87549,.18945c-.96875,0-1.76709,.68457-1.76709,1.51953,0,.875,.66504,1.50195,1.61523,1.50195,1.08252,0,1.86133-.72266,1.86133-1.71094,0-.79688-.66455-1.31055-1.70947-1.31055Z" fill="#44c38b"/>
        <path d="M145.95428,111.32875c0,.07617,.01904,.22852,.01904,.45605,.41748,.87402,.60791,1.65234,.60791,2.67871,0,2.07031-.98828,3.85547-2.83057,5.12891-.79834,.55078-1.67188,.94922-3.43896,1.55762-.53174-1.17773-.72168-1.46191-1.34863-2.14648,1.55762-.30371,2.33691-.56934,3.22949-1.10254,1.29199-.74023,2.05176-1.70898,2.20361-2.77344-.55078,.875-1.53857,1.34961-2.79248,1.34961-.87402,0-1.55762-.20898-2.20361-.68359-.89307-.64648-1.31104-1.48242-1.31104-2.56543,0-2.01367,1.57715-3.45703,3.78076-3.45703,.81689,0,1.53857,.20801,1.97559,.56934q-.01904-.09473-.01904-.22754c-.01904-.03809-.01904-1.10254-.01904-1.61426-2.71631,.0752-4.50244,.13281-5.33789,.18945q-2.86865,.20898-3.38184,.28516l-.07568-2.26074c.41797,.03809,.58887,.03809,.93066,.03809,.4751,0,.77881,0,3.22949-.0957,1.23486-.03711,1.4248-.03711,2.98242-.07617q.62695-.01855,1.61475-.05664-.01855-1.80469-.11377-2.29883l2.39355-.01855c-.07568,.58887-.07568,.62695-.09473,2.26074,3.30518-.01953,4.78711-.05664,5.49023-.13281l.01855,2.18457c-.70264-.05762-1.61475-.09473-3.19141-.09473-.45605,0-.79785,0-2.29834,.03711v1.23535l-.01904,1.63379Zm-3.87549,.18945c-.96875,0-1.76709,.68457-1.76709,1.51953,0,.875,.66504,1.50195,1.61475,1.50195,1.08301,0,1.86182-.72266,1.86182-1.71094,0-.79688-.66455-1.31055-1.70947-1.31055Z" fill="#44c38b"/>
        <path d="M159.31268,104.86977c.01904,.72168,.22803,2.08984,.45557,3.05859,1.29199-.53223,2.41309-.75977,3.6665-.75977h.51318c.39893-1.61523,.53174-2.31836,.55078-2.94531l2.39355,.47559c-.11377,.22754-.15186,.36035-.18994,.53223-.26562,1.02539-.5127,1.95605-.58887,2.22266,1.12109,.28516,1.80469,.58789,2.5459,1.13867,1.51953,1.12109,2.31738,2.73633,2.31738,4.71191,0,2.79199-1.61475,5.05371-4.44531,6.25-.91162,.39941-1.63379,.6084-3.09668,.91211-.28467-.9502-.45557-1.27246-1.17773-2.22266,1.31104-.11426,2.05176-.28516,3.09668-.74121,1.29199-.55078,2.14648-1.21582,2.65967-2.0332,.41797-.70215,.646-1.5,.646-2.33594,0-1.25391-.43701-2.20312-1.38721-2.94531-.5127-.39844-.93066-.58789-1.70947-.81641-.75977,2.60352-2.0708,5.28125-3.45752,7.08594-.68408,.87402-1.50098,1.65234-2.26074,2.08984-.58887,.36133-1.12061,.51367-1.7666,.51367-1.95703,0-3.26758-1.71094-3.26758-4.27539,0-2.33594,1.06396-4.34961,3.03955-5.83203-.09521-.28516-.43701-1.9375-.646-3.00195-.03809-.24609-.07568-.36035-.18994-.64453l2.29883-.4375Zm-2.4126,9.85938c0,1.23438,.53174,2.08984,1.2915,2.08984,.53223,0,1.14014-.41797,1.78564-1.23438-.87354-1.91992-1.17773-2.79297-1.55762-4.37012-1.06396,1.12109-1.51953,2.18457-1.51953,3.51465Zm4.521-1.00684c.05713-.13281,.05713-.15137,.11426-.24707,.75977-1.29102,1.27295-2.48828,1.89941-4.38867-1.31055,0-2.26025,.20898-3.26709,.75977,.30371,1.31152,.55078,2.08984,1.13965,3.59082,.05713,.15234,.07617,.19043,.09473,.28516h.01904Z" fill="#44c38b"/>
        <path d="M176.4704,106.69399c0-.74219-.03809-1.40625-.09521-2.0332,.60791,.07617,1.23486,.09473,2.10889,.09473h9.19434c.89307,0,1.48193-.01855,2.05176-.09473-.07568,.72168-.09473,1.27246-.09473,1.9375v12.27246c0,.9873,.03809,1.61426,.11377,2.29785h-2.29883v-1.13867h-8.8335v1.13867h-2.26074c.07617-.64551,.11426-1.40527,.11426-2.29785v-12.17676Zm2.14648,4.48242h8.8335v-4.40723h-8.8335v4.40723Zm0,6.8584h8.8335v-4.86328h-8.8335v4.86328Z" fill="#44c38b"/>
        <path d="M200.1242,103.90102c-.05664,.47461-.07568,.96875-.07568,2.05078,0,4.63574-.18994,7.33398-.62695,9.4043-.51318,2.33594-1.48193,4.19824-3.11572,5.96484-.43701-.70312-.74072-1.04492-1.4248-1.69043,1.4248-1.44434,2.20361-2.86816,2.65967-4.74902,.22803-.96875,.34229-1.88086,.43701-3.21094,.07617-1.12109,.15186-2.86914,.15186-3.51465,0-2.26074-.05664-3.66602-.15186-4.25488h2.14648Zm-4.97705,10.01172c.05713-.38086,.07617-.74121,.07617-1.40625v-5.31934c0-.47461-.03809-.9502-.11426-1.3291h1.97559c-.07568,.41797-.11377,.87305-.11377,1.3291v5.31934c0,.66504,.01904,1.02539,.07617,1.40625h-1.8999Zm8.03564,2.33594v2.18555c0,.7207,.01904,1.23438,.07617,1.80469h-2.14648c.07568-.58984,.11377-1.2168,.11377-2.01367v-2.75586h-.98779c.05713-.32227,.07617-.66406,.07617-1.23438v-1.46289c0-.64551-.01904-.93066-.05713-1.25391,.49365,.03906,.96875,.05762,1.70947,.05762h8.60596c.89258,0,1.25391-.01855,1.72852-.05762-.0376,.38086-.05664,.83594-.05664,1.2168v1.48145c0,.47461,.01904,.81738,.07568,1.25293h-1.08252v3.04004c0,.76074-.15234,1.10254-.58887,1.34863-.38037,.19043-.7793,.24707-1.86182,.24707-.1333,0-.3042,0-.62695-.01855-.07617-.72266-.1709-1.12109-.41797-1.74805,.646,.0957,.91162,.11426,1.17773,.11426,.3418,0,.39893-.05762,.39893-.36133v-1.84277h-2.22266v3.13477c0,.96875,.01904,1.50098,.09521,2.05176h-2.14697c.07617-.58887,.09521-.9873,.09521-2.07129v-3.11523h-1.95703Zm5.94629-10.10645h-5.85107c-.60791,0-1.52002,.03809-1.95654,.05762v-1.82422c.74072,.07617,1.15869,.0957,1.99463,.0957h6.0791c.79785,0,1.21582-.01953,1.78564-.07617-.03809,.5127-.05713,.81641-.05713,1.53809v3.49512c0,.66602,.01904,.89355,.05713,1.38672-.3042-.01855-.74072-.03711-1.63379-.03711h-6.32617c-.87354,0-1.44385,.01855-1.9375,.07617v-1.74805c.68359,.07617,.91162,.07617,1.89941,.07617h5.94629v-.75977h-5.66113c-.81689,0-1.12061,.01855-1.78564,.05664v-1.65234c.5127,.03711,.87354,.05664,1.7666,.05664h5.68018v-.74121Zm-3.98926,7.2002h-2.96387v1.21582h2.96387v-1.21582Zm4.78711,1.21582h.36084v-1.21582h-3.19141v1.21582h2.83057Z" fill="#44c38b"/>
        <path d="M220.91082,104.2809c-.22803,.64551-.32324,1.13965-.68408,3.66602-.13281,.79785-.20898,1.44434-.24707,1.89941h.05713q.03809-.11328,.11377-.41797c.19043-.66406,.68408-1.5957,1.19727-2.25977,1.04443-1.29199,2.22266-1.9375,3.60938-1.9375,1.2915,0,2.43164,.60742,3.24854,1.70898,.94971,1.27344,1.36768,2.8125,1.36768,5.05371,0,3.66602-1.70996,6.40137-4.90137,7.80762-.96875,.4375-2.29834,.81641-3.72314,1.06445-.38037-1.08398-.58936-1.50195-1.12109-2.24219,1.8999-.20898,3.00146-.49414,4.16064-1.08301,2.20361-1.12012,3.21045-2.9248,3.21045-5.81348,0-2.73535-.91211-4.25488-2.5459-4.25488-.72168,0-1.38672,.32324-2.05176,1.00684-1.48145,1.53906-2.39355,3.875-2.39355,6.13672v.39844l-2.27979,.03711c.01904-.11328,.01904-.20898,.01904-.24609v-.36133c-.01904-.55078-.05664-1.95703-.05664-2.33594,0-1.53906,.11377-3.64844,.26562-4.95898l.28516-2.35547c.03809-.32227,.05713-.39844,.05713-.64648l2.4126,.13379Z" fill="#44c38b"/>
        <path d="M244.83124,107.81411c-.70312,1.17773-1.19678,1.80469-2.20361,2.83105-.36133-.45703-.79785-.81738-1.52002-1.23535,.4751-.43652,.62695-.6084,.96875-.9873-.41748-.01953-.77881-.03906-1.40576-.03906h-1.99463v.62695q-.01904,.58984-.05713,1.38672h1.8999c.77881,0,1.17773-.01855,1.52002-.05664q-.05713,.57031-.07617,3.23047c-.03809,2.88672-.24707,5.09082-.55078,6.07812-.32324,.96875-.9502,1.31055-2.43164,1.31055-.28516,0-.49414,0-.98779-.03711-.03809-.79883-.1333-1.33008-.38037-2.05176,.45605,.11426,.87402,.1709,1.31104,.1709,.60791,0,.70312-.15234,.85498-1.27344,.13281-1.06348,.22803-2.86816,.24707-5.52734h-1.50098c-.13281,2.39355-.3042,3.58984-.70312,5.05273-.49365,1.72852-.94971,2.75488-1.89941,4.06543-.51318-.85449-.85498-1.27246-1.48193-1.78613,.98779-1.31055,1.55762-2.81055,1.8999-5.0332,.26562-1.61523,.3418-3.11621,.37988-6.15625h-.20898c-.81689,0-1.23486,.01953-1.67188,.0957v-2.05176c.51318,.09473,.96875,.11426,1.86182,.11426h1.19678v-1.00781c0-.70215-.03809-1.17773-.11377-1.6709h2.2417c-.07617,.49316-.09521,.91113-.09521,1.65234v1.02637h.75977c.76025,0,1.23486-.01953,1.70996-.0957v1.57715c1.08252-1.40527,1.88086-3.07715,2.05176-4.21777l2.1084,.39941c-.13281,.24707-.22803,.47559-.36084,.79785-.20898,.49414-.24707,.58887-.39893,.94922h4.50244c.81689,0,1.44385-.03711,1.95654-.11328v2.05176c-.53174-.05762-1.02588-.07617-1.86182-.07617h-1.25342l1.34863,1.13965c-.28516,.20898-.3418,.24707-.68408,.51367-.15186,.11328-1.12061,.83594-1.40576,1.04492,.1333,1.17773,.1709,1.51953,.37988,2.35547,.91211-.62695,1.57715-1.25391,2.22266-2.10938l1.29199,1.46289c-1.06396,1.08301-1.82373,1.74805-2.8877,2.50781,.91211,2.05176,1.69092,3.15332,3.17285,4.42578-.55127,.64648-.83594,1.12109-1.23486,2.08984-1.70996-1.5957-2.64062-2.92578-3.47656-5.01465-.56982-1.3877-.85498-2.60254-1.14014-4.67285-.3418,.20898-.45557,.28418-.79785,.45508v7.29492c0,.79785,.03809,1.4248,.09521,1.95703h-2.20361c.07568-.51367,.11377-1.12109,.11377-1.95703v-6.28809c-.45605,.22754-.77881,.37988-.94971,.45605-.24707-.7793-.45605-1.19727-.91211-1.84277,1.34912-.47461,2.39404-.96875,3.87549-1.86133,1.14014-.66504,1.74805-1.10254,2.79297-1.95703h-3.91357Z" fill="#44c38b"/>
        <path d="M258.75897,115.60317c0-.79785,0-.91211,.03809-2.2041-.49414,.58984-1.06396,1.14062-1.729,1.61523-.28467-.85547-.53174-1.34961-.94971-2.0332,1.99463-1.29102,3.95166-3.38086,4.67334-5.01562l1.78564,1.17871c-.18994,.20898-.36084,.43652-.62695,.83496-.43652,.62695-.60791,.875-1.10156,1.48242v7.48438c0,1.00781,.03809,1.76758,.13281,2.39453h-2.35547c.09473-.58984,.13281-1.42578,.13281-2.41309v-3.32422Zm3.53369-10.62012q-.20898,.22852-.57031,.64648c-1.23438,1.48242-2.5835,2.66016-4.36914,3.79883-.37988-.74023-.70264-1.19629-1.19678-1.78516,1.50098-.81641,2.46973-1.57617,3.40039-2.60254,.41797-.49414,.66504-.85449,.91211-1.33008l1.82373,1.27246Zm2.56445,6.53516c-.87402,0-1.74756,.03906-2.33643,.11426v-2.12793c.56982,.07617,1.4248,.11426,2.33643,.11426h6.45898c1.06396,0,1.82373-.03809,2.31787-.11426v2.12793c-.62695-.0752-1.4248-.11426-2.26074-.11426h-.81689v7.56152c0,1.63379-.55078,2.03223-2.84961,2.03223-.646,0-1.21582-.01855-2.10889-.05664-.11377-.83594-.22803-1.33008-.55078-2.12793,1.00684,.13379,1.99463,.20898,2.5835,.20898,.76025,0,.85498-.03809,.85498-.45605v-7.16211h-3.62842Zm-1.57666-6.83789c.53174,.0752,1.23486,.11328,2.22266,.11328h5.12939c.94971,0,1.5957-.03809,2.16553-.11328v2.10742c-.66504-.0752-1.36768-.11328-2.12793-.11328h-5.16699c-.79785,0-1.5957,.03809-2.22266,.11328v-2.10742Z" fill="#44c38b"/>
        <path d="M286.72625,116.47719h4.59717c1.33008,0,1.729-.01953,2.46973-.13281v2.39258c-.68408-.0752-1.17773-.09375-2.43164-.09375h-11.39844c-1.25391,0-1.74756,.01855-2.43164,.09375v-2.39258c.74121,.11328,1.14014,.13281,2.46973,.13281h4.29346v-7.80859h-2.90674c-1.25391,0-1.74756,.01953-2.43164,.0957v-2.375c.72217,.11426,1.17773,.13281,2.46973,.13281h8.45361c1.29199,0,1.74805-.01855,2.46973-.13281v2.375c-.68359-.07617-1.15869-.0957-2.43164-.0957h-3.19141v7.80859Z" fill="#44c38b"/>
        <path d="M302.02166,104.83168c-.07568,.53223-.07568,.70215-.07568,1.70996v5.24316c0,.9502,0,1.19629,.07568,1.6709h-2.60254c.05713-.43652,.09521-1.02539,.09521-1.70898v-5.22461c0-.96875-.01904-1.21484-.07617-1.70898l2.5835,.01855Zm8.625,.01855c-.07617,.47461-.09521,.68359-.09521,1.76758v2.56445c-.01904,2.96289-.15186,4.55859-.49414,5.75586-.55078,1.90039-1.7666,3.32422-3.74219,4.42578-1.00684,.57031-1.95654,.9502-3.70459,1.46289-.3418-.92969-.53174-1.25391-1.32959-2.25977,1.86182-.36133,2.96338-.75977,4.10352-1.51953,1.78564-1.17871,2.4126-2.33789,2.62158-4.84473,.07568-.81738,.09473-1.65332,.09473-3.17285v-2.375c0-.96875-.01904-1.36719-.09473-1.80469h2.64062Z" fill="#44c38b"/>
        <path d="M324.55536,109.1061c-.05664,.36133-.05664,.37988-.07568,1.53906-.07617,3.24805-.58887,5.07227-1.88086,6.72461-1.13965,1.46289-2.52686,2.43164-4.90137,3.41992-.49365-1.02637-.74072-1.36816-1.50049-2.16602,1.53857-.45605,2.39355-.87402,3.32422-1.61523,1.93799-1.53906,2.5459-3.17188,2.5459-6.7627,0-.56934-.01904-.74121-.09521-1.13965h2.5835Zm7.71289-2.39355c-.26562,.32324-.26562,.3418-.75977,1.3291-.66504,1.40625-1.7666,2.83105-2.92578,3.81836-.75977,.66602-1.38672,1.08398-2.2793,1.57715-.57031-.79785-.85498-1.08301-1.70996-1.72852,1.27295-.56934,1.99463-1.00684,2.77344-1.74707,.7793-.72266,1.36816-1.50195,1.80518-2.41406h-9.97363c-1.33008,0-1.80469,.01953-2.5835,.11523v-2.375c.72168,.11328,1.31055,.15234,2.62158,.15234h9.9165c1.13965,0,1.31055-.01953,1.84277-.17188l1.27246,1.44434Z" fill="#44c38b"/>
      </g>
      <rect width="427.11677" height="75.82553" fill="#fff" opacity=".98"/>
      <g>
        <g>
          <path d="M84.22849,53.37384l.52514-1.51893,.52405-1.519,.52898-1.51632,.52913-1.51707,.53713-1.51704,.52143-1.52218,.53111-1.51731,.5292-1.51915,.52028-1.52419,.53159-1.51837,.53037-1.52078,.52753-1.52082,.53871-1.51854,.51513-1.52192,.53679-1.51443,.53227-1.52163,.5225-1.52221,.52936-1.52212,.53539-1.52194,.52755-1.52223,.52393-1.52749,.52935-1.52836,.53976-1.52201,1.85454-.01046,1.85978,.00695,1.86314-.00528,.52427,1.52562,.52382,1.51908,.5345,1.5144,.52714,1.51776,.52475,1.52134,.52859,1.51969,.53095,1.51737,.52354,1.52112,.52967,1.52093,.53664,1.51661,.52359,1.52314,.5265,1.52117,.53407,1.52015,.52583,1.5182,.52948,1.51698,.5315,1.5219,.52996,1.51962,.53234,1.52108,.52646,1.52505,.52447,1.52331,.53505,1.52362,.53482,1.52646,.52769,1.53135-1.55725,.00363-1.55851-.00705-1.56102,.00248-1.55772-.0053-.48532-1.44196-.47326-1.4472-.46657-1.45315-.47746-1.45216-.4829-1.45081-1.57696,.00688-1.57394-.00184-1.57606-.00991-1.57783,.00402-1.57559,.00159-1.57927,.00046-1.58182,.00264-1.58334-.00542-.46991,1.45224-.48544,1.44319-.46863,1.45247-.48611,1.44932-.47419,1.4498-1.56432,.00786-1.57116-.00977-1.5737,.00617-1.57149-.00131Zm10.28644-12.31568l1.55423-.00289,1.55374-.00406,1.55153,.00148,1.55516,.00137,1.55767,.00894,1.55661-.00701-.51345-1.56564-.5173-1.57117-.52601-1.56542-.51475-1.57147-.51717-1.57263-.519-1.56955-.50947-1.57676-.53251-1.57198-.5131-1.58088-.52141,1.56659-.51177,1.57299-.5171,1.56836-.52325,1.56867-.51672,1.57278-.51109,1.57216-.51689,1.57432-.5299,1.57284-.51803,1.57896Z" fill="#44c38b"/>
          <path d="M133.19552,34.36375l-.9685-1.06524-1.25831-.69032-1.42273-.21533-1.62583,.27069-1.40385,.85478-.97786,1.3264-.50875,1.57114-.14863,1.64984-.0031,1.69483,.00576,1.70044,.00109,1.69763-.00772,1.69991,.00094,1.70183-.00021,1.6994,.00062,1.70338,.00493,1.70612-.00439,1.7028-1.80302,.00436-1.80908,.00181-1.80569-.00647-.00015-1.68524-.00429-1.68699-.00052-1.68896,.00437-1.68802-.00359-1.68962,.0041-1.68485-.00787-1.68489,.00357-1.69046,.00328-1.68767-.0044-1.68994,.00206-1.69184-.0035-1.68943,.00178-1.69339-.00212-1.69612,.00134-1.69877,1.77494,.00043,1.77525,.00107,1.77232,.00343,.00167,2.2792,1.08246-1.2344,1.38632-.87722,1.56836-.48742,1.64189-.13391,1.67002,.12233,1.61697,.42712,1.48277,.77032,1.2624,1.09553,1.01503,1.33192-1.43814,1.00852-1.43529,1.01699-1.43673,1.01431Z" fill="#44c38b"/>
          <path d="M160.27069,49.51972l-1.02219,1.44512-1.31119,1.17752-1.54394,.84477-1.68694,.51819-1.7459,.25907-1.76826,.07177-1.6418-.0898-1.61937-.27212-1.5651-.49699-1.46933-.73028-1.32265-.97159-1.12574-1.19349-.8955-1.3736-.67434-1.49432-.44861-1.57767-.2641-1.62026-.07499-1.64134,.00115-1.72362-.004-1.72362,.06673-1.59083,.19377-1.57885,.36008-1.54824,.55355-1.48949,.77839-1.38584,1.02981-1.20799,1.23534-.99545,1.40658-.73432,1.51392-.47917,1.56605-.26669,1.58906-.0774,1.61415,.07832,1.58945,.27592,1.53262,.50098,1.41783,.76547,1.23543,1.03227,1.00249,1.26067,.75333,1.42431,.52574,1.52278,.33383,1.57853,.18365,1.60381,.04751,1.61544,.00483,1.39409,.00259,1.39793-1.68119-.00107-1.68355-.00738-1.68077,.00745-1.68303,.002-1.68492-.00811-1.68252,.00324-1.68646,.00057-1.68918,.0031-1.68933-.00613-.00372,.1039,.10603,1.6938,.35638,1.65509,.71657,1.53105,1.15158,1.23089,1.52113,.723,1.67789,.21234,1.52096-.09143,1.47227-.3866,1.27387-.82297,.95401-1.18144,1.35311,.94068,1.34764,.95389,1.35931,.94017Zm-14.75441-11.66155l1.60926,.00225,1.61285,.00455,1.61055-.00236,1.61432-.00255,1.61692-.00225,1.61531,.00084-.20314-1.65532-.52154-1.58159-.98748-1.329-1.45399-.78491-1.6482-.21644-1.64121,.23276-1.44395,.80239-.9943,1.32369-.55348,1.56469-.23194,1.64324Z" fill="#44c38b"/>
          <path d="M175.27186,38.41701l1.82302-.00077,1.82596,.00217,1.82316-.00024-.00081-2.12671-.12324-1.51749-.61413-1.37679-1.26286-.81482-1.49037-.28699-1.52447-.06223-1.53717,.05473-1.50943,.27732-1.31593,.76222-.95942,1.18596-1.30139-.90685-1.30146-.91354-1.29743-.9164,.918-1.27291,1.15599-1.06402,1.34792-.80419,1.47273-.53795,1.54112-.31804,1.56461-.16291,1.57669-.04156,1.7142,.05108,1.70818,.18957,1.66877,.39832,1.56631,.68947,1.34296,1.0541,.99147,1.38923,.60556,1.59913,.30828,1.6832,.08145,1.71299,.00446,1.70143-.00659,1.69729,.00034,1.7029,.00623,1.70009-.00864,1.70237,.00613,1.70429,.00174,1.70186-.0021,1.70585-.00226,1.7086,.00379,1.71225-1.77592,.00151-1.77525-.01007-1.77122,.00184-.00905-2.32795-1.06529,1.33592-1.43792,.9194-1.65676,.42422-1.71553,.10794-1.69894-.09209-1.66932-.32081-1.5956-.58475-1.44553-.88894-1.17876-1.21945-.83342-1.47642-.46628-1.63197-.13941-1.69405,.1565-1.70668,.50655-1.63294,.91811-1.43925,1.28342-1.12527,1.51868-.78085,1.64108-.48629,1.6945-.25407,1.71397-.08098Zm5.47287,4.16338l-1.68591,.00144-1.6907-.00217-1.6907,.00153-1.60417,.1179-1.52419,.49781-1.08132,1.15678-.3052,1.56966,.31081,1.49936,1.02706,1.12522,1.43785,.53298,1.53636,.14072,1.75945-.13515,1.65614-.58285,1.18635-1.278,.53876-1.66906,.1367-1.76247-.00728-1.21371Z" fill="#44c38b"/>
          <path d="M227.53744,42.27329l-.06543,1.63283-.2264,1.61676-.39969,1.58431-.61045,1.51271-.8379,1.39888-1.07291,1.22719-1.28944,.99657-1.44843,.74524-1.55644,.48781-1.60849,.27149-1.6322,.08568-1.63164-.0918-1.60854-.27334-1.5532-.50189-1.44815-.75093-1.28718-1.00049-1.08766-1.21456-.84854-1.39227-.62502-1.50587-.41309-1.57878-.22462-1.61718-.07158-1.63235,.005-1.59683-.00742-1.59683,.0732-1.63382,.21327-1.61999,.40372-1.58308,.61555-1.51201,.85468-1.39053,1.08683-1.21549,1.2986-.98566,1.45548-.73414,1.55866-.4814,1.60936-.27134,1.63228-.08008,1.63017,.0771,1.60678,.2741,1.55593,.48467,1.4513,.73921,1.29231,.98862,1.08721,1.21156,.83917,1.39501,.60727,1.50978,.39681,1.58055,.21761,1.61582,.066,1.63111-.00864,1.59683,.00586,1.59683Zm-5.37478-.15204l-.00275-1.47011,.0061-1.47011-.095-1.65774-.33433-1.62499-.68712-1.50504-1.12871-1.20121-1.48957-.7025-1.64161-.19985-1.65115,.19701-1.49998,.70125-1.13466,1.20276-.70232,1.50304-.33864,1.62449-.09587,1.66279-.0012,1.47011-.00327,1.47011,.09794,1.68952,.32443,1.65618,.68054,1.54078,1.13406,1.2364,1.51539,.71899,1.67473,.20336,1.65472-.21763,1.48202-.75792,1.1112-1.2387,.67573-1.52547,.34643-1.63429,.10288-1.67124Z" fill="#44c38b"/>
          <path d="M234.73627,28.02952l-.00539-1.57278,.0723-1.69234,.26134-1.67097,.56462-1.59219,.99551-1.35678,1.4031-.92952,1.60359-.52632,1.67504-.22329,1.69172-.07573,1.57146,.0068-.00602,1.62036,.00312,1.62309,.00086,1.62154-1.1638,.00314-1.56375,.19866-1.23189,.92275-.42679,1.50509-.07577,1.5795,.00279,.55842,1.48572-.00452,1.48783-.00054,1.48773,.00439-.00489,1.5529,.00404,1.55549-.00344,1.5513-1.48105,.00353-1.48783,.00638-1.49104-.00873,.00019,1.59295-.00186,1.58906,.00153,1.59056-.00185,1.58607,.00434,1.58611,.00218,1.59136-.00374,1.58873-.0022,1.59086-.00076,1.59266,.00052,1.59039,.00227,1.59411-.00399,1.59668,.011,1.60164-1.7937,.0005-1.79217-.00753-1.79337,.00343,.00599-1.59131-.00195-1.58906-.00939-1.59056,.0063-1.58607,.00495-1.58611-.00232-1.59136,.00461-1.58873-.00693-1.59086,.00373-1.59266,.00099-1.59039-.0006-1.59411,.00147-1.59668-.00798-1.59432-1.61989-.0018-1.62064-.00221,.0044-1.55135-.00874-1.55549,.00551-1.55264,1.61947,.00336,1.62351-.00489Z" fill="#44c38b"/>
          <path d="M265.50444,46.17239l1.00548,1.0943,1.24175,.80655,1.399,.48516,1.47514,.15507,1.58254-.13936,1.50548-.49514,1.24771-.97176,.85771-1.3323,.51224-1.5035,.2921-1.56184,.14025-1.58134,.0442-1.59235,.00181-1.62503-.00361-1.62412-.0006-1.62566,.01079-1.62107-.00432-1.62111-.00469-1.62647,.00328-1.62379,.00192-1.62597-.00401-1.6278-.00167-1.62548,.00788-1.62929v-1.63191s-.00201-1.62981-.00201-1.62981l1.46404,.00013,1.46982-.00412,1.47219-.00509,1.46956,.00935,.00492,1.62265,.00057,1.62412,.00227,1.62566-.00226,1.62107-.00995,1.62111,.00891,1.62647-.00153,1.62379-.00189,1.62597-.00476,1.6278,.00844,1.62548-.00589,1.62929,.00733,1.63191-.00213,1.63191-.0457,1.63872-.12329,1.63129-.23469,1.62133-.37555,1.59384-.52983,1.54763-.72994,1.46414-.9472,1.33188-1.15802,1.15058-1.3509,.91642-1.49228,.66064-1.57451,.43227-1.61648,.24086-1.6348,.06513-1.69381-.08761-1.67856-.24897-1.62882-.47077-1.55278-.67946-1.42463-.91793-1.26191-1.13094-1.04758-1.32727,1.63461-.93087,1.64233-.92579,1.63634-.9386Z" fill="#44c38b"/>
          <path d="M298.86167,38.41568l1.82302,.00281,1.82596,.00134,1.82678,.00143-.00457-2.12981-.1244-1.51723-.6137-1.37632-1.26429-.80872-1.48828-.29158-1.52426-.05784-1.53713,.04853-1.50801,.28126-1.31651,.75882-.96245,1.19328-1.30064-.91313-1.30213-.91258-1.2992-.91653,.92561-1.27246,1.15157-1.0682,1.34573-.80943,1.47481-.53464,1.54099-.32142,1.56558-.15587,1.57664-.04343,1.71443,.0486,1.70681,.19995,1.66832,.39639,1.56965,.68155,1.34121,1.05709,.98839,1.39084,.60922,1.59738,.30253,1.6839,.0894,1.71244-.00002,1.70143-.00078,1.69729-.00082,1.7029-.0059,1.70009,.00632,1.70237,.00099,1.70429-.0004,1.70186-.00328,1.70585,.00479,1.7086-.00313,1.70962-1.77339-.00616-1.77525,.00804-1.77597-.00237-.00108-2.33214-1.0681,1.33694-1.43813,.91943-1.65648,.42722-1.71601,.09902-1.69822-.09276-1.67168-.30855-1.59778-.5829-1.43727-.90247-1.18286-1.21415-.82777-1.47863-.46646-1.63053-.13894-1.69304,.14226-1.70816,.51414-1.63164,.91238-1.44435,1.28499-1.12681,1.52228-.77645,1.64076-.48978,1.69536-.25258,1.71438-.0779Zm5.4721,4.16578l-1.68513-.00189-1.6907-.00134-1.6907-.00181-1.60415,.12281-1.52355,.49883-1.08095,1.1561-.29903,1.56918,.30563,1.49839,1.02853,1.12056,1.43443,.5382,1.53627,.13653,1.75923-.13183,1.65186-.58886,1.1887-1.27188,.53735-1.66849,.1355-1.76186-.00327-1.21264Z" fill="#44c38b"/>
          <path d="M339.2576,42.37469l-.06613,1.72045-.25069,1.70374-.45454,1.66012-.67649,1.58262-.94249,1.4375-1.18373,1.24531-1.42483,.95881-1.58397,.66545-1.67913,.37162-1.71799,.1073-1.6657-.08865-1.6394-.31145-1.53406-.6384-1.29594-1.0363,.0008,1.60389,.00571,1.6057-.009,1.60751,.00117,1.60522-.00144,1.60898-.00149,1.61157,.00544,1.61168-1.80626,.00646-1.80908-.0121-1.80482,.00089-.0084-1.65641,.01032-1.66184-.00172-1.66452-.00681-1.66421,.00391-1.66275-.00055-1.66389-.00532-1.66579,.00328-1.66394,.00048-1.66588,.00046-1.66495-.00145-1.66653,.0014-1.66182,.00367-1.66186,.00103-1.66736-.00227-1.66461-.00769-1.66684,.01206-1.66873-.00138-1.66635-.00832-1.67025,.00949-1.67294-.01124-1.67809,1.81093,.00231,1.80908,.00733,1.80889-.00433-.00055,2.02784,1.25892-1.17143,1.53254-.7836,1.67276-.40898,1.72116-.11874,1.70487,.10874,1.66454,.38102,1.57769,.65065,1.40914,.96049,1.19811,1.21374,.93867,1.42494,.67469,1.56653,.44103,1.64937,.25213,1.68943,.07846,1.70908,.00318,1.72364-.01315,1.72361Zm-5.36015-.25345l-.0115-1.47011,.00117-1.47011-.08933-1.65766-.34096-1.62282-.67689-1.50919-1.1348-1.19498-1.48595-.70854-1.64206-.20055-1.59601,.19291-1.46208,.65275-1.12876,1.13486-.70645,1.4407-.36058,1.56272-.12079,1.60558,.00085,1.62222,.00571,1.62222,.0787,1.68598,.31887,1.65346,.66247,1.54534,1.12276,1.24488,1.51502,.71316,1.67029,.19715,1.65523-.21061,1.48763-.75175,1.09988-1.24985,.69153-1.51893,.34369-1.63659,.10235-1.67224Z" fill="#44c38b"/>
          <path d="M354.47233,38.42147l1.82307-.00612,1.82601,.0081,1.82225-.00612,.00193-2.12588-.1295-1.51661-.60901-1.37829-1.26474-.81083-1.48915-.29153-1.5246-.05566-1.53754,.04481-1.50939,.28079-1.31893,.75953-.95707,1.19346-1.30265-.90737-1.30071-.91454-1.30131-.91459,.92354-1.27693,1.15273-1.06831,1.34844-.80561,1.47464-.5349,1.54118-.31982,1.56531-.15743,1.57661-.04052,1.71444,.04541,1.70691,.19942,1.66993,.39168,1.56496,.69195,1.34587,1.05036,.98706,1.39225,.60941,1.59741,.30711,1.6835,.08605,1.71298-.0039,1.70143-.00394,1.69729-.00029,1.7029,.00183,1.70009,.00404,1.70237-.00455,1.70429,.00223,1.70186,.0048,1.70585-.00096,1.7086-.0011,1.71173-1.77541-.00737-1.77525-.00006-1.77231,.00207-.00364-2.32955-1.07051,1.33574-1.43641,.92188-1.65728,.42359-1.71567,.1113-1.69882-.09734-1.66965-.319-1.59592-.58443-1.44225-.8935-1.17862-1.21817-.83573-1.4745-.45987-1.63295-.14636-1.69283,.15154-1.70759,.50757-1.63379,.91756-1.44131,1.28774-1.12161,1.5176-.7837,1.64179-.4854,1.69495-.25181,1.71395-.07666Zm5.47562,4.15529l-1.68854,.00594-1.69073-.0081-1.69073,.00785-1.60447,.11487-1.52164,.50352-1.08441,1.15244-.3008,1.57005,.30619,1.49987,1.03096,1.12011,1.43411,.54202,1.53724,.13739,1.76033-.1313,1.65324-.59111,1.18493-1.27657,.53955-1.66763,.13258-1.76202,.00219-1.21734Z" fill="#44c38b"/>
          <path d="M373.32842,28.02658l1.77393,.00274,1.77525-.0046,1.77439,.00413-.0022,2.28119,1.23816-1.28014,1.55126-.86596,1.71849-.4608,1.78121-.12775,1.71851,.09731,1.6847,.35067,1.59291,.64618,1.41273,.97669,1.13423,1.28984,.81273,1.51009,.51583,1.64151,.27633,1.69738,.08101,1.72298-.00483,1.58145-.00108,1.58149,.00593,1.58672-.00646,1.58411,.00359,1.58623,.0037,1.58802-.00836,1.58576,.00221,1.58947,.00615,1.59203-.00076,1.595-1.79194-.00298-1.79219-.00237-1.79295,.00319,.00073-1.69003-.00052-1.69481-.00441-1.69202,.00237-1.69429,.00127-1.6962,.00459-1.69378-.00757-1.69774,.00652-1.70048-.00539-1.70048-.11322-1.71878-.47011-1.65446-1.00802-1.37622-1.51642-.77943-1.70493-.20433-1.72426,.23779-1.55174,.77876-1.13646,1.31047-.62643,1.62145-.17853,1.73413-.00302,1.69483-.00143,1.70044,.00043,1.69763,.00167,1.69991-.00192,1.70183-.00084,1.6994-.00388,1.70338,.00106,1.70612,.00605,1.70845-1.80836,.00257-1.80908-.00094-1.8103-.00265,.00577-1.69018-.0088-1.68699,.00342-1.68896-.00051-1.68802,.00476-1.68962,.00121-1.68485-.00429-1.68489-.00544-1.69046,.00877-1.68767-.0018-1.68994,.00107-1.69184-.00176-1.68943,.00397-1.69339-.00238-1.69612-.00429-1.69772Z" fill="#44c38b"/>
        </g>
        <path d="M48.05309,51.2342l1.85812-1.50261,.89382-1.35536,.88275-1.36135,.85023-1.38584,.8394-1.38593,.80713-1.409,.8013-1.41527,.75897-1.43941,.72159-1.46013,.69715-1.47376,.63407-1.50323,.57809-1.52303,.49368-1.55228,.36216-1.5864,.13692-1.61464-.0953-1.60016-.31113-1.57248-.51567-1.51761-.70995-1.43717-.90011-1.32522-1.05511-1.20462-1.19948-1.06173-1.33154-.89124-1.43611-.71077-1.51669-.5169-1.57336-.30417-1.59892-.11269-1.60055,.10366-1.57129,.31715-1.51529,.5202-1.43669,.70865-1.3307,.89143-1.20433,1.05597-1.05758,1.20304-.88719,1.3334-.70927,1.43565-.52683,1.51284-.30245,1.57383-.11168,1.59893,.15624,1.61304,.35267,1.58468,.49415,1.5479,.57368,1.52115,.63728,1.4953,.68641,1.47501,.7235,1.46002,.77083,1.43625,.78659,1.42703,.82109,1.40385,.83045,1.40194,.86537,1.37782,.86726,1.37236,.90923,1.34449,1.84978,1.50186-1.64727,.00211-1.6459,.00693-1.6481,.00373-1.64996-.00918-1.64761,.00686-1.65147,.00199-1.65413-.00325-1.6536-.00324,.00233,2.03669-.00579,2.03951,1.66147-.00664,1.65968,.01057,1.66157-.00653,1.65972,.00675,1.66166-.00247,1.66073-.00888,1.6623,.00718,1.65761-.00733,1.65765,.00975,1.66314,.0022,1.66039-.00316,1.66262-.00073,1.6645-.00174,1.66213,.00468,1.66602-.00818,1.6687,.00399,1.66616-.00391,.00704-2.03504-.00651-2.03549-1.64659-.00414-1.64588,.00244-1.64809-.00449-1.64995,.00641-1.6476-.00241-1.65145,.00372-1.65411-.00575-1.65412,.0026Zm-6.88029-21.96824l.20366-1.54137,.58801-1.43907,.95333-1.22787,1.22748-.95359,1.43876-.58935,1.54108-.20847,1.54039,.2147,1.43568,.59189,1.23775,.94027,.94083,1.23719,.60206,1.43312,.19885,1.54256-.20806,1.54105-.59872,1.4325-.93718,1.23901-1.23712,.94003-1.43448,.59456-1.54,.2018-1.54097-.20172-1.4399-.58579-1.2323-.94922-.94135-1.23663-.59492-1.43499-.2029-1.54062Z" fill="#44c38b"/>
      </g>
    </g>
  </g>
</svg>