<?xml version="1.0" encoding="UTF-8"?>
<svg xmlns="http://www.w3.org/2000/svg" width="566.27229" height="101.91149" viewBox="0 0 566.27229 101.91149">
  <g isolation="isolate">
    <g id="btn-actions" data-name="btn-actions">
      <g id="btn-action" data-name="btn-action">
        <g>
          <g>
            <path d="M27.04785,16.0376c-2.06934-3.24268-4.55371-4.83008-9.38379-4.83008-4.34668,0-6.69336,2.00146-6.69336,5.24414,0,3.72607,3.03613,5.38232,9.38477,6.96924,9.93555,2.48389,14.4209,6.20996,14.4209,14.62793,0,7.79688-5.24414,13.86914-16.42188,13.86914-8.34961,0-14.14551-2.27734-18.35449-7.79688l7.38281-5.10645c2.55273,3.17432,5.45117,4.76123,10.35059,4.76123,5.51953,0,7.38281-2.41504,7.38281-5.31299,0-3.31201-2.00098-5.17529-9.72949-7.17627C6.00293,28.80274,1.31055,24.31787,1.31055,16.45166,1.31055,8.93067,6.2793,3.06592,17.59473,3.06592c7.58984,0,13.31738,2.55273,16.69824,7.79688l-7.24512,5.1748Z" fill="#fff"/>
            <path d="M84.04102,3.68653V31.97657c0,14.07617-7.72754,19.94141-18.28418,19.94141-10.55762,0-18.28516-5.86523-18.28516-19.87207V3.68653h9.66016v28.35938c0,8.14209,2.69043,11.72998,8.625,11.72998,5.93359,0,8.625-3.58789,8.625-11.72998V3.68653h9.65918Z" fill="#fff"/>
            <path d="M114.88379,3.68653c11.24707,0,17.38867,4.00195,17.38867,12.48926,0,4.89893-2.48438,8.27979-6.2793,10.14307,4.89844,1.79395,7.79688,5.38184,7.79688,11.31592,0,7.3833-4.83008,13.66211-17.3877,13.66211h-17.45703V3.68653h15.93848Zm-6.2793,18.8374h6.41797c5.3125,0,7.58984-2.07031,7.58984-5.45117,0-3.31201-1.65625-5.24414-8.625-5.24414h-5.38281v10.69531Zm0,20.63086h6.96973c5.7959,0,8.55566-2.20801,8.55566-6.27881,0-4.48535-2.9668-6.20996-9.45312-6.20996h-6.07227v12.48877Z" fill="#fff"/>
            <path d="M171.04883,16.0376c-2.06934-3.24268-4.55371-4.83008-9.38379-4.83008-4.34668,0-6.69336,2.00146-6.69336,5.24414,0,3.72607,3.03613,5.38232,9.38477,6.96924,9.93555,2.48389,14.4209,6.20996,14.4209,14.62793,0,7.79688-5.24414,13.86914-16.42188,13.86914-8.34961,0-14.14551-2.27734-18.35449-7.79688l7.38281-5.10645c2.55273,3.17432,5.45117,4.76123,10.35059,4.76123,5.51953,0,7.38281-2.41504,7.38281-5.31299,0-3.31201-2.00098-5.17529-9.72949-7.17627-9.38379-2.48389-14.07617-6.96875-14.07617-14.83496,0-7.521,4.96875-13.38574,16.28418-13.38574,7.59082,0,13.31738,2.55273,16.69824,7.79688l-7.24512,5.1748Z" fill="#fff"/>
            <path d="M216.45117,18.45264c-.89648-4.48486-3.51855-7.24512-8.21094-7.24512-5.58887,0-8.55566,3.79541-8.55566,12.90332v6.76221c0,8.83203,2.9668,12.90283,8.55566,12.90283,4.83008,0,7.17578-2.41504,8.21094-7.24512h9.17676c-1.58691,10.69531-7.58984,15.38721-17.3877,15.38721-10.69531,0-18.21582-6.48633-18.21582-21.04492v-6.76221c0-14.69727,7.52051-21.04492,18.21582-21.04492,9.45312,0,15.87012,4.96777,17.45703,15.38672h-9.24609Z" fill="#fff"/>
            <path d="M263.92188,51.29688l-8.55566-18.69922h-7.72852v18.69922h-9.65918V3.68653h17.04297c10.9707,0,17.80176,4.89941,17.80176,14.55908,0,6.41699-2.9668,10.62598-8.1416,12.76514l9.86621,20.28613h-10.62598Zm-9.79785-26.84131c5.72754,0,9.03906-1.2417,9.03906-6.20996,0-4.96777-3.31152-6.34766-9.03906-6.34766h-6.48633v12.55762h6.48633Z" fill="#fff"/>
            <path d="M296.4209,51.29688h-9.66016V3.68653h9.66016V51.29688Z" fill="#fff"/>
            <path d="M327.95215,3.68653c11.24707,0,17.38867,4.00195,17.38867,12.48926,0,4.89893-2.48438,8.27979-6.2793,10.14307,4.89844,1.79395,7.79688,5.38184,7.79688,11.31592,0,7.3833-4.83008,13.66211-17.3877,13.66211h-17.45703V3.68653h15.93848Zm-6.2793,18.8374h6.41797c5.3125,0,7.58984-2.07031,7.58984-5.45117,0-3.31201-1.65625-5.24414-8.625-5.24414h-5.38281v10.69531Zm0,20.63086h6.96973c5.7959,0,8.55566-2.20801,8.55566-6.27881,0-4.48535-2.9668-6.20996-9.45312-6.20996h-6.07227v12.48877Z" fill="#fff"/>
            <path d="M389.01758,3.68653V11.89795h-20.01074v10.69482h17.94043v8.14209h-17.94043v12.41992h20.01074v8.14209h-29.66992V3.68653h29.66992Z" fill="#fff"/>
          </g>
          <g>
            <path d="M31.32227,64.76514v2.88623h-7.77051v22.64551h-3.18262v-22.64551h-7.77051v-2.88623H31.32227Z" fill="#fff"/>
            <path d="M44.08691,90.59278c-5.66113,0-9.25-3.4043-9.25-11.65576v-2.81201c0-8.25146,3.58887-11.65576,9.25-11.65576s9.25098,3.4043,9.25098,11.65576v2.81201c0,8.25146-3.58984,11.65576-9.25098,11.65576Zm-6.06836-11.65576c0,6.32764,2.14648,8.76953,6.06836,8.76953,3.92285,0,6.06836-2.44189,6.06836-8.76953v-2.81201c0-6.32764-2.14551-8.76953-6.06836-8.76953-3.92188,0-6.06836,2.44189-6.06836,8.76953v2.81201Z" fill="#fff"/>
            <path d="M78.49609,90.59278c-5.66113,0-9.25-3.4043-9.25-11.65576v-2.81201c0-8.25146,3.58887-11.65576,9.25-11.65576s9.25098,3.4043,9.25098,11.65576v2.81201c0,8.25146-3.58984,11.65576-9.25098,11.65576Zm-6.06836-11.65576c0,6.32764,2.14648,8.76953,6.06836,8.76953,3.92285,0,6.06836-2.44189,6.06836-8.76953v-2.81201c0-6.32764-2.14551-8.76953-6.06836-8.76953-3.92188,0-6.06836,2.44189-6.06836,8.76953v2.81201Z" fill="#fff"/>
            <path d="M112.7207,64.76514v15.13379c0,7.54883-3.58887,10.69385-9.25098,10.69385-5.66113,0-9.25-3.14502-9.25-10.65674v-15.1709h3.18164v15.1709c0,5.5874,2.14648,7.77051,6.06836,7.77051,3.92285,0,6.06836-2.18311,6.06836-7.77051v-15.1709h3.18262Z" fill="#fff"/>
            <path d="M135.03223,90.29688l-5.3291-10.76758h-6.03125v10.76758h-3.18164v-25.53174h8.14062c5.88281,0,9.28711,2.44189,9.28711,7.40039,0,3.58936-1.77637,5.84668-5.03223,6.80859l5.69824,11.32275h-3.55176Zm-6.40137-13.65381c4.3291,0,6.10547-1.33203,6.10547-4.47754,0-3.18213-1.77637-4.51416-6.10547-4.51416h-4.95898v8.9917h4.95898Z" fill="#fff"/>
            <path d="M172.36523,64.76514v25.53174h-3.1084l-11.02734-19.31543v19.31543h-3.18164v-25.53174h3.03418l11.10059,19.50049v-19.50049h3.18262Z" fill="#fff"/>
            <path d="M195.52539,64.76514v2.88623h-12.21094v7.99268h11.10059v2.88623h-11.10059v8.88037h12.21094v2.88623h-15.39258v-25.53174h15.39258Z" fill="#fff"/>
            <path d="M208.25293,90.29688h-3.18164l-6.2168-25.53174h3.33008l4.625,20.05518,5.625-20.05518h3.14453l5.73633,20.1665,4.625-20.1665h3.33008l-6.2168,25.53174h-3.21875l-5.80957-19.8335-5.77246,19.8335Z" fill="#fff"/>
            <path d="M247.54688,70.42627c-1.36914-1.77588-2.84863-3.0708-6.06836-3.0708-2.95996,0-4.95801,1.33203-4.95801,3.99609,0,3.03418,2.29395,4.07031,6.03125,4.73633,4.92188,.85107,7.91895,2.62695,7.91895,7.36328,0,3.33057-2.2207,7.1416-8.58496,7.1416-4.14453,0-7.17871-1.40576-9.10254-4.18115l2.62695-1.81299c1.66504,1.96094,3.14551,3.10791,6.47559,3.10791,4.18164,0,5.40234-1.92383,5.40234-4.10693,0-2.40527-1.2207-4.03369-6.03125-4.77344-4.81055-.74023-7.91895-3.03418-7.91895-7.47461,0-3.66309,2.40527-6.88232,8.25195-6.88232,4.07031,0,6.62305,1.36914,8.43652,4.18115l-2.47949,1.77588Z" fill="#fff"/>
            <path d="M260.05273,87.41065h12.21094v2.88623h-15.39258v-25.53174h3.18164v22.64551Z" fill="#fff"/>
            <path d="M292.28027,64.76514v2.88623h-12.21094v7.99268h11.10059v2.88623h-11.10059v8.88037h12.21094v2.88623h-15.39258v-25.53174h15.39258Z" fill="#fff"/>
            <path d="M314.14746,64.76514v2.88623h-7.77051v22.64551h-3.18262v-22.64551h-7.77051v-2.88623h18.72363Z" fill="#fff"/>
            <path d="M334.71875,64.76514v2.88623h-7.77051v22.64551h-3.18262v-22.64551h-7.77051v-2.88623h18.72363Z" fill="#fff"/>
            <path d="M354.9209,64.76514v2.88623h-12.21094v7.99268h11.10059v2.88623h-11.10059v8.88037h12.21094v2.88623h-15.39258v-25.53174h15.39258Z" fill="#fff"/>
            <path d="M375.56641,90.29688l-5.3291-10.76758h-6.03125v10.76758h-3.18164v-25.53174h8.14062c5.88281,0,9.28711,2.44189,9.28711,7.40039,0,3.58936-1.77637,5.84668-5.03223,6.80859l5.69824,11.32275h-3.55176Zm-6.40137-13.65381c4.3291,0,6.10547-1.33203,6.10547-4.47754,0-3.18213-1.77637-4.51416-6.10547-4.51416h-4.95898v8.9917h4.95898Z" fill="#fff"/>
          </g>
          <g>
            <path d="M494.32207,98.19415l17.78206-41.74072c.02194-.05153,.04256-.10635,.06194-.15898,.01594-.03672,.03004-.07694,.04086-.11583,.01622-.0452,.03014-.09139,.04151-.13867,.01077-.03877,.02159-.07767,.02985-.11765,.01082-.0389,.018-.07633,.02652-.11621,.0101-.05069,.01885-.09892,.02645-.15082,.01514-.10367,.02792-.2082,.03225-.31346,.00104-.00243-.00043-.00607,.00055-.00838,.00207-.06589,.00403-.13152,.00245-.19594-.00009-.2375-.02761-.47233-.08087-.70059-.01166-.05421-.02562-.1094-.0424-.16579-.03376-.12434-.07569-.24371-.12466-.36002-.01531-.03854-.03099-.07694-.04969-.11391-.02224-.04995-.04442-.10003-.07255-.14962-.00273-.00706-.00809-.01507-.01338-.02322l-.10566-.18683s.00103-.00243-.00255-.00109l-2.38262-4.17348,6.71887-15.77169c1.27515-2.99289-.11736-6.45268-3.11044-7.72776l-22.49475-9.58324-3.94691-6.91336c-.74067-1.30024-2.25795-1.94654-3.70861-1.57988l-7.72027,1.94293L453.73485,.47274c-2.99281-1.27497-6.45254,.11772-7.72764,3.11049l-6.39514,15.01133-5.98617,1.50662-.2079,.05333c-.00954,.00182-.01903,.00353-.02595,.00632-.55936,.16426-1.07184,.47598-1.47613,.90898-.25565,.27333-.46753,.5943-.62204,.95721l-18.02629,42.31363c-.03332,.07826-.06341,.15533-.08839,.23458-.01436,.04011-.02748,.07803-.03928,.11923-.00207,.00486-.00419,.00985-.00267,.01337-.01631,.05106-.03077,.10563-.04426,.15789-.00055,.00838-.00474,.01822-.00554,.02649-.00501,.02385-.0093,.0474-.0141,.07073-.00193,.01021-.004,.02005-.00593,.03026-.00368,.01928-.00812,.03823-.01151,.05824-.0007,.00378-.0014,.00756-.00205,.01121-.0103,.05755-.01856,.11597-.02662,.17462-.00558,.06137-.01398,.12154-.01617,.18133-.00251,.05981-.00579,.12215-.007,.17965-.00021,.00262,.00071,.00543,.00075,.00818-.00006,.03562,.00635,.07023,.00748,.1059,.0005,.02227-.00547,.0448-.00436,.06702,.00065,.05239,.00642,.10696,.00958,.16058,.0068,.05214,.0111,.10306,.02046,.15629,.00436,.0295,.01403,.05718,.0188,.08641,.007,.04105,.01359,.08161,.02194,.12233,.00271,.01279,.00118,.02633,.00414,.03922,.01538,.07316,.03389,.14464,.05614,.21514,.01531,.05275,.03135,.10307,.04872,.15095,.00649,.01953,.02002,.03602,.02712,.05551,.08546,.2314,.1902,.45515,.3252,.66247,.00029,.00073,.00089,.00144,.00124,.00204,.00585,.00898,.01196,.01733,.01785,.02618,.02093,.03172,.04181,.06358,.06397,.09385,.02746,.03768,.05488,.07548,.08228,.11329,.04116,.05091,.09162,.0949,.13567,.14401,.05425,.06132,.10859,.12101,.16784,.17842,.01688,.0164,.03113,.03546,.04843,.05158,.01002,.0091,.016,.02132,.02608,.03029,.03166,.02783,.06551,.05689,.09972,.08581,.05274,.04572,.1076,.08645,.16272,.12728,.01507,.01216,.02777,.02346,.04387,.03318,.00834,.00597,.01757,.01126,.02595,.01709,.00489,.00344,.00993,.00649,.01481,.00993,.03896,.02701,.07815,.05487,.11955,.07899,.00259,.00171,.00581,.00338,.0084,.00509,.00886,.00544,.01809,.01072,.02727,.01614,.0106,.00632,.02047,.01294,.03129,.01876,.03853,.02516,.07815,.04778,.11874,.06808,.0358,.01811,.07389,.0372,.10963,.05544,.05293,.02541,.10586,.05081,.15983,.07379l74.58912,31.77603h0l.16675,.071c.05391,.0231,.10891,.04365,.16365,.06409,.03786,.01325,.07834,.02746,.11615,.04084,.01227,.00523,.02308,.00681,.0328,.01094,.01837,.0051,.03889,.01082,.05706,.01568,.00998,.00425,.02073,.00595,.03045,.01009,.02308,.00681,.04375,.01289,.06454,.01872,.00333-.00145,.00589-.00036,.01075,.00171,.02662,.00559,.0558,.01227,.08247,.01774,.02042,.00598,.0435,.01278,.06526,.01631,.03513,.00619,.06994,.0124,.10502,.01873,.06744,.01119,.13503,.02275,.20479,.02919,.04096,.00596,.08046,.00827,.11996,.01059,.01076,.00171,.0251,.00208,.03585,.00378,.01107,.00169,.02055,0,.03136,.00157,.03125,.00182,.06188-.00342,.093-.0027,.06636,.00167,.13121-.00305,.1975-.00549,.07498-.00297,.15077,.00211,.22546-.00658,.02383-.00134,.0485-.00533,.07342-.00922,.02382-.00133,.04515-.00388,.06746-.00874,.02722-.00291,.05553-.00838,.08399-.01348,.01321-.00193,.02805-.00557,.04392-.00879,.00591-.00111,.01167-.00258,.01758-.00369,.04925-.00924,.09752-.02042,.14481-.03003,.00693-.00279,.01386-.00558,.02001-.00584,.06478-.01592,.13035-.03438,.19459-.05612,.00698-.00292,.01647-.00462,.02345-.00753,.02699-.00875,.05397-.0175,.0784-.02734,.02236-.00498,.04341-.01324,.0643-.02187,.02141-.00841,.04139-.01561,.0609-.02453,.00718-.00268,.01397-.00583,.02089-.00862,.04486-.01807,.08981-.03639,.13354-.05749,.04636-.0209,.09395-.04399,.14264-.06964,.06587-.03268,.12823-.06987,.1929-.10609,.02278-.01659,.0472-.03066,.07293-.04781,.00539-.00344,.01028-.0071,.01567-.01055,.04106-.02618,.08287-.05414,.12229-.08358,.02311-.01312,.04225-.03111,.06286-.04545,.0217-.0169,.0423-.03123,.06394-.04801,.0217-.01689,.04442-.03622,.06247-.05165,.06169-.04911,.12009-.10537,.17791-.15885,.00207-.00486,.01008-.01021,.01549-.01652,.01684-.01896,.03623-.03684,.05635-.05713,.02017-.02041,.04163-.04315,.06279-.06587,.00339-.00157,.00442-.004,.00546-.00644,.04184-.04291,.07939-.09067,.1195-.13733,.00463-.00377,.01008-.01021,.01215-.01507,.01994-.02626,.04327-.05408,.06419-.08264,.01222-.0152,.02462-.03015,.03422-.04631,.01008-.01021,.0189-.02383,.02413-.0361,.01009-.01021,.01787-.02139,.02431-.03013,.00207-.00486,.00778-.01118,.00985-.01605,.02201-.03111,.0451-.06479,.06456-.09699,.02054-.03476,.04363-.06843,.06162-.10428,.00876-.01349,.01764-.02724,.02723-.04339,.00414-.00971,.01063-.01858,.01508-.02832,.01275-.02357,.02571-.04691,.03513-.06903,.01301-.02346,.02571-.04691,.03617-.07146,.02548-.05275,.04972-.1033,.07166-.15484l.22071-.51766,.02347-.05511h0Z" fill="#344551" mix-blend-mode="multiply" opacity=".2"/>
            <g>
              <path d="M514.74165,57.59541l-18.02624,42.31357c-.02191,.05143-.04626,.1019-.07169,.15475-.01045,.02454-.02336,.04796-.03623,.07148-.0094,.02207-.0223,.04549-.03522,.06898-.00419,.00983-.01076,.01857-.01492,.02833-.0098,.01613-.01854,.02979-.02722,.04348-.01814,.03573-.04117,.06937-.06172,.10408-.0195,.03223-.04252,.06588-.06449,.09705-.00977,.01607-.02197,.03118-.03424,.04625-.00522,.01224-.01389,.02593-.02406,.03605-.00973,.01616-.02197,.03118-.03418,.04628-.02092,.0287-.04433,.05641-.06416,.08273-.00208,.00489-.00769,.01118-.01224,.01502-.04011,.04667-.07779,.09431-.11936,.13736-.00105,.00247-.0021,.00494-.00557,.00639-.02131,.02277-.04256,.04556-.06284,.06591-.02026,.02029-.03942,.0382-.05618,.05714-.0056,.0063-.01363,.01157-.0157,.01646-.05763,.05367-.11629,.10975-.17774,.15887-.01818,.01541-.04087,.03474-.06251,.05159-.02161,.01679-.04229,.03121-.06394,.04806-.02058,.01439-.03982,.03226-.06287,.04559-.04223,.03124-.08699,.06139-.13066,.08917-.0286,.01965-.05519,.0344-.08036,.05267-.06462,.03616-.12678,.07336-.19285,.10605-.04863,.02566-.0961,.04882-.14264,.0696-.04748,.02316-.09643,.04291-.14539,.06251-.02197,.01094-.04542,.01833-.06993,.02819-.02098,.00845-.0419,.01692-.06427,.02177-.02451,.00987-.05142,.01871-.07834,.02754-.00696,.0028-.0164,.00456-.02345,.00739-.06427,.02177-.13001,.04014-.1947,.05604-.006,.00037-.01296,.00317-.01992,.00597-.05074,.01023-.10247,.02296-.15561,.03216-.0189,.00356-.03533,.00818-.05074,.01023-.02833,.00531-.05667,.01062-.08392,.01355-.0224,.00491-.04377,.00743-.06753,.00884-.02483,.00396-.04964,.00785-.07347,.00924-.17065,.01998-.3435,.02456-.516,.01477-.01082-.00169-.02025,.00006-.03114-.00165-.01082-.00169-.0252-.00204-.03602-.00373-.03959-.00241-.07911-.00478-.12001-.0106-.06967-.00653-.13719-.01791-.20479-.02932-.03497-.0062-.07-.01244-.10497-.01864-.02168-.00347-.0448-.01039-.06541-.01633-.02665-.00552-.05569-.01211-.08231-.01769-.00489-.00208-.00736-.00313-.01082-.00169-.02068-.00596-.04133-.01184-.06445-.01876-.00977-.00417-.02065-.00588-.03048-.01006-.01815-.00488-.0388-.01076-.05701-.01567-.00983-.00419-.02065-.00588-.03289-.01109-.03783-.01319-.07814-.02745-.11595-.04071-.05496-.02049-.10989-.04104-.16385-.06403l-74.75587-31.84716c-.0539-.02296-.10684-.04837-.15969-.0738-.03575-.01808-.07395-.03727-.10962-.05539-.04061-.02022-.08026-.04288-.11879-.06799-.02342-.0129-.04694-.02577-.06692-.04005-.05565-.0324-.10926-.06977-.16042-.10603-.01616-.00973-.02877-.02095-.04381-.03312-.05505-.04084-.11005-.08165-.16296-.12734-.03156-.02791-.06169-.05235-.09078-.07921-.14023-.12634-.26928-.26539-.38677-.41097-.02738-.03774-.05476-.07547-.08214-.11321-.03123-.04223-.06139-.08699-.08916-.13067-.17268-.26754-.30486-.55559-.3951-.86046-.02214-.07027-.04084-.14192-.05607-.21502-.05545-.24375-.08259-.49274-.07895-.74609,.00129-.05737,.00469-.11968,.00703-.17952,.00225-.05981,.01056-.11995,.01637-.18124,.00828-.06023,.01653-.1204,.02725-.17952,.0097-.0567,.02076-.10991,.03286-.16559,.0007-.00832,.00488-.01815,.00554-.02656,.01353-.05216,.02811-.10678,.04411-.15788-.00142-.00352,.00066-.00841,.00277-.01335,.01181-.04127,.02501-.07911,.03929-.11932,.02501-.07911,.05493-.1562,.08832-.23458l18.02624-42.31358c.15456-.36279,.36658-.68373,.62205-.95716,.40457-.43296,.91682-.74475,1.47619-.90901,.00704-.00278,.01647-.00453,.02593-.00634l.20797-.05324c.64208-.14064,1.33281-.08966,1.98484,.18812l74.75587,31.84716c.07356,.03133,.14362,.06403,.21155,.10173,.0133,.00274,.02695,.01148,.03816,.0191,.0666,.03415,.13453,.07185,.1965,.10979,.01366,.00874,.02982,.01847,.04348,.02721,.0546,.03488,.10824,.07218,.15835,.11092,.01366,.00874,.02734,.01742,.03995,.02863,.06379,.0474,.12406,.09623,.18334,.14756,.05535,.04681,.11108,.09947,.16197,.15007,.07357,.07195,.14164,.1501,.20614,.2298,.03721,.04193,.07332,.08623,.10599,.13199,.05963,.07755,.11472,.15894,.16282,.24319,.00355-.00148,.00247,.00105,.00247,.00105l.10575,.18689c.00524,.00808,.01052,.01609,.01332,.02306,.02808,.04965,.05025,.09962,.0724,.1496,.01891,.03705,.03445,.07551,.04991,.11394,.04888,.11636,.09075,.23564,.12463,.36013,.01655,.05628,.03066,.11144,.04231,.1657,.05334,.22831,.08078,.46305,.08096,.70057,.00149,.0644-.00046,.13017-.00241,.19595-.00105,.00247,.00039,.00593-.00066,.00841-.00433,.1053-.01706,.20993-.03218,.31348-.00761,.05182-.01659,.10015-.02666,.15085-.00831,.03992-.01557,.07736-.0263,.11624-.00837,.03989-.01909,.07878-.02988,.11764-.01142,.04721-.02533,.09343-.04167,.13861-.01079,.03886-.02501,.07911-.04068,.11589-.01946,.05255-.04001,.10748-.06195,.15897Z" fill="#f9c067"/>
              <path d="M515.00097,56.48372l-80.44773-34.27198c.40457-.43296,.91682-.74475,1.47619-.90901,.00704-.00278,.01647-.00453,.02593-.00634l.20797-.05324,49.32434-12.41425c1.45081-.36666,2.96814,.27975,3.70876,1.57999l25.21585,44.16953c.00355-.00148,.00247,.00105,.00247,.00105l.10575,.18689c.00524,.00808,.01052,.01609,.01332,.02306,.02808,.04965,.05025,.09962,.0724,.1496,.01891,.03705,.03445,.07551,.04991,.11394,.04888,.11636,.09075,.23564,.12463,.36013,.01655,.05628,.03066,.11144,.04231,.1657,.05334,.22831,.08078,.46305,.08096,.70057,.00149,.0644-.00046,.13017-.00241,.19595-.00105,.00247,.00039,.00593-.00066,.00841Z" fill="#efae2e"/>
              <g>
                <path d="M491.71158,98.33288l-70.20394-29.90797,26.66503-62.59167c1.53571-3.60483,5.70295-5.28218,9.30778-3.74647l57.14969,24.34665c3.60483,1.53571,5.28218,5.70295,3.74647,9.30778l-26.66502,62.59167Z" fill="#fff"/>
                <rect x="477.37" y="1.11765" width="3.46378" height="58.92817" rx="1.42822" ry="1.42822" transform="translate(263.1916 459.36677) rotate(-66.92524)" fill="#e4ecf9"/>
                <rect x="474.4698" y="7.92537" width="3.46379" height="58.92817" rx="1.42822" ry="1.42822" transform="translate(255.16503 460.83817) rotate(-66.92524)" fill="#e4ecf9"/>
                <rect x="471.56963" y="14.73311" width="3.46371" height="58.92817" rx="1.42822" ry="1.42822" transform="translate(247.13842 462.30957) rotate(-66.92524)" fill="#e4ecf9"/>
                <rect x="468.66939" y="21.54086" width="3.46379" height="58.92816" rx="1.42822" ry="1.42822" transform="translate(239.11181 463.78097) rotate(-66.92524)" fill="#e4ecf9"/>
                <rect x="465.7692" y="28.34857" width="3.46378" height="58.92816" rx="1.42822" ry="1.42822" transform="translate(231.08524 465.25236) rotate(-66.92524)" fill="#e4ecf9"/>
                <rect x="465.72612" y="3.9228" width="3.46371" height="27.31034" rx="1.42822" ry="1.42822" transform="translate(268.07476 440.7473) rotate(-66.92525)" fill="#3e719b"/>
              </g>
              <path d="M464.84101,62.67439l-.00103,.00241c-.17194,.07735-.36178,.13553-.56291,.16568l-46.46782,7.0279-.16665-.07099c-.30642-.13054-.58176-.29991-.82221-.50372-.03404-.02896-.06799-.05796-.09955-.08586-.41191-.37238-.71866-.84194-.89578-1.35758-.01725-.04796-.03344-.09824-.04862-.15108-.04611-.14994-.07831-.30563-.10103-.46299-.0092-.05315-.01352-.10421-.02031-.15633-.0032-.05351-.00894-.10811-.00974-.16059-.02202-.47856,.05911-.96816,.25959-1.43876l18.02624-42.31358c.15456-.36279,.36658-.68373,.62205-.95716,.40457-.43296,.91682-.74475,1.47619-.90901,.00704-.00278,.01647-.00453,.02593-.00634l.20797-.05324c.64208-.14064,1.33281-.08966,1.98484,.18812l.69122,.29447,2.3818,3.36924,21.95382,31.06497,.82576,1.16846,1.57564,2.22937c.11759,.16593,.20716,.34314,.27051,.52066l-.00105,.00247c.35417,1.01108-.13141,2.1509-1.10486,2.59348Z" fill="#f4b545"/>
              <path d="M514.74165,57.59541l-18.02624,42.31357c-.02191,.05143-.04626,.1019-.07169,.15475-.01045,.02454-.02336,.04796-.03623,.07148-.0094,.02207-.0223,.04549-.03522,.06898-.00419,.00983-.01076,.01857-.01492,.02833-.0098,.01613-.01854,.02979-.02722,.04348-.01814,.03573-.04117,.06937-.06172,.10408-.0195,.03223-.04252,.06588-.06449,.09705-.00208,.00489-.00769,.01118-.00977,.01607-.00666,.00878-.01428,.01999-.02447,.03018-.00522,.01224-.01389,.02593-.02406,.03605-.00973,.01616-.02197,.03118-.03418,.04628-.02092,.0287-.0408,.05499-.06416,.08273-.00208,.00489-.00769,.01118-.01224,.01502-.0377,.04769-.07779,.09431-.11936,.13736-.00105,.00247-.0021,.00494-.00557,.00639-.02131,.02277-.03909,.04411-.06284,.06591-.01673,.01887-.03596,.03675-.05618,.05714-.00455,.00383-.01016,.01013-.0157,.01646-.05763,.05367-.11629,.10975-.17774,.15887-.01818,.01541-.04087,.03474-.06251,.05159-.02161,.01679-.04229,.03121-.06394,.04806-.02058,.01439-.03982,.03226-.06287,.04559-.04223,.03124-.08699,.06139-.13066,.08917-.0286,.01965-.05519,.0344-.08036,.05267-.06568,.03863-.12925,.07231-.19285,.10605-.04863,.02566-.0961,.04882-.14264,.0696-.04748,.02316-.09643,.04291-.14539,.06251-.02197,.01094-.04542,.01833-.06993,.02819-.02098,.00845-.0419,.01692-.06427,.02177-.02451,.00987-.05142,.01871-.07834,.02754-.00696,.0028-.0164,.00456-.02345,.00739-.06427,.02177-.13001,.04014-.1947,.05604-.006,.00037-.01296,.00317-.01992,.00597-.05074,.01023-.10247,.02296-.15561,.03216-.0189,.00356-.03533,.00818-.05074,.01023-.02833,.00531-.05667,.01062-.08392,.01355-.0224,.00491-.04377,.00743-.06753,.00884-.02483,.00396-.04964,.00785-.07347,.00924-.17065,.01998-.3435,.02456-.516,.01477-.01082-.00169-.02273-.00099-.03114-.00165-.01082-.00169-.0252-.00204-.03602-.00373-.03959-.00241-.07911-.00478-.12001-.0106-.06967-.00653-.13719-.01791-.20479-.02932-.03497-.0062-.07-.01244-.10497-.01864-.02168-.00347-.0448-.01039-.06541-.01633-.02665-.00552-.05569-.01211-.08231-.01769l-.00736-.00313c-.02312-.00693-.0472-.01142-.06792-.01732-.00977-.00417-.02065-.00588-.03048-.01006-.01815-.00488-.03639-.00973-.05701-.01567-.00983-.00419-.02065-.00588-.03289-.01109-.03783-.01319-.07814-.02745-.11595-.04071-.05496-.02049-.10989-.04104-.16385-.06403l-.16666-.071-27.12375-38.37905c-.11759-.16593-.20715-.34315-.26808-.5197l.00103-.00241c-.35657-1.01211,.12693-2.14704,1.10486-2.59348l.00105-.00247c.1695-.07831,.35935-.1365,.56047-.16665l2.69687-.40921,1.4147-.21399,37.61411-5.6881,4.07973-.61653,.69122,.29448c.07356,.03133,.14362,.06403,.21155,.10173,.0133,.00274,.02695,.01148,.03816,.0191,.0666,.03415,.13453,.07185,.1965,.10979,.01366,.00874,.02982,.01847,.04348,.02721,.0546,.03488,.10824,.07218,.15835,.11092,.01366,.00874,.02734,.01742,.03995,.02863,.06379,.0474,.12406,.09623,.18334,.14756,.05535,.04681,.11108,.09947,.16197,.15007,.07357,.07195,.14164,.1501,.20614,.2298,.03721,.04193,.07332,.08623,.10599,.13199,.05963,.07755,.11472,.15894,.16282,.24319,.00355-.00148,.00247,.00105,.00247,.00105l.10575,.18689c.00524,.00808,.01052,.01609,.01332,.02306,.02808,.04965,.05025,.09962,.0724,.1496,.01891,.03705,.03445,.07551,.04991,.11394,.04888,.11636,.09075,.23564,.12463,.36013,.01655,.05628,.03066,.11144,.04231,.1657,.05334,.22831,.08078,.46305,.08096,.70057,.00149,.0644-.00046,.13017-.00241,.19595-.00105,.00247,.00039,.00593-.00066,.00841-.00433,.1053-.01706,.20993-.03218,.31348-.00761,.05182-.01659,.10015-.02666,.15085-.00831,.03992-.01557,.07736-.0263,.11624-.00837,.03989-.01909,.07878-.02988,.11764-.01142,.04721-.02533,.09343-.04167,.13861-.01079,.03886-.02501,.07911-.04068,.11589-.01946,.05255-.04001,.10748-.06195,.15897Z" fill="#f4b545"/>
              <path d="M496.95945,99.33616l-.18749,.4401c-.74342,1.74505-2.70175,2.58248-4.37349,1.87029l-74.75587-31.84716c-1.67174-.71219-2.42452-2.70459-1.68111-4.44964l.18749-.4401,49.22756-8.91727c1.52843-.27695,3.04823,.37051,3.90731,1.66458l27.6756,41.67921Z" fill="#474747" opacity=".29"/>
              <path d="M496.89504,99.48734l-.17963,.42165c-.71219,1.67174-2.64521,2.44975-4.31695,1.73756l-74.75587-31.84716c-1.67174-.71219-2.44984-2.64517-1.73765-4.31691l.17963-.42165,48.77508-7.85514c1.51436-.24391,3.03416,.40355,3.90731,1.66457l28.12808,40.61708Z" fill="#efae2e"/>
            </g>
          </g>
          <g>
            <path d="M545.01816,6.57578c-11.73856,0-21.25413,9.51574-21.25413,21.25396,0,3.73291,.9687,7.23659,2.65892,10.28533l-2.51983,12.77452c-.06409,.32466,.23522,.60337,.5546,.51658l13.30342-3.62059c2.26736,.82521,4.70409,1.2983,7.25702,1.2983,11.7382,0,21.25413-9.51557,21.25413-21.25413s-9.51593-21.25396-21.25413-21.25396Z" fill="#fff"/>
            <path d="M548.55631,22.49286l.42952-1.42534,3.4453,.24514-2.64946,9.21624c-.16427,.58311-.25282,.97029-.26645,1.16187-.01423,.19991,.02461,.36015,.11691,.48033,.09151,.12013,.20727,.18537,.34649,.19528,.47003,.03344,1.09872-.22999,1.8861-.79069,.78775-.56027,1.49531-1.34951,2.12306-2.36726,.62775-1.01776,.986-2.15316,1.07516-3.40618,.07428-1.04398-.05368-2.04136-.38392-2.99174s-.84525-1.79152-1.54544-2.52344c-.69979-.7319-1.58662-1.32841-2.6597-1.78947-1.07386-.46111-2.30651-.74137-3.69836-.8404-1.41842-.10093-2.73219-.00863-3.9417,.27685-1.20955,.28589-2.28733,.7426-3.23258,1.37061-.94523,.62761-1.75455,1.42953-2.4271,2.40463-.59386,.84954-1.06841,1.80406-1.42362,2.86313-.35522,1.05908-.57276,2.14988-.65261,3.272-.10648,1.49656,.09403,2.8862,.602,4.16816,.50754,1.28232,1.29945,2.38355,2.37532,3.30406,1.07547,.92048,2.40549,1.6139,3.99001,2.08105,1.58454,.46675,3.39808,.66795,5.44021,.60356,1.62323-.07705,3.01291-.34534,4.16946-.80522,1.15614-.45991,2.15643-1.14978,3.00001-2.06886l2.77972,.19778c-.51842,.89877-1.16736,1.68778-1.94562,2.36674-.77868,.67932-1.67287,1.23401-2.68266,1.66527-1.01016,.43084-2.12924,.73392-3.35719,.90886-1.22796,.17495-2.55531,.21166-3.98246,.11011-2.14032-.15229-4.0473-.56983-5.72129-1.25304-1.67439-.68324-3.05903-1.59503-4.15394-2.73535-1.09491-1.14034-1.89045-2.46507-2.38627-3.97379-.49622-1.50875-.68119-3.15044-.55489-4.92544,.13185-1.85316,.56404-3.56255,1.29618-5.12861,.73249-1.56524,1.72171-2.90092,2.9676-4.00586,1.2459-1.10493,2.72999-1.93259,4.45275-2.48375,1.7227-.55036,3.59295-.75415,5.61151-.61053,1.65324,.11763,3.15205,.46706,4.49685,1.04792,1.34441,.58082,2.47624,1.35901,3.39517,2.33374,.91889,.97512,1.59306,2.10066,2.02247,3.37743,.42943,1.27636,.59107,2.66324,.48459,4.1598-.08295,1.16576-.37324,2.29284-.87048,3.38128-.4972,1.08804-1.16687,2.0506-2.00894,2.88686-.8421,.83667-1.80809,1.47595-2.89763,1.91868-1.08957,.44312-2.24358,.62093-3.4613,.53429-.70485-.05015-1.24453-.20855-1.61897-.47598-.37448-.26703-.60838-.6664-.70174-1.19767-.81046,.6946-1.7139,1.10472-2.71111,1.23031-.99723,.12598-1.94347-.03344-2.83876-.47746s-1.59603-1.13453-2.10187-2.07109c-.50623-.93659-.7128-2.06196-.61932-3.37566,.0972-1.36607,.48677-2.6894,1.1679-3.97006,.68154-1.28063,1.59396-2.30445,2.73727-3.07145,1.14329-.7666,2.3978-1.1019,3.76387-1.00471,1.56597,.11143,2.67288,.7806,3.31994,2.00707Zm-7.61995,6.25255c-.07428,1.04398,.08612,1.85989,.48162,2.44774,.3955,.58786,.94567,.90687,1.65052,.95702,.8175,.05816,1.56104-.21702,2.22942-.82526,.66837-.60823,1.19904-1.39889,1.59201-2.37236,.39256-.9731,.62218-1.9255,.68841-2.85644,.0328-.46091,.00803-.88046-.07435-1.25788-.08237-.37741-.22036-.71293-.41352-1.00693-.19361-.29324-.43523-.52252-.72488-.68744-.29005-.16495-.62645-.26105-1.00922-.28828-.76593-.0545-1.4765,.19433-2.13214,.74687-.65601,.5521-1.18312,1.29278-1.58132,2.22202-.39859,.92922-.6341,1.90273-.70655,2.92093Z" fill="#f4b545"/>
          </g>
        </g>
      </g>
    </g>
  </g>
</svg>
