<?xml version="1.0" encoding="UTF-8"?>
<svg id="b" data-name="レイヤー 2" xmlns="http://www.w3.org/2000/svg" width="474.45282" height="132.02016" viewBox="0 0 474.45282 132.02016">
  <g id="c" data-name="text">
    <g>
      <rect y="91.27016" width="474.45282" height="40.75" fill="#fff" opacity=".98"/>
      <g>
        <path d="M32.70184,107.4977c1.40723,.86084,2.33105,1.55371,3.54785,2.62451l-1.36426,1.86865c-1.25977-1.21777-2.09961-1.86865-3.61133-2.81348l1.42773-1.67969Zm3.52734,6.88672c-.58789,2.01562-1.61621,4.80811-2.43555,6.48779-.12598,.25195-.14746,.29395-.20996,.50391l-2.07812-1.6167c.25195-.31494,.46094-.65088,.71289-1.13379,.90332-1.72168,1.5332-3.35938,2.12109-5.47998l1.88965,1.23877Zm2.56152,4.93408c0,1.0918,.02148,1.57471,.08398,2.1416h-2.18359c.08398-.56689,.12598-1.19678,.12598-2.24658v-7.93652c0-1.00781-.02051-1.44873-.08398-2.07861,.67188,.08398,1.19629,.10498,2.05762,.10498h3.54883v-1.00781h-1.30273c-.71289,0-1.0918,.021-1.80469,.08398,.0625-.5459,.08398-1.0918,.08398-1.78467v-1.19678h-.81934c-.73535,0-1.44824,.021-1.99512,.08398l-1.07031,1.25977c-1.28125-1.32275-2.01562-1.93164-3.48535-2.87646l1.49121-1.5957c1.25977,.79785,2.12012,1.44873,3.02344,2.28857v-1.17578c.62891,.06299,1.32227,.10498,2.07812,.10498h.77734c0-.62988-.02148-.98682-.12695-1.55371h2.37305c-.0625,.50391-.08398,.81885-.08398,1.55371h4.00977c0-.67188-.02051-1.00781-.10449-1.55371h2.37207c-.08398,.56689-.10449,.96582-.10449,1.55371h.86035c.90332,0,1.5752-.04199,2.18359-.10498v2.12061c-.6084-.08398-1.28027-.10498-2.16211-.10498h-.88184v1.21777c0,.62988,.02051,1.0498,.06348,1.76367-.69336-.06299-1.13477-.08398-1.80664-.08398h-1.28027v1.00781h3.48535c1.00781,0,1.5957-.021,2.20508-.08398-.06348,.60889-.08398,1.13379-.08398,2.01562v8.12549c0,1.51172-.50391,1.91064-2.47852,1.91064-.39844,0-.71289-.021-1.38477-.04199-.08398-.88184-.14746-1.11279-.46289-2.03662,.56738,.10498,1.19727,.16797,1.5752,.16797,.6084,0,.79785-.14697,.79785-.60889v-1.23877c-.37793,.29395-.50391,.39893-.79785,.79785-.46191-.75586-.71387-1.46973-1.00781-2.81348-.16797,1.0918-.46191,1.86865-1.1123,3.02344-.31543-.37793-.54688-.56689-.94531-.79785v.83984c0,1.11279,.02148,1.74268,.10547,2.41455h-2.05859c.06348-.65088,.08398-1.21777,.08398-2.35156v-1.0708c-.33594,.33594-.44043,.46191-.73438,.90283-.62988-1.0918-.83984-1.76367-.94531-2.83447-.23047,1.28076-.54492,2.09961-1.1543,3.08643-.37793-.58789-.52539-.73486-.92383-1.00781v1.6167Zm0-2.09961c.71387-.98682,1.0918-2.03662,1.19727-3.46436h-.16797c-.25195,0-.35742,.021-.58789,.04199v-1.72168c.14648,.021,.31445,.04199,.6084,.04199h1.17578c.37793,0,.46191,0,.71387-.021q-.02148,.10498-.02148,.25195c0,.04199-.02051,.10498-.02051,.18896v.16797c0,1.34375,.29395,2.62451,.86035,3.86328v-5.41699h-3.75781v6.06787Zm2.6875-11.8208v1.13379h4.00977v-1.13379h-4.00977Zm2.93945,11.73682c.75586-1.13379,1.0498-1.99463,1.17578-3.35938h-.18945c-.31445,0-.41992,.021-.62891,.04199v-1.74268c.14648,.021,.31445,.04199,.65039,.04199h1.13379c.35645,0,.44043,0,.81934-.021-.04297,.23096-.04297,.29395-.04297,.62988,0,1.36475,.31543,2.6875,.94531,3.88428v-5.45898h-3.86328v5.98389Z" fill="#44c38b"/>
        <path d="M65.94305,119.46547h-2.83398v.58789c0,.65088,.02051,1.0708,.08398,1.53271h-2.18359c.08398-.48291,.10449-.90283,.10449-1.51172v-.60889h-3.21191c-.86133,0-1.30273,.021-1.86914,.10498v-1.82666c.5459,.08398,.98633,.10498,1.86914,.10498h3.21191v-.86084h-2.1416c-.81836,0-1.46973,.021-1.88965,.06299,.06348-.56689,.08398-.86084,.08398-1.46973v-2.72949c0-.60889-.02051-.90283-.08398-1.46973,.41992,.04199,.96582,.06299,1.88965,.06299h2.1416v-.83984h-2.75098c-.88086,0-1.25977,.021-1.88867,.08398v-1.78467c.6084,.08398,.96484,.10498,1.88867,.10498h2.75098v-.90283h-2.98145c-.96582,0-1.57422,.04199-2.18359,.12598v-2.05762c.56641,.08398,1.19727,.10498,2.18359,.10498h2.85547v-.90283h-1.95312c-.86035,0-1.36426,.021-1.91016,.10498v-1.93164c.52539,.08398,1.00781,.10498,1.91016,.10498h1.95312v-.10498c0-.67188-.02148-.96582-.10547-1.36475h2.37305c-.10547,.41992-.12598,.73486-.12598,1.46973h2.01562c.90332,0,1.36426-.021,1.88965-.10498v1.93164c-.5459-.08398-1.0293-.10498-1.88965-.10498h-2.01562v.90283h5.12305c-.04199-1.23877-.04199-1.49072-.06348-2.01562,0-.81885-.04102-1.46973-.10449-1.95264h2.41504c-.10547,.5249-.12695,.92383-.12695,1.53271,0,0,0,.33594,.02148,.73486v1.70068h2.45703c.94434,0,1.5957-.04199,2.16211-.10498v2.05762c-.60938-.10498-1.17578-.12598-2.16211-.12598h-2.43555c.08398,2.43555,.27246,4.59814,.52441,5.9209,.79785-1.49072,1.46973-3.33838,1.61621-4.51416l2.09961,.73486q-.08398,.20996-.23047,.60889c0,.021-.0625,.16797-.12598,.37793-.02051,.04199-.08398,.20996-.16797,.44092-.73535,1.99463-1.42773,3.38037-2.39355,4.89209,.46191,1.13379,1.19727,2.37256,1.40625,2.37256,.16797,0,.33594-.86084,.56738-2.81348,.67188,.65088,.94434,.83984,1.76367,1.23877-.41992,2.81348-1.13379,4.13623-2.22559,4.13623-.94531,0-1.93164-1.00781-2.93945-2.98145-.94531,1.13379-1.78516,1.93164-3.35938,3.17041-.60938-.73486-.83984-.94482-1.70117-1.55371,.4834-.29395,.67188-.44092,.9873-.65088l-.29395-.021Zm-4.8291-6.61377h-2.09961v.71387h2.09961v-.71387Zm0,1.97363h-2.09961v.77686h2.09961v-.77686Zm6.23535,3.7373c.81934-.75586,1.42773-1.38574,2.0791-2.24658-.65137-2.09961-.92383-4.11523-1.1123-8.20947h-5.20703v.90283h2.72852c.92383,0,1.34375-.021,1.84766-.10498v1.78467c-.54492-.06299-.98633-.08398-1.84766-.08398h-2.72852v.83984h2.30859c.81934,0,1.44922-.021,1.84766-.06299-.0625,.50391-.0625,.69287-.0625,1.46973v2.72949c0,.77686,0,.96582,.0625,1.46973-.52441-.04199-.96484-.06299-1.86816-.06299h-2.28809v.86084h2.39258c.90332,0,1.28125-.021,1.84766-.08398v.79785Zm-1.93164-4.99707v-.71387h-2.30859v.71387h2.30859Zm0,2.03662v-.77686h-2.30859v.77686h2.30859Zm7.51758-9.38525c-.69336-1.19678-1.15527-1.78467-2.0791-2.7085l1.49121-.94482c1.04883,1.02881,1.46875,1.55371,2.16211,2.62451l-1.57422,1.02881Z" fill="#44c38b"/>
        <path d="M82.53485,104.76821c0-1.0918-.04199-1.76367-.12598-2.41455h2.41504c-.10547,.67188-.12695,1.25977-.12695,2.43555v2.6875h.46289c.77637,0,1.07031-.021,1.40625-.08398v2.20459c-.44141-.06299-.81836-.08398-1.46973-.08398h-.39941v5.71094c.81934-.37793,1.05078-.48291,1.99512-.96582l.06348,2.22559c-1.91113,1.02881-3.04492,1.53271-5.18652,2.33057-.58789,.23096-.77637,.31494-1.0918,.46191l-.44043-2.41455c.62891-.08398,1.23828-.27295,2.49805-.75586v-6.59277h-.48242c-.79883,0-1.13477,.021-1.63867,.10498v-2.24658c.46289,.08398,.81934,.10498,1.63867,.10498h.48242v-2.7085Zm7.53711,13.37451c0,.41992,.14746,.56689,.60938,.65088,.5459,.10498,1.32227,.14697,2.85547,.14697,2.49805,0,3.16992-.10498,3.48535-.5459,.25195-.35693,.37793-1.0708,.37793-2.49854,.67188,.29395,1.57422,.56689,2.28906,.69287-.25195,4.19922-.69336,4.49316-6.67773,4.49316-4.24023,0-5.16406-.39893-5.16406-2.24658v-7.22266c-.18945,.06299-.33594,.10498-.41992,.12598-.63086,.20996-.86133,.29395-1.28125,.48291l-.52539-2.28857c.58789-.08398,1.32324-.23096,2.03711-.46191l.18945-.06299v-2.87646c0-1.00781-.02148-1.53271-.12695-2.22559h2.47852c-.08398,.67188-.12695,1.28076-.12695,2.1416v2.28857l2.03711-.65088v-3.65332c0-.96582-.02148-1.40674-.10547-2.09961h2.43555c-.08398,.69287-.125,1.36475-.125,2.1416v2.93945l3.02344-.94482c.81836-.25195,1.1543-.37793,1.7207-.62988-.04102,.92383-.0625,1.0708-.10449,2.20459-.10449,2.96045-.25195,4.87109-.46191,5.77393-.27344,1.19678-.83984,1.55371-2.37305,1.55371-.27246,0-.46094,0-.98633-.04199-.10547-.90283-.25195-1.51172-.56641-2.1626,.48242,.10498,.86035,.16797,1.17578,.16797,.52441,0,.65039-.08398,.73438-.5249,.10547-.69287,.18945-1.99463,.25195-4.03125l-2.41406,.75586v5.22803c0,.86084,.04102,1.44873,.125,2.09961h-2.43555c.08398-.71387,.10547-1.17578,.10547-2.1626v-4.45117l-2.03711,.65088v7.24365Z" fill="#44c38b"/>
        <path d="M112.85711,103.94936c0-.69287-.04102-1.23877-.14648-1.74268h2.70898c-.08398,.44092-.12695,.98682-.12695,1.74268v1.28076h5.77441c1.17578,0,1.93164-.04199,2.64551-.14697v2.54053c-.65039-.08398-1.30176-.12598-2.56152-.12598h-7.68457c-.10547,1.57471-.10547,1.6377-.16797,2.26758h5.81641c1.0918,0,1.67969-.021,2.16211-.10498,0,.10498,0,.16797-.02148,.20996-.04102,.31494-.04102,.56689-.08398,1.46973-.08398,3.14941-.35645,5.85791-.71289,7.36963-.4834,1.99463-1.17578,2.51953-3.27539,2.51953-.73535,0-1.21875-.021-2.83496-.14697-.08398-.96582-.25195-1.65869-.6084-2.43555,1.2168,.18896,2.18359,.27295,3.14844,.27295,.92383,0,1.13477-.23096,1.40723-1.67969,.25195-1.25977,.37793-2.58252,.46191-5.27002h-5.79492c-.88184,4.22021-2.77148,6.90771-6.74023,9.51123-.52441-.92383-.92383-1.38574-1.7002-1.99463,1.84766-1.15479,2.75098-1.88965,3.75879-3.10742,1.80469-2.1626,2.51953-4.59814,2.62402-8.88135h-3.44336c-1.0498,0-1.91113,.04199-2.62402,.12598v-2.54053c.75586,.10498,1.55273,.14697,2.62402,.14697h5.39551v-1.28076Z" fill="#44c38b"/>
        <path d="M132.36688,104.15932c.44141-.81885,.60938-1.30176,.79883-2.18359l2.35156,.41992q-.29492,.58789-.58789,1.21777c-.10547,.18896-.14746,.31494-.29492,.5459h1.32324c.88184,0,1.5752-.021,2.16309-.08398-.04297,.62988-.06348,1.11279-.06348,2.20459v4.55615c0,1.0708,0,1.49072,.04199,1.99463-.48242-.021-.94531-.04199-1.42773-.04199h-1.0918v4.09424l.12598-.021c.50391-1.32275,.75586-2.33057,1.00781-3.86328l1.53223,.39893c-.37695,1.34375-.75586,2.54053-1.02832,3.27539,.33594-.06299,.52441-.08398,1.0498-.20996-.23047-.60889-.25195-.65088-.52539-1.17578l1.21875-.48291c.50391,.94482,.83984,1.72168,1.32227,3.10742l-1.40625,.60889c-.06348-.29395-.14746-.5459-.21094-.73486-.69238,.18896-1.49023,.37793-3.08594,.67188v.12598c.02148,.23096,.0625,.31494,.14648,.37793,.27344,.18896,1.13477,.25195,3.7168,.25195,1.78516,0,4.03125-.06299,4.89258-.12598,.98633-.08398,1.51172-.35693,1.7002-.86084,.14746-.33594,.20996-.83984,.25195-1.78467,.86035,.41992,1.38574,.60889,2.1416,.73486-.16797,1.51172-.29395,2.05762-.62988,2.62451-.69238,1.19678-1.49121,1.32275-8.69238,1.32275-4.78711,0-5.4375-.27295-5.4375-2.22559l-.02148-6.10986h-.56641c-.12695,2.43555-.25195,3.29639-.67188,4.59814-.54688,1.65869-.9873,2.45654-2.20508,3.92627-.46191-.75586-.83984-1.15479-1.6582-1.76367,1.17578-1.00781,1.78418-2.01562,2.2041-3.59033,.27246-1.0918,.37793-1.80566,.41992-3.17041-.75586,0-1.13379,.021-1.67969,.04199,.04199-.58789,.06348-1.0498,.06348-1.99463v-4.57715c0-.94482-.02148-1.49072-.06348-2.18359,.6084,.06299,1.02832,.08398,2.09961,.08398h.77637Zm-.94434,3.46436h1.51172v-1.76367h-1.51172v1.76367Zm0,3.46436h1.51172v-1.80566h-1.51172v1.80566Zm3.19141-3.46436h1.5957v-1.76367h-1.5957v1.76367Zm0,3.46436h1.5957v-1.80566h-1.5957v1.80566Zm5.64746-.77686c-.90234,0-1.19629,.021-1.74219,.08398v-2.03662c.50391,.06299,.88184,.08398,1.74219,.08398h1.84766v-1.93164h-1.53223c-.81934,0-1.0918,.021-1.5957,.08398v-2.01562c.46191,.06299,.81934,.08398,1.5957,.08398h1.53223v-.83984c0-.62988-.02051-1.0498-.10449-1.55371h2.18359c-.06348,.50391-.08398,.88184-.08398,1.51172v.88184h1.65918c.69238,0,1.07031-.021,1.51172-.10498v2.03662c-.44141-.06299-.90332-.08398-1.5332-.08398h-1.6377v1.93164h1.91113c.83984,0,1.30078-.021,1.80469-.08398v2.05762c-.54492-.08398-.96484-.10498-1.80469-.10498h-1.44922c1.36523,2.01562,2.20508,2.85547,3.96875,4.03125-.50391,.5249-.79883,.98682-1.21875,1.82666-1.53223-1.36475-2.2041-2.20459-3.2959-4.05225,.04199,.67188,.06348,1.57471,.06348,2.20459v2.01562c0,.92383,.02051,1.44873,.10449,1.99463h-2.18359c.08398-.62988,.10449-.94482,.10449-1.95264v-1.88965c0-.46191,.02148-1.46973,.06348-2.1416-.73535,1.46973-1.36426,2.35156-2.33105,3.25439-.37695-.86084-.67188-1.32275-1.1123-1.78467,1.28027-1.0708,2.01562-1.97363,2.87598-3.50635h-1.34375Z" fill="#44c38b"/>
        <path d="M168.08563,106.32192c1.25977,0,1.99512-.021,2.70898-.10498q-.08398,.81885-.12598,3.17041c-.06348,2.87646-.27246,6.4248-.4834,7.81055-.27246,1.93164-.56641,2.6665-1.2168,3.12842-.54688,.39893-1.32324,.56689-2.49902,.56689-.96582,0-1.88965-.06299-3.21191-.23096-.12695-1.0708-.27344-1.67969-.58789-2.54053,1.34375,.27295,2.56055,.41992,3.61133,.41992,.98633,0,1.30078-.37793,1.53223-1.78467,.27246-1.57471,.46191-4.8291,.4834-8.18848h-5.69043c-.35645,3.10742-.92383,5.22803-1.91113,6.9917-1.2168,2.20459-3.12793,3.96826-6.04688,5.60596-.46094-.88184-1.00781-1.55371-1.74219-2.18359,2.87695-1.25977,4.78711-2.93945,5.9209-5.22803,.65137-1.28076,1.0498-2.89746,1.32324-5.18604h-3.6543c-1.07031,0-1.88867,.04199-2.60352,.12598v-2.51953c.75586,.10498,1.4707,.14697,2.66699,.14697h3.7373c.04199-.83984,.04199-1.0498,.04199-2.1416,0-1.00781-.04199-1.6167-.12598-2.03662h2.79297q-.10547,.5459-.23145,4.17822h5.31152Z" fill="#44c38b"/>
        <path d="M181.52801,115.5812c.02051-.44092,.04199-.65088,.04199-.90283q0-.23096-.0625-1.49072l-.29492-7.13867c-.04102-.92383-.10449-1.97363-.18848-2.56152h3.44336c-.06348,.56689-.14746,1.65869-.18848,2.56152l-.29492,7.13867q-.04102,1.21777-.04102,1.51172c0,.25195,0,.46191,.04102,.88184h-2.45605Zm-.29395,4.59814v-2.87646h3.04492v2.87646h-3.04492Z" fill="#44c38b"/>
        <path d="M203.82977,103.34047c-.12695,.86084-.16797,1.40674-.16797,2.7085v9.40625c0,1.46973-.39941,2.64551-1.13477,3.44336-.90234,.96582-2.30859,1.46973-4.07227,1.46973-1.89062,0-3.25488-.50391-4.2627-1.57471-.4834-.5249-.73535-.96582-1.19629-1.99463l2.77148-1.00781c.31445,.96582,.6084,1.38574,1.13281,1.72168,.37891,.25195,1.00781,.39893,1.5752,.39893,.75586,0,1.44824-.25195,1.82715-.67188,.33594-.37793,.50391-.98682,.50391-1.82666v-9.36426c0-1.25977-.04297-1.86865-.16797-2.7085h3.19141Z" fill="#44c38b"/>
        <path d="M220.81805,120.05336c-.04199-.50391-.39844-1.57471-1.0918-3.35938-1.13379-2.89746-1.86914-3.67432-3.48535-3.67432h-3.12793v4.2832c0,1.25977,.04102,1.93164,.16797,2.75049h-3.12891c.12598-.88184,.16797-1.44873,.16797-2.72949v-11.31689c0-1.11279-.04199-1.74268-.16797-2.72949,.88184,.04199,1.5332,.06299,2.6875,.06299h5.03906c3.19141,0,5.01758,1.5957,5.01758,4.36719,0,1.34375-.35645,2.39355-1.07031,3.12842-.58789,.60889-1.13379,.88184-2.33008,1.21777,1.32227,.41992,1.7207,1.00781,3.7998,5.9209,.16797,.37793,.69238,1.51172,.9873,2.07861h-3.46484Zm-3.48535-9.42725c.77637,0,1.51172-.27295,1.99512-.75586,.44043-.44092,.67188-1.0498,.67188-1.84766,0-1.51172-.86133-2.28857-2.58301-2.28857h-4.30371v4.89209h4.21973Z" fill="#44c38b"/>
        <path d="M237.2829,104.41127c0-1.0918-.02148-1.5957-.12695-2.28857h2.64648c-.08398,.65088-.12695,1.19678-.12695,2.20459v1.36475h5.75391c.92383,0,1.36426-.021,1.91016-.08398-.0625,.58789-.08398,1.02881-.08398,1.84766v6.40381c0,.94482,.02148,1.49072,.10547,2.09961h-2.47852v-1.25977h-5.20703v4.26221c0,1.25977,.04297,1.86865,.14746,2.60352h-2.6875c.10449-.77686,.14746-1.42773,.14746-2.60352v-4.26221h-4.95508v1.25977h-2.47852c.08398-.69287,.10547-1.21777,.10547-2.09961v-6.4248c0-.77686-.02148-1.15479-.08398-1.82666,.60938,.06299,1.0498,.08398,1.88965,.08398h5.52246v-1.28076Zm-4.95508,3.50635v4.55615h4.95508v-4.55615h-4.95508Zm12.55469,4.55615v-4.55615h-5.20703v4.55615h5.20703Z" fill="#44c38b"/>
        <path d="M264.62469,113.79653c.88086,1.30176,1.80469,2.24658,3.04395,3.08643,1.46973,1.00781,3.21191,1.76367,4.93457,2.1416-.50391,.79785-.69336,1.17578-1.23926,2.43555-2.09961-.67188-4.11523-1.80566-5.73145-3.19141-1.28125-1.0918-2.01562-2.01562-2.87695-3.52734-.71387,1.65869-1.5332,2.72949-2.93945,3.92627-1.57422,1.34375-2.91797,2.07861-5.35352,2.96045-.39941-1.02881-.63086-1.42773-1.28125-2.26758,2.16211-.58789,3.52734-1.23877,4.89258-2.28857,1.28027-.98682,2.09961-2.01562,2.66602-3.27539h-5.18555c-.9873,0-1.74316,.04199-2.39453,.12598v-2.45654c.69336,.08398,1.25977,.12598,2.33105,.12598v-4.87109c0-.75586-.02051-1.19678-.08398-1.70068,.67188,.08398,1.30176,.10498,2.22559,.10498h4.00977v-1.15479c0-.67188-.04102-1.17578-.125-1.78467h2.56055q-.125,.69287-.125,2.93945h4.17773c1.07031,0,1.6582-.021,2.22559-.10498-.06348,.5249-.08398,.90283-.08398,1.65869v4.91309c1.07129,0,1.61621-.04199,2.28809-.12598v2.45654c-.65039-.08398-1.40625-.12598-2.39258-.12598h-5.54297Zm-3.29688-2.20459c.16797-1.19678,.25195-2.35156,.29395-4.2832h-3.92676v4.2832h3.63281Zm6.74023,0v-4.2832h-4.13672c-.0625,2.05762-.14648,3.08643-.29395,4.2832h4.43066Z" fill="#44c38b"/>
        <path d="M277.64618,111.02504c.37793,.04199,.5459,.06299,.98633,.06299h.65137c.52441-.67188,.69238-.90283,1.15527-1.57471-1.13477-1.42773-1.65918-2.01562-2.83496-3.08643l1.0918-1.80566,.77637,.81885c.86133-1.36475,1.44922-2.64551,1.63867-3.50635l2.03613,.75586c-.12598,.18896-.23145,.39893-.46191,.88184-.52539,1.0708-1.19727,2.24658-1.91016,3.31738q.35645,.44092,.77637,.98682c.96582-1.49072,1.7002-2.79248,1.97363-3.54834l1.86914,1.00781c-.25195,.39893-.39941,.62988-.71484,1.13379-1.25977,1.97363-2.05664,3.12842-3.14844,4.53516,1.23828-.08398,1.7207-.12598,2.30859-.18896-.27246-.86084-.31445-.96582-.6084-1.67969l1.55371-.60889c.69336,1.65869,.90234,2.28857,1.32227,3.90527l-1.63672,.73486q-.06348-.27295-.12695-.60889-.88086,.10498-1.55273,.16797v6.63477c0,1.0918,.02051,1.55371,.125,2.20459h-2.26758c.08398-.71387,.12695-1.28076,.12695-2.22559v-6.4458c-.12695,.021-.39941,.021-.83984,.04199q-1.5957,.10498-2.05859,.18896l-.23047-2.09961Zm2.60352,3.08643c-.23047,3.67432-.37793,4.74512-.86133,6.40381l-1.76367-.90283c.50391-1.55371,.65137-2.56152,.81934-5.71094l1.80566,.20996Zm4.47266-.37793c.41992,1.86865,.52441,2.58252,.69238,4.17822l-1.65918,.46191c-.10449-1.78467-.20898-2.6875-.52441-4.24121l1.49121-.39893Zm1.80469,1.11279c-.56641,0-.81836,.021-1.2168,.08398v-2.09961c.37695,.06299,.58789,.08398,1.28027,.08398h1.42773c.4834,0,.73535-.021,.9873-.06299l.75586,.98682c-.08398,.20996-.10547,.27295-.18945,.56689-.52539,1.6377-.94531,2.56152-1.72168,3.71631-.71387,1.02881-1.17578,1.57471-2.41504,2.7085-.31445-.60889-.73438-1.0708-1.42773-1.67969,1.67969-1.19678,2.73047-2.51953,3.44336-4.3042h-.92383Zm5.56445-3.35938c.23047,.98682,.48242,1.6167,1.0293,2.60352,.88086-.73486,1.49023-1.38574,2.24609-2.35156l1.49023,1.34375c-1.04883,1.13379-1.82617,1.84766-2.72852,2.58252,1.04883,1.38574,1.91016,2.20459,3.25391,3.08643-.56641,.60889-.88184,1.0918-1.34375,2.07861-1.00781-.81885-1.5332-1.34375-2.20508-2.24658-.90234-1.15479-1.38477-2.01562-2.09961-3.82129,.12695,1.28076,.18945,2.18359,.18945,2.83447l.02148,1.82666c.02051,1.34375-.67188,1.86865-2.51953,1.86865-.02148,0-.08398,0-.12695-.021h-.54492c-.35742,0-.37891,0-.71484-.04199-.125-.94482-.25195-1.44873-.56641-2.12061,.73438,.12598,1.21777,.18896,1.72168,.18896,.52441,0,.65137-.10498,.65137-.50391v-7.30664h-1.76367c-.73535,0-1.49121,.021-2.0791,.08398,.06348-.5459,.08398-1.23877,.08398-2.03662v-3.80029c0-.77686-.02051-1.49072-.08398-2.05762,.5459,.06299,1.02832,.08398,2.03613,.08398h1.19727c.31445-.83984,.44141-1.25977,.56641-1.84766l2.35156,.33594c-.25195,.67188-.39844,1.00781-.62891,1.51172h2.33008c1.0498,0,1.51172-.021,2.03711-.08398-.06348,.62988-.08398,1.0918-.08398,2.09961v3.7793c0,.94482,.02051,1.46973,.08398,2.01562-.58789-.06299-1.28125-.08398-1.99512-.08398h-1.80566Zm-3.88477-4.68213h5.45898v-1.32275h-5.45898v1.32275Zm0,2.96045h5.45898v-1.32275h-5.45898v1.32275Z" fill="#44c38b"/>
        <path d="M303.03485,107.4977c1.57422,.88184,2.05762,1.21777,3.65332,2.47754l-1.32324,1.91064c-1.36426-1.28076-1.97266-1.72168-3.63184-2.6875l1.30176-1.70068Zm3.94727,7.26465c-1.07031,2.79248-1.91016,4.57715-3.12891,6.59277l-1.99414-1.80566c.29395-.27295,.46191-.48291,.77734-.94482,.98633-1.46973,1.57422-2.72949,2.45605-5.22803l1.88965,1.38574Zm-2.75-12.40869c1.51172,.94482,2.26758,1.51172,3.73633,2.81348l-1.42773,1.82666c-1.49023-1.44873-2.26758-2.07861-3.73633-3.00244l1.42773-1.6377Zm13.47852,9.21729c.65137,0,1.07129-.021,1.51172-.06299-1.84766-2.22559-3.27539-4.91309-4.51367-8.41943l2.20508-.88184c.35645,1.30176,.81836,2.49854,1.44824,3.71631,.94434,1.82666,1.91113,3.10742,3.21191,4.24121-.69238,.5249-1.1543,1.00781-1.84766,1.93164l-.29297-.33594c-.04297,.46191-.06348,.96582-.06348,1.74268v5.45898c0,1.15479,.02051,1.74268,.10449,2.43555h-2.39258v-1.0708h-6.38281v1.0708h-2.37305c.08398-.77686,.10547-1.42773,.10547-2.35156v-5.58496c0-.79785-.02148-1.25977-.06348-1.74268-.46191-.50391-1.00781-.90283-1.76367-1.30176,1.65918-1.49072,2.51953-2.79248,3.37988-5.06006,.41992-1.0918,.67188-2.05762,.83984-3.08643l2.24707,.79785c-.69238,2.6875-.96582,3.48535-1.72168,5.01807-.67188,1.36475-1.36523,2.39355-2.33008,3.46436,.41992,.021,.65039,.021,1.19629,.021h7.49512Zm-7.01172,6.61377h6.38281v-4.51416h-6.38281v4.51416Z" fill="#44c38b"/>
        <path d="M326.36688,111.02504c.37695,.04199,.54492,.06299,.98633,.06299h.65039c.52539-.67188,.69336-.90283,1.15527-1.57471-1.13379-1.42773-1.65918-2.01562-2.83496-3.08643l1.0918-1.80566,.77734,.81885c.86133-1.36475,1.44922-2.64551,1.6377-3.50635l2.03613,.75586c-.125,.18896-.23047,.39893-.46094,.88184-.52539,1.0708-1.19727,2.24658-1.91113,3.31738q.35645,.44092,.77637,.98682c.9668-1.49072,1.70117-2.79248,1.97461-3.54834l1.86816,1.00781c-.25195,.39893-.39941,.62988-.71387,1.13379-1.25977,1.97363-2.05762,3.12842-3.14941,4.53516,1.23926-.08398,1.72168-.12598,2.30957-.18896-.27344-.86084-.31445-.96582-.60938-1.67969l1.55469-.60889c.69238,1.65869,.90234,2.28857,1.32227,3.90527l-1.6377,.73486q-.06348-.27295-.12598-.60889-.88184,.10498-1.55371,.16797v6.63477c0,1.0918,.02051,1.55371,.12598,2.20459h-2.26758c.08398-.71387,.12598-1.28076,.12598-2.22559v-6.4458c-.12598,.021-.39941,.021-.83984,.04199q-1.5957,.10498-2.05762,.18896l-.23047-2.09961Zm2.60352,3.08643c-.23145,3.67432-.37891,4.74512-.86133,6.40381l-1.76367-.90283c.50391-1.55371,.65039-2.56152,.81836-5.71094l1.80664,.20996Zm4.47168-.37793c.41992,1.86865,.52441,2.58252,.69238,4.17822l-1.6582,.46191c-.10547-1.78467-.20996-2.6875-.52539-4.24121l1.49121-.39893Zm1.80566,1.11279c-.56641,0-.81836,.021-1.21777,.08398v-2.09961c.37793,.06299,.58789,.08398,1.28027,.08398h1.42773c.4834,0,.73535-.021,.9873-.06299l.75586,.98682c-.08398,.20996-.10449,.27295-.18848,.56689-.52539,1.6377-.94531,2.56152-1.72266,3.71631-.71289,1.02881-1.17578,1.57471-2.41406,2.7085-.31445-.60889-.73438-1.0708-1.42773-1.67969,1.67969-1.19678,2.72949-2.51953,3.44336-4.3042h-.92383Zm5.56445-3.35938c.23047,.98682,.48242,1.6167,1.02832,2.60352,.88184-.73486,1.49121-1.38574,2.24707-2.35156l1.49023,1.34375c-1.0498,1.13379-1.82617,1.84766-2.72949,2.58252,1.0498,1.38574,1.91113,2.20459,3.25488,3.08643-.56738,.60889-.88281,1.0918-1.34375,2.07861-1.00781-.81885-1.5332-1.34375-2.20508-2.24658-.90234-1.15479-1.38574-2.01562-2.09961-3.82129,.12598,1.28076,.18945,2.18359,.18945,2.83447l.02051,1.82666c.02051,1.34375-.67188,1.86865-2.51953,1.86865-.02051,0-.08398,0-.12598-.021h-.5459c-.35645,0-.37793,0-.71387-.04199-.12598-.94482-.25195-1.44873-.56641-2.12061,.73438,.12598,1.2168,.18896,1.7207,.18896,.52539,0,.65137-.10498,.65137-.50391v-7.30664h-1.76367c-.73535,0-1.49121,.021-2.0791,.08398,.06348-.5459,.08398-1.23877,.08398-2.03662v-3.80029c0-.77686-.02051-1.49072-.08398-2.05762,.54688,.06299,1.0293,.08398,2.03711,.08398h1.19727c.31445-.83984,.44043-1.25977,.56641-1.84766l2.35156,.33594c-.25195,.67188-.39844,1.00781-.62988,1.51172h2.33105c1.04883,0,1.51172-.021,2.03613-.08398-.06348,.62988-.08398,1.0918-.08398,2.09961v3.7793c0,.94482,.02051,1.46973,.08398,2.01562-.58789-.06299-1.28027-.08398-1.99512-.08398h-1.80469Zm-3.88477-4.68213h5.45898v-1.32275h-5.45898v1.32275Zm0,2.96045h5.45898v-1.32275h-5.45898v1.32275Z" fill="#44c38b"/>
        <path d="M357.36102,117.76479c-1.46973,1.51172-3.06543,2.64551-5.12305,3.59033-.41992-.73486-.88184-1.30176-1.46973-1.78467,2.03613-.71387,3.48535-1.5957,4.74512-2.91846l1.84766,1.11279Zm-2.43555-8.5874c-.92383,0-1.49023,.021-2.16211,.08398,.0625-.5459,.08398-1.0708,.08398-1.82666v-2.96045c0-.77686-.02148-1.28076-.08398-1.80566,.67188,.06299,1.1543,.08398,2.24609,.08398h10.51953c.98633,0,1.53223-.021,2.22461-.08398-.0625,.5249-.08398,.96582-.08398,1.80566v2.96045c0,.83984,.02148,1.25977,.08398,1.80566-.58789-.04199-1.17578-.06299-1.93164-.06299h-4.59766v.86084h6.34082c.90332,0,1.5752-.04199,2.22559-.12598v1.93164c-.67188-.06299-1.38574-.10498-2.22559-.10498h-14.5293c-.81934,0-1.51172,.04199-2.2041,.10498v-1.93164c.67188,.08398,1.36426,.12598,2.2041,.12598h5.94238v-.86084h-4.05273Zm.58789,7.47461c-.83984,0-1.5332,.021-2.22559,.08398,.06348-.50391,.08398-.88184,.08398-1.5957v-1.13379c0-.65088-.02051-1.0708-.08398-1.5957,.65137,.06299,1.32324,.08398,2.22559,.08398h9.55273c.90332,0,1.5752-.021,2.22656-.08398-.06348,.50391-.08398,.90283-.08398,1.5957v1.19678c0,.69287,.02051,1.0708,.08398,1.53271-.75586-.06299-1.34375-.08398-2.22656-.08398h-3.52734v2.91846c0,1.53271-.54492,1.88965-3.00195,1.88965-.27344,0-.90234-.021-1.6582-.04199-.04297-.75586-.16797-1.30176-.46289-2.03662,.75586,.10498,1.42773,.14697,2.0791,.14697,.62988,0,.77637-.10498,.77637-.58789v-2.28857h-3.75781Zm-.50391-11.37988h10.49805v-.92383h-10.49805v.92383Zm0,2.37256h10.49805v-.94482h-10.49805v.94482Zm.52539,6.40381v1.00781h9.49023v-1.00781h-9.49023Zm9.32227,2.60352c1.57422,1.40674,2.70801,2.05762,4.93359,2.85547-.69336,.67188-1.07031,1.17578-1.44922,1.88965-2.2041-1.02881-3.42188-1.86865-5.12305-3.52734l1.63867-1.21777Z" fill="#44c38b"/>
        <path d="M374.68719,120.51528c.81836-1.15479,1.07031-1.78467,1.40625-3.35938l1.76367,.50391c-.41992,1.88965-.67188,2.62451-1.36426,3.92627l-1.80566-1.0708Zm2.66602-7.07568c-1.00781,0-1.28027,.021-1.86816,.08398v-2.03662c.5459,.08398,.9873,.10498,1.88965,.10498h1.72168v-1.00781h-1.74316c-.79688,0-1.30078,.021-1.86816,.08398,.06348-.56689,.08398-1.0918,.08398-1.91064v-4.2832c0-.79785-.02051-1.21777-.08398-1.82666,.65137,.08398,1.07129,.10498,1.82715,.10498h5.33203c.73535,0,1.25977-.021,1.89062-.10498-.06348,.58789-.08398,1.0498-.08398,1.78467v4.43018c0,.88184,.02051,1.25977,.0625,1.78467-.50391-.04199-.96582-.06299-1.84766-.06299h-1.6582v1.00781h1.57422c.96582,0,1.40625-.021,1.91016-.08398v1.99463c-.58789-.04199-1.17578-.06299-1.93164-.06299h-1.55273v1.11279q.73438-.06299,3.65234-.39893v1.80566q-4.74414,.65088-8.35547,.98682c-.31543,.021-.69336,.08398-1.0918,.14697l-.29492-2.28857c.25195,.021,.4834,.021,.75586,.021,1.00781,0,1.21875,0,3.42285-.14697v-1.23877h-1.74316Zm-.02051-8.86035v.88184l1.1123-.41992c.39941,1.02881,.56738,1.65869,.73535,2.7085v-3.17041h-1.84766Zm1.84766,3.33838l-1.15527,.46191c-.16797-1.23877-.25195-1.6167-.69238-2.75049v3.14941h1.84766v-.86084Zm-.69238,13.4375c.02051-.62988,.02051-.94482,.02051-1.23877,0-.96582-.04199-1.57471-.20996-2.60352l1.70117-.23096c.25195,1.25977,.33594,2.05762,.37695,3.80029l-1.88867,.27295Zm2.64453-.67188c-.08398-1.38574-.23047-2.28857-.56641-3.40137l1.55371-.29395c.44043,1.36475,.5459,1.88965,.75586,3.25439l-1.74316,.44092Zm-.20898-12.84961c.50391-1.25977,.6084-1.74268,.75586-2.79248l1.0918,.39893v-.86084h-1.84766v3.25439Zm0,.94482h1.84766v-3.10742c-.21094,1.0918-.37891,1.67969-.79883,2.6665l-1.04883-.39893v.83984Zm2.75,11.04395c-.16797-.96582-.25195-1.23877-.83984-2.85547l1.42773-.33594c.41992,.88184,.71387,1.6377,.96582,2.62451l-1.55371,.56689Zm8.25195-8.52441c.69238,0,1.2168-.021,1.76367-.08398-.06348,.69287-.08398,1.30176-.08398,2.18359v5.29102c0,1.19678,.04102,1.97363,.125,2.7085h-2.28809v-1.0918h-4.01074v1.0708h-2.24609c.08398-.58789,.10547-1.21777,.10547-2.56152v-5.75293c0-.88184-.02148-1.36475-.06348-1.84766,.52441,.06299,.9873,.08398,1.82715,.08398h.75586v-6.67676c0-1.13379-.02148-1.67969-.12695-2.37256h2.51953c-.10449,.67188-.125,1.19678-.125,2.37256v1.13379h2.28809c.90332,0,1.36426-.021,1.88965-.10498v2.43555c-.58789-.08398-1.0293-.10498-1.88965-.10498h-2.28809v3.31738h1.84766Zm-4.49414,6.78174h4.01074v-4.68213h-4.01074v4.68213Z" fill="#44c38b"/>
        <path d="M399.40399,110.1642c.5459,.08398,.90234,.10498,1.67969,.10498h1.6377c.58789,0,1.0918-.021,1.5957-.10498-.06348,.65088-.08398,1.15479-.08398,2.28857v4.36719c.94434,1.55371,2.1416,2.01562,5.31152,2.01562,4.1582,0,6.9082-.12598,9.5332-.41992-.39941,1.19678-.46289,1.53271-.63086,2.58252-4.49219,.12598-5.05957,.12598-7.43164,.12598-3.46484,0-4.68262-.12598-5.8584-.65088-.79785-.35693-1.42773-.86084-2.0791-1.67969-.69238,.67188-.88086,.83984-2.12012,1.76367-.41992,.31494-.56738,.44092-.94434,.75586l-1.0293-2.39355c.69336-.27295,2.18359-1.30176,3.04492-2.07861v-4.51416h-1.21875c-.56641,0-.86035,.021-1.40625,.10498v-2.26758Zm1.88965-7.74756c1.51172,1.32275,2.62402,2.47754,3.63184,3.80029l-1.74219,1.70068c-1.28125-1.74268-1.95312-2.49854-3.56934-3.92627l1.67969-1.57471Zm8.48242,.48291c-.23145,.41992-.23145,.44092-1.13379,2.85547q-.50391,1.30176-1.84766,4.11523c1.23828,2.24658,2.12109,4.2832,3.14941,7.32764l-2.35156,.69287c-.86035-3.08643-1.65918-5.10205-3.19141-8.0835,.77637-1.49072,1.1123-2.26758,1.82715-4.13623,.65039-1.70068,.92383-2.60352,1.04883-3.44336l2.49902,.67188Zm2.18359,14.76025c-1.13379-3.61133-1.78418-5.16504-3.27539-7.87354,.86035-1.55371,1.42773-2.85547,2.0791-4.64014,.50391-1.40674,.71289-2.1626,.83984-2.85547l2.43555,.71387c-.12695,.25195-.14746,.29395-.39941,.96582-.92383,2.33057-1.7002,4.05225-2.66699,5.77393,1.67969,3.06543,2.35156,4.53516,3.31836,7.20166l-2.33105,.71387Zm6.53027-14.69727c-.14746,.25195-.25195,.50391-.41992,.90283-.88281,2.22559-1.23926,3.00244-2.75098,5.8999,1.7002,2.77148,2.64551,4.59814,3.6748,7.07568l-2.39453,.81885c-.6084-1.72168-.92383-2.47754-1.6582-4.09424-.77734-1.67969-1.13379-2.37256-2.03711-3.84229,1.19727-2.18359,1.99512-4.01025,2.79297-6.36182,.14648-.44092,.23047-.75586,.29395-1.15479l2.49902,.75586Z" fill="#44c38b"/>
        <path d="M426.30438,110.58413c-.04102,.39893-.0625,.60889-.0625,1.30176-.02148,2.39355-.04199,3.14941-.18945,4.61914-.16797,1.65869-.33594,2.45654-.77637,3.67432-.6084-.50391-.94434-.69287-1.72168-1.00781,.60938-1.49072,.88184-3.38037,.88184-6.29883,0-1.11279-.02051-1.84766-.08398-2.28857h1.95215Zm-.44043-1.46973c-.90332,0-1.0918,.021-1.97363,.12598v-2.28857c.62988,.10498,1.11328,.12598,2.09961,.12598h3.19141c.96582,0,1.46973-.021,2.01562-.12598v2.26758c-.73438-.08398-.94531-.10498-1.86914-.10498h-.6084v10.18311c0,1.13379,.02051,1.5957,.12598,2.26758h-2.1416c.10449-.73486,.12598-1.15479,.12598-2.26758v-10.18311h-.96582Zm-1.30176-6.27783c.5459,.08398,.90234,.10498,2.03711,.10498h2.14062c1.13477,0,1.49121-.021,2.03711-.10498v2.20459c-.56641-.06299-.96582-.08398-2.03711-.08398h-2.16211c-1.0918,0-1.46973,.021-2.01562,.10498v-2.22559Zm4.68164,16.35596c.08398-.50391,.10547-.83984,.10547-1.6377v-5.20703c0-.96582-.02148-1.28076-.08398-1.76367h1.86914c-.06348,.48291-.08398,.83984-.08398,1.76367v5.20703c0,.88184,.02051,1.13379,.08398,1.6377h-1.89062Zm4.83008-2.01562c-.71484,0-1.25977,0-1.5752,.021,.02051-.44092,.04199-.73486,.04199-1.42773v-1.21777c0-.77686,0-.98682-.04199-1.44873,.46191,.021,.90332,.04199,1.55371,.04199h6.25684c.67188,0,1.0498,0,1.53223-.04199-.04102,.41992-.04102,.65088-.04102,1.40674v1.23877c0,.73486,0,1.00781,.04102,1.44873-.69238-.021-.83984-.021-1.53223-.021h-1.17578l1.49121,.37793c-.4834,1.02881-.56738,1.17578-.73535,1.49072h1.1123c.86133,0,1.5752-.04199,2.16309-.10498v2.05762c-.62988-.06299-1.51172-.10498-2.43555-.10498h-6.9707c-.96582,0-1.61621,.04199-2.30957,.10498v-2.03662c.5459,.06299,.94531,.08398,1.99414,.08398h1.13477c-.16797-.50391-.39941-.94482-.67188-1.40674l1.40625-.46191h-1.23828Zm-2.51953-6.67676c.37695,.06299,1.02832,.08398,1.97266,.08398h7.41211c.83984,0,1.61719-.04199,2.05762-.10498v1.95264c-.5459-.06299-1.23926-.10498-2.05762-.10498h-7.39062c-.86133,0-1.51172,.021-1.99414,.08398v-1.91064Zm8.88086-6.94971c.77734,0,1.38574-.04199,1.95312-.10498-.06348,.56689-.08398,1.0918-.08398,1.99463v2.54053c0,.75586,.02051,1.28076,.08398,1.88965-.46289-.04199-.90332-.06299-1.78516-.06299h-7.11719c-.56738,0-1.0918,.021-1.5752,.06299,.04199-.62988,.06348-1.00781,.06348-1.88965v-2.54053c0-.83984-.02148-1.38574-.08398-1.99463,.65039,.08398,1.19629,.10498,1.93164,.10498h.96484c-.02051-.92383-.02051-1.0498-.08398-1.42773h1.86914c-.0625,.35693-.08398,.67188-.08398,1.21777v.20996h1.17578v-.20996c0-.56689-.02148-.88184-.10547-1.21777h1.89062c-.06348,.37793-.08398,.62988-.08398,1.42773h1.07031Zm-6.74023,1.53271v.92383h1.0918v-.92383h-1.0918Zm0,2.30957v.94482h1.0918v-.94482h-1.0918Zm.90332,8.33545h5.10254v-1.13379h-5.10254v1.13379Zm1.0498,1.44873c.27344,.46191,.56641,1.21777,.75586,1.86865h1.5332c.31445-.60889,.41992-.86084,.79688-1.86865h-3.08594Zm.83984-11.16992h1.17578v-.92383h-1.17578v.92383Zm0,2.33057h1.17578v-.94482h-1.17578v.94482Zm2.87695-2.33057h1.19629v-.92383h-1.19629v.92383Zm0,2.33057h1.19629v-.94482h-1.19629v.94482Z" fill="#44c38b"/>
      </g>
      <rect width="427.11677" height="75.82553" fill="#fff" opacity=".98"/>
      <g>
        <g>
          <path d="M84.22849,53.37384l.52514-1.51893,.52405-1.519,.52898-1.51632,.52913-1.51707,.53713-1.51704,.52143-1.52218,.53111-1.51731,.5292-1.51915,.52028-1.52419,.53159-1.51837,.53037-1.52078,.52753-1.52082,.53871-1.51854,.51513-1.52192,.53679-1.51443,.53227-1.52163,.5225-1.52221,.52936-1.52212,.53539-1.52194,.52755-1.52223,.52393-1.52749,.52935-1.52836,.53976-1.52201,1.85454-.01046,1.85978,.00695,1.86314-.00528,.52427,1.52562,.52382,1.51908,.5345,1.5144,.52714,1.51776,.52475,1.52134,.52859,1.51969,.53095,1.51737,.52354,1.52112,.52967,1.52093,.53664,1.51661,.52359,1.52314,.5265,1.52117,.53407,1.52015,.52583,1.5182,.52948,1.51698,.5315,1.5219,.52996,1.51962,.53234,1.52108,.52646,1.52505,.52447,1.52331,.53505,1.52362,.53482,1.52646,.52769,1.53135-1.55725,.00363-1.55851-.00705-1.56102,.00248-1.55772-.0053-.48532-1.44196-.47326-1.4472-.46657-1.45315-.47746-1.45216-.4829-1.45081-1.57696,.00688-1.57394-.00184-1.57606-.00991-1.57783,.00402-1.57559,.00159-1.57927,.00046-1.58182,.00264-1.58334-.00542-.46991,1.45224-.48544,1.44319-.46863,1.45247-.48611,1.44932-.47419,1.4498-1.56432,.00786-1.57116-.00977-1.5737,.00617-1.57149-.00131Zm10.28644-12.31568l1.55423-.00289,1.55374-.00406,1.55153,.00148,1.55516,.00137,1.55767,.00894,1.55661-.00701-.51345-1.56564-.5173-1.57117-.52601-1.56542-.51475-1.57147-.51717-1.57263-.519-1.56955-.50947-1.57676-.53251-1.57198-.5131-1.58088-.52141,1.56659-.51177,1.57299-.5171,1.56836-.52325,1.56867-.51672,1.57278-.51109,1.57216-.51689,1.57432-.5299,1.57284-.51803,1.57896Z" fill="#44c38b"/>
          <path d="M133.19552,34.36375l-.9685-1.06524-1.25831-.69032-1.42273-.21533-1.62583,.27069-1.40385,.85478-.97786,1.3264-.50875,1.57114-.14863,1.64984-.0031,1.69483,.00576,1.70044,.00109,1.69763-.00772,1.69991,.00094,1.70183-.00021,1.6994,.00062,1.70338,.00493,1.70612-.00439,1.7028-1.80302,.00436-1.80908,.00181-1.80569-.00647-.00015-1.68524-.00429-1.68699-.00052-1.68896,.00437-1.68802-.00359-1.68962,.0041-1.68485-.00787-1.68489,.00357-1.69046,.00328-1.68767-.0044-1.68994,.00206-1.69184-.0035-1.68943,.00178-1.69339-.00212-1.69612,.00134-1.69877,1.77494,.00043,1.77525,.00107,1.77232,.00343,.00167,2.2792,1.08246-1.2344,1.38632-.87722,1.56836-.48742,1.64189-.13391,1.67002,.12233,1.61697,.42712,1.48277,.77032,1.2624,1.09553,1.01503,1.33192-1.43814,1.00852-1.43529,1.01699-1.43673,1.01431Z" fill="#44c38b"/>
          <path d="M160.27069,49.51972l-1.02219,1.44512-1.31119,1.17752-1.54394,.84477-1.68694,.51819-1.7459,.25907-1.76826,.07177-1.6418-.0898-1.61937-.27212-1.5651-.49699-1.46933-.73028-1.32265-.97159-1.12574-1.19349-.8955-1.3736-.67434-1.49432-.44861-1.57767-.2641-1.62026-.07499-1.64134,.00115-1.72362-.004-1.72362,.06673-1.59083,.19377-1.57885,.36008-1.54824,.55355-1.48949,.77839-1.38584,1.02981-1.20799,1.23534-.99545,1.40658-.73432,1.51392-.47917,1.56605-.26669,1.58906-.0774,1.61415,.07832,1.58945,.27592,1.53262,.50098,1.41783,.76547,1.23543,1.03227,1.00249,1.26067,.75333,1.42431,.52574,1.52278,.33383,1.57853,.18365,1.60381,.04751,1.61544,.00483,1.39409,.00259,1.39793-1.68119-.00107-1.68355-.00738-1.68077,.00745-1.68303,.002-1.68492-.00811-1.68252,.00324-1.68646,.00057-1.68918,.0031-1.68933-.00613-.00372,.1039,.10603,1.6938,.35638,1.65509,.71657,1.53105,1.15158,1.23089,1.52113,.723,1.67789,.21234,1.52096-.09143,1.47227-.3866,1.27387-.82297,.95401-1.18144,1.35311,.94068,1.34764,.95389,1.35931,.94017Zm-14.75441-11.66155l1.60926,.00225,1.61285,.00455,1.61055-.00236,1.61432-.00255,1.61692-.00225,1.61531,.00084-.20314-1.65532-.52154-1.58159-.98748-1.329-1.45399-.78491-1.6482-.21644-1.64121,.23276-1.44395,.80239-.9943,1.32369-.55348,1.56469-.23194,1.64324Z" fill="#44c38b"/>
          <path d="M175.27186,38.41701l1.82302-.00077,1.82596,.00217,1.82316-.00024-.00081-2.12671-.12324-1.51749-.61413-1.37679-1.26286-.81482-1.49037-.28699-1.52447-.06223-1.53717,.05473-1.50943,.27732-1.31593,.76222-.95942,1.18596-1.30139-.90685-1.30146-.91354-1.29743-.9164,.918-1.27291,1.15599-1.06402,1.34792-.80419,1.47273-.53795,1.54112-.31804,1.56461-.16291,1.57669-.04156,1.7142,.05108,1.70818,.18957,1.66877,.39832,1.56631,.68947,1.34296,1.0541,.99147,1.38923,.60556,1.59913,.30828,1.6832,.08145,1.71299,.00446,1.70143-.00659,1.69729,.00034,1.7029,.00623,1.70009-.00864,1.70237,.00613,1.70429,.00174,1.70186-.0021,1.70585-.00226,1.7086,.00379,1.71225-1.77592,.00151-1.77525-.01007-1.77122,.00184-.00905-2.32795-1.06529,1.33592-1.43792,.9194-1.65676,.42422-1.71553,.10794-1.69894-.09209-1.66932-.32081-1.5956-.58475-1.44553-.88894-1.17876-1.21945-.83342-1.47642-.46628-1.63197-.13941-1.69405,.1565-1.70668,.50655-1.63294,.91811-1.43925,1.28342-1.12527,1.51868-.78085,1.64108-.48629,1.6945-.25407,1.71397-.08098Zm5.47287,4.16338l-1.68591,.00144-1.6907-.00217-1.6907,.00153-1.60417,.1179-1.52419,.49781-1.08132,1.15678-.3052,1.56966,.31081,1.49936,1.02706,1.12522,1.43785,.53298,1.53636,.14072,1.75945-.13515,1.65614-.58285,1.18635-1.278,.53876-1.66906,.1367-1.76247-.00728-1.21371Z" fill="#44c38b"/>
          <path d="M227.53744,42.27329l-.06543,1.63283-.2264,1.61676-.39969,1.58431-.61045,1.51271-.8379,1.39888-1.07291,1.22719-1.28944,.99657-1.44843,.74524-1.55644,.48781-1.60849,.27149-1.6322,.08568-1.63164-.0918-1.60854-.27334-1.5532-.50189-1.44815-.75093-1.28718-1.00049-1.08766-1.21456-.84854-1.39227-.62502-1.50587-.41309-1.57878-.22462-1.61718-.07158-1.63235,.005-1.59683-.00742-1.59683,.0732-1.63382,.21327-1.61999,.40372-1.58308,.61555-1.51201,.85468-1.39053,1.08683-1.21549,1.2986-.98566,1.45548-.73414,1.55866-.4814,1.60936-.27134,1.63228-.08008,1.63017,.0771,1.60678,.2741,1.55593,.48467,1.4513,.73921,1.29231,.98862,1.08721,1.21156,.83917,1.39501,.60727,1.50978,.39681,1.58055,.21761,1.61582,.066,1.63111-.00864,1.59683,.00586,1.59683Zm-5.37478-.15204l-.00275-1.47011,.0061-1.47011-.095-1.65774-.33433-1.62499-.68712-1.50504-1.12871-1.20121-1.48957-.7025-1.64161-.19985-1.65115,.19701-1.49998,.70125-1.13466,1.20276-.70232,1.50304-.33864,1.62449-.09587,1.66279-.0012,1.47011-.00327,1.47011,.09794,1.68952,.32443,1.65618,.68054,1.54078,1.13406,1.2364,1.51539,.71899,1.67473,.20336,1.65472-.21763,1.48202-.75792,1.1112-1.2387,.67573-1.52547,.34643-1.63429,.10288-1.67124Z" fill="#44c38b"/>
          <path d="M234.73627,28.02952l-.00539-1.57278,.0723-1.69234,.26134-1.67097,.56462-1.59219,.99551-1.35678,1.4031-.92952,1.60359-.52632,1.67504-.22329,1.69172-.07573,1.57146,.0068-.00602,1.62036,.00312,1.62309,.00086,1.62154-1.1638,.00314-1.56375,.19866-1.23189,.92275-.42679,1.50509-.07577,1.5795,.00279,.55842,1.48572-.00452,1.48783-.00054,1.48773,.00439-.00489,1.5529,.00404,1.55549-.00344,1.5513-1.48105,.00353-1.48783,.00638-1.49104-.00873,.00019,1.59295-.00186,1.58906,.00153,1.59056-.00185,1.58607,.00434,1.58611,.00218,1.59136-.00374,1.58873-.0022,1.59086-.00076,1.59266,.00052,1.59039,.00227,1.59411-.00399,1.59668,.011,1.60164-1.7937,.0005-1.79217-.00753-1.79337,.00343,.00599-1.59131-.00195-1.58906-.00939-1.59056,.0063-1.58607,.00495-1.58611-.00232-1.59136,.00461-1.58873-.00693-1.59086,.00373-1.59266,.00099-1.59039-.0006-1.59411,.00147-1.59668-.00798-1.59432-1.61989-.0018-1.62064-.00221,.0044-1.55135-.00874-1.55549,.00551-1.55264,1.61947,.00336,1.62351-.00489Z" fill="#44c38b"/>
          <path d="M265.50444,46.17239l1.00548,1.0943,1.24175,.80655,1.399,.48516,1.47514,.15507,1.58254-.13936,1.50548-.49514,1.24771-.97176,.85771-1.3323,.51224-1.5035,.2921-1.56184,.14025-1.58134,.0442-1.59235,.00181-1.62503-.00361-1.62412-.0006-1.62566,.01079-1.62107-.00432-1.62111-.00469-1.62647,.00328-1.62379,.00192-1.62597-.00401-1.6278-.00167-1.62548,.00788-1.62929v-1.63191s-.00201-1.62981-.00201-1.62981l1.46404,.00013,1.46982-.00412,1.47219-.00509,1.46956,.00935,.00492,1.62265,.00057,1.62412,.00227,1.62566-.00226,1.62107-.00995,1.62111,.00891,1.62647-.00153,1.62379-.00189,1.62597-.00476,1.6278,.00844,1.62548-.00589,1.62929,.00733,1.63191-.00213,1.63191-.0457,1.63872-.12329,1.63129-.23469,1.62133-.37555,1.59384-.52983,1.54763-.72994,1.46414-.9472,1.33188-1.15802,1.15058-1.3509,.91642-1.49228,.66064-1.57451,.43227-1.61648,.24086-1.6348,.06513-1.69381-.08761-1.67856-.24897-1.62882-.47077-1.55278-.67946-1.42463-.91793-1.26191-1.13094-1.04758-1.32727,1.63461-.93087,1.64233-.92579,1.63634-.9386Z" fill="#44c38b"/>
          <path d="M298.86167,38.41568l1.82302,.00281,1.82596,.00134,1.82678,.00143-.00457-2.12981-.1244-1.51723-.6137-1.37632-1.26429-.80872-1.48828-.29158-1.52426-.05784-1.53713,.04853-1.50801,.28126-1.31651,.75882-.96245,1.19328-1.30064-.91313-1.30213-.91258-1.2992-.91653,.92561-1.27246,1.15157-1.0682,1.34573-.80943,1.47481-.53464,1.54099-.32142,1.56558-.15587,1.57664-.04343,1.71443,.0486,1.70681,.19995,1.66832,.39639,1.56965,.68155,1.34121,1.05709,.98839,1.39084,.60922,1.59738,.30253,1.6839,.0894,1.71244-.00002,1.70143-.00078,1.69729-.00082,1.7029-.0059,1.70009,.00632,1.70237,.00099,1.70429-.0004,1.70186-.00328,1.70585,.00479,1.7086-.00313,1.70962-1.77339-.00616-1.77525,.00804-1.77597-.00237-.00108-2.33214-1.0681,1.33694-1.43813,.91943-1.65648,.42722-1.71601,.09902-1.69822-.09276-1.67168-.30855-1.59778-.5829-1.43727-.90247-1.18286-1.21415-.82777-1.47863-.46646-1.63053-.13894-1.69304,.14226-1.70816,.51414-1.63164,.91238-1.44435,1.28499-1.12681,1.52228-.77645,1.64076-.48978,1.69536-.25258,1.71438-.0779Zm5.4721,4.16578l-1.68513-.00189-1.6907-.00134-1.6907-.00181-1.60415,.12281-1.52355,.49883-1.08095,1.1561-.29903,1.56918,.30563,1.49839,1.02853,1.12056,1.43443,.5382,1.53627,.13653,1.75923-.13183,1.65186-.58886,1.1887-1.27188,.53735-1.66849,.1355-1.76186-.00327-1.21264Z" fill="#44c38b"/>
          <path d="M339.2576,42.37469l-.06613,1.72045-.25069,1.70374-.45454,1.66012-.67649,1.58262-.94249,1.4375-1.18373,1.24531-1.42483,.95881-1.58397,.66545-1.67913,.37162-1.71799,.1073-1.6657-.08865-1.6394-.31145-1.53406-.6384-1.29594-1.0363,.0008,1.60389,.00571,1.6057-.009,1.60751,.00117,1.60522-.00144,1.60898-.00149,1.61157,.00544,1.61168-1.80626,.00646-1.80908-.0121-1.80482,.00089-.0084-1.65641,.01032-1.66184-.00172-1.66452-.00681-1.66421,.00391-1.66275-.00055-1.66389-.00532-1.66579,.00328-1.66394,.00048-1.66588,.00046-1.66495-.00145-1.66653,.0014-1.66182,.00367-1.66186,.00103-1.66736-.00227-1.66461-.00769-1.66684,.01206-1.66873-.00138-1.66635-.00832-1.67025,.00949-1.67294-.01124-1.67809,1.81093,.00231,1.80908,.00733,1.80889-.00433-.00055,2.02784,1.25892-1.17143,1.53254-.7836,1.67276-.40898,1.72116-.11874,1.70487,.10874,1.66454,.38102,1.57769,.65065,1.40914,.96049,1.19811,1.21374,.93867,1.42494,.67469,1.56653,.44103,1.64937,.25213,1.68943,.07846,1.70908,.00318,1.72364-.01315,1.72361Zm-5.36015-.25345l-.0115-1.47011,.00117-1.47011-.08933-1.65766-.34096-1.62282-.67689-1.50919-1.1348-1.19498-1.48595-.70854-1.64206-.20055-1.59601,.19291-1.46208,.65275-1.12876,1.13486-.70645,1.4407-.36058,1.56272-.12079,1.60558,.00085,1.62222,.00571,1.62222,.0787,1.68598,.31887,1.65346,.66247,1.54534,1.12276,1.24488,1.51502,.71316,1.67029,.19715,1.65523-.21061,1.48763-.75175,1.09988-1.24985,.69153-1.51893,.34369-1.63659,.10235-1.67224Z" fill="#44c38b"/>
          <path d="M354.47233,38.42147l1.82307-.00612,1.82601,.0081,1.82225-.00612,.00193-2.12588-.1295-1.51661-.60901-1.37829-1.26474-.81083-1.48915-.29153-1.5246-.05566-1.53754,.04481-1.50939,.28079-1.31893,.75953-.95707,1.19346-1.30265-.90737-1.30071-.91454-1.30131-.91459,.92354-1.27693,1.15273-1.06831,1.34844-.80561,1.47464-.5349,1.54118-.31982,1.56531-.15743,1.57661-.04052,1.71444,.04541,1.70691,.19942,1.66993,.39168,1.56496,.69195,1.34587,1.05036,.98706,1.39225,.60941,1.59741,.30711,1.6835,.08605,1.71298-.0039,1.70143-.00394,1.69729-.00029,1.7029,.00183,1.70009,.00404,1.70237-.00455,1.70429,.00223,1.70186,.0048,1.70585-.00096,1.7086-.0011,1.71173-1.77541-.00737-1.77525-.00006-1.77231,.00207-.00364-2.32955-1.07051,1.33574-1.43641,.92188-1.65728,.42359-1.71567,.1113-1.69882-.09734-1.66965-.319-1.59592-.58443-1.44225-.8935-1.17862-1.21817-.83573-1.4745-.45987-1.63295-.14636-1.69283,.15154-1.70759,.50757-1.63379,.91756-1.44131,1.28774-1.12161,1.5176-.7837,1.64179-.4854,1.69495-.25181,1.71395-.07666Zm5.47562,4.15529l-1.68854,.00594-1.69073-.0081-1.69073,.00785-1.60447,.11487-1.52164,.50352-1.08441,1.15244-.3008,1.57005,.30619,1.49987,1.03096,1.12011,1.43411,.54202,1.53724,.13739,1.76033-.1313,1.65324-.59111,1.18493-1.27657,.53955-1.66763,.13258-1.76202,.00219-1.21734Z" fill="#44c38b"/>
          <path d="M373.32842,28.02658l1.77393,.00274,1.77525-.0046,1.77439,.00413-.0022,2.28119,1.23816-1.28014,1.55126-.86596,1.71849-.4608,1.78121-.12775,1.71851,.09731,1.6847,.35067,1.59291,.64618,1.41273,.97669,1.13423,1.28984,.81273,1.51009,.51583,1.64151,.27633,1.69738,.08101,1.72298-.00483,1.58145-.00108,1.58149,.00593,1.58672-.00646,1.58411,.00359,1.58623,.0037,1.58802-.00836,1.58576,.00221,1.58947,.00615,1.59203-.00076,1.595-1.79194-.00298-1.79219-.00237-1.79295,.00319,.00073-1.69003-.00052-1.69481-.00441-1.69202,.00237-1.69429,.00127-1.6962,.00459-1.69378-.00757-1.69774,.00652-1.70048-.00539-1.70048-.11322-1.71878-.47011-1.65446-1.00802-1.37622-1.51642-.77943-1.70493-.20433-1.72426,.23779-1.55174,.77876-1.13646,1.31047-.62643,1.62145-.17853,1.73413-.00302,1.69483-.00143,1.70044,.00043,1.69763,.00167,1.69991-.00192,1.70183-.00084,1.6994-.00388,1.70338,.00106,1.70612,.00605,1.70845-1.80836,.00257-1.80908-.00094-1.8103-.00265,.00577-1.69018-.0088-1.68699,.00342-1.68896-.00051-1.68802,.00476-1.68962,.00121-1.68485-.00429-1.68489-.00544-1.69046,.00877-1.68767-.0018-1.68994,.00107-1.69184-.00176-1.68943,.00397-1.69339-.00238-1.69612-.00429-1.69772Z" fill="#44c38b"/>
        </g>
        <path d="M48.05309,51.2342l1.85812-1.50261,.89382-1.35536,.88275-1.36135,.85023-1.38584,.8394-1.38593,.80713-1.409,.8013-1.41527,.75897-1.43941,.72159-1.46013,.69715-1.47376,.63407-1.50323,.57809-1.52303,.49368-1.55228,.36216-1.5864,.13692-1.61464-.0953-1.60016-.31113-1.57248-.51567-1.51761-.70995-1.43717-.90011-1.32522-1.05511-1.20462-1.19948-1.06173-1.33154-.89124-1.43611-.71077-1.51669-.5169-1.57336-.30417-1.59892-.11269-1.60055,.10366-1.57129,.31715-1.51529,.5202-1.43669,.70865-1.3307,.89143-1.20433,1.05597-1.05758,1.20304-.88719,1.3334-.70927,1.43565-.52683,1.51284-.30245,1.57383-.11168,1.59893,.15624,1.61304,.35267,1.58468,.49415,1.5479,.57368,1.52115,.63728,1.4953,.68641,1.47501,.7235,1.46002,.77083,1.43625,.78659,1.42703,.82109,1.40385,.83045,1.40194,.86537,1.37782,.86726,1.37236,.90923,1.34449,1.84978,1.50186-1.64727,.00211-1.6459,.00693-1.6481,.00373-1.64996-.00918-1.64761,.00686-1.65147,.00199-1.65413-.00325-1.6536-.00324,.00233,2.03669-.00579,2.03951,1.66147-.00664,1.65968,.01057,1.66157-.00653,1.65972,.00675,1.66166-.00247,1.66073-.00888,1.6623,.00718,1.65761-.00733,1.65765,.00975,1.66314,.0022,1.66039-.00316,1.66262-.00073,1.6645-.00174,1.66213,.00468,1.66602-.00818,1.6687,.00399,1.66616-.00391,.00704-2.03504-.00651-2.03549-1.64659-.00414-1.64588,.00244-1.64809-.00449-1.64995,.00641-1.6476-.00241-1.65145,.00372-1.65411-.00575-1.65412,.0026Zm-6.88029-21.96824l.20366-1.54137,.58801-1.43907,.95333-1.22787,1.22748-.95359,1.43876-.58935,1.54108-.20847,1.54039,.2147,1.43568,.59189,1.23775,.94027,.94083,1.23719,.60206,1.43312,.19885,1.54256-.20806,1.54105-.59872,1.4325-.93718,1.23901-1.23712,.94003-1.43448,.59456-1.54,.2018-1.54097-.20172-1.4399-.58579-1.2323-.94922-.94135-1.23663-.59492-1.43499-.2029-1.54062Z" fill="#44c38b"/>
      </g>
    </g>
  </g>
</svg>