<?xml version="1.0" encoding="UTF-8"?>
<svg id="b" data-name="レイヤー 2" xmlns="http://www.w3.org/2000/svg" width="601.45282" height="132.02016" viewBox="0 0 601.45282 132.02016">
  <g id="c" data-name="text">
    <g>
      <rect y="91.27016" width="601.45282" height="40.75" fill="#fff" opacity=".98"/>
      <g>
        <path d="M35.12762,118.69936v1.33008h-2.45068c.05664-.45605,.07568-.91211,.07568-1.63379v-10.88525c0-.72217-.01904-1.08301-.07568-1.5957,.45557,.0376,.85449,.05664,1.61475,.05664h10.79004c.81689,0,1.15918-.01904,1.59619-.05664-.03809,.49365-.05713,.87354-.05713,1.57666v10.86621c0,.70312,.01904,1.21582,.07568,1.65283h-2.4502v-1.31104h-9.11865Zm9.11865-10.58105h-9.11865v8.41553h9.11865v-8.41553Z" fill="#44c38b"/>
        <path d="M52.34198,111.19545c.83594,.11426,1.19678,.1333,3.07764,.1333h10.12549c1.88086,0,2.2417-.01904,3.07764-.1333v2.64062c-.75977-.09473-.96875-.09473-3.09668-.09473h-10.0874c-2.12744,0-2.33643,0-3.09668,.09473v-2.64062Z" fill="#44c38b"/>
        <path d="M88.43963,108.57387c-.15186,.34229-.18994,.60791-.20898,1.27295-.05664,2.14697-.26562,5.07227-.45557,6.32617-.49414,3.28662-1.15918,4.06543-3.43896,4.06543-.72168,0-1.36768-.05713-2.35547-.20898-.03809-1.19678-.09473-1.55762-.43701-2.43164,1.12109,.30371,1.88086,.43701,2.50781,.43701,.81689,0,1.10156-.41797,1.40576-2.0708,.22803-1.31104,.41797-3.89453,.41797-6.0791l-4.42627,.01904c-.26611,2.37451-.66504,3.79932-1.52002,5.43311-1.04492,2.01367-2.73535,3.74268-5.12891,5.26221-.646-1.00684-.91211-1.31055-1.70996-2.01367,2.37451-1.25391,3.93262-2.75439,4.93945-4.78711,.5127-1.04492,.79785-1.97607,.96875-3.30566,.03809-.26611,.07568-.45605,.09473-.58887l-3.15332,.01904c-1.15869,0-1.4248,.01904-2.05176,.09473l-.01904-2.33643c.646,.11377,1.15869,.15186,2.10889,.15186l3.32422-.01904c.05713-.72168,.09521-1.82373,.09521-2.37451v-.4751c0-.24707,0-.39893-.05713-.74072l2.5459,.05713c-.03809,.24658-.05713,.32275-.07617,.58887,0,.11377-.01904,.22803-.01904,.36084q-.03809,.39893-.07617,1.38672c-.01855,.41797-.01855,.58887-.07568,1.19678l4.21729-.01904c.85498,0,1.02588-.01904,1.50098-.1709l1.08252,.94971Z" fill="#44c38b"/>
        <path d="M98.92987,105.07875q-.07568,.53174-.18994,4.25537c-.13281,3.7041-.55078,5.85107-1.53857,7.80762-.646,1.31104-1.36768,2.27979-2.62158,3.51465-.74072-.9502-1.02588-1.23486-1.91895-1.84277,.93115-.75977,1.38672-1.27295,1.95703-2.18457,1.36768-2.18506,1.80469-4.63525,1.80469-9.95459,0-1.04492,0-1.21582-.07617-1.729l2.5835,.1333Zm5.03467-.22803c-.09521,.55078-.11426,.87354-.1333,1.80469l-.09473,10.80957c1.32959-.62695,2.08936-1.19727,2.90625-2.16602,.87402-1.02588,1.4248-2.0708,1.86182-3.47656,.66504,.85498,.91211,1.10205,1.78564,1.78613-.77881,1.88037-1.7666,3.30518-3.02051,4.42627-1.08252,.93066-2.0708,1.50049-4.04639,2.2793-.41797,.15234-.56982,.22803-.81689,.34229l-1.21582-1.29199c.1333-.55078,.15186-.96875,.1709-2.01367l.09521-10.71436v-.56982c0-.4751-.01904-.89307-.07617-1.25391l2.58398,.03809Z" fill="#44c38b"/>
        <path d="M120.77948,104.29946q-.11377,.36133-.30371,1.27295c-.09521,.45605-.18994,.83594-.39893,1.67188,1.31055-.13281,2.29883-.3042,3.03955-.53174l.05713,2.18457c-.20898,.01904-.24707,.01904-.60791,.09473-.68408,.11426-1.84277,.24707-3.021,.34229-.55078,1.89941-1.23438,3.7041-2.08936,5.50879-.43701,.93115-.60791,1.27295-1.33008,2.60303q-.24658,.45557-.36084,.68359l-2.18457-1.21582c.66504-.87354,1.19678-1.72852,1.84277-3.03955,.74072-1.51953,1.06396-2.29834,1.78564-4.4834-.85498,.01904-.96875,.01904-1.19678,.01904-.24707,0-.36084,0-.75977-.01904l-1.00684-.01904v-2.16553c.68359,.1333,1.40576,.1709,2.56445,.1709,.22803,0,.55078,0,.96875-.01904,.32324-1.34863,.53223-2.48828,.56982-3.30518l2.43164,.24658Zm8.60596,15.38818c-.68408-.81689-1.78564-1.70996-2.90674-2.35596,.01904,.1709,.03809,.3042,.03809,.37988,0,.70312-.32275,1.52002-.81689,2.01367-.66504,.68408-1.80469,1.06396-3.15332,1.06396-2.50781,0-4.1416-1.25391-4.1416-3.19141,0-1.91895,1.69092-3.26758,4.10352-3.26758,.56982,0,.96875,.03809,1.7666,.1709-.05713-.87402-.09473-1.61475-.09473-2.18457,0-.74072,.0376-1.29199,.15186-1.91895l2.20361,.11426c-.18994,.70264-.22803,1.13965-.22803,1.91846,0,.76025,.03809,1.52002,.1709,2.60303,1.36816,.60791,1.55811,.70264,3.00146,1.74756,.28516,.18994,.36133,.26611,.66504,.5127q.15186,.15234,.28516,.26611l-1.04492,2.12793Zm-6.74414-3.47656c-1.23486,0-2.03271,.5127-2.03271,1.31055,0,.77881,.68408,1.23486,1.86182,1.23486,1.29199,0,1.91895-.53174,1.91895-1.5957,0-.18994-.03809-.646-.03809-.646-.66504-.22803-1.12109-.30371-1.70996-.30371Zm6.83887-5.26221c-1.65234-1.10205-3.34326-1.91895-5.47119-2.65967l1.14014-1.84277c2.2417,.85498,3.6665,1.51953,5.35693,2.54541l-1.02588,1.95703Z" fill="#44c38b"/>
        <path d="M137.40497,105.64858c.39893-.74072,.55078-1.17773,.72168-1.97559l2.12793,.37988q-.26611,.53174-.53223,1.10156c-.09473,.1709-.13281,.28516-.26562,.49414h1.19678c.79785,0,1.4248-.01904,1.95654-.07617-.03809,.56982-.05713,1.00684-.05713,1.99463v4.12256c0,.96875,0,1.34863,.03809,1.80469-.43701-.01904-.85498-.03809-1.2915-.03809h-.98779v3.70459l.11377-.01904c.45605-1.19678,.68408-2.1084,.91162-3.49561l1.38721,.36133c-.34229,1.21582-.68408,2.29834-.93115,2.96338,.3042-.05713,.4751-.07617,.9502-.18994-.20898-.55078-.22803-.58887-.4751-1.06396l1.10156-.43701c.45605,.85498,.76025,1.55811,1.19727,2.81152l-1.27295,.55127c-.05713-.26611-.1333-.49414-.18994-.66504-.62695,.1709-1.34912,.3418-2.79248,.60791v.11377c.01855,.20898,.05664,.28516,.13281,.34229,.24707,.1709,1.02588,.22803,3.3623,.22803,1.61475,0,3.64746-.05713,4.42627-.11426,.89307-.07568,1.36816-.32275,1.53906-.77881,.13281-.30371,.18994-.75977,.22803-1.61475,.77881,.37988,1.25391,.55078,1.9375,.66504-.15186,1.36768-.26611,1.86182-.56982,2.37451-.62695,1.08301-1.34863,1.19678-7.86475,1.19678-4.33154,0-4.92041-.24707-4.92041-2.01367l-.01904-5.52832h-.5127c-.11426,2.20361-.22803,2.98291-.60791,4.16064-.49414,1.50049-.89307,2.22266-1.99463,3.55225-.41797-.68359-.76025-1.04492-1.50098-1.5957,1.06396-.91162,1.61475-1.82373,1.99463-3.24854,.24707-.98779,.3418-1.63379,.37988-2.86865-.68359,0-1.02588,.01904-1.51953,.03809,.03809-.53174,.05664-.94971,.05664-1.80469v-4.1416c0-.85449-.01855-1.34863-.05664-1.97559,.55078,.05713,.93066,.07617,1.89941,.07617h.70312Zm-.85498,3.13428h1.36768v-1.5957h-1.36768v1.5957Zm0,3.13477h1.36768v-1.63379h-1.36768v1.63379Zm2.8877-3.13477h1.44385v-1.5957h-1.44385v1.5957Zm0,3.13477h1.44385v-1.63379h-1.44385v1.63379Zm5.11035-.70312c-.81689,0-1.08301,.01904-1.57715,.07617v-1.84277c.45605,.05713,.79785,.07617,1.57715,.07617h1.67139v-1.74805h-1.38672c-.74072,0-.98779,.01904-1.44385,.07617v-1.82373c.41797,.05713,.74121,.07617,1.44385,.07617h1.38672v-.76025c0-.56982-.01904-.94971-.09473-1.40576h1.97559c-.05713,.45605-.07617,.79785-.07617,1.36816v.79785h1.50098c.62695,0,.96875-.01904,1.36768-.09521v1.84277c-.39893-.05713-.81689-.07617-1.38672-.07617h-1.48193v1.74805h1.729c.75977,0,1.17773-.01904,1.63379-.07617v1.86182c-.49414-.07617-.87402-.09521-1.63379-.09521h-1.31104c1.23486,1.82373,1.99512,2.58398,3.59082,3.64746-.45605,.4751-.72217,.89307-1.10205,1.65283-1.38672-1.23486-1.99463-1.99463-2.98242-3.6665,.03809,.60791,.05713,1.4248,.05713,1.99463v1.82373c0,.83594,.01855,1.31104,.09473,1.80518h-1.97559c.07568-.57031,.09473-.85498,.09473-1.76709v-1.70947c0-.41797,.01904-1.33008,.05713-1.93799-.66504,1.33008-1.23486,2.12793-2.10889,2.94482-.3418-.77881-.60742-1.19678-1.00684-1.61475,1.15918-.96875,1.82373-1.78564,2.60303-3.17285h-1.21582Z" fill="#44c38b"/>
        <path d="M168.96258,107.60512c1.14014,0,1.80518-.01904,2.45068-.09473q-.07568,.74072-.11377,2.86816c-.05713,2.60303-.24707,5.81348-.43701,7.06738-.24707,1.74756-.5127,2.4126-1.10156,2.83057-.49414,.36084-1.19727,.5127-2.26074,.5127-.87402,0-1.70996-.05713-2.90674-.20898-.11377-.96875-.24707-1.51953-.53174-2.29834,1.21582,.24658,2.31738,.37988,3.26758,.37988,.89258,0,1.17773-.34229,1.38672-1.61475,.24658-1.4248,.41797-4.36963,.43701-7.40918h-5.14844c-.32275,2.81152-.83594,4.73047-1.729,6.32617-1.10156,1.99463-2.83057,3.59033-5.47119,5.07227-.41748-.79785-.91162-1.40576-1.57666-1.97559,2.60254-1.14014,4.33154-2.65967,5.35742-4.73047,.58887-1.15869,.94971-2.62158,1.19678-4.69238h-3.30566c-.96875,0-1.70947,.03809-2.35547,.11426v-2.27979c.68359,.09473,1.32959,.13281,2.4126,.13281h3.38135c.03809-.75977,.03809-.94971,.03809-1.9375,0-.91211-.03809-1.46289-.11377-1.84277h2.52637q-.09473,.49365-.20898,3.78027h4.80615Z" fill="#44c38b"/>
        <path d="M180.06024,115.20424c-.51318,1.84277-1.12109,3.45752-2.01367,5.41406-.17139,.3418-.20898,.41797-.3042,.68408l-1.78564-1.63379c.91162-1.14014,1.72852-3.03955,2.45068-5.62354l1.65283,1.15918Zm-2.64062-6.44043c1.15869,.79834,1.74756,1.31104,2.90625,2.50781l-1.36768,1.48193c-.94971-1.06396-1.78564-1.80469-2.92529-2.62158l1.38672-1.36816Zm4.71094,1.57715c-.89258,0-1.55762,.0376-2.07031,.11377v-1.97559c.47461,.07617,1.10156,.11377,2.01367,.11377h1.15869v-1.38672h-.68408c-.75977,0-1.2915,.01904-1.84277,.09521v-.72217l-1.19678,1.34912c-1.04443-1.17822-1.48145-1.55811-2.92529-2.62158l1.36768-1.31104c1.36768,.94971,1.93799,1.4248,2.75439,2.26074v-.94971c.4751,.05664,1.10205,.09473,1.88086,.09473h.646v-.13281c0-.58887-.03809-1.02588-.09521-1.40576h2.14697c-.07617,.3418-.09521,.79785-.09521,1.40576v.13281h3.02051v-.13281c0-.56982-.01855-1.04492-.09473-1.40576h2.14648c-.05664,.3418-.09473,.83594-.09473,1.40576v.13281h.98779c.75977,0,1.4248-.03809,1.8999-.09473v1.99463c-.4751-.05713-1.14014-.09521-1.86182-.09521h-1.02588v1.38672h1.38672c1.12061,0,1.61475-.01904,2.10889-.11377v1.97559c-.45605-.07617-1.19727-.11377-2.10889-.11377h-4.0083v1.23486h3.24854c.96875,0,1.57666-.01904,2.08936-.07617-.07568,.4751-.09473,1.02588-.09473,1.95654v6.09814c0,1.29199-.51318,1.63379-2.43164,1.63379h-.72217c-.39893-.01904-.49365-.01904-.85449-.05713-.05713-.70264-.1333-1.02588-.43701-1.9375,.75977,.09521,1.46289,.15186,1.95654,.15186,.51318,0,.58887-.05664,.58887-.43701v-5.62305h-3.34326v3.70459h.87354v-1.36768c0-.70312-.01855-1.06396-.05664-1.46289h1.74756c-.03809,.39893-.05713,.646-.05713,1.46289v1.67139c0,.7793,0,1.00684,.03809,1.44385-.18994-.01904-.62695-.01904-1.2915-.03809h-3.89453v.9502h-1.70996c.05713-.45605,.07617-.83594,.07617-1.53906v-2.50732c0-.66504-.01904-1.00684-.07617-1.46289h1.7666c-.0376,.41797-.05664,.68408-.05664,1.46289v1.38672h.83594v-3.70459h-3.22949v6.02197c0,.9502,.01855,1.46289,.09473,2.08984h-2.0708c.07617-.62695,.11426-1.27295,.11426-2.18457v-6.0791c0-.68408-.01904-1.10205-.05713-1.61475,.37988,.03809,.79785,.05713,1.4248,.05713h3.72363v-1.23486h-3.60986Zm6.0791-1.74805v-1.38672h-3.02051v1.38672h3.02051Z" fill="#44c38b"/>
        <path d="M206.5075,119.4977h-2.56445v.53174c0,.58887,.01904,.96875,.07568,1.38672h-1.97559c.07617-.43701,.09521-.81689,.09521-1.36768v-.55078h-2.90674c-.77881,0-1.17773,.01855-1.69092,.09473v-1.65283c.49414,.07617,.89307,.09521,1.69092,.09521h2.90674v-.77881h-1.93799c-.74072,0-1.32959,.01855-1.70947,.05664,.05664-.5127,.07568-.77881,.07568-1.32959v-2.46973c0-.55078-.01904-.81689-.07568-1.32959,.37988,.0376,.87354,.05664,1.70947,.05664h1.93799v-.75977h-2.48877c-.79785,0-1.13965,.01904-1.70996,.07617v-1.61475c.55127,.07568,.87402,.09473,1.70996,.09473h2.48877v-.81689h-2.69775c-.87402,0-1.4248,.03809-1.97559,.11426v-1.86182c.5127,.07568,1.08252,.09473,1.97559,.09473h2.5835v-.81689h-1.7666c-.77881,0-1.23486,.01904-1.72852,.09521v-1.74756c.47461,.07568,.91162,.09473,1.72852,.09473h1.7666v-.09473c0-.60791-.01904-.87402-.09473-1.23486h2.14648c-.09473,.37988-.11377,.66455-.11377,1.32959h1.82373c.81689,0,1.23486-.01904,1.70947-.09473v1.74756c-.49365-.07617-.93066-.09521-1.70947-.09521h-1.82373v.81689h4.63525c-.03809-1.12061-.03809-1.34863-.05713-1.82373,0-.74072-.03809-1.32959-.09473-1.7666h2.18457c-.09521,.4751-.11426,.83594-.11426,1.38672,0,0,0,.3042,.01904,.66504v1.53857h2.22266c.85498,0,1.44385-.0376,1.95703-.09473v1.86182c-.55127-.09521-1.06396-.11426-1.95703-.11426h-2.20361c.07617,2.20361,.24707,4.16064,.4751,5.35742,.72168-1.34912,1.32959-3.02051,1.46289-4.08447l1.89941,.66504q-.07568,.18994-.20898,.55078c0,.01904-.05664,.15186-.11377,.3418-.01904,.03809-.07617,.18994-.15186,.39893-.66504,1.80469-1.29199,3.05859-2.16602,4.42627,.41797,1.02588,1.08301,2.14697,1.27295,2.14697,.15186,0,.3042-.77881,.5127-2.5459,.60791,.58936,.85498,.76025,1.59619,1.12109-.38037,2.54541-1.02588,3.74219-2.01367,3.74219-.85498,0-1.74805-.91162-2.65967-2.69727-.85498,1.02588-1.61475,1.74756-3.03955,2.86865-.55127-.66504-.76025-.85498-1.53906-1.40625,.43701-.26562,.60791-.39893,.89307-.58887l-.26611-.01855Zm-4.36914-5.98438h-1.8999v.646h1.8999v-.646Zm0,1.78564h-1.8999v.70312h1.8999v-.70312Zm5.64209,3.38184c.74072-.68408,1.2915-1.25391,1.88086-2.03271-.58936-1.8999-.83594-3.72363-1.00684-7.42822h-4.71143v.81689h2.46973c.83594,0,1.21582-.01904,1.67139-.09473v1.61475c-.49365-.05713-.89258-.07617-1.67139-.07617h-2.46973v.75977h2.08984c.74072,0,1.31055-.01904,1.67139-.05664-.05664,.45557-.05664,.62646-.05664,1.32959v2.46973c0,.70264,0,.87402,.05664,1.32959-.47461-.03809-.87354-.05664-1.69043-.05664h-2.0708v.77881h2.16553c.81689,0,1.15869-.01904,1.67188-.07617v.72217Zm-1.74756-4.52148v-.646h-2.08984v.646h2.08984Zm0,1.84277v-.70312h-2.08984v.70312h2.08984Zm6.80078-8.4917c-.62695-1.08301-1.04492-1.61475-1.88086-2.45068l1.34912-.85498c.94971,.93066,1.32959,1.40576,1.95654,2.37451l-1.4248,.93115Z" fill="#44c38b"/>
        <path d="M222.92401,115.98305c.01855-.39893,.0376-.58887,.0376-.81689q0-.20898-.05664-1.34863l-.26611-6.45947c-.03809-.83545-.09521-1.78564-.1709-2.31738h3.11523c-.05664,.5127-.13281,1.50049-.1709,2.31738l-.26562,6.45947q-.03809,1.10156-.03809,1.36768c0,.22803,0,.41797,.03809,.79785h-2.22266Zm-.26611,4.16016v-2.60254h2.75439v2.60254h-2.75439Z" fill="#44c38b"/>
        <path d="M240.61346,105.87661c0-.98779-.01904-1.44385-.11377-2.0708h2.39355c-.07617,.58887-.11426,1.08301-.11426,1.99463v1.23486h5.20557c.83594,0,1.23486-.01904,1.72852-.07617-.05713,.53223-.07568,.93115-.07568,1.67188v5.79443c0,.85449,.01855,1.34863,.09473,1.89941h-2.2417v-1.13965h-4.71143v3.85645c0,1.13965,.03809,1.69043,.1333,2.35547h-2.43164c.09473-.70264,.13281-1.29199,.13281-2.35547v-3.85645h-4.4834v1.13965h-2.2417c.07617-.62695,.09521-1.10156,.09521-1.89941v-5.81348c0-.70264-.01904-1.04492-.07617-1.65283,.55078,.05713,.94971,.07617,1.70996,.07617h4.99609v-1.15869Zm-4.4834,3.17236v4.12256h4.4834v-4.12256h-4.4834Zm11.36035,4.12256v-4.12256h-4.71143v4.12256h4.71143Z" fill="#44c38b"/>
        <path d="M264.59051,114.36831c.79785,1.17773,1.63379,2.03271,2.75439,2.79248,1.33008,.91211,2.90674,1.5957,4.46436,1.9375-.45557,.72217-.62646,1.06396-1.12061,2.2041-1.8999-.60791-3.72363-1.63379-5.18604-2.8877-1.15918-.98779-1.82373-1.82373-2.60303-3.19141-.64551,1.50049-1.38672,2.46924-2.65918,3.55225-1.4248,1.21582-2.64062,1.88086-4.84473,2.67871-.36084-.93115-.56982-1.29199-1.15869-2.05176,1.95703-.53174,3.19141-1.12061,4.42627-2.0708,1.15918-.89258,1.8999-1.82373,2.4126-2.96338h-4.69189c-.89307,0-1.57715,.03809-2.16602,.11377v-2.22266c.62695,.07617,1.14014,.11426,2.10889,.11426v-4.40771c0-.68359-.01904-1.08252-.07617-1.53857,.60791,.07617,1.17773,.09521,2.01367,.09521h3.62842v-1.04492c0-.60791-.0376-1.06396-.11377-1.61475h2.31738q-.11377,.62695-.11377,2.65967h3.78027c.96924,0,1.50098-.01904,2.01367-.09521-.05664,.4751-.07568,.81689-.07568,1.50098v4.44531c.96875,0,1.46289-.03809,2.0708-.11426v2.22266c-.58887-.07568-1.27295-.11377-2.16602-.11377h-5.01514Zm-2.98242-1.99463c.15186-1.08301,.22803-2.12793,.26562-3.87549h-3.55225v3.87549h3.28662Zm6.09814,0v-3.87549h-3.74268c-.05713,1.86182-.13281,2.79248-.26611,3.87549h4.00879Z" fill="#44c38b"/>
        <path d="M275.61249,111.86049c.3418,.03809,.49365,.05713,.89258,.05713h.58887c.4751-.60791,.62695-.81689,1.04492-1.4248-1.02588-1.29199-1.50049-1.82373-2.56445-2.79248l.98779-1.63379,.70312,.74072c.77881-1.23486,1.31055-2.39355,1.48145-3.17236l1.84277,.68359c-.11377,.17139-.20898,.36133-.41797,.79785-.47461,.96924-1.08252,2.03271-1.72852,3.00195q.32275,.39893,.70264,.89258c.87402-1.34863,1.53906-2.52637,1.78564-3.21045l1.69092,.91211c-.22803,.36084-.36084,.56982-.646,1.02588-1.13965,1.78564-1.86182,2.83057-2.84961,4.10303,1.12109-.07568,1.55811-.11377,2.08984-.1709-.24707-.77881-.28516-.87402-.55078-1.51953l1.40576-.55127c.62695,1.50098,.81689,2.0708,1.19678,3.53369l-1.48193,.66504q-.05713-.24707-.11377-.55127-.79785,.09521-1.40576,.15234v6.00293c0,.98779,.01904,1.40576,.11377,1.99463h-2.05176c.07617-.646,.11426-1.15869,.11426-2.01367v-5.83203c-.11426,.01904-.36133,.01904-.76025,.03809q-1.44336,.09473-1.86133,.1709l-.20898-1.8999Zm2.35547,2.79248c-.20898,3.32471-.3418,4.29346-.77881,5.79443l-1.5957-.81689c.45605-1.40576,.58887-2.31787,.74072-5.16748l1.63379,.18994Zm4.04639-.3418c.37988,1.69092,.4751,2.33691,.62695,3.78027l-1.50098,.41797c-.09473-1.61475-.18994-2.43164-.47461-3.8374l1.34863-.36084Zm1.63379,1.00684c-.5127,0-.74072,.01904-1.10205,.07617v-1.8999c.34229,.05713,.53223,.07617,1.15918,.07617h1.2915c.43701,0,.66504-.01904,.89307-.05713l.68408,.89307c-.07617,.18994-.09521,.24658-.17139,.5127-.47461,1.48193-.85449,2.31787-1.55762,3.36279-.646,.93066-1.06396,1.42432-2.18457,2.4502-.28516-.55078-.66504-.96875-1.29199-1.51953,1.52002-1.08301,2.46973-2.27979,3.11572-3.89453h-.83594Zm5.03418-3.03955c.20898,.89307,.43701,1.46289,.93115,2.35596,.79785-.66504,1.34863-1.25391,2.03271-2.12793l1.34863,1.21582c-.94971,1.02588-1.65283,1.67188-2.46973,2.33643,.94971,1.25391,1.729,1.99512,2.94482,2.79297-.51318,.55078-.79834,.98779-1.21582,1.88037-.91211-.74072-1.38721-1.21582-1.99512-2.03271-.81689-1.04443-1.25342-1.82373-1.89941-3.45752,.11377,1.15918,.1709,1.97607,.1709,2.56494l.01904,1.65283c.01904,1.21582-.60791,1.69043-2.27979,1.69043-.01904,0-.07617,0-.11377-.01904h-.49414c-.32275,0-.3418,0-.646-.0376-.11377-.85498-.22803-1.31104-.5127-1.91895,.66504,.11426,1.10156,.1709,1.55762,.1709,.4751,0,.58887-.09473,.58887-.45605v-6.61084h-1.5957c-.66504,0-1.34863,.01904-1.88086,.07617,.05713-.49414,.07617-1.12109,.07617-1.84277v-3.43848c0-.70312-.01904-1.34912-.07617-1.86182,.49414,.05713,.93115,.07617,1.84277,.07617h1.08301c.28516-.76025,.39893-1.14014,.5127-1.67188l2.12793,.30371c-.22803,.60791-.36084,.91211-.56982,1.36816h2.1084c.9502,0,1.36816-.01904,1.84277-.07617-.05664,.56982-.07568,.98779-.07568,1.8999v3.41943c0,.85498,.01904,1.32959,.07568,1.82373-.53174-.05713-1.15869-.07617-1.80469-.07617h-1.63379Zm-3.51416-4.23633h4.93896v-1.19678h-4.93896v1.19678Zm0,2.67871h4.93896v-1.19678h-4.93896v1.19678Z" fill="#44c38b"/>
        <path d="M297.82293,108.66909c1.4248,.79785,1.86182,1.10205,3.30566,2.2417l-1.19678,1.72852c-1.23486-1.15869-1.78564-1.55762-3.28662-2.43164l1.17773-1.53857Zm3.57129,6.57275c-.96875,2.52686-1.72852,4.1416-2.83057,5.96533l-1.80469-1.63379c.26611-.24707,.41797-.43701,.70312-.85498,.89258-1.32959,1.4248-2.46924,2.22266-4.72998l1.70947,1.25342Zm-2.48828-11.22705c1.36768,.85498,2.05176,1.36768,3.38135,2.54541l-1.29199,1.65283c-1.34863-1.31055-2.05127-1.88086-3.38135-2.71631l1.29199-1.48193Zm12.19629,8.33984c.58887,0,.96875-.01904,1.36768-.05713-1.67188-2.01367-2.96387-4.44531-4.08447-7.61768l1.99463-.79785c.32324,1.17773,.74072,2.26025,1.31104,3.3623,.85449,1.65283,1.72852,2.81152,2.90625,3.8374-.62695,.4751-1.04492,.91211-1.67139,1.74756l-.26611-.30371c-.03809,.41797-.05713,.87402-.05713,1.57666v4.93945c0,1.04492,.01904,1.57666,.09521,2.20361h-2.16602v-.96875h-5.7749v.96875h-2.14697c.07617-.70312,.09521-1.29199,.09521-2.12793v-5.05322c0-.72168-.01904-1.13965-.05713-1.57666-.41797-.45605-.91162-.81689-1.5957-1.17773,1.50098-1.34863,2.27979-2.52686,3.05859-4.57861,.37988-.98779,.60791-1.86133,.75977-2.79248l2.03271,.72217c-.62695,2.43164-.87354,3.15332-1.55762,4.54004-.60791,1.23486-1.23486,2.16602-2.10889,3.13477,.37988,.01904,.58887,.01904,1.08301,.01904h6.78223Zm-6.34521,5.98389h5.7749v-4.08447h-5.7749v4.08447Z" fill="#44c38b"/>
        <path d="M318.17206,111.86049c.3418,.03809,.49365,.05713,.89258,.05713h.58887c.4751-.60791,.62695-.81689,1.04492-1.4248-1.02588-1.29199-1.50049-1.82373-2.56445-2.79248l.98779-1.63379,.70312,.74072c.77881-1.23486,1.31055-2.39355,1.48145-3.17236l1.84277,.68359c-.11377,.17139-.20898,.36133-.41797,.79785-.47461,.96924-1.08252,2.03271-1.72852,3.00195q.32275,.39893,.70264,.89258c.87402-1.34863,1.53906-2.52637,1.78564-3.21045l1.69092,.91211c-.22803,.36084-.36084,.56982-.646,1.02588-1.13965,1.78564-1.86182,2.83057-2.84961,4.10303,1.12109-.07568,1.55811-.11377,2.08984-.1709-.24707-.77881-.28516-.87402-.55078-1.51953l1.40576-.55127c.62695,1.50098,.81689,2.0708,1.19678,3.53369l-1.48193,.66504q-.05713-.24707-.11377-.55127-.79785,.09521-1.40576,.15234v6.00293c0,.98779,.01904,1.40576,.11377,1.99463h-2.05176c.07617-.646,.11426-1.15869,.11426-2.01367v-5.83203c-.11426,.01904-.36133,.01904-.76025,.03809q-1.44336,.09473-1.86133,.1709l-.20898-1.8999Zm2.35547,2.79248c-.20898,3.32471-.3418,4.29346-.77881,5.79443l-1.5957-.81689c.45605-1.40576,.58887-2.31787,.74072-5.16748l1.63379,.18994Zm4.04639-.3418c.37988,1.69092,.4751,2.33691,.62695,3.78027l-1.50098,.41797c-.09473-1.61475-.18994-2.43164-.47461-3.8374l1.34863-.36084Zm1.63379,1.00684c-.5127,0-.74072,.01904-1.10205,.07617v-1.8999c.34229,.05713,.53223,.07617,1.15918,.07617h1.2915c.43701,0,.66504-.01904,.89307-.05713l.68408,.89307c-.07617,.18994-.09521,.24658-.17139,.5127-.47461,1.48193-.85449,2.31787-1.55762,3.36279-.646,.93066-1.06396,1.42432-2.18457,2.4502-.28516-.55078-.66504-.96875-1.29199-1.51953,1.52002-1.08301,2.46973-2.27979,3.11572-3.89453h-.83594Zm5.03418-3.03955c.20898,.89307,.43701,1.46289,.93115,2.35596,.79785-.66504,1.34863-1.25391,2.03271-2.12793l1.34863,1.21582c-.94971,1.02588-1.65283,1.67188-2.46973,2.33643,.94971,1.25391,1.729,1.99512,2.94482,2.79297-.51318,.55078-.79834,.98779-1.21582,1.88037-.91211-.74072-1.38721-1.21582-1.99512-2.03271-.81689-1.04443-1.25342-1.82373-1.89941-3.45752,.11377,1.15918,.1709,1.97607,.1709,2.56494l.01904,1.65283c.01904,1.21582-.60791,1.69043-2.27979,1.69043-.01904,0-.07617,0-.11377-.01904h-.49414c-.32275,0-.3418,0-.646-.0376-.11377-.85498-.22803-1.31104-.5127-1.91895,.66504,.11426,1.10156,.1709,1.55762,.1709,.4751,0,.58887-.09473,.58887-.45605v-6.61084h-1.5957c-.66504,0-1.34863,.01904-1.88086,.07617,.05713-.49414,.07617-1.12109,.07617-1.84277v-3.43848c0-.70312-.01904-1.34912-.07617-1.86182,.49414,.05713,.93115,.07617,1.84277,.07617h1.08301c.28516-.76025,.39893-1.14014,.5127-1.67188l2.12793,.30371c-.22803,.60791-.36084,.91211-.56982,1.36816h2.1084c.9502,0,1.36816-.01904,1.84277-.07617-.05664,.56982-.07568,.98779-.07568,1.8999v3.41943c0,.85498,.01904,1.32959,.07568,1.82373-.53174-.05713-1.15869-.07617-1.80469-.07617h-1.63379Zm-3.51416-4.23633h4.93896v-1.19678h-4.93896v1.19678Zm0,2.67871h4.93896v-1.19678h-4.93896v1.19678Z" fill="#44c38b"/>
        <path d="M347.22235,115.37514c-1.08301,2.45068-2.29883,3.57129-3.85645,3.57129-2.16602,0-3.72363-2.20361-3.72363-5.26221,0-2.08984,.74072-4.04639,2.08984-5.52832,1.5957-1.74756,3.8374-2.65918,6.53467-2.65918,4.55957,0,7.52295,2.77344,7.52295,7.04785,0,3.28662-1.70947,5.9082-4.61621,7.08594-.91162,.37988-1.65283,.56982-2.98242,.79785-.32324-1.00684-.55078-1.4248-1.15918-2.22266,1.74805-.22803,2.8877-.53223,3.78076-1.04492,1.65283-.91162,2.64062-2.7168,2.64062-4.74951,0-1.82373-.81689-3.30518-2.33691-4.21729-.58887-.3418-1.08252-.49365-1.91846-.56982-.36084,2.98242-1.02588,5.604-1.97559,7.75098Zm-2.79297-6.80127c-1.5957,1.14014-2.5835,3.09668-2.5835,5.12939,0,1.55762,.66504,2.79248,1.50098,2.79248,.62695,0,1.27246-.79785,1.95654-2.43164,.72168-1.70947,1.34863-4.27441,1.57666-6.4209-.98779,.11377-1.67139,.37988-2.45068,.93066Z" fill="#44c38b"/>
        <path d="M374.42938,120.42836c-1.57715-1.93799-3.76172-4.06543-5.83252-5.64209-2.14648,2.39355-4.33105,4.06543-7.23779,5.49023-.53174-.98779-.75977-1.29199-1.53857-2.10889,1.4624-.56982,2.37451-1.08301,3.79932-2.08984,2.86865-2.01367,5.14795-4.76807,6.38281-7.73145l.20898-.49414q-.30371,.01904-6.28809,.11377c-.91162,.01904-1.4248,.05713-2.07031,.15234l-.07617-2.43164c.53174,.09473,.89307,.11377,1.67188,.11377h.45557l6.68701-.09473c1.06396-.01904,1.21582-.03809,1.69092-.20898l1.25391,1.2915c-.24707,.28516-.39893,.55127-.60791,1.02588-.87402,2.03271-1.80469,3.68555-2.96338,5.24316,1.19678,.79785,2.22266,1.5957,3.51416,2.75488q.4751,.41797,2.77393,2.64062l-1.82373,1.97559Z" fill="#44c38b"/>
        <path d="M385.20379,111.76577c-.03809,.11377-.05713,.22803-.07617,.26562,0,.03809-.03809,.15234-.07568,.32324-.60791,2.79248-1.80518,5.52783-3.19189,7.38965-.89258-.646-1.2915-.87354-2.20361-1.23486,1.46289-1.57666,2.94482-4.97705,3.21045-7.31396l2.33691,.57031Zm8.64355-4.06543c.39893,0,.58887,0,1.04492-.01904-.93066-.3042-1.53857-1.12109-1.53857-2.08984,0-1.19678,.98779-2.18457,2.18457-2.18457,1.21582,0,2.20361,.98779,2.20361,2.18457,0,.93115-.56982,1.729-1.44385,2.0708v2.2417c-.62695-.07617-.91162-.09521-2.4126-.09521h-4.38818v9.21387c0,1.04492,.01904,1.61475,.09473,2.12744h-2.5835c.07617-.5127,.11377-1.08252,.11377-2.14648v-9.19482h-4.21729c-1.48193,0-1.7666,.01904-2.39355,.09521v-2.33691c.66504,.11426,1.02588,.1333,2.43164,.1333h4.1792v-1.06396c0-1.08301-.0376-1.50098-.11377-1.95654h2.56445c-.05664,.5127-.07568,.79785-.07568,2.01367v1.00684h4.3501Zm-.20898,3.49512c.58887,2.46973,2.10889,5.75635,3.36279,7.23828-.96924,.47461-1.33008,.70264-2.18506,1.31055-1.36768-2.12744-2.22266-4.08447-3.11523-7.10498-.15234-.5127-.1709-.58887-.3042-.87354l2.2417-.57031Zm.66504-5.604c0,.68408,.55078,1.25391,1.23486,1.25391,.70264,0,1.25391-.56982,1.25391-1.25391,0-.68359-.55127-1.23486-1.25391-1.23486-.68408,0-1.23486,.55127-1.23486,1.23486Z" fill="#44c38b"/>
        <path d="M403.4826,108.87807c.79785,1.46289,1.17773,2.37451,1.86182,4.50244l-2.14697,.68359c-.49365-1.91846-.87354-2.92529-1.72852-4.59717l2.01367-.58887Zm10.9043,.13281c-.11377,.28516-.15186,.37988-.26562,.96875-.55127,2.58398-1.40576,4.67334-2.62158,6.32617-1.40625,1.91895-2.98291,3.15381-5.79443,4.57861-.49365-.83594-.72168-1.12109-1.51953-1.88086,1.32959-.51318,2.1084-.93066,3.22949-1.74756,2.22266-1.61475,3.49512-3.55273,4.31201-6.59229,.24707-.93066,.34229-1.5957,.34229-2.18457l2.31738,.53174Zm-6.85791-.91162c1.00684,1.88037,1.36768,2.71631,1.84277,4.36914l-2.10889,.66504c-.36084-1.44385-.93066-2.90674-1.72852-4.46436l1.99463-.56982Z" fill="#44c38b"/>
        <path d="M421.38055,120.65639c.09521-.60791,.11426-1.12109,.11426-2.12793v-12.17725c0-.93066-.03809-1.4248-.11426-1.9375h2.60254c-.07568,.56982-.07568,.81689-.07568,1.99463v3.53369c2.60254,.91162,5.58496,2.29834,8.62451,4.0083l-1.32959,2.2417c-1.57715-1.08301-3.55273-2.16602-6.7251-3.62842-.43701-.20898-.49414-.22803-.646-.32324,.05713,.53223,.07617,.76025,.07617,1.29199v5.01514c0,.98779,.01904,1.48193,.07568,2.10889h-2.60254Z" fill="#44c38b"/>
        <path d="M437.75848,106.14223c.7793,.17139,1.99512,.24707,4.40771,.24707,.5127-1.13965,.68359-1.70947,.75977-2.35547l2.48877,.26562q-.11426,.19043-.76025,1.70996c-.09473,.20898-.13281,.26611-.1709,.3418q.15234-.01904,1.19678-.07568c2.2041-.1333,3.93262-.34229,4.97754-.646l.13281,2.16553q-.53174,.03809-1.50049,.15186c-1.38721,.17139-3.7998,.32324-5.71826,.38037-.55078,1.08252-1.08301,1.84277-1.74805,2.52637l.01904,.03809q.1333-.09521,.37988-.28516c.70312-.53174,1.70996-.85449,2.67871-.85449,1.48193,0,2.4126,.70264,2.7168,2.01367,1.46289-.53223,2.43164-.87402,2.90674-1.02588,1.02539-.36133,1.10156-.37988,1.40576-.56982l.89258,2.18457c-.53174,.07568-1.10156,.22803-2.1084,.5127-.26611,.07617-1.21582,.39893-2.84961,.96875v.20898q.01904,.49414,.01904,.76025v.75977c-.01904,.32275-.01904,.49365-.01904,.62695,0,.41797,.01904,.68359,.05664,1.00684l-2.20361,.05713c.07617-.34229,.11426-1.31104,.11426-2.2041v-.45557c-.93115,.43701-1.4248,.70264-1.82373,.98779-.66504,.49365-.98779,1.00684-.98779,1.55762,0,.98779,.91162,1.38672,3.21045,1.38672,2.2793,0,4.23633-.28467,5.58496-.79785l.18994,2.45068c-.32275,0-.41797,.01904-.87402,.07617-1.36768,.20898-3.19141,.3418-4.86328,.3418-2.01367,0-3.26709-.22803-4.23633-.79785-.87354-.49414-1.38672-1.40576-1.38672-2.45068,0-.77881,.22803-1.38672,.83594-2.10889,.85498-1.06348,1.93799-1.78564,4.08447-2.67822-.09521-.70312-.4751-1.02588-1.15869-1.02588-1.10205,0-2.43164,.66504-3.89453,1.95654-.79785,.66504-1.23486,1.14014-1.65283,1.729l-1.72852-1.70996c.49365-.37988,1.04443-.91162,1.70947-1.69092,.74121-.87354,1.8999-2.52637,2.27979-3.24854q.07617-.15186,.15186-.24658c-.07568,0-.32275,.01904-.32275,.01904-.3042,0-1.97607-.03809-2.39355-.03809q-.36133-.01904-.53223-.01904c-.05713,0-.1709,0-.30371,.01904l.0376-2.16602Z" fill="#44c38b"/>
        <path d="M457.08221,111.08168c.49365,.07617,.81689,.09521,1.51953,.09521h1.48193c.53174,0,.98779-.01904,1.44385-.09521-.05713,.58887-.07617,1.04492-.07617,2.0708v3.95117c.85498,1.40576,1.93799,1.82373,4.80664,1.82373,3.76123,0,6.25-.11377,8.62451-.37988-.36084,1.08301-.41797,1.38672-.56982,2.33691-4.06543,.11377-4.57861,.11377-6.7251,.11377-3.13477,0-4.23633-.11377-5.30029-.58887-.72168-.32275-1.2915-.77881-1.88086-1.52002-.62646,.6084-.79785,.76025-1.91846,1.59619-.37988,.28467-.51318,.39893-.85498,.68359l-.93066-2.16553c.62695-.24707,1.97559-1.17773,2.75439-1.88086v-4.08447h-1.10156c-.51318,0-.7793,.01904-1.27295,.09521v-2.05176Zm1.70947-7.00977c1.36816,1.19678,2.375,2.2417,3.28662,3.43848l-1.57666,1.53857c-1.15869-1.57666-1.7666-2.26074-3.22949-3.55225l1.51953-1.4248Zm7.67529,.43652c-.20898,.38037-.20898,.39941-1.02588,2.58398q-.45605,1.17773-1.67188,3.72314c1.12061,2.03271,1.91846,3.87549,2.84961,6.63037l-2.12793,.62695c-.77881-2.79297-1.50049-4.6167-2.88721-7.31396,.70264-1.34912,1.00684-2.05176,1.65234-3.74268,.58936-1.53857,.83594-2.35547,.9502-3.11572l2.26074,.60791Zm1.97559,13.35547c-1.02588-3.26758-1.61475-4.67334-2.96387-7.12402,.7793-1.40576,1.29199-2.58398,1.88086-4.19873,.45605-1.27246,.646-1.95654,.75977-2.5835l2.2041,.646c-.11426,.22803-.1333,.26611-.36133,.87402-.83594,2.1084-1.53857,3.6665-2.4126,5.22412,1.52002,2.77344,2.12793,4.10352,3.00146,6.51611l-2.1084,.646Zm5.9082-13.29834c-.1333,.22803-.22803,.45605-.37988,.81689-.79834,2.01367-1.12109,2.7168-2.48877,5.33838,1.53857,2.50732,2.39355,4.16016,3.32422,6.40186l-2.16553,.74121c-.55078-1.55811-.83594-2.2417-1.50049-3.70459-.70312-1.52002-1.02588-2.14697-1.84277-3.47656,1.08252-1.97559,1.80469-3.62842,2.52637-5.75635,.13281-.39893,.20898-.68359,.26611-1.04443l2.26074,.68359Z" fill="#44c38b"/>
        <path d="M479.12176,111.15786q.53174-.03809,1.97559-.36133c2.5835-.56982,4.29346-.79785,5.87012-.79785,2.16553,0,3.62842,.62695,4.4834,1.93799,.47461,.72168,.70264,1.51953,.70264,2.45068,0,2.52637-1.78564,4.57812-4.80615,5.52783-1.17773,.36133-1.65283,.43701-4.12256,.72217-.18994-.94971-.3418-1.31104-.81689-2.16553h.28516c.70264,0,1.7666-.11426,2.69775-.28516,1.48145-.28516,2.31738-.62695,3.17236-1.29199,.91162-.68359,1.34863-1.51953,1.34863-2.56445,0-1.48193-1.10156-2.27979-3.11523-2.27979-1.31104,0-2.77393,.20898-4.99658,.74121-1.21582,.28467-1.55762,.37988-2.20361,.64551l-.47461-2.2793Z" fill="#44c38b"/>
        <path d="M496.05194,106.59829c.41797,.01904,.62646,.01904,.72168,.01904q.3418,0,3.13477-.18994c1.06348-.05713,4.21729-.22803,9.47949-.4751,1.55762-.07568,1.84277-.09473,2.18457-.18994l.13281,2.43164q-.20898-.01904-.39893-.01904c-1.13965,0-2.54541,.38037-3.76123,1.02588-2.4126,1.25391-3.8374,3.15381-3.8374,5.07227,0,1.48193,.93066,2.62158,2.52637,3.09668,.93115,.28516,2.14697,.49414,2.83057,.49414,.01904,0,.18994,0,.38037-.01904l-.34229,2.5835c-.22803-.05713-.32275-.07617-.646-.11426-2.08936-.26562-3.28613-.60791-4.44531-1.25342-1.74756-.98779-2.71631-2.60303-2.71631-4.57861,0-1.61475,.646-3.21045,1.80469-4.4834,.72168-.77881,1.40576-1.27246,2.64062-1.89941-1.53906,.22803-2.27979,.28467-6.40234,.58887-1.27246,.09473-2.4126,.22803-3.15332,.37988l-.13281-2.46973Z" fill="#44c38b"/>
        <path d="M517.80682,105.04067c.43652,.07568,.91162,.09473,1.91846,.09473,1.13965,0,2.83057-.07568,3.53369-.1709,.37988-.03809,.5127-.07568,.75977-.22803l1.50098,1.29199c-.17139,.22803-.26611,.43701-.39893,.79785-.09521,.22803-1.25391,3.72363-1.4248,4.3125,1.48145,.20898,2.75439,.56982,4.19824,1.19678,.15186-.96875,.18994-1.74805,.18994-3.51465,0-.41797-.01904-.62695-.07617-1.00684l2.39355,.09521c-.07568,.39893-.09473,.55078-.11377,1.27246-.05713,1.67188-.15186,2.81201-.3418,4.02783,.60791,.30371,1.44385,.74072,2.03271,1.08252,.5127,.3042,.58887,.32324,.87354,.45605l-.85449,2.50781c-.55127-.4751-1.65283-1.21582-2.62207-1.76709-.53174,1.40576-1.10156,2.33691-2.07031,3.34375-.83594,.87354-1.78564,1.57666-2.86865,2.14648-.79785-.98779-.98779-1.17773-1.729-1.70947,1.4248-.68408,2.16602-1.17822,2.94482-1.99512,.75977-.81689,1.38672-1.84229,1.69092-2.81152-1.34912-.64551-2.46973-1.00684-4.27441-1.31055-.83594,2.50732-1.33008,3.72314-1.88086,4.67334-.70312,1.21582-1.55762,1.80469-2.60254,1.80469-1.74805,0-3.03955-1.53906-3.03955-3.60938,0-1.74805,.85498-3.22949,2.35547-4.16064,.98779-.60791,1.99463-.85498,3.59033-.91162,.49414-1.50098,.72217-2.22266,1.19727-3.9707-.96924,.07617-1.4248,.09521-3.28662,.1709-.77881,.03809-1.12109,.05713-1.50098,.11426l-.09473-2.22266Zm.56982,9.04248c-.4751,.51318-.72217,1.15869-.72217,1.82373,0,.77881,.41797,1.40576,.93115,1.40576,.36084,0,.646-.3418,1.08252-1.19678,.38037-.75977,.83594-1.9375,1.23486-3.17236-1.27246,.18994-1.9375,.49365-2.52637,1.13965Z" fill="#44c38b"/>
        <path d="M545.08954,104.18569c-.09521,.62695-.1333,1.55762-.1333,2.94482,0,.26562,0,.32275,.01904,1.23438,2.27979-.01855,4.36963-.24658,5.56641-.64551l.18994,2.29834q-.37988,.01904-1.23486,.11426c-1.5957,.20898-2.96338,.30371-4.46436,.3418,.03809,1.48193,.07617,2.33643,.20898,4.19824,1.06396,.32324,1.95654,.72217,2.96338,1.29199,.68408,.37988,1.00684,.60791,2.45068,1.61475,.24707,.1709,.34229,.24707,.56982,.37988l-1.48145,2.14648c-.34229-.41748-.646-.70264-1.34912-1.25342-.91162-.70312-1.50049-1.08301-2.50732-1.55811-.24707-.13281-.39893-.20898-.60791-.3418,.01904,.15186,.03809,.32275,.03809,.60791,0,2.12793-1.50098,3.24854-4.33154,3.24854-1.9375,0-3.28662-.55078-3.98926-1.63379-.28516-.4751-.4751-1.10156-.4751-1.69092,0-1.97559,1.95654-3.40039,4.69238-3.40039,.70264,0,1.38672,.07617,1.7666,.18994q-.01904-.05664-.01904-.18994c-.07568-.68359-.24707-5.87012-.26562-8.24463-.01904-.94971-.01904-1.13965-.09521-1.67188l2.48877,.01904Zm-3.8374,11.93018c-1.4248,0-2.375,.56982-2.375,1.40576,0,.45605,.20898,.76025,.646,.98779,.36084,.17139,.87402,.28516,1.38672,.28516,.72217,0,1.34912-.18994,1.729-.5127,.26562-.22803,.39893-.58936,.39893-1.06396,0-.34229-.01904-.87402-.01904-.89307-.70312-.1709-1.04492-.20898-1.7666-.20898Z" fill="#44c38b"/>
        <path d="M556.11102,110.34096q.49414-.01904,2.2041-.32324c2.69727-.47461,4.3501-.646,5.96484-.646,1.53906,0,2.7168,.24707,3.59033,.7793,1.17822,.70264,1.84277,1.97559,1.84277,3.47607,0,2.16602-1.31055,4.1416-3.60938,5.45264-1.55762,.89258-2.8877,1.2915-5.98389,1.78564-.18994-1.00684-.39893-1.48193-.98779-2.375,2.20361-.09473,4.25537-.62646,5.71777-1.44336,1.50098-.83594,2.31787-2.03271,2.31787-3.34375,0-1.4248-1.00684-2.14648-2.98242-2.14648-2.14697,0-5.94629,.66455-7.52295,1.31055l-.55127-2.52637Zm2.96387-6.06006c2.1084,.70264,4.92041,1.10156,7.92188,1.10156h.53174l-.32275,2.33691c-3.45752-.15234-6.0791-.49414-8.87207-1.19678l.74121-2.2417Z" fill="#44c38b"/>
      </g>
      <rect width="427.11677" height="75.82553" fill="#fff" opacity=".98"/>
      <g>
        <g>
          <path d="M84.22849,53.37384l.52514-1.51893,.52405-1.519,.52898-1.51632,.52913-1.51707,.53713-1.51704,.52143-1.52218,.53111-1.51731,.5292-1.51915,.52028-1.52419,.53159-1.51837,.53037-1.52078,.52753-1.52082,.53871-1.51854,.51513-1.52192,.53679-1.51443,.53227-1.52163,.5225-1.52221,.52936-1.52212,.53539-1.52194,.52755-1.52223,.52393-1.52749,.52935-1.52836,.53976-1.52201,1.85454-.01046,1.85978,.00695,1.86314-.00528,.52427,1.52562,.52382,1.51908,.5345,1.5144,.52714,1.51776,.52475,1.52134,.52859,1.51969,.53095,1.51737,.52354,1.52112,.52967,1.52093,.53664,1.51661,.52359,1.52314,.5265,1.52117,.53407,1.52015,.52583,1.5182,.52948,1.51698,.5315,1.5219,.52996,1.51962,.53234,1.52108,.52646,1.52505,.52447,1.52331,.53505,1.52362,.53482,1.52646,.52769,1.53135-1.55725,.00363-1.55851-.00705-1.56102,.00248-1.55772-.0053-.48532-1.44196-.47326-1.4472-.46657-1.45315-.47746-1.45216-.4829-1.45081-1.57696,.00688-1.57394-.00184-1.57606-.00991-1.57783,.00402-1.57559,.00159-1.57927,.00046-1.58182,.00264-1.58334-.00542-.46991,1.45224-.48544,1.44319-.46863,1.45247-.48611,1.44932-.47419,1.4498-1.56432,.00786-1.57116-.00977-1.5737,.00617-1.57149-.00131Zm10.28644-12.31568l1.55423-.00289,1.55374-.00406,1.55153,.00148,1.55516,.00137,1.55767,.00894,1.55661-.00701-.51345-1.56564-.5173-1.57117-.52601-1.56542-.51475-1.57147-.51717-1.57263-.519-1.56955-.50947-1.57676-.53251-1.57198-.5131-1.58088-.52141,1.56659-.51177,1.57299-.5171,1.56836-.52325,1.56867-.51672,1.57278-.51109,1.57216-.51689,1.57432-.5299,1.57284-.51803,1.57896Z" fill="#44c38b"/>
          <path d="M133.19552,34.36375l-.9685-1.06524-1.25831-.69032-1.42273-.21533-1.62583,.27069-1.40385,.85478-.97786,1.3264-.50875,1.57114-.14863,1.64984-.0031,1.69483,.00576,1.70044,.00109,1.69763-.00772,1.69991,.00094,1.70183-.00021,1.6994,.00062,1.70338,.00493,1.70612-.00439,1.7028-1.80302,.00436-1.80908,.00181-1.80569-.00647-.00015-1.68524-.00429-1.68699-.00052-1.68896,.00437-1.68802-.00359-1.68962,.0041-1.68485-.00787-1.68489,.00357-1.69046,.00328-1.68767-.0044-1.68994,.00206-1.69184-.0035-1.68943,.00178-1.69339-.00212-1.69612,.00134-1.69877,1.77494,.00043,1.77525,.00107,1.77232,.00343,.00167,2.2792,1.08246-1.2344,1.38632-.87722,1.56836-.48742,1.64189-.13391,1.67002,.12233,1.61697,.42712,1.48277,.77032,1.2624,1.09553,1.01503,1.33192-1.43814,1.00852-1.43529,1.01699-1.43673,1.01431Z" fill="#44c38b"/>
          <path d="M160.27069,49.51972l-1.02219,1.44512-1.31119,1.17752-1.54394,.84477-1.68694,.51819-1.7459,.25907-1.76826,.07177-1.6418-.0898-1.61937-.27212-1.5651-.49699-1.46933-.73028-1.32265-.97159-1.12574-1.19349-.8955-1.3736-.67434-1.49432-.44861-1.57767-.2641-1.62026-.07499-1.64134,.00115-1.72362-.004-1.72362,.06673-1.59083,.19377-1.57885,.36008-1.54824,.55355-1.48949,.77839-1.38584,1.02981-1.20799,1.23534-.99545,1.40658-.73432,1.51392-.47917,1.56605-.26669,1.58906-.0774,1.61415,.07832,1.58945,.27592,1.53262,.50098,1.41783,.76547,1.23543,1.03227,1.00249,1.26067,.75333,1.42431,.52574,1.52278,.33383,1.57853,.18365,1.60381,.04751,1.61544,.00483,1.39409,.00259,1.39793-1.68119-.00107-1.68355-.00738-1.68077,.00745-1.68303,.002-1.68492-.00811-1.68252,.00324-1.68646,.00057-1.68918,.0031-1.68933-.00613-.00372,.1039,.10603,1.6938,.35638,1.65509,.71657,1.53105,1.15158,1.23089,1.52113,.723,1.67789,.21234,1.52096-.09143,1.47227-.3866,1.27387-.82297,.95401-1.18144,1.35311,.94068,1.34764,.95389,1.35931,.94017Zm-14.75441-11.66155l1.60926,.00225,1.61285,.00455,1.61055-.00236,1.61432-.00255,1.61692-.00225,1.61531,.00084-.20314-1.65532-.52154-1.58159-.98748-1.329-1.45399-.78491-1.6482-.21644-1.64121,.23276-1.44395,.80239-.9943,1.32369-.55348,1.56469-.23194,1.64324Z" fill="#44c38b"/>
          <path d="M175.27186,38.41701l1.82302-.00077,1.82596,.00217,1.82316-.00024-.00081-2.12671-.12324-1.51749-.61413-1.37679-1.26286-.81482-1.49037-.28699-1.52447-.06223-1.53717,.05473-1.50943,.27732-1.31593,.76222-.95942,1.18596-1.30139-.90685-1.30146-.91354-1.29743-.9164,.918-1.27291,1.15599-1.06402,1.34792-.80419,1.47273-.53795,1.54112-.31804,1.56461-.16291,1.57669-.04156,1.7142,.05108,1.70818,.18957,1.66877,.39832,1.56631,.68947,1.34296,1.0541,.99147,1.38923,.60556,1.59913,.30828,1.6832,.08145,1.71299,.00446,1.70143-.00659,1.69729,.00034,1.7029,.00623,1.70009-.00864,1.70237,.00613,1.70429,.00174,1.70186-.0021,1.70585-.00226,1.7086,.00379,1.71225-1.77592,.00151-1.77525-.01007-1.77122,.00184-.00905-2.32795-1.06529,1.33592-1.43792,.9194-1.65676,.42422-1.71553,.10794-1.69894-.09209-1.66932-.32081-1.5956-.58475-1.44553-.88894-1.17876-1.21945-.83342-1.47642-.46628-1.63197-.13941-1.69405,.1565-1.70668,.50655-1.63294,.91811-1.43925,1.28342-1.12527,1.51868-.78085,1.64108-.48629,1.6945-.25407,1.71397-.08098Zm5.47287,4.16338l-1.68591,.00144-1.6907-.00217-1.6907,.00153-1.60417,.1179-1.52419,.49781-1.08132,1.15678-.3052,1.56966,.31081,1.49936,1.02706,1.12522,1.43785,.53298,1.53636,.14072,1.75945-.13515,1.65614-.58285,1.18635-1.278,.53876-1.66906,.1367-1.76247-.00728-1.21371Z" fill="#44c38b"/>
          <path d="M227.53744,42.27329l-.06543,1.63283-.2264,1.61676-.39969,1.58431-.61045,1.51271-.8379,1.39888-1.07291,1.22719-1.28944,.99657-1.44843,.74524-1.55644,.48781-1.60849,.27149-1.6322,.08568-1.63164-.0918-1.60854-.27334-1.5532-.50189-1.44815-.75093-1.28718-1.00049-1.08766-1.21456-.84854-1.39227-.62502-1.50587-.41309-1.57878-.22462-1.61718-.07158-1.63235,.005-1.59683-.00742-1.59683,.0732-1.63382,.21327-1.61999,.40372-1.58308,.61555-1.51201,.85468-1.39053,1.08683-1.21549,1.2986-.98566,1.45548-.73414,1.55866-.4814,1.60936-.27134,1.63228-.08008,1.63017,.0771,1.60678,.2741,1.55593,.48467,1.4513,.73921,1.29231,.98862,1.08721,1.21156,.83917,1.39501,.60727,1.50978,.39681,1.58055,.21761,1.61582,.066,1.63111-.00864,1.59683,.00586,1.59683Zm-5.37478-.15204l-.00275-1.47011,.0061-1.47011-.095-1.65774-.33433-1.62499-.68712-1.50504-1.12871-1.20121-1.48957-.7025-1.64161-.19985-1.65115,.19701-1.49998,.70125-1.13466,1.20276-.70232,1.50304-.33864,1.62449-.09587,1.66279-.0012,1.47011-.00327,1.47011,.09794,1.68952,.32443,1.65618,.68054,1.54078,1.13406,1.2364,1.51539,.71899,1.67473,.20336,1.65472-.21763,1.48202-.75792,1.1112-1.2387,.67573-1.52547,.34643-1.63429,.10288-1.67124Z" fill="#44c38b"/>
          <path d="M234.73627,28.02952l-.00539-1.57278,.0723-1.69234,.26134-1.67097,.56462-1.59219,.99551-1.35678,1.4031-.92952,1.60359-.52632,1.67504-.22329,1.69172-.07573,1.57146,.0068-.00602,1.62036,.00312,1.62309,.00086,1.62154-1.1638,.00314-1.56375,.19866-1.23189,.92275-.42679,1.50509-.07577,1.5795,.00279,.55842,1.48572-.00452,1.48783-.00054,1.48773,.00439-.00489,1.5529,.00404,1.55549-.00344,1.5513-1.48105,.00353-1.48783,.00638-1.49104-.00873,.00019,1.59295-.00186,1.58906,.00153,1.59056-.00185,1.58607,.00434,1.58611,.00218,1.59136-.00374,1.58873-.0022,1.59086-.00076,1.59266,.00052,1.59039,.00227,1.59411-.00399,1.59668,.011,1.60164-1.7937,.0005-1.79217-.00753-1.79337,.00343,.00599-1.59131-.00195-1.58906-.00939-1.59056,.0063-1.58607,.00495-1.58611-.00232-1.59136,.00461-1.58873-.00693-1.59086,.00373-1.59266,.00099-1.59039-.0006-1.59411,.00147-1.59668-.00798-1.59432-1.61989-.0018-1.62064-.00221,.0044-1.55135-.00874-1.55549,.00551-1.55264,1.61947,.00336,1.62351-.00489Z" fill="#44c38b"/>
          <path d="M265.50444,46.17239l1.00548,1.0943,1.24175,.80655,1.399,.48516,1.47514,.15507,1.58254-.13936,1.50548-.49514,1.24771-.97176,.85771-1.3323,.51224-1.5035,.2921-1.56184,.14025-1.58134,.0442-1.59235,.00181-1.62503-.00361-1.62412-.0006-1.62566,.01079-1.62107-.00432-1.62111-.00469-1.62647,.00328-1.62379,.00192-1.62597-.00401-1.6278-.00167-1.62548,.00788-1.62929v-1.63191s-.00201-1.62981-.00201-1.62981l1.46404,.00013,1.46982-.00412,1.47219-.00509,1.46956,.00935,.00492,1.62265,.00057,1.62412,.00227,1.62566-.00226,1.62107-.00995,1.62111,.00891,1.62647-.00153,1.62379-.00189,1.62597-.00476,1.6278,.00844,1.62548-.00589,1.62929,.00733,1.63191-.00213,1.63191-.0457,1.63872-.12329,1.63129-.23469,1.62133-.37555,1.59384-.52983,1.54763-.72994,1.46414-.9472,1.33188-1.15802,1.15058-1.3509,.91642-1.49228,.66064-1.57451,.43227-1.61648,.24086-1.6348,.06513-1.69381-.08761-1.67856-.24897-1.62882-.47077-1.55278-.67946-1.42463-.91793-1.26191-1.13094-1.04758-1.32727,1.63461-.93087,1.64233-.92579,1.63634-.9386Z" fill="#44c38b"/>
          <path d="M298.86167,38.41568l1.82302,.00281,1.82596,.00134,1.82678,.00143-.00457-2.12981-.1244-1.51723-.6137-1.37632-1.26429-.80872-1.48828-.29158-1.52426-.05784-1.53713,.04853-1.50801,.28126-1.31651,.75882-.96245,1.19328-1.30064-.91313-1.30213-.91258-1.2992-.91653,.92561-1.27246,1.15157-1.0682,1.34573-.80943,1.47481-.53464,1.54099-.32142,1.56558-.15587,1.57664-.04343,1.71443,.0486,1.70681,.19995,1.66832,.39639,1.56965,.68155,1.34121,1.05709,.98839,1.39084,.60922,1.59738,.30253,1.6839,.0894,1.71244-.00002,1.70143-.00078,1.69729-.00082,1.7029-.0059,1.70009,.00632,1.70237,.00099,1.70429-.0004,1.70186-.00328,1.70585,.00479,1.7086-.00313,1.70962-1.77339-.00616-1.77525,.00804-1.77597-.00237-.00108-2.33214-1.0681,1.33694-1.43813,.91943-1.65648,.42722-1.71601,.09902-1.69822-.09276-1.67168-.30855-1.59778-.5829-1.43727-.90247-1.18286-1.21415-.82777-1.47863-.46646-1.63053-.13894-1.69304,.14226-1.70816,.51414-1.63164,.91238-1.44435,1.28499-1.12681,1.52228-.77645,1.64076-.48978,1.69536-.25258,1.71438-.0779Zm5.4721,4.16578l-1.68513-.00189-1.6907-.00134-1.6907-.00181-1.60415,.12281-1.52355,.49883-1.08095,1.1561-.29903,1.56918,.30563,1.49839,1.02853,1.12056,1.43443,.5382,1.53627,.13653,1.75923-.13183,1.65186-.58886,1.1887-1.27188,.53735-1.66849,.1355-1.76186-.00327-1.21264Z" fill="#44c38b"/>
          <path d="M339.2576,42.37469l-.06613,1.72045-.25069,1.70374-.45454,1.66012-.67649,1.58262-.94249,1.4375-1.18373,1.24531-1.42483,.95881-1.58397,.66545-1.67913,.37162-1.71799,.1073-1.6657-.08865-1.6394-.31145-1.53406-.6384-1.29594-1.0363,.0008,1.60389,.00571,1.6057-.009,1.60751,.00117,1.60522-.00144,1.60898-.00149,1.61157,.00544,1.61168-1.80626,.00646-1.80908-.0121-1.80482,.00089-.0084-1.65641,.01032-1.66184-.00172-1.66452-.00681-1.66421,.00391-1.66275-.00055-1.66389-.00532-1.66579,.00328-1.66394,.00048-1.66588,.00046-1.66495-.00145-1.66653,.0014-1.66182,.00367-1.66186,.00103-1.66736-.00227-1.66461-.00769-1.66684,.01206-1.66873-.00138-1.66635-.00832-1.67025,.00949-1.67294-.01124-1.67809,1.81093,.00231,1.80908,.00733,1.80889-.00433-.00055,2.02784,1.25892-1.17143,1.53254-.7836,1.67276-.40898,1.72116-.11874,1.70487,.10874,1.66454,.38102,1.57769,.65065,1.40914,.96049,1.19811,1.21374,.93867,1.42494,.67469,1.56653,.44103,1.64937,.25213,1.68943,.07846,1.70908,.00318,1.72364-.01315,1.72361Zm-5.36015-.25345l-.0115-1.47011,.00117-1.47011-.08933-1.65766-.34096-1.62282-.67689-1.50919-1.1348-1.19498-1.48595-.70854-1.64206-.20055-1.59601,.19291-1.46208,.65275-1.12876,1.13486-.70645,1.4407-.36058,1.56272-.12079,1.60558,.00085,1.62222,.00571,1.62222,.0787,1.68598,.31887,1.65346,.66247,1.54534,1.12276,1.24488,1.51502,.71316,1.67029,.19715,1.65523-.21061,1.48763-.75175,1.09988-1.24985,.69153-1.51893,.34369-1.63659,.10235-1.67224Z" fill="#44c38b"/>
          <path d="M354.47233,38.42147l1.82307-.00612,1.82601,.0081,1.82225-.00612,.00193-2.12588-.1295-1.51661-.60901-1.37829-1.26474-.81083-1.48915-.29153-1.5246-.05566-1.53754,.04481-1.50939,.28079-1.31893,.75953-.95707,1.19346-1.30265-.90737-1.30071-.91454-1.30131-.91459,.92354-1.27693,1.15273-1.06831,1.34844-.80561,1.47464-.5349,1.54118-.31982,1.56531-.15743,1.57661-.04052,1.71444,.04541,1.70691,.19942,1.66993,.39168,1.56496,.69195,1.34587,1.05036,.98706,1.39225,.60941,1.59741,.30711,1.6835,.08605,1.71298-.0039,1.70143-.00394,1.69729-.00029,1.7029,.00183,1.70009,.00404,1.70237-.00455,1.70429,.00223,1.70186,.0048,1.70585-.00096,1.7086-.0011,1.71173-1.77541-.00737-1.77525-.00006-1.77231,.00207-.00364-2.32955-1.07051,1.33574-1.43641,.92188-1.65728,.42359-1.71567,.1113-1.69882-.09734-1.66965-.319-1.59592-.58443-1.44225-.8935-1.17862-1.21817-.83573-1.4745-.45987-1.63295-.14636-1.69283,.15154-1.70759,.50757-1.63379,.91756-1.44131,1.28774-1.12161,1.5176-.7837,1.64179-.4854,1.69495-.25181,1.71395-.07666Zm5.47562,4.15529l-1.68854,.00594-1.69073-.0081-1.69073,.00785-1.60447,.11487-1.52164,.50352-1.08441,1.15244-.3008,1.57005,.30619,1.49987,1.03096,1.12011,1.43411,.54202,1.53724,.13739,1.76033-.1313,1.65324-.59111,1.18493-1.27657,.53955-1.66763,.13258-1.76202,.00219-1.21734Z" fill="#44c38b"/>
          <path d="M373.32842,28.02658l1.77393,.00274,1.77525-.0046,1.77439,.00413-.0022,2.28119,1.23816-1.28014,1.55126-.86596,1.71849-.4608,1.78121-.12775,1.71851,.09731,1.6847,.35067,1.59291,.64618,1.41273,.97669,1.13423,1.28984,.81273,1.51009,.51583,1.64151,.27633,1.69738,.08101,1.72298-.00483,1.58145-.00108,1.58149,.00593,1.58672-.00646,1.58411,.00359,1.58623,.0037,1.58802-.00836,1.58576,.00221,1.58947,.00615,1.59203-.00076,1.595-1.79194-.00298-1.79219-.00237-1.79295,.00319,.00073-1.69003-.00052-1.69481-.00441-1.69202,.00237-1.69429,.00127-1.6962,.00459-1.69378-.00757-1.69774,.00652-1.70048-.00539-1.70048-.11322-1.71878-.47011-1.65446-1.00802-1.37622-1.51642-.77943-1.70493-.20433-1.72426,.23779-1.55174,.77876-1.13646,1.31047-.62643,1.62145-.17853,1.73413-.00302,1.69483-.00143,1.70044,.00043,1.69763,.00167,1.69991-.00192,1.70183-.00084,1.6994-.00388,1.70338,.00106,1.70612,.00605,1.70845-1.80836,.00257-1.80908-.00094-1.8103-.00265,.00577-1.69018-.0088-1.68699,.00342-1.68896-.00051-1.68802,.00476-1.68962,.00121-1.68485-.00429-1.68489-.00544-1.69046,.00877-1.68767-.0018-1.68994,.00107-1.69184-.00176-1.68943,.00397-1.69339-.00238-1.69612-.00429-1.69772Z" fill="#44c38b"/>
        </g>
        <path d="M48.05309,51.2342l1.85812-1.50261,.89382-1.35536,.88275-1.36135,.85023-1.38584,.8394-1.38593,.80713-1.409,.8013-1.41527,.75897-1.43941,.72159-1.46013,.69715-1.47376,.63407-1.50323,.57809-1.52303,.49368-1.55228,.36216-1.5864,.13692-1.61464-.0953-1.60016-.31113-1.57248-.51567-1.51761-.70995-1.43717-.90011-1.32522-1.05511-1.20462-1.19948-1.06173-1.33154-.89124-1.43611-.71077-1.51669-.5169-1.57336-.30417-1.59892-.11269-1.60055,.10366-1.57129,.31715-1.51529,.5202-1.43669,.70865-1.3307,.89143-1.20433,1.05597-1.05758,1.20304-.88719,1.3334-.70927,1.43565-.52683,1.51284-.30245,1.57383-.11168,1.59893,.15624,1.61304,.35267,1.58468,.49415,1.5479,.57368,1.52115,.63728,1.4953,.68641,1.47501,.7235,1.46002,.77083,1.43625,.78659,1.42703,.82109,1.40385,.83045,1.40194,.86537,1.37782,.86726,1.37236,.90923,1.34449,1.84978,1.50186-1.64727,.00211-1.6459,.00693-1.6481,.00373-1.64996-.00918-1.64761,.00686-1.65147,.00199-1.65413-.00325-1.6536-.00324,.00233,2.03669-.00579,2.03951,1.66147-.00664,1.65968,.01057,1.66157-.00653,1.65972,.00675,1.66166-.00247,1.66073-.00888,1.6623,.00718,1.65761-.00733,1.65765,.00975,1.66314,.0022,1.66039-.00316,1.66262-.00073,1.6645-.00174,1.66213,.00468,1.66602-.00818,1.6687,.00399,1.66616-.00391,.00704-2.03504-.00651-2.03549-1.64659-.00414-1.64588,.00244-1.64809-.00449-1.64995,.00641-1.6476-.00241-1.65145,.00372-1.65411-.00575-1.65412,.0026Zm-6.88029-21.96824l.20366-1.54137,.58801-1.43907,.95333-1.22787,1.22748-.95359,1.43876-.58935,1.54108-.20847,1.54039,.2147,1.43568,.59189,1.23775,.94027,.94083,1.23719,.60206,1.43312,.19885,1.54256-.20806,1.54105-.59872,1.4325-.93718,1.23901-1.23712,.94003-1.43448,.59456-1.54,.2018-1.54097-.20172-1.4399-.58579-1.2323-.94922-.94135-1.23663-.59492-1.43499-.2029-1.54062Z" fill="#44c38b"/>
      </g>
    </g>
  </g>
</svg>