<?xml version="1.0" encoding="UTF-8"?>
<svg id="b" data-name="レイヤー 2" xmlns="http://www.w3.org/2000/svg" width="427.11677" height="132.02016" viewBox="0 0 427.11677 132.02016">
  <g id="c" data-name="text">
    <g>
      <rect y="91.27016" width="347.45282" height="40.75" fill="#fff" opacity=".98"/>
      <g>
        <path d="M43.31707,103.23989v2.85645h-4.56006v13.70508h-3.36035v-13.70508h-4.56055v-2.85645h12.48096Z" fill="#44c38b"/>
        <path d="M51.35663,111.13686c-.31201-.45605-.74414-.91211-1.51221-.91211-1.15186,0-1.91992,.83984-1.91992,2.52002v7.05664h-3.07227v-12.00098h3v1.00781c.4082-.59961,1.2002-1.22412,2.6167-1.22412,1.43994,0,2.52002,.62451,3.24023,1.87256l-2.35254,1.68018Z" fill="#44c38b"/>
        <path d="M58.96502,112.60073h2.37598v-.6958c0-1.34424-.40771-1.77637-2.13574-1.77637-1.17627,0-1.75244,.16797-2.25635,.95996l-2.16016-1.51221c.88818-1.46387,2.23193-1.99219,4.7041-1.99219,3.09668,0,4.84863,.91211,4.84863,4.34473v7.87256h-3.00049v-1.05615c-.47998,.81592-1.19971,1.27197-2.5918,1.27197-2.49658,0-4.22461-1.31982-4.22461-3.76807,0-2.54443,1.92041-3.64844,4.44043-3.64844Zm2.37598,2.25635h-2.01611c-1.24805,0-1.7998,.40771-1.7998,1.34424,0,.91162,.6958,1.34375,1.75195,1.34375,1.39209,0,2.06396-.6001,2.06396-2.23193v-.45605Z" fill="#44c38b"/>
        <path d="M78.0451,107.80043l-4.56055,12.00098h-2.88037l-4.65625-12.00098h3.36035l2.68799,7.77637,2.66455-7.77637h3.38428Z" fill="#44c38b"/>
        <path d="M88.82049,117.97719c-.83984,1.46436-2.23193,2.04004-4.39209,2.04004-3.60059,0-5.32861-2.32812-5.32861-5.42432v-1.63232c0-3.62402,1.82422-5.37646,4.94434-5.37646,3.38428,0,4.94482,1.96826,4.94482,5.6167v1.36816h-6.84082c.02393,1.65625,.55225,2.85645,2.25635,2.85645,1.27197,0,1.68018-.38428,2.13623-1.03223l2.27979,1.58398Zm-6.67236-5.59229h3.76855c-.07227-1.56006-.69629-2.2085-1.84863-2.2085-1.22363,0-1.7998,.84033-1.91992,2.2085Z" fill="#44c38b"/>
        <path d="M91.79608,103.23989h3.07227v12.0249c0,1.29639,.38379,1.89648,1.68018,1.89648v2.64014c-3.24023,0-4.75244-.83984-4.75244-3.84033v-12.72119Z" fill="#44c38b"/>
        <path d="M99.47625,103.23989h3.31201v2.97656h-3.31201v-2.97656Zm.11963,4.56055h3.07227v12.00098h-3.07227v-12.00098Z" fill="#44c38b"/>
        <path d="M106.07635,107.80043h3.00049v1.00781c.45557-.59961,1.41602-1.22412,2.75977-1.22412,2.42432,0,4.39258,1.15234,4.39258,4.70459v7.5127h-3.04834v-7.03271c0-1.87207-.67188-2.54395-1.91992-2.54395-1.4165,0-2.1123,.93604-2.1123,2.52002v7.05664h-3.07227v-12.00098Z" fill="#44c38b"/>
        <path d="M126.18768,107.80043h3.04834v11.76074c0,4.00879-2.25635,4.94434-5.28076,4.94434-2.23193,0-3.64795-.52734-4.7041-2.16016l2.06396-1.48779c.52832,.72021,1.22412,1.08008,2.35205,1.08008,1.82422,0,2.52051-.52832,2.52051-2.37646v-.38379c-.64795,.55225-1.48828,.83984-2.56836,.83984-3.14404,0-4.75244-2.23193-4.75244-5.42432v-1.63232c0-3.50391,1.89648-5.37646,4.75244-5.37646,1.08008,0,1.92041,.28809,2.56836,.84033v-.62402Zm0,6.86475v-1.51221c0-1.92041-.62402-2.97656-2.13623-2.97656s-2.13623,1.05615-2.13623,2.97656v1.24805c0,1.72803,.47998,3.02441,2.13623,3.02441,1.63232,0,2.13623-1.17627,2.13623-2.76025Z" fill="#44c38b"/>
        <path d="M138.01922,107.80043h1.53613v-2.64014h3.04834v2.64014h2.35205v2.59229h-2.35205v5.01611c0,1.2002,.24023,1.7041,1.36816,1.7041h.98389v2.68848h-1.2959c-2.9043,0-4.10449-.81592-4.10449-3.91211v-5.49658h-1.53613v-2.59229Z" fill="#44c38b"/>
        <path d="M147.45184,103.23989h3.07227v5.49658c.45605-.6001,1.2959-1.15234,2.68799-1.15234,2.42432,0,4.39258,1.15234,4.39258,4.70459v7.5127h-3.04834v-7.03271c0-1.87207-.67188-2.54395-1.91992-2.54395-1.41602,0-2.1123,.93604-2.1123,2.52002v7.05664h-3.07227v-16.56152Z" fill="#44c38b"/>
        <path d="M169.96356,117.97719c-.83984,1.46436-2.23193,2.04004-4.39209,2.04004-3.60059,0-5.32861-2.32812-5.32861-5.42432v-1.63232c0-3.62402,1.82422-5.37646,4.94434-5.37646,3.38428,0,4.94482,1.96826,4.94482,5.6167v1.36816h-6.84082c.02393,1.65625,.55225,2.85645,2.25635,2.85645,1.27197,0,1.68018-.38428,2.13623-1.03223l2.27979,1.58398Zm-6.67236-5.59229h3.76855c-.07227-1.56006-.69629-2.2085-1.84814-2.2085-1.22412,0-1.80029,.84033-1.92041,2.2085Z" fill="#44c38b"/>
        <path d="M180.88299,115.985c.52783,.74414,1.34375,1.2002,2.25586,1.2002,1.6084,0,2.47217-.86426,2.47217-3.74414v-10.20117h3.36035v10.20117c0,4.77637-2.13623,6.57617-5.61621,6.57617-2.37646,0-4.12842-.86377-5.25635-2.47217l2.78418-1.56006Z" fill="#44c38b"/>
        <path d="M201.85956,119.80141l-2.97607-6.50439h-2.68848v6.50439h-3.35986v-16.56152h5.92822c3.81641,0,6.19287,1.7041,6.19287,5.06445,0,2.23242-1.03223,3.69629-2.83252,4.44043l3.43213,7.05664h-3.69629Zm-3.4082-9.33691c1.99219,0,3.14453-.43213,3.14453-2.16016s-1.15234-2.20801-3.14453-2.20801h-2.25635v4.36816h2.25635Z" fill="#44c38b"/>
        <path d="M223.53143,108.37661c-.31201-1.56055-1.22412-2.52051-2.85596-2.52051-1.94434,0-2.97656,1.32031-2.97656,4.48828v2.35254c0,3.07227,1.03223,4.48828,2.97656,4.48828,1.68018,0,2.49609-.83984,2.85596-2.52002h3.19238c-.55225,3.72021-2.64014,5.35205-6.04834,5.35205-3.7207,0-6.33691-2.25586-6.33691-7.32031v-2.35254c0-5.1123,2.61621-7.32031,6.33691-7.32031,3.28809,0,5.52051,1.72803,6.07227,5.35254h-3.21631Z" fill="#44c38b"/>
        <path d="M229.29022,103.23989h3.07227v5.49658c.45605-.6001,1.2959-1.15234,2.68799-1.15234,2.42432,0,4.39258,1.15234,4.39258,4.70459v7.5127h-3.04834v-7.03271c0-1.87207-.67188-2.54395-1.91992-2.54395-1.4165,0-2.1123,.93604-2.1123,2.52002v7.05664h-3.07227v-16.56152Z" fill="#44c38b"/>
        <path d="M252.66717,119.80141h-3v-1.0083c-.50439,.81641-1.15234,1.22412-2.73633,1.22412-2.42432,0-4.4165-1.19971-4.4165-4.72803v-7.48877h3.07227v7.03271c0,1.896,.67188,2.54395,1.94434,2.54395,1.41602,0,2.08789-.86377,2.08789-2.52002v-7.05664h3.04834v12.00098Z" fill="#44c38b"/>
        <path d="M265.6745,114.49672c0,3.28857-1.56055,5.52051-5.18457,5.52051-3.48047,0-5.18457-2.16016-5.18457-5.52051v-1.43994c0-3.6001,1.89648-5.47266,5.18457-5.47266,3.33643,0,5.18457,1.87256,5.18457,5.47266v1.43994Zm-3.04834-.0957v-1.24805c0-1.92041-.62402-2.97656-2.13623-2.97656s-2.13623,1.05615-2.13623,2.97656v1.24805c0,1.72803,.43213,3.02441,2.13623,3.02441,1.68018,0,2.13623-1.29639,2.13623-3.02441Z" fill="#44c38b"/>
        <path d="M278.68133,116.96938h6.96094v2.83203h-10.3208v-16.56152h3.35986v13.72949Z" fill="#44c38b"/>
        <path d="M287.84881,103.23989h3.31201v2.97656h-3.31201v-2.97656Zm.11963,4.56055h3.07227v12.00098h-3.07227v-12.00098Z" fill="#44c38b"/>
        <path d="M294.44891,107.80043h3v1.00781c.45605-.59961,1.4165-1.22412,2.76025-1.22412,2.42432,0,4.39258,1.15234,4.39258,4.70459v7.5127h-3.04834v-7.03271c0-1.87207-.67188-2.54395-1.91992-2.54395-1.41602,0-2.1123,.93604-2.1123,2.52002v7.05664h-3.07227v-12.00098Z" fill="#44c38b"/>
        <path d="M316.96063,117.97719c-.83984,1.46436-2.23193,2.04004-4.39209,2.04004-3.60059,0-5.32861-2.32812-5.32861-5.42432v-1.63232c0-3.62402,1.82422-5.37646,4.94434-5.37646,3.38428,0,4.94482,1.96826,4.94482,5.6167v1.36816h-6.84082c.02393,1.65625,.55225,2.85645,2.25635,2.85645,1.27197,0,1.68018-.38428,2.13623-1.03223l2.27979,1.58398Zm-6.67236-5.59229h3.76855c-.07227-1.56006-.69629-2.2085-1.84814-2.2085-1.22412,0-1.80029,.84033-1.92041,2.2085Z" fill="#44c38b"/>
      </g>
      <rect width="427.11677" height="75.82553" fill="#fff" opacity=".98"/>
      <g>
        <g>
          <path d="M84.22849,53.37384l.52514-1.51893,.52405-1.519,.52898-1.51632,.52913-1.51707,.53713-1.51704,.52143-1.52218,.53111-1.51731,.5292-1.51915,.52028-1.52419,.53159-1.51837,.53037-1.52078,.52753-1.52082,.53871-1.51854,.51513-1.52192,.53679-1.51443,.53227-1.52163,.5225-1.52221,.52936-1.52212,.53539-1.52194,.52755-1.52223,.52393-1.52749,.52935-1.52836,.53976-1.52201,1.85454-.01046,1.85978,.00695,1.86314-.00528,.52427,1.52562,.52382,1.51908,.5345,1.5144,.52714,1.51776,.52475,1.52134,.52859,1.51969,.53095,1.51737,.52354,1.52112,.52967,1.52093,.53664,1.51661,.52359,1.52314,.5265,1.52117,.53407,1.52015,.52583,1.5182,.52948,1.51698,.5315,1.5219,.52996,1.51962,.53234,1.52108,.52646,1.52505,.52447,1.52331,.53505,1.52362,.53482,1.52646,.52769,1.53135-1.55725,.00363-1.55851-.00705-1.56102,.00248-1.55772-.0053-.48532-1.44196-.47326-1.4472-.46657-1.45315-.47746-1.45216-.4829-1.45081-1.57696,.00688-1.57394-.00184-1.57606-.00991-1.57783,.00402-1.57559,.00159-1.57927,.00046-1.58182,.00264-1.58334-.00542-.46991,1.45224-.48544,1.44319-.46863,1.45247-.48611,1.44932-.47419,1.4498-1.56432,.00786-1.57116-.00977-1.5737,.00617-1.57149-.00131Zm10.28644-12.31568l1.55423-.00289,1.55374-.00406,1.55153,.00148,1.55516,.00137,1.55767,.00894,1.55661-.00701-.51345-1.56564-.5173-1.57117-.52601-1.56542-.51475-1.57147-.51717-1.57263-.519-1.56955-.50947-1.57676-.53251-1.57198-.5131-1.58088-.52141,1.56659-.51177,1.57299-.5171,1.56836-.52325,1.56867-.51672,1.57278-.51109,1.57216-.51689,1.57432-.5299,1.57284-.51803,1.57896Z" fill="#44c38b"/>
          <path d="M133.19552,34.36375l-.9685-1.06524-1.25831-.69032-1.42273-.21533-1.62583,.27069-1.40385,.85478-.97786,1.3264-.50875,1.57114-.14863,1.64984-.0031,1.69483,.00576,1.70044,.00109,1.69763-.00772,1.69991,.00094,1.70183-.00021,1.6994,.00062,1.70338,.00493,1.70612-.00439,1.7028-1.80302,.00436-1.80908,.00181-1.80569-.00647-.00015-1.68524-.00429-1.68699-.00052-1.68896,.00437-1.68802-.00359-1.68962,.0041-1.68485-.00787-1.68489,.00357-1.69046,.00328-1.68767-.0044-1.68994,.00206-1.69184-.0035-1.68943,.00178-1.69339-.00212-1.69612,.00134-1.69877,1.77494,.00043,1.77525,.00107,1.77232,.00343,.00167,2.2792,1.08246-1.2344,1.38632-.87722,1.56836-.48742,1.64189-.13391,1.67002,.12233,1.61697,.42712,1.48277,.77032,1.2624,1.09553,1.01503,1.33192-1.43814,1.00852-1.43529,1.01699-1.43673,1.01431Z" fill="#44c38b"/>
          <path d="M160.27069,49.51972l-1.02219,1.44512-1.31119,1.17752-1.54394,.84477-1.68694,.51819-1.7459,.25907-1.76826,.07177-1.6418-.0898-1.61937-.27212-1.5651-.49699-1.46933-.73028-1.32265-.97159-1.12574-1.19349-.8955-1.3736-.67434-1.49432-.44861-1.57767-.2641-1.62026-.07499-1.64134,.00115-1.72362-.004-1.72362,.06673-1.59083,.19377-1.57885,.36008-1.54824,.55355-1.48949,.77839-1.38584,1.02981-1.20799,1.23534-.99545,1.40658-.73432,1.51392-.47917,1.56605-.26669,1.58906-.0774,1.61415,.07832,1.58945,.27592,1.53262,.50098,1.41783,.76547,1.23543,1.03227,1.00249,1.26067,.75333,1.42431,.52574,1.52278,.33383,1.57853,.18365,1.60381,.04751,1.61544,.00483,1.39409,.00259,1.39793-1.68119-.00107-1.68355-.00738-1.68077,.00745-1.68303,.002-1.68492-.00811-1.68252,.00324-1.68646,.00057-1.68918,.0031-1.68933-.00613-.00372,.1039,.10603,1.6938,.35638,1.65509,.71657,1.53105,1.15158,1.23089,1.52113,.723,1.67789,.21234,1.52096-.09143,1.47227-.3866,1.27387-.82297,.95401-1.18144,1.35311,.94068,1.34764,.95389,1.35931,.94017Zm-14.75441-11.66155l1.60926,.00225,1.61285,.00455,1.61055-.00236,1.61432-.00255,1.61692-.00225,1.61531,.00084-.20314-1.65532-.52154-1.58159-.98748-1.329-1.45399-.78491-1.6482-.21644-1.64121,.23276-1.44395,.80239-.9943,1.32369-.55348,1.56469-.23194,1.64324Z" fill="#44c38b"/>
          <path d="M175.27186,38.41701l1.82302-.00077,1.82596,.00217,1.82316-.00024-.00081-2.12671-.12324-1.51749-.61413-1.37679-1.26286-.81482-1.49037-.28699-1.52447-.06223-1.53717,.05473-1.50943,.27732-1.31593,.76222-.95942,1.18596-1.30139-.90685-1.30146-.91354-1.29743-.9164,.918-1.27291,1.15599-1.06402,1.34792-.80419,1.47273-.53795,1.54112-.31804,1.56461-.16291,1.57669-.04156,1.7142,.05108,1.70818,.18957,1.66877,.39832,1.56631,.68947,1.34296,1.0541,.99147,1.38923,.60556,1.59913,.30828,1.6832,.08145,1.71299,.00446,1.70143-.00659,1.69729,.00034,1.7029,.00623,1.70009-.00864,1.70237,.00613,1.70429,.00174,1.70186-.0021,1.70585-.00226,1.7086,.00379,1.71225-1.77592,.00151-1.77525-.01007-1.77122,.00184-.00905-2.32795-1.06529,1.33592-1.43792,.9194-1.65676,.42422-1.71553,.10794-1.69894-.09209-1.66932-.32081-1.5956-.58475-1.44553-.88894-1.17876-1.21945-.83342-1.47642-.46628-1.63197-.13941-1.69405,.1565-1.70668,.50655-1.63294,.91811-1.43925,1.28342-1.12527,1.51868-.78085,1.64108-.48629,1.6945-.25407,1.71397-.08098Zm5.47287,4.16338l-1.68591,.00144-1.6907-.00217-1.6907,.00153-1.60417,.1179-1.52419,.49781-1.08132,1.15678-.3052,1.56966,.31081,1.49936,1.02706,1.12522,1.43785,.53298,1.53636,.14072,1.75945-.13515,1.65614-.58285,1.18635-1.278,.53876-1.66906,.1367-1.76247-.00728-1.21371Z" fill="#44c38b"/>
          <path d="M227.53744,42.27329l-.06543,1.63283-.2264,1.61676-.39969,1.58431-.61045,1.51271-.8379,1.39888-1.07291,1.22719-1.28944,.99657-1.44843,.74524-1.55644,.48781-1.60849,.27149-1.6322,.08568-1.63164-.0918-1.60854-.27334-1.5532-.50189-1.44815-.75093-1.28718-1.00049-1.08766-1.21456-.84854-1.39227-.62502-1.50587-.41309-1.57878-.22462-1.61718-.07158-1.63235,.005-1.59683-.00742-1.59683,.0732-1.63382,.21327-1.61999,.40372-1.58308,.61555-1.51201,.85468-1.39053,1.08683-1.21549,1.2986-.98566,1.45548-.73414,1.55866-.4814,1.60936-.27134,1.63228-.08008,1.63017,.0771,1.60678,.2741,1.55593,.48467,1.4513,.73921,1.29231,.98862,1.08721,1.21156,.83917,1.39501,.60727,1.50978,.39681,1.58055,.21761,1.61582,.066,1.63111-.00864,1.59683,.00586,1.59683Zm-5.37478-.15204l-.00275-1.47011,.0061-1.47011-.095-1.65774-.33433-1.62499-.68712-1.50504-1.12871-1.20121-1.48957-.7025-1.64161-.19985-1.65115,.19701-1.49998,.70125-1.13466,1.20276-.70232,1.50304-.33864,1.62449-.09587,1.66279-.0012,1.47011-.00327,1.47011,.09794,1.68952,.32443,1.65618,.68054,1.54078,1.13406,1.2364,1.51539,.71899,1.67473,.20336,1.65472-.21763,1.48202-.75792,1.1112-1.2387,.67573-1.52547,.34643-1.63429,.10288-1.67124Z" fill="#44c38b"/>
          <path d="M234.73627,28.02952l-.00539-1.57278,.0723-1.69234,.26134-1.67097,.56462-1.59219,.99551-1.35678,1.4031-.92952,1.60359-.52632,1.67504-.22329,1.69172-.07573,1.57146,.0068-.00602,1.62036,.00312,1.62309,.00086,1.62154-1.1638,.00314-1.56375,.19866-1.23189,.92275-.42679,1.50509-.07577,1.5795,.00279,.55842,1.48572-.00452,1.48783-.00054,1.48773,.00439-.00489,1.5529,.00404,1.55549-.00344,1.5513-1.48105,.00353-1.48783,.00638-1.49104-.00873,.00019,1.59295-.00186,1.58906,.00153,1.59056-.00185,1.58607,.00434,1.58611,.00218,1.59136-.00374,1.58873-.0022,1.59086-.00076,1.59266,.00052,1.59039,.00227,1.59411-.00399,1.59668,.011,1.60164-1.7937,.0005-1.79217-.00753-1.79337,.00343,.00599-1.59131-.00195-1.58906-.00939-1.59056,.0063-1.58607,.00495-1.58611-.00232-1.59136,.00461-1.58873-.00693-1.59086,.00373-1.59266,.00099-1.59039-.0006-1.59411,.00147-1.59668-.00798-1.59432-1.61989-.0018-1.62064-.00221,.0044-1.55135-.00874-1.55549,.00551-1.55264,1.61947,.00336,1.62351-.00489Z" fill="#44c38b"/>
          <path d="M265.50444,46.17239l1.00548,1.0943,1.24175,.80655,1.399,.48516,1.47514,.15507,1.58254-.13936,1.50548-.49514,1.24771-.97176,.85771-1.3323,.51224-1.5035,.2921-1.56184,.14025-1.58134,.0442-1.59235,.00181-1.62503-.00361-1.62412-.0006-1.62566,.01079-1.62107-.00432-1.62111-.00469-1.62647,.00328-1.62379,.00192-1.62597-.00401-1.6278-.00167-1.62548,.00788-1.62929v-1.63191s-.00201-1.62981-.00201-1.62981l1.46404,.00013,1.46982-.00412,1.47219-.00509,1.46956,.00935,.00492,1.62265,.00057,1.62412,.00227,1.62566-.00226,1.62107-.00995,1.62111,.00891,1.62647-.00153,1.62379-.00189,1.62597-.00476,1.6278,.00844,1.62548-.00589,1.62929,.00733,1.63191-.00213,1.63191-.0457,1.63872-.12329,1.63129-.23469,1.62133-.37555,1.59384-.52983,1.54763-.72994,1.46414-.9472,1.33188-1.15802,1.15058-1.3509,.91642-1.49228,.66064-1.57451,.43227-1.61648,.24086-1.6348,.06513-1.69381-.08761-1.67856-.24897-1.62882-.47077-1.55278-.67946-1.42463-.91793-1.26191-1.13094-1.04758-1.32727,1.63461-.93087,1.64233-.92579,1.63634-.9386Z" fill="#44c38b"/>
          <path d="M298.86167,38.41568l1.82302,.00281,1.82596,.00134,1.82678,.00143-.00457-2.12981-.1244-1.51723-.6137-1.37632-1.26429-.80872-1.48828-.29158-1.52426-.05784-1.53713,.04853-1.50801,.28126-1.31651,.75882-.96245,1.19328-1.30064-.91313-1.30213-.91258-1.2992-.91653,.92561-1.27246,1.15157-1.0682,1.34573-.80943,1.47481-.53464,1.54099-.32142,1.56558-.15587,1.57664-.04343,1.71443,.0486,1.70681,.19995,1.66832,.39639,1.56965,.68155,1.34121,1.05709,.98839,1.39084,.60922,1.59738,.30253,1.6839,.0894,1.71244-.00002,1.70143-.00078,1.69729-.00082,1.7029-.0059,1.70009,.00632,1.70237,.00099,1.70429-.0004,1.70186-.00328,1.70585,.00479,1.7086-.00313,1.70962-1.77339-.00616-1.77525,.00804-1.77597-.00237-.00108-2.33214-1.0681,1.33694-1.43813,.91943-1.65648,.42722-1.71601,.09902-1.69822-.09276-1.67168-.30855-1.59778-.5829-1.43727-.90247-1.18286-1.21415-.82777-1.47863-.46646-1.63053-.13894-1.69304,.14226-1.70816,.51414-1.63164,.91238-1.44435,1.28499-1.12681,1.52228-.77645,1.64076-.48978,1.69536-.25258,1.71438-.0779Zm5.4721,4.16578l-1.68513-.00189-1.6907-.00134-1.6907-.00181-1.60415,.12281-1.52355,.49883-1.08095,1.1561-.29903,1.56918,.30563,1.49839,1.02853,1.12056,1.43443,.5382,1.53627,.13653,1.75923-.13183,1.65186-.58886,1.1887-1.27188,.53735-1.66849,.1355-1.76186-.00327-1.21264Z" fill="#44c38b"/>
          <path d="M339.2576,42.37469l-.06613,1.72045-.25069,1.70374-.45454,1.66012-.67649,1.58262-.94249,1.4375-1.18373,1.24531-1.42483,.95881-1.58397,.66545-1.67913,.37162-1.71799,.1073-1.6657-.08865-1.6394-.31145-1.53406-.6384-1.29594-1.0363,.0008,1.60389,.00571,1.6057-.009,1.60751,.00117,1.60522-.00144,1.60898-.00149,1.61157,.00544,1.61168-1.80626,.00646-1.80908-.0121-1.80482,.00089-.0084-1.65641,.01032-1.66184-.00172-1.66452-.00681-1.66421,.00391-1.66275-.00055-1.66389-.00532-1.66579,.00328-1.66394,.00048-1.66588,.00046-1.66495-.00145-1.66653,.0014-1.66182,.00367-1.66186,.00103-1.66736-.00227-1.66461-.00769-1.66684,.01206-1.66873-.00138-1.66635-.00832-1.67025,.00949-1.67294-.01124-1.67809,1.81093,.00231,1.80908,.00733,1.80889-.00433-.00055,2.02784,1.25892-1.17143,1.53254-.7836,1.67276-.40898,1.72116-.11874,1.70487,.10874,1.66454,.38102,1.57769,.65065,1.40914,.96049,1.19811,1.21374,.93867,1.42494,.67469,1.56653,.44103,1.64937,.25213,1.68943,.07846,1.70908,.00318,1.72364-.01315,1.72361Zm-5.36015-.25345l-.0115-1.47011,.00117-1.47011-.08933-1.65766-.34096-1.62282-.67689-1.50919-1.1348-1.19498-1.48595-.70854-1.64206-.20055-1.59601,.19291-1.46208,.65275-1.12876,1.13486-.70645,1.4407-.36058,1.56272-.12079,1.60558,.00085,1.62222,.00571,1.62222,.0787,1.68598,.31887,1.65346,.66247,1.54534,1.12276,1.24488,1.51502,.71316,1.67029,.19715,1.65523-.21061,1.48763-.75175,1.09988-1.24985,.69153-1.51893,.34369-1.63659,.10235-1.67224Z" fill="#44c38b"/>
          <path d="M354.47233,38.42147l1.82307-.00612,1.82601,.0081,1.82225-.00612,.00193-2.12588-.1295-1.51661-.60901-1.37829-1.26474-.81083-1.48915-.29153-1.5246-.05566-1.53754,.04481-1.50939,.28079-1.31893,.75953-.95707,1.19346-1.30265-.90737-1.30071-.91454-1.30131-.91459,.92354-1.27693,1.15273-1.06831,1.34844-.80561,1.47464-.5349,1.54118-.31982,1.56531-.15743,1.57661-.04052,1.71444,.04541,1.70691,.19942,1.66993,.39168,1.56496,.69195,1.34587,1.05036,.98706,1.39225,.60941,1.59741,.30711,1.6835,.08605,1.71298-.0039,1.70143-.00394,1.69729-.00029,1.7029,.00183,1.70009,.00404,1.70237-.00455,1.70429,.00223,1.70186,.0048,1.70585-.00096,1.7086-.0011,1.71173-1.77541-.00737-1.77525-.00006-1.77231,.00207-.00364-2.32955-1.07051,1.33574-1.43641,.92188-1.65728,.42359-1.71567,.1113-1.69882-.09734-1.66965-.319-1.59592-.58443-1.44225-.8935-1.17862-1.21817-.83573-1.4745-.45987-1.63295-.14636-1.69283,.15154-1.70759,.50757-1.63379,.91756-1.44131,1.28774-1.12161,1.5176-.7837,1.64179-.4854,1.69495-.25181,1.71395-.07666Zm5.47562,4.15529l-1.68854,.00594-1.69073-.0081-1.69073,.00785-1.60447,.11487-1.52164,.50352-1.08441,1.15244-.3008,1.57005,.30619,1.49987,1.03096,1.12011,1.43411,.54202,1.53724,.13739,1.76033-.1313,1.65324-.59111,1.18493-1.27657,.53955-1.66763,.13258-1.76202,.00219-1.21734Z" fill="#44c38b"/>
          <path d="M373.32842,28.02658l1.77393,.00274,1.77525-.0046,1.77439,.00413-.0022,2.28119,1.23816-1.28014,1.55126-.86596,1.71849-.4608,1.78121-.12775,1.71851,.09731,1.6847,.35067,1.59291,.64618,1.41273,.97669,1.13423,1.28984,.81273,1.51009,.51583,1.64151,.27633,1.69738,.08101,1.72298-.00483,1.58145-.00108,1.58149,.00593,1.58672-.00646,1.58411,.00359,1.58623,.0037,1.58802-.00836,1.58576,.00221,1.58947,.00615,1.59203-.00076,1.595-1.79194-.00298-1.79219-.00237-1.79295,.00319,.00073-1.69003-.00052-1.69481-.00441-1.69202,.00237-1.69429,.00127-1.6962,.00459-1.69378-.00757-1.69774,.00652-1.70048-.00539-1.70048-.11322-1.71878-.47011-1.65446-1.00802-1.37622-1.51642-.77943-1.70493-.20433-1.72426,.23779-1.55174,.77876-1.13646,1.31047-.62643,1.62145-.17853,1.73413-.00302,1.69483-.00143,1.70044,.00043,1.69763,.00167,1.69991-.00192,1.70183-.00084,1.6994-.00388,1.70338,.00106,1.70612,.00605,1.70845-1.80836,.00257-1.80908-.00094-1.8103-.00265,.00577-1.69018-.0088-1.68699,.00342-1.68896-.00051-1.68802,.00476-1.68962,.00121-1.68485-.00429-1.68489-.00544-1.69046,.00877-1.68767-.0018-1.68994,.00107-1.69184-.00176-1.68943,.00397-1.69339-.00238-1.69612-.00429-1.69772Z" fill="#44c38b"/>
        </g>
        <path d="M48.05309,51.2342l1.85812-1.50261,.89382-1.35536,.88275-1.36135,.85023-1.38584,.8394-1.38593,.80713-1.409,.8013-1.41527,.75897-1.43941,.72159-1.46013,.69715-1.47376,.63407-1.50323,.57809-1.52303,.49368-1.55228,.36216-1.5864,.13692-1.61464-.0953-1.60016-.31113-1.57248-.51567-1.51761-.70995-1.43717-.90011-1.32522-1.05511-1.20462-1.19948-1.06173-1.33154-.89124-1.43611-.71077-1.51669-.5169-1.57336-.30417-1.59892-.11269-1.60055,.10366-1.57129,.31715-1.51529,.5202-1.43669,.70865-1.3307,.89143-1.20433,1.05597-1.05758,1.20304-.88719,1.3334-.70927,1.43565-.52683,1.51284-.30245,1.57383-.11168,1.59893,.15624,1.61304,.35267,1.58468,.49415,1.5479,.57368,1.52115,.63728,1.4953,.68641,1.47501,.7235,1.46002,.77083,1.43625,.78659,1.42703,.82109,1.40385,.83045,1.40194,.86537,1.37782,.86726,1.37236,.90923,1.34449,1.84978,1.50186-1.64727,.00211-1.6459,.00693-1.6481,.00373-1.64996-.00918-1.64761,.00686-1.65147,.00199-1.65413-.00325-1.6536-.00324,.00233,2.03669-.00579,2.03951,1.66147-.00664,1.65968,.01057,1.66157-.00653,1.65972,.00675,1.66166-.00247,1.66073-.00888,1.6623,.00718,1.65761-.00733,1.65765,.00975,1.66314,.0022,1.66039-.00316,1.66262-.00073,1.6645-.00174,1.66213,.00468,1.66602-.00818,1.6687,.00399,1.66616-.00391,.00704-2.03504-.00651-2.03549-1.64659-.00414-1.64588,.00244-1.64809-.00449-1.64995,.00641-1.6476-.00241-1.65145,.00372-1.65411-.00575-1.65412,.0026Zm-6.88029-21.96824l.20366-1.54137,.58801-1.43907,.95333-1.22787,1.22748-.95359,1.43876-.58935,1.54108-.20847,1.54039,.2147,1.43568,.59189,1.23775,.94027,.94083,1.23719,.60206,1.43312,.19885,1.54256-.20806,1.54105-.59872,1.4325-.93718,1.23901-1.23712,.94003-1.43448,.59456-1.54,.2018-1.54097-.20172-1.4399-.58579-1.2323-.94922-.94135-1.23663-.59492-1.43499-.2029-1.54062Z" fill="#44c38b"/>
      </g>
    </g>
  </g>
</svg>