<?xml version="1.0" encoding="UTF-8"?>
<svg id="a" xmlns="http://www.w3.org/2000/svg" width="99.8" height="99.9" viewBox="0 0 99.8 99.9">
  <g id="b">
    <path d="M29.3,.3c-5.3,.3-9,1.1-12.1,2.3-3.3,1.3-6.1,3-8.8,5.8-2.8,2.8-4.5,5.6-5.8,8.9C1.4,20.5,.5,24.1,.3,29.4c-.3,5.4-.3,7.1-.3,20.7s.1,15.3,.3,20.6c.3,5.3,1.1,9,2.3,12.1,1.3,3.3,3,6.1,5.8,8.8,2.8,2.8,5.6,4.5,8.9,5.7,3.2,1.2,6.8,2.1,12.1,2.3,5.3,.2,7,.3,20.6,.3s15.3-.1,20.6-.3c5.3-.3,9-1.1,12.1-2.3,3.3-1.3,6.1-3,8.8-5.8,2.8-2.8,4.5-5.6,5.7-8.9,1.2-3.2,2.1-6.8,2.3-12.1,.2-5.3,.3-7,.3-20.6s-.1-15.3-.3-20.6c-.3-5.3-1.1-9-2.3-12.1-1.3-3.3-3-6.1-5.8-8.8-2.8-2.8-5.6-4.5-8.9-5.7-3.2-1.2-6.8-2.1-12.1-2.3-5.2-.39999-6.89999-.39999-20.49999-.39999s-15.3,.1-20.6,.3m.6,90.4c-4.9-.2-7.5-1-9.3-1.7-2.3-.9-4-2-5.8-3.7s-2.8-3.4-3.8-5.7c-.7-1.8-1.5-4.4-1.7-9.3-.2-5.3-.3-6.89999-.3-20.2s0-14.9,.3-20.2c.2-4.9,1-7.5,1.7-9.3,.9-2.3,2-4,3.7-5.8s3.4-2.8,5.7-3.8c1.8-.7,4.4-1.5,9.3-1.7,5.3-.2,6.9-.3,20.2-.3,13.4,0,14.9,0,20.2,.3,4.9,.2,7.5,1,9.3,1.7,2.3,.9,4,2,5.8,3.7s2.8,3.4,3.8,5.7c.7,1.8,1.5,4.4,1.7,9.3,.19999,5.3,.29999,6.9,.29999,20.2,0,13.4,0,14.9-.3,20.2-.2,4.9-1,7.5-1.7,9.3-.9,2.3-2,4-3.7,5.8-1.7,1.7-3.4,2.8-5.7,3.8-1.8,.7-4.4,1.5-9.3,1.7-5.3,.19999-6.9,.29999-20.2,.29999-13.4,0-14.9,0-20.2-.3M70.6,23.3c0,3.3,2.7,6,6,6s6-2.7,6-6-2.7-6-6-6-6,2.7-6,6M24.3,50c0,14.2,11.5,25.6,25.7,25.6s25.7-11.5,25.6-25.7c0-14.2-11.5-25.7-25.7-25.6-14.1,.1-25.6,11.6-25.6,25.7m9,0c0-9.2,7.4-16.7,16.6-16.7s16.7,7.4,16.7,16.6-7.40001,16.7-16.60001,16.7c-9.2,.1-16.6-7.4-16.7-16.6" fill="#777"/>
  </g>
</svg>