<?xml version="1.0" encoding="UTF-8"?>
<svg id="b" data-name="レイヤー 2" xmlns="http://www.w3.org/2000/svg" width="484.45282" height="132.02016" viewBox="0 0 484.45282 132.02016">
  <g id="c" data-name="レイヤー 2">
    <g>
      <rect x="51" y="91.27016" width="433.45282" height="40.75" fill="#fff" opacity=".98"/>
      <g>
        <path d="M85.00653,107.56704c-.91113,0-1.5957,.03809-2.29785,.11426v-2.1084c.70215,.09473,1.34766,.13281,2.2793,.13281h4.91992v-.36133c0-.60742-.03809-1.06348-.11328-1.53906h2.35547c-.07617,.45703-.11426,.83594-.11426,1.53906v.36133h5.24316c1.13965,0,1.84277-.03809,2.33594-.13281v2.1084c-.64551-.07617-1.34766-.11426-2.31641-.11426h-5.2627v5.22461c1.04492,1.57617,1.99512,2.58398,3.43848,3.66602,1.36719,1.02539,2.84961,1.82422,4.52148,2.43164-.62695,.74121-.89258,1.17773-1.17773,2.01367-1.46289-.68359-2.58398-1.36719-3.81836-2.35547-1.29297-1.02539-2.12793-1.86133-3.02148-3.07812,.05762,1.06445,.05762,1.27344,.05762,1.65332v2.46973c0,.79785,.03809,1.27344,.13281,1.80469h-2.39355c.09473-.57031,.13281-1.02539,.13281-1.80469v-2.41211c0-.4375,.01953-.9502,.05664-1.63477-.89258,1.2168-1.65234,1.99512-2.98242,3.07812-1.13965,.89258-2.08984,1.51953-3.41895,2.22266-.32324-.83594-.57031-1.21582-1.17871-1.90039,1.53906-.64551,2.62207-1.29102,4.00977-2.35547,1.61426-1.25391,2.48828-2.20312,3.51367-3.89453v-5.12891h-4.90137Zm2.58398,.85547c-.07617,.18945-.11426,.26562-.19043,.53125-.22754,.70312-.24609,.7793-.41797,1.23438,.55078,.91211,1.29199,1.65332,2.41309,2.45117-.72168,.89258-.77832,.98828-1.13965,1.63379-.85547-.70215-1.53906-1.48145-2.0332-2.29785-.70312,1.34766-1.36719,2.2793-2.2793,3.17188-.49414-.60742-.83594-.93066-1.53906-1.40625,1.29199-1.02539,2.26074-2.46875,2.84961-4.2168,.20898-.62695,.30469-1.04492,.3418-1.55859l1.99512,.45703Zm9.34668-.07617c-.03809,.07617-.22852,.62695-.57031,1.67188,.85547,1.36719,1.78613,2.24121,3.40039,3.20996-.55078,.64551-.7793,1.02637-1.12109,1.7666-1.38672-1.04492-2.20312-1.88086-3.00098-3.17188-.5127,1.04492-.89355,1.67188-1.53906,2.50781-.47461-.55078-.81641-.83594-1.48145-1.23535,.93066-1.06348,1.48145-2.07129,1.95703-3.51465,.20898-.66406,.32227-1.13965,.36035-1.65234l1.99512,.41797Z" fill="#1d868c"/>
        <path d="M105.1286,106.69399c0-.74219-.03906-1.40625-.0957-2.0332,.60742,.07617,1.23438,.09473,2.10938,.09473h9.19336c.89355,0,1.48242-.01855,2.05273-.09473-.07617,.72168-.0957,1.27246-.0957,1.9375v12.27246c0,.9873,.03809,1.61426,.11426,2.29785h-2.29883v-1.13867h-8.83301v1.13867h-2.26172c.07617-.64551,.11523-1.40527,.11523-2.29785v-12.17676Zm2.14648,4.48242h8.83301v-4.40723h-8.83301v4.40723Zm0,6.8584h8.83301v-4.86328h-8.83301v4.86328Z" fill="#1d868c"/>
        <path d="M126.19891,109.02993c-.83594,0-1.48145,.03809-2.26074,.11426v-2.31738c.74121,.09473,1.36816,.13281,2.26074,.13281h4.88281v-1.34961c0-.74023-.03906-1.21484-.11426-1.76562h2.37402c-.09473,.53125-.13281,1.04492-.13281,1.74707v1.36816h5.14844c.9502,0,1.65234-.03809,2.29883-.13281v2.31738c-.83594-.07617-1.40625-.11426-2.29883-.11426h-4.06543c.89355,1.61523,1.78613,2.86914,2.84961,3.98926,1.29199,1.34863,2.64062,2.39355,4.1416,3.19238-.58887,.70215-.91211,1.21484-1.29199,2.07031-1.21582-.83594-2.03223-1.50098-3.19141-2.64062v2.16602c-.58887-.07617-1.12109-.11523-1.89941-.11523h-1.69141v1.29297c0,.89258,.03809,1.69043,.13281,2.35547h-2.39258c.09375-.70312,.13281-1.46289,.13281-2.35547v-1.29297h-1.50098c-.7793,0-1.33008,.03906-1.89941,.11523v-2.14746c-1.08398,1.13965-1.88086,1.82324-3.07812,2.65918-.37988-.85352-.66504-1.29102-1.29199-1.99414,2.84961-1.7666,5.14844-4.3125,6.61133-7.29492h-3.72363Zm4.88281,3.62891c0-.58984,.05664-1.34961,.15137-2.12793-1.00684,2.05176-1.91895,3.38184-3.45801,5.03418,.4375,.05664,.81738,.07617,1.69141,.07617h1.61523v-2.98242Zm3.9707,2.98242c.87305,0,1.21484-.01953,1.6709-.07617-1.48145-1.48242-2.31738-2.64062-3.68555-5.03418,.11426,.77832,.1709,1.53809,.1709,2.1084v3.00195h1.84375Z" fill="#1d868c"/>
        <path d="M147.85907,114.78579c-.30469,2.29883-.6084,3.36328-1.50098,5.2627-.53223-.49414-.9502-.75977-1.70996-1.15918,.85547-1.36719,1.25391-2.56445,1.48242-4.50195l1.72852,.39844Zm.85449-9.38477c0-.79688-.01855-1.12012-.09473-1.51953h2.24219c-.05762,.36133-.07617,.68359-.07617,1.48242v.47461h1.69043c.85449,0,1.25293-.01953,1.78613-.11426v2.05176c-.5332-.07617-.95117-.09473-1.78613-.09473h-5.68066c-.83594,0-1.29102,.01855-1.82324,.09473v-2.05176c.53223,.09473,.85449,.11426,1.80469,.11426h1.9375v-.4375Zm-1.04492,8.2832c-.75977,0-1.29199,.01953-1.84277,.07617,.05664-.55078,.07617-1.02539,.07617-1.74805v-1.63379c0-.70215-.01953-1.13965-.07617-1.70996,.53223,.05762,1.04492,.07617,1.82422,.07617h4.06445c.7793,0,1.25391-.01855,1.78613-.07617-.05664,.47559-.0752,.91211-.0752,1.67188v1.69141c0,.79688,.01855,1.23438,.0752,1.72852-.55078-.05664-1.00684-.07617-1.7666-.07617h-1.00684v5.71875c0,.66406-.19043,1.17773-.55078,1.46289-.32324,.24609-.85449,.3418-1.78613,.3418-.20898,0-.43652,0-.96875-.01953-.07617-.81641-.13281-1.08301-.39844-1.9375,.45508,.07617,.83594,.09473,1.23438,.09473s.49414-.0752,.49414-.41797v-5.24316h-1.08301Zm.20898-1.72852h3.57129v-1.50098h-3.57129v1.50098Zm4.61621,2.22266c.51367,1.02539,.81641,1.69043,1.27344,2.92578l-1.57715,.85449c-.28516-1.21582-.5127-1.82324-1.13965-3.17285l1.44336-.60742Zm3.24805-3.81836c-.81641,0-1.27148,.01855-1.76562,.09473v-2.14648c.43652,.0752,.87305,.09473,1.76562,.09473h.5332c.05664-1.04492,.0752-1.72852,.0752-2.60254,0-.77832-.01855-1.3291-.09473-1.80469h2.16602c-.05762,.39941-.0957,.9502-.0957,1.70996-.01855,.89258-.03711,1.63379-.11328,2.69727h2.14648c.94922,0,1.38672-.01953,1.86133-.09473v2.14648c-.55078-.07617-.96875-.09473-1.86133-.09473h-2.33691c-.05762,.37988-.05762,.43652-.1709,1.13965h1.72852c-.05664,.45605-.07617,.68457-.07617,1.50098l-.05664,5.66113c-.01953,.3418,.0957,.41797,.62695,.41797,.66504,0,.72168-.20898,.72168-3.38184,.72168,.41797,1.19727,.60742,1.72949,.72266-.07617,2.31641-.15234,3.05859-.4375,3.70312-.30371,.70312-.87402,.93164-2.24219,.93164-.77832,0-1.34766-.07617-1.68945-.24707-.39941-.19043-.55176-.53223-.5332-1.23535l.05762-6.57227v-.4375c-.36035,1.9375-1.04492,3.89453-1.95605,5.54688-.79883,1.42578-1.34961,2.16602-2.62305,3.43945-.53125-.70312-.85352-1.04492-1.51953-1.61523,.81738-.75977,.9502-.89258,1.44434-1.51953,1.00684-1.27344,1.48145-2.10938,1.99512-3.5332,.55078-1.50098,.83594-2.73633,1.06348-4.52148h-.34277Zm4.3125-6.17383c.9502,1.06348,1.27344,1.5,2.08984,2.79199l-1.53906,1.17773c-.70215-1.34863-1.12012-1.97559-1.97461-3.02051l1.42383-.94922Z" fill="#1d868c"/>
        <path d="M172.04559,113.68422c.30371-.45605,.43652-.68359,.70312-1.19727h-2.8877c-.98828,0-1.61523,.01953-2.20312,.07617,.05664-.55078,.0752-.9873,.0752-1.8418v-1.31152c0-.87402-.01855-1.36816-.0752-1.9375,.60742,.0752,1.21484,.09473,2.10742,.09473h2.07129v-1.19727h-3.15332c-.89258,0-1.5957,.03906-2.18555,.0957v-2.01367c.57031,.07617,1.27344,.11328,2.33789,.11328h12.08203c1.10156,0,1.8418-.03711,2.35547-.11328v2.01367c-.60742-.05664-1.29199-.0957-2.2041-.0957h-3.40039v1.19727h2.2041c.96875,0,1.57617-.01953,2.12695-.09473-.05664,.53223-.07617,1.00684-.07617,1.9375v1.29199c0,.94922,.01953,1.38672,.05762,1.86133-.47559-.05664-1.06348-.07617-2.14648-.07617h-4.80664c-.39941,.70312-.45605,.81738-.68359,1.19727h6.70605c1.10156,0,1.67188-.01953,2.20312-.11328v1.97461c-.62695-.05664-1.27246-.09473-2.20312-.09473h-1.70996c-.49414,.98828-1.00684,1.72949-1.72852,2.46973,2.41309,.74121,3.09668,.98828,5.20508,1.84277l-1.33008,1.74805c-.47461-.20898-.85449-.37988-1.10156-.49414q-1.61426-.74121-4.52148-1.78613c-2.22266,1.25391-4.78711,1.88086-8.56738,2.07129-.22852-.7793-.36133-1.10254-.85547-1.93848h.41797c2.62207,0,4.69238-.30273,6.38281-.92969-2.20312-.58984-2.52539-.66602-4.44531-1.12109,.85547-.74121,1.2168-1.08301,1.88086-1.8623h-2.03223c-.93066,0-1.55762,.03809-2.18457,.09473v-1.97461c.53125,.0752,1.13965,.11328,2.18457,.11328h3.40039Zm-2.29883-4.57812v1.80469h2.08984v-1.80469h-2.08984Zm3.30566,6.34473c-.28516,.34277-.4375,.5127-.91211,.98828q.66504,.19043,2.14648,.53223c.20898,.03711,.47559,.11328,1.14062,.30273,.68359-.49316,1.21484-1.0625,1.65234-1.82324h-4.02734Zm.66504-7.88379h2.07129v-1.19727h-2.07129v1.19727Zm0,3.34375h2.07129v-1.80469h-2.07129v1.80469Zm3.95117,0h2.22266v-1.80469h-2.22266v1.80469Z" fill="#1d868c"/>
        <path d="M193.7243,116.36293c0,1.10254,.01953,1.44434,.05664,1.99512h-1.95703v-1.08398h-1.87988v2.07129h-2.07129c.07617-.62695,.0957-1.25391,.0957-2.2793v-9.86035c0-.81641-.01953-1.42383-.07617-1.95605,.5127,.05762,.93066,.0752,1.80469,.0752h2.31738c.85449,0,1.25391-.01758,1.78613-.0752-.05664,.53223-.07617,1.06348-.07617,1.9375v2.48926c1.04492-1.10254,1.84277-2.33691,2.46973-3.83789,.3418-.85547,.56934-1.5957,.62695-2.10938l2.2041,.38086c-.11523,.26562-.19043,.47461-.36133,.96875-.11426,.32227-.24707,.68359-.49414,1.23438h4.67383c.96875,0,1.53809-.03711,2.12695-.11328v2.14648c-.58887-.0957-1.10156-.11426-2.12695-.11426h-5.60449c-.43652,.74121-.66504,1.10254-1.23535,1.82324,.51367,.03906,.79883,.05762,1.51953,.05762h3.62891c.74121,0,1.14062-.01855,1.61523-.07617l1.10156,1.48145c-.98828,.58984-2.43164,1.76758-3.89453,3.13477-2.16602,2.08984-2.94434,3.05859-2.94434,3.68555,0,.24707,.15137,.45605,.39941,.55078,.32227,.13281,1.1582,.20898,2.07031,.20898,1.80469,0,2.7168-.15234,3.03906-.49414,.28516-.32227,.4375-1.23438,.45605-2.77344,.81738,.38086,1.19629,.51367,2.03223,.68359-.11328,2.08984-.43652,3.17383-1.10156,3.70508-.49414,.39844-1.12109,.58887-2.25977,.68359-.83594,.05664-1.8623,.0957-2.62207,.0957-3.05859,0-4.27441-.6084-4.27441-2.12793,0-1.04492,.62695-2.18457,1.97559-3.68555,.66504-.72168,2.39355-2.375,3.38184-3.22949h-2.66016c-.81641,0-1.25391,.01953-1.80469,.09473v-1.55762c-.30371,.37988-.43652,.53125-.87305,1.00684-.38086-.41797-.51367-.56934-1.06445-1.00684v5.87012Zm-3.78027-.96875h1.87988v-8.16895h-1.87988v8.16895Z" fill="#1d868c"/>
        <path d="M208.81122,112.67739c.47461,.07617,.77832,.09473,1.51953,.09473h1.4248c.55078,0,.96875-.01855,1.44336-.07617-.05664,.55078-.07617,1.04492-.07617,2.01367v2.50781c.57031,.96875,1.06445,1.31055,2.08984,1.57715,.70312,.1709,2.05273,.2666,3.91406,.2666,2.92578,0,5.35742-.13379,7.44727-.38086-.07617,.20898-.11426,.36133-.15234,.45605-.24707,.70312-.28516,.81738-.41797,1.74805-1.80469,.05664-4.02734,.09473-6.06055,.09473-3.15332,0-4.42578-.07617-5.41406-.36133-1.00684-.26562-1.69043-.75977-2.41211-1.70898-.81738,.74023-1.51953,1.31055-2.31836,1.86133-.03711,.03809-.36035,.28516-.47461,.37988l-.93066-2.16504c.91113-.38086,1.7666-.91211,2.73535-1.65332v-2.73535h-1.04492c-.47461,0-.83594,.01953-1.27246,.09473v-2.01367Zm1.21582-4.6543c1.31055,.74121,2.22266,1.34863,3.41992,2.26074l-1.19727,1.61523c-1.06445-.9502-1.82422-1.48242-3.40039-2.39453l1.17773-1.48145Zm.30371-4.06543c1.34863,.75977,2.14648,1.25391,3.26758,2.10938l-1.17773,1.61426c-1.15918-.9873-2.03223-1.61426-3.24902-2.26074l1.15918-1.46289Zm3.41895,2.73633c.49414,.0752,.91211,.09375,1.97656,.09375h8.20703c1.00586,0,1.5-.01855,2.05078-.09375v1.89844c-.53125-.0752-1.12109-.09375-2.05078-.09375h-8.20703c-.87402,0-1.40625,.01855-1.97656,.09375v-1.89844Zm1.08398,8.22461c0-.43652-.01953-.83594-.05762-1.19629,.45605,.03809,.85449,.05762,1.48145,.05762h7.08594c.64648,0,1.06445-.01953,1.51953-.05762-.05664,.3418-.05664,.72168-.05664,1.19629v1.90039c0,.53125,0,.62695,.05664,1.29102-.47461-.05664-.75977-.05664-1.46191-.05664h-7.14355c-.66406,0-1.04492,.01953-1.48145,.05664,.03809-.64453,.05762-.83594,.05762-1.25293v-1.93848Zm0-10.61914c.55078,.07617,1.12012,.0957,2.10742,.0957h5.73828c1.00586,0,1.63281-.03906,2.14648-.0957v1.86133c-.53223-.0752-1.08301-.09375-2.05176-.09375h-5.9082c-.93066,0-1.46289,.01855-2.03223,.09375v-1.86133Zm.03711,4.86328c.49414,.05664,.75977,.07617,2.0332,.07617h5.71777c1.06348,0,1.59668-.01953,2.07129-.07617v1.69141q-.47461-.05762-2.07129-.07617h-5.71777c-1.10156,0-1.46289,.01855-2.0332,.07617v-1.69141Zm0,2.2793c.49414,.07617,.74121,.07617,2.0332,.07617h5.71777c1.12109,0,1.59668-.01855,2.07129-.07617v1.67188q-.45703-.03711-2.07129-.07617h-5.71777c-1.10156,0-1.46289,.01953-2.0332,.07617v-1.67188Zm1.9375,4.99707h6.02246v-1.06348h-6.02246v1.06348Z" fill="#1d868c"/>
        <path d="M234.68915,105.91469c0-.93164-.03906-1.34961-.11523-1.90039h2.16602c-.07617,.55078-.09473,.96875-.09473,1.88086v1.04492h.9873c.6084,0,1.06445-.03711,1.53906-.09473v2.1084c-.45508-.07617-.87305-.09473-1.53906-.09473h-.9873v2.73535q1.36816-.26562,2.52637-.5127l.03906,1.80469c-3.00195,.70312-4.80664,1.06348-7.73242,1.55762-.36133,.05664-.83594,.17188-1.14062,.26562l-.41797-2.12695c.51367-.01953,.79883-.03809,1.40625-.11426v-4.6543c0-.70215-.03711-1.23535-.11328-1.74707h2.07031c-.05664,.45508-.07617,.92969-.07617,1.67188v4.48242q.39844-.05664,1.48242-.24609v-6.06055Zm12.4043,14.96973c-.64551-.09473-1.25391-.13379-2.35547-.13379h-12.13867c-1.10156,0-1.72852,.03906-2.33691,.13379v-2.24121c.58887,.0752,1.21582,.11328,2.12793,.11328h12.57617c.93066,0,1.53906-.03809,2.12695-.11328v2.24121Zm-2.22266-3.7998c-.62695-.07617-1.23438-.11328-2.05078-.11328h-8.33984c-.79883,0-1.40625,.03711-2.0332,.11328v-2.16602c.53125,.07617,.96875,.0957,2.0332,.0957h8.33984c.96875,0,1.5-.01953,2.05078-.0957v2.16602Zm-3.05859-5.54688c0,.47461,.19043,.55078,1.5957,.55078,1.08398,0,1.42578-.05664,1.5957-.32227,.19043-.24805,.3418-1.14062,.41797-2.29883,.70312,.3418,1.08398,.47461,1.91895,.66406-.19043,1.91895-.41699,2.73633-.83496,3.21094-.45703,.47461-1.06445,.58887-3.47656,.58887-2.52734,0-3.17383-.30371-3.17383-1.50098v-6.7627c0-.64551-.03711-1.13965-.11328-1.67188h2.16602c-.07617,.47559-.0957,1.00684-.0957,1.67188v1.8623c2.12793-1.00781,3.51465-1.80566,3.99023-2.35645l1.3291,1.70996q-.24707,.13281-.72168,.39844c-1.38672,.7793-2.7168,1.42578-4.59766,2.2041v2.05176Z" fill="#1d868c"/>
        <path d="M255.51239,115.98305c.01855-.39844,.03809-.58887,.03809-.81641q0-.20898-.05664-1.34961l-.2666-6.45898c-.03809-.83594-.09473-1.78516-.1709-2.31738h3.11523c-.05664,.5127-.13281,1.50098-.1709,2.31738l-.26562,6.45898q-.03809,1.10156-.03809,1.36816c0,.22754,0,.41797,.03809,.79785h-2.22266Zm-.2666,4.16016v-2.60254h2.75488v2.60254h-2.75488Z" fill="#1d868c"/>
        <path d="M272.95477,110.36c.68359,0,1.06445-.01953,1.36719-.05664-.05664,.36035-.0752,.45508-.11328,.81641-.3418,3.02051-.62695,4.36914-1.19727,6.00293,1.48242,1.53906,3.07812,1.97559,7.2002,1.97559,1.10254,0,1.78613-.03711,3.38184-.1709-.36133,.85449-.47461,1.25391-.57031,1.99512-1.13965,.03711-1.61523,.03711-2.26074,.03711-4.6543,0-6.78223-.55078-8.49121-2.20312-.55078,.94922-.89258,1.4248-1.97656,2.66016-.3418-.66602-.66406-1.10254-1.1582-1.55859,.01953,.70312,.03809,.7793,.09473,1.48242h-2.07031c.0752-.74121,.11426-1.33008,.11426-2.2793v-4.99707c0-.96875,.01855-1.48145,.05664-2.31738-.57031,.96875-.85547,1.44336-1.23438,1.97559-.20898-.81738-.4375-1.50098-.7793-2.22266,1.17773-1.63379,1.99414-3.20996,2.62109-5.05371,.38086-1.13867,.62695-2.01367,.74121-2.69727l1.95605,.57031c-.13281,.3418-.18945,.5127-.26562,.75977,.28516,.03711,.66504,.05664,1.10156,.05664h.95117c.60742,0,.83496-.01953,1.12012-.05664l.79785,.91211q-.09473,.18945-.66504,1.48145c-.43652,.96875-.9502,1.9375-1.51953,2.8877h.79785Zm-3.81836,8.70117v.64453c.85547-.79688,1.34863-1.42383,1.89941-2.44922-.70215-1.08398-1.04395-1.84375-1.78613-4.00977l1.71094-.58789c.16992,1.02539,.41797,1.8418,.85449,2.7168,.30371-1.08398,.43652-1.82422,.62598-3.36328h-1.48047c-.4375,0-.79883,.01953-1.34961,.05664l-.32227,.01953,.58789-.94922c1.17773-2.01367,1.52051-2.69824,2.18555-4.25586h-.83594c-.39941,0-.66504,.01953-.9502,.07617v-1.55859c-.36035,1.19727-.62695,1.91992-1.13965,3.07812v10.58203Zm7.75098-12.31055h-.68457c-.68359,0-.91211,0-1.40527,.05664v-1.69141c.41797,.07617,.75977,.0957,1.40527,.0957h.68457c0-.60742-.01855-.87402-.09473-1.29199h1.99414c-.05664,.39941-.07617,.64551-.07617,1.29199h2.18555c.7207,0,1.10156-.01953,1.40527-.05664-.03809,.37891-.03809,.62695-.03809,1.27246v1.38672c.55078,0,.83594-.01855,1.19727-.09473v1.84277c-.53223-.07617-.72266-.09473-1.19727-.09473v1.51953c0,.53125,.01953,.83594,.03809,1.19727-.39941-.01953-.85449-.03906-1.46289-.03906h-2.12793v1.02637h2.10938c.77832,0,1.21484-.01855,1.69043-.07617v1.65332c-.53223-.05762-1.04492-.07617-1.70996-.07617h-2.08984v1.10156h2.58398c.74023,0,1.33008-.03809,1.82422-.0957v1.78711c-.6084-.05762-1.14062-.07617-1.82422-.07617h-2.58398c0,.47461,.01953,.75977,.0957,1.21484h-2.01367c.07617-.41797,.09473-.64551,.09473-1.21484h-1.4248c-.7793,0-1.15918,.01855-1.72852,.07617v-1.76758c.5127,.05664,1.04492,.07617,1.72852,.07617h1.4248v-1.10156h-.85449c-.62695,0-1.16016,.01855-1.57715,.07617v-1.65332c.41699,.05762,.87402,.07617,1.57715,.07617h.85449v-1.02637h-.7793c-.55078,0-.87402,.01953-1.29199,.05762v-1.65332c.4375,.05664,.75977,.07617,1.33008,.07617h.74121v-1.1582h-1.59668c-.53125,0-.91113,.01855-1.25293,.07617v-1.82422c.47461,.07617,.89258,.09473,1.80469,.09473h1.04492v-1.06348Zm3.62793,1.06348v-1.06348h-1.80469v1.06348h1.80469Zm-1.80469,2.81152h1.80469v-1.1582h-1.80469v1.1582Z" fill="#1d868c"/>
        <path d="M295.82977,109.33461h-3.01953c-.47559,0-.96875,.01855-1.38672,.0752v-1.72852c.36035,.05762,.70215,.0752,1.36719,.0752h3.03906v-.89258h-5.375c-.01953,5.75586-.13379,7.92188-.6084,10.41016-.32324,1.74805-.70312,2.8125-1.40625,4.06641-.66504-.85547-.87402-1.08301-1.61426-1.70996,.58887-1.12109,.87305-2.1084,1.13965-3.85645,.36035-2.43164,.5127-4.73047,.5127-8.35938,0-1.31055-.01953-1.74707-.11328-2.39258,.60742,.07617,1.21484,.09375,2.43164,.09375h4.42578v-.30273c0-.49414-.01953-.75977-.09473-1.10254h2.26074c-.07617,.32324-.0957,.58887-.0957,1.13965v.26562h4.86328c.89258,0,1.65332-.03711,2.22266-.11328v1.9375c-.56934-.05664-1.00586-.07617-1.67188-.07617h-4.95703v.89258h3.5332c.74023,0,1.10156-.01758,1.57617-.05664-.05664,.41797-.05664,.75977-.05664,1.40625v1.08203h.36133c.66406,0,.96875-.01758,1.3291-.0752v1.82324c-.45605-.07617-.79785-.09473-1.34863-.09473h-.3418v1.21582c0,.7793,0,.96875,.05664,1.34961-.18945,0-.24609,0-.39844-.01953l1.27246,.93066c-.87402,.85449-1.5957,1.44434-2.58301,2.1084,1.04492,.81738,1.89844,1.31055,3.5332,2.0332-.47461,.53125-.74121,.91211-1.29199,1.78516-2.86816-1.51953-4.44531-2.96289-5.69922-5.16699q.01855,.30371,.03809,.81738c0,.09473,.01953,.41797,.01953,.62695v1.88086c0,1.44336-.55176,1.86133-2.41406,1.86133-.37891,0-.58789,0-1.70898-.03809-.0957-.79785-.20898-1.34863-.39844-1.97559q-1.00781,.49414-1.8623,.85449c-.20898,.07617-.41797,.19043-.6084,.28516l-.89258-1.88086c.96875-.20898,2.2041-.64551,3.51465-1.27246-.87402-.93164-1.40527-1.38672-2.12793-1.86133l1.17773-1.00781c-.58789,.01953-.79688,.03906-1.12109,.07617v-1.72852c.36133,.05664,.7793,.07617,1.3877,.07617h3.13379v-.9502h-3.58984c-.57031,0-.85547,.01855-1.40625,.07617v-1.80469c.38086,.05762,.6084,.0752,1.36816,.0752h3.62793v-.85352Zm-3.11523,5.0332c.68359,.4375,1.27344,.93164,1.91895,1.63477l-1.13965,1.19629q.62695-.30371,2.33594-1.21582v-1.61523h-3.11523Zm3.11523,3.47656c-.9873,.58984-1.5,.87402-2.39258,1.31055,.45508,.0957,1.1582,.15234,1.67188,.15234,.62598,0,.7207-.05664,.7207-.45508v-1.00781Zm5.05371-7.65625v-.85352h-3.13379v.85352h3.13379Zm-3.13379,2.60352h3.13379v-.9502h-3.13379v.9502Zm.68359,1.57617c.47461,.7793,.75977,1.17773,1.38672,1.84375,1.04492-.70312,1.51953-1.12109,2.12695-1.84375h-3.51367Z" fill="#1d868c"/>
        <path d="M311.03094,106.59829c.38086-.93066,.62695-1.7666,.81738-2.77344l2.18457,.30371c-.37988,1.12109-.55078,1.55762-.96875,2.46973h1.04492c.93066-.01953,1.48242-.03809,1.63379-.05664q-.01855,.15234-.03809,.57031c0,.03711-.01953,.09375-.01953,1.0625v1.59668c1.23535-1.44434,2.48926-4.1416,2.77344-5.98438l2.18555,.36035c-.11426,.2666-.15234,.36133-.26562,.74219-.07617,.28418-.38086,1.1582-.55078,1.5957h4.0459c.77832,0,1.23535-.01953,1.61426-.07617q-.05664,.49414-.07617,1.5c-.03711,2.35547-.20898,6.74414-.28516,7.71289-.36035,4.80664-.85352,5.52832-3.7793,5.52832-.45703,0-.93164-.01855-1.88086-.0752-.07617-.85547-.20898-1.38672-.53223-2.16602,1.19629,.18945,1.84277,.26562,2.43164,.26562,.81738,0,1.10254-.15234,1.27246-.70312,.39941-1.17773,.64648-4.76758,.70312-9.99219h-4.40723c-.74121,1.46289-1.29199,2.2793-2.43164,3.57129-.28516-.41797-.3418-.47461-.81738-.9502v7.29492c0,.70312,.01953,1.34961,.07617,1.88086h-2.03223v-1.13965h-2.69824v1.67188h-2.07031c.07617-.56934,.0957-1.27246,.0957-2.4502v-9.87891c0-1.00684-.01953-1.44336-.07617-1.9375,.32227,.03711,.70312,.05664,1.00586,.05664h1.04492Zm-.01855,5.20508h2.7168v-3.3623h-2.7168v3.3623Zm0,5.50977h2.7168v-3.66699h-2.7168v3.66699Zm8.94824-.85547c-.62695-1.82324-1.55859-3.64746-2.45117-4.8252l1.72852-.93066c1.14062,1.63379,1.72852,2.67871,2.64062,4.71094l-1.91797,1.04492Z" fill="#1d868c"/>
        <path d="M331.07684,106.69399c0-.74219-.03809-1.40625-.09473-2.0332,.60742,.07617,1.23438,.09473,2.1084,.09473h9.19434c.89258,0,1.48242-.01855,2.05176-.09473-.0752,.72168-.09473,1.27246-.09473,1.9375v12.27246c0,.9873,.03809,1.61426,.11328,2.29785h-2.29883v-1.13867h-8.83301v1.13867h-2.26074c.07617-.64551,.11426-1.40527,.11426-2.29785v-12.17676Zm2.14648,4.48242h8.83301v-4.40723h-8.83301v4.40723Zm0,6.8584h8.83301v-4.86328h-8.83301v4.86328Z" fill="#1d868c"/>
        <path d="M352.14715,109.02993c-.83594,0-1.48145,.03809-2.26074,.11426v-2.31738c.74121,.09473,1.36816,.13281,2.26074,.13281h4.88184v-1.34961c0-.74023-.03711-1.21484-.11328-1.76562h2.375c-.0957,.53125-.13281,1.04492-.13281,1.74707v1.36816h5.14746c.9502,0,1.65332-.03809,2.29883-.13281v2.31738c-.83594-.07617-1.40527-.11426-2.29883-.11426h-4.06543c.89258,1.61523,1.78516,2.86914,2.84961,3.98926,1.29199,1.34863,2.64062,2.39355,4.1416,3.19238-.58887,.70215-.91211,1.21484-1.29199,2.07031-1.21582-.83594-2.0332-1.50098-3.19141-2.64062v2.16602c-.58887-.07617-1.12109-.11523-1.90039-.11523h-1.68945v1.29297c0,.89258,.03711,1.69043,.13281,2.35547h-2.39453c.0957-.70312,.13281-1.46289,.13281-2.35547v-1.29297h-1.5c-.7793,0-1.33008,.03906-1.90039,.11523v-2.14746c-1.08203,1.13965-1.88086,1.82324-3.07715,2.65918-.37988-.85352-.66504-1.29102-1.29199-1.99414,2.84961-1.7666,5.14844-4.3125,6.61133-7.29492h-3.72363Zm4.88184,3.62891c0-.58984,.05762-1.34961,.15234-2.12793-1.00684,2.05176-1.91797,3.38184-3.45703,5.03418,.43652,.05664,.81641,.07617,1.69043,.07617h1.61426v-2.98242Zm3.9707,2.98242c.87402,0,1.2168-.01953,1.67188-.07617-1.48145-1.48242-2.31738-2.64062-3.68555-5.03418,.11426,.77832,.17188,1.53809,.17188,2.1084v3.00195h1.8418Z" fill="#1d868c"/>
        <path d="M375.55536,105.32485c-.36133,1.12109-.56934,1.69141-1.00684,2.8125v10.77148c0,1.08203,.01953,1.8418,.09473,2.46875h-2.22266c.07617-.68359,.11426-1.42383,.11426-2.4502v-4.91992c0-.74121,0-1.53906,.03711-2.41309-.56934,.98828-.79688,1.31055-1.40527,1.99512-.22754-1.06348-.47461-1.70996-.89258-2.4502,1.27246-1.42578,2.22266-3.11621,2.94434-5.35742,.32324-.96875,.53223-1.76758,.58887-2.22266l2.14746,.45508q-.0957,.28516-.32422,1.04492c.49414,.05664,1.12109,.0957,1.99512,.0957h3.04004c0-.55078-.03809-.85547-.0957-1.27344h2.10938c-.07617,.4375-.11426,.72266-.11426,1.27344h3.53418c.79688,0,1.36719-.03906,1.86133-.11426v1.84277c-.47461-.05664-1.17773-.0957-2.05176-.0957h-3.34375v.62695h3.24902c.77832,0,1.13867-.01855,1.51953-.0752-.03809,.41699-.05664,.87402-.05664,1.5957v2.22266c0,.74121,.01855,1.17773,.05664,1.5957-.26562-.01855-.3418-.01855-.60742-.03809,.70215,.79785,.91113,1.04492,1.53809,1.91895l-1.51953,.89258c-.28516-.43652-.39941-.6084-.6084-.91113-1.99414,.22656-4.10352,.37891-7.18066,.51172-2.69824,.13281-2.79199,.13281-3.26758,.22852l-.22754-1.86133c.49414,.05664,1.02539,.07617,2.22266,.07617q.64551,0,3.00098-.0957v-.7793h-3.09668c-.77832,0-1.06348,0-1.53906,.03906,.05762-.47559,.07617-.83594,.07617-1.46289v-2.45117c0-.62695-.01855-.98828-.07617-1.48145,.47559,.05664,.91211,.0752,1.65332,.0752h2.98242v-.62695h-3.07715c-.89258,0-1.55859,.03906-2.05176,.0957v-1.55859Zm8.0166,10.62012c0-.20898-.01953-.24707-.01953-.3418v-.20898c0-.11426,0-.13379-.03711-.22754h2.03223c-.01855,.24609-.01855,.47461-.01855,.77832h.83594c.87305,0,1.38672-.03809,1.91797-.11426v1.91895c-.55078-.07617-1.10156-.11426-1.95605-.11426h-.79785v1.9375c0,1.34961-.57031,1.69141-2.75488,1.69141-.24707,0-.32324,0-1.3291-.03809-.13379-.70312-.2666-1.10254-.64648-1.8623,.74023,.0957,1.34863,.13379,2.05176,.13379,.58887,0,.72168-.07617,.72168-.41797v-1.44434h-4.95801c.72168,.58984,1.29199,1.14062,2.07031,2.0332l-1.55762,1.23438c-.89258-1.1582-1.38672-1.65234-2.33594-2.43164l1.23438-.83594h-.7793c-.87305,0-1.46289,.03809-1.97559,.11426v-1.89941c.39941,.05664,1.02637,.09473,1.97559,.09473h6.32617Zm-5.50977-7.12402v.58887h2.67969v-.58887h-2.67969Zm0,1.86133v.6084h2.67969v-.6084h-2.67969Zm7.25781-1.27246v-.58887h-2.84961v.58887h2.84961Zm0,1.88086v-.6084h-2.84961v.6084h2.84961Zm-2.84961,2.1084c.5127-.03711,.91211-.05664,1.17773-.07617,.81641-.03711,1.04492-.05664,1.40625-.09473-.17188-.20898-.19043-.22754-.49414-.53223h-2.08984v.70312Z" fill="#1d868c"/>
        <path d="M394.47918,114.5768c-.05664,2.50781-.26562,3.93262-.81738,5.79492l-1.61426-.7793c.5127-1.5957,.70312-2.81152,.7793-5.22461l1.65234,.20898Zm-2.33691-2.73535c.28516,.01855,.45703,.03809,.7793,.03809h.70312q.55078-.75977,.87305-1.27344c-.68359-.9873-1.42383-1.86133-2.41211-2.86719l.91211-1.61523c.36133,.36133,.47461,.49414,.70312,.74023,.72168-1.19629,1.23438-2.33594,1.48145-3.26758l1.84277,.74121c-.20898,.37988-.32324,.6084-.70312,1.31152-.66406,1.21484-.93066,1.69043-1.48145,2.50684,.28418,.34277,.39941,.49414,.68359,.87402,.9502-1.53906,1.46289-2.48828,1.80469-3.38086l1.50098,.83594v-.70312c.55078,.07617,1.17773,.11328,2.01367,.11328h1.99414v-.55078c0-.60742-.01855-.98828-.09375-1.48145h2.16504c-.07617,.49316-.09473,.85449-.09473,1.50098v.53125h2.62109c.83594,0,1.4248-.03711,1.99512-.11328v2.01367c-.58887-.05664-1.17871-.0957-1.82324-.0957h-3.72461c-.41797,.98828-.89258,1.9375-1.3291,2.64062,1.23438-.05664,2.58301-.16992,3.51465-.26562-.3418-.45605-.55078-.70312-1.15918-1.33008l1.51953-.94922c1.27246,1.36719,2.16602,2.52637,3.21094,4.17969l-1.63379,1.12012c-.38086-.72168-.51367-.96875-.81641-1.44434-2.0332,.24805-2.26172,.28516-6.36523,.55176-.64551,.03809-.94922,.0752-1.38672,.11426l-.22754-1.93848c.37988,.03809,.53223,.03809,.85449,.03809h.28516c.60742-.93066,1.06445-1.78516,1.44336-2.7168h-1.13867c-.7793,0-1.27344,.01953-1.82422,.0957v-.85547c-.11426,.17188-.13281,.20898-.26562,.4375-.93164,1.53906-2.14648,3.3623-2.94531,4.42578,.51367-.01855,1.17773-.07617,1.99512-.15234-.19043-.51172-.30371-.74023-.6084-1.34766l1.27344-.62695c.66406,1.17773,.94922,1.9375,1.46289,3.66602l-1.46289,.62695q-.0957-.39844-.18945-.79785c-.39941,.05664-.49414,.0752-1.17871,.15137v6.06055c0,.91211,.03809,1.4248,.11426,1.99414h-2.08984c.07617-.58789,.11426-1.12012,.11426-1.99414v-5.87012c-1.61523,.13281-2.50781,.20898-2.65918,.24707l-.24805-1.91895Zm6.78223,2.39355c.30371,1.19727,.47559,2.12793,.62695,3.72363l-1.55762,.49414c-.07617-1.38672-.26562-2.73535-.53125-3.7998l1.46191-.41797Zm4.10352-1.44336c-.03809,.32227-.05762,.49414-.0752,1.40625-.01953,1.87988-.28516,3.17188-.89355,4.34961-.55078,1.10156-1.17773,1.7666-2.65918,2.83008-.41797-.70215-.7793-1.10156-1.50195-1.65234,.83594-.45508,1.10254-.62695,1.53906-1.02539,1.12109-1.02637,1.57715-2.43164,1.57715-4.78711,0-.47559-.01855-.74121-.07617-1.12109h2.08984Zm3.41895-.05664c-.05664,.45508-.0752,.9873-.0752,1.74707v4.25488c0,.38086,.0752,.4375,.66504,.4375,.3418,0,.49414-.05664,.58789-.20898,.13379-.20898,.22852-1.10156,.22852-2.01367v-1.17773c.57031,.37988,1.06445,.58887,1.82422,.7793-.01953,1.74707-.19043,3.11523-.45605,3.62793-.36133,.66504-.96973,.87402-2.4502,.87402-1.88086,0-2.35645-.32324-2.35645-1.53906v-4.95801c0-.93066-.01855-1.36816-.0752-1.82324h2.10742Z" fill="#1d868c"/>
        <path d="M415.70282,113.30434c-.7793,0-1.38672,.03809-2.01367,.11426v-1.95703c.58887,.07617,1.19727,.11426,2.01367,.11426h5.24316v-1.21582h-4.08496c-.74023,0-1.1582,.01855-1.69043,.09473v-1.84277c.5127,.07617,.89355,.0957,1.69043,.0957h4.08496v-1.17773h-4.55957c-.85547,0-1.48145,.03711-2.0332,.09375v-1.89941c.6084,.07617,1.19727,.11426,2.0332,.11426h2.22266c-.4375-.72266-.72168-1.08301-1.12109-1.51953l1.91895-.66504c.6084,.81738,1.02637,1.48145,1.40527,2.18457h2.41309c.49414-.64648,.87402-1.29199,1.23535-2.08984l2.07031,.53223c-.32227,.53223-.68359,1.02637-1.10156,1.55762h2.35547c.89258,0,1.46289-.03809,2.0332-.11426v1.89941c-.57031-.05664-1.17773-.09375-2.0332-.09375h-4.78711v1.17773h4.29297c.79785,0,1.17773-.01953,1.70996-.0957v1.84277c-.53223-.07617-.9502-.09473-1.70996-.09473h-4.29297v1.21582h5.45215c.89258,0,1.46289-.03809,2.03223-.11426v1.95703c-.56934-.0957-1.10156-.11426-2.03223-.11426h-5.49023q-.01855,.11426-.05762,.56934c0,.01953-.03711,.2666-.11328,.74219h5.43359c.91113,0,1.42383-.01953,2.03223-.0957v1.95703c-.64551-.07617-1.33008-.11426-2.18457-.11426h-4.29297c.79688,.91113,1.80469,1.61426,3.03906,2.1084,1.21582,.47461,2.22266,.68359,3.95117,.79883-.49414,.89258-.64648,1.29102-.85449,2.18359-2.18457-.37891-3.51465-.81641-4.88184-1.57617-1.31152-.75977-2.31836-1.67188-3.13477-2.84961-.57031,.93066-1.33008,1.7666-2.33691,2.46973-1.27246,.89258-2.56543,1.36816-5.24316,1.91895-.19043-.79883-.36133-1.14062-.91211-2.07129,3.05859-.30371,5.11035-1.23535,6.47852-2.98242h-3.78125c-.85449,0-1.53906,.03809-2.18457,.11426v-1.95703c.6084,.07617,1.19727,.0957,2.03223,.0957h4.73047c.07617-.32422,.0957-.41797,.0957-.5332,.01855-.24609,.03711-.41797,.05664-.47461,.01953-.01855,.01953-.03711,.01953-.05664l-.03906-.22852s.01953,0,.01953-.01855h-5.12891Z" fill="#1d868c"/>
        <path d="M439.66082,115.64125v3.22949c1.82324-.28516,1.97559-.30371,3.7041-.68457v1.82422c-2.01367,.47461-3.49512,.75977-6.89551,1.33008-.24707,.05664-.49316,.09473-.87402,.18945l-.36133-2.18457h.28516c.24805,0,1.38672-.09473,2.14648-.19043v-8.56738c0-.22754,0-.36035-.01855-.85449-.89258,.45508-1.31055,.64551-2.37402,1.08203-.3418-.9873-.4375-1.19629-.93164-2.07031,3.28711-1.04492,6.08008-2.81152,7.75098-4.88184h2.24121c.96973,1.13965,1.95703,1.97559,3.38281,2.83105,1.40527,.85352,2.98242,1.53809,4.61523,1.99414-.39844,.64648-.68359,1.27344-.94922,2.1084-1.02539-.37988-1.67188-.68359-2.50781-1.12012v4.63477c0,.37988,0,.55078,.01953,.85547,.15137-.17188,.18945-.22852,.36035-.41797l1.91895,1.02539c-1.19727,1.06445-2.24219,1.86133-3.38184,2.62109,1.34863,.51367,2.5459,.7793,4.3125,.96875-.47559,.83594-.72168,1.38672-.96875,2.10938-2.98242-.58887-4.97754-1.40625-6.64941-2.73633-1.25391-.9873-1.99414-1.82324-2.77344-3.0957h-2.05176Zm2.58398-7.00977v-.55078c0-.5332-.01855-.83594-.09473-1.14062h2.08984c-.05762,.3418-.07617,.60742-.07617,1.14062v.55078h2.92578c-1.61523-1.00781-2.77441-1.97656-3.85742-3.17285-1.06348,1.21582-2.20312,2.18457-3.74219,3.17285h2.75488Zm-2.58398,2.65918h7.21973v-.9502h-7.21973v.9502Zm0,2.67871h7.21973v-1.06445h-7.21973v1.06445Zm4.3125,1.67188c.53223,.74023,1.13965,1.31055,1.97559,1.8418,1.00684-.62598,1.57715-1.04395,2.43164-1.82324-.41797-.01855-.74023-.01855-1.1582-.01855h-3.24902Z" fill="#1d868c"/>
      </g>
      <rect width="484.45282" height="75.82553" fill="#fff" opacity=".98"/>
      <g>
        <path d="M104.83037,28.87757l-.46808-1.6768-.744-1.56402-1.08153-1.34758-1.42771-.96924-1.64708-.52384-1.72717-.14328-1.62553,.13676-1.55656,.4826-1.35468,.90254-1.04187,1.24828-.72982,1.45867-.47073,1.55902-.27524,1.61137-.14931,1.62705-.05067,1.63712-.00038,1.49595,.00966,1.49836,.00067,1.49836,.03309,1.63432,.15245,1.62523,.29245,1.6059,.47255,1.56289,.72354,1.45944,1.05175,1.2398,1.3467,.9069,1.54885,.49528,1.62307,.1393,1.7371-.13812,1.65805-.51268,1.4428-.95774,1.07749-1.36046,.71998-1.5803,.46305-1.67138,1.88496-.00512,1.89001-.00122,1.88844,.00445-.3255,1.6948-.46699,1.66463-.64051,1.60533-.85041,1.50359-1.06499,1.35918-1.27345,1.16384-1.45403,.92755-1.58012,.69312-1.66961,.43965-1.7086,.25384-1.72767,.0688-1.67492-.06669-1.65639-.25281-1.61704-.43291-1.54001-.65631-1.42632-.87537-1.26372-1.09568-1.08776-1.27007-.88104-1.4227-.69302-1.52376-.52602-1.58729-.37671-1.631-.24383-1.65787-.14341-1.6705-.03464-1.67782-.00725-1.49595-.0019-1.49836,.00279-1.49836,.04826-1.67831,.13679-1.67067,.24209-1.65804,.36998-1.63559,.53697-1.58676,.68912-1.52611,.8937-1.41527,1.08235-1.27578,1.26661-1.09161,1.42096-.88182,1.54359-.64267,1.61192-.44507,1.65646-.23738,1.67241-.08388,1.72537,.08449,1.70585,.26187,1.66138,.46565,1.58213,.6886,1.44696,.93922,1.27509,1.16116,1.0714,1.35045,.87057,1.48803,.65885,1.5951,.48635,1.65639,.3284,1.68966-1.90181,.01256-1.90704-.00304-1.90794,.00018Z" fill="#1d868c"/>
        <path d="M137.24712,53.17338l-1.78225,.00126-1.78783-.00329-1.79021,.00671,.00271-2.29939-1.15864,1.37722-1.56084,.88559-1.75469,.39553-1.80582,.09977-1.73742-.10872-1.70438-.35225-1.60807-.6619-1.42333-.99473-1.15256-1.29889-.82107-1.53059-.53575-1.65422-.2769-1.71618-.08197-1.74121-.00623-1.58759,.00328-1.58763-.00173-1.59288,.00525-1.59025,.00062-1.59239,.00042-1.59419-.00134-1.59191-.00525-1.59564,.0024-1.59821-.00167-1.60142,1.82177,.0022,1.82189,.00305,1.82541-.00581-.00133,1.70498-.00088,1.70684,.00156,1.70402-.00493,1.70631-.00163,1.70823-.00043,1.7058,.00079,1.70979,.00554,1.71255-.00083,1.71255,.11606,1.74928,.47244,1.68597,1.02615,1.40237,1.54988,.78151,1.73529,.19789,1.74243-.22867,1.56289-.79445,1.12543-1.3418,.60789-1.64719,.16613-1.75392-.00061-1.70685-.00131-1.7125,.00332-1.70968,.00152-1.71197-.00433-1.7139,.00877-1.71146-.00602-1.71547,.00376-1.71823-.0016-1.71749,1.80125,.00337,1.80486-.00881,1.80834,.00101-.00211,1.70454-.00064,1.69896-.00477,1.70095,.00697,1.7-.00318,1.70161,.00366,1.70057-.00732,1.69643,.00143,1.70204,.00178,1.69923-.0037,1.70151,.00029,1.70343,.00648,1.701-.00552,1.70498,.00052,1.70773-.00006,1.70491Z" fill="#1d868c"/>
        <path d="M145.41486,17.94606l1.82165,.00411,1.82189-.00265,1.82176,.00156-.0019,1.61824,.00007,1.62023-.00124,1.61843,.00414,1.62032,.00142,1.61941-.00047,1.62095,.00076,1.61637-.0069,1.61641,.00089,1.62176,.00564,1.61908,.00298,1.62126-.00267,1.62308-.00007,1.62077-.00035,1.62457,.00312,1.62718-.00934,1.62718,.11358,1.73876,.61547,1.61028,1.42707,.9383,1.73283,.20343,.00214,1.60003-.011,1.60054,.00104,1.59949-1.59135-.04157-1.58444-.17137-1.55552-.34008-1.47434-.6005-1.27194-.94838-.94614-1.27195-.55876-1.48662-.27484-1.5625-.08729-1.59149,.00187-1.69803,.00592-1.69996-.00849-1.69808,.00422-1.70006-.00398-1.69911,.01156-1.70072-.00695-1.69969-.00165-1.69554-.00078-1.70115-.00317-1.69834,.01129-1.70062-.00401-1.70254,.00392-1.70012-.00079-1.7041-.00398-1.70684-.00292-1.70971Z" fill="#1d868c"/>
        <path d="M160.06982,27.64923l1.63367,.00516,1.63073-.00784,.00657-1.86734,.00217-1.87298-.00386-1.87117,1.80009,.00171,1.80488-.00539,1.8081-.00124-.00875,1.87307,.00441,1.87298,.00309,1.87108,1.79998,.00034,1.80486-.00013,1.80152,.00554,.00042,1.56011,.00439,1.56648,.00197,1.57044-1.80539-.00189-1.80486-.00371-1.80516,.00132,.00567,1.66619-.00924,1.6681-.00028,1.66998,.0053,1.66761,.00348,1.67151,.00125,1.6742-.01055,1.6742,.07605,1.59129,.43507,1.51929,1.23536,.93636,1.57671,.19171,2.0964-.00538-.00624,1.63614,.00883,1.6346-.00604,1.63444-1.25061-.0024-1.25083,.0081-1.7039-.07343-1.68745-.23103-1.62208-.52308-1.41008-.94352-1.0075-1.36347-.56798-1.60198-.25914-1.68224-.06877-1.70442,.00922-1.58773-.00783-1.58511-.0013-1.58724,.00047-1.58903,.00003-1.58677,.00984-1.59048-.00649-1.59304,.00126-1.59312-1.6338,.0032-1.63217-.00476-.00773-1.56234,.00888-1.56648-.00265-1.56642Z" fill="#1d868c"/>
        <path d="M200.91207,53.17599l-1.78476,.00175-1.78783-.00456-1.7839-.00004-.00322-2.29456-1.16379,1.37171-1.55553,.8927-1.75511,.39511-1.80595,.09689-1.73752-.10619-1.70463-.35182-1.60654-.66527-1.42627-.99056-1.14567-1.30441-.82849-1.52609-.53272-1.65535-.28117-1.71565-.07892-1.74156,.00218-1.58759-.00681-1.58763,.00725-1.59288-.00724-1.59025,.00412-1.59239-.00114-1.59419,.00106-1.59191-.00429-1.59564,.00148-1.59821-.00002-1.60104,1.82144-.00193,1.82189,.00384,1.82263,.00012-.00333,1.70201,.00425,1.70684,.00146,1.70402,.0014,1.70631-.00324,1.70823-.00542,1.7058,.00877,1.70979-.00483,1.71255-.00389,1.71255,.12222,1.74918,.4732,1.68543,1.02854,1.39849,1.54614,.78566,1.73519,.20488,1.74237-.23548,1.56436-.79246,1.12458-1.34327,.60214-1.64861,.17886-1.75282-.00734-1.70685,.00014-1.7125-.00205-1.70968,.00759-1.71197-.0067-1.7139-.00082-1.71146,.00849-1.71547-.00111-1.71823-.00608-1.72149,1.80506,.00325,1.80486,.00363,1.80416-.00288-.00098,1.70011,.00484,1.69896-.00757,1.70095,.00646,1.7,.00109,1.70161-.00752,1.70057,.00416,1.69643,.00143,1.70204-.00047,1.69923-.00035,1.70151,.0008,1.70343,.00351,1.701-.00786,1.70498,.00086,1.70773,.00209,1.70753Z" fill="#1d868c"/>
        <path d="M221.89525,34.03307l-.97318-1.08033-1.26831-.6981-1.43515-.21847-1.6375,.28089-1.41767,.85693-.98097,1.34-.51118,1.58257-.14729,1.66135-.00453,1.70685-.00219,1.7125,.00346,1.70968,.00022,1.71197,.00366,1.7139-.00126,1.71146,.00181,1.71547-.0014,1.71823-.00064,1.71984-1.82047-.00237-1.82189,.00396-1.8188-.00651-.00346-1.69754,.00396-1.69896-.00852-1.70095,.00418-1.7-.00169-1.70161,.00455-1.70057-.00058-1.69643-.00191-1.70204,.00259-1.69923-.00224-1.70151,.00288-1.70343,.00148-1.701-.00865-1.70498,.00485-1.70773,.00019-1.70698,1.78425,.00436,1.78785-.00344,1.78838-.00209-.00279,2.29823,1.08836-1.24654,1.39922-.87954,1.57927-.49113,1.65346-.14369,1.6818,.13205,1.63135,.42225,1.49084,.78269,1.26793,1.10667,1.02588,1.33901-1.4435,1.02295-1.44871,1.01961-1.44794,1.02176Z" fill="#1d868c"/>
        <path d="M249.15847,49.29522l-1.02626,1.45362-1.32111,1.18517-1.55348,.85389-1.70059,.51656-1.75813,.25896-1.78041,.07167-1.6537-.08304-1.62987-.27947-1.57618-.4993-1.48093-.73286-1.3311-.97975-1.13253-1.20271-.91178-1.3775-.66978-1.50981-.45469-1.58806-.26148-1.63241-.07887-1.65271-.00113-1.73585,.00231-1.73585,.05373-1.60289,.20245-1.58975,.35625-1.56145,.56611-1.49757,.78909-1.3922,1.03002-1.22226,1.2497-.99511,1.41457-.74154,1.52324-.48637,1.5779-.26261,1.5998-.08796,1.625,.08951,1.60289,.26561,1.5427,.5092,1.42799,.77144,1.24855,1.03581,1.00392,1.27498,.76248,1.43269,.52408,1.53557,.33511,1.58967,.18236,1.6151,.06125,1.6265-.00619,1.40398-.00055,1.39996-1.68657,.00716-1.6955-.00438-1.6927,.00467-1.69497-.00322-1.69688-.00439-1.69446,.00395-1.69843,.00258-1.70117,.00192-1.70106-.00245,.00503,.10029,.09651,1.70597,.35998,1.66673,.72303,1.54108,1.16145,1.23645,1.52818,.73517,1.69065,.20804,1.5309-.09538,1.48299-.38472,1.28326-.82767,.96039-1.18748,1.36146,.94797,1.36255,.953,1.36262,.95383Zm-14.85747-11.74304l1.62191-.00145,1.62429,.00552,1.62198-.00582,1.62578,.00302,1.6284-.00036,1.62861,.00111-.20861-1.67145-.52008-1.5947-.99603-1.3386-1.46592-.78817-1.65969-.21953-1.65354,.23312-1.44736,.81716-1.00868,1.32556-.55458,1.57677-.23646,1.65781Z" fill="#1d868c"/>
        <path d="M290.7127,41.99535l-.06473,1.64429-.22758,1.62816-.39883,1.5966-.61362,1.52446-.84712,1.4073-1.07843,1.23828-1.30244,.99888-1.45826,.75052-1.5648,.50111-1.62203,.26297-1.64351,.08622-1.64412-.08141-1.61906-.28353-1.56237-.50997-1.46096-.75072-1.30061-1.00335-1.08899-1.22954-.8579-1.40014-.62419-1.51864-.41308-1.59012-.23686-1.62703-.06377-1.64433-.00694-1.60816,.00672-1.60816,.0698-1.64522,.21328-1.63154,.41313-1.5921,.61579-1.52353,.85639-1.40286,1.09921-1.21946,1.30691-.99229,1.46298-.74415,1.5708-.48069,1.62054-.27131,1.6433-.08943,1.64173,.08115,1.61808,.27639,1.56838,.48442,1.45968,.74869,1.30548,.991,1.09142,1.22388,.84479,1.40505,.61373,1.51973,.39052,1.5937,.2229,1.62621,.07022,1.64238,.00083,1.60816-.00642,1.60816Zm-5.40754-.15312l-.00393-1.48061,.00574-1.48061-.09951-1.66915-.338-1.63559-.68851-1.51661-1.13844-1.20698-1.49729-.71282-1.65386-.20114-1.66077,.20834-1.51424,.6963-1.14343,1.21194-.69706,1.51768-.34896,1.63348-.10144,1.67456,.0049,1.48061,.00271,1.48061,.08961,1.70171,.33054,1.66712,.68032,1.55419,1.1413,1.24845,1.53106,.71469,1.68547,.21299,1.6642-.23082,1.49856-.75072,1.11721-1.25116,.67934-1.53725,.35576-1.64514,.09873-1.68406Z" fill="#1d868c"/>
        <path d="M297.96309,27.64831l-.00045-1.58173,.06847-1.70449,.26004-1.6838,.56532-1.60645,1.00641-1.36674,1.41608-.93424,1.61698-.52363,1.68579-.23259,1.70405-.07238,1.58257,.00677,.00572,1.63188-.00997,1.6346,.00913,1.63804-1.17909,.0036-1.57564,.19204-1.23443,.93506-.43109,1.51308-.07504,1.59022-.00268,.56276,1.4964-.00595,1.49839-.00166,1.49468,.01003,.0091,1.56042-.0022,1.56648-.00657,1.56326-1.4926,.00604-1.49839-.00477-1.49461,.00549-.00488,1.5977,.00645,1.60034-.00398,1.60186,.00067,1.59733-.00018,1.59737-.00744,1.60266,.01014,1.60001-.00629,1.60216,.00406,1.60397,.00116,1.60168-.00625,1.60543,.00362,1.60802,.00178,1.61097-1.80461-.00322-1.80488-.00254-1.80309,.00078-.00278-1.59921,.0033-1.60034-.0058-1.60186,.0015-1.59733-.00418-1.59737,.00774-1.60266-.00028-1.60001-.00537-1.60216,.00925-1.60397-.00468-1.60168-.00476-1.60543,.00905-1.60802-.0037-1.60912-1.63481,.00516-1.63555-.00216,.00704-1.56587-.00086-1.56648-.00875-1.57106,1.63812,.00664,1.63289-.00292Z" fill="#1d868c"/>
        <path d="M328.95386,45.92972l1.01752,1.08626,1.2453,.81697,1.40823,.48736,1.48458,.16011,1.59331-.14201,1.51461-.50003,1.25777-.97551,.85908-1.3436,.51991-1.51198,.3059-1.5712,.13627-1.59363,.0408-1.60394-.00319-1.63656,.00911-1.63564,.00088-1.63719-.00995-1.63257,.00446-1.63261,.00297-1.63801,.00356-1.63531-.00198-1.6375-.00874-1.63935,.00149-1.63701,.008-1.64085-.01024-1.64349,.00844-1.63995,1.47285-.00444,1.48025,.00773,1.48263-.01349,1.48518,.00435,.00386,1.63887-.00839,1.63564,.0069,1.63719-.00651,1.63257,.00569,1.63261-.00996,1.63801,.00748,1.63531-.00482,1.6375,.00656,1.63935,.00314,1.63701-.00837,1.64085-.00024,1.64349,.00634,1.64349-.0416,1.65071-.13896,1.64167-.23663,1.63221-.36571,1.60794-.545,1.5545-.72667,1.47831-.95581,1.34017-1.16596,1.15901-1.3644,.91587-1.49824,.67453-1.5852,.43935-1.62967,.23142-1.64596,.07469-1.70703-.08034-1.68684-.2741-1.64522-.45612-1.56107-.69162-1.43629-.92224-1.2697-1.14053-1.0583-1.33989,1.65023-.93315,1.65268-.93463,1.65066-.93658Z" fill="#1d868c"/>
        <path d="M362.54563,38.11791l1.83596,.00189,1.83892-.00331,1.83938-.00081,.00401-2.14461-.13128-1.52845-.61909-1.38665-1.2735-.81634-1.49945-.29467-1.53545-.06294-1.54774,.06108-1.51916,.27954-1.32903,.76069-.96546,1.20351-1.30633-.92348-1.31225-.91781-1.31297-.91751,.93114-1.28466,1.16061-1.07573,1.35545-.81606,1.48797-.53074,1.55087-.32672,1.57669-.15443,1.58757-.05073,1.72633,.05563,1.71743,.19074,1.68236,.39658,1.57741,.6967,1.35318,1.0618,1.00041,1.39876,.61167,1.61089,.29968,1.69724,.08736,1.72475-.00035,1.71351,.00366,1.70933,.00284,1.71498-.0047,1.71215-.00269,1.71445,.00119,1.71639,.00142,1.71394,.00279,1.71795-.0019,1.72072-.00118,1.72-1.78428-.0005-1.78785,.0052-1.78766-.00413-.00368-2.34769-1.07207,1.3482-1.44874,.92755-1.6704,.42187-1.72754,.10897-1.71037-.0971-1.68211-.31655-1.60998-.58304-1.45239-.90233-1.18535-1.22943-.83902-1.48643-.46712-1.64349-.14637-1.70527,.15774-1.71903,.505-1.64721,.92827-1.44893,1.29364-1.13334,1.52787-.79221,1.6563-.47987,1.70637-.25545,1.72595-.07735Zm5.51533,4.18168l-1.7015-.00238-1.7027,.00331-1.7027,.0006-1.61689,.11506-1.53414,.5085-1.08892,1.16563-.30278,1.58098,.30731,1.51073,1.03483,1.13411,1.44986,.53116,1.54647,.1412,1.77255-.12807,1.66375-.59624,1.20228-1.27922,.5404-1.68275,.1293-1.77528,.00286-1.22736Z" fill="#1d868c"/>
        <path d="M403.23462,42.09747l-.08292,1.73173-.24178,1.7169-.46347,1.67004-.67911,1.59408-.93991,1.45428-1.20208,1.24491-1.43114,.9721-1.59637,.66695-1.68982,.37984-1.73054,.1135-1.67736-.10089-1.64959-.31777-1.54447-.64093-1.31062-1.04112-.00127,1.61632,.00143,1.61709,.00066,1.61892-.00216,1.61661,.0002,1.6204,.01174,1.62301-.00408,1.62527-1.821-.00283-1.82191,.00637-1.81902-.00895,.00379-1.66968-.01339-1.67363,.01317-1.67634-.00547-1.67602,.00586-1.67455-.00438-1.6757-.00413-1.67761-.0029-1.67575,.0069-1.67771-.00855-1.67677,.01068-1.67835-.00373-1.67361,.00404-1.67366,.00137-1.67919-.00793-1.67642,.00524-1.67867-.00118-1.68057-.0087-1.67817,.01301-1.6821-.00765-1.68481,.00159-1.68422,1.81843-.00242,1.82191-.00035,1.82005,.00385,.00748,2.03929,1.26628-1.17138,1.53822-.79724,1.68483-.41222,1.73359-.12133,1.7162,.11824,1.67869,.37321,1.58816,.6587,1.41897,.96808,1.20564,1.2234,.94145,1.43705,.68664,1.57438,.44066,1.66221,.25882,1.70092,.07272,1.72161-.00185,1.73585,.00007,1.73585Zm-5.41089-.25524l.00478-1.48061-.00956-1.48061-.08399-1.67004-.34558-1.63461-.69166-1.51448-1.13276-1.21227-1.50025-.70702-1.65311-.20519-1.60615,.19993-1.46788,.66117-1.14375,1.13372-.71576,1.44989-.36174,1.5751-.1211,1.61755-.00106,1.63374,.00143,1.63373,.08898,1.69795,.31793,1.66613,.66896,1.55628,1.13907,1.24358,1.51967,.72465,1.68139,.20852,1.66377-.23019,1.50012-.74781,1.11815-1.25134,.67489-1.53929,.36044-1.64412,.09476-1.68435Z" fill="#1d868c"/>
        <path d="M418.55083,38.11788l1.83601-.00104,1.83896,.00051,1.84123-.00013,.00009-2.14616-.12765-1.52878-.61736-1.38913-1.27759-.81133-1.49882-.29594-1.53538-.06274-1.54801,.05669-1.51947,.28105-1.32348,.76799-.96848,1.19047-1.31082-.91231-1.31068-.91998-1.3089-.9212,.93351-1.27779,1.1579-1.07686,1.35537-.81404,1.48468-.53874,1.55149-.32451,1.5763-.16091,1.58796-.04319,1.72639,.05406,1.7179,.18841,1.67911,.40819,1.582,.68501,1.35255,1.0638,.9953,1.40193,.6183,1.60813,.30223,1.69739,.08506,1.72531-.0001,1.71351,.00203,1.70933-.00595,1.71498-.0023,1.71215,.00153,1.71445,.00593,1.71639,.00148,1.71394-.00129,1.71795-.00081,1.72072-.00179,1.72054-1.7848,.0031-1.78785-.00726-1.78689,.00361,.00084-2.34806-1.07929,1.34708-1.4487,.92511-1.6685,.4267-1.7276,.11234-1.71029-.10153-1.68279-.31361-1.60905-.58596-1.44827-.90721-1.18937-1.22417-.83868-1.48642-.47254-1.64236-.14053-1.70608,.15688-1.71896,.50678-1.6463,.92357-1.45212,1.29484-1.13317,1.52954-.78937,1.65444-.48785,1.70707-.25722,1.72676-.06845Zm5.51546,4.18173l-1.70151,.00055-1.70272-.00051-1.70272-.00091-1.61654,.11952-1.53527,.50506-1.09206,1.16517-.29652,1.58281,.30583,1.51032,1.03459,1.13356,1.44862,.53534,1.54711,.13986,1.77129-.13725,1.66911-.58234,1.19428-1.28794,.54255-1.68093,.1348-1.77498-.00084-1.22734Z" fill="#1d868c"/>
        <path d="M437.5432,27.65016l1.78403,.00392,1.78785-.00425,1.78671,.00023-.00041,2.29687,1.24593-1.28828,1.56036-.87631,1.73202-.46089,1.7939-.13402,1.72971,.11159,1.69762,.34538,1.60241,.6541,1.41777,.98784,1.14358,1.29515,.82619,1.51951,.51843,1.65256,.2795,1.70836,.07242,1.73439,.00517,1.59267-.00161,1.59271,.00567,1.59798-.00841,1.59535,.00451,1.59749-.00155,1.59929,.00329,1.59701,.00143,1.60075-.0035,1.60333-.00119,1.60288-1.8016-.00361-1.8049,.00604-1.80216-.00489-.00742-1.6983,.00834-1.70684,.00023-1.70402,.00028-1.70631-.00866-1.70823,.00145-1.7058,.00756-1.70979-.0016-1.71255-.00513-1.71255-.11632-1.73077-.47189-1.66651-1.01311-1.38858-1.53088-.77708-1.71564-.20099-1.73564,.23241-1.56082,.78498-1.14573,1.31709-.62913,1.63278-.18488,1.74569,.00213,1.70685-.00953,1.7125,.00801,1.70968-.00742,1.71197,.00382,1.7139,.0031,1.71146-.00354,1.71547-.00333,1.71823,.00484,1.71869-1.81941-.00342-1.82191,.00397-1.82086-.00214,.00362-1.69972-.00381-1.69896-.00456-1.70095-.0003-1.7,.00038-1.70161,.00812-1.70057,.00053-1.69643-.00035-1.70204-.00316-1.69923,.00083-1.70151-.00461-1.70343-.00161-1.701,.00016-1.70498,.00621-1.70773-.00155-1.70675Z" fill="#1d868c"/>
      </g>
      <path d="M60.10074,26.32593l.13372-.1491,.00814-1.20438,.14271-.14287,1.81759,.00787,1.81759-.00286,.15255-.1465,.23476-1.82213,.21393-1.82466,.15175-.19414,1.53779-.5297,1.53294-.54352,.15434-.21445,.61627-1.96067,.61565-1.96086-.09055-.07817-1.53903,.56663-1.58406,.43672-1.60191,.37243-1.61004,.31656-1.62376,.24862-1.63081,.20779-1.6353,.18771-1.63537,.14215-1.6425,.11311-1.64657,.08004-1.64394,.05437-1.65243,.03043-1.65357,.02546-1.64903-.01379-1.64909-.04168-1.649-.04705-1.6473-.078-1.64366-.11658-1.64021-.13145-1.63684-.15535-1.63499-.18831-1.62785-.23045-1.6262-.25482-1.61868-.30004-1.60277-.35351-1.59389-.39307-1.55823-.49314-.09034,.09147,.6133,1.9616,.59934,1.96594,.17408,.20097,1.51987,.45908,1.51703,.46819,.14847,.17698,.23651,1.91003,.23693,1.90998,.15827,.1331,1.84887,.01472,1.84887-.00303,.14568,.13887-.00287,1.20438,.14175,.13568,.96821,.0068,.13149,.14184-.03752,1.43363-.02813,1.4362-.04222,1.43582-.14773,.14287-1.49827-.0081-1.50178,.00899-1.5042-.00369-1.5042-.00355-.1453,.14795,.00797,1.66049v1.66049s.13733,.13904,.13733,.13904l1.47396-.00319,1.47741,.00874,1.47979,.00101,1.47979-.00282,.13695,.14169-.04353,1.69937-.04942,1.70082-.04904,1.6998-.04488,1.69576-.04205,1.70145-.04838,1.69847-.03859,1.70102-.04245,1.70283-.05146,1.70016-.05385,1.70408-.03356,1.70738-.05886,1.70669,.14387,.14466,1.40142-.00299,1.40368-.00325,1.40368,.00444,.14414-.14276,.04849-1.69924,.04081-1.70105,.04337-1.69995,.05188-1.69557,.04501-1.70137,.04603-1.69854,.05366-1.70061,.038-1.70295,.04532-1.70033,.04947-1.7042,.04627-1.70703,.03896-1.70723,.15296-.14025,1.64258,.00226,1.64802-.00745,1.6453,.00076,1.6475-.00307,1.64936,.012,1.64701-.00969,1.65087,.00351,1.65353-.00101,1.65353-.00651,.15319,.14944,.03246,1.69967,.05571,1.70065,.03725,1.70012,.06002,1.69535,.03731,1.70158,.04573,1.69854,.04799,1.70076,.03543,1.70302,.0562,1.70003,.03998,1.70446,.04536,1.70706,.05255,1.70686,.14521,.14723,1.40142-.00177,1.40368,.00258,1.40368-.00777,.13819-.14024-.03975-1.69947-.04538-1.70093-.05137-1.69973-.05574-1.69547-.04474-1.70138-.0461-1.69853-.03006-1.70125-.04868-1.70267-.05248-1.70013-.04326-1.70437-.05592-1.70677-.04244-1.70714,.14244-.13713,1.89923-.01264,1.90229,.00572,1.90229-.00414,.13989-.13642,.0056-1.66049,.00502-1.66049-.15052-.13409-1.44662-.00951-1.45001,.00661-1.45234-.01002-1.45234,.008-.15069-.14537-.03344-1.43374-.04689-1.43569-.03407-1.43604,.14101-.14542,.82361,.00995Zm-20.13531,.13559l.13931-.15098,.47599,.00814,.14169-.14185,.00787-1.20438,.135-.13787,1.51253-.0114,1.51497,.01275,1.51497-.00823,.14737,.14475-.01023,1.44486,.00442,1.44824,.00949,1.45058-.00634,1.45058-.14472,.13902-1.8071-.00054-1.81001,.00232-1.81001-.00639-.13642-.1343,.0285-1.43388,.04762-1.43567,.0451-1.43574Zm14.78951,4.30542l-.13162,.15061-1.87607-.00814-1.8791,.00016-1.8791-.00787-.13787-.135-.0114-1.44486,.01275-1.44824-.00823-1.45058-.00262-1.45058,.14737-.13714,1.53336-.00442,1.53583-.00949,1.53583,.00634,.13902,.14472-.00054,1.20438,.14608,.14376,.62057,.00639,.14411,.13441,.04903,1.43332,.03004,1.43615,.03255,1.43608Z" fill="#1d868c"/>
    </g>
  </g>
</svg>