<?xml version="1.0" encoding="UTF-8"?>
<svg id="b" data-name="レイヤー 2" xmlns="http://www.w3.org/2000/svg" width="620.45282" height="132.02016" viewBox="0 0 620.45282 132.02016">
  <g id="c" data-name="レイヤー 2">
    <g>
      <rect y="91.27016" width="620.45282" height="40.75" fill="#fff" opacity=".98"/>
      <g>
        <path d="M32.27655,119.80141v-16.56152h5.88037c3.74414,0,6.36035,1.9209,6.36035,7.2002v2.16016c0,5.25684-2.61621,7.20117-6.36035,7.20117h-5.88037Zm8.88037-7.20117v-2.16016c0-2.85547-.76807-4.34375-3-4.34375h-2.52051v10.87305h2.52051c2.23193,0,3-1.51172,3-4.36914Z" fill="#1d868c"/>
        <path d="M57.40545,114.49672c0,3.28906-1.56006,5.52051-5.18457,5.52051-3.48047,0-5.18457-2.16016-5.18457-5.52051v-1.43945c0-3.60059,1.896-5.47266,5.18457-5.47266,3.33643,0,5.18457,1.87207,5.18457,5.47266v1.43945Zm-3.04834-.0957v-1.24805c0-1.91992-.62402-2.97656-2.13623-2.97656s-2.13623,1.05664-2.13623,2.97656v1.24805c0,1.72852,.43213,3.02441,2.13623,3.02441,1.68018,0,2.13623-1.2959,2.13623-3.02441Z" fill="#1d868c"/>
        <path d="M60.04413,107.80043h3.00049v1.00781c.45557-.59961,1.41602-1.22363,2.75977-1.22363,2.42432,0,4.39258,1.15234,4.39258,4.7041v7.5127h-3.04834v-7.0332c0-1.87109-.67188-2.54297-1.91992-2.54297-1.4165,0-2.1123,.93555-2.1123,2.51953v7.05664h-3.07227v-12.00098Z" fill="#1d868c"/>
        <path d="M75.88348,107.63247h-2.88037v-4.39258h2.88037v4.39258Z" fill="#1d868c"/>
        <path d="M77.77899,107.80043h1.53613v-2.63965h3.04834v2.63965h2.35205v2.59277h-2.35205v5.01562c0,1.2002,.24023,1.7041,1.36816,1.7041h.98389v2.68848h-1.2959c-2.90431,0-4.10449-.81641-4.10449-3.91211v-5.49609h-1.53613v-2.59277Z" fill="#1d868c"/>
        <path d="M102.01971,112.2643l4.6084-9.02441h3.19238v16.56152h-3.21631v-10.27344l-3.6001,7.29688h-2.04004l-3.55273-7.22461v10.20117h-3.19189v-16.56152h3.14404l4.65625,9.02441Z" fill="#1d868c"/>
        <path d="M113.5153,103.23989h3.31203v2.97656h-3.31203v-2.97656Zm.11964,4.56055h3.07227v12.00098h-3.07227v-12.00098Z" fill="#1d868c"/>
        <path d="M126.6911,111.18422c-.52832-.62305-1.05615-.95898-2.35254-.95898-.79199,0-1.51172,.23926-1.51172,.93555,0,.71973,.64795,.98438,1.91992,1.17578,2.95215,.45605,4.44043,1.58398,4.44043,3.96094,0,2.30371-1.60791,3.71973-4.70459,3.71973-2.44824,0-3.93604-.59961-4.96826-1.99219l2.35205-1.67969c.47998,.64746,1.08008,1.03223,2.56836,1.03223,1.05615,0,1.7041-.36035,1.7041-.98438,0-.74414-.52783-.98438-2.04004-1.22461-2.49609-.4082-4.32031-1.46387-4.32031-3.8877,0-2.28027,1.63184-3.69629,4.63232-3.69629,1.96826,0,3.6001,.45508,4.53613,1.99219l-2.25586,1.60742Z" fill="#1d868c"/>
        <path d="M138.42694,111.18422c-.52832-.62305-1.05615-.95898-2.35254-.95898-.79199,0-1.51172,.23926-1.51172,.93555,0,.71973,.64795,.98438,1.91992,1.17578,2.95215,.45605,4.44043,1.58398,4.44043,3.96094,0,2.30371-1.60791,3.71973-4.70459,3.71973-2.44824,0-3.93604-.59961-4.96826-1.99219l2.35205-1.67969c.48047,.64746,1.08008,1.03223,2.56836,1.03223,1.05615,0,1.7041-.36035,1.7041-.98438,0-.74414-.52783-.98438-2.04004-1.22461-2.49609-.4082-4.32031-1.46387-4.32031-3.8877,0-2.28027,1.63184-3.69629,4.63232-3.69629,1.96826,0,3.6001,.45508,4.53613,1.99219l-2.25586,1.60742Z" fill="#1d868c"/>
        <path d="M156.42743,120.01723c-3.72119,0-6.3374-2.25586-6.3374-7.32031v-2.35254c0-5.1123,2.61621-7.32031,6.3374-7.32031,3.74414,0,6.35938,2.20801,6.35938,7.32031v2.35254c0,5.06445-2.61523,7.32031-6.35938,7.32031Zm-2.97705-7.32031c0,3.16797,1.03223,4.48828,2.97705,4.48828,1.94336,0,3-1.32031,3-4.48828v-2.35254c0-3.16797-1.05664-4.48828-3-4.48828-1.94482,0-2.97705,1.32031-2.97705,4.48828v2.35254Z" fill="#1d868c"/>
        <path d="M175.8903,119.80141h-3v-1.00781c-.50389,.81641-1.15233,1.22363-2.73631,1.22363-2.42383,0-4.41602-1.2002-4.41602-4.72754v-7.48926h3.07227v7.03223c0,1.89648,.67188,2.54492,1.94434,2.54492,1.41602,0,2.08789-.86426,2.08789-2.52051v-7.05664h3.04783v12.00098Z" fill="#1d868c"/>
        <path d="M178.07293,107.80043h1.53613v-2.63965h3.04883v2.63965h2.35156v2.59277h-2.35156v5.01562c0,1.2002,.24023,1.7041,1.36719,1.7041h.98438v2.68848h-1.2959c-2.9043,0-4.10449-.81641-4.10449-3.91211v-5.49609h-1.53613v-2.59277Z" fill="#1d868c"/>
        <path d="M200.3454,120.01723c-3.7207,0-6.33594-2.25586-6.33594-7.32031v-2.35254c0-5.1123,2.61523-7.32031,6.33594-7.32031,3.74414,0,6.36133,2.20801,6.36133,7.32031v2.35254c0,5.06445-2.61719,7.32031-6.36133,7.32031Zm-2.97656-7.32031c0,3.16797,1.0332,4.48828,2.97656,4.48828,1.94434,0,3-1.32031,3-4.48828v-2.35254c0-3.16797-1.05566-4.48828-3-4.48828-1.94336,0-2.97656,1.32031-2.97656,4.48828v2.35254Z" fill="#1d868c"/>
        <path d="M209.65692,107.80043h3v1.00781c.45605-.59961,1.41699-1.22363,2.76074-1.22363,2.42383,0,4.39258,1.15234,4.39258,4.7041v7.5127h-3.04883v-7.0332c0-1.87109-.67188-2.54297-1.91992-2.54297-1.41602,0-2.1123,.93555-2.1123,2.51953v7.05664h-3.07227v-12.00098Z" fill="#1d868c"/>
        <path d="M240.92938,103.23989v2.85645h-4.56055v13.70508h-3.36035v-13.70508h-4.56055v-2.85645h12.48145Z" fill="#1d868c"/>
        <path d="M242.94403,103.23989h3.07227v5.49707c.45605-.60059,1.2959-1.15234,2.68848-1.15234,2.42383,0,4.39258,1.15234,4.39258,4.7041v7.5127h-3.04883v-7.0332c0-1.87109-.67188-2.54297-1.91992-2.54297-1.41602,0-2.1123,.93555-2.1123,2.51953v7.05664h-3.07227v-16.56152Z" fill="#1d868c"/>
        <path d="M265.45672,117.97719c-.83984,1.46484-2.23242,2.04004-4.39258,2.04004-3.60059,0-5.32812-2.32812-5.32812-5.4248v-1.63184c0-3.62402,1.82422-5.37598,4.94336-5.37598,3.38477,0,4.94531,1.96777,4.94531,5.61621v1.36816h-6.84082c.02441,1.65625,.55176,2.85645,2.25684,2.85645,1.27148,0,1.67969-.38379,2.13574-1.03223l2.28027,1.58398Zm-6.67285-5.5918h3.76855c-.07227-1.56055-.69629-2.20898-1.84863-2.20898-1.22363,0-1.7998,.83984-1.91992,2.20898Z" fill="#1d868c"/>
        <path d="M275.0075,111.18422c-.52734-.62305-1.05566-.95898-2.35156-.95898-.79297,0-1.51172,.23926-1.51172,.93555,0,.71973,.64746,.98438,1.91992,1.17578,2.95115,.45605,4.43945,1.58398,4.43945,3.96094,0,2.30371-1.60742,3.71973-4.7041,3.71973-2.44824,0-3.93652-.59961-4.96777-1.99219l2.35156-1.67969c.48047,.64746,1.08008,1.03223,2.56836,1.03223,1.05664,0,1.7041-.36035,1.7041-.98438,0-.74414-.52832-.98438-2.04004-1.22461-2.49609-.4082-4.32031-1.46387-4.32031-3.8877,0-2.28027,1.63184-3.69629,4.63281-3.69629,1.96777,0,3.59961,.45508,4.53516,1.99219l-2.25586,1.60742Z" fill="#1d868c"/>
        <path d="M289.45575,117.97719c-.83984,1.46484-2.23145,2.04004-4.3916,2.04004-3.60156,0-5.3291-2.32812-5.3291-5.4248v-1.63184c0-3.62402,1.82422-5.37598,4.94434-5.37598,3.38477,0,4.94531,1.96777,4.94531,5.61621v1.36816h-6.8418c.02441,1.65625,.55273,2.85645,2.25684,2.85645,1.27246,0,1.68066-.38379,2.13574-1.03223l2.28027,1.58398Zm-6.67285-5.5918h3.76953c-.07227-1.56055-.69727-2.20898-1.84863-2.20898-1.22363,0-1.7998,.83984-1.9209,2.20898Z" fill="#1d868c"/>
        <path d="M310.48016,103.23989v2.85645h-4.56055v13.70508h-3.36035v-13.70508h-4.56055v-2.85645h12.48145Z" fill="#1d868c"/>
        <path d="M318.51922,111.13735c-.3125-.45703-.74414-.91211-1.51172-.91211-1.15234,0-1.91992,.83984-1.91992,2.51953v7.05664h-3.07229v-12.00098h3v1.00781c.40822-.59961,1.19924-1.22363,2.61623-1.22363,1.44043,0,2.52051,.62402,3.24023,1.87207l-2.35254,1.68066Z" fill="#1d868c"/>
        <path d="M326.12762,112.60024h2.37598v-.69531c0-1.34375-.4082-1.77637-2.13574-1.77637-1.17676,0-1.75293,.16797-2.25684,.95996l-2.16016-1.51172c.88867-1.46484,2.23242-1.99219,4.70508-1.99219,3.0957,0,4.84766,.91211,4.84766,4.34375v7.87305h-3v-1.05664c-.48047,.81641-1.19922,1.27246-2.5918,1.27246-2.49609,0-4.22461-1.31934-4.22461-3.76855,0-2.54395,1.91992-3.64844,4.44043-3.64844Zm2.37598,2.25684h-2.01562c-1.24805,0-1.80078,.40723-1.80078,1.34473,0,.91113,.69629,1.34375,1.75195,1.34375,1.39258,0,2.06445-.60059,2.06445-2.23242v-.45605Z" fill="#1d868c"/>
        <path d="M341.43915,103.23989h3.04883v16.56152h-3.04883v-.69629c-.62305,.57617-1.43945,.91211-2.56836,.91211-3.14355,0-4.75195-2.23145-4.75195-5.4248v-1.63184c0-3.50391,1.89646-5.37598,4.75195-5.37598,1.0332,0,1.89648,.26367,2.56836,.83984v-5.18457Zm0,11.16113v-1.51172c0-1.75195-.69531-2.71289-2.13574-2.71289-1.5127,0-2.13574,1.05664-2.13574,2.97656v1.24805c0,1.72852,.47949,3.02441,2.13574,3.02441,1.72754,0,2.13574-1.2959,2.13574-3.02441Z" fill="#1d868c"/>
        <path d="M347.79852,103.23989h3.3125v2.97656h-3.3125v-2.97656Zm.12012,4.56055h3.07227v12.00098h-3.07227v-12.00098Z" fill="#1d868c"/>
        <path d="M353.51043,107.80043h1.53613v-2.63965h3.04883v2.63965h2.35156v2.59277h-2.35156v5.01562c0,1.2002,.24023,1.7041,1.36719,1.7041h.98438v2.68848h-1.2959c-2.9043,0-4.10449-.81641-4.10449-3.91211v-5.49609h-1.53613v-2.59277Z" fill="#1d868c"/>
        <path d="M363.18329,103.23989h3.31152v2.97656h-3.31152v-2.97656Zm.11914,4.56055h3.07227v12.00098h-3.07227v-12.00098Z" fill="#1d868c"/>
        <path d="M379.71942,114.49672c0,3.28906-1.56055,5.52051-5.18457,5.52051-3.48047,0-5.18457-2.16016-5.18457-5.52051v-1.43945c0-3.60059,1.89648-5.47266,5.18457-5.47266,3.33594,0,5.18457,1.87207,5.18457,5.47266v1.43945Zm-3.04785-.0957v-1.24805c0-1.91992-.625-2.97656-2.13672-2.97656s-2.13672,1.05664-2.13672,2.97656v1.24805c0,1.72852,.43262,3.02441,2.13672,3.02441,1.67969,0,2.13672-1.2959,2.13672-3.02441Z" fill="#1d868c"/>
        <path d="M382.35907,107.80043h3v1.00781c.45508-.59961,1.41602-1.22363,2.75977-1.22363,2.42383,0,4.39258,1.15234,4.39258,4.7041v7.5127h-3.04883v-7.0332c0-1.87109-.67188-2.54297-1.91992-2.54297-1.41602,0-2.11133,.93555-2.11133,2.51953v7.05664h-3.07227v-12.00098Z" fill="#1d868c"/>
        <path d="M399.42157,112.60024h2.37695v-.69531c0-1.34375-.40823-1.77637-2.13672-1.77637-1.17578,0-1.75195,.16797-2.25586,.95996l-2.16016-1.51172c.88867-1.46484,2.23242-1.99219,4.7041-1.99219,3.09668,0,4.84863,.91211,4.84863,4.34375v7.87305h-3v-1.05664c-.48047,.81641-1.2002,1.27246-2.5918,1.27246-2.49707,0-4.22461-1.31934-4.22461-3.76855,0-2.54395,1.91992-3.64844,4.43945-3.64844Zm2.37695,2.25684h-2.0166c-1.24805,0-1.7998,.40723-1.7998,1.34473,0,.91113,.69531,1.34375,1.75195,1.34375,1.39258,0,2.06445-.60059,2.06445-2.23242v-.45605Z" fill="#1d868c"/>
        <path d="M407.8454,103.23989h3.07227v12.02441c0,1.29688,.38379,1.89648,1.67969,1.89648v2.64062c-3.24023,0-4.75195-.83984-4.75195-3.83984v-12.72168Z" fill="#1d868c"/>
        <path d="M423.23016,115.985c.52734,.74414,1.34375,1.2002,2.25586,1.2002,1.60742,0,2.47168-.86426,2.47168-3.74414v-10.20117h3.36035v10.20117c0,4.77637-2.13672,6.57617-5.61621,6.57617-2.37598,0-4.12793-.86426-5.25684-2.47168l2.78516-1.56055Z" fill="#1d868c"/>
        <path d="M438.61395,112.60024h2.37598v-.69531c0-1.34375-.4082-1.77637-2.13574-1.77637-1.17676,0-1.75293,.16797-2.25684,.95996l-2.16016-1.51172c.88867-1.46484,2.23242-1.99219,4.70508-1.99219,3.0957,0,4.84766,.91211,4.84766,4.34375v7.87305h-3v-1.05664c-.48047,.81641-1.19922,1.27246-2.5918,1.27246-2.49609,0-4.22461-1.31934-4.22461-3.76855,0-2.54395,1.91992-3.64844,4.44043-3.64844Zm2.37598,2.25684h-2.01562c-1.24805,0-1.80078,.40723-1.80078,1.34473,0,.91113,.69629,1.34375,1.75195,1.34375,1.39258,0,2.06445-.60059,2.06445-2.23242v-.45605Z" fill="#1d868c"/>
        <path d="M457.43036,114.59243c0,3.12109-1.58496,5.4248-4.68066,5.4248-1.24805,0-2.08789-.23926-2.64062-.69629v5.04102h-3.07227v-16.56152h3.07227v.79199c.57617-.64844,1.44043-1.00781,2.66406-1.00781,2.78516,0,4.65723,1.94336,4.65723,5.37598v1.63184Zm-3.07227-.19141v-1.24805c0-1.91992-.60059-2.97656-2.1123-2.97656-1.46484,0-2.13672,.96094-2.13672,2.71289v1.51172c0,1.72852,.4082,3.02441,2.13672,3.02441,1.65625,0,2.1123-1.2959,2.1123-3.02441Z" fill="#1d868c"/>
        <path d="M463.88641,112.60024h2.375v-.69531c0-1.34375-.40723-1.77637-2.13477-1.77637-1.17676,0-1.75293,.16797-2.25684,.95996l-2.16016-1.51172c.8877-1.46484,2.23145-1.99219,4.7041-1.99219,3.09668,0,4.84863,.91211,4.84863,4.34375v7.87305h-3.00098v-1.05664c-.47949,.81641-1.19922,1.27246-2.5918,1.27246-2.49609,0-4.22461-1.31934-4.22461-3.76855,0-2.54395,1.9209-3.64844,4.44141-3.64844Zm2.375,2.25684h-2.01562c-1.24805,0-1.7998,.40723-1.7998,1.34473,0,.91113,.69629,1.34375,1.75195,1.34375,1.3916,0,2.06348-.60059,2.06348-2.23242v-.45605Z" fill="#1d868c"/>
        <path d="M472.31024,107.80043h3v1.00781c.45505-.59961,1.41602-1.22363,2.75977-1.22363,2.42383,0,4.39258,1.15234,4.39258,4.7041v7.5127h-3.04883v-7.0332c0-1.87109-.67188-2.54297-1.91992-2.54297-1.41602,0-2.11133,.93555-2.11133,2.51953v7.05664h-3.07227v-12.00098Z" fill="#1d868c"/>
        <path d="M494.82196,117.97719c-.83984,1.46484-2.23242,2.04004-4.39258,2.04004-3.59961,0-5.32812-2.32812-5.32812-5.4248v-1.63184c0-3.62402,1.82422-5.37598,4.94434-5.37598,3.38379,0,4.94434,1.96777,4.94434,5.61621v1.36816h-6.83984c.02344,1.65625,.55176,2.85645,2.25586,2.85645,1.27148,0,1.67969-.38379,2.13672-1.03223l2.2793,1.58398Zm-6.67188-5.5918h3.76758c-.07227-1.56055-.69531-2.20898-1.84766-2.20898-1.22461,0-1.80078,.83984-1.91992,2.20898Z" fill="#1d868c"/>
        <path d="M504.37372,111.18422c-.52832-.62305-1.05566-.95898-2.35254-.95898-.79199,0-1.51172,.23926-1.51172,.93555,0,.71973,.64844,.98438,1.91992,1.17578,2.95215,.45605,4.44043,1.58398,4.44043,3.96094,0,2.30371-1.6084,3.71973-4.7041,3.71973-2.44922,0-3.93652-.59961-4.96875-1.99219l2.35156-1.67969c.48047,.64746,1.08008,1.03223,2.56836,1.03223,1.05664,0,1.70508-.36035,1.70508-.98438,0-.74414-.52832-.98438-2.04102-1.22461-2.49609-.4082-4.32031-1.46387-4.32031-3.8877,0-2.28027,1.63281-3.69629,4.63281-3.69629,1.96875,0,3.59961,.45508,4.53613,1.99219l-2.25586,1.60742Z" fill="#1d868c"/>
        <path d="M518.82098,117.97719c-.83984,1.46484-2.23145,2.04004-4.3916,2.04004-3.60156,0-5.3291-2.32812-5.3291-5.4248v-1.63184c0-3.62402,1.82422-5.37598,4.94434-5.37598,3.38477,0,4.94531,1.96777,4.94531,5.61621v1.36816h-6.8418c.02441,1.65625,.55273,2.85645,2.25684,2.85645,1.27246,0,1.68066-.38379,2.13574-1.03223l2.28027,1.58398Zm-6.67285-5.5918h3.76953c-.07227-1.56055-.69727-2.20898-1.84863-2.20898-1.22363,0-1.7998,.83984-1.9209,2.20898Z" fill="#1d868c"/>
        <path d="M539.12567,103.23989v2.85645h-6.96094v4.10449h6.24121v2.83203h-6.24121v6.76855h-3.36035v-16.56152h10.32129Z" fill="#1d868c"/>
        <path d="M550.88641,114.49672c0,3.28906-1.56055,5.52051-5.18555,5.52051-3.48047,0-5.18359-2.16016-5.18359-5.52051v-1.43945c0-3.60059,1.89551-5.47266,5.18359-5.47266,3.33691,0,5.18555,1.87207,5.18555,5.47266v1.43945Zm-3.04883-.0957v-1.24805c0-1.91992-.62402-2.97656-2.13672-2.97656-1.51172,0-2.13574,1.05664-2.13574,2.97656v1.24805c0,1.72852,.43262,3.02441,2.13574,3.02441,1.68066,0,2.13672-1.2959,2.13672-3.02441Z" fill="#1d868c"/>
        <path d="M563.46161,114.49672c0,3.28906-1.56055,5.52051-5.18457,5.52051-3.48047,0-5.18457-2.16016-5.18457-5.52051v-1.43945c0-3.60059,1.89648-5.47266,5.18457-5.47266,3.33594,0,5.18457,1.87207,5.18457,5.47266v1.43945Zm-3.04785-.0957v-1.24805c0-1.91992-.625-2.97656-2.13672-2.97656s-2.13672,1.05664-2.13672,2.97656v1.24805c0,1.72852,.43262,3.02441,2.13672,3.02441,1.67969,0,2.13672-1.2959,2.13672-3.02441Z" fill="#1d868c"/>
        <path d="M572.98797,103.23989h3.04883v16.56152h-3.04883v-.69629c-.62305,.57617-1.43945,.91211-2.56836,.91211-3.14355,0-4.75195-2.23145-4.75195-5.4248v-1.63184c0-3.50391,1.89648-5.37598,4.75195-5.37598,1.0332,0,1.89648,.26367,2.56836,.83984v-5.18457Zm0,11.16113v-1.51172c0-1.75195-.69531-2.71289-2.13574-2.71289-1.5127,0-2.13574,1.05664-2.13574,2.97656v1.24805c0,1.72852,.47949,3.02441,2.13574,3.02441,1.72754,0,2.13574-1.2959,2.13574-3.02441Z" fill="#1d868c"/>
        <path d="M585.68524,111.18422c-.5293-.62305-1.05664-.95898-2.35352-.95898-.79102,0-1.51172,.23926-1.51172,.93555,0,.71973,.64844,.98438,1.91992,1.17578,2.95312,.45605,4.44141,1.58398,4.44141,3.96094,0,2.30371-1.6084,3.71973-4.70508,3.71973-2.44824,0-3.93555-.59961-4.96875-1.99219l2.35254-1.67969c.48047,.64746,1.08008,1.03223,2.56836,1.03223,1.05566,0,1.7041-.36035,1.7041-.98438,0-.74414-.52734-.98438-2.04004-1.22461-2.49609-.4082-4.32031-1.46387-4.32031-3.8877,0-2.28027,1.63184-3.69629,4.63184-3.69629,1.96875,0,3.60059,.45508,4.53711,1.99219l-2.25586,1.60742Z" fill="#1d868c"/>
      </g>
      <rect x="136" width="484.45282" height="75.82553" fill="#fff" opacity=".98"/>
      <g>
        <path d="M240.83037,28.87757l-.46808-1.6768-.744-1.56402-1.08153-1.34758-1.42771-.96924-1.64708-.52384-1.72717-.14328-1.62553,.13676-1.55656,.4826-1.35468,.90254-1.04187,1.24828-.72982,1.45867-.47073,1.55902-.27524,1.61137-.14931,1.62705-.05067,1.63712-.00038,1.49595,.00966,1.49836,.00067,1.49836,.03309,1.63432,.15245,1.62523,.29245,1.6059,.47255,1.56289,.72354,1.45944,1.05175,1.2398,1.3467,.9069,1.54885,.49528,1.62307,.1393,1.7371-.13812,1.65805-.51268,1.4428-.95774,1.07749-1.36046,.71998-1.5803,.46305-1.67138,1.88496-.00512,1.89001-.00122,1.88844,.00445-.3255,1.6948-.46699,1.66463-.64051,1.60533-.85041,1.50359-1.06499,1.35918-1.27345,1.16384-1.45403,.92755-1.58012,.69312-1.66961,.43965-1.7086,.25384-1.72767,.0688-1.67492-.06669-1.65639-.25281-1.61704-.43291-1.54001-.65631-1.42632-.87537-1.26372-1.09568-1.08776-1.27007-.88104-1.4227-.69302-1.52376-.52602-1.58729-.37671-1.631-.24383-1.65787-.14341-1.6705-.03464-1.67782-.00725-1.49595-.0019-1.49836,.00279-1.49836,.04826-1.67831,.13679-1.67067,.24209-1.65804,.36998-1.63559,.53697-1.58676,.68912-1.52611,.8937-1.41527,1.08235-1.27578,1.26661-1.09161,1.42096-.88182,1.54359-.64267,1.61192-.44507,1.65646-.23738,1.67241-.08388,1.72537,.08449,1.70585,.26187,1.66138,.46565,1.58213,.6886,1.44696,.93922,1.27509,1.16116,1.0714,1.35045,.87057,1.48803,.65885,1.5951,.48635,1.65639,.3284,1.68966-1.90181,.01256-1.90704-.00304-1.90794,.00018Z" fill="#1d868c"/>
        <path d="M273.24712,53.17338l-1.78225,.00126-1.78783-.00329-1.79021,.00671,.00271-2.29939-1.15864,1.37722-1.56084,.88559-1.75469,.39553-1.80582,.09977-1.73742-.10872-1.70438-.35225-1.60807-.6619-1.42333-.99473-1.15256-1.29889-.82107-1.53059-.53575-1.65422-.2769-1.71618-.08197-1.74121-.00623-1.58759,.00328-1.58763-.00173-1.59288,.00525-1.59025,.00062-1.59239,.00042-1.59419-.00134-1.59191-.00525-1.59564,.0024-1.59821-.00167-1.60142,1.82177,.0022,1.82189,.00305,1.82541-.00581-.00133,1.70498-.00088,1.70684,.00156,1.70402-.00493,1.70631-.00163,1.70823-.00043,1.7058,.00079,1.70979,.00554,1.71255-.00083,1.71255,.11606,1.74928,.47244,1.68597,1.02615,1.40237,1.54988,.78151,1.73529,.19789,1.74243-.22867,1.56289-.79445,1.12543-1.3418,.60789-1.64719,.16613-1.75392-.00061-1.70685-.00131-1.7125,.00332-1.70968,.00152-1.71197-.00433-1.7139,.00877-1.71146-.00602-1.71547,.00376-1.71823-.0016-1.71749,1.80125,.00337,1.80486-.00881,1.80834,.00101-.00211,1.70454-.00064,1.69896-.00477,1.70095,.00697,1.7-.00318,1.70161,.00366,1.70057-.00732,1.69643,.00143,1.70204,.00178,1.69923-.0037,1.70151,.00029,1.70343,.00648,1.701-.00552,1.70498,.00052,1.70773-.00006,1.70491Z" fill="#1d868c"/>
        <path d="M281.41486,17.94606l1.82165,.00411,1.82189-.00265,1.82176,.00156-.0019,1.61824,.00007,1.62023-.00124,1.61843,.00414,1.62032,.00142,1.61941-.00047,1.62095,.00076,1.61637-.0069,1.61641,.00089,1.62176,.00564,1.61908,.00298,1.62126-.00267,1.62308-.00007,1.62077-.00035,1.62457,.00312,1.62718-.00934,1.62718,.11358,1.73876,.61547,1.61028,1.42707,.9383,1.73283,.20343,.00214,1.60003-.011,1.60054,.00104,1.59949-1.59135-.04157-1.58444-.17137-1.55552-.34008-1.47434-.6005-1.27194-.94838-.94614-1.27195-.55876-1.48662-.27484-1.5625-.08729-1.59149,.00187-1.69803,.00592-1.69996-.00849-1.69808,.00422-1.70006-.00398-1.69911,.01156-1.70072-.00695-1.69969-.00165-1.69554-.00078-1.70115-.00317-1.69834,.01129-1.70062-.00401-1.70254,.00392-1.70012-.00079-1.7041-.00398-1.70684-.00292-1.70971Z" fill="#1d868c"/>
        <path d="M296.06982,27.64923l1.63367,.00516,1.63073-.00784,.00657-1.86734,.00217-1.87298-.00386-1.87117,1.80009,.00171,1.80488-.00539,1.8081-.00124-.00875,1.87307,.00441,1.87298,.00309,1.87108,1.79998,.00034,1.80486-.00013,1.80152,.00554,.00042,1.56011,.00439,1.56648,.00197,1.57044-1.80539-.00189-1.80486-.00371-1.80516,.00132,.00567,1.66619-.00924,1.6681-.00028,1.66998,.0053,1.66761,.00348,1.67151,.00125,1.6742-.01055,1.6742,.07605,1.59129,.43507,1.51929,1.23536,.93636,1.57671,.19171,2.0964-.00538-.00624,1.63614,.00883,1.6346-.00604,1.63444-1.25061-.0024-1.25083,.0081-1.7039-.07343-1.68745-.23103-1.62208-.52308-1.41008-.94352-1.0075-1.36347-.56798-1.60198-.25914-1.68224-.06877-1.70442,.00922-1.58773-.00783-1.58511-.0013-1.58724,.00047-1.58903,.00003-1.58677,.00984-1.59048-.00649-1.59304,.00126-1.59312-1.6338,.0032-1.63217-.00476-.00773-1.56234,.00888-1.56648-.00265-1.56642Z" fill="#1d868c"/>
        <path d="M336.91207,53.17599l-1.78476,.00175-1.78783-.00456-1.7839-.00004-.00322-2.29456-1.16379,1.37171-1.55553,.8927-1.75511,.39511-1.80595,.09689-1.73752-.10619-1.70463-.35182-1.60654-.66527-1.42627-.99056-1.14567-1.30441-.82849-1.52609-.53272-1.65535-.28117-1.71565-.07892-1.74156,.00218-1.58759-.00681-1.58763,.00725-1.59288-.00724-1.59025,.00412-1.59239-.00114-1.59419,.00106-1.59191-.00429-1.59564,.00148-1.59821-.00002-1.60104,1.82144-.00193,1.82189,.00384,1.82263,.00012-.00333,1.70201,.00425,1.70684,.00146,1.70402,.0014,1.70631-.00324,1.70823-.00542,1.7058,.00877,1.70979-.00483,1.71255-.00389,1.71255,.12222,1.74918,.4732,1.68543,1.02854,1.39849,1.54614,.78566,1.73519,.20488,1.74237-.23548,1.56436-.79246,1.12458-1.34327,.60214-1.64861,.17886-1.75282-.00734-1.70685,.00014-1.7125-.00205-1.70968,.00759-1.71197-.0067-1.7139-.00082-1.71146,.00849-1.71547-.00111-1.71823-.00608-1.72149,1.80506,.00325,1.80486,.00363,1.80416-.00288-.00098,1.70011,.00484,1.69896-.00757,1.70095,.00646,1.7,.00109,1.70161-.00752,1.70057,.00416,1.69643,.00143,1.70204-.00047,1.69923-.00035,1.70151,.0008,1.70343,.00351,1.701-.00786,1.70498,.00086,1.70773,.00209,1.70753Z" fill="#1d868c"/>
        <path d="M357.89525,34.03307l-.97318-1.08033-1.26831-.6981-1.43515-.21847-1.6375,.28089-1.41767,.85693-.98097,1.34-.51118,1.58257-.14729,1.66135-.00453,1.70685-.00219,1.7125,.00346,1.70968,.00022,1.71197,.00366,1.7139-.00126,1.71146,.00181,1.71547-.0014,1.71823-.00064,1.71984-1.82047-.00237-1.82189,.00396-1.8188-.00651-.00346-1.69754,.00396-1.69896-.00852-1.70095,.00418-1.7-.00169-1.70161,.00455-1.70057-.00058-1.69643-.00191-1.70204,.00259-1.69923-.00224-1.70151,.00288-1.70343,.00148-1.701-.00865-1.70498,.00485-1.70773,.00019-1.70698,1.78425,.00436,1.78785-.00344,1.78838-.00209-.00279,2.29823,1.08836-1.24654,1.39922-.87954,1.57927-.49113,1.65346-.14369,1.6818,.13205,1.63135,.42225,1.49084,.78269,1.26793,1.10667,1.02588,1.33901-1.4435,1.02295-1.44871,1.01961-1.44794,1.02176Z" fill="#1d868c"/>
        <path d="M385.15847,49.29522l-1.02626,1.45362-1.32111,1.18517-1.55348,.85389-1.70059,.51656-1.75813,.25896-1.78041,.07167-1.6537-.08304-1.62987-.27947-1.57618-.4993-1.48093-.73286-1.3311-.97975-1.13253-1.20271-.91178-1.3775-.66978-1.50981-.45469-1.58806-.26148-1.63241-.07887-1.65271-.00113-1.73585,.00231-1.73585,.05373-1.60289,.20245-1.58975,.35625-1.56145,.56611-1.49757,.78909-1.3922,1.03002-1.22226,1.2497-.99511,1.41457-.74154,1.52324-.48637,1.5779-.26261,1.5998-.08796,1.625,.08951,1.60289,.26561,1.5427,.5092,1.42799,.77144,1.24855,1.03581,1.00392,1.27498,.76248,1.43269,.52408,1.53557,.33511,1.58967,.18236,1.6151,.06125,1.6265-.00619,1.40398-.00055,1.39996-1.68657,.00716-1.6955-.00438-1.6927,.00467-1.69497-.00322-1.69688-.00439-1.69446,.00395-1.69843,.00258-1.70117,.00192-1.70106-.00245,.00503,.10029,.09651,1.70597,.35998,1.66673,.72303,1.54108,1.16145,1.23645,1.52818,.73517,1.69065,.20804,1.5309-.09538,1.48299-.38472,1.28326-.82767,.96039-1.18748,1.36146,.94797,1.36255,.953,1.36262,.95383Zm-14.85747-11.74304l1.62191-.00145,1.62429,.00552,1.62198-.00582,1.62578,.00302,1.6284-.00036,1.62861,.00111-.20861-1.67145-.52008-1.5947-.99603-1.3386-1.46592-.78817-1.65969-.21953-1.65354,.23312-1.44736,.81716-1.00868,1.32556-.55458,1.57677-.23646,1.65781Z" fill="#1d868c"/>
        <path d="M426.7127,41.99535l-.06473,1.64429-.22758,1.62816-.39883,1.5966-.61362,1.52446-.84712,1.4073-1.07843,1.23828-1.30244,.99888-1.45826,.75052-1.5648,.50111-1.62203,.26297-1.64351,.08622-1.64412-.08141-1.61906-.28353-1.56237-.50997-1.46096-.75072-1.30061-1.00335-1.08899-1.22954-.8579-1.40014-.62419-1.51864-.41308-1.59012-.23686-1.62703-.06377-1.64433-.00694-1.60816,.00672-1.60816,.0698-1.64522,.21328-1.63154,.41313-1.5921,.61579-1.52353,.85639-1.40286,1.09921-1.21946,1.30691-.99229,1.46298-.74415,1.5708-.48069,1.62054-.27131,1.6433-.08943,1.64173,.08115,1.61808,.27639,1.56838,.48442,1.45968,.74869,1.30548,.991,1.09142,1.22388,.84479,1.40505,.61373,1.51973,.39052,1.5937,.2229,1.62621,.07022,1.64238,.00083,1.60816-.00642,1.60816Zm-5.40754-.15312l-.00393-1.48061,.00574-1.48061-.09951-1.66915-.338-1.63559-.68851-1.51661-1.13844-1.20698-1.49729-.71282-1.65386-.20114-1.66077,.20834-1.51424,.6963-1.14343,1.21194-.69706,1.51768-.34896,1.63348-.10144,1.67456,.0049,1.48061,.00271,1.48061,.08961,1.70171,.33054,1.66712,.68032,1.55419,1.1413,1.24845,1.53106,.71469,1.68547,.21299,1.6642-.23082,1.49856-.75072,1.11721-1.25116,.67934-1.53725,.35576-1.64514,.09873-1.68406Z" fill="#1d868c"/>
        <path d="M433.96309,27.64831l-.00045-1.58173,.06847-1.70449,.26004-1.6838,.56532-1.60645,1.00641-1.36674,1.41608-.93424,1.61698-.52363,1.68579-.23259,1.70405-.07238,1.58257,.00677,.00572,1.63188-.00997,1.6346,.00913,1.63804-1.17909,.0036-1.57564,.19204-1.23443,.93506-.43109,1.51308-.07504,1.59022-.00268,.56276,1.4964-.00595,1.49839-.00166,1.49468,.01003,.0091,1.56042-.0022,1.56648-.00657,1.56326-1.4926,.00604-1.49839-.00477-1.49461,.00549-.00488,1.5977,.00645,1.60034-.00398,1.60186,.00067,1.59733-.00018,1.59737-.00744,1.60266,.01014,1.60001-.00629,1.60216,.00406,1.60397,.00116,1.60168-.00625,1.60543,.00362,1.60802,.00178,1.61097-1.80461-.00322-1.80488-.00254-1.80309,.00078-.00278-1.59921,.0033-1.60034-.0058-1.60186,.0015-1.59733-.00418-1.59737,.00774-1.60266-.00028-1.60001-.00537-1.60216,.00925-1.60397-.00468-1.60168-.00476-1.60543,.00905-1.60802-.0037-1.60912-1.63481,.00516-1.63555-.00216,.00704-1.56587-.00086-1.56648-.00875-1.57106,1.63812,.00664,1.63289-.00292Z" fill="#1d868c"/>
        <path d="M464.95386,45.92972l1.01752,1.08626,1.2453,.81697,1.40823,.48736,1.48458,.16011,1.59331-.14201,1.51461-.50003,1.25777-.97551,.85908-1.3436,.51991-1.51198,.3059-1.5712,.13627-1.59363,.0408-1.60394-.00319-1.63656,.00911-1.63564,.00088-1.63719-.00995-1.63257,.00446-1.63261,.00297-1.63801,.00356-1.63531-.00198-1.6375-.00874-1.63935,.00149-1.63701,.008-1.64085-.01024-1.64349,.00844-1.63995,1.47285-.00444,1.48025,.00773,1.48263-.01349,1.48518,.00435,.00386,1.63887-.00839,1.63564,.0069,1.63719-.00651,1.63257,.00569,1.63261-.00996,1.63801,.00748,1.63531-.00482,1.6375,.00656,1.63935,.00314,1.63701-.00837,1.64085-.00024,1.64349,.00634,1.64349-.0416,1.65071-.13896,1.64167-.23663,1.63221-.36571,1.60794-.545,1.5545-.72667,1.47831-.95581,1.34017-1.16596,1.15901-1.3644,.91587-1.49824,.67453-1.5852,.43935-1.62967,.23142-1.64596,.07469-1.70703-.08034-1.68684-.2741-1.64522-.45612-1.56107-.69162-1.43629-.92224-1.2697-1.14053-1.0583-1.33989,1.65023-.93315,1.65268-.93463,1.65066-.93658Z" fill="#1d868c"/>
        <path d="M498.54563,38.11791l1.83596,.00189,1.83892-.00331,1.83938-.00081,.00401-2.14461-.13128-1.52845-.61909-1.38665-1.2735-.81634-1.49945-.29467-1.53545-.06294-1.54774,.06108-1.51916,.27954-1.32903,.76069-.96546,1.20351-1.30633-.92348-1.31225-.91781-1.31297-.91751,.93114-1.28466,1.16061-1.07573,1.35545-.81606,1.48797-.53074,1.55087-.32672,1.57669-.15443,1.58757-.05073,1.72633,.05563,1.71743,.19074,1.68236,.39658,1.57741,.6967,1.35318,1.0618,1.00041,1.39876,.61167,1.61089,.29968,1.69724,.08736,1.72475-.00035,1.71351,.00366,1.70933,.00284,1.71498-.0047,1.71215-.00269,1.71445,.00119,1.71639,.00142,1.71394,.00279,1.71795-.0019,1.72072-.00118,1.72-1.78428-.0005-1.78785,.0052-1.78766-.00413-.00368-2.34769-1.07207,1.3482-1.44874,.92755-1.6704,.42187-1.72754,.10897-1.71037-.0971-1.68211-.31655-1.60998-.58304-1.45239-.90233-1.18535-1.22943-.83902-1.48643-.46712-1.64349-.14637-1.70527,.15774-1.71903,.505-1.64721,.92827-1.44893,1.29364-1.13334,1.52787-.79221,1.6563-.47987,1.70637-.25545,1.72595-.07735Zm5.51533,4.18168l-1.7015-.00238-1.7027,.00331-1.7027,.0006-1.61689,.11506-1.53414,.5085-1.08892,1.16563-.30278,1.58098,.30731,1.51073,1.03483,1.13411,1.44986,.53116,1.54647,.1412,1.77255-.12807,1.66375-.59624,1.20228-1.27922,.5404-1.68275,.1293-1.77528,.00286-1.22736Z" fill="#1d868c"/>
        <path d="M539.23462,42.09747l-.08292,1.73173-.24178,1.7169-.46347,1.67004-.67911,1.59408-.93991,1.45428-1.20208,1.24491-1.43114,.9721-1.59637,.66695-1.68982,.37984-1.73054,.1135-1.67736-.10089-1.64959-.31777-1.54447-.64093-1.31062-1.04112-.00127,1.61632,.00143,1.61709,.00066,1.61892-.00216,1.61661,.0002,1.6204,.01174,1.62301-.00408,1.62527-1.821-.00283-1.82191,.00637-1.81902-.00895,.00379-1.66968-.01339-1.67363,.01317-1.67634-.00547-1.67602,.00586-1.67455-.00438-1.6757-.00413-1.67761-.0029-1.67575,.0069-1.67771-.00855-1.67677,.01068-1.67835-.00373-1.67361,.00404-1.67366,.00137-1.67919-.00793-1.67642,.00524-1.67867-.00118-1.68057-.0087-1.67817,.01301-1.6821-.00765-1.68481,.00159-1.68422,1.81843-.00242,1.82191-.00035,1.82005,.00385,.00748,2.03929,1.26628-1.17138,1.53822-.79724,1.68483-.41222,1.73359-.12133,1.7162,.11824,1.67869,.37321,1.58816,.6587,1.41897,.96808,1.20564,1.2234,.94145,1.43705,.68664,1.57438,.44066,1.66221,.25882,1.70092,.07272,1.72161-.00185,1.73585,.00007,1.73585Zm-5.41089-.25524l.00478-1.48061-.00956-1.48061-.08399-1.67004-.34558-1.63461-.69166-1.51448-1.13276-1.21227-1.50025-.70702-1.65311-.20519-1.60615,.19993-1.46788,.66117-1.14375,1.13372-.71576,1.44989-.36174,1.5751-.1211,1.61755-.00106,1.63374,.00143,1.63373,.08898,1.69795,.31793,1.66613,.66896,1.55628,1.13907,1.24358,1.51967,.72465,1.68139,.20852,1.66377-.23019,1.50012-.74781,1.11815-1.25134,.67489-1.53929,.36044-1.64412,.09476-1.68435Z" fill="#1d868c"/>
        <path d="M554.55083,38.11788l1.83601-.00104,1.83896,.00051,1.84123-.00013,.00009-2.14616-.12765-1.52878-.61736-1.38913-1.27759-.81133-1.49882-.29594-1.53538-.06274-1.54801,.05669-1.51947,.28105-1.32348,.76799-.96848,1.19047-1.31082-.91231-1.31068-.91998-1.3089-.9212,.93351-1.27779,1.1579-1.07686,1.35537-.81404,1.48468-.53874,1.55149-.32451,1.5763-.16091,1.58796-.04319,1.72639,.05406,1.7179,.18841,1.67911,.40819,1.582,.68501,1.35255,1.0638,.9953,1.40193,.6183,1.60813,.30223,1.69739,.08506,1.72531-.0001,1.71351,.00203,1.70933-.00595,1.71498-.0023,1.71215,.00153,1.71445,.00593,1.71639,.00148,1.71394-.00129,1.71795-.00081,1.72072-.00179,1.72054-1.7848,.0031-1.78785-.00726-1.78689,.00361,.00084-2.34806-1.07929,1.34708-1.4487,.92511-1.6685,.4267-1.7276,.11234-1.71029-.10153-1.68279-.31361-1.60905-.58596-1.44827-.90721-1.18937-1.22417-.83868-1.48642-.47254-1.64236-.14053-1.70608,.15688-1.71896,.50678-1.6463,.92357-1.45212,1.29484-1.13317,1.52954-.78937,1.65444-.48785,1.70707-.25722,1.72676-.06845Zm5.51546,4.18173l-1.70151,.00055-1.70272-.00051-1.70272-.00091-1.61654,.11952-1.53527,.50506-1.09206,1.16517-.29652,1.58281,.30583,1.51032,1.03459,1.13356,1.44862,.53534,1.54711,.13986,1.77129-.13725,1.66911-.58234,1.19428-1.28794,.54255-1.68093,.1348-1.77498-.00084-1.22734Z" fill="#1d868c"/>
        <path d="M573.5432,27.65016l1.78403,.00392,1.78785-.00425,1.78671,.00023-.00041,2.29687,1.24593-1.28828,1.56036-.87631,1.73202-.46089,1.7939-.13402,1.72971,.11159,1.69762,.34538,1.60241,.6541,1.41777,.98784,1.14358,1.29515,.82619,1.51951,.51843,1.65256,.2795,1.70836,.07242,1.73439,.00517,1.59267-.00161,1.59271,.00567,1.59798-.00841,1.59535,.00451,1.59749-.00155,1.59929,.00329,1.59701,.00143,1.60075-.0035,1.60333-.00119,1.60288-1.8016-.00361-1.8049,.00604-1.80216-.00489-.00742-1.6983,.00834-1.70684,.00023-1.70402,.00028-1.70631-.00866-1.70823,.00145-1.7058,.00756-1.70979-.0016-1.71255-.00513-1.71255-.11632-1.73077-.47189-1.66651-1.01311-1.38858-1.53088-.77708-1.71564-.20099-1.73564,.23241-1.56082,.78498-1.14573,1.31709-.62913,1.63278-.18488,1.74569,.00213,1.70685-.00953,1.7125,.00801,1.70968-.00742,1.71197,.00382,1.7139,.0031,1.71146-.00354,1.71547-.00333,1.71823,.00484,1.71869-1.81941-.00342-1.82191,.00397-1.82086-.00214,.00362-1.69972-.00381-1.69896-.00456-1.70095-.0003-1.7,.00038-1.70161,.00812-1.70057,.00053-1.69643-.00035-1.70204-.00316-1.69923,.00083-1.70151-.00461-1.70343-.00161-1.701,.00016-1.70498,.00621-1.70773-.00155-1.70675Z" fill="#1d868c"/>
      </g>
      <path d="M196.10074,26.32593l.13372-.1491,.00814-1.20438,.14271-.14287,1.81759,.00787,1.81759-.00286,.15255-.1465,.23476-1.82213,.21393-1.82466,.15175-.19414,1.53779-.5297,1.53294-.54352,.15434-.21445,.61627-1.96067,.61565-1.96086-.09055-.07817-1.53903,.56663-1.58406,.43672-1.60191,.37243-1.61004,.31656-1.62376,.24862-1.63081,.20779-1.6353,.18771-1.63537,.14215-1.6425,.11311-1.64657,.08004-1.64394,.05437-1.65243,.03043-1.65357,.02546-1.64903-.01379-1.64909-.04168-1.649-.04705-1.6473-.078-1.64366-.11658-1.64021-.13145-1.63684-.15535-1.63499-.18831-1.62785-.23045-1.6262-.25482-1.61868-.30004-1.60277-.35351-1.59389-.39307-1.55823-.49314-.09034,.09147,.6133,1.9616,.59934,1.96594,.17408,.20097,1.51987,.45908,1.51703,.46819,.14847,.17698,.23651,1.91003,.23693,1.90998,.15827,.1331,1.84887,.01472,1.84887-.00303,.14568,.13887-.00287,1.20438,.14175,.13568,.96821,.0068,.13149,.14184-.03752,1.43363-.02813,1.4362-.04222,1.43582-.14773,.14287-1.49827-.0081-1.50178,.00899-1.5042-.00369-1.5042-.00355-.1453,.14795,.00797,1.66049v1.66049s.13733,.13904,.13733,.13904l1.47396-.00319,1.47741,.00874,1.47979,.00101,1.47979-.00282,.13695,.14169-.04353,1.69937-.04942,1.70082-.04904,1.6998-.04488,1.69576-.04205,1.70145-.04838,1.69847-.03859,1.70102-.04245,1.70283-.05146,1.70016-.05385,1.70408-.03356,1.70738-.05886,1.70669,.14387,.14466,1.40142-.00299,1.40368-.00325,1.40368,.00444,.14414-.14276,.04849-1.69924,.04081-1.70105,.04337-1.69995,.05188-1.69557,.04501-1.70137,.04603-1.69854,.05366-1.70061,.038-1.70295,.04532-1.70033,.04947-1.7042,.04627-1.70703,.03896-1.70723,.15296-.14025,1.64258,.00226,1.64802-.00745,1.6453,.00076,1.6475-.00307,1.64936,.012,1.64701-.00969,1.65087,.00351,1.65353-.00101,1.65353-.00651,.15319,.14944,.03246,1.69967,.05571,1.70065,.03725,1.70012,.06002,1.69535,.03731,1.70158,.04573,1.69854,.04799,1.70076,.03543,1.70302,.0562,1.70003,.03998,1.70446,.04536,1.70706,.05255,1.70686,.14521,.14723,1.40142-.00177,1.40368,.00258,1.40368-.00777,.13819-.14024-.03975-1.69947-.04538-1.70093-.05137-1.69973-.05574-1.69547-.04474-1.70138-.0461-1.69853-.03006-1.70125-.04868-1.70267-.05248-1.70013-.04326-1.70437-.05592-1.70677-.04244-1.70714,.14244-.13713,1.89923-.01264,1.90229,.00572,1.90229-.00414,.13989-.13642,.0056-1.66049,.00502-1.66049-.15052-.13409-1.44662-.00951-1.45001,.00661-1.45234-.01002-1.45234,.008-.15069-.14537-.03344-1.43374-.04689-1.43569-.03407-1.43604,.14101-.14542,.82361,.00995Zm-20.13531,.13559l.13931-.15098,.47599,.00814,.14169-.14185,.00787-1.20438,.135-.13787,1.51253-.0114,1.51497,.01275,1.51497-.00823,.14737,.14475-.01023,1.44486,.00442,1.44824,.00949,1.45058-.00634,1.45058-.14472,.13902-1.8071-.00054-1.81001,.00232-1.81001-.00639-.13642-.1343,.0285-1.43388,.04762-1.43567,.0451-1.43574Zm14.78951,4.30542l-.13162,.15061-1.87607-.00814-1.8791,.00016-1.8791-.00787-.13787-.135-.0114-1.44486,.01275-1.44824-.00823-1.45058-.00262-1.45058,.14737-.13714,1.53336-.00442,1.53583-.00949,1.53583,.00634,.13902,.14472-.00054,1.20438,.14608,.14376,.62057,.00639,.14411,.13441,.04903,1.43332,.03004,1.43615,.03255,1.43608Z" fill="#1d868c"/>
    </g>
  </g>
</svg>