<?xml version="1.0" encoding="UTF-8"?>
<svg width="50px" height="62px" viewBox="0 0 50 62" version="1.1" xmlns="http://www.w3.org/2000/svg" xmlns:xlink="http://www.w3.org/1999/xlink">
    <title>Okinawa</title>
    <g id="Area-Cat1⭕️" stroke="none" stroke-width="1" fill="none" fill-rule="evenodd">
        <g id="Area-Cat1/pc" transform="translate(-301.000000, -1533.000000)" fill="#C0DEC0">
            <g id="Group-8" transform="translate(240.000000, 1050.000000)">
                <g id="Map" transform="translate(34.093633, 0.000000)">
                    <g id="Okinawa" transform="translate(27.357249, 483.962983)">
                        <path d="M1.24135353,60.0821707 C1.25022544,60.0016898 2.25338499,60.9009212 2.42638724,60.8400853 C2.60319173,60.8635325 2.93271982,60.5663235 3.37821645,60.3369212 C3.85603218,59.9212089 4.46946139,60.1480763 4.83320971,59.9776089 C5.29138049,59.7970021 5.90861195,59.4212134 6.29580746,58.8952359 C6.5727378,58.3445437 7.23052656,57.5752224 7.2660142,57.5308628 C7.24510184,57.584728 8.03216701,57.3388493 8.03406813,57.0752269 C8.09617151,56.9212359 9.11960971,56.4180718 9.10566813,56.4091999 C9.15573106,56.4009617 10.1569895,56.3312538 10.1626929,56.3996943 C10.1937445,56.3889212 10.1785356,56.3787819 10.9656007,55.7304988 C11.7685086,55.0651055 12.5796547,54.5505347 12.5270569,54.5004718 C12.6170434,54.5074426 12.9877625,54.2666336 12.9516412,53.7786785 C12.9877625,53.411128 13.3217266,53.9871684 12.9643153,53.400355 C12.5828232,52.940283 12.2659693,52.7489033 12.3242704,52.4795774 C12.303358,52.3743819 12.7925805,51.9003684 11.8863782,52.2039145 C10.9636996,52.508728 10.7837266,52.575901 10.5251738,52.892755 C10.329358,53.1538426 10.307812,53.6576403 10.3059108,53.6544718 C10.2634524,53.6614426 10.0207423,54.1240493 9.58982094,53.6341932 C9.07525016,53.2400269 9.13798724,52.6570156 9.04293106,52.2317976 C8.97068836,51.9985932 8.81479622,51.9516988 8.82049959,51.5125392 C8.76029735,51.0480314 8.53342993,50.5930291 8.90605016,50.3427145 C9.17030634,50.0911325 9.40731308,49.7514651 9.46371308,49.7356224 C9.42759173,49.8458875 10.0359513,49.437146 9.9972951,49.5106561 C10.0353176,49.5074875 10.1183333,48.4694741 10.1817041,48.0176403 C10.2596502,47.5835505 10.3154164,46.6108089 10.3375962,46.6380583 C10.3547063,46.5955999 11.3065356,45.8059999 11.5296007,45.6507415 C11.743794,45.5208314 12.0137535,45.3864853 12.025794,45.3535325 C11.99094,45.3674741 12.2368187,45.3034696 12.0923333,44.6089257 C11.9320052,43.9935954 11.4738344,43.7439145 11.8147693,43.5423954 C12.1671108,43.3364403 12.3870075,43.62351 12.7044951,43.3896718 C12.9009445,43.1412583 12.8591198,42.8693976 13.1322479,42.807928 C13.3027153,42.6868898 13.9110749,43.1190785 13.7659558,42.7109707 C13.6328771,42.2768808 13.4288232,42.1792898 13.5986569,41.8998246 C13.676603,41.7337932 13.4630434,41.387155 13.9446614,41.669155 C14.405367,42.0620538 14.5061266,42.003119 14.7051108,41.7781527 C14.8603693,41.5341752 15.112585,41.6773932 15.0650569,41.5893078 C15.0885041,41.6564808 15.2843198,41.3643415 15.7456591,41.5886741 C16.1702434,41.8250471 17.2215648,42.7724403 17.4547693,43.0892943 C17.6955782,43.2242741 18.4065985,43.9764853 18.4477895,44.0145078 C18.398994,43.9505033 18.6943018,44.8370606 18.8470254,44.0804134 C19.0295333,43.4143864 19.0555153,42.94671 19.0339693,43.0119819 C19.0244636,42.9917033 18.9205356,42.7832134 19.2006344,42.7052673 C19.5669176,42.6590066 19.3799738,42.4416448 19.0745266,42.4365752 C18.8673041,42.2635729 18.5536187,41.7597752 18.0751693,41.7040089 C17.6854389,41.525937 17.51814,41.484746 17.3368996,41.337092 C17.2044547,41.1640898 16.7931782,40.6894426 16.5428636,40.3478741 C16.281776,40.1672673 15.9503468,39.8168269 15.9364052,39.8966741 C15.8660636,39.818728 16.0637805,38.6919954 16.1556681,38.3694381 C16.2735378,38.0348403 16.0764547,37.6235639 16.0980007,37.6210291 C16.0441356,37.6704583 15.2462973,36.9144448 14.9547917,36.649555 C14.6905356,36.3212943 14.5973805,36.2731325 14.1778659,35.8422111 C13.7792636,35.562746 14.0796412,36.2826381 13.4997985,35.3846741 C12.8496142,34.4385482 12.4085535,34.2668134 12.8686254,34.0412134 C13.4541715,33.7782246 13.2760996,34.3187774 13.6018254,33.8061078 C14.0023288,33.250346 14.5726659,32.1629033 15.2481985,32.1122066 C15.9085221,32.0082785 16.3147288,32.0798875 16.5827872,32.1141078 C16.8692232,32.256692 17.2171288,32.5317212 17.3502075,32.5298201 C17.5561625,32.4537752 19.0035513,32.5551684 19.2304187,32.8086516 C19.398985,33.1318426 19.1873266,33.1977482 19.6974614,33.2395729 C20.2310434,33.1768359 20.5174794,33.5697347 20.5536007,33.0634021 C20.6023962,32.6286785 20.5016367,32.6565617 20.5263513,32.4049797 C20.6936502,32.1128403 20.388203,32.757955 20.9211513,31.6673437 C21.4350884,30.5273033 21.4262164,30.569128 21.4103738,30.5260359 C21.3970659,30.5158965 22.2278569,30.5716628 22.4236726,30.6578471 C22.5516816,30.7142471 22.0725985,31.0944718 23.0681535,30.7300898 C24.0782839,30.287128 24.3609176,30.1420089 24.3152906,30.1242651 C24.3704232,30.1667235 24.5972906,30.0742021 24.5871513,30.0862426 C24.6023603,30.0938471 24.8938659,29.5811774 24.6124996,29.1033617 C24.3476097,28.575483 24.1277131,28.6027325 24.1834794,28.343546 C24.3121221,28.0178201 24.5092052,27.9924718 24.8178209,27.9563505 C25.0922164,27.9018516 25.7214884,27.6337932 25.6695243,27.6502696 C25.6891693,27.6566066 25.3076771,28.0152853 26.151776,27.5222606 C27.0079153,27.0298696 26.9996771,27.0254336 27.012985,26.9975505 C26.9477131,26.9639639 27.3342749,27.3010965 27.4869985,26.9582606 C27.8146254,26.5900763 27.8773625,26.2858965 27.9274254,26.2795594 C27.9160187,26.25231 27.7240052,26.3207505 27.5326254,25.9075729 C27.3330075,25.560301 27.340612,25.4741167 27.3412457,25.3061842 C27.3235018,25.1927505 26.9160277,24.903146 27.6295827,24.8372403 C28.4565715,24.9215235 28.6948457,24.7212718 28.7018164,24.7922471 C28.6656951,24.8328044 28.4267872,24.2542291 29.2563108,24.7162021 C30.032603,25.1477572 29.98254,25.4899594 30.4071243,25.4646111 C30.765803,25.5045347 30.4140951,25.6756359 30.9451423,25.5013662 C31.4476726,25.3068179 31.971749,24.8220314 31.9831558,24.8416763 C32.0085041,24.7726021 31.5864547,24.6794471 32.5750389,24.4842651 C33.622558,24.4177257 34.017358,24.1515684 34.0667872,24.1636089 C33.9932771,24.1376269 34.2138075,23.436746 34.3399153,23.4209033 C34.498976,23.2833887 34.3063288,23.1446066 34.1219198,22.5761707 C33.9216681,21.9994965 33.7309221,21.9335909 33.6517086,21.7029212 C33.622558,21.443101 33.5617221,21.1002651 33.5832681,21.0837887 C33.5731288,21.0609752 33.262612,20.8207999 33.9039243,20.8207999 C34.5642479,20.9316988 34.2454929,21.2086291 34.6067063,20.8974785 C34.9356007,20.6097752 34.924194,20.3480538 34.9869311,20.0901347 C34.9248277,19.8353842 34.9222929,19.7118111 35.0027738,19.3075055 C34.939403,18.883555 34.15614,18.4792493 35.0718479,18.6192988 C36.0363513,18.7124538 36.6187288,19.1421078 36.6510479,19.0933123 C36.6535827,19.0901437 37.2828547,19.0660628 37.2682794,19.0945797 C37.2974299,19.14591 37.4938794,19.1110561 38.5604097,19.1370381 C39.7308681,19.0533887 40.369012,18.9336179 40.8385895,18.4481976 C41.3271782,17.9697482 41.5217266,17.525519 42.0882614,16.965955 C42.6934524,16.2948583 42.7720322,16.0559505 42.913349,15.829083 C42.9234884,15.5217347 43.4963603,15.187137 43.6737985,14.5223774 C43.978612,13.9026111 43.9995243,13.7517887 44.1383063,13.5204853 C44.2631468,13.4076853 44.3892547,13.8582516 44.4469221,13.2321482 C44.5236007,12.6275909 44.6725221,11.9057976 44.8968547,11.7397662 C45.132594,11.5521887 45.6370254,11.0357167 46.071749,10.690346 C46.6053311,10.3551145 46.6636322,9.83484034 46.6693356,9.79681787 C46.6135693,9.76576619 46.5901221,9.44130776 46.6725041,8.86146506 C46.6725041,8.36273697 46.6484232,7.9299145 46.6617311,7.29747405 C46.7960771,6.65362686 47.204185,6.12828304 47.0970884,5.73348304 C47.0616007,5.37036843 46.6167378,5.12448978 46.2688322,4.54274596 C45.9266299,3.96797293 45.5305625,3.21005832 45.5768232,3.15492574 C45.5888636,3.12070551 45.7726389,2.40208079 45.2529985,2.47559091 C44.6592142,2.54910102 44.3379243,2.74364933 43.9500951,1.92616619 C43.4215827,1.13593248 43.3366659,1.5326336 42.9950973,1.05545158 C42.5267872,0.641640345 42.9684816,-0.347577633 42.3442794,0.125168435 C41.7232457,0.493352704 41.3157715,0.475608884 41.3873805,1.03453922 C41.3556951,1.67204933 41.8290749,2.16507405 41.6174164,2.64225608 C41.5198254,3.03388754 40.7992996,3.97557742 40.466603,4.59534372 C40.082576,5.24426057 39.6459513,6.41978866 39.2467153,6.70749203 C38.8734614,7.13587855 38.4501445,7.52751001 38.4907018,7.5268763 C38.5344277,7.47237742 38.2454569,8.06996394 37.8272097,8.3329527 C37.42734,8.70050327 37.3677715,8.5826336 37.1814614,9.01418866 C37.0585221,9.30632799 35.6111333,11.1193662 34.9577805,11.6770291 C34.3652636,12.137101 33.8386524,12.6535729 33.3747782,12.7365887 C32.9894839,12.7733437 32.7385356,12.9748628 32.7727558,12.9381078 C32.735367,13.0059145 31.576949,14.3981707 31.4286614,14.6142651 C31.3728951,14.8607774 31.2854434,15.751137 31.2930479,15.8309842 C31.2144681,15.8968898 30.6694794,16.4165302 30.674549,16.5451729 C30.5680861,16.668746 30.6872232,17.3011864 29.8051018,17.45391 C29.0668322,17.5692448 27.4736906,18.0413572 27.1441625,18.1820403 C26.8608951,18.3537752 26.4312412,18.6617572 26.2322569,18.6668269 C26.0313715,18.6560538 25.7658479,18.4792493 25.5370794,18.4025707 C25.2823288,18.4317212 24.8330299,18.0305842 24.8647153,18.033119 C24.8729535,18.037555 24.7715603,17.7625257 24.5510299,17.6199415 C24.3792951,17.6066336 24.5079378,17.7492179 24.1980547,17.4912988 C23.8723288,17.1060044 23.7741041,16.9887684 23.8171962,16.8455505 C23.9021131,16.5901662 23.967385,16.5458066 23.952176,16.525528 C23.9730884,16.5641842 23.9540771,16.2454291 24.3381041,16.4710291 C24.7867693,16.6693797 24.4154164,16.6776179 24.7962749,16.7150066 C25.2195917,16.7080359 25.4192097,16.72071 25.392594,16.6845887 C25.4223782,16.7105707 25.6302344,16.5933347 25.8374569,16.6110785 C26.0123603,16.8144988 26.5662209,17.1547999 26.5636861,17.0863594 C26.5788951,17.1357887 26.9787648,17.5882561 26.7930884,17.1313527 C26.6175513,16.5572134 26.6695153,16.479901 26.3754749,16.0965078 C26.1448052,15.894355 26.1726884,15.2137527 25.9660996,15.2467055 C25.7132502,15.1782651 25.3944951,15.0673662 25.3697805,15.1123594 C25.3799198,15.0565932 25.0700367,15.1497482 24.8032457,15.4311145 C24.5155423,15.6389707 24.4154164,15.8088044 24.3343018,15.8823145 C24.3083198,15.9178021 24.290576,15.946319 24.1454569,16.0825662 C23.9984367,16.0724269 23.66574,16.3968853 23.8507827,15.8531639 C24.023785,15.2479729 24.2626929,14.9323864 24.4813221,14.8753527 C24.5700412,14.7587505 24.8247917,14.7764943 24.8419018,14.5401212 C24.9407603,14.3303639 24.4230209,14.2188314 24.208194,14.2657257 C24.0022389,14.1770066 23.9426704,14.115537 23.5320277,14.074346 C23.1397625,13.9178201 22.941412,14.3246606 22.6423018,13.7955145 C22.3495288,13.3329078 22.4319108,13.2784089 22.305803,13.1142785 C22.0992142,13.0217572 22.1435738,12.7194785 21.8064412,12.7182111 C21.5618299,12.7074381 20.4997356,12.9330381 20.568176,12.9064224 C20.5098749,12.9450785 20.5320547,13.1117437 19.8863063,13.1066741 C19.2221805,13.2004628 18.5929086,13.1947594 18.6543782,13.2860134 C18.6524771,13.2410201 17.5092681,13.33671 17.3413356,13.1947594 C17.2716277,13.0521752 16.7824052,12.787919 16.78494,12.8734696 C16.7145985,12.8113662 16.4712547,12.5217617 16.3407108,12.9691594 C16.1987603,13.2631999 16.1258839,13.8322696 16.2374164,14.1586291 C16.2646659,14.4247864 15.7627693,14.2929752 16.3052232,14.5597662 C16.845776,14.9070381 16.8210614,14.4767505 16.8527468,15.0198381 C16.9294254,15.4735729 17.1867108,15.3734471 16.7925445,15.8499954 C16.4940681,16.3664673 16.229812,16.77711 16.2063648,16.8658291 C16.2830434,16.7866156 16.4135872,18.4101752 16.5472996,18.833492 C16.6753086,19.243501 16.958576,19.725119 17.3514749,20.2663055 C17.6670614,20.7561617 17.5777086,20.9335999 18.1328367,20.9792269 C18.7988636,20.9316988 18.8191423,20.9057167 19.0257311,20.7777078 C19.270976,20.7396853 19.4503153,20.571119 19.4344726,20.6313212 C19.4667917,20.6268853 20.3172277,20.9164898 20.3482794,20.9437392 C20.3235648,20.8632583 20.0288906,20.9329662 20.8178569,21.1946875 C21.6492816,21.371492 21.4756457,21.2289078 21.9230434,21.4785887 C22.5383738,21.7396763 22.8976861,21.9583055 22.8469895,21.9747819 C22.8875468,22.0178741 23.2772771,22.3049437 23.2665041,22.3081123 C23.2722075,22.3645123 23.398949,22.7307954 23.2652367,22.9912493 C23.1543378,23.3201437 22.1904681,24.8175954 22.2747513,24.7320448 C22.1955378,24.8385078 21.7861625,25.0178471 21.5295108,25.0812179 C21.2918704,25.1984538 21.0447243,25.211128 20.9705805,25.2155639 C21.0390209,25.2073257 20.1974569,25.7022516 19.7899827,25.816319 C19.4078569,25.9132763 19.0339693,26.805537 19.0365041,26.8555999 C19.0415738,26.8600359 18.8204097,26.9379819 18.2335962,27.2332898 C17.5479243,27.5064179 17.1905131,27.8486201 17.2475468,27.8327774 C17.2057221,27.8327774 17.8875917,28.0133842 16.8996412,28.026692 C15.800158,28.0133842 15.5099198,28.0197212 15.5263962,28.0545752 C15.5688547,28.0209887 15.8356457,27.9126246 15.1106839,28.287146 C14.3705131,28.5767505 13.9788816,28.7522875 13.9383243,28.9918291 C13.8812906,29.1863774 13.8185535,29.9690066 13.8204547,29.881555 C13.7786299,29.9360538 13.6791378,30.0748359 13.6708996,30.0729347 C13.6708996,30.1844673 12.5783872,31.0234965 12.6100726,31.0127235 C12.5815558,31.0900359 11.7209805,31.8124628 11.6911962,31.809928 C11.6303603,31.8327415 11.0961445,32.4176538 11.0657266,32.3536493 C11.0327738,32.3270336 11.0809356,32.7985123 11.0017221,32.7516179 C11.0391108,32.7959774 10.8800502,33.2592179 10.8489985,33.2883684 C10.9377176,33.2680898 10.3223872,33.2528808 10.303376,33.2750606 C10.3287243,33.2554156 9.93138948,33.5107999 9.80021195,33.4246156 C9.68234229,33.4879864 9.33000072,33.2395729 9.29324566,33.2693572 C9.35344791,33.2211954 9.37942993,32.8808943 9.08855802,33.0006651 C8.73114679,33.1248718 8.72987937,33.0031999 8.75776252,33.1660628 C8.69502544,33.3409662 8.80972656,33.3992673 8.58095802,33.5336134 C8.46562319,33.5443864 7.68933106,34.1476763 7.71151083,34.1248628 C7.65764566,34.102683 7.43648162,34.7066066 6.96056701,34.5640224 C6.44916476,34.3447594 6.15005465,34.0336089 6.20772207,34.1514785 C6.21912881,34.1058516 5.61520521,33.4100403 5.63548386,33.3010426 C5.65196027,33.313083 5.32053106,33.024746 5.24638724,33.5900134 C5.23434679,34.1305662 5.13295353,35.152737 5.20456252,35.0589482 C5.14119173,35.1001392 5.19315577,35.9055819 5.34651308,36.3612179 C5.53155577,36.8130516 6.15892656,38.163483 6.16843218,38.1153212 C6.12407263,38.2065752 6.85283667,39.0506741 6.85283667,38.9632224 C6.89719622,38.9625887 7.27995577,38.890346 7.19503892,39.0310291 C7.11709285,39.3485167 7.02647263,39.6945212 7.00365915,39.7807055 C6.98845016,39.6932538 7.45359173,40.7610516 7.50618948,40.9866516 C7.42760971,41.131137 7.48907937,41.8618021 7.45169061,41.8047684 C7.46816701,41.8288493 7.85853106,42.2002021 7.89211757,42.4891729 C7.97449959,42.7071684 8.03723667,42.8624269 8.04547488,42.9397392 C8.08413106,43.1057707 7.99414454,43.803483 7.79199173,44.259119 C7.58160072,44.7717887 6.90036476,45.4973842 6.77615802,45.5778651 C6.62089959,45.5949752 5.3883378,46.0962381 5.17160971,46.1089123 C4.94981195,46.1602426 4.65133555,46.3497212 4.66971308,46.3383145 C4.71597375,46.2844493 3.26098049,47.8205572 3.24957375,47.8148538 C3.30597375,47.807883 3.15134903,47.9434965 3.02904342,48.4460269 C2.82055353,48.9441212 2.64374903,49.4941797 2.70078274,49.4884763 C2.68050409,49.4453842 2.49926364,49.7020359 2.49102544,49.7064718 C2.49926364,49.7375235 1.86175353,49.7337212 1.85478274,49.7780808 C1.86999173,49.7052044 1.4568142,50.1627415 1.33387488,50.2463909 C1.17671533,50.3192673 0.96442319,50.5670471 0.761636674,50.6652718 C0.534769258,50.6506965 0.0442793702,51.3756583 0.000553527546,51.6164673 C-0.0133880455,51.7894696 0.240728808,52.1259684 0.232490606,52.3217842 C0.295861393,52.4859145 0.355429932,52.3756493 0.43907937,52.7324269 C0.466328808,52.9865437 0.586733303,53.057519 0.56391982,53.3078336 C0.563286112,53.5296314 0.681789483,53.5461078 0.68559173,53.6202516 C0.660877123,53.8122651 1.12855353,54.0568763 1.03349735,54.2444538 C0.802193977,54.3642246 0.787618696,54.1753797 0.699533303,54.406683 C0.570890606,54.6005976 0.640598471,54.8610516 0.600674876,54.8046516 C0.572158022,54.8122561 0.331349033,54.8692898 0.838315325,54.9003415 C1.27430634,55.0182111 1.44350634,55.1234066 1.41752431,55.0866516 C1.40548386,55.0689078 1.40738499,55.2748628 1.44604117,55.2482471 C1.42196027,55.2697932 1.01131757,55.7165572 0.93780746,55.6994471 C0.865564764,55.753946 0.870634426,55.0955235 0.739456898,55.7767594 C0.723614202,56.4991864 0.532234426,56.5200988 0.796490606,56.5422785 C0.98533555,56.6443055 0.996742292,56.6481078 1.22487712,56.6911999 C1.335776,56.7976628 1.1824187,56.2868943 1.32690409,56.795128 C1.44604117,57.2038696 1.16087263,57.2780134 1.32120072,57.4662246 C1.51511533,57.7399864 1.53602768,57.6480988 1.53666139,57.9516448 C1.54616701,58.1170426 1.84274229,57.9941033 1.55123667,58.2368134 C1.31232881,58.6278111 1.33450858,58.6537932 1.21093555,58.7222336 C1.12918724,58.8439055 1.19129061,58.6094336 1.12855353,59.0004314 C1.02335802,59.4554336 1.23248162,60.0181662 1.24135353,60.0821707" id="Fill-85"></path>
                        <path d="M10.0194749,10.8494066 C10.0118704,10.8481392 8.93203218,10.4577752 8.79134903,10.4558741 C8.64749735,10.4571415 8.45231533,10.6523235 8.20390184,10.8487729 C7.95485465,11.0420538 7.62152431,11.3386291 7.42127263,11.3880583 C7.22925915,11.4311505 7.2254569,11.6275999 7.46880072,12.0223999 C7.71404566,12.4127639 6.93395128,12.5591505 8.30022544,12.557883 C9.67030184,12.5585167 9.96687712,12.5591505 9.97004566,12.5585167 C9.96370858,12.5597842 10.2108547,12.4108628 10.3534389,12.5604179 C10.4966569,12.7074381 10.4073041,12.8050291 10.8895558,12.8538246 C11.3775108,12.9032538 11.4858749,12.9989437 11.8192052,12.8531909 C12.1664771,12.705537 12.307794,12.6548403 12.4643198,12.5585167 C12.600567,12.4609257 12.6031018,12.4640943 12.6062704,12.4621932 C12.605003,12.4609257 12.4047513,12.2156808 12.7982839,12.0211325 C13.1873805,11.8265842 13.2399782,12.1668853 13.1867468,11.8278516 C13.1455558,11.4818471 13.7836996,11.434319 13.0004367,11.2872988 C12.2184412,11.1396448 12.7944816,11.2378696 11.8756052,10.9476314 C10.9446884,10.6529572 10.9396187,10.6523235 10.9472232,10.6542246 C10.9421535,10.6523235 10.3534389,10.8969347 10.3547063,10.8937662 C10.3559738,10.8975684 10.0188412,10.8487729 10.0194749,10.8494066" id="Fill-86"></path>
                        <path d="M15.9788636,17.3987774 C15.9794973,17.3987774 15.9782299,17.7416134 15.732985,17.9836898 C15.4902749,18.2289347 15.292558,18.5743055 15.2944591,18.5743055 C15.2944591,18.5743055 14.8540322,19.3062381 14.8552996,18.4247505 C14.8559333,17.5464314 14.8546659,17.5451639 14.8552996,17.5476988 C14.8552996,17.5457976 14.6075198,17.4000448 14.6087824,17.4000448 C14.6075198,17.3994111 15.0473131,17.0103145 15.0492142,17.0090471 C15.0498479,17.0084134 15.3907827,16.7150066 15.9788636,17.3987774" id="Fill-87"></path>
                        <path d="M25.8520322,12.3633347 C25.8513985,12.3646021 25.2157895,12.9501482 25.3146479,13.2929842 C25.4116052,13.6345527 25.9508906,13.829101 25.9502569,13.8303684 C25.9496232,13.8303684 26.3906839,13.8297347 26.3894164,13.3893078 C26.3906839,12.9520493 26.438212,12.3164403 25.8520322,12.3633347" id="Fill-88"></path>
                        <path d="M17.8343603,53.9637212 C17.8356277,53.964355 17.004203,54.4047819 17.0048367,54.4028808 C17.0054704,54.4041482 16.6867153,54.5011055 16.7088951,54.6753752 C16.7336097,54.8452089 16.7107962,55.0144089 16.9554075,54.9440673 C17.2006524,54.8699235 17.2006524,54.8940044 17.3216906,54.7964134 C17.4439962,54.697555 17.6169985,54.4770246 17.7145895,54.4275954 C17.8128142,54.3813347 17.9332187,54.1360898 17.8343603,53.9637212" id="Fill-89"></path>
                        <path d="M20.5497985,46.7793642 C20.5491648,46.7787415 20.2310433,46.8040898 20.2310433,47.2679639 C20.2310433,47.7318381 20.229776,48.0512269 20.501003,47.977083 C20.7684277,47.9035729 21.0618344,47.365555 21.0624681,47.3649212 C21.0618344,47.3649212 20.6942839,46.8040898 20.5497985,46.7793642" id="Fill-90"></path>
                        <path d="M21.74814,42.0367055 C21.7468726,42.0367055 21.3298929,42.0354381 21.305812,42.4042561 C21.2823648,42.7692718 21.403403,42.9669887 21.6733625,42.8687639 C21.9414209,42.7692718 22.2367288,42.3554606 22.2367288,42.3554606 C22.2360951,42.3548269 21.8926254,41.9403819 21.74814,42.0367055" id="Fill-91"></path>
                        <path d="M21.1613266,39.5975639 C21.1587917,39.5893257 20.6923827,39.4207594 20.691749,39.7186021 C20.6955513,40.003137 20.9914929,40.0094741 21.0174749,40.2306381 C21.0364861,40.4441976 20.9407962,40.6469842 21.0903513,40.7933707 C21.2335693,40.9397572 21.3051782,41.0316448 21.552958,41.0874111 C21.7969356,41.1349392 22.0117625,41.1336718 22.0155648,41.131137 C22.0117625,41.1336718 22.1163243,40.8637123 22.286158,40.6932448 C22.4540906,40.5196089 22.5770299,40.6229033 22.5998434,40.3022471 C22.6277266,39.9891954 22.6283603,39.8630875 22.6302614,39.7407819 C22.6296277,39.6153078 22.6055468,39.5177167 22.7227827,39.4987055 C22.8450884,39.4676538 22.8970524,39.4733572 23.2608007,39.4182246 C23.624549,39.3719639 23.7975513,39.3947774 23.9223917,39.2965527 C24.0446973,39.2008628 24.0884232,39.3529527 24.1384861,39.1305212 C24.1879153,38.9125257 24.2880412,38.8630965 24.1942524,38.5696898 C24.0896906,38.2737482 24.090958,38.2750156 24.0903243,38.2686785 C24.0928591,38.2705797 23.8469805,38.0481482 23.8457131,38.0557527 C23.8457131,38.0519505 23.9952681,37.6628538 23.9927333,37.5639954 C23.9959018,37.465137 23.9749895,37.3459999 24.0440636,37.2680538 C24.1182075,37.1958111 24.0934929,37.2731235 24.2183333,37.1463819 C24.3381041,37.0209078 24.4566075,36.9816179 24.5098389,36.8567774 C24.5599018,36.7344718 24.6308771,36.783901 24.6574929,36.4600763 C24.6822075,36.1463909 24.6771378,36.141955 24.6815738,36.1489257 C24.6790389,36.1470246 24.7031198,36.029155 24.5351872,36.1717392 C24.362185,36.3149572 24.3640861,36.3168583 24.2658614,36.4835235 C24.1638344,36.6577932 24.1872816,36.7046875 24.0459648,36.8808583 C23.8976771,37.0456224 23.8482479,37.1438471 23.7962839,37.2230606 C23.7531917,37.3003729 24.238612,37.2192583 23.6308861,37.5639954 C23.0149221,37.9099999 22.5801985,38.0747639 22.5732277,38.0804673 C22.5801985,38.0779325 22.7474973,37.6394066 22.4528232,38.4644943 C22.1619513,39.3041572 21.9693041,39.5443325 21.8159468,39.5462336 C21.6746299,39.5449662 21.1606929,39.5899594 21.1613266,39.5975639" id="Fill-92"></path>
                    </g>
                </g>
            </g>
        </g>
    </g>
</svg>