<?xml version="1.0" encoding="UTF-8"?>
<svg id="b" data-name="レイヤー 2" xmlns="http://www.w3.org/2000/svg" viewBox="0 0 44.47 48">
  <defs>
    <style>
      .d {
        fill: #7e7e7e;
      }
    </style>
  </defs>
  <g id="c" data-name="Layer 1">
    <g>
      <path class="d" d="M17.87,31.46c.93,1.71,2.05,2.83,3.24,3.26v-11.38h-5.29c.14,3.08.85,5.93,2.05,8.12Z"/>
      <path class="d" d="M23.34,23.34h0v11.38c1.19-.43,2.31-1.55,3.24-3.26,1.19-2.19,1.91-5.03,2.05-8.12h-5.29Z"/>
      <path class="d" d="M17.87,12.99c-1.19,2.19-1.91,5.03-2.05,8.12h5.29v-11.38c-1.19.43-2.31,1.55-3.24,3.26Z"/>
      <path class="d" d="M27.91,10.88c1.68,2.49,2.78,6.11,2.95,10.23h4.01c-.39-4.48-3.12-8.3-6.96-10.23Z"/>
      <path class="d" d="M26.58,12.99c-.93-1.71-2.05-2.83-3.24-3.26v11.38h5.29c-.14-3.08-.85-5.93-2.05-8.12Z"/>
      <path class="d" d="M27.91,33.57c3.84-1.93,6.57-5.75,6.96-10.23h-4.01c-.17,4.13-1.27,7.74-2.95,10.23Z"/>
      <path class="d" d="M40.37,35.05c10.3-14.5.02-35.05-18.15-35.05C9.97,0,0,9.97,0,22.22c0,16.14,16.65,26.78,31.2,20.34l10.32,5.25c1.32.67,2.82-.58,2.35-2.01l-3.5-10.75ZM22.22,37.15c-8.23,0-14.93-6.7-14.93-14.93s6.7-14.93,14.93-14.93,14.93,6.7,14.93,14.93-6.7,14.93-14.93,14.93Z"/>
      <path class="d" d="M9.58,23.34h0c.39,4.48,3.12,8.3,6.96,10.23-1.68-2.49-2.78-6.11-2.95-10.23h-4.01Z"/>
      <path class="d" d="M16.54,10.88c-3.84,1.93-6.57,5.75-6.96,10.23h4.01c.17-4.13,1.27-7.74,2.95-10.23Z"/>
    </g>
  </g>
</svg>