<?xml version="1.0" encoding="UTF-8"?>
<svg id="b" data-name="レイヤー 2" xmlns="http://www.w3.org/2000/svg" viewBox="0 0 48 48">
  <defs>
    <style>
      .d {
        fill: #7e7e7e;
      }
    </style>
  </defs>
  <g id="c" data-name="2">
    <g>
      <path class="d" d="M31.39,15.65l-6.14-6.14c-3.7,2.22-11.87,5.88-11.87,5.88-1.85.77-3.18,2.42-3.54,4.39l-4.14,19.28-2.37,2.37c-.86-.01-1.71.31-2.37.96-1.28,1.28-1.28,3.36,0,4.65,1.28,1.28,3.36,1.28,4.65,0,.65-.65.97-1.51.96-2.36l2.37-2.37,19.28-4.14c1.97-.36,3.62-1.69,4.39-3.54,0,0,3.66-8.17,5.88-11.87l-6.14-6.14-.96-.96ZM25.3,28.32c-1.43,1.43-3.67,1.54-5.23.34l-14.12,14.12c-.1-.14-.21-.27-.34-.4-.13-.13-.26-.23-.4-.34l14.12-14.12c-1.2-1.56-1.09-3.8.34-5.23,1.55-1.55,4.07-1.55,5.63,0s1.55,4.07,0,5.63Z"/>
      <path class="d" d="M34.9,0l-4.23,4.23c-1.48,1.48-3.4,1.04-3.4,1.04l-1.78,1.78,6.22,6.22,1.48,1.48,7.77,7.77,1.78-1.78s-.44-1.92,1.04-3.4c1.48-1.48,4.23-4.23,4.23-4.23L34.9,0Z"/>
    </g>
  </g>
</svg>