<?xml version="1.0" encoding="UTF-8"?>
<svg width="21px" height="21px" viewBox="0 0 21 21" version="1.1" xmlns="http://www.w3.org/2000/svg" xmlns:xlink="http://www.w3.org/1999/xlink">
    <title>言語</title>
    <g id="Home" stroke="none" stroke-width="1" fill="none" fill-rule="evenodd">
        <g id="home/pc" transform="translate(-1261.000000, -28.000000)" fill="#F2A900" fill-rule="nonzero">
            <g id="言語" transform="translate(1261.000000, 28.000000)">
                <path d="M10.23976,0.00024 C4.58428,0.00052 0.00048,4.58448 0,10.24 C0.00048,15.89548 4.58428,20.47944 10.23976,20.47976 C15.89572,20.47944 20.47968,15.89548 20.48,10.24 C20.47968,4.58448 15.89572,0.00052 10.23976,0.00024 Z M3.90428,3.90448 C4.83788,2.97136 5.97472,2.24548 7.24248,1.79548 C6.63516,2.53048 6.12888,3.47172 5.7322,4.56012 L3.31088,4.56012 C3.49808,4.33232 3.69584,4.11296 3.90428,3.90448 Z M2.62448,5.52012 L5.42392,5.52012 C5.0636,6.79728 4.84752,8.23348 4.8094,9.76 L1.29308,9.76 C1.37496,8.20784 1.852,6.76352 2.62448,5.52012 Z M1.29308,10.72 L4.81272,10.72 C4.85116,12.24496 5.06112,13.68368 5.42096,14.95992 L2.62448,14.95992 C1.852,13.71648 1.37496,12.27216 1.29308,10.72 Z M3.90428,16.57544 C3.69584,16.367 3.49804,16.14764 3.31084,15.91984 L5.73376,15.91984 C5.90496,16.3908 6.09452,16.8376 6.30624,17.24824 C6.5844,17.78576 6.89656,18.26696 7.24016,18.68384 C5.97328,18.23384 4.83724,17.50796 3.90428,16.57544 Z M9.31336,19.15228 C9.07776,19.04668 8.84448,18.90228 8.61336,18.71384 C7.90808,18.13948 7.25432,17.167 6.75744,15.91984 L9.75988,15.91984 L9.75988,19.18668 C9.61008,19.17884 9.46116,19.1676 9.31336,19.15228 Z M6.42248,14.95988 C6.0434,13.71304 5.80984,12.26744 5.76936,10.71996 L9.75988,10.71996 L9.75988,14.95988 L6.42248,14.95988 Z M5.7724,9.76 C5.81272,8.2116 6.0474,6.76724 6.42676,5.52012 L9.75996,5.52012 L9.75996,9.76 L5.7724,9.76 Z M6.76188,4.56012 C6.88624,4.24852 7.01656,3.94764 7.15924,3.67232 C7.58484,2.84732 8.08604,2.19672 8.6134,1.76608 C8.84448,1.57768 9.07776,1.43328 9.3134,1.32768 C9.4612,1.3124 9.61008,1.30112 9.75996,1.29332 L9.75996,4.56012 L6.76188,4.56012 Z M17.85568,5.52012 C18.62816,6.76352 19.10504,8.20788 19.18692,9.76 L15.66728,9.76 C15.62884,8.23504 15.41888,6.79632 15.05888,5.52012 L17.85568,5.52012 Z M16.57572,3.90448 C16.78416,4.11292 16.98196,4.33232 17.16916,4.56012 L14.74608,4.56012 C14.57484,4.0892 14.38516,3.64232 14.1736,3.23172 C13.89548,2.69424 13.58328,2.213 13.23972,1.79612 C14.50672,2.2464 15.6426,2.97204 16.57572,3.90448 Z M11.16632,1.32768 C11.40192,1.43364 11.63524,1.57768 11.86648,1.76608 C12.57192,2.34044 13.22552,3.31292 13.72236,4.56008 L10.71992,4.56008 L10.71992,1.29332 C10.86976,1.30112 11.01868,1.31268 11.16632,1.32768 Z M14.05736,5.52012 C14.4364,6.76696 14.67016,8.21252 14.71048,9.76 L10.71992,9.76 L10.71992,5.52012 L14.05736,5.52012 Z M14.70732,10.72 C14.66704,12.2684 14.43236,13.71272 14.05296,14.95992 L10.71992,14.95992 L10.71992,10.72 L14.70732,10.72 Z M11.86644,18.71384 C11.6352,18.90228 11.40188,19.04636 11.16628,19.15228 C11.01864,19.16728 10.86972,19.17884 10.71988,19.18668 L10.71988,15.91988 L13.71792,15.91988 C13.59356,16.23144 13.46324,16.53236 13.3206,16.80768 C12.89504,17.63264 12.3938,18.28324 11.86644,18.71384 Z M16.57572,16.57544 C15.64228,17.50856 14.50516,18.23448 13.23736,18.68444 C13.84484,17.94944 14.35076,17.00824 14.74764,15.91984 L17.16916,15.91984 C16.98192,16.14768 16.78416,16.36704 16.57572,16.57544 Z M17.85568,14.95988 L15.05576,14.95988 C15.41608,13.68272 15.63232,12.2462 15.67044,10.71996 L19.18692,10.71996 C19.10504,12.27216 18.62816,13.71648 17.85568,14.95988 Z" id="Shape"></path>
            </g>
        </g>
    </g>
</svg>